<?xml version="1.0" encoding="us-ascii" standalone="no"?><svg xmlns="http://www.w3.org/2000/svg" xmlns:xlink="http://www.w3.org/1999/xlink" contentStyleType="text/css" height="245px" preserveAspectRatio="none" style="width:752px;height:245px;background:#FFFFFF;" version="1.1" viewBox="0 0 752 245" width="752px" zoomAndPan="magnify"><defs/><g><text fill="#000000" font-family="sans-serif" font-size="14" font-weight="bold" lengthAdjust="spacing" textLength="191" x="273.5" y="22.9951">OTel To PV Architecture</text><!--cluster Bespoke--><g id="cluster_Bespoke"><rect fill="none" height="133" rx="2.5" ry="2.5" style="stroke:#181818;stroke-width:1.0;" width="731.5" x="14.5" y="106.2969"/><text fill="#000000" font-family="sans-serif" font-size="14" font-weight="bold" lengthAdjust="spacing" textLength="87" x="336.75" y="121.292">OTel To PV</text></g><!--entity JSONExtractor--><g id="elem_JSONExtractor"><rect fill="#F1F1F1" height="46.2969" rx="2.5" ry="2.5" style="stroke:#181818;stroke-width:0.5;" width="115" x="30.5" y="150.2969"/><rect fill="#F1F1F1" height="10" style="stroke:#181818;stroke-width:0.5;" width="15" x="125.5" y="155.2969"/><rect fill="#F1F1F1" height="2" style="stroke:#181818;stroke-width:0.5;" width="4" x="123.5" y="157.2969"/><rect fill="#F1F1F1" height="2" style="stroke:#181818;stroke-width:0.5;" width="4" x="123.5" y="161.2969"/><text fill="#000000" font-family="sans-serif" font-size="14" lengthAdjust="spacing" textLength="75" x="45.5" y="183.292">JQExtractor</text></g><!--entity Sequencer--><g id="elem_Sequencer"><rect fill="#F1F1F1" height="46.2969" rx="2.5" ry="2.5" style="stroke:#181818;stroke-width:0.5;" width="116" x="614" y="161.2969"/><rect fill="#F1F1F1" height="10" style="stroke:#181818;stroke-width:0.5;" width="15" x="710" y="166.2969"/><rect fill="#F1F1F1" height="2" style="stroke:#181818;stroke-width:0.5;" width="4" x="708" y="168.2969"/><rect fill="#F1F1F1" height="2" style="stroke:#181818;stroke-width:0.5;" width="4" x="708" y="172.2969"/><text fill="#000000" font-family="sans-serif" font-size="14" lengthAdjust="spacing" textLength="76" x="629" y="194.292">Sequencer</text></g><!--entity TreeVerify--><g id="elem_TreeVerify"><rect fill="#F1F1F1" height="62.5938" rx="2.5" ry="2.5" style="stroke:#181818;stroke-width:0.5;" width="113" x="329" y="153.7969"/><rect fill="#F1F1F1" height="10" style="stroke:#181818;stroke-width:0.5;" width="15" x="422" y="158.7969"/><rect fill="#F1F1F1" height="2" style="stroke:#181818;stroke-width:0.5;" width="4" x="420" y="160.7969"/><rect fill="#F1F1F1" height="2" style="stroke:#181818;stroke-width:0.5;" width="4" x="420" y="164.7969"/><text fill="#000000" font-family="sans-serif" font-size="14" lengthAdjust="spacing" textLength="73" x="344" y="186.792">Group and</text><text fill="#000000" font-family="sans-serif" font-size="14" lengthAdjust="spacing" textLength="37" x="344" y="203.0889">Verify</text></g><!--entity OTelSource--><g id="elem_OTelSource"><rect fill="#F1F1F1" height="46.2969" rx="2.5" ry="2.5" style="stroke:#181818;stroke-width:0.5;" width="162" x="7" y="44.2969"/><rect fill="#F1F1F1" height="10" style="stroke:#181818;stroke-width:0.5;" width="15" x="149" y="49.2969"/><rect fill="#F1F1F1" height="2" style="stroke:#181818;stroke-width:0.5;" width="4" x="147" y="51.2969"/><rect fill="#F1F1F1" height="2" style="stroke:#181818;stroke-width:0.5;" width="4" x="147" y="55.2969"/><text fill="#000000" font-family="sans-serif" font-size="14" lengthAdjust="spacing" textLength="122" x="22" y="77.292">OTel JSON Source</text></g><!--entity PV--><g id="elem_PV"><rect fill="#F1F1F1" height="46.2969" rx="2.5" ry="2.5" style="stroke:#181818;stroke-width:0.5;" width="148" x="598" y="44.2969"/><rect fill="#F1F1F1" height="10" style="stroke:#181818;stroke-width:0.5;" width="15" x="726" y="49.2969"/><rect fill="#F1F1F1" height="2" style="stroke:#181818;stroke-width:0.5;" width="4" x="724" y="51.2969"/><rect fill="#F1F1F1" height="2" style="stroke:#181818;stroke-width:0.5;" width="4" x="724" y="55.2969"/><text fill="#000000" font-family="sans-serif" font-size="14" lengthAdjust="spacing" textLength="108" x="613" y="77.292">Protocol Verifier</text></g><!--reverse link JSONExtractor to OTelSource--><g id="link_JSONExtractor_OTelSource"><path d="M88,144.2969 C88,126.6369 88,108.3569 88,90.6169 " fill="none" id="JSONExtractor-backto-OTelSource" style="stroke:#181818;stroke-width:1.0;"/><polygon fill="#181818" points="88,150.2969,92,141.2969,88,145.2969,84,141.2969,88,150.2969" style="stroke:#181818;stroke-width:1.0;"/><text fill="#000000" font-family="sans-serif" font-size="13" lengthAdjust="spacing" textLength="69" x="42" y="124.8638">Send JSON</text></g><!--link JSONExtractor to TreeVerify--><g id="link_JSONExtractor_TreeVerify"><path d="M145.63,175.5969 C198.25,177.7369 270.175,180.6532 322.575,182.7832 " fill="none" id="JSONExtractor-to-TreeVerify" style="stroke:#181818;stroke-width:1.0;"/><polygon fill="#181818" points="328.57,183.0269,319.7399,178.6646,323.5741,182.8238,319.415,186.658,328.57,183.0269" style="stroke:#181818;stroke-width:1.0;"/><text fill="#000000" font-family="sans-serif" font-size="13" lengthAdjust="spacing" textLength="98" x="200" y="159.3638">Send extracted</text><text fill="#000000" font-family="sans-serif" font-size="13" lengthAdjust="spacing" textLength="32" x="233" y="174.4966">JSON</text></g><!--link TreeVerify to Sequencer--><g id="link_TreeVerify_Sequencer"><path d="M442.03,185.0969 C491.51,184.9269 557.63,184.6985 607.66,184.5185 " fill="none" id="TreeVerify-to-Sequencer" style="stroke:#181818;stroke-width:1.0;"/><polygon fill="#181818" points="613.66,184.4969,604.6457,180.5293,608.66,184.5149,604.6744,188.5292,613.66,184.4969" style="stroke:#181818;stroke-width:1.0;"/><text fill="#000000" font-family="sans-serif" font-size="13" lengthAdjust="spacing" textLength="94" x="473" y="151.3638">Verify tree and</text><text fill="#000000" font-family="sans-serif" font-size="13" lengthAdjust="spacing" textLength="68" x="486" y="166.4966">release for</text><text fill="#000000" font-family="sans-serif" font-size="13" lengthAdjust="spacing" textLength="73" x="483.5" y="181.6294">sequencing</text></g><!--link Sequencer to PV--><g id="link_Sequencer_PV"><path d="M672,161.1769 C672,140.6669 672,116.8569 672,96.3669 " fill="none" id="Sequencer-to-PV" style="stroke:#181818;stroke-width:1.0;"/><polygon fill="#181818" points="672,90.3669,668,99.3669,672,95.3669,676,99.3669,672,90.3669" style="stroke:#181818;stroke-width:1.0;"/><text fill="#000000" font-family="sans-serif" font-size="13" lengthAdjust="spacing" textLength="107" x="599.5" y="122.8638">Send sequenced</text><text fill="#000000" font-family="sans-serif" font-size="13" lengthAdjust="spacing" textLength="107" x="599.5" y="137.9966">JSON array to PV</text></g><!--SRC=[NP7BQiCm44Nt-eh1U_z05uKMIY6BniN6gso4F7P4LOqp7aD3wRzN3yTseesOgtFdeH4h3k7Oe8E6e6hXXStP2XgP6PN3Na08s0vdWSvoq2rv5M_jX-0iDci1Ue9Nd4RwGlXL48wXxv4yUe7YyFds8woD42VmK1y_LkKHhl4oepUOqJLwnDwPvX6qxqw-HRRzDU4D8-PG_QaTdJgDPQ6ccGqcE8evtACLav0X1ocFNVgeMgKs7ihuE-Np_IJm5DhrNHBL_KiPsAst6uZv7SCCoRCZec6TFV2BB878GpCwr1D2JtpoKoQj7zHcAjFcGfwmsQNWmjqAWcRMrxZaglq7]--></g></svg>