<?xml version="1.0" encoding="us-ascii" standalone="no"?><svg xmlns="http://www.w3.org/2000/svg" xmlns:xlink="http://www.w3.org/1999/xlink" contentStyleType="text/css" height="628px" preserveAspectRatio="none" style="width:581px;height:628px;background:#FFFFFF;" version="1.1" viewBox="0 0 581 628" width="581px" zoomAndPan="magnify"><defs/><g><text fill="#000000" font-family="sans-serif" font-size="14" font-weight="bold" lengthAdjust="spacing" textLength="191" x="188" y="22.9951">OTel To PV Architecture</text><!--cluster Bespoke--><g id="cluster_Bespoke"><rect fill="none" height="360" rx="2.5" ry="2.5" style="stroke:#181818;stroke-width:1.0;" width="407" x="166.5" y="153.2969"/><text fill="#000000" font-family="sans-serif" font-size="14" font-weight="bold" lengthAdjust="spacing" textLength="87" x="326.5" y="168.292">OTel To PV</text></g><!--entity JSONExtractor--><g id="elem_JSONExtractor"><rect fill="#F1F1F1" height="46.2969" rx="2.5" ry="2.5" style="stroke:#181818;stroke-width:0.5;" width="138" x="185.5" y="188.2969"/><rect fill="#F1F1F1" height="10" style="stroke:#181818;stroke-width:0.5;" width="15" x="303.5" y="193.2969"/><rect fill="#F1F1F1" height="2" style="stroke:#181818;stroke-width:0.5;" width="4" x="301.5" y="195.2969"/><rect fill="#F1F1F1" height="2" style="stroke:#181818;stroke-width:0.5;" width="4" x="301.5" y="199.2969"/><text fill="#000000" font-family="sans-serif" font-size="14" lengthAdjust="spacing" textLength="98" x="200.5" y="221.292">JSON Extractor</text></g><!--entity Sequencer--><g id="elem_Sequencer"><rect fill="#F1F1F1" height="46.2969" rx="2.5" ry="2.5" style="stroke:#181818;stroke-width:0.5;" width="116" x="196.5" y="451.2969"/><rect fill="#F1F1F1" height="10" style="stroke:#181818;stroke-width:0.5;" width="15" x="292.5" y="456.2969"/><rect fill="#F1F1F1" height="2" style="stroke:#181818;stroke-width:0.5;" width="4" x="290.5" y="458.2969"/><rect fill="#F1F1F1" height="2" style="stroke:#181818;stroke-width:0.5;" width="4" x="290.5" y="462.2969"/><text fill="#000000" font-family="sans-serif" font-size="14" lengthAdjust="spacing" textLength="76" x="211.5" y="484.292">Sequencer</text></g><!--entity TreeVerify--><g id="elem_TreeVerify"><rect fill="#F1F1F1" height="62.5938" rx="2.5" ry="2.5" style="stroke:#181818;stroke-width:0.5;" width="143" x="183" y="311.2969"/><rect fill="#F1F1F1" height="10" style="stroke:#181818;stroke-width:0.5;" width="15" x="306" y="316.2969"/><rect fill="#F1F1F1" height="2" style="stroke:#181818;stroke-width:0.5;" width="4" x="304" y="318.2969"/><rect fill="#F1F1F1" height="2" style="stroke:#181818;stroke-width:0.5;" width="4" x="304" y="322.2969"/><text fill="#000000" font-family="sans-serif" font-size="14" lengthAdjust="spacing" textLength="92" x="198" y="344.292">Group job ids</text><text fill="#000000" font-family="sans-serif" font-size="14" lengthAdjust="spacing" textLength="103" x="198" y="360.5889">and Tree Verify</text></g><!--entity EndpointExtraJSON--><g id="elem_EndpointExtraJSON"><ellipse cx="41.5" cy="211.2969" fill="#F1F1F1" rx="8" ry="8" style="stroke:#181818;stroke-width:0.5;"/><text fill="#000000" font-family="sans-serif" font-size="14" lengthAdjust="spacing" textLength="62" x="6" y="241.292">Endpoint</text><text fill="#000000" font-family="sans-serif" font-size="14" lengthAdjust="spacing" textLength="71" x="6" y="257.5889">Extra JSON</text></g><!--entity NifiShardFileHandler--><g id="elem_NifiShardFileHandler"><rect fill="#F1F1F1" height="46.2969" rx="2.5" ry="2.5" style="stroke:#181818;stroke-width:0.5;" width="188" x="160.5" y="44.2969"/><rect fill="#F1F1F1" height="10" style="stroke:#181818;stroke-width:0.5;" width="15" x="328.5" y="49.2969"/><rect fill="#F1F1F1" height="2" style="stroke:#181818;stroke-width:0.5;" width="4" x="326.5" y="51.2969"/><rect fill="#F1F1F1" height="2" style="stroke:#181818;stroke-width:0.5;" width="4" x="326.5" y="55.2969"/><text fill="#000000" font-family="sans-serif" font-size="14" lengthAdjust="spacing" textLength="148" x="175.5" y="77.292">Nifi Shard File Handler</text></g><!--entity NifiSendToPV--><g id="elem_NifiSendToPV"><rect fill="#F1F1F1" height="46.2969" rx="2.5" ry="2.5" style="stroke:#181818;stroke-width:0.5;" width="140" x="184.5" y="576.2969"/><rect fill="#F1F1F1" height="10" style="stroke:#181818;stroke-width:0.5;" width="15" x="304.5" y="581.2969"/><rect fill="#F1F1F1" height="2" style="stroke:#181818;stroke-width:0.5;" width="4" x="302.5" y="583.2969"/><rect fill="#F1F1F1" height="2" style="stroke:#181818;stroke-width:0.5;" width="4" x="302.5" y="587.2969"/><text fill="#000000" font-family="sans-serif" font-size="14" lengthAdjust="spacing" textLength="100" x="199.5" y="609.292">Nifi Send to PV</text></g><!--link NifiShardFileHandler to JSONExtractor--><g id="link_NifiShardFileHandler_JSONExtractor"><path d="M254.5,90.4869 C254.5,117.1569 254.5,155.6569 254.5,182.2669 " fill="none" id="NifiShardFileHandler-to-JSONExtractor" style="stroke:#181818;stroke-width:1.0;"/><polygon fill="#181818" points="254.5,188.2669,258.5,179.2669,254.5,183.2669,250.5,179.2669,254.5,188.2669" style="stroke:#181818;stroke-width:1.0;"/><text fill="#000000" font-family="sans-serif" font-size="13" lengthAdjust="spacing" textLength="69" x="255.5" y="133.3638">Send JSON</text></g><!--link JSONExtractor to TreeVerify--><g id="link_JSONExtractor_TreeVerify"><path d="M254.5,234.5569 C254.5,255.6769 254.5,281.5869 254.5,305.1069 " fill="none" id="JSONExtractor-to-TreeVerify" style="stroke:#181818;stroke-width:1.0;"/><polygon fill="#181818" points="254.5,311.1069,258.5,302.1069,254.5,306.1069,250.5,302.1069,254.5,311.1069" style="stroke:#181818;stroke-width:1.0;"/><text fill="#000000" font-family="sans-serif" font-size="13" lengthAdjust="spacing" textLength="134" x="255.5" y="277.3638">Send extracted JSON</text></g><!--reverse link EndpointExtraJSON to JSONExtractor--><g id="link_EndpointExtraJSON_JSONExtractor"><path d="M56.65,211.2969 C79.66,211.2969 135.65,211.2969 185.27,211.2969 " fill="none" id="EndpointExtraJSON-backto-JSONExtractor" style="stroke:#181818;stroke-width:1.0;"/><polygon fill="#181818" points="50.65,211.2969,59.65,215.2969,55.65,211.2969,59.65,207.2969,50.65,211.2969" style="stroke:#181818;stroke-width:1.0;"/><text fill="#000000" font-family="sans-serif" font-size="13" lengthAdjust="spacing" textLength="98" x="69" y="204.3638">Send extracted</text></g><!--link TreeVerify to Sequencer--><g id="link_TreeVerify_Sequencer"><path d="M254.5,374.4869 C254.5,397.9769 254.5,423.8169 254.5,444.9269 " fill="none" id="TreeVerify-to-Sequencer" style="stroke:#181818;stroke-width:1.0;"/><polygon fill="#181818" points="254.5,450.9269,258.5,441.9269,254.5,445.9269,250.5,441.9269,254.5,450.9269" style="stroke:#181818;stroke-width:1.0;"/><text fill="#000000" font-family="sans-serif" font-size="13" lengthAdjust="spacing" textLength="243" x="255.5" y="417.3638">Verify tree and release for sequencing</text></g><!--link TreeVerify to TreeVerify--><g id="link_TreeVerify_TreeVerify"><path d="M326.18,329.7569 C345.92,330.3869 361,334.7269 361,342.7969 C361,350.8669 351.9169,355.0155 332.1769,355.6455 " fill="none" id="TreeVerify-to-TreeVerify" style="stroke:#181818;stroke-width:1.0;"/><polygon fill="#181818" points="326.18,355.8369,335.303,359.5478,331.1775,355.6774,335.0478,351.5518,326.18,355.8369" style="stroke:#181818;stroke-width:1.0;"/><text fill="#000000" font-family="sans-serif" font-size="13" lengthAdjust="spacing" textLength="147" x="394" y="339.8638">If failed after x seconds</text><text fill="#000000" font-family="sans-serif" font-size="13" lengthAdjust="spacing" textLength="201" x="367" y="354.9966">cache and wait for more events</text></g><!--link Sequencer to NifiSendToPV--><g id="link_Sequencer_NifiSendToPV"><path d="M254.5,497.5669 C254.5,519.8669 254.5,547.9569 254.5,570.1869 " fill="none" id="Sequencer-to-NifiSendToPV" style="stroke:#181818;stroke-width:1.0;"/><polygon fill="#181818" points="254.5,576.1869,258.5,567.1869,254.5,571.1869,250.5,567.1869,254.5,576.1869" style="stroke:#181818;stroke-width:1.0;"/><text fill="#000000" font-family="sans-serif" font-size="13" lengthAdjust="spacing" textLength="189" x="255.5" y="542.3638">Send JSON array to Nifi for PV</text></g><!--SRC=[RL7BRi903BplLrZS-O4UAhKIVHq0YIWdBkx62zk6tTHPMb3LVw-zWH0UkKIsPyQpu-HJJJ0hg8OYmho41xPhdyYcBPDX-MDO2M9qWem0MtYajecV1By6vBDnqyH08S7eRJ6RmcIN66sAdB7QwZkN-0LzRIbOwg1zTGbxvhXju2E-Ww_QPS1GGS54K19xjyzShRlI_1aV4h53AyudeMgYrCkGJMGxcN0SvBPspM3Xr3iFYpLo1KzU0dYHbVN1fSxoI2U7mJMNn6Fg0yiSQHLnNXfpIm76u_lphE2kKydUpYUAFJtu2AHkJhSfDRaajAjdNx7DG5aNzLSHvA6TD7oz0bDDs18usT1sE1zMbmfdLbyTE9HtLu1EhWGx8TeOzAuMxRhJ_K6VikWcCW5zIx2jEHbHqM6amwW0cN6lsUT3gCYy_0S0]--></g></svg>