<?xml version="1.0" encoding="us-ascii" standalone="no"?><svg xmlns="http://www.w3.org/2000/svg" xmlns:xlink="http://www.w3.org/1999/xlink" contentStyleType="text/css" height="673px" preserveAspectRatio="none" style="width:471px;height:673px;background:#FFFFFF;" version="1.1" viewBox="0 0 471 673" width="471px" zoomAndPan="magnify"><defs/><g><text fill="#000000" font-family="sans-serif" font-size="14" font-weight="bold" lengthAdjust="spacing" textLength="191" x="133.25" y="22.9951">OTel To PV Architecture</text><!--cluster Bespoke--><g id="cluster_Bespoke"><rect fill="none" height="405" rx="2.5" ry="2.5" style="stroke:#181818;stroke-width:1.0;" width="276" x="169.5" y="153.2969"/><text fill="#000000" font-family="sans-serif" font-size="14" font-weight="bold" lengthAdjust="spacing" textLength="87" x="264" y="168.292">OTel To PV</text></g><!--entity JSONExtractor--><g id="elem_JSONExtractor"><rect fill="#F1F1F1" height="46.2969" rx="2.5" ry="2.5" style="stroke:#181818;stroke-width:0.5;" width="138" x="185.5" y="188.2969"/><rect fill="#F1F1F1" height="10" style="stroke:#181818;stroke-width:0.5;" width="15" x="303.5" y="193.2969"/><rect fill="#F1F1F1" height="2" style="stroke:#181818;stroke-width:0.5;" width="4" x="301.5" y="195.2969"/><rect fill="#F1F1F1" height="2" style="stroke:#181818;stroke-width:0.5;" width="4" x="301.5" y="199.2969"/><text fill="#000000" font-family="sans-serif" font-size="14" lengthAdjust="spacing" textLength="98" x="200.5" y="221.292">JSON Extractor</text></g><!--entity Sequencer--><g id="elem_Sequencer"><rect fill="#F1F1F1" height="46.2969" rx="2.5" ry="2.5" style="stroke:#181818;stroke-width:0.5;" width="116" x="199.5" y="496.2969"/><rect fill="#F1F1F1" height="10" style="stroke:#181818;stroke-width:0.5;" width="15" x="295.5" y="501.2969"/><rect fill="#F1F1F1" height="2" style="stroke:#181818;stroke-width:0.5;" width="4" x="293.5" y="503.2969"/><rect fill="#F1F1F1" height="2" style="stroke:#181818;stroke-width:0.5;" width="4" x="293.5" y="507.2969"/><text fill="#000000" font-family="sans-serif" font-size="14" lengthAdjust="spacing" textLength="76" x="214.5" y="529.292">Sequencer</text></g><!--entity TreeVerify--><g id="elem_TreeVerify"><rect fill="#F1F1F1" height="62.5938" rx="2.5" ry="2.5" style="stroke:#181818;stroke-width:0.5;" width="143" x="186" y="311.2969"/><rect fill="#F1F1F1" height="10" style="stroke:#181818;stroke-width:0.5;" width="15" x="309" y="316.2969"/><rect fill="#F1F1F1" height="2" style="stroke:#181818;stroke-width:0.5;" width="4" x="307" y="318.2969"/><rect fill="#F1F1F1" height="2" style="stroke:#181818;stroke-width:0.5;" width="4" x="307" y="322.2969"/><text fill="#000000" font-family="sans-serif" font-size="14" lengthAdjust="spacing" textLength="92" x="201" y="344.292">Group job ids</text><text fill="#000000" font-family="sans-serif" font-size="14" lengthAdjust="spacing" textLength="103" x="201" y="360.5889">and Tree Verify</text></g><!--entity EndpointExtraJSON--><g id="elem_EndpointExtraJSON"><ellipse cx="41.5" cy="211.2969" fill="#F1F1F1" rx="8" ry="8" style="stroke:#181818;stroke-width:0.5;"/><text fill="#000000" font-family="sans-serif" font-size="14" lengthAdjust="spacing" textLength="62" x="6" y="241.292">Endpoint</text><text fill="#000000" font-family="sans-serif" font-size="14" lengthAdjust="spacing" textLength="71" x="6" y="257.5889">Extra JSON</text></g><!--entity NifiShardFileHandler--><g id="elem_NifiShardFileHandler"><rect fill="#F1F1F1" height="46.2969" rx="2.5" ry="2.5" style="stroke:#181818;stroke-width:0.5;" width="188" x="160.5" y="44.2969"/><rect fill="#F1F1F1" height="10" style="stroke:#181818;stroke-width:0.5;" width="15" x="328.5" y="49.2969"/><rect fill="#F1F1F1" height="2" style="stroke:#181818;stroke-width:0.5;" width="4" x="326.5" y="51.2969"/><rect fill="#F1F1F1" height="2" style="stroke:#181818;stroke-width:0.5;" width="4" x="326.5" y="55.2969"/><text fill="#000000" font-family="sans-serif" font-size="14" lengthAdjust="spacing" textLength="148" x="175.5" y="77.292">Nifi Shard File Handler</text></g><!--entity NifiSendToPV--><g id="elem_NifiSendToPV"><rect fill="#F1F1F1" height="46.2969" rx="2.5" ry="2.5" style="stroke:#181818;stroke-width:0.5;" width="148" x="183.5" y="621.2969"/><rect fill="#F1F1F1" height="10" style="stroke:#181818;stroke-width:0.5;" width="15" x="311.5" y="626.2969"/><rect fill="#F1F1F1" height="2" style="stroke:#181818;stroke-width:0.5;" width="4" x="309.5" y="628.2969"/><rect fill="#F1F1F1" height="2" style="stroke:#181818;stroke-width:0.5;" width="4" x="309.5" y="632.2969"/><text fill="#000000" font-family="sans-serif" font-size="14" lengthAdjust="spacing" textLength="108" x="198.5" y="654.292">Protocol Verifier</text></g><!--link NifiShardFileHandler to JSONExtractor--><g id="link_NifiShardFileHandler_JSONExtractor"><path d="M254.5,90.4869 C254.5,117.1569 254.5,155.6569 254.5,182.2669 " fill="none" id="NifiShardFileHandler-to-JSONExtractor" style="stroke:#181818;stroke-width:1.0;"/><polygon fill="#181818" points="254.5,188.2669,258.5,179.2669,254.5,183.2669,250.5,179.2669,254.5,188.2669" style="stroke:#181818;stroke-width:1.0;"/><text fill="#000000" font-family="sans-serif" font-size="13" lengthAdjust="spacing" textLength="114" x="255.5" y="133.3638">Send JSON Object</text></g><!--link JSONExtractor to TreeVerify--><g id="link_JSONExtractor_TreeVerify"><path d="M255.02,234.5569 C255.5,255.6769 256.0997,281.5885 256.6497,305.1085 " fill="none" id="JSONExtractor-to-TreeVerify" style="stroke:#181818;stroke-width:1.0;"/><polygon fill="#181818" points="256.79,311.1069,260.5785,302.0158,256.6731,306.1082,252.5807,302.2028,256.79,311.1069" style="stroke:#181818;stroke-width:1.0;"/><text fill="#000000" font-family="sans-serif" font-size="13" lengthAdjust="spacing" textLength="207" x="256.5" y="277.3638">Send extracted Span JSON input</text></g><!--reverse link EndpointExtraJSON to JSONExtractor--><g id="link_EndpointExtraJSON_JSONExtractor"><path d="M56.65,211.2969 C79.66,211.2969 135.65,211.2969 185.27,211.2969 " fill="none" id="EndpointExtraJSON-backto-JSONExtractor" style="stroke:#181818;stroke-width:1.0;"/><polygon fill="#181818" points="50.65,211.2969,59.65,215.2969,55.65,211.2969,59.65,207.2969,50.65,211.2969" style="stroke:#181818;stroke-width:1.0;"/><text fill="#000000" font-family="sans-serif" font-size="13" lengthAdjust="spacing" textLength="98" x="69" y="204.3638">Send extracted</text></g><!--link TreeVerify to Sequencer--><g id="link_TreeVerify_Sequencer"><path d="M257.5,374.5969 C257.5,409.4269 257.5,459.2969 257.5,490.1069 " fill="none" id="TreeVerify-to-Sequencer" style="stroke:#181818;stroke-width:1.0;"/><polygon fill="#181818" points="257.5,496.1069,261.5,487.1069,257.5,491.1069,253.5,487.1069,257.5,496.1069" style="stroke:#181818;stroke-width:1.0;"/><text fill="#000000" font-family="sans-serif" font-size="13" lengthAdjust="spacing" textLength="103" x="270.5" y="417.3638">Verify trace tree</text><text fill="#000000" font-family="sans-serif" font-size="13" lengthAdjust="spacing" textLength="117" x="265.5" y="432.4966">or wait for timeout</text><text fill="#000000" font-family="sans-serif" font-size="13" lengthAdjust="spacing" textLength="123" x="262.5" y="447.6294">and release groups</text><text fill="#000000" font-family="sans-serif" font-size="13" lengthAdjust="spacing" textLength="94" x="277" y="462.7622">for sequencing</text></g><!--link Sequencer to NifiSendToPV--><g id="link_Sequencer_NifiSendToPV"><path d="M257.5,542.5669 C257.5,564.8669 257.5,592.9569 257.5,615.1869 " fill="none" id="Sequencer-to-NifiSendToPV" style="stroke:#181818;stroke-width:1.0;"/><polygon fill="#181818" points="257.5,621.1869,261.5,612.1869,257.5,616.1869,253.5,612.1869,257.5,621.1869" style="stroke:#181818;stroke-width:1.0;"/><text fill="#000000" font-family="sans-serif" font-size="13" lengthAdjust="spacing" textLength="144" x="258.5" y="587.3638">Send JSON array to PV</text></g><!--SRC=[RLBDJiCm3BxdAQpTzm8Sa40Q80xRf5OxxPAbxcRexEAc0eHuTvnqFzr63sbjVp-EtKYnGLYKs40fi5p1WuOTHGonLtHgRyzRGqpEa0du3XwnQ-KTuSU1FK7shJ1oXCbhiPZ3x2kg3r4qOrFgbBd65_ZH8mSSeAVe6lQiqhVm9XkWgbkpvmfAHOGLAjNVcPlY8NI_ZZYYrZvOvpEkMh5upRc9t4uc70ivdR9kP3Ydcg3OUQtWYMm0BsRP7BfCjLnAbKDXp5sgH0dI3DtHc8LSbR9SEVUV1aodzvVJWZj8b9o4nURDzk4k0ObollaHZqCTAoXQpmETkErls0tMqHHkHd4Zv4OcoVEqAKCUqWc9TYAk6KpyqrE4sZuYxL5wMm2alIasw3k4RLgfxJ93ka6EUElEoibdFBMBQNXLRvxfZ_m3]--></g></svg>