<?xml version="1.0" encoding="us-ascii" standalone="no"?><svg xmlns="http://www.w3.org/2000/svg" xmlns:xlink="http://www.w3.org/1999/xlink" contentStyleType="text/css" height="898px" preserveAspectRatio="none" style="width:420px;height:898px;background:#FFFFFF;" version="1.1" viewBox="0 0 420 898" width="420px" zoomAndPan="magnify"><defs/><g><text fill="#000000" font-family="sans-serif" font-size="14" font-weight="bold" lengthAdjust="spacing" textLength="377" x="20" y="32.9951">Group And Verify Activity Diagram with Timeout</text><ellipse cx="195" cy="57.2969" fill="#222222" rx="10" ry="10" style="stroke:#222222;stroke-width:1.0;"/><rect fill="#F1F1F1" height="33.9688" rx="12.5" ry="12.5" style="stroke:#181818;stroke-width:0.5;" width="253" x="68.5" y="87.2969"/><text fill="#000000" font-family="sans-serif" font-size="12" lengthAdjust="spacing" textLength="233" x="78.5" y="108.4355">Receive first node in tree from queue</text><rect fill="#F1F1F1" height="33.9688" rx="12.5" ry="12.5" style="stroke:#181818;stroke-width:0.5;" width="88" x="151" y="141.2656"/><text fill="#000000" font-family="sans-serif" font-size="12" lengthAdjust="spacing" textLength="68" x="161" y="162.4043">start Timer</text><rect fill="#F1F1F1" height="33.9688" rx="12.5" ry="12.5" style="stroke:#181818;stroke-width:0.5;" width="150" x="120" y="287.6367"/><text fill="#000000" font-family="sans-serif" font-size="12" lengthAdjust="spacing" textLength="130" x="130" y="308.7754">Receive node of tree</text><rect fill="#F1F1F1" height="33.9688" rx="12.5" ry="12.5" style="stroke:#181818;stroke-width:0.5;" width="169" x="110.5" y="341.6055"/><text fill="#000000" font-family="sans-serif" font-size="12" lengthAdjust="spacing" textLength="149" x="120.5" y="362.7441">Group node by "tree_id"</text><rect fill="#F1F1F1" height="33.9688" rx="12.5" ry="12.5" style="stroke:#181818;stroke-width:0.5;" width="153" x="118.5" y="395.5742"/><text fill="#000000" font-family="sans-serif" font-size="12" lengthAdjust="spacing" textLength="133" x="128.5" y="416.7129">Attempt to verify tree</text><rect fill="#F1F1F1" height="33.9688" rx="12.5" ry="12.5" style="stroke:#181818;stroke-width:0.5;" width="150" x="120" y="497.9453"/><text fill="#000000" font-family="sans-serif" font-size="12" lengthAdjust="spacing" textLength="130" x="130" y="519.084">Output grouped tree</text><rect fill="#F1F1F1" height="33.9688" rx="12.5" ry="12.5" style="stroke:#181818;stroke-width:0.5;" width="134" x="128" y="551.9141"/><text fill="#000000" font-family="sans-serif" font-size="12" lengthAdjust="spacing" textLength="114" x="138" y="573.0527">Notify tree verified</text><ellipse cx="195" cy="616.8828" fill="none" rx="11" ry="11" style="stroke:#222222;stroke-width:1.0;"/><ellipse cx="195" cy="616.8828" fill="#222222" rx="6" ry="6" style="stroke:#222222;stroke-width:1.0;"/><polygon fill="#F1F1F1" points="114.5,449.543,275.5,449.543,287.5,461.543,275.5,473.543,114.5,473.543,102.5,461.543,114.5,449.543" style="stroke:#181818;stroke-width:0.5;"/><text fill="#000000" font-family="sans-serif" font-size="11" lengthAdjust="spacing" textLength="20" x="199" y="483.7534">yes</text><text fill="#000000" font-family="sans-serif" font-size="11" lengthAdjust="spacing" textLength="161" x="114.5" y="465.3511">All Bi-directional Links Exist?</text><polygon fill="#F1F1F1" points="57,239.2344,333,239.2344,345,251.2344,333,263.2344,57,263.2344,45,251.2344,57,239.2344" style="stroke:#181818;stroke-width:0.5;"/><text fill="#000000" font-family="sans-serif" font-size="11" lengthAdjust="spacing" textLength="20" x="199" y="273.4448">yes</text><text fill="#000000" font-family="sans-serif" font-size="11" lengthAdjust="spacing" textLength="276" x="57" y="255.0425">Node of tree waiting to be received from queue?</text><polygon fill="#F1F1F1" points="195,669.8828,207,681.8828,195,693.8828,183,681.8828,195,669.8828" style="stroke:#181818;stroke-width:0.5;"/><polygon fill="#F1F1F1" points="195,195.2344,207,207.2344,195,219.2344,183,207.2344,195,195.2344" style="stroke:#181818;stroke-width:0.5;"/><polygon fill="#F1F1F1" points="144,713.8828,246,713.8828,258,725.8828,246,737.8828,144,737.8828,132,725.8828,144,713.8828" style="stroke:#181818;stroke-width:0.5;"/><text fill="#000000" font-family="sans-serif" font-size="11" lengthAdjust="spacing" textLength="102" x="144" y="729.6909">Timer Not Expired</text><rect fill="#F1F1F1" height="33.9688" rx="12.5" ry="12.5" style="stroke:#181818;stroke-width:0.5;" width="287" x="51.5" y="757.8828"/><text fill="#000000" font-family="sans-serif" font-size="12" lengthAdjust="spacing" textLength="267" x="61.5" y="779.0215">Output grouped tree as it currently stands</text><rect fill="#F1F1F1" height="33.9688" rx="12.5" ry="12.5" style="stroke:#181818;stroke-width:0.5;" width="230" x="80" y="811.8516"/><text fill="#000000" font-family="sans-serif" font-size="12" lengthAdjust="spacing" textLength="210" x="90" y="832.9902">Notify timeout and tree unverified</text><ellipse cx="195" cy="876.8203" fill="none" rx="11" ry="11" style="stroke:#222222;stroke-width:1.0;"/><ellipse cx="195" cy="876.8203" fill="#222222" rx="6" ry="6" style="stroke:#222222;stroke-width:1.0;"/><line style="stroke:#181818;stroke-width:1.0;" x1="195" x2="195" y1="67.2969" y2="87.2969"/><polygon fill="#181818" points="191,77.2969,195,87.2969,199,77.2969,195,81.2969" style="stroke:#181818;stroke-width:1.0;"/><line style="stroke:#181818;stroke-width:1.0;" x1="195" x2="195" y1="121.2656" y2="141.2656"/><polygon fill="#181818" points="191,131.2656,195,141.2656,199,131.2656,195,135.2656" style="stroke:#181818;stroke-width:1.0;"/><line style="stroke:#181818;stroke-width:1.0;" x1="195" x2="195" y1="321.6055" y2="341.6055"/><polygon fill="#181818" points="191,331.6055,195,341.6055,199,331.6055,195,335.6055" style="stroke:#181818;stroke-width:1.0;"/><line style="stroke:#181818;stroke-width:1.0;" x1="195" x2="195" y1="375.5742" y2="395.5742"/><polygon fill="#181818" points="191,385.5742,195,395.5742,199,385.5742,195,389.5742" style="stroke:#181818;stroke-width:1.0;"/><line style="stroke:#181818;stroke-width:1.0;" x1="195" x2="195" y1="531.9141" y2="551.9141"/><polygon fill="#181818" points="191,541.9141,195,551.9141,199,541.9141,195,545.9141" style="stroke:#181818;stroke-width:1.0;"/><line style="stroke:#181818;stroke-width:1.0;" x1="195" x2="195" y1="585.8828" y2="605.8828"/><polygon fill="#181818" points="191,595.8828,195,605.8828,199,595.8828,195,599.8828" style="stroke:#181818;stroke-width:1.0;"/><line style="stroke:#181818;stroke-width:1.0;" x1="195" x2="195" y1="473.543" y2="497.9453"/><polygon fill="#181818" points="191,487.9453,195,497.9453,199,487.9453,195,491.9453" style="stroke:#181818;stroke-width:1.0;"/><line style="stroke:#181818;stroke-width:1.0;" x1="287.5" x2="299.5" y1="461.543" y2="461.543"/><polygon fill="#181818" points="295.5,549.9141,299.5,559.9141,303.5,549.9141,299.5,553.9141" style="stroke:#181818;stroke-width:1.0;"/><line style="stroke:#181818;stroke-width:1.0;" x1="299.5" x2="299.5" y1="461.543" y2="649.8828"/><line style="stroke:#181818;stroke-width:1.0;" x1="299.5" x2="195" y1="649.8828" y2="649.8828"/><line style="stroke:#181818;stroke-width:1.0;" x1="195" x2="195" y1="649.8828" y2="669.8828"/><polygon fill="#181818" points="191,659.8828,195,669.8828,199,659.8828,195,663.8828" style="stroke:#181818;stroke-width:1.0;"/><line style="stroke:#181818;stroke-width:1.0;" x1="195" x2="195" y1="429.543" y2="449.543"/><polygon fill="#181818" points="191,439.543,195,449.543,199,439.543,195,443.543" style="stroke:#181818;stroke-width:1.0;"/><line style="stroke:#181818;stroke-width:1.0;" x1="195" x2="195" y1="263.2344" y2="287.6367"/><polygon fill="#181818" points="191,277.6367,195,287.6367,199,277.6367,195,281.6367" style="stroke:#181818;stroke-width:1.0;"/><line style="stroke:#181818;stroke-width:1.0;" x1="345" x2="357" y1="251.2344" y2="251.2344"/><polygon fill="#181818" points="353,455.4609,357,465.4609,361,455.4609,357,459.4609" style="stroke:#181818;stroke-width:1.0;"/><line style="stroke:#181818;stroke-width:1.0;" x1="357" x2="357" y1="251.2344" y2="681.8828"/><line style="stroke:#181818;stroke-width:1.0;" x1="357" x2="207" y1="681.8828" y2="681.8828"/><polygon fill="#181818" points="217,677.8828,207,681.8828,217,685.8828,213,681.8828" style="stroke:#181818;stroke-width:1.0;"/><line style="stroke:#181818;stroke-width:1.0;" x1="195" x2="195" y1="219.2344" y2="239.2344"/><polygon fill="#181818" points="191,229.2344,195,239.2344,199,229.2344,195,233.2344" style="stroke:#181818;stroke-width:1.0;"/><line style="stroke:#181818;stroke-width:1.0;" x1="258" x2="369" y1="725.8828" y2="725.8828"/><polygon fill="#181818" points="365,475.4609,369,465.4609,373,475.4609,369,471.4609" style="stroke:#181818;stroke-width:1.0;"/><line style="stroke:#181818;stroke-width:1.0;" x1="369" x2="369" y1="207.2344" y2="725.8828"/><line style="stroke:#181818;stroke-width:1.0;" x1="369" x2="207" y1="207.2344" y2="207.2344"/><polygon fill="#181818" points="217,203.2344,207,207.2344,217,211.2344,213,207.2344" style="stroke:#181818;stroke-width:1.0;"/><line style="stroke:#181818;stroke-width:1.0;" x1="195" x2="195" y1="693.8828" y2="713.8828"/><polygon fill="#181818" points="191,703.8828,195,713.8828,199,703.8828,195,707.8828" style="stroke:#181818;stroke-width:1.0;"/><line style="stroke:#181818;stroke-width:1.0;" x1="195" x2="195" y1="175.2344" y2="195.2344"/><polygon fill="#181818" points="191,185.2344,195,195.2344,199,185.2344,195,189.2344" style="stroke:#181818;stroke-width:1.0;"/><line style="stroke:#181818;stroke-width:1.0;" x1="195" x2="195" y1="737.8828" y2="757.8828"/><polygon fill="#181818" points="191,747.8828,195,757.8828,199,747.8828,195,751.8828" style="stroke:#181818;stroke-width:1.0;"/><line style="stroke:#181818;stroke-width:1.0;" x1="195" x2="195" y1="791.8516" y2="811.8516"/><polygon fill="#181818" points="191,801.8516,195,811.8516,199,801.8516,195,805.8516" style="stroke:#181818;stroke-width:1.0;"/><line style="stroke:#181818;stroke-width:1.0;" x1="195" x2="195" y1="845.8203" y2="865.8203"/><polygon fill="#181818" points="191,855.8203,195,865.8203,199,855.8203,195,859.8203" style="stroke:#181818;stroke-width:1.0;"/><!--SRC=[RP71JiCm44Jl_efHJ-c17sWEA0Z41HK98Qx8hJV9YiGEzhebVuzZKr89SaXaJsRcsIii0-7HkpYXiGPlvBcTqHo5JompxbbtNeyui_HuvP5S5AM2Q9y-knSw4fy8BViWiCuGs48yfItlHdn6YbIhNVu_stsjbAU9j2XkKUqNYskBvQnPs7OGXmF1bsnpbNIxXVHaKSqKjWhf-IMmLq5raSgXid2OiLcKTpQR7xKHeN6IfUnKphnQ5x9c6737DuOJXx2pUi0Jsu-0XoyEyfSaXpv7cQAWMveJ-PgOrRsJIq_fP3Ah7CHDUK7MSAlAkrmLpZsdALNv0f5Y4iIKmCnM_LS97S22O_IUh0npYjRMX3I72q6P8z9kCKIxycIERm00]--></g></svg>