<?xml version="1.0" encoding="us-ascii" standalone="no"?><svg xmlns="http://www.w3.org/2000/svg" xmlns:xlink="http://www.w3.org/1999/xlink" contentStyleType="text/css" height="571px" preserveAspectRatio="none" style="width:750px;height:571px;background:#FFFFFF;" version="1.1" viewBox="0 0 750 571" width="750px" zoomAndPan="magnify"><defs/><g><text fill="#000000" font-family="sans-serif" font-size="14" font-weight="bold" lengthAdjust="spacing" textLength="415" x="168.75" y="27.9951">Group And Send Nodes to Unique Queues by tree_id</text><rect fill="none" height="222.3438" style="stroke:#000000;stroke-width:1.5;" width="567" x="176.5" y="251.125"/><line style="stroke:#181818;stroke-width:0.5;stroke-dasharray:5.0,5.0;" x1="24" x2="24" y1="118.5938" y2="490.4688"/><line style="stroke:#181818;stroke-width:0.5;stroke-dasharray:5.0,5.0;" x1="118.5" x2="118.5" y1="118.5938" y2="490.4688"/><line style="stroke:#181818;stroke-width:0.5;stroke-dasharray:5.0,5.0;" x1="244.5" x2="244.5" y1="118.5938" y2="490.4688"/><line style="stroke:#181818;stroke-width:0.5;stroke-dasharray:5.0,5.0;" x1="394.5" x2="394.5" y1="118.5938" y2="490.4688"/><line style="stroke:#181818;stroke-width:0.5;stroke-dasharray:5.0,5.0;" x1="487.5" x2="487.5" y1="118.5938" y2="490.4688"/><line style="stroke:#181818;stroke-width:0.5;stroke-dasharray:5.0,5.0;" x1="580.5" x2="580.5" y1="118.5938" y2="490.4688"/><line style="stroke:#181818;stroke-width:0.5;stroke-dasharray:5.0,5.0;" x1="682.5" x2="682.5" y1="118.5938" y2="490.4688"/><text fill="#000000" font-family="sans-serif" font-size="14" lengthAdjust="spacing" textLength="32" x="5" y="115.292">User</text><ellipse cx="24" cy="50.7969" fill="#E2E2F0" rx="8" ry="8" style="stroke:#181818;stroke-width:0.5;"/><path d="M24,58.7969 L24,85.7969 M11,66.7969 L37,66.7969 M24,85.7969 L11,100.7969 M24,85.7969 L37,100.7969 " fill="none" style="stroke:#181818;stroke-width:0.5;"/><text fill="#000000" font-family="sans-serif" font-size="14" lengthAdjust="spacing" textLength="32" x="5" y="502.4639">User</text><ellipse cx="24" cy="514.2656" fill="#E2E2F0" rx="8" ry="8" style="stroke:#181818;stroke-width:0.5;"/><path d="M24,522.2656 L24,549.2656 M11,530.2656 L37,530.2656 M24,549.2656 L11,564.2656 M24,549.2656 L37,564.2656 " fill="none" style="stroke:#181818;stroke-width:0.5;"/><text fill="#000000" font-family="sans-serif" font-size="14" lengthAdjust="spacing" textLength="101" x="65.5" y="115.292">Node Receiver</text><path d="M98.5,74.2969 L98.5,98.2969 M98.5,86.2969 L115.5,86.2969 " fill="none" style="stroke:#181818;stroke-width:0.5;"/><ellipse cx="127.5" cy="86.2969" fill="#E2E2F0" rx="12" ry="12" style="stroke:#181818;stroke-width:0.5;"/><text fill="#000000" font-family="sans-serif" font-size="14" lengthAdjust="spacing" textLength="101" x="65.5" y="502.4639">Node Receiver</text><path d="M98.5,509.7656 L98.5,533.7656 M98.5,521.7656 L115.5,521.7656 " fill="none" style="stroke:#181818;stroke-width:0.5;"/><ellipse cx="127.5" cy="521.7656" fill="#E2E2F0" rx="12" ry="12" style="stroke:#181818;stroke-width:0.5;"/><text fill="#000000" font-family="sans-serif" font-size="14" lengthAdjust="spacing" textLength="111" x="186.5" y="115.292">Queue Manager</text><ellipse cx="245" cy="86.2969" fill="#E2E2F0" rx="12" ry="12" style="stroke:#181818;stroke-width:0.5;"/><polygon fill="#181818" points="241,74.2969,247,69.2969,245,74.2969,247,79.2969,241,74.2969" style="stroke:#181818;stroke-width:1.0;"/><text fill="#000000" font-family="sans-serif" font-size="14" lengthAdjust="spacing" textLength="111" x="186.5" y="502.4639">Queue Manager</text><ellipse cx="245" cy="521.7656" fill="#E2E2F0" rx="12" ry="12" style="stroke:#181818;stroke-width:0.5;"/><polygon fill="#181818" points="241,509.7656,247,504.7656,245,509.7656,247,514.7656,241,509.7656" style="stroke:#181818;stroke-width:1.0;"/><path d="M358.5,92.2969 L431.5,92.2969 C436.5,92.2969 436.5,105.4453 436.5,105.4453 C436.5,105.4453 436.5,118.5938 431.5,118.5938 L358.5,118.5938 C353.5,118.5938 353.5,105.4453 353.5,105.4453 C353.5,105.4453 353.5,92.2969 358.5,92.2969 " fill="#E2E2F0" style="stroke:#181818;stroke-width:0.5;"/><path d="M431.5,92.2969 C426.5,92.2969 426.5,105.4453 426.5,105.4453 C426.5,118.5938 431.5,118.5938 431.5,118.5938 " fill="none" style="stroke:#181818;stroke-width:0.5;"/><text fill="#000000" font-family="sans-serif" font-size="14" lengthAdjust="spacing" textLength="63" x="358.5" y="110.292">tree_id_1</text><path d="M358.5,489.4688 L431.5,489.4688 C436.5,489.4688 436.5,502.6172 436.5,502.6172 C436.5,502.6172 436.5,515.7656 431.5,515.7656 L358.5,515.7656 C353.5,515.7656 353.5,502.6172 353.5,502.6172 C353.5,502.6172 353.5,489.4688 358.5,489.4688 " fill="#E2E2F0" style="stroke:#181818;stroke-width:0.5;"/><path d="M431.5,489.4688 C426.5,489.4688 426.5,502.6172 426.5,502.6172 C426.5,515.7656 431.5,515.7656 431.5,515.7656 " fill="none" style="stroke:#181818;stroke-width:0.5;"/><text fill="#000000" font-family="sans-serif" font-size="14" lengthAdjust="spacing" textLength="63" x="358.5" y="507.4639">tree_id_1</text><path d="M451.5,92.2969 L524.5,92.2969 C529.5,92.2969 529.5,105.4453 529.5,105.4453 C529.5,105.4453 529.5,118.5938 524.5,118.5938 L451.5,118.5938 C446.5,118.5938 446.5,105.4453 446.5,105.4453 C446.5,105.4453 446.5,92.2969 451.5,92.2969 " fill="#E2E2F0" style="stroke:#181818;stroke-width:0.5;"/><path d="M524.5,92.2969 C519.5,92.2969 519.5,105.4453 519.5,105.4453 C519.5,118.5938 524.5,118.5938 524.5,118.5938 " fill="none" style="stroke:#181818;stroke-width:0.5;"/><text fill="#000000" font-family="sans-serif" font-size="14" lengthAdjust="spacing" textLength="63" x="451.5" y="110.292">tree_id_2</text><path d="M451.5,489.4688 L524.5,489.4688 C529.5,489.4688 529.5,502.6172 529.5,502.6172 C529.5,502.6172 529.5,515.7656 524.5,515.7656 L451.5,515.7656 C446.5,515.7656 446.5,502.6172 446.5,502.6172 C446.5,502.6172 446.5,489.4688 451.5,489.4688 " fill="#E2E2F0" style="stroke:#181818;stroke-width:0.5;"/><path d="M524.5,489.4688 C519.5,489.4688 519.5,502.6172 519.5,502.6172 C519.5,515.7656 524.5,515.7656 524.5,515.7656 " fill="none" style="stroke:#181818;stroke-width:0.5;"/><text fill="#000000" font-family="sans-serif" font-size="14" lengthAdjust="spacing" textLength="63" x="451.5" y="507.4639">tree_id_2</text><path d="M544.5,92.2969 L617.5,92.2969 C622.5,92.2969 622.5,105.4453 622.5,105.4453 C622.5,105.4453 622.5,118.5938 617.5,118.5938 L544.5,118.5938 C539.5,118.5938 539.5,105.4453 539.5,105.4453 C539.5,105.4453 539.5,92.2969 544.5,92.2969 " fill="#E2E2F0" style="stroke:#181818;stroke-width:0.5;"/><path d="M617.5,92.2969 C612.5,92.2969 612.5,105.4453 612.5,105.4453 C612.5,118.5938 617.5,118.5938 617.5,118.5938 " fill="none" style="stroke:#181818;stroke-width:0.5;"/><text fill="#000000" font-family="sans-serif" font-size="14" lengthAdjust="spacing" textLength="63" x="544.5" y="110.292">tree_id_n</text><path d="M544.5,489.4688 L617.5,489.4688 C622.5,489.4688 622.5,502.6172 622.5,502.6172 C622.5,502.6172 622.5,515.7656 617.5,515.7656 L544.5,515.7656 C539.5,515.7656 539.5,502.6172 539.5,502.6172 C539.5,502.6172 539.5,489.4688 544.5,489.4688 " fill="#E2E2F0" style="stroke:#181818;stroke-width:0.5;"/><path d="M617.5,489.4688 C612.5,489.4688 612.5,502.6172 612.5,502.6172 C612.5,515.7656 617.5,515.7656 617.5,515.7656 " fill="none" style="stroke:#181818;stroke-width:0.5;"/><text fill="#000000" font-family="sans-serif" font-size="14" lengthAdjust="spacing" textLength="63" x="544.5" y="507.4639">tree_id_n</text><path d="M637.5,92.2969 L728.5,92.2969 C733.5,92.2969 733.5,105.4453 733.5,105.4453 C733.5,105.4453 733.5,118.5938 728.5,118.5938 L637.5,118.5938 C632.5,118.5938 632.5,105.4453 632.5,105.4453 C632.5,105.4453 632.5,92.2969 637.5,92.2969 " fill="#E2E2F0" style="stroke:#181818;stroke-width:0.5;"/><path d="M728.5,92.2969 C723.5,92.2969 723.5,105.4453 723.5,105.4453 C723.5,118.5938 728.5,118.5938 728.5,118.5938 " fill="none" style="stroke:#181818;stroke-width:0.5;"/><text fill="#000000" font-family="sans-serif" font-size="14" lengthAdjust="spacing" textLength="81" x="637.5" y="110.292">New tree_id</text><path d="M637.5,489.4688 L728.5,489.4688 C733.5,489.4688 733.5,502.6172 733.5,502.6172 C733.5,502.6172 733.5,515.7656 728.5,515.7656 L637.5,515.7656 C632.5,515.7656 632.5,502.6172 632.5,502.6172 C632.5,502.6172 632.5,489.4688 637.5,489.4688 " fill="#E2E2F0" style="stroke:#181818;stroke-width:0.5;"/><path d="M728.5,489.4688 C723.5,489.4688 723.5,502.6172 723.5,502.6172 C723.5,515.7656 728.5,515.7656 728.5,515.7656 " fill="none" style="stroke:#181818;stroke-width:0.5;"/><text fill="#000000" font-family="sans-serif" font-size="14" lengthAdjust="spacing" textLength="81" x="637.5" y="507.4639">New tree_id</text><polygon fill="#181818" points="107,145.7266,117,149.7266,107,153.7266,111,149.7266" style="stroke:#181818;stroke-width:1.0;"/><line style="stroke:#181818;stroke-width:1.0;" x1="24" x2="113" y1="149.7266" y2="149.7266"/><text fill="#000000" font-family="sans-serif" font-size="13" lengthAdjust="spacing" textLength="71" x="31" y="144.6606">Send Node</text><polygon fill="#181818" points="233,189.9922,243,193.9922,233,197.9922,237,193.9922" style="stroke:#181818;stroke-width:1.0;"/><line style="stroke:#181818;stroke-width:1.0;" x1="119" x2="239" y1="193.9922" y2="193.9922"/><text fill="#000000" font-family="sans-serif" font-size="13" lengthAdjust="spacing" textLength="88" x="126" y="173.7935">Send Node to</text><text fill="#000000" font-family="sans-serif" font-size="13" lengthAdjust="spacing" textLength="102" x="126" y="188.9263">Queue Manager</text><line style="stroke:#181818;stroke-width:1.0;" x1="245" x2="287" y1="223.125" y2="223.125"/><line style="stroke:#181818;stroke-width:1.0;" x1="287" x2="287" y1="223.125" y2="236.125"/><line style="stroke:#181818;stroke-width:1.0;" x1="246" x2="287" y1="236.125" y2="236.125"/><polygon fill="#181818" points="256,232.125,246,236.125,256,240.125,252,236.125" style="stroke:#181818;stroke-width:1.0;"/><text fill="#000000" font-family="sans-serif" font-size="13" lengthAdjust="spacing" textLength="94" x="252" y="218.0591">Identify tree_id</text><path d="M176.5,251.125 L240.5,251.125 L240.5,258.2578 L230.5,268.2578 L176.5,268.2578 L176.5,251.125 " fill="#EEEEEE" style="stroke:#000000;stroke-width:1.5;"/><rect fill="none" height="222.3438" style="stroke:#000000;stroke-width:1.5;" width="567" x="176.5" y="251.125"/><text fill="#000000" font-family="sans-serif" font-size="13" font-weight="bold" lengthAdjust="spacing" textLength="19" x="191.5" y="264.1919">alt</text><text fill="#000000" font-family="sans-serif" font-size="11" font-weight="bold" lengthAdjust="spacing" textLength="150" x="255.5" y="263.3354">[tree_id == "tree_id_1"]</text><polygon fill="#181818" points="383,285.3906,393,289.3906,383,293.3906,387,289.3906" style="stroke:#181818;stroke-width:1.0;"/><line style="stroke:#181818;stroke-width:1.0;" x1="245" x2="389" y1="289.3906" y2="289.3906"/><text fill="#000000" font-family="sans-serif" font-size="13" lengthAdjust="spacing" textLength="126" x="252" y="284.3247">Add Node to Queue</text><line style="stroke:#000000;stroke-width:1.0;stroke-dasharray:2.0,2.0;" x1="176.5" x2="743.5" y1="298.3906" y2="298.3906"/><text fill="#000000" font-family="sans-serif" font-size="11" font-weight="bold" lengthAdjust="spacing" textLength="150" x="181.5" y="308.6011">[tree_id == "tree_id_2"]</text><polygon fill="#181818" points="476,329.3281,486,333.3281,476,337.3281,480,333.3281" style="stroke:#181818;stroke-width:1.0;"/><line style="stroke:#181818;stroke-width:1.0;" x1="245" x2="482" y1="333.3281" y2="333.3281"/><text fill="#000000" font-family="sans-serif" font-size="13" lengthAdjust="spacing" textLength="126" x="252" y="328.2622">Add Node to Queue</text><line style="stroke:#000000;stroke-width:1.0;stroke-dasharray:2.0,2.0;" x1="176.5" x2="743.5" y1="342.3281" y2="342.3281"/><text fill="#000000" font-family="sans-serif" font-size="11" font-weight="bold" lengthAdjust="spacing" textLength="150" x="181.5" y="352.5386">[tree_id == "tree_id_n"]</text><polygon fill="#181818" points="569,373.2656,579,377.2656,569,381.2656,573,377.2656" style="stroke:#181818;stroke-width:1.0;"/><line style="stroke:#181818;stroke-width:1.0;" x1="245" x2="575" y1="377.2656" y2="377.2656"/><text fill="#000000" font-family="sans-serif" font-size="13" lengthAdjust="spacing" textLength="126" x="252" y="372.1997">Add Node to Queue</text><line style="stroke:#000000;stroke-width:1.0;stroke-dasharray:2.0,2.0;" x1="176.5" x2="743.5" y1="386.2656" y2="386.2656"/><text fill="#000000" font-family="sans-serif" font-size="11" font-weight="bold" lengthAdjust="spacing" textLength="95" x="181.5" y="396.4761">[(new tree_id)]</text><polygon fill="#181818" points="671,432.3359,681,436.3359,671,440.3359,675,436.3359" style="stroke:#181818;stroke-width:1.0;"/><line style="stroke:#181818;stroke-width:1.0;" x1="245" x2="677" y1="436.3359" y2="436.3359"/><text fill="#000000" font-family="sans-serif" font-size="13" lengthAdjust="spacing" textLength="120" x="252" y="416.1372">Create New Queue</text><text fill="#000000" font-family="sans-serif" font-size="13" lengthAdjust="spacing" textLength="65" x="252" y="431.27">for tree_id</text><polygon fill="#181818" points="671,461.4688,681,465.4688,671,469.4688,675,465.4688" style="stroke:#181818;stroke-width:1.0;"/><line style="stroke:#181818;stroke-width:1.0;" x1="245" x2="677" y1="465.4688" y2="465.4688"/><text fill="#000000" font-family="sans-serif" font-size="13" lengthAdjust="spacing" textLength="157" x="252" y="460.4028">Add Node to New Queue</text><!--SRC=[bLAnQiCm4DtlAmvFwT317WqfX0wbGmrDoHO8YdKf0dDgvLDB_hwoQqLAcXZgGPZttZtTlPCOwGYVdFKVk6ADRnIEnchgKInks7nwmbTFFW3x8ueZsXaDe5gn3ZSzETXRprgv8nP37Qwf9VD5ha3LZquHWDQoEDjXCVhXYsBrFkb6P0BWbowcktPbKfINN9MuwfBZn3MHQ-Wxpf1OW64El7yuQxTEMK2E3xgytKmN8jlosN2GA_zMFcjYCOUKg-ea_kDocMS06BwhRcMDAtrgO1g9kfwkEbKpJjM_d7Z6gRdfjE2qWhlR1ZK-Eb92E6niHBPy22yk1ZLJc5zygeQm8_W1]--></g></svg>