<?xml version="1.0" encoding="UTF-8" standalone="no"?>
<!DOCTYPE svg PUBLIC "-//W3C//DTD SVG 1.1//EN"
 "http://www.w3.org/Graphics/SVG/1.1/DTD/svg11.dtd">
<!-- Generated by graphviz version 2.43.0 (0)
 -->
<!-- Title: G Pages: 1 -->
<svg width="905pt" height="518pt"
 viewBox="0.00 0.00 905.00 518.00" xmlns="http://www.w3.org/2000/svg" xmlns:xlink="http://www.w3.org/1999/xlink">
<g id="graph0" class="graph" transform="scale(1 1) rotate(0) translate(4 514)">
<title>G</title>
<polygon fill="white" stroke="transparent" points="-4,4 -4,-514 901,-514 901,4 -4,4"/>
<!-- root -->
<g id="node1" class="node">
<title>root</title>
<path fill="none" stroke="black" d="M487.5,-349.5C487.5,-349.5 693.5,-349.5 693.5,-349.5 699.5,-349.5 705.5,-355.5 705.5,-361.5 705.5,-361.5 705.5,-497.5 705.5,-497.5 705.5,-503.5 699.5,-509.5 693.5,-509.5 693.5,-509.5 487.5,-509.5 487.5,-509.5 481.5,-509.5 475.5,-503.5 475.5,-497.5 475.5,-497.5 475.5,-361.5 475.5,-361.5 475.5,-355.5 481.5,-349.5 487.5,-349.5"/>
<text text-anchor="middle" x="590.5" y="-494.3" font-family="Times,serif" font-size="14.00">nodeId=root</text>
<polyline fill="none" stroke="black" points="475.5,-486.5 705.5,-486.5 "/>
<text text-anchor="middle" x="590.5" y="-471.3" font-family="Times,serif" font-size="14.00">timestamp=100</text>
<polyline fill="none" stroke="black" points="475.5,-463.5 705.5,-463.5 "/>
<text text-anchor="middle" x="590.5" y="-448.3" font-family="Times,serif" font-size="14.00">parentNodeId=None,</text>
<polyline fill="none" stroke="black" points="475.5,-440.5 705.5,-440.5 "/>
<text text-anchor="middle" x="590.5" y="-425.3" font-family="Times,serif" font-size="14.00">childIds=[</text>
<text text-anchor="middle" x="590.5" y="-410.3" font-family="Times,serif" font-size="14.00">child1,</text>
<text text-anchor="middle" x="590.5" y="-395.3" font-family="Times,serif" font-size="14.00">child2</text>
<text text-anchor="middle" x="590.5" y="-380.3" font-family="Times,serif" font-size="14.00">]</text>
<polyline fill="none" stroke="black" points="475.5,-372.5 705.5,-372.5 "/>
<text text-anchor="middle" x="590.5" y="-357.3" font-family="Times,serif" font-size="14.00">appJSON={&quot;eventId&quot;: &quot;root&quot;}</text>
</g>
<!-- child1 -->
<g id="node2" class="node">
<title>child1</title>
<path fill="none" stroke="black" d="M338,-152.5C338,-152.5 559,-152.5 559,-152.5 565,-152.5 571,-158.5 571,-164.5 571,-164.5 571,-300.5 571,-300.5 571,-306.5 565,-312.5 559,-312.5 559,-312.5 338,-312.5 338,-312.5 332,-312.5 326,-306.5 326,-300.5 326,-300.5 326,-164.5 326,-164.5 326,-158.5 332,-152.5 338,-152.5"/>
<text text-anchor="middle" x="448.5" y="-297.3" font-family="Times,serif" font-size="14.00">nodeId=child1</text>
<polyline fill="none" stroke="black" points="326,-289.5 571,-289.5 "/>
<text text-anchor="middle" x="448.5" y="-274.3" font-family="Times,serif" font-size="14.00">timestamp=20</text>
<polyline fill="none" stroke="black" points="326,-266.5 571,-266.5 "/>
<text text-anchor="middle" x="448.5" y="-251.3" font-family="Times,serif" font-size="14.00">parentNodeId=root,</text>
<polyline fill="none" stroke="black" points="326,-243.5 571,-243.5 "/>
<text text-anchor="middle" x="448.5" y="-228.3" font-family="Times,serif" font-size="14.00">childIds=[</text>
<text text-anchor="middle" x="448.5" y="-213.3" font-family="Times,serif" font-size="14.00">grandchild1,</text>
<text text-anchor="middle" x="448.5" y="-198.3" font-family="Times,serif" font-size="14.00">grandchild2</text>
<text text-anchor="middle" x="448.5" y="-183.3" font-family="Times,serif" font-size="14.00">]</text>
<polyline fill="none" stroke="black" points="326,-175.5 571,-175.5 "/>
<text text-anchor="middle" x="448.5" y="-160.3" font-family="Times,serif" font-size="14.00">appJSON={&quot;eventId&quot;: &quot;child1&quot;}</text>
</g>
<!-- root&#45;&gt;child1 -->
<g id="edge1" class="edge">
<title>root&#45;&gt;child1</title>
<path fill="none" stroke="black" d="M532.95,-349.47C526.11,-340.08 519.1,-330.45 512.18,-320.95"/>
<polygon fill="black" stroke="black" points="514.85,-318.67 506.13,-312.65 509.19,-322.79 514.85,-318.67"/>
</g>
<!-- child2 -->
<g id="node3" class="node">
<title>child2</title>
<path fill="none" stroke="black" d="M622,-160C622,-160 843,-160 843,-160 849,-160 855,-166 855,-172 855,-172 855,-293 855,-293 855,-299 849,-305 843,-305 843,-305 622,-305 622,-305 616,-305 610,-299 610,-293 610,-293 610,-172 610,-172 610,-166 616,-160 622,-160"/>
<text text-anchor="middle" x="732.5" y="-289.8" font-family="Times,serif" font-size="14.00">nodeId=child2</text>
<polyline fill="none" stroke="black" points="610,-282 855,-282 "/>
<text text-anchor="middle" x="732.5" y="-266.8" font-family="Times,serif" font-size="14.00">timestamp=40</text>
<polyline fill="none" stroke="black" points="610,-259 855,-259 "/>
<text text-anchor="middle" x="732.5" y="-243.8" font-family="Times,serif" font-size="14.00">parentNodeId=root,</text>
<polyline fill="none" stroke="black" points="610,-236 855,-236 "/>
<text text-anchor="middle" x="732.5" y="-220.8" font-family="Times,serif" font-size="14.00">childIds=[</text>
<text text-anchor="middle" x="732.5" y="-205.8" font-family="Times,serif" font-size="14.00">grandchild3</text>
<text text-anchor="middle" x="732.5" y="-190.8" font-family="Times,serif" font-size="14.00">]</text>
<polyline fill="none" stroke="black" points="610,-183 855,-183 "/>
<text text-anchor="middle" x="732.5" y="-167.8" font-family="Times,serif" font-size="14.00">appJSON={&quot;eventId&quot;: &quot;child2&quot;}</text>
</g>
<!-- root&#45;&gt;child2 -->
<g id="edge2" class="edge">
<title>root&#45;&gt;child2</title>
<path fill="none" stroke="black" d="M648.05,-349.47C656.73,-337.54 665.7,-325.24 674.39,-313.3"/>
<polygon fill="black" stroke="black" points="677.3,-315.25 680.36,-305.1 671.64,-311.12 677.3,-315.25"/>
</g>
<!-- grandchild1 -->
<g id="node4" class="node">
<title>grandchild1</title>
<path fill="none" stroke="black" d="M12,-0.5C12,-0.5 275,-0.5 275,-0.5 281,-0.5 287,-6.5 287,-12.5 287,-12.5 287,-103.5 287,-103.5 287,-109.5 281,-115.5 275,-115.5 275,-115.5 12,-115.5 12,-115.5 6,-115.5 0,-109.5 0,-103.5 0,-103.5 0,-12.5 0,-12.5 0,-6.5 6,-0.5 12,-0.5"/>
<text text-anchor="middle" x="143.5" y="-100.3" font-family="Times,serif" font-size="14.00">nodeId=grandchild1</text>
<polyline fill="none" stroke="black" points="0,-92.5 287,-92.5 "/>
<text text-anchor="middle" x="143.5" y="-77.3" font-family="Times,serif" font-size="14.00">timestamp=15</text>
<polyline fill="none" stroke="black" points="0,-69.5 287,-69.5 "/>
<text text-anchor="middle" x="143.5" y="-54.3" font-family="Times,serif" font-size="14.00">parentNodeId=child1,</text>
<polyline fill="none" stroke="black" points="0,-46.5 287,-46.5 "/>
<text text-anchor="middle" x="143.5" y="-31.3" font-family="Times,serif" font-size="14.00">childIds=[]</text>
<polyline fill="none" stroke="black" points="0,-23.5 287,-23.5 "/>
<text text-anchor="middle" x="143.5" y="-8.3" font-family="Times,serif" font-size="14.00">appJSON={&quot;eventId&quot;: &quot;grandchild1&quot;}</text>
</g>
<!-- child1&#45;&gt;grandchild1 -->
<g id="edge3" class="edge">
<title>child1&#45;&gt;grandchild1</title>
<path fill="none" stroke="black" d="M325.76,-162.08C301.54,-148.39 276.28,-134.1 252.55,-120.68"/>
<polygon fill="black" stroke="black" points="253.97,-117.46 243.54,-115.58 250.52,-123.55 253.97,-117.46"/>
</g>
<!-- grandchild2 -->
<g id="node5" class="node">
<title>grandchild2</title>
<path fill="none" stroke="black" d="M317,-0.5C317,-0.5 580,-0.5 580,-0.5 586,-0.5 592,-6.5 592,-12.5 592,-12.5 592,-103.5 592,-103.5 592,-109.5 586,-115.5 580,-115.5 580,-115.5 317,-115.5 317,-115.5 311,-115.5 305,-109.5 305,-103.5 305,-103.5 305,-12.5 305,-12.5 305,-6.5 311,-0.5 317,-0.5"/>
<text text-anchor="middle" x="448.5" y="-100.3" font-family="Times,serif" font-size="14.00">nodeId=grandchild2</text>
<polyline fill="none" stroke="black" points="305,-92.5 592,-92.5 "/>
<text text-anchor="middle" x="448.5" y="-77.3" font-family="Times,serif" font-size="14.00">timestamp=19</text>
<polyline fill="none" stroke="black" points="305,-69.5 592,-69.5 "/>
<text text-anchor="middle" x="448.5" y="-54.3" font-family="Times,serif" font-size="14.00">parentNodeId=child1,</text>
<polyline fill="none" stroke="black" points="305,-46.5 592,-46.5 "/>
<text text-anchor="middle" x="448.5" y="-31.3" font-family="Times,serif" font-size="14.00">childIds=[]</text>
<polyline fill="none" stroke="black" points="305,-23.5 592,-23.5 "/>
<text text-anchor="middle" x="448.5" y="-8.3" font-family="Times,serif" font-size="14.00">appJSON={&quot;eventId&quot;: &quot;grandchild2&quot;}</text>
</g>
<!-- child1&#45;&gt;grandchild2 -->
<g id="edge4" class="edge">
<title>child1&#45;&gt;grandchild2</title>
<path fill="none" stroke="black" d="M448.5,-152.32C448.5,-143.41 448.5,-134.39 448.5,-125.66"/>
<polygon fill="black" stroke="black" points="452,-125.57 448.5,-115.57 445,-125.57 452,-125.57"/>
</g>
<!-- grandchild3 -->
<g id="node6" class="node">
<title>grandchild3</title>
<path fill="none" stroke="black" d="M622,-0.5C622,-0.5 885,-0.5 885,-0.5 891,-0.5 897,-6.5 897,-12.5 897,-12.5 897,-103.5 897,-103.5 897,-109.5 891,-115.5 885,-115.5 885,-115.5 622,-115.5 622,-115.5 616,-115.5 610,-109.5 610,-103.5 610,-103.5 610,-12.5 610,-12.5 610,-6.5 616,-0.5 622,-0.5"/>
<text text-anchor="middle" x="753.5" y="-100.3" font-family="Times,serif" font-size="14.00">nodeId=grandchild3</text>
<polyline fill="none" stroke="black" points="610,-92.5 897,-92.5 "/>
<text text-anchor="middle" x="753.5" y="-77.3" font-family="Times,serif" font-size="14.00">timestamp=39</text>
<polyline fill="none" stroke="black" points="610,-69.5 897,-69.5 "/>
<text text-anchor="middle" x="753.5" y="-54.3" font-family="Times,serif" font-size="14.00">parentNodeId=child2,</text>
<polyline fill="none" stroke="black" points="610,-46.5 897,-46.5 "/>
<text text-anchor="middle" x="753.5" y="-31.3" font-family="Times,serif" font-size="14.00">childIds=[]</text>
<polyline fill="none" stroke="black" points="610,-23.5 897,-23.5 "/>
<text text-anchor="middle" x="753.5" y="-8.3" font-family="Times,serif" font-size="14.00">appJSON={&quot;eventId&quot;: &quot;grandchild3&quot;}</text>
</g>
<!-- child2&#45;&gt;grandchild3 -->
<g id="edge5" class="edge">
<title>child2&#45;&gt;grandchild3</title>
<path fill="none" stroke="black" d="M741.22,-159.84C742.6,-148.57 744.01,-136.96 745.37,-125.81"/>
<polygon fill="black" stroke="black" points="748.86,-126.07 746.6,-115.72 741.91,-125.22 748.86,-126.07"/>
</g>
</g>
</svg>
