<?xml version="1.0" encoding="UTF-8" standalone="no"?>
<!DOCTYPE svg PUBLIC "-//W3C//DTD SVG 1.1//EN"
 "http://www.w3.org/Graphics/SVG/1.1/DTD/svg11.dtd">
<!-- Generated by graphviz version 2.43.0 (0)
 -->
<!-- Title: G Pages: 1 -->
<svg width="426pt" height="410pt"
 viewBox="0.00 0.00 426.00 410.00" xmlns="http://www.w3.org/2000/svg" xmlns:xlink="http://www.w3.org/1999/xlink">
<g id="graph0" class="graph" transform="scale(1 1) rotate(0) translate(4 406)">
<title>G</title>
<polygon fill="white" stroke="transparent" points="-4,4 -4,-406 422,-406 422,4 -4,4"/>
<!-- root -->
<g id="node1" class="node">
<title>root</title>
<path fill="none" stroke="black" d="M61,-0.5C61,-0.5 357,-0.5 357,-0.5 363,-0.5 369,-6.5 369,-12.5 369,-12.5 369,-24.5 369,-24.5 369,-30.5 363,-36.5 357,-36.5 357,-36.5 61,-36.5 61,-36.5 55,-36.5 49,-30.5 49,-24.5 49,-24.5 49,-12.5 49,-12.5 49,-6.5 55,-0.5 61,-0.5"/>
<text text-anchor="middle" x="105" y="-14.8" font-family="Times,serif" font-size="14.00">eventId=root</text>
<polyline fill="none" stroke="black" points="161,-0.5 161,-36.5 "/>
<text text-anchor="middle" x="265" y="-14.8" font-family="Times,serif" font-size="14.00">previousEventIds=[child2]</text>
</g>
<!-- child1 -->
<g id="node2" class="node">
<title>child1</title>
<path fill="none" stroke="black" d="M33,-219.5C33,-219.5 385,-219.5 385,-219.5 391,-219.5 397,-225.5 397,-231.5 397,-231.5 397,-243.5 397,-243.5 397,-249.5 391,-255.5 385,-255.5 385,-255.5 33,-255.5 33,-255.5 27,-255.5 21,-249.5 21,-243.5 21,-243.5 21,-231.5 21,-231.5 21,-225.5 27,-219.5 33,-219.5"/>
<text text-anchor="middle" x="84" y="-233.8" font-family="Times,serif" font-size="14.00">eventId=child1</text>
<polyline fill="none" stroke="black" points="147,-219.5 147,-255.5 "/>
<text text-anchor="middle" x="272" y="-233.8" font-family="Times,serif" font-size="14.00">previousEventIds=[grandchild2]</text>
</g>
<!-- grandchild3 -->
<g id="node6" class="node">
<title>grandchild3</title>
<path fill="none" stroke="black" d="M33,-146.5C33,-146.5 385,-146.5 385,-146.5 391,-146.5 397,-152.5 397,-158.5 397,-158.5 397,-170.5 397,-170.5 397,-176.5 391,-182.5 385,-182.5 385,-182.5 33,-182.5 33,-182.5 27,-182.5 21,-176.5 21,-170.5 21,-170.5 21,-158.5 21,-158.5 21,-152.5 27,-146.5 33,-146.5"/>
<text text-anchor="middle" x="105" y="-160.8" font-family="Times,serif" font-size="14.00">eventId=grandchild3</text>
<polyline fill="none" stroke="black" points="189,-146.5 189,-182.5 "/>
<text text-anchor="middle" x="293" y="-160.8" font-family="Times,serif" font-size="14.00">previousEventIds=[child1]</text>
</g>
<!-- child1&#45;&gt;grandchild3 -->
<g id="edge3" class="edge">
<title>child1&#45;&gt;grandchild3</title>
<path fill="none" stroke="black" d="M209,-219.31C209,-211.29 209,-201.55 209,-192.57"/>
<polygon fill="black" stroke="black" points="212.5,-192.53 209,-182.53 205.5,-192.53 212.5,-192.53"/>
</g>
<!-- child2 -->
<g id="node3" class="node">
<title>child2</title>
<path fill="none" stroke="black" d="M33,-73.5C33,-73.5 385,-73.5 385,-73.5 391,-73.5 397,-79.5 397,-85.5 397,-85.5 397,-97.5 397,-97.5 397,-103.5 391,-109.5 385,-109.5 385,-109.5 33,-109.5 33,-109.5 27,-109.5 21,-103.5 21,-97.5 21,-97.5 21,-85.5 21,-85.5 21,-79.5 27,-73.5 33,-73.5"/>
<text text-anchor="middle" x="84" y="-87.8" font-family="Times,serif" font-size="14.00">eventId=child2</text>
<polyline fill="none" stroke="black" points="147,-73.5 147,-109.5 "/>
<text text-anchor="middle" x="272" y="-87.8" font-family="Times,serif" font-size="14.00">previousEventIds=[grandchild3]</text>
</g>
<!-- child2&#45;&gt;root -->
<g id="edge5" class="edge">
<title>child2&#45;&gt;root</title>
<path fill="none" stroke="black" d="M209,-73.31C209,-65.29 209,-55.55 209,-46.57"/>
<polygon fill="black" stroke="black" points="212.5,-46.53 209,-36.53 205.5,-46.53 212.5,-46.53"/>
</g>
<!-- grandchild1 -->
<g id="node4" class="node">
<title>grandchild1</title>
<path fill="none" stroke="black" d="M55,-365.5C55,-365.5 363,-365.5 363,-365.5 369,-365.5 375,-371.5 375,-377.5 375,-377.5 375,-389.5 375,-389.5 375,-395.5 369,-401.5 363,-401.5 363,-401.5 55,-401.5 55,-401.5 49,-401.5 43,-395.5 43,-389.5 43,-389.5 43,-377.5 43,-377.5 43,-371.5 49,-365.5 55,-365.5"/>
<text text-anchor="middle" x="127" y="-379.8" font-family="Times,serif" font-size="14.00">eventId=grandchild1</text>
<polyline fill="none" stroke="black" points="211,-365.5 211,-401.5 "/>
<text text-anchor="middle" x="293" y="-379.8" font-family="Times,serif" font-size="14.00">previousEventIds=[]</text>
</g>
<!-- grandchild2 -->
<g id="node5" class="node">
<title>grandchild2</title>
<path fill="none" stroke="black" d="M12,-292.5C12,-292.5 406,-292.5 406,-292.5 412,-292.5 418,-298.5 418,-304.5 418,-304.5 418,-316.5 418,-316.5 418,-322.5 412,-328.5 406,-328.5 406,-328.5 12,-328.5 12,-328.5 6,-328.5 0,-322.5 0,-316.5 0,-316.5 0,-304.5 0,-304.5 0,-298.5 6,-292.5 12,-292.5"/>
<text text-anchor="middle" x="84" y="-306.8" font-family="Times,serif" font-size="14.00">eventId=grandchild2</text>
<polyline fill="none" stroke="black" points="168,-292.5 168,-328.5 "/>
<text text-anchor="middle" x="293" y="-306.8" font-family="Times,serif" font-size="14.00">previousEventIds=[grandchild1]</text>
</g>
<!-- grandchild1&#45;&gt;grandchild2 -->
<g id="edge1" class="edge">
<title>grandchild1&#45;&gt;grandchild2</title>
<path fill="none" stroke="black" d="M209,-365.31C209,-357.29 209,-347.55 209,-338.57"/>
<polygon fill="black" stroke="black" points="212.5,-338.53 209,-328.53 205.5,-338.53 212.5,-338.53"/>
</g>
<!-- grandchild2&#45;&gt;child1 -->
<g id="edge2" class="edge">
<title>grandchild2&#45;&gt;child1</title>
<path fill="none" stroke="black" d="M209,-292.31C209,-284.29 209,-274.55 209,-265.57"/>
<polygon fill="black" stroke="black" points="212.5,-265.53 209,-255.53 205.5,-265.53 212.5,-265.53"/>
</g>
<!-- grandchild3&#45;&gt;child2 -->
<g id="edge4" class="edge">
<title>grandchild3&#45;&gt;child2</title>
<path fill="none" stroke="black" d="M209,-146.31C209,-138.29 209,-128.55 209,-119.57"/>
<polygon fill="black" stroke="black" points="212.5,-119.53 209,-109.53 205.5,-119.53 212.5,-119.53"/>
</g>
</g>
</svg>
