<?xml version="1.0" encoding="us-ascii" standalone="no"?><svg xmlns="http://www.w3.org/2000/svg" xmlns:xlink="http://www.w3.org/1999/xlink" contentStyleType="text/css" height="961px" preserveAspectRatio="none" style="width:1590px;height:961px;background:#FFFFFF;" version="1.1" viewBox="0 0 1590 961" width="1590px" zoomAndPan="magnify"><defs/><g><!--cluster Server--><g id="cluster_Server"><path d="M8.5,6 L62.5,6 A3.75,3.75 0 0 1 65,8.5 L72,28.2969 L1358.5,28.2969 A2.5,2.5 0 0 1 1361,30.7969 L1361,951.5 A2.5,2.5 0 0 1 1358.5,954 L8.5,954 A2.5,2.5 0 0 1 6,951.5 L6,8.5 A2.5,2.5 0 0 1 8.5,6 " fill="none" style="stroke:#000000;stroke-width:1.5;"/><line style="stroke:#000000;stroke-width:1.5;" x1="6" x2="72" y1="28.2969" y2="28.2969"/><text fill="#000000" font-family="sans-serif" font-size="14" font-weight="bold" lengthAdjust="spacing" textLength="53" x="10" y="20.9951">Server</text></g><!--cluster JSONExtractor--><g id="cluster_JSONExtractor"><path d="M1387.5,287 L1497.5,287 A3.75,3.75 0 0 1 1500,289.5 L1507,309.2969 L1580.5,309.2969 A2.5,2.5 0 0 1 1583,311.7969 L1583,481.5 A2.5,2.5 0 0 1 1580.5,484 L1387.5,484 A2.5,2.5 0 0 1 1385,481.5 L1385,289.5 A2.5,2.5 0 0 1 1387.5,287 " fill="none" style="stroke:#000000;stroke-width:1.5;"/><line style="stroke:#000000;stroke-width:1.5;" x1="1385" x2="1507" y1="309.2969" y2="309.2969"/><text fill="#000000" font-family="sans-serif" font-size="14" font-weight="bold" lengthAdjust="spacing" textLength="109" x="1389" y="301.9951">JSONExtractor</text></g><!--class CompletionHandler--><g id="elem_CompletionHandler"><rect codeLine="2" fill="#F1F1F1" height="64.2969" id="CompletionHandler" rx="2.5" ry="2.5" style="stroke:#181818;stroke-width:0.5;" width="205" x="725.5" y="41"/><ellipse cx="758.95" cy="57" fill="#B4A7E5" rx="11" ry="11" style="stroke:#181818;stroke-width:1.0;"/><path d="M754.8719,52.7656 L754.8719,50.6094 L762.2625,50.6094 L762.2625,52.7656 L759.7938,52.7656 L759.7938,60.8438 L762.2625,60.8438 L762.2625,63 L754.8719,63 L754.8719,60.8438 L757.3406,60.8438 L757.3406,52.7656 L754.8719,52.7656 Z " fill="#000000"/><text fill="#000000" font-family="sans-serif" font-size="14" font-style="italic" lengthAdjust="spacing" textLength="132" x="777.05" y="61.8467">CompletionHandler</text><line style="stroke:#181818;stroke-width:0.5;" x1="726.5" x2="929.5" y1="73" y2="73"/><line style="stroke:#181818;stroke-width:0.5;" x1="726.5" x2="929.5" y1="81" y2="81"/><ellipse cx="736.5" cy="94.6484" fill="#84BE84" rx="3" ry="3" style="stroke:#038048;stroke-width:1.0;"/><text fill="#000000" font-family="sans-serif" font-size="14" lengthAdjust="spacing" textLength="179" x="745.5" y="97.9951">error Complete(any, error)</text></g><!--class AppData--><g id="elem_AppData"><rect codeLine="5" fill="#F1F1F1" height="96.8906" id="AppData" rx="2.5" ry="2.5" style="stroke:#181818;stroke-width:0.5;" width="292" x="682" y="165"/><ellipse cx="794.25" cy="181" fill="#F1F1F1" rx="11" ry="11" style="stroke:#181818;stroke-width:1.0;"/><path d="M793.7344,181.5625 Q791.875,180.8594 791.2188,180.0938 Q790.5781,179.3125 790.5781,178 Q790.5781,176.3125 791.6563,175.3438 Q792.7344,174.375 794.6094,174.375 Q795.4688,174.375 796.3125,174.5781 Q797.1719,174.7656 798.0156,175.1563 L798.0156,177.5469 Q797.2344,176.9844 796.4063,176.7031 Q795.5938,176.4063 794.7969,176.4063 Q793.9219,176.4063 793.4375,176.7656 Q792.9688,177.125 792.9688,177.7813 Q792.9688,178.2969 793.3125,178.6406 Q793.6563,178.9688 794.75,179.375 L795.8125,179.7813 Q797.2969,180.3281 798,181.2344 Q798.7188,182.1406 798.7188,183.5156 Q798.7188,185.3906 797.6094,186.3125 Q796.5,187.2344 794.25,187.2344 Q793.3281,187.2344 792.4063,187.0156 Q791.4844,186.7969 790.625,186.375 L790.625,183.8438 Q791.5938,184.5313 792.5156,184.875 Q793.4375,185.2188 794.3281,185.2188 Q795.2344,185.2188 795.7344,184.8125 Q796.2344,184.3906 796.2344,183.6563 Q796.2344,183.0938 795.8906,182.6875 Q795.5625,182.2656 794.9375,182.0156 L793.7344,181.5625 Z " fill="#000000"/><text fill="#000000" font-family="sans-serif" font-size="14" lengthAdjust="spacing" textLength="59" x="814.75" y="185.8467">AppData</text><line style="stroke:#181818;stroke-width:0.5;" x1="683" x2="973" y1="197" y2="197"/><rect fill="none" height="6" style="stroke:#C82930;stroke-width:1.0;" width="6" x="690" y="207.6484"/><text fill="#000000" font-family="sans-serif" font-size="14" lengthAdjust="spacing" textLength="58" x="702" y="213.9951">any data</text><ellipse cx="693" cy="226.9453" fill="none" rx="3" ry="3" style="stroke:#038048;stroke-width:1.0;"/><text fill="#000000" font-family="sans-serif" font-size="14" lengthAdjust="spacing" textLength="266" x="702" y="230.292">CompletionHandler completionHandler</text><line style="stroke:#181818;stroke-width:0.5;" x1="683" x2="973" y1="237.5938" y2="237.5938"/><ellipse cx="693" cy="251.2422" fill="#84BE84" rx="3" ry="3" style="stroke:#038048;stroke-width:1.0;"/><text fill="#000000" font-family="sans-serif" font-size="14" lengthAdjust="spacing" textLength="95" x="702" y="254.5889">any GetData()</text></g><!--class Server--><g id="elem_Server"><rect codeLine="10" fill="#F1F1F1" height="80.5938" id="Server" rx="2.5" ry="2.5" style="stroke:#181818;stroke-width:0.5;" width="114" x="772" y="354.5"/><ellipse cx="804.1" cy="370.5" fill="#B4A7E5" rx="11" ry="11" style="stroke:#181818;stroke-width:1.0;"/><path d="M800.0219,366.2656 L800.0219,364.1094 L807.4125,364.1094 L807.4125,366.2656 L804.9438,366.2656 L804.9438,374.3438 L807.4125,374.3438 L807.4125,376.5 L800.0219,376.5 L800.0219,374.3438 L802.4906,374.3438 L802.4906,366.2656 L800.0219,366.2656 Z " fill="#000000"/><text fill="#000000" font-family="sans-serif" font-size="14" font-style="italic" lengthAdjust="spacing" textLength="44" x="821.9" y="375.3467">Server</text><line style="stroke:#181818;stroke-width:0.5;" x1="773" x2="885" y1="386.5" y2="386.5"/><line style="stroke:#181818;stroke-width:0.5;" x1="773" x2="885" y1="394.5" y2="394.5"/><ellipse cx="783" cy="408.1484" fill="#84BE84" rx="3" ry="3" style="stroke:#038048;stroke-width:1.0;"/><text fill="#000000" font-family="sans-serif" font-size="14" lengthAdjust="spacing" textLength="88" x="792" y="411.4951">error Setup()</text><ellipse cx="783" cy="424.4453" fill="#84BE84" rx="3" ry="3" style="stroke:#038048;stroke-width:1.0;"/><text fill="#000000" font-family="sans-serif" font-size="14" lengthAdjust="spacing" textLength="86" x="792" y="427.792">error Serve()</text></g><!--class Pullable--><g id="elem_Pullable"><rect codeLine="14" fill="#F1F1F1" height="64.2969" id="Pullable" rx="2.5" ry="2.5" style="stroke:#181818;stroke-width:0.5;" width="164" x="921" y="363"/><ellipse cx="972.25" cy="379" fill="#B4A7E5" rx="11" ry="11" style="stroke:#181818;stroke-width:1.0;"/><path d="M968.1719,374.7656 L968.1719,372.6094 L975.5625,372.6094 L975.5625,374.7656 L973.0938,374.7656 L973.0938,382.8438 L975.5625,382.8438 L975.5625,385 L968.1719,385 L968.1719,382.8438 L970.6406,382.8438 L970.6406,374.7656 L968.1719,374.7656 Z " fill="#000000"/><text fill="#000000" font-family="sans-serif" font-size="14" font-style="italic" lengthAdjust="spacing" textLength="53" x="992.75" y="383.8467">Pullable</text><line style="stroke:#181818;stroke-width:0.5;" x1="922" x2="1084" y1="395" y2="395"/><line style="stroke:#181818;stroke-width:0.5;" x1="922" x2="1084" y1="403" y2="403"/><ellipse cx="932" cy="416.6484" fill="#84BE84" rx="3" ry="3" style="stroke:#038048;stroke-width:1.0;"/><text fill="#000000" font-family="sans-serif" font-size="14" lengthAdjust="spacing" textLength="138" x="941" y="419.9951">AppData, error Pull()</text></g><!--class Pushable--><g id="elem_Pushable"><rect codeLine="17" fill="#F1F1F1" height="64.2969" id="Pushable" rx="2.5" ry="2.5" style="stroke:#181818;stroke-width:0.5;" width="167" x="569.5" y="363"/><ellipse cx="616.75" cy="379" fill="#B4A7E5" rx="11" ry="11" style="stroke:#181818;stroke-width:1.0;"/><path d="M612.6719,374.7656 L612.6719,372.6094 L620.0625,372.6094 L620.0625,374.7656 L617.5938,374.7656 L617.5938,382.8438 L620.0625,382.8438 L620.0625,385 L612.6719,385 L612.6719,382.8438 L615.1406,382.8438 L615.1406,374.7656 L612.6719,374.7656 Z " fill="#000000"/><text fill="#000000" font-family="sans-serif" font-size="14" font-style="italic" lengthAdjust="spacing" textLength="64" x="637.25" y="383.8467">Pushable</text><line style="stroke:#181818;stroke-width:0.5;" x1="570.5" x2="735.5" y1="395" y2="395"/><line style="stroke:#181818;stroke-width:0.5;" x1="570.5" x2="735.5" y1="403" y2="403"/><ellipse cx="580.5" cy="416.6484" fill="#84BE84" rx="3" ry="3" style="stroke:#038048;stroke-width:1.0;"/><text fill="#000000" font-family="sans-serif" font-size="14" lengthAdjust="spacing" textLength="141" x="589.5" y="419.9951">error Push(AppData)</text></g><!--class SourceServer--><g id="elem_SourceServer"><rect codeLine="20" fill="#F1F1F1" height="96.8906" id="SourceServer" rx="2.5" ry="2.5" style="stroke:#181818;stroke-width:0.5;" width="164" x="747" y="536"/><ellipse cx="779.55" cy="552" fill="#B4A7E5" rx="11" ry="11" style="stroke:#181818;stroke-width:1.0;"/><path d="M775.4719,547.7656 L775.4719,545.6094 L782.8625,545.6094 L782.8625,547.7656 L780.3938,547.7656 L780.3938,555.8438 L782.8625,555.8438 L782.8625,558 L775.4719,558 L775.4719,555.8438 L777.9406,555.8438 L777.9406,547.7656 L775.4719,547.7656 Z " fill="#000000"/><text fill="#000000" font-family="sans-serif" font-size="14" font-style="italic" lengthAdjust="spacing" textLength="93" x="797.45" y="556.8467">SourceServer</text><line style="stroke:#181818;stroke-width:0.5;" x1="748" x2="910" y1="568" y2="568"/><line style="stroke:#181818;stroke-width:0.5;" x1="748" x2="910" y1="576" y2="576"/><ellipse cx="758" cy="589.6484" fill="#84BE84" rx="3" ry="3" style="stroke:#038048;stroke-width:1.0;"/><text fill="#000000" font-family="sans-serif" font-size="14" lengthAdjust="spacing" textLength="138" x="767" y="592.9951">AppData, error Pull()</text><ellipse cx="758" cy="605.9453" fill="#84BE84" rx="3" ry="3" style="stroke:#038048;stroke-width:1.0;"/><text fill="#000000" font-family="sans-serif" font-size="14" lengthAdjust="spacing" textLength="88" x="767" y="609.292">error Setup()</text><ellipse cx="758" cy="622.2422" fill="#84BE84" rx="3" ry="3" style="stroke:#038048;stroke-width:1.0;"/><text fill="#000000" font-family="sans-serif" font-size="14" lengthAdjust="spacing" textLength="86" x="767" y="625.5889">error Serve()</text></g><!--class SinkServer--><g id="elem_SinkServer"><rect codeLine="25" fill="#F1F1F1" height="96.8906" id="SinkServer" rx="2.5" ry="2.5" style="stroke:#181818;stroke-width:0.5;" width="167" x="544.5" y="536"/><ellipse cx="587.4" cy="552" fill="#B4A7E5" rx="11" ry="11" style="stroke:#181818;stroke-width:1.0;"/><path d="M583.3219,547.7656 L583.3219,545.6094 L590.7125,545.6094 L590.7125,547.7656 L588.2438,547.7656 L588.2438,555.8438 L590.7125,555.8438 L590.7125,558 L583.3219,558 L583.3219,555.8438 L585.7906,555.8438 L585.7906,547.7656 L583.3219,547.7656 Z " fill="#000000"/><text fill="#000000" font-family="sans-serif" font-size="14" font-style="italic" lengthAdjust="spacing" textLength="73" x="607.6" y="556.8467">SinkServer</text><line style="stroke:#181818;stroke-width:0.5;" x1="545.5" x2="710.5" y1="568" y2="568"/><line style="stroke:#181818;stroke-width:0.5;" x1="545.5" x2="710.5" y1="576" y2="576"/><ellipse cx="555.5" cy="589.6484" fill="#84BE84" rx="3" ry="3" style="stroke:#038048;stroke-width:1.0;"/><text fill="#000000" font-family="sans-serif" font-size="14" lengthAdjust="spacing" textLength="141" x="564.5" y="592.9951">error Push(AppData)</text><ellipse cx="555.5" cy="605.9453" fill="#84BE84" rx="3" ry="3" style="stroke:#038048;stroke-width:1.0;"/><text fill="#000000" font-family="sans-serif" font-size="14" lengthAdjust="spacing" textLength="88" x="564.5" y="609.292">error Setup()</text><ellipse cx="555.5" cy="622.2422" fill="#84BE84" rx="3" ry="3" style="stroke:#038048;stroke-width:1.0;"/><text fill="#000000" font-family="sans-serif" font-size="14" lengthAdjust="spacing" textLength="86" x="564.5" y="625.5889">error Serve()</text></g><!--class PipeServer--><g id="elem_PipeServer"><rect codeLine="30" fill="#F1F1F1" height="113.1875" id="PipeServer" rx="2.5" ry="2.5" style="stroke:#181818;stroke-width:0.5;" width="167" x="946.5" y="528"/><ellipse cx="988.95" cy="544" fill="#B4A7E5" rx="11" ry="11" style="stroke:#181818;stroke-width:1.0;"/><path d="M984.8719,539.7656 L984.8719,537.6094 L992.2625,537.6094 L992.2625,539.7656 L989.7938,539.7656 L989.7938,547.8438 L992.2625,547.8438 L992.2625,550 L984.8719,550 L984.8719,547.8438 L987.3406,547.8438 L987.3406,539.7656 L984.8719,539.7656 Z " fill="#000000"/><text fill="#000000" font-family="sans-serif" font-size="14" font-style="italic" lengthAdjust="spacing" textLength="74" x="1009.05" y="548.8467">PipeServer</text><line style="stroke:#181818;stroke-width:0.5;" x1="947.5" x2="1112.5" y1="560" y2="560"/><line style="stroke:#181818;stroke-width:0.5;" x1="947.5" x2="1112.5" y1="568" y2="568"/><ellipse cx="957.5" cy="581.6484" fill="#84BE84" rx="3" ry="3" style="stroke:#038048;stroke-width:1.0;"/><text fill="#000000" font-family="sans-serif" font-size="14" lengthAdjust="spacing" textLength="138" x="966.5" y="584.9951">AppData, error Pull()</text><ellipse cx="957.5" cy="597.9453" fill="#84BE84" rx="3" ry="3" style="stroke:#038048;stroke-width:1.0;"/><text fill="#000000" font-family="sans-serif" font-size="14" lengthAdjust="spacing" textLength="141" x="966.5" y="601.292">error Push(AppData)</text><ellipse cx="957.5" cy="614.2422" fill="#84BE84" rx="3" ry="3" style="stroke:#038048;stroke-width:1.0;"/><text fill="#000000" font-family="sans-serif" font-size="14" lengthAdjust="spacing" textLength="88" x="966.5" y="617.5889">error Setup()</text><ellipse cx="957.5" cy="630.5391" fill="#84BE84" rx="3" ry="3" style="stroke:#038048;stroke-width:1.0;"/><text fill="#000000" font-family="sans-serif" font-size="14" lengthAdjust="spacing" textLength="86" x="966.5" y="633.8857">error Serve()</text></g><!--class ProducerResponse--><g id="elem_ProducerResponse"><rect codeLine="36" fill="#F1F1F1" height="80.5938" id="ProducerResponse" rx="2.5" ry="2.5" style="stroke:#181818;stroke-width:0.5;" width="166" x="177" y="173"/><ellipse cx="192" cy="189" fill="#F1F1F1" rx="11" ry="11" style="stroke:#181818;stroke-width:1.0;"/><path d="M191.4844,189.5625 Q189.625,188.8594 188.9688,188.0938 Q188.3281,187.3125 188.3281,186 Q188.3281,184.3125 189.4063,183.3438 Q190.4844,182.375 192.3594,182.375 Q193.2188,182.375 194.0625,182.5781 Q194.9219,182.7656 195.7656,183.1563 L195.7656,185.5469 Q194.9844,184.9844 194.1563,184.7031 Q193.3438,184.4063 192.5469,184.4063 Q191.6719,184.4063 191.1875,184.7656 Q190.7188,185.125 190.7188,185.7813 Q190.7188,186.2969 191.0625,186.6406 Q191.4063,186.9688 192.5,187.375 L193.5625,187.7813 Q195.0469,188.3281 195.75,189.2344 Q196.4688,190.1406 196.4688,191.5156 Q196.4688,193.3906 195.3594,194.3125 Q194.25,195.2344 192,195.2344 Q191.0781,195.2344 190.1563,195.0156 Q189.2344,194.7969 188.375,194.375 L188.375,191.8438 Q189.3438,192.5313 190.2656,192.875 Q191.1875,193.2188 192.0781,193.2188 Q192.9844,193.2188 193.4844,192.8125 Q193.9844,192.3906 193.9844,191.6563 Q193.9844,191.0938 193.6406,190.6875 Q193.3125,190.2656 192.6875,190.0156 L191.4844,189.5625 Z " fill="#000000"/><text fill="#000000" font-family="sans-serif" font-size="14" lengthAdjust="spacing" textLength="134" x="206" y="193.8467">ProducerResponse</text><line style="stroke:#181818;stroke-width:0.5;" x1="178" x2="342" y1="205" y2="205"/><rect fill="none" height="6" style="stroke:#C82930;stroke-width:1.0;" width="6" x="185" y="215.6484"/><text fill="#000000" font-family="sans-serif" font-size="14" lengthAdjust="spacing" textLength="70" x="197" y="221.9951">error error</text><line style="stroke:#181818;stroke-width:0.5;" x1="178" x2="342" y1="229.2969" y2="229.2969"/><ellipse cx="188" cy="242.9453" fill="#84BE84" rx="3" ry="3" style="stroke:#038048;stroke-width:1.0;"/><text fill="#000000" font-family="sans-serif" font-size="14" lengthAdjust="spacing" textLength="105" x="197" y="246.292">error GetError()</text></g><!--class ProducerInstance--><g id="elem_ProducerInstance"><rect codeLine="40" fill="#F1F1F1" height="64.2969" id="ProducerInstance" rx="2.5" ry="2.5" style="stroke:#181818;stroke-width:0.5;" width="234" x="143" y="363"/><ellipse cx="194.75" cy="379" fill="#B4A7E5" rx="11" ry="11" style="stroke:#181818;stroke-width:1.0;"/><path d="M190.6719,374.7656 L190.6719,372.6094 L198.0625,372.6094 L198.0625,374.7656 L195.5938,374.7656 L195.5938,382.8438 L198.0625,382.8438 L198.0625,385 L190.6719,385 L190.6719,382.8438 L193.1406,382.8438 L193.1406,374.7656 L190.6719,374.7656 Z " fill="#000000"/><text fill="#000000" font-family="sans-serif" font-size="14" font-style="italic" lengthAdjust="spacing" textLength="122" x="215.25" y="383.8467">ProducerInstance</text><line style="stroke:#181818;stroke-width:0.5;" x1="144" x2="376" y1="395" y2="395"/><line style="stroke:#181818;stroke-width:0.5;" x1="144" x2="376" y1="403" y2="403"/><ellipse cx="154" cy="416.6484" fill="#84BE84" rx="3" ry="3" style="stroke:#038048;stroke-width:1.0;"/><text fill="#000000" font-family="sans-serif" font-size="14" lengthAdjust="spacing" textLength="208" x="163" y="419.9951">ProducerResponse Send(any)</text></g><!--class Producer--><g id="elem_Producer"><rect codeLine="43" fill="#F1F1F1" height="64.2969" id="Producer" rx="2.5" ry="2.5" style="stroke:#181818;stroke-width:0.5;" width="246" x="217" y="552.5"/><ellipse cx="304.25" cy="568.5" fill="#B4A7E5" rx="11" ry="11" style="stroke:#181818;stroke-width:1.0;"/><path d="M300.1719,564.2656 L300.1719,562.1094 L307.5625,562.1094 L307.5625,564.2656 L305.0938,564.2656 L305.0938,572.3438 L307.5625,572.3438 L307.5625,574.5 L300.1719,574.5 L300.1719,572.3438 L302.6406,572.3438 L302.6406,564.2656 L300.1719,564.2656 Z " fill="#000000"/><text fill="#000000" font-family="sans-serif" font-size="14" font-style="italic" lengthAdjust="spacing" textLength="63" x="324.75" y="573.3467">Producer</text><line style="stroke:#181818;stroke-width:0.5;" x1="218" x2="462" y1="584.5" y2="584.5"/><line style="stroke:#181818;stroke-width:0.5;" x1="218" x2="462" y1="592.5" y2="592.5"/><ellipse cx="228" cy="606.1484" fill="#84BE84" rx="3" ry="3" style="stroke:#038048;stroke-width:1.0;"/><text fill="#000000" font-family="sans-serif" font-size="14" lengthAdjust="spacing" textLength="220" x="237" y="609.4951">ProducerInstance GetInstance()</text></g><!--class KafkaConsumer--><g id="elem_KafkaConsumer"><rect codeLine="46" fill="#F1F1F1" height="113.1875" id="KafkaConsumer" rx="2.5" ry="2.5" style="stroke:#181818;stroke-width:0.5;" width="326" x="1019" y="709"/><ellipse cx="1123.25" cy="725" fill="#F1F1F1" rx="11" ry="11" style="stroke:#181818;stroke-width:1.0;"/><path d="M1122.7344,725.5625 Q1120.875,724.8594 1120.2188,724.0938 Q1119.5781,723.3125 1119.5781,722 Q1119.5781,720.3125 1120.6563,719.3438 Q1121.7344,718.375 1123.6094,718.375 Q1124.4688,718.375 1125.3125,718.5781 Q1126.1719,718.7656 1127.0156,719.1563 L1127.0156,721.5469 Q1126.2344,720.9844 1125.4063,720.7031 Q1124.5938,720.4063 1123.7969,720.4063 Q1122.9219,720.4063 1122.4375,720.7656 Q1121.9688,721.125 1121.9688,721.7813 Q1121.9688,722.2969 1122.3125,722.6406 Q1122.6563,722.9688 1123.75,723.375 L1124.8125,723.7813 Q1126.2969,724.3281 1127,725.2344 Q1127.7188,726.1406 1127.7188,727.5156 Q1127.7188,729.3906 1126.6094,730.3125 Q1125.5,731.2344 1123.25,731.2344 Q1122.3281,731.2344 1121.4063,731.0156 Q1120.4844,730.7969 1119.625,730.375 L1119.625,727.8438 Q1120.5938,728.5313 1121.5156,728.875 Q1122.4375,729.2188 1123.3281,729.2188 Q1124.2344,729.2188 1124.7344,728.8125 Q1125.2344,728.3906 1125.2344,727.6563 Q1125.2344,727.0938 1124.8906,726.6875 Q1124.5625,726.2656 1123.9375,726.0156 L1122.7344,725.5625 Z " fill="#000000"/><text fill="#000000" font-family="sans-serif" font-size="14" lengthAdjust="spacing" textLength="109" x="1143.75" y="729.8467">KafkaConsumer</text><line style="stroke:#181818;stroke-width:0.5;" x1="1020" x2="1344" y1="741" y2="741"/><rect fill="none" height="6" style="stroke:#C82930;stroke-width:1.0;" width="6" x="1027" y="751.6484"/><text fill="#000000" font-family="sans-serif" font-size="14" lengthAdjust="spacing" textLength="300" x="1039" y="757.9951">KafkaConsumerCofig kafkaConsumerConfig</text><line style="stroke:#181818;stroke-width:0.5;" x1="1020" x2="1344" y1="765.2969" y2="765.2969"/><ellipse cx="1030" cy="778.9453" fill="#84BE84" rx="3" ry="3" style="stroke:#038048;stroke-width:1.0;"/><text fill="#000000" font-family="sans-serif" font-size="14" lengthAdjust="spacing" textLength="88" x="1039" y="782.292">error Setup()</text><ellipse cx="1030" cy="795.2422" fill="#84BE84" rx="3" ry="3" style="stroke:#038048;stroke-width:1.0;"/><text fill="#000000" font-family="sans-serif" font-size="14" lengthAdjust="spacing" textLength="86" x="1039" y="798.5889">error Serve()</text><ellipse cx="1030" cy="811.5391" fill="#84BE84" rx="3" ry="3" style="stroke:#038048;stroke-width:1.0;"/><text fill="#000000" font-family="sans-serif" font-size="14" lengthAdjust="spacing" textLength="138" x="1039" y="814.8857">AppData, error Pull()</text></g><!--class KafkaProducer--><g id="elem_KafkaProducer"><rect codeLine="52" fill="#F1F1F1" height="129.4844" id="KafkaProducer" rx="2.5" ry="2.5" style="stroke:#181818;stroke-width:0.5;" width="317" x="22.5" y="701"/><ellipse cx="126.75" cy="717" fill="#F1F1F1" rx="11" ry="11" style="stroke:#181818;stroke-width:1.0;"/><path d="M126.2344,717.5625 Q124.375,716.8594 123.7188,716.0938 Q123.0781,715.3125 123.0781,714 Q123.0781,712.3125 124.1563,711.3438 Q125.2344,710.375 127.1094,710.375 Q127.9688,710.375 128.8125,710.5781 Q129.6719,710.7656 130.5156,711.1563 L130.5156,713.5469 Q129.7344,712.9844 128.9063,712.7031 Q128.0938,712.4063 127.2969,712.4063 Q126.4219,712.4063 125.9375,712.7656 Q125.4688,713.125 125.4688,713.7813 Q125.4688,714.2969 125.8125,714.6406 Q126.1563,714.9688 127.25,715.375 L128.3125,715.7813 Q129.7969,716.3281 130.5,717.2344 Q131.2188,718.1406 131.2188,719.5156 Q131.2188,721.3906 130.1094,722.3125 Q129,723.2344 126.75,723.2344 Q125.8281,723.2344 124.9063,723.0156 Q123.9844,722.7969 123.125,722.375 L123.125,719.8438 Q124.0938,720.5313 125.0156,720.875 Q125.9375,721.2188 126.8281,721.2188 Q127.7344,721.2188 128.2344,720.8125 Q128.7344,720.3906 128.7344,719.6563 Q128.7344,719.0938 128.3906,718.6875 Q128.0625,718.2656 127.4375,718.0156 L126.2344,717.5625 Z " fill="#000000"/><text fill="#000000" font-family="sans-serif" font-size="14" lengthAdjust="spacing" textLength="100" x="147.25" y="721.8467">KafkaProducer</text><line style="stroke:#181818;stroke-width:0.5;" x1="23.5" x2="338.5" y1="733" y2="733"/><rect fill="none" height="6" style="stroke:#C82930;stroke-width:1.0;" width="6" x="30.5" y="743.6484"/><text fill="#000000" font-family="sans-serif" font-size="14" lengthAdjust="spacing" textLength="291" x="42.5" y="749.9951">KafkaProducerConfig kafkaProducerConfig</text><line style="stroke:#181818;stroke-width:0.5;" x1="23.5" x2="338.5" y1="757.2969" y2="757.2969"/><ellipse cx="33.5" cy="770.9453" fill="#84BE84" rx="3" ry="3" style="stroke:#038048;stroke-width:1.0;"/><text fill="#000000" font-family="sans-serif" font-size="14" lengthAdjust="spacing" textLength="88" x="42.5" y="774.292">error Setup()</text><ellipse cx="33.5" cy="787.2422" fill="#84BE84" rx="3" ry="3" style="stroke:#038048;stroke-width:1.0;"/><text fill="#000000" font-family="sans-serif" font-size="14" lengthAdjust="spacing" textLength="86" x="42.5" y="790.5889">error Serve()</text><ellipse cx="33.5" cy="803.5391" fill="#84BE84" rx="3" ry="3" style="stroke:#038048;stroke-width:1.0;"/><text fill="#000000" font-family="sans-serif" font-size="14" lengthAdjust="spacing" textLength="220" x="42.5" y="806.8857">ProducerInstance GetInstance()</text><ellipse cx="33.5" cy="819.8359" fill="#84BE84" rx="3" ry="3" style="stroke:#038048;stroke-width:1.0;"/><text fill="#000000" font-family="sans-serif" font-size="14" lengthAdjust="spacing" textLength="208" x="42.5" y="823.1826">ProducerResponse Send(any)</text></g><!--class ProducersServer--><g id="elem_ProducersServer"><rect codeLine="59" fill="#F1F1F1" height="129.4844" id="ProducersServer" rx="2.5" ry="2.5" style="stroke:#181818;stroke-width:0.5;" width="264" x="375" y="701"/><ellipse cx="445.25" cy="717" fill="#F1F1F1" rx="11" ry="11" style="stroke:#181818;stroke-width:1.0;"/><path d="M444.7344,717.5625 Q442.875,716.8594 442.2188,716.0938 Q441.5781,715.3125 441.5781,714 Q441.5781,712.3125 442.6563,711.3438 Q443.7344,710.375 445.6094,710.375 Q446.4688,710.375 447.3125,710.5781 Q448.1719,710.7656 449.0156,711.1563 L449.0156,713.5469 Q448.2344,712.9844 447.4063,712.7031 Q446.5938,712.4063 445.7969,712.4063 Q444.9219,712.4063 444.4375,712.7656 Q443.9688,713.125 443.9688,713.7813 Q443.9688,714.2969 444.3125,714.6406 Q444.6563,714.9688 445.75,715.375 L446.8125,715.7813 Q448.2969,716.3281 449,717.2344 Q449.7188,718.1406 449.7188,719.5156 Q449.7188,721.3906 448.6094,722.3125 Q447.5,723.2344 445.25,723.2344 Q444.3281,723.2344 443.4063,723.0156 Q442.4844,722.7969 441.625,722.375 L441.625,719.8438 Q442.5938,720.5313 443.5156,720.875 Q444.4375,721.2188 445.3281,721.2188 Q446.2344,721.2188 446.7344,720.8125 Q447.2344,720.3906 447.2344,719.6563 Q447.2344,719.0938 446.8906,718.6875 Q446.5625,718.2656 445.9375,718.0156 L444.7344,717.5625 Z " fill="#000000"/><text fill="#000000" font-family="sans-serif" font-size="14" lengthAdjust="spacing" textLength="115" x="465.75" y="721.8467">ProducersServer</text><line style="stroke:#181818;stroke-width:0.5;" x1="376" x2="638" y1="733" y2="733"/><rect fill="none" height="6" style="stroke:#C82930;stroke-width:1.0;" width="6" x="383" y="743.6484"/><text fill="#000000" font-family="sans-serif" font-size="14" lengthAdjust="spacing" textLength="238" x="395" y="749.9951">map[string]Producer producerMap</text><rect fill="none" height="6" style="stroke:#C82930;stroke-width:1.0;" width="6" x="383" y="759.9453"/><text fill="#000000" font-family="sans-serif" font-size="14" lengthAdjust="spacing" textLength="234" x="395" y="766.292">ProducersConfig producersConfig</text><line style="stroke:#181818;stroke-width:0.5;" x1="376" x2="638" y1="773.5938" y2="773.5938"/><ellipse cx="386" cy="787.2422" fill="#84BE84" rx="3" ry="3" style="stroke:#038048;stroke-width:1.0;"/><text fill="#000000" font-family="sans-serif" font-size="14" lengthAdjust="spacing" textLength="88" x="395" y="790.5889">error Setup()</text><ellipse cx="386" cy="803.5391" fill="#84BE84" rx="3" ry="3" style="stroke:#038048;stroke-width:1.0;"/><text fill="#000000" font-family="sans-serif" font-size="14" lengthAdjust="spacing" textLength="86" x="395" y="806.8857">error Serve()</text><ellipse cx="386" cy="819.8359" fill="#84BE84" rx="3" ry="3" style="stroke:#038048;stroke-width:1.0;"/><text fill="#000000" font-family="sans-serif" font-size="14" lengthAdjust="spacing" textLength="141" x="395" y="823.1826">error Push(AppData)</text></g><!--class ConsumersServer--><g id="elem_ConsumersServer"><rect codeLine="66" fill="#F1F1F1" height="129.4844" id="ConsumersServer" rx="2.5" ry="2.5" style="stroke:#181818;stroke-width:0.5;" width="309" x="674.5" y="701"/><ellipse cx="762.75" cy="717" fill="#F1F1F1" rx="11" ry="11" style="stroke:#181818;stroke-width:1.0;"/><path d="M762.2344,717.5625 Q760.375,716.8594 759.7188,716.0938 Q759.0781,715.3125 759.0781,714 Q759.0781,712.3125 760.1563,711.3438 Q761.2344,710.375 763.1094,710.375 Q763.9688,710.375 764.8125,710.5781 Q765.6719,710.7656 766.5156,711.1563 L766.5156,713.5469 Q765.7344,712.9844 764.9063,712.7031 Q764.0938,712.4063 763.2969,712.4063 Q762.4219,712.4063 761.9375,712.7656 Q761.4688,713.125 761.4688,713.7813 Q761.4688,714.2969 761.8125,714.6406 Q762.1563,714.9688 763.25,715.375 L764.3125,715.7813 Q765.7969,716.3281 766.5,717.2344 Q767.2188,718.1406 767.2188,719.5156 Q767.2188,721.3906 766.1094,722.3125 Q765,723.2344 762.75,723.2344 Q761.8281,723.2344 760.9063,723.0156 Q759.9844,722.7969 759.125,722.375 L759.125,719.8438 Q760.0938,720.5313 761.0156,720.875 Q761.9375,721.2188 762.8281,721.2188 Q763.7344,721.2188 764.2344,720.8125 Q764.7344,720.3906 764.7344,719.6563 Q764.7344,719.0938 764.3906,718.6875 Q764.0625,718.2656 763.4375,718.0156 L762.2344,717.5625 Z " fill="#000000"/><text fill="#000000" font-family="sans-serif" font-size="14" lengthAdjust="spacing" textLength="124" x="783.25" y="721.8467">ConsumersServer</text><line style="stroke:#181818;stroke-width:0.5;" x1="675.5" x2="982.5" y1="733" y2="733"/><rect fill="none" height="6" style="stroke:#C82930;stroke-width:1.0;" width="6" x="682.5" y="743.6484"/><text fill="#000000" font-family="sans-serif" font-size="14" lengthAdjust="spacing" textLength="283" x="694.5" y="749.9951">map[string]SourceServer consumersMap</text><rect fill="none" height="6" style="stroke:#C82930;stroke-width:1.0;" width="6" x="682.5" y="759.9453"/><text fill="#000000" font-family="sans-serif" font-size="14" lengthAdjust="spacing" textLength="250" x="694.5" y="766.292">ConsumersConfig consumersConfig</text><line style="stroke:#181818;stroke-width:0.5;" x1="675.5" x2="982.5" y1="773.5938" y2="773.5938"/><ellipse cx="685.5" cy="787.2422" fill="#84BE84" rx="3" ry="3" style="stroke:#038048;stroke-width:1.0;"/><text fill="#000000" font-family="sans-serif" font-size="14" lengthAdjust="spacing" textLength="88" x="694.5" y="790.5889">error Setup()</text><ellipse cx="685.5" cy="803.5391" fill="#84BE84" rx="3" ry="3" style="stroke:#038048;stroke-width:1.0;"/><text fill="#000000" font-family="sans-serif" font-size="14" lengthAdjust="spacing" textLength="86" x="694.5" y="806.8857">error Serve()</text><ellipse cx="685.5" cy="819.8359" fill="#84BE84" rx="3" ry="3" style="stroke:#038048;stroke-width:1.0;"/><text fill="#000000" font-family="sans-serif" font-size="14" lengthAdjust="spacing" textLength="138" x="694.5" y="823.1826">AppData, error Pull()</text></g><!--class KafkaConsumerCofig--><g id="elem_KafkaConsumerCofig"><rect codeLine="73" fill="#F1F1F1" height="48" id="KafkaConsumerCofig" rx="2.5" ry="2.5" style="stroke:#181818;stroke-width:0.5;" width="176" x="1094" y="890"/><ellipse cx="1109" cy="906" fill="#F1F1F1" rx="11" ry="11" style="stroke:#181818;stroke-width:1.0;"/><path d="M1108.4844,906.5625 Q1106.625,905.8594 1105.9688,905.0938 Q1105.3281,904.3125 1105.3281,903 Q1105.3281,901.3125 1106.4063,900.3438 Q1107.4844,899.375 1109.3594,899.375 Q1110.2188,899.375 1111.0625,899.5781 Q1111.9219,899.7656 1112.7656,900.1563 L1112.7656,902.5469 Q1111.9844,901.9844 1111.1563,901.7031 Q1110.3438,901.4063 1109.5469,901.4063 Q1108.6719,901.4063 1108.1875,901.7656 Q1107.7188,902.125 1107.7188,902.7813 Q1107.7188,903.2969 1108.0625,903.6406 Q1108.4063,903.9688 1109.5,904.375 L1110.5625,904.7813 Q1112.0469,905.3281 1112.75,906.2344 Q1113.4688,907.1406 1113.4688,908.5156 Q1113.4688,910.3906 1112.3594,911.3125 Q1111.25,912.2344 1109,912.2344 Q1108.0781,912.2344 1107.1563,912.0156 Q1106.2344,911.7969 1105.375,911.375 L1105.375,908.8438 Q1106.3438,909.5313 1107.2656,909.875 Q1108.1875,910.2188 1109.0781,910.2188 Q1109.9844,910.2188 1110.4844,909.8125 Q1110.9844,909.3906 1110.9844,908.6563 Q1110.9844,908.0938 1110.6406,907.6875 Q1110.3125,907.2656 1109.6875,907.0156 L1108.4844,906.5625 Z " fill="#000000"/><text fill="#000000" font-family="sans-serif" font-size="14" lengthAdjust="spacing" textLength="144" x="1123" y="910.8467">KafkaConsumerCofig</text><line style="stroke:#181818;stroke-width:0.5;" x1="1095" x2="1269" y1="922" y2="922"/><line style="stroke:#181818;stroke-width:0.5;" x1="1095" x2="1269" y1="930" y2="930"/></g><!--class KafkaProducerConfig--><g id="elem_KafkaProducerConfig"><rect codeLine="74" fill="#F1F1F1" height="48" id="KafkaProducerConfig" rx="2.5" ry="2.5" style="stroke:#181818;stroke-width:0.5;" width="176" x="93" y="890"/><ellipse cx="108" cy="906" fill="#F1F1F1" rx="11" ry="11" style="stroke:#181818;stroke-width:1.0;"/><path d="M107.4844,906.5625 Q105.625,905.8594 104.9688,905.0938 Q104.3281,904.3125 104.3281,903 Q104.3281,901.3125 105.4063,900.3438 Q106.4844,899.375 108.3594,899.375 Q109.2188,899.375 110.0625,899.5781 Q110.9219,899.7656 111.7656,900.1563 L111.7656,902.5469 Q110.9844,901.9844 110.1563,901.7031 Q109.3438,901.4063 108.5469,901.4063 Q107.6719,901.4063 107.1875,901.7656 Q106.7188,902.125 106.7188,902.7813 Q106.7188,903.2969 107.0625,903.6406 Q107.4063,903.9688 108.5,904.375 L109.5625,904.7813 Q111.0469,905.3281 111.75,906.2344 Q112.4688,907.1406 112.4688,908.5156 Q112.4688,910.3906 111.3594,911.3125 Q110.25,912.2344 108,912.2344 Q107.0781,912.2344 106.1563,912.0156 Q105.2344,911.7969 104.375,911.375 L104.375,908.8438 Q105.3438,909.5313 106.2656,909.875 Q107.1875,910.2188 108.0781,910.2188 Q108.9844,910.2188 109.4844,909.8125 Q109.9844,909.3906 109.9844,908.6563 Q109.9844,908.0938 109.6406,907.6875 Q109.3125,907.2656 108.6875,907.0156 L107.4844,906.5625 Z " fill="#000000"/><text fill="#000000" font-family="sans-serif" font-size="14" lengthAdjust="spacing" textLength="144" x="122" y="910.8467">KafkaProducerConfig</text><line style="stroke:#181818;stroke-width:0.5;" x1="94" x2="268" y1="922" y2="922"/><line style="stroke:#181818;stroke-width:0.5;" x1="94" x2="268" y1="930" y2="930"/></g><!--class ProducersConfig--><g id="elem_ProducersConfig"><rect codeLine="75" fill="#F1F1F1" height="48" id="ProducersConfig" rx="2.5" ry="2.5" style="stroke:#181818;stroke-width:0.5;" width="147" x="433.5" y="890"/><ellipse cx="448.5" cy="906" fill="#F1F1F1" rx="11" ry="11" style="stroke:#181818;stroke-width:1.0;"/><path d="M447.9844,906.5625 Q446.125,905.8594 445.4688,905.0938 Q444.8281,904.3125 444.8281,903 Q444.8281,901.3125 445.9063,900.3438 Q446.9844,899.375 448.8594,899.375 Q449.7188,899.375 450.5625,899.5781 Q451.4219,899.7656 452.2656,900.1563 L452.2656,902.5469 Q451.4844,901.9844 450.6563,901.7031 Q449.8438,901.4063 449.0469,901.4063 Q448.1719,901.4063 447.6875,901.7656 Q447.2188,902.125 447.2188,902.7813 Q447.2188,903.2969 447.5625,903.6406 Q447.9063,903.9688 449,904.375 L450.0625,904.7813 Q451.5469,905.3281 452.25,906.2344 Q452.9688,907.1406 452.9688,908.5156 Q452.9688,910.3906 451.8594,911.3125 Q450.75,912.2344 448.5,912.2344 Q447.5781,912.2344 446.6563,912.0156 Q445.7344,911.7969 444.875,911.375 L444.875,908.8438 Q445.8438,909.5313 446.7656,909.875 Q447.6875,910.2188 448.5781,910.2188 Q449.4844,910.2188 449.9844,909.8125 Q450.4844,909.3906 450.4844,908.6563 Q450.4844,908.0938 450.1406,907.6875 Q449.8125,907.2656 449.1875,907.0156 L447.9844,906.5625 Z " fill="#000000"/><text fill="#000000" font-family="sans-serif" font-size="14" lengthAdjust="spacing" textLength="115" x="462.5" y="910.8467">ProducersConfig</text><line style="stroke:#181818;stroke-width:0.5;" x1="434.5" x2="579.5" y1="922" y2="922"/><line style="stroke:#181818;stroke-width:0.5;" x1="434.5" x2="579.5" y1="930" y2="930"/></g><!--class ConsumersConfig--><g id="elem_ConsumersConfig"><rect codeLine="76" fill="#F1F1F1" height="48" id="ConsumersConfig" rx="2.5" ry="2.5" style="stroke:#181818;stroke-width:0.5;" width="156" x="751" y="890"/><ellipse cx="766" cy="906" fill="#F1F1F1" rx="11" ry="11" style="stroke:#181818;stroke-width:1.0;"/><path d="M765.4844,906.5625 Q763.625,905.8594 762.9688,905.0938 Q762.3281,904.3125 762.3281,903 Q762.3281,901.3125 763.4063,900.3438 Q764.4844,899.375 766.3594,899.375 Q767.2188,899.375 768.0625,899.5781 Q768.9219,899.7656 769.7656,900.1563 L769.7656,902.5469 Q768.9844,901.9844 768.1563,901.7031 Q767.3438,901.4063 766.5469,901.4063 Q765.6719,901.4063 765.1875,901.7656 Q764.7188,902.125 764.7188,902.7813 Q764.7188,903.2969 765.0625,903.6406 Q765.4063,903.9688 766.5,904.375 L767.5625,904.7813 Q769.0469,905.3281 769.75,906.2344 Q770.4688,907.1406 770.4688,908.5156 Q770.4688,910.3906 769.3594,911.3125 Q768.25,912.2344 766,912.2344 Q765.0781,912.2344 764.1563,912.0156 Q763.2344,911.7969 762.375,911.375 L762.375,908.8438 Q763.3438,909.5313 764.2656,909.875 Q765.1875,910.2188 766.0781,910.2188 Q766.9844,910.2188 767.4844,909.8125 Q767.9844,909.3906 767.9844,908.6563 Q767.9844,908.0938 767.6406,907.6875 Q767.3125,907.2656 766.6875,907.0156 L765.4844,906.5625 Z " fill="#000000"/><text fill="#000000" font-family="sans-serif" font-size="14" lengthAdjust="spacing" textLength="124" x="780" y="910.8467">ConsumersConfig</text><line style="stroke:#181818;stroke-width:0.5;" x1="752" x2="906" y1="922" y2="922"/><line style="stroke:#181818;stroke-width:0.5;" x1="752" x2="906" y1="930" y2="930"/></g><!--class JQTransformer--><g id="elem_JQTransformer"><rect codeLine="79" fill="#F1F1F1" height="145.7813" id="JQTransformer" rx="2.5" ry="2.5" style="stroke:#181818;stroke-width:0.5;" width="167" x="1400.5" y="322"/><ellipse cx="1432.15" cy="338" fill="#F1F1F1" rx="11" ry="11" style="stroke:#181818;stroke-width:1.0;"/><path d="M1431.6344,338.5625 Q1429.775,337.8594 1429.1188,337.0938 Q1428.4781,336.3125 1428.4781,335 Q1428.4781,333.3125 1429.5563,332.3438 Q1430.6344,331.375 1432.5094,331.375 Q1433.3688,331.375 1434.2125,331.5781 Q1435.0719,331.7656 1435.9156,332.1563 L1435.9156,334.5469 Q1435.1344,333.9844 1434.3063,333.7031 Q1433.4938,333.4063 1432.6969,333.4063 Q1431.8219,333.4063 1431.3375,333.7656 Q1430.8688,334.125 1430.8688,334.7813 Q1430.8688,335.2969 1431.2125,335.6406 Q1431.5563,335.9688 1432.65,336.375 L1433.7125,336.7813 Q1435.1969,337.3281 1435.9,338.2344 Q1436.6188,339.1406 1436.6188,340.5156 Q1436.6188,342.3906 1435.5094,343.3125 Q1434.4,344.2344 1432.15,344.2344 Q1431.2281,344.2344 1430.3063,344.0156 Q1429.3844,343.7969 1428.525,343.375 L1428.525,340.8438 Q1429.4938,341.5313 1430.4156,341.875 Q1431.3375,342.2188 1432.2281,342.2188 Q1433.1344,342.2188 1433.6344,341.8125 Q1434.1344,341.3906 1434.1344,340.6563 Q1434.1344,340.0938 1433.7906,339.6875 Q1433.4625,339.2656 1432.8375,339.0156 L1431.6344,338.5625 Z " fill="#000000"/><text fill="#000000" font-family="sans-serif" font-size="14" lengthAdjust="spacing" textLength="98" x="1449.85" y="342.8467">JQTransformer</text><line style="stroke:#181818;stroke-width:0.5;" x1="1401.5" x2="1566.5" y1="354" y2="354"/><rect fill="none" height="6" style="stroke:#C82930;stroke-width:1.0;" width="6" x="1408.5" y="364.6484"/><text fill="#000000" font-family="sans-serif" font-size="14" lengthAdjust="spacing" textLength="96" x="1420.5" y="370.9951">string jqQuery</text><rect fill="none" height="6" style="stroke:#C82930;stroke-width:1.0;" width="6" x="1408.5" y="380.9453"/><text fill="#000000" font-family="sans-serif" font-size="14" lengthAdjust="spacing" textLength="118" x="1420.5" y="387.292">*Code jqProgram</text><line style="stroke:#181818;stroke-width:0.5;" x1="1401.5" x2="1566.5" y1="394.5938" y2="394.5938"/><ellipse cx="1411.5" cy="408.2422" fill="#84BE84" rx="3" ry="3" style="stroke:#038048;stroke-width:1.0;"/><text fill="#000000" font-family="sans-serif" font-size="14" lengthAdjust="spacing" textLength="138" x="1420.5" y="411.5889">AppData, error Pull()</text><ellipse cx="1411.5" cy="424.5391" fill="#84BE84" rx="3" ry="3" style="stroke:#038048;stroke-width:1.0;"/><text fill="#000000" font-family="sans-serif" font-size="14" lengthAdjust="spacing" textLength="141" x="1420.5" y="427.8857">error Push(AppData)</text><ellipse cx="1411.5" cy="440.8359" fill="#84BE84" rx="3" ry="3" style="stroke:#038048;stroke-width:1.0;"/><text fill="#000000" font-family="sans-serif" font-size="14" lengthAdjust="spacing" textLength="88" x="1420.5" y="444.1826">error Setup()</text><ellipse cx="1411.5" cy="457.1328" fill="#84BE84" rx="3" ry="3" style="stroke:#038048;stroke-width:1.0;"/><text fill="#000000" font-family="sans-serif" font-size="14" lengthAdjust="spacing" textLength="86" x="1420.5" y="460.4795">error Serve()</text></g><!--reverse link CompletionHandler to AppData--><g id="link_CompletionHandler_AppData"><path codeLine="88" d="M828,117.08 C828,134.71 828,145.13 828,164.93 " fill="none" id="CompletionHandler-backto-AppData" style="stroke:#181818;stroke-width:1.0;"/><polygon fill="#181818" points="828,105.08,824,111.08,828,117.08,832,111.08,828,105.08" style="stroke:#181818;stroke-width:1.0;"/></g><!--reverse link AppData to Pullable--><g id="link_AppData_Pullable"><path codeLine="89" d="M895.0496,270.1964 C901.2096,275.7264 898.35,273.39 904,279 C930.92,305.73 958.88,338.78 978.19,362.57 " fill="none" id="AppData-backto-Pullable" style="stroke:#181818;stroke-width:1.0;"/><polygon fill="#181818" points="886.12,262.18,887.9127,269.1647,895.0496,270.1964,893.2569,263.2116,886.12,262.18" style="stroke:#181818;stroke-width:1.0;"/></g><!--reverse link AppData to Pushable--><g id="link_AppData_Pushable"><path codeLine="90" d="M763.9107,270.1876 C757.8307,275.7976 760.63,273.38 755,279 C727.8,306.15 698.93,339.14 678.87,362.81 " fill="none" id="AppData-backto-Pushable" style="stroke:#181818;stroke-width:1.0;"/><polygon fill="#181818" points="772.73,262.05,765.6078,263.179,763.9107,270.1876,771.0329,269.0585,772.73,262.05" style="stroke:#181818;stroke-width:1.0;"/></g><!--reverse link Server to SourceServer--><g id="link_Server_SourceServer"><path codeLine="91" d="M829,453.76 C829,483 829,504.87 829,535.82 " fill="none" id="Server-backto-SourceServer" style="stroke:#181818;stroke-width:1.0;"/><polygon fill="none" points="829,435.76,823,453.76,835,453.76,829,435.76" style="stroke:#181818;stroke-width:1.0;"/></g><!--reverse link Pullable to SourceServer--><g id="link_Pullable_SourceServer"><path codeLine="92" d="M961.6355,440.5736 C934.1555,470.1836 904.83,501.79 873.26,535.81 " fill="none" id="Pullable-backto-SourceServer" style="stroke:#181818;stroke-width:1.0;"/><polygon fill="none" points="973.88,427.38,957.2376,436.4921,966.0333,444.6551,973.88,427.38" style="stroke:#181818;stroke-width:1.0;"/></g><!--reverse link Server to SinkServer--><g id="link_Server_SinkServer"><path codeLine="93" d="M791.065,450.4103 C777.745,468.5203 771.5,475.11 754,492 C737.86,507.59 718.94,522.68 700.74,535.97 " fill="none" id="Server-backto-SinkServer" style="stroke:#181818;stroke-width:1.0;"/><polygon fill="none" points="801.73,435.91,786.2316,446.8553,795.8984,453.9653,801.73,435.91" style="stroke:#181818;stroke-width:1.0;"/></g><!--reverse link Pushable to SinkServer--><g id="link_Pushable_SinkServer"><path codeLine="94" d="M646.4399,445.2219 C642.4899,474.8319 638.9,501.79 634.36,535.81 " fill="none" id="Pushable-backto-SinkServer" style="stroke:#181818;stroke-width:1.0;"/><polygon fill="none" points="648.82,427.38,640.4926,444.4286,652.3872,446.0153,648.82,427.38" style="stroke:#181818;stroke-width:1.0;"/></g><!--reverse link Pushable to PipeServer--><g id="link_Pushable_PipeServer"><path codeLine="95" d="M689.7144,440.6677 C708.6044,462.1877 724.58,476.18 755,492 C825.06,528.44 854.9,500.68 929,528 C934.73,530.11 940.52,532.51 946.29,535.09 " fill="none" id="Pushable-backto-PipeServer" style="stroke:#181818;stroke-width:1.0;"/><polygon fill="none" points="677.84,427.14,685.2052,444.6258,694.2237,436.7095,677.84,427.14" style="stroke:#181818;stroke-width:1.0;"/></g><!--reverse link Pullable to PipeServer--><g id="link_Pullable_PipeServer"><path codeLine="96" d="M1010.0829,445.1966 C1014.0129,472.5166 1017.25,494.94 1021.97,527.72 " fill="none" id="Pullable-backto-PipeServer" style="stroke:#181818;stroke-width:1.0;"/><polygon fill="none" points="1007.52,427.38,1004.1441,446.0509,1016.0218,444.3423,1007.52,427.38" style="stroke:#181818;stroke-width:1.0;"/></g><!--reverse link Server to PipeServer--><g id="link_Server_PipeServer"><path codeLine="97" d="M866.935,450.4103 C880.255,468.5203 886.5,475.11 904,492 C916.93,504.49 931.65,516.66 946.35,527.84 " fill="none" id="Server-backto-PipeServer" style="stroke:#181818;stroke-width:1.0;"/><polygon fill="none" points="856.27,435.91,862.1016,453.9653,871.7684,446.8553,856.27,435.91" style="stroke:#181818;stroke-width:1.0;"/></g><!--reverse link ProducerResponse to ProducerInstance--><g id="link_ProducerResponse_ProducerInstance"><path codeLine="99" d="M260,266.34 C260,299.08 260,332.81 260,362.9 " fill="none" id="ProducerResponse-backto-ProducerInstance" style="stroke:#181818;stroke-width:1.0;"/><polygon fill="#181818" points="260,254.34,256,260.34,260,266.34,264,260.34,260,254.34" style="stroke:#181818;stroke-width:1.0;"/></g><!--reverse link ProducerInstance to Producer--><g id="link_ProducerInstance_Producer"><path codeLine="100" d="M278.0982,438.4178 C292.9082,473.1378 311.92,517.7 326.7,552.33 " fill="none" id="ProducerInstance-backto-Producer" style="stroke:#181818;stroke-width:1.0;"/><polygon fill="#181818" points="273.39,427.38,272.0649,434.4683,278.0982,438.4178,279.4234,431.3295,273.39,427.38" style="stroke:#181818;stroke-width:1.0;"/></g><!--reverse link Producer to KafkaProducer--><g id="link_Producer_KafkaProducer"><path codeLine="101" d="M300.3476,630.1388 C279.7976,653.2788 263.02,672.17 237.67,700.71 " fill="none" id="Producer-backto-KafkaProducer" style="stroke:#181818;stroke-width:1.0;"/><polygon fill="none" points="312.3,616.68,295.8613,626.1547,304.8339,634.123,312.3,616.68" style="stroke:#181818;stroke-width:1.0;"/></g><!--reverse link ProducerInstance to KafkaProducer--><g id="link_ProducerInstance_KafkaProducer"><path codeLine="102" d="M233.56,442.9852 C219.52,469.0352 209.37,491.81 200,528 C185.18,585.22 181.01,652.6 180.2,700.78 " fill="none" id="ProducerInstance-backto-KafkaProducer" style="stroke:#181818;stroke-width:1.0;"/><polygon fill="none" points="242.1,427.14,228.2783,440.1385,238.8418,445.8318,242.1,427.14" style="stroke:#181818;stroke-width:1.0;"/></g><!--reverse link SourceServer to KafkaConsumer--><g id="link_SourceServer_KafkaConsumer"><path codeLine="103" d="M927.0744,640.1027 C933.0644,643.3227 923.19,637.97 929,641 C973,663.93 1021.88,688.09 1064.85,708.9 " fill="none" id="SourceServer-backto-KafkaConsumer" style="stroke:#181818;stroke-width:1.0;"/><polygon fill="none" points="911.22,631.58,924.2335,645.3876,929.9153,634.8179,911.22,631.58" style="stroke:#181818;stroke-width:1.0;"/></g><!--reverse link Producer to ProducersServer--><g id="link_Producer_ProducersServer"><path codeLine="104" d="M377.2763,625.4541 C398.8663,648.5941 420.86,672.17 447.48,700.71 " fill="none" id="Producer-backto-ProducersServer" style="stroke:#181818;stroke-width:1.0;"/><polygon fill="#181818" points="369.09,616.68,370.2585,623.7958,377.2763,625.4541,376.1078,618.3382,369.09,616.68" style="stroke:#181818;stroke-width:1.0;"/></g><!--reverse link SinkServer to ProducersServer--><g id="link_SinkServer_ProducersServer"><path codeLine="105" d="M585.4892,648.3823 C571.4892,669.0923 565,678.7 549.99,700.9 " fill="none" id="SinkServer-backto-ProducersServer" style="stroke:#181818;stroke-width:1.0;"/><polygon fill="none" points="595.57,633.47,580.5184,645.0221,590.46,651.7426,595.57,633.47" style="stroke:#181818;stroke-width:1.0;"/></g><!--reverse link SourceServer to ConsumersServer--><g id="link_SourceServer_ConsumersServer"><path codeLine="106" d="M816.3373,651.4284 C814.9273,672.1384 815.88,678.7 816.74,700.9 " fill="none" id="SourceServer-backto-ConsumersServer" style="stroke:#181818;stroke-width:1.0;"/><polygon fill="none" points="817.56,633.47,810.3512,651.0209,822.3235,651.836,817.56,633.47" style="stroke:#181818;stroke-width:1.0;"/></g><!--reverse link SourceServer to ConsumersServer--><g id="link_SourceServer_ConsumersServer"><path codeLine="107" d="M841.9711,645.4391 C843.4611,666.1491 842.89,678.7 841.98,700.9 " fill="none" id="SourceServer-backto-ConsumersServer-1" style="stroke:#181818;stroke-width:1.0;"/><polygon fill="#181818" points="841.11,633.47,837.5509,639.7416,841.9711,645.4391,845.5303,639.1675,841.11,633.47" style="stroke:#181818;stroke-width:1.0;"/></g><!--link KafkaConsumer to KafkaConsumerCofig--><g id="link_KafkaConsumer_KafkaConsumerCofig"><path codeLine="109" d="M1182,822.3 C1182,845.75 1182,859.74 1182,877.86 " fill="none" id="KafkaConsumer-to-KafkaConsumerCofig" style="stroke:#181818;stroke-width:1.0;"/><polygon fill="#181818" points="1182,889.86,1186,883.86,1182,877.86,1178,883.86,1182,889.86" style="stroke:#181818;stroke-width:1.0;"/></g><!--link KafkaProducer to KafkaProducerConfig--><g id="link_KafkaProducer_KafkaProducerConfig"><path codeLine="110" d="M181,830.33 C181,851.46 181,861.65 181,877.71 " fill="none" id="KafkaProducer-to-KafkaProducerConfig" style="stroke:#181818;stroke-width:1.0;"/><polygon fill="#181818" points="181,889.71,185,883.71,181,877.71,177,883.71,181,889.71" style="stroke:#181818;stroke-width:1.0;"/></g><!--link ProducersServer to ProducersConfig--><g id="link_ProducersServer_ProducersConfig"><path codeLine="111" d="M507,830.33 C507,851.46 507,861.65 507,877.71 " fill="none" id="ProducersServer-to-ProducersConfig" style="stroke:#181818;stroke-width:1.0;"/><polygon fill="#181818" points="507,889.71,511,883.71,507,877.71,503,883.71,507,889.71" style="stroke:#181818;stroke-width:1.0;"/></g><!--link ConsumersServer to ConsumersConfig--><g id="link_ConsumersServer_ConsumersConfig"><path codeLine="112" d="M829,830.33 C829,851.46 829,861.65 829,877.71 " fill="none" id="ConsumersServer-to-ConsumersConfig" style="stroke:#181818;stroke-width:1.0;"/><polygon fill="#181818" points="829,889.71,833,883.71,829,877.71,825,883.71,829,889.71" style="stroke:#181818;stroke-width:1.0;"/></g><!--link JQTransformer to PipeServer--><g id="link_JQTransformer_PipeServer"><path codeLine="114" d="M1400.21,468.22 C1387.58,477.05 1374.31,485.3 1361,492 C1281.65,531.93 1200.2069,552.9332 1131.2169,566.3932 " fill="none" id="JQTransformer-to-PipeServer" style="stroke:#181818;stroke-width:1.0;"/><polygon fill="none" points="1113.55,569.84,1132.3658,572.2821,1130.068,560.5042,1113.55,569.84" style="stroke:#181818;stroke-width:1.0;"/></g><!--SRC=[lLPDavGm4BtpApYEeymly6ADM-fQwgvuipp4a9d5WIGcmN9BvxyR885qFjWfrbeE53IlE-zrEjrGr1B94IPvISGl8l8_MQwlcYeY3hrvprhU45Kp-XRHgfaG_VMS2C64XP0DelSlyi7sRC2SXxjKeiCgVyNvQwIGurveV5vfsnmmN0txbXdSkxyXge-wSHUSoGDD3kEIg8uR7s3My4IecwvfqFU6kC6C9ADvW2IzvPtlRPtatSO4IeXWdS0ab99U_N5AovgUKeaBsJuogpLVg-p_K375UIDOrM4YFkl3mAXqzwaONOUx7qzNtrN_a59dehwZKY6AmUu7AvQ4Llq9MWuL2p65rtJiSqpaUtGueRrUh6j1e09ysBD3VSnFq4IrRKMEBpebBhk8p09y6AcCzA1jBRqBidZvXddb98FQBbh4lsfKJO_V9h7SF7n0V0PECOna3j_NobtkEeQ_tVXb_g0nOUi2H4o1Z0WCtv-Yf41T9mlEuUFlOVZ9KvMTCpgDqUloqyUhtqeWh9XDd76xllqY49K79hppD-Op__7pjYFYVhPlzwmYsgof70Lgdxn1dhDnStVXMDuMXPckExD41bzTX9sTYv1nG5g8gQgNVsU8MswP5_b1O2pUDESoZyGQs3p95hc5i0Wp1pG5yxkFcpklWsK9Uyp7nm8Uu8Gaepxe0Vf4WBQ7AM0IOIkzrCr_AY1z2NIAXjVjelXj6fx5r8nJT5jqV5bjRBY5Ngaza36FX7o_5GEVb2Rd_qndh7S0_Mq7Mje_]--></g></svg>