<svg xmlns="http://www.w3.org/2000/svg" xmlns:xlink="http://www.w3.org/1999/xlink" contentStyleType="text/css" height="757px" preserveAspectRatio="none" style="width:796px;height:757px;background:#FFFFFF;" version="1.1" viewBox="0 0 796 757" width="796px" zoomAndPan="magnify"><defs/><g><!--cluster JSONExtractor--><g id="cluster_JSONExtractor"><path d="M8.5,6 L111.0205,6 A3.75,3.75 0 0 1 113.5205,8.5 L120.5205,28.4883 L787.02,28.4883 A2.5,2.5 0 0 1 789.52,30.9883 L789.52,747.5 A2.5,2.5 0 0 1 787.02,750 L8.5,750 A2.5,2.5 0 0 1 6,747.5 L6,8.5 A2.5,2.5 0 0 1 8.5,6 " fill="none" style="stroke:#000000;stroke-width:1.5;"/><line style="stroke:#000000;stroke-width:1.5;" x1="6" x2="120.5205" y1="28.4883" y2="28.4883"/><text fill="#000000" font-family="sans-serif" font-size="14" font-weight="bold" lengthAdjust="spacing" textLength="101.5205" x="10" y="21.5352">JSONExtractor</text></g><!--class Listener--><g id="elem_Listener"><rect codeLine="3" fill="#F1F1F1" height="80.9766" id="Listener" rx="2.5" ry="2.5" style="stroke:#181818;stroke-width:0.5;" width="111.1963" x="106.87" y="239.51"/><ellipse cx="133.2527" cy="255.51" fill="#B4A7E5" rx="11" ry="11" style="stroke:#181818;stroke-width:1.0;"/><path d="M129.6804,251.7751 L129.6804,249.6169 L137.0598,249.6169 L137.0598,251.7751 L134.5945,251.7751 L134.5945,259.8518 L137.0598,259.8518 L137.0598,262.01 L129.6804,262.01 L129.6804,259.8518 L132.1458,259.8518 L132.1458,251.7751 Z " fill="#000000"/><text fill="#000000" font-family="sans-serif" font-size="14" font-style="italic" lengthAdjust="spacing" textLength="53.9014" x="149.7822" y="260.801">Listener</text><line style="stroke:#181818;stroke-width:0.5;" x1="107.87" x2="217.0663" y1="271.51" y2="271.51"/><line style="stroke:#181818;stroke-width:0.5;" x1="107.87" x2="217.0663" y1="279.51" y2="279.51"/><ellipse cx="117.87" cy="293.2541" fill="#84BE84" rx="3" ry="3" style="stroke:#038048;stroke-width:1.0;"/><text fill="#000000" font-family="sans-serif" font-size="14" lengthAdjust="spacing" textLength="85.1963" x="126.87" y="297.0452">error Setup()</text><ellipse cx="117.87" cy="309.7424" fill="#84BE84" rx="3" ry="3" style="stroke:#038048;stroke-width:1.0;"/><text fill="#000000" font-family="sans-serif" font-size="14" lengthAdjust="spacing" textLength="83.2344" x="126.87" y="313.5334">error Serve()</text></g><!--class ProducerResponse--><g id="elem_ProducerResponse"><rect codeLine="7" fill="#F1F1F1" height="97.4648" id="ProducerResponse" rx="2.5" ry="2.5" style="stroke:#181818;stroke-width:0.5;" width="160.0527" x="82.44" y="636.27"/><ellipse cx="98.7729" cy="652.27" fill="#F1F1F1" rx="11" ry="11" style="stroke:#181818;stroke-width:1.0;"/><path d="M98.5063,653.333 Q96.6552,652.6274 95.9994,651.8513 Q95.3437,651.0752 95.3437,649.7637 Q95.3437,648.0786 96.4228,647.1157 Q97.5019,646.1528 99.3861,646.1528 Q100.2411,646.1528 101.0961,646.3479 Q101.9511,646.5429 102.7895,646.9248 L102.7895,649.3154 Q102.0009,648.7593 101.1874,648.4687 Q100.3739,648.1782 99.5771,648.1782 Q98.6889,648.1782 98.2157,648.5351 Q97.7426,648.8921 97.7426,649.5561 Q97.7426,650.0708 98.0871,650.407 Q98.4316,650.7431 99.5273,651.1499 L100.5815,651.5483 Q102.0756,652.0962 102.7812,653.001 Q103.4867,653.9057 103.4867,655.2837 Q103.4867,657.1596 102.3786,658.0852 Q101.2704,659.0107 99.0292,659.0107 Q98.1078,659.0107 97.1823,658.7908 Q96.2567,658.5708 95.3935,658.1391 L95.3935,655.6074 Q96.373,656.3047 97.2902,656.645 Q98.2074,656.9853 99.1039,656.9853 Q100.0087,656.9853 100.5067,656.5744 Q101.0048,656.1636 101.0048,655.4248 Q101.0048,654.8686 100.6728,654.4494 Q100.3407,654.0303 99.7099,653.7895 Z " fill="#000000"/><text fill="#000000" font-family="sans-serif" font-size="14" lengthAdjust="spacing" textLength="125.0908" x="113.0691" y="657.561">ProducerResponse</text><line style="stroke:#181818;stroke-width:0.5;" x1="83.44" x2="241.4927" y1="668.27" y2="668.27"/><rect fill="none" height="6" style="stroke:#C82930;stroke-width:1.0;" width="6" x="90.44" y="679.0141"/><text fill="#000000" font-family="sans-serif" font-size="14" lengthAdjust="spacing" textLength="57.6748" x="102.44" y="685.8052">any data</text><rect fill="none" height="6" style="stroke:#C82930;stroke-width:1.0;" width="6" x="90.44" y="695.5024"/><text fill="#000000" font-family="sans-serif" font-size="14" lengthAdjust="spacing" textLength="71.5996" x="102.44" y="702.2934">error error</text><line style="stroke:#181818;stroke-width:0.5;" x1="83.44" x2="241.4927" y1="709.2466" y2="709.2466"/><ellipse cx="93.44" cy="722.9907" fill="#84BE84" rx="3" ry="3" style="stroke:#038048;stroke-width:1.0;"/><text fill="#000000" font-family="sans-serif" font-size="14" lengthAdjust="spacing" textLength="134.0527" x="102.44" y="726.7817">any, error GetData()</text></g><!--class ProducersResponse--><g id="elem_ProducersResponse"><rect codeLine="12" fill="#F1F1F1" height="80.9766" id="ProducersResponse" rx="2.5" ry="2.5" style="stroke:#181818;stroke-width:0.5;" width="410.583" x="362.93" y="644.51"/><ellipse cx="497.8577" cy="660.51" fill="#F1F1F1" rx="11" ry="11" style="stroke:#181818;stroke-width:1.0;"/><path d="M497.5911,661.573 Q495.7401,660.8674 495.0843,660.0913 Q494.4285,659.3152 494.4285,658.0037 Q494.4285,656.3186 495.5076,655.3557 Q496.5867,654.3928 498.471,654.3928 Q499.326,654.3928 500.181,654.5879 Q501.036,654.7829 501.8743,655.1648 L501.8743,657.5554 Q501.0858,656.9993 500.2723,656.7087 Q499.4588,656.4182 498.6619,656.4182 Q497.7738,656.4182 497.3006,656.7751 Q496.8275,657.1321 496.8275,657.7961 Q496.8275,658.3108 497.1719,658.647 Q497.5164,658.9831 498.6121,659.3899 L499.6663,659.7883 Q501.1605,660.3362 501.866,661.241 Q502.5716,662.1457 502.5716,663.5237 Q502.5716,665.3996 501.4634,666.3252 Q500.3553,667.2507 498.1141,667.2507 Q497.1927,667.2507 496.2672,667.0308 Q495.3416,666.8108 494.4783,666.3791 L494.4783,663.8474 Q495.4578,664.5447 496.3751,664.885 Q497.2923,665.2253 498.1888,665.2253 Q499.0936,665.2253 499.5916,664.8144 Q500.0897,664.4036 500.0897,663.6648 Q500.0897,663.1086 499.7576,662.6894 Q499.4256,662.2703 498.7947,662.0295 Z " fill="#000000"/><text fill="#000000" font-family="sans-serif" font-size="14" lengthAdjust="spacing" textLength="132.2275" x="518.3577" y="665.801">ProducersResponse</text><line style="stroke:#181818;stroke-width:0.5;" x1="363.93" x2="772.513" y1="676.51" y2="676.51"/><rect fill="none" height="6" style="stroke:#C82930;stroke-width:1.0;" width="6" x="370.93" y="687.2541"/><text fill="#000000" font-family="sans-serif" font-size="14" lengthAdjust="spacing" textLength="384.583" x="382.93" y="694.0452">map&lt;string, ProducerResponse&gt; producerResponseMap</text><line style="stroke:#181818;stroke-width:0.5;" x1="363.93" x2="772.513" y1="700.9983" y2="700.9983"/><ellipse cx="373.93" cy="714.7424" fill="#84BE84" rx="3" ry="3" style="stroke:#038048;stroke-width:1.0;"/><text fill="#000000" font-family="sans-serif" font-size="14" lengthAdjust="spacing" textLength="201.3457" x="382.93" y="718.5334">ProducerResponse Get(string)</text></g><!--class ProducerInstance--><g id="elem_ProducerInstance"><rect codeLine="16" fill="#F1F1F1" height="64.4883" id="ProducerInstance" rx="2.5" ry="2.5" style="stroke:#181818;stroke-width:0.5;" width="221.2002" x="51.87" y="536.76"/><ellipse cx="99.8446" cy="552.76" fill="#B4A7E5" rx="11" ry="11" style="stroke:#181818;stroke-width:1.0;"/><path d="M96.2723,549.0251 L96.2723,546.8669 L103.6517,546.8669 L103.6517,549.0251 L101.1864,549.0251 L101.1864,557.1018 L103.6517,557.1018 L103.6517,559.26 L96.2723,559.26 L96.2723,557.1018 L98.7377,557.1018 L98.7377,549.0251 Z " fill="#000000"/><text fill="#000000" font-family="sans-serif" font-size="14" font-style="italic" lengthAdjust="spacing" textLength="116.751" x="120.3446" y="558.051">ProducerInstance</text><line style="stroke:#181818;stroke-width:0.5;" x1="52.87" x2="272.0702" y1="568.76" y2="568.76"/><line style="stroke:#181818;stroke-width:0.5;" x1="52.87" x2="272.0702" y1="576.76" y2="576.76"/><ellipse cx="62.87" cy="590.5041" fill="#84BE84" rx="3" ry="3" style="stroke:#038048;stroke-width:1.0;"/><text fill="#000000" font-family="sans-serif" font-size="14" lengthAdjust="spacing" textLength="195.2002" x="71.87" y="594.2952">ProducerResponse Send(any)</text></g><!--class Producer--><g id="elem_Producer"><rect codeLine="19" fill="#F1F1F1" height="64.4883" id="Producer" rx="2.5" ry="2.5" style="stroke:#181818;stroke-width:0.5;" width="235.9248" x="44.5" y="437.76"/><ellipse cx="128.0796" cy="453.76" fill="#B4A7E5" rx="11" ry="11" style="stroke:#181818;stroke-width:1.0;"/><path d="M124.5073,450.0251 L124.5073,447.8669 L131.8867,447.8669 L131.8867,450.0251 L129.4214,450.0251 L129.4214,458.1018 L131.8867,458.1018 L131.8867,460.26 L124.5073,460.26 L124.5073,458.1018 L126.9727,458.1018 L126.9727,450.0251 Z " fill="#000000"/><text fill="#000000" font-family="sans-serif" font-size="14" font-style="italic" lengthAdjust="spacing" textLength="60.2656" x="148.5796" y="459.051">Producer</text><line style="stroke:#181818;stroke-width:0.5;" x1="45.5" x2="279.4248" y1="469.76" y2="469.76"/><line style="stroke:#181818;stroke-width:0.5;" x1="45.5" x2="279.4248" y1="477.76" y2="477.76"/><ellipse cx="55.5" cy="491.5041" fill="#84BE84" rx="3" ry="3" style="stroke:#038048;stroke-width:1.0;"/><text fill="#000000" font-family="sans-serif" font-size="14" lengthAdjust="spacing" textLength="209.9248" x="64.5" y="495.2952">ProducerInstance GetInstance()</text></g><!--class Producers--><g id="elem_Producers"><rect codeLine="22" fill="#F1F1F1" height="80.9766" id="Producers" rx="2.5" ry="2.5" style="stroke:#181818;stroke-width:0.5;" width="280.9326" x="22" y="123.51"/><ellipse cx="124.5151" cy="139.51" fill="#F1F1F1" rx="11" ry="11" style="stroke:#181818;stroke-width:1.0;"/><path d="M124.2485,140.573 Q122.3975,139.8674 121.7417,139.0913 Q121.0859,138.3152 121.0859,137.0037 Q121.0859,135.3186 122.165,134.3557 Q123.2441,133.3928 125.1284,133.3928 Q125.9834,133.3928 126.8384,133.5879 Q127.6934,133.7829 128.5317,134.1648 L128.5317,136.5554 Q127.7432,135.9993 126.9297,135.7087 Q126.1162,135.4182 125.3193,135.4182 Q124.4312,135.4182 123.958,135.7751 Q123.4849,136.1321 123.4849,136.7961 Q123.4849,137.3108 123.8293,137.647 Q124.1738,137.9831 125.2695,138.3899 L126.3237,138.7883 Q127.8179,139.3362 128.5234,140.241 Q129.229,141.1457 129.229,142.5237 Q129.229,144.3996 128.1208,145.3252 Q127.0127,146.2507 124.7715,146.2507 Q123.8501,146.2507 122.9246,146.0308 Q121.999,145.8108 121.1357,145.3791 L121.1357,142.8474 Q122.1152,143.5447 123.0325,143.885 Q123.9497,144.2253 124.8462,144.2253 Q125.751,144.2253 126.249,143.8144 Q126.7471,143.4036 126.7471,142.6648 Q126.7471,142.1086 126.415,141.6894 Q126.083,141.2703 125.4521,141.0295 Z " fill="#000000"/><text fill="#000000" font-family="sans-serif" font-size="14" lengthAdjust="spacing" textLength="67.4023" x="145.0151" y="144.801">Producers</text><line style="stroke:#181818;stroke-width:0.5;" x1="23" x2="301.9326" y1="155.51" y2="155.51"/><rect fill="none" height="6" style="stroke:#C82930;stroke-width:1.0;" width="6" x="30" y="166.2541"/><text fill="#000000" font-family="sans-serif" font-size="14" lengthAdjust="spacing" textLength="254.9326" x="42" y="173.0452">map&lt;string, Producer&gt; producerMap</text><line style="stroke:#181818;stroke-width:0.5;" x1="23" x2="301.9326" y1="179.9983" y2="179.9983"/><ellipse cx="33" cy="193.7424" fill="#84BE84" rx="3" ry="3" style="stroke:#038048;stroke-width:1.0;"/><text fill="#000000" font-family="sans-serif" font-size="14" lengthAdjust="spacing" textLength="202.3369" x="42" y="197.5334">ProducersResponse Send(any)</text></g><!--class KafkaListener--><g id="elem_KafkaListener"><rect codeLine="26" fill="#F1F1F1" height="113.9531" id="KafkaListener" rx="2.5" ry="2.5" style="stroke:#181818;stroke-width:0.5;" width="325.2432" x="405.6" y="107.02"/><ellipse cx="518.0546" cy="123.02" fill="#F1F1F1" rx="11" ry="11" style="stroke:#181818;stroke-width:1.0;"/><path d="M517.788,124.083 Q515.9369,123.3774 515.2812,122.6013 Q514.6254,121.8252 514.6254,120.5137 Q514.6254,118.8286 515.7045,117.8657 Q516.7836,116.9028 518.6679,116.9028 Q519.5229,116.9028 520.3778,117.0979 Q521.2328,117.2929 522.0712,117.6748 L522.0712,120.0654 Q521.2826,119.5093 520.4691,119.2187 Q519.6557,118.9282 518.8588,118.9282 Q517.9706,118.9282 517.4975,119.2851 Q517.0243,119.6421 517.0243,120.3061 Q517.0243,120.8208 517.3688,121.157 Q517.7133,121.4931 518.809,121.8999 L519.8632,122.2983 Q521.3573,122.8462 522.0629,123.751 Q522.7685,124.6557 522.7685,126.0337 Q522.7685,127.9096 521.6603,128.8352 Q520.5521,129.7607 518.3109,129.7607 Q517.3896,129.7607 516.464,129.5408 Q515.5385,129.3208 514.6752,128.8891 L514.6752,126.3574 Q515.6547,127.0547 516.5719,127.395 Q517.4892,127.7353 518.3856,127.7353 Q519.2904,127.7353 519.7885,127.3244 Q520.2865,126.9136 520.2865,126.1748 Q520.2865,125.6186 519.9545,125.1994 Q519.6225,124.7803 518.9916,124.5395 Z " fill="#000000"/><text fill="#000000" font-family="sans-serif" font-size="14" lengthAdjust="spacing" textLength="91.834" x="538.5546" y="128.311">KafkaListener</text><line style="stroke:#181818;stroke-width:0.5;" x1="406.6" x2="729.8432" y1="139.02" y2="139.02"/><rect fill="none" height="6" style="stroke:#C82930;stroke-width:1.0;" width="6" x="413.6" y="149.7641"/><text fill="#000000" font-family="sans-serif" font-size="14" lengthAdjust="spacing" textLength="140.3076" x="425.6" y="156.5552">Producers producers</text><rect fill="none" height="6" style="stroke:#C82930;stroke-width:1.0;" width="6" x="413.6" y="166.2524"/><text fill="#000000" font-family="sans-serif" font-size="14" lengthAdjust="spacing" textLength="299.2432" x="425.6" y="173.0434">KafkaConsumerCofig kafkaConsumerConfig</text><line style="stroke:#181818;stroke-width:0.5;" x1="406.6" x2="729.8432" y1="179.9966" y2="179.9966"/><ellipse cx="416.6" cy="193.7407" fill="#84BE84" rx="3" ry="3" style="stroke:#038048;stroke-width:1.0;"/><text fill="#000000" font-family="sans-serif" font-size="14" lengthAdjust="spacing" textLength="85.1963" x="425.6" y="197.5317">error Setup()</text><ellipse cx="416.6" cy="210.229" fill="#84BE84" rx="3" ry="3" style="stroke:#038048;stroke-width:1.0;"/><text fill="#000000" font-family="sans-serif" font-size="14" lengthAdjust="spacing" textLength="83.2344" x="425.6" y="214.02">error Serve()</text></g><!--class KafkaProducer--><g id="elem_KafkaProducer"><rect codeLine="32" fill="#F1F1F1" height="97.4648" id="KafkaProducer" rx="2.5" ry="2.5" style="stroke:#181818;stroke-width:0.5;" width="315.666" x="410.39" y="421.27"/><ellipse cx="514.8739" cy="437.27" fill="#F1F1F1" rx="11" ry="11" style="stroke:#181818;stroke-width:1.0;"/><path d="M514.6073,438.333 Q512.7562,437.6274 512.1004,436.8513 Q511.4447,436.0752 511.4447,434.7637 Q511.4447,433.0786 512.5238,432.1157 Q513.6029,431.1528 515.4872,431.1528 Q516.3421,431.1528 517.1971,431.3479 Q518.0521,431.5429 518.8905,431.9248 L518.8905,434.3154 Q518.1019,433.7593 517.2884,433.4687 Q516.475,433.1782 515.6781,433.1782 Q514.7899,433.1782 514.3168,433.5351 Q513.8436,433.8921 513.8436,434.5561 Q513.8436,435.0708 514.1881,435.407 Q514.5326,435.7431 515.6283,436.1499 L516.6825,436.5483 Q518.1766,437.0962 518.8822,438.001 Q519.5878,438.9057 519.5878,440.2837 Q519.5878,442.1596 518.4796,443.0852 Q517.3714,444.0107 515.1302,444.0107 Q514.2088,444.0107 513.2833,443.7908 Q512.3578,443.5708 511.4945,443.1391 L511.4945,440.6074 Q512.474,441.3047 513.3912,441.645 Q514.3085,441.9853 515.2049,441.9853 Q516.1097,441.9853 516.6078,441.5744 Q517.1058,441.1636 517.1058,440.4248 Q517.1058,439.8686 516.7738,439.4494 Q516.4418,439.0303 515.8109,438.7895 Z " fill="#000000"/><text fill="#000000" font-family="sans-serif" font-size="14" lengthAdjust="spacing" textLength="98.1982" x="535.3739" y="442.561">KafkaProducer</text><line style="stroke:#181818;stroke-width:0.5;" x1="411.39" x2="725.056" y1="453.27" y2="453.27"/><rect fill="none" height="6" style="stroke:#C82930;stroke-width:1.0;" width="6" x="418.39" y="464.0141"/><text fill="#000000" font-family="sans-serif" font-size="14" lengthAdjust="spacing" textLength="289.666" x="430.39" y="470.8052">KafkaProducerConfig kafkaProducerConfig</text><line style="stroke:#181818;stroke-width:0.5;" x1="411.39" x2="725.056" y1="477.7583" y2="477.7583"/><ellipse cx="421.39" cy="491.5024" fill="#84BE84" rx="3" ry="3" style="stroke:#038048;stroke-width:1.0;"/><text fill="#000000" font-family="sans-serif" font-size="14" lengthAdjust="spacing" textLength="209.9248" x="430.39" y="495.2934">ProducerInstance GetInstance()</text><ellipse cx="421.39" cy="507.9907" fill="#84BE84" rx="3" ry="3" style="stroke:#038048;stroke-width:1.0;"/><text fill="#000000" font-family="sans-serif" font-size="14" lengthAdjust="spacing" textLength="195.2002" x="430.39" y="511.7817">ProducerResponse Send(any)</text></g><!--class KafkaConsumerCofig--><g id="elem_KafkaConsumerCofig"><rect codeLine="37" fill="#F1F1F1" height="48" id="KafkaConsumerCofig" rx="2.5" ry="2.5" style="stroke:#181818;stroke-width:0.5;" width="175.541" x="74.7" y="41"/><ellipse cx="89.7" cy="57" fill="#F1F1F1" rx="11" ry="11" style="stroke:#181818;stroke-width:1.0;"/><path d="M89.4334,58.063 Q87.5823,57.3574 86.9266,56.5813 Q86.2708,55.8052 86.2708,54.4937 Q86.2708,52.8086 87.3499,51.8457 Q88.429,50.8828 90.3133,50.8828 Q91.1683,50.8828 92.0232,51.0779 Q92.8782,51.2729 93.7166,51.6548 L93.7166,54.0454 Q92.928,53.4893 92.1146,53.1987 Q91.3011,52.9082 90.5042,52.9082 Q89.616,52.9082 89.1429,53.2651 Q88.6697,53.6221 88.6697,54.2861 Q88.6697,54.8008 89.0142,55.137 Q89.3587,55.4731 90.4544,55.8799 L91.5086,56.2783 Q93.0027,56.8262 93.7083,57.731 Q94.4139,58.6357 94.4139,60.0137 Q94.4139,61.8896 93.3057,62.8152 Q92.1976,63.7407 89.9563,63.7407 Q89.035,63.7407 88.1094,63.5208 Q87.1839,63.3008 86.3206,62.8691 L86.3206,60.3374 Q87.3001,61.0347 88.2173,61.375 Q89.1346,61.7153 90.0311,61.7153 Q90.9358,61.7153 91.4339,61.3044 Q91.9319,60.8936 91.9319,60.1548 Q91.9319,59.5986 91.5999,59.1794 Q91.2679,58.7603 90.637,58.5195 Z " fill="#000000"/><text fill="#000000" font-family="sans-serif" font-size="14" lengthAdjust="spacing" textLength="143.541" x="103.7" y="62.291">KafkaConsumerCofig</text><line style="stroke:#181818;stroke-width:0.5;" x1="75.7" x2="249.241" y1="73" y2="73"/><line style="stroke:#181818;stroke-width:0.5;" x1="75.7" x2="249.241" y1="81" y2="81"/></g><!--class KafkaProducerConfig--><g id="elem_KafkaProducerConfig"><rect codeLine="38" fill="#F1F1F1" height="48" id="KafkaProducerConfig" rx="2.5" ry="2.5" style="stroke:#181818;stroke-width:0.5;" width="175.0967" x="74.92" y="355"/><ellipse cx="89.92" cy="371" fill="#F1F1F1" rx="11" ry="11" style="stroke:#181818;stroke-width:1.0;"/><path d="M89.6534,372.063 Q87.8023,371.3574 87.1466,370.5813 Q86.4908,369.8052 86.4908,368.4937 Q86.4908,366.8086 87.5699,365.8457 Q88.649,364.8828 90.5333,364.8828 Q91.3883,364.8828 92.2432,365.0779 Q93.0982,365.2729 93.9366,365.6548 L93.9366,368.0454 Q93.148,367.4893 92.3346,367.1987 Q91.5211,366.9082 90.7242,366.9082 Q89.836,366.9082 89.3629,367.2651 Q88.8897,367.6221 88.8897,368.2861 Q88.8897,368.8008 89.2342,369.137 Q89.5787,369.4731 90.6744,369.8799 L91.7286,370.2783 Q93.2227,370.8262 93.9283,371.731 Q94.6339,372.6357 94.6339,374.0137 Q94.6339,375.8896 93.5257,376.8152 Q92.4176,377.7407 90.1763,377.7407 Q89.255,377.7407 88.3294,377.5208 Q87.4039,377.3008 86.5406,376.8691 L86.5406,374.3374 Q87.5201,375.0347 88.4373,375.375 Q89.3546,375.7153 90.2511,375.7153 Q91.1558,375.7153 91.6539,375.3044 Q92.1519,374.8936 92.1519,374.1548 Q92.1519,373.5986 91.8199,373.1794 Q91.4879,372.7603 90.857,372.5195 Z " fill="#000000"/><text fill="#000000" font-family="sans-serif" font-size="14" lengthAdjust="spacing" textLength="143.0967" x="103.92" y="376.291">KafkaProducerConfig</text><line style="stroke:#181818;stroke-width:0.5;" x1="75.92" x2="249.0167" y1="387" y2="387"/><line style="stroke:#181818;stroke-width:0.5;" x1="75.92" x2="249.0167" y1="395" y2="395"/></g><!--reverse link Producer to KafkaProducer--><g id="link_Producer_KafkaProducer"><path codeLine="40" d="M298.79,470 C339.19,470 367.1,470 410.15,470 " fill="none" id="Producer-backto-KafkaProducer" style="stroke:#181818;stroke-width:1.0;"/><polygon fill="none" points="280.79,470,298.79,476,298.79,464,280.79,470" style="stroke:#181818;stroke-width:1.0;"/></g><!--reverse link ProducerInstance to KafkaProducer--><g id="link_ProducerInstance_KafkaProducer"><path codeLine="41" d="M291.0127,537.7256 C333.0427,527.4256 364.34,519.75 409.92,508.57 " fill="none" id="ProducerInstance-backto-KafkaProducer" style="stroke:#181818;stroke-width:1.0;"/><polygon fill="none" points="273.53,542.01,292.4408,543.5532,289.5846,531.8981,273.53,542.01" style="stroke:#181818;stroke-width:1.0;"/></g><!--reverse link Listener to KafkaListener--><g id="link_Listener_KafkaListener"><path codeLine="42" d="M235.6395,259.2675 C283.7195,245.4475 338.8,229.63 405.2,210.55 " fill="none" id="Listener-backto-KafkaListener" style="stroke:#181818;stroke-width:1.0;"/><polygon fill="none" points="218.34,264.24,237.297,265.034,233.982,253.501,218.34,264.24" style="stroke:#181818;stroke-width:1.0;"/></g><!--reverse link ProducerResponse to ProducersResponse--><g id="link_ProducerResponse_ProducersResponse"><path codeLine="43" d="M254.75,685 C289.43,685 319.88,685 362.49,685 " fill="none" id="ProducerResponse-backto-ProducersResponse" style="stroke:#181818;stroke-width:1.0;"/><polygon fill="#181818" points="242.75,685,248.75,689,254.75,685,248.75,681,242.75,685" style="stroke:#181818;stroke-width:1.0;"/></g><!--reverse link KafkaConsumerCofig to KafkaListener--><g id="link_KafkaConsumerCofig_KafkaListener"><path codeLine="44" d="M262.2349,89.217 C307.4349,100.297 352.49,111.35 405.37,124.31 " fill="none" id="KafkaConsumerCofig-backto-KafkaListener" style="stroke:#181818;stroke-width:1.0;"/><polygon fill="#181818" points="250.58,86.36,255.4551,91.6735,262.2349,89.217,257.3598,83.9035,250.58,86.36" style="stroke:#181818;stroke-width:1.0;"/></g><!--reverse link KafkaProducerConfig to KafkaProducer--><g id="link_KafkaProducerConfig_KafkaProducer"><path codeLine="45" d="M261.7865,401.1577 C308.4765,411.6777 355.83,422.36 410.3,434.63 " fill="none" id="KafkaProducerConfig-backto-KafkaProducer" style="stroke:#181818;stroke-width:1.0;"/><polygon fill="#181818" points="250.08,398.52,255.054,403.741,261.7865,401.1577,256.8125,395.9367,250.08,398.52" style="stroke:#181818;stroke-width:1.0;"/></g><!--reverse link Producers to KafkaListener--><g id="link_Producers_KafkaListener"><path codeLine="46" d="M315.27,164 C348.19,164 371.55,164 405.36,164 " fill="none" id="Producers-backto-KafkaListener" style="stroke:#181818;stroke-width:1.0;"/><polygon fill="#181818" points="303.27,164,309.27,168,315.27,164,309.27,160,303.27,164" style="stroke:#181818;stroke-width:1.0;"/></g><!--SRC=[fLFRJeGm47tdA_g8kEmNR7nPZV5kv0kQCh3DIY7jO3Iw_swNMwajh2WF3JdjkSnCAsW1gg8Co6toz7ZrZf8oB2Nv38Z-NY53WYMHFDyXIRa4XhmKpHuN238xCk-vGX3GauxVEKYfLHB0kWhFN5Y-GGSVcbMXh1cIPrccDGFveZELGi58CQRYWwGKgK5QiMOr3lhOgiN8DU2b9imPAPzJGQkDFiT5ld8INP3g1_90A-Fk5A0pXAtME8NfNK-u4GgfOECShbW28WrrWVDIFeb1NkVf_sVxSgeVfW_U-jLivixiZcPxwhayiKdHcoYpsR2sMhikG6xBZETaRqD2O_-zYOsBfwEnjT5wjVusjcW4lv_sE9tLWydiNPn3OBtlzL3QvYkExRU_jlWJlA6QXVnXt5Ey_i24xz2ToA4xTo_moDiN9rgKmJVww4_TKwUSlm40]--></g></svg>