<?xml version="1.0" encoding="us-ascii" standalone="no"?><svg xmlns="http://www.w3.org/2000/svg" xmlns:xlink="http://www.w3.org/1999/xlink" contentStyleType="text/css" height="1273px" preserveAspectRatio="none" style="width:1469px;height:1273px;background:#FFFFFF;" version="1.1" viewBox="0 0 1469 1273" width="1469px" zoomAndPan="magnify"><defs/><g><!--cluster JSONExtractor--><g id="cluster_JSONExtractor"><path d="M1204.5,724 L1314.5,724 A3.75,3.75 0 0 1 1317,726.5 L1324,746.2969 L1459.5,746.2969 A2.5,2.5 0 0 1 1462,748.7969 L1462,901.5 A2.5,2.5 0 0 1 1459.5,904 L1204.5,904 A2.5,2.5 0 0 1 1202,901.5 L1202,726.5 A2.5,2.5 0 0 1 1204.5,724 " fill="none" style="stroke:#000000;stroke-width:1.5;"/><line style="stroke:#000000;stroke-width:1.5;" x1="1202" x2="1324" y1="746.2969" y2="746.2969"/><text fill="#000000" font-family="sans-serif" font-size="14" font-weight="bold" lengthAdjust="spacing" textLength="109" x="1206" y="738.9951">JSONExtractor</text></g><!--cluster Server--><g id="cluster_Server"><path d="M8.5,6 L62.5,6 A3.75,3.75 0 0 1 65,8.5 L72,28.2969 L1175.5,28.2969 A2.5,2.5 0 0 1 1178,30.7969 L1178,1263.5 A2.5,2.5 0 0 1 1175.5,1266 L8.5,1266 A2.5,2.5 0 0 1 6,1263.5 L6,8.5 A2.5,2.5 0 0 1 8.5,6 " fill="none" style="stroke:#000000;stroke-width:1.5;"/><line style="stroke:#000000;stroke-width:1.5;" x1="6" x2="72" y1="28.2969" y2="28.2969"/><text fill="#000000" font-family="sans-serif" font-size="14" font-weight="bold" lengthAdjust="spacing" textLength="53" x="10" y="20.9951">Server</text></g><!--class JQTransformer--><g id="elem_JQTransformer"><rect codeLine="2" fill="#F1F1F1" height="129.4844" id="JQTransformer" rx="2.5" ry="2.5" style="stroke:#181818;stroke-width:0.5;" width="228" x="1218" y="759"/><ellipse cx="1278.75" cy="775" fill="#F1F1F1" rx="11" ry="11" style="stroke:#181818;stroke-width:1.0;"/><path d="M1278.2344,775.5625 Q1276.375,774.8594 1275.7188,774.0938 Q1275.0781,773.3125 1275.0781,772 Q1275.0781,770.3125 1276.1563,769.3438 Q1277.2344,768.375 1279.1094,768.375 Q1279.9688,768.375 1280.8125,768.5781 Q1281.6719,768.7656 1282.5156,769.1563 L1282.5156,771.5469 Q1281.7344,770.9844 1280.9063,770.7031 Q1280.0938,770.4063 1279.2969,770.4063 Q1278.4219,770.4063 1277.9375,770.7656 Q1277.4688,771.125 1277.4688,771.7813 Q1277.4688,772.2969 1277.8125,772.6406 Q1278.1563,772.9688 1279.25,773.375 L1280.3125,773.7813 Q1281.7969,774.3281 1282.5,775.2344 Q1283.2188,776.1406 1283.2188,777.5156 Q1283.2188,779.3906 1282.1094,780.3125 Q1281,781.2344 1278.75,781.2344 Q1277.8281,781.2344 1276.9063,781.0156 Q1275.9844,780.7969 1275.125,780.375 L1275.125,777.8438 Q1276.0938,778.5313 1277.0156,778.875 Q1277.9375,779.2188 1278.8281,779.2188 Q1279.7344,779.2188 1280.2344,778.8125 Q1280.7344,778.3906 1280.7344,777.6563 Q1280.7344,777.0938 1280.3906,776.6875 Q1280.0625,776.2656 1279.4375,776.0156 L1278.2344,775.5625 Z " fill="#000000"/><text fill="#000000" font-family="sans-serif" font-size="14" lengthAdjust="spacing" textLength="98" x="1299.25" y="779.8467">JQTransformer</text><line style="stroke:#181818;stroke-width:0.5;" x1="1219" x2="1445" y1="791" y2="791"/><rect fill="none" height="6" style="stroke:#C82930;stroke-width:1.0;" width="6" x="1226" y="801.6484"/><text fill="#000000" font-family="sans-serif" font-size="14" lengthAdjust="spacing" textLength="145" x="1238" y="807.9951">gojq.Code jqProgram</text><rect fill="none" height="6" style="stroke:#C82930;stroke-width:1.0;" width="6" x="1226" y="817.9453"/><text fill="#000000" font-family="sans-serif" font-size="14" lengthAdjust="spacing" textLength="132" x="1238" y="824.292">Pushable pushable</text><line style="stroke:#181818;stroke-width:0.5;" x1="1219" x2="1445" y1="831.5938" y2="831.5938"/><ellipse cx="1229" cy="845.2422" fill="#84BE84" rx="3" ry="3" style="stroke:#038048;stroke-width:1.0;"/><text fill="#000000" font-family="sans-serif" font-size="14" lengthAdjust="spacing" textLength="202" x="1238" y="848.5889">error AddPushable(Pushable)</text><ellipse cx="1229" cy="861.5391" fill="#84BE84" rx="3" ry="3" style="stroke:#038048;stroke-width:1.0;"/><text fill="#000000" font-family="sans-serif" font-size="14" lengthAdjust="spacing" textLength="167" x="1238" y="864.8857">error SendTo(*AppData)</text><ellipse cx="1229" cy="877.8359" fill="#84BE84" rx="3" ry="3" style="stroke:#038048;stroke-width:1.0;"/><text fill="#000000" font-family="sans-serif" font-size="14" lengthAdjust="spacing" textLength="86" x="1238" y="881.1826">error Serve()</text></g><!--class CompletionHandler--><g id="elem_CompletionHandler"><rect codeLine="11" fill="#F1F1F1" height="64.2969" id="CompletionHandler" rx="2.5" ry="2.5" style="stroke:#181818;stroke-width:0.5;" width="205" x="709.5" y="41"/><ellipse cx="742.95" cy="57" fill="#B4A7E5" rx="11" ry="11" style="stroke:#181818;stroke-width:1.0;"/><path d="M738.8719,52.7656 L738.8719,50.6094 L746.2625,50.6094 L746.2625,52.7656 L743.7938,52.7656 L743.7938,60.8438 L746.2625,60.8438 L746.2625,63 L738.8719,63 L738.8719,60.8438 L741.3406,60.8438 L741.3406,52.7656 L738.8719,52.7656 Z " fill="#000000"/><text fill="#000000" font-family="sans-serif" font-size="14" font-style="italic" lengthAdjust="spacing" textLength="132" x="761.05" y="61.8467">CompletionHandler</text><line style="stroke:#181818;stroke-width:0.5;" x1="710.5" x2="913.5" y1="73" y2="73"/><line style="stroke:#181818;stroke-width:0.5;" x1="710.5" x2="913.5" y1="81" y2="81"/><ellipse cx="720.5" cy="94.6484" fill="#84BE84" rx="3" ry="3" style="stroke:#038048;stroke-width:1.0;"/><text fill="#000000" font-family="sans-serif" font-size="14" lengthAdjust="spacing" textLength="179" x="729.5" y="97.9951">error Complete(any, error)</text></g><!--class WaitGroupCompletionHandler--><g id="elem_WaitGroupCompletionHandler"><rect codeLine="14" fill="#F1F1F1" height="129.4844" id="WaitGroupCompletionHandler" rx="2.5" ry="2.5" style="stroke:#181818;stroke-width:0.5;" width="236" x="535" y="165"/><ellipse cx="550" cy="181" fill="#F1F1F1" rx="11" ry="11" style="stroke:#181818;stroke-width:1.0;"/><path d="M549.4844,181.5625 Q547.625,180.8594 546.9688,180.0938 Q546.3281,179.3125 546.3281,178 Q546.3281,176.3125 547.4063,175.3438 Q548.4844,174.375 550.3594,174.375 Q551.2188,174.375 552.0625,174.5781 Q552.9219,174.7656 553.7656,175.1563 L553.7656,177.5469 Q552.9844,176.9844 552.1563,176.7031 Q551.3438,176.4063 550.5469,176.4063 Q549.6719,176.4063 549.1875,176.7656 Q548.7188,177.125 548.7188,177.7813 Q548.7188,178.2969 549.0625,178.6406 Q549.4063,178.9688 550.5,179.375 L551.5625,179.7813 Q553.0469,180.3281 553.75,181.2344 Q554.4688,182.1406 554.4688,183.5156 Q554.4688,185.3906 553.3594,186.3125 Q552.25,187.2344 550,187.2344 Q549.0781,187.2344 548.1563,187.0156 Q547.2344,186.7969 546.375,186.375 L546.375,183.8438 Q547.3438,184.5313 548.2656,184.875 Q549.1875,185.2188 550.0781,185.2188 Q550.9844,185.2188 551.4844,184.8125 Q551.9844,184.3906 551.9844,183.6563 Q551.9844,183.0938 551.6406,182.6875 Q551.3125,182.2656 550.6875,182.0156 L549.4844,181.5625 Z " fill="#000000"/><text fill="#000000" font-family="sans-serif" font-size="14" lengthAdjust="spacing" textLength="204" x="564" y="185.8467">WaitGroupCompletionHandler</text><line style="stroke:#181818;stroke-width:0.5;" x1="536" x2="770" y1="197" y2="197"/><rect fill="none" height="6" style="stroke:#C82930;stroke-width:1.0;" width="6" x="543" y="207.6484"/><text fill="#000000" font-family="sans-serif" font-size="14" lengthAdjust="spacing" textLength="132" x="555" y="213.9951">sync.WaitGroup wg</text><rect fill="none" height="6" style="stroke:#C82930;stroke-width:1.0;" width="6" x="543" y="223.9453"/><text fill="#000000" font-family="sans-serif" font-size="14" lengthAdjust="spacing" textLength="58" x="555" y="230.292">any data</text><rect fill="none" height="6" style="stroke:#C82930;stroke-width:1.0;" width="6" x="543" y="240.2422"/><text fill="#000000" font-family="sans-serif" font-size="14" lengthAdjust="spacing" textLength="70" x="555" y="246.5889">error error</text><rect fill="none" height="6" style="stroke:#C82930;stroke-width:1.0;" width="6" x="543" y="256.5391"/><text fill="#000000" font-family="sans-serif" font-size="14" lengthAdjust="spacing" textLength="112" x="555" y="262.8857">bool isComplete</text><line style="stroke:#181818;stroke-width:0.5;" x1="536" x2="770" y1="270.1875" y2="270.1875"/><ellipse cx="546" cy="283.8359" fill="#84BE84" rx="3" ry="3" style="stroke:#038048;stroke-width:1.0;"/><text fill="#000000" font-family="sans-serif" font-size="14" lengthAdjust="spacing" textLength="179" x="555" y="287.1826">error Complete(any, error)</text></g><!--class AppData--><g id="elem_AppData"><rect codeLine="21" fill="#F1F1F1" height="113.1875" id="AppData" rx="2.5" ry="2.5" style="stroke:#181818;stroke-width:0.5;" width="329" x="806.5" y="173"/><ellipse cx="937.25" cy="189" fill="#F1F1F1" rx="11" ry="11" style="stroke:#181818;stroke-width:1.0;"/><path d="M936.7344,189.5625 Q934.875,188.8594 934.2188,188.0938 Q933.5781,187.3125 933.5781,186 Q933.5781,184.3125 934.6563,183.3438 Q935.7344,182.375 937.6094,182.375 Q938.4688,182.375 939.3125,182.5781 Q940.1719,182.7656 941.0156,183.1563 L941.0156,185.5469 Q940.2344,184.9844 939.4063,184.7031 Q938.5938,184.4063 937.7969,184.4063 Q936.9219,184.4063 936.4375,184.7656 Q935.9688,185.125 935.9688,185.7813 Q935.9688,186.2969 936.3125,186.6406 Q936.6563,186.9688 937.75,187.375 L938.8125,187.7813 Q940.2969,188.3281 941,189.2344 Q941.7188,190.1406 941.7188,191.5156 Q941.7188,193.3906 940.6094,194.3125 Q939.5,195.2344 937.25,195.2344 Q936.3281,195.2344 935.4063,195.0156 Q934.4844,194.7969 933.625,194.375 L933.625,191.8438 Q934.5938,192.5313 935.5156,192.875 Q936.4375,193.2188 937.3281,193.2188 Q938.2344,193.2188 938.7344,192.8125 Q939.2344,192.3906 939.2344,191.6563 Q939.2344,191.0938 938.8906,190.6875 Q938.5625,190.2656 937.9375,190.0156 L936.7344,189.5625 Z " fill="#000000"/><text fill="#000000" font-family="sans-serif" font-size="14" lengthAdjust="spacing" textLength="59" x="957.75" y="193.8467">AppData</text><line style="stroke:#181818;stroke-width:0.5;" x1="807.5" x2="1134.5" y1="205" y2="205"/><rect fill="none" height="6" style="stroke:#C82930;stroke-width:1.0;" width="6" x="814.5" y="215.6484"/><text fill="#000000" font-family="sans-serif" font-size="14" lengthAdjust="spacing" textLength="58" x="826.5" y="221.9951">any data</text><ellipse cx="817.5" cy="234.9453" fill="none" rx="3" ry="3" style="stroke:#038048;stroke-width:1.0;"/><text fill="#000000" font-family="sans-serif" font-size="14" lengthAdjust="spacing" textLength="266" x="826.5" y="238.292">CompletionHandler completionHandler</text><line style="stroke:#181818;stroke-width:0.5;" x1="807.5" x2="1134.5" y1="245.5938" y2="245.5938"/><ellipse cx="817.5" cy="259.2422" fill="#84BE84" rx="3" ry="3" style="stroke:#038048;stroke-width:1.0;"/><text fill="#000000" font-family="sans-serif" font-size="14" lengthAdjust="spacing" textLength="95" x="826.5" y="262.5889">any GetData()</text><ellipse cx="817.5" cy="275.5391" fill="#84BE84" rx="3" ry="3" style="stroke:#038048;stroke-width:1.0;"/><text fill="#000000" font-family="sans-serif" font-size="14" lengthAdjust="spacing" textLength="303" x="826.5" y="278.8857">CompletionHandler GetCompletionHandler()</text></g><!--class Server--><g id="elem_Server"><rect codeLine="27" fill="#F1F1F1" height="64.2969" id="Server" rx="2.5" ry="2.5" style="stroke:#181818;stroke-width:0.5;" width="112" x="683" y="478"/><ellipse cx="714.2" cy="494" fill="#B4A7E5" rx="11" ry="11" style="stroke:#181818;stroke-width:1.0;"/><path d="M710.1219,489.7656 L710.1219,487.6094 L717.5125,487.6094 L717.5125,489.7656 L715.0438,489.7656 L715.0438,497.8438 L717.5125,497.8438 L717.5125,500 L710.1219,500 L710.1219,497.8438 L712.5906,497.8438 L712.5906,489.7656 L710.1219,489.7656 Z " fill="#000000"/><text fill="#000000" font-family="sans-serif" font-size="14" font-style="italic" lengthAdjust="spacing" textLength="44" x="731.8" y="498.8467">Server</text><line style="stroke:#181818;stroke-width:0.5;" x1="684" x2="794" y1="510" y2="510"/><line style="stroke:#181818;stroke-width:0.5;" x1="684" x2="794" y1="518" y2="518"/><ellipse cx="694" cy="531.6484" fill="#84BE84" rx="3" ry="3" style="stroke:#038048;stroke-width:1.0;"/><text fill="#000000" font-family="sans-serif" font-size="14" lengthAdjust="spacing" textLength="86" x="703" y="534.9951">error Serve()</text></g><!--class Pullable--><g id="elem_Pullable"><rect codeLine="30" fill="#F1F1F1" height="64.2969" id="Pullable" rx="2.5" ry="2.5" style="stroke:#181818;stroke-width:0.5;" width="228" x="830" y="478"/><ellipse cx="913.25" cy="494" fill="#B4A7E5" rx="11" ry="11" style="stroke:#181818;stroke-width:1.0;"/><path d="M909.1719,489.7656 L909.1719,487.6094 L916.5625,487.6094 L916.5625,489.7656 L914.0938,489.7656 L914.0938,497.8438 L916.5625,497.8438 L916.5625,500 L909.1719,500 L909.1719,497.8438 L911.6406,497.8438 L911.6406,489.7656 L909.1719,489.7656 Z " fill="#000000"/><text fill="#000000" font-family="sans-serif" font-size="14" font-style="italic" lengthAdjust="spacing" textLength="53" x="933.75" y="498.8467">Pullable</text><line style="stroke:#181818;stroke-width:0.5;" x1="831" x2="1057" y1="510" y2="510"/><line style="stroke:#181818;stroke-width:0.5;" x1="831" x2="1057" y1="518" y2="518"/><ellipse cx="841" cy="531.6484" fill="#84BE84" rx="3" ry="3" style="stroke:#038048;stroke-width:1.0;"/><text fill="#000000" font-family="sans-serif" font-size="14" lengthAdjust="spacing" textLength="202" x="850" y="534.9951">error AddPushable(Pushable)</text></g><!--class Pushable--><g id="elem_Pushable"><rect codeLine="33" fill="#F1F1F1" height="64.2969" id="Pushable" rx="2.5" ry="2.5" style="stroke:#181818;stroke-width:0.5;" width="193" x="874.5" y="354"/><ellipse cx="934.75" cy="370" fill="#B4A7E5" rx="11" ry="11" style="stroke:#181818;stroke-width:1.0;"/><path d="M930.6719,365.7656 L930.6719,363.6094 L938.0625,363.6094 L938.0625,365.7656 L935.5938,365.7656 L935.5938,373.8438 L938.0625,373.8438 L938.0625,376 L930.6719,376 L930.6719,373.8438 L933.1406,373.8438 L933.1406,365.7656 L930.6719,365.7656 Z " fill="#000000"/><text fill="#000000" font-family="sans-serif" font-size="14" font-style="italic" lengthAdjust="spacing" textLength="64" x="955.25" y="374.8467">Pushable</text><line style="stroke:#181818;stroke-width:0.5;" x1="875.5" x2="1066.5" y1="386" y2="386"/><line style="stroke:#181818;stroke-width:0.5;" x1="875.5" x2="1066.5" y1="394" y2="394"/><ellipse cx="885.5" cy="407.6484" fill="#84BE84" rx="3" ry="3" style="stroke:#038048;stroke-width:1.0;"/><text fill="#000000" font-family="sans-serif" font-size="14" lengthAdjust="spacing" textLength="167" x="894.5" y="410.9951">error SendTo(*AppData)</text></g><!--class SourceServer--><g id="elem_SourceServer"><rect codeLine="36" fill="#F1F1F1" height="80.5938" id="SourceServer" rx="2.5" ry="2.5" style="stroke:#181818;stroke-width:0.5;" width="228" x="671" y="610"/><ellipse cx="734.25" cy="626" fill="#B4A7E5" rx="11" ry="11" style="stroke:#181818;stroke-width:1.0;"/><path d="M730.1719,621.7656 L730.1719,619.6094 L737.5625,619.6094 L737.5625,621.7656 L735.0938,621.7656 L735.0938,629.8438 L737.5625,629.8438 L737.5625,632 L730.1719,632 L730.1719,629.8438 L732.6406,629.8438 L732.6406,621.7656 L730.1719,621.7656 Z " fill="#000000"/><text fill="#000000" font-family="sans-serif" font-size="14" font-style="italic" lengthAdjust="spacing" textLength="93" x="754.75" y="630.8467">SourceServer</text><line style="stroke:#181818;stroke-width:0.5;" x1="672" x2="898" y1="642" y2="642"/><line style="stroke:#181818;stroke-width:0.5;" x1="672" x2="898" y1="650" y2="650"/><ellipse cx="682" cy="663.6484" fill="#84BE84" rx="3" ry="3" style="stroke:#038048;stroke-width:1.0;"/><text fill="#000000" font-family="sans-serif" font-size="14" lengthAdjust="spacing" textLength="202" x="691" y="666.9951">error AddPushable(Pushable)</text><ellipse cx="682" cy="679.9453" fill="#84BE84" rx="3" ry="3" style="stroke:#038048;stroke-width:1.0;"/><text fill="#000000" font-family="sans-serif" font-size="14" lengthAdjust="spacing" textLength="86" x="691" y="683.292">error Serve()</text></g><!--class SinkServer--><g id="elem_SinkServer"><rect codeLine="40" fill="#F1F1F1" height="80.5938" id="SinkServer" rx="2.5" ry="2.5" style="stroke:#181818;stroke-width:0.5;" width="193" x="442.5" y="610"/><ellipse cx="498.25" cy="626" fill="#B4A7E5" rx="11" ry="11" style="stroke:#181818;stroke-width:1.0;"/><path d="M494.1719,621.7656 L494.1719,619.6094 L501.5625,619.6094 L501.5625,621.7656 L499.0938,621.7656 L499.0938,629.8438 L501.5625,629.8438 L501.5625,632 L494.1719,632 L494.1719,629.8438 L496.6406,629.8438 L496.6406,621.7656 L494.1719,621.7656 Z " fill="#000000"/><text fill="#000000" font-family="sans-serif" font-size="14" font-style="italic" lengthAdjust="spacing" textLength="73" x="518.75" y="630.8467">SinkServer</text><line style="stroke:#181818;stroke-width:0.5;" x1="443.5" x2="634.5" y1="642" y2="642"/><line style="stroke:#181818;stroke-width:0.5;" x1="443.5" x2="634.5" y1="650" y2="650"/><ellipse cx="453.5" cy="663.6484" fill="#84BE84" rx="3" ry="3" style="stroke:#038048;stroke-width:1.0;"/><text fill="#000000" font-family="sans-serif" font-size="14" lengthAdjust="spacing" textLength="167" x="462.5" y="666.9951">error SendTo(*AppData)</text><ellipse cx="453.5" cy="679.9453" fill="#84BE84" rx="3" ry="3" style="stroke:#038048;stroke-width:1.0;"/><text fill="#000000" font-family="sans-serif" font-size="14" lengthAdjust="spacing" textLength="86" x="462.5" y="683.292">error Serve()</text></g><!--class PipeServer--><g id="elem_PipeServer"><rect codeLine="44" fill="#F1F1F1" height="96.8906" id="PipeServer" rx="2.5" ry="2.5" style="stroke:#181818;stroke-width:0.5;" width="228" x="934" y="602"/><ellipse cx="1006.75" cy="618" fill="#B4A7E5" rx="11" ry="11" style="stroke:#181818;stroke-width:1.0;"/><path d="M1002.6719,613.7656 L1002.6719,611.6094 L1010.0625,611.6094 L1010.0625,613.7656 L1007.5938,613.7656 L1007.5938,621.8438 L1010.0625,621.8438 L1010.0625,624 L1002.6719,624 L1002.6719,621.8438 L1005.1406,621.8438 L1005.1406,613.7656 L1002.6719,613.7656 Z " fill="#000000"/><text fill="#000000" font-family="sans-serif" font-size="14" font-style="italic" lengthAdjust="spacing" textLength="74" x="1027.25" y="622.8467">PipeServer</text><line style="stroke:#181818;stroke-width:0.5;" x1="935" x2="1161" y1="634" y2="634"/><line style="stroke:#181818;stroke-width:0.5;" x1="935" x2="1161" y1="642" y2="642"/><ellipse cx="945" cy="655.6484" fill="#84BE84" rx="3" ry="3" style="stroke:#038048;stroke-width:1.0;"/><text fill="#000000" font-family="sans-serif" font-size="14" lengthAdjust="spacing" textLength="202" x="954" y="658.9951">error AddPushable(Pushable)</text><ellipse cx="945" cy="671.9453" fill="#84BE84" rx="3" ry="3" style="stroke:#038048;stroke-width:1.0;"/><text fill="#000000" font-family="sans-serif" font-size="14" lengthAdjust="spacing" textLength="167" x="954" y="675.292">error SendTo(*AppData)</text><ellipse cx="945" cy="688.2422" fill="#84BE84" rx="3" ry="3" style="stroke:#038048;stroke-width:1.0;"/><text fill="#000000" font-family="sans-serif" font-size="14" lengthAdjust="spacing" textLength="86" x="954" y="691.5889">error Serve()</text></g><!--class Producer--><g id="elem_Producer"><rect codeLine="49" fill="#F1F1F1" height="96.8906" id="Producer" rx="2.5" ry="2.5" style="stroke:#181818;stroke-width:0.5;" width="221" x="298.5" y="775"/><ellipse cx="373.25" cy="791" fill="#B4A7E5" rx="11" ry="11" style="stroke:#181818;stroke-width:1.0;"/><path d="M369.1719,786.7656 L369.1719,784.6094 L376.5625,784.6094 L376.5625,786.7656 L374.0938,786.7656 L374.0938,794.8438 L376.5625,794.8438 L376.5625,797 L369.1719,797 L369.1719,794.8438 L371.6406,794.8438 L371.6406,786.7656 L369.1719,786.7656 Z " fill="#000000"/><text fill="#000000" font-family="sans-serif" font-size="14" font-style="italic" lengthAdjust="spacing" textLength="63" x="393.75" y="795.8467">Producer</text><line style="stroke:#181818;stroke-width:0.5;" x1="299.5" x2="518.5" y1="807" y2="807"/><line style="stroke:#181818;stroke-width:0.5;" x1="299.5" x2="518.5" y1="815" y2="815"/><ellipse cx="309.5" cy="828.6484" fill="#84BE84" rx="3" ry="3" style="stroke:#038048;stroke-width:1.0;"/><text fill="#000000" font-family="sans-serif" font-size="14" lengthAdjust="spacing" textLength="195" x="318.5" y="831.9951">error Setup(ProducerConfig)</text><ellipse cx="309.5" cy="844.9453" fill="#84BE84" rx="3" ry="3" style="stroke:#038048;stroke-width:1.0;"/><text fill="#000000" font-family="sans-serif" font-size="14" lengthAdjust="spacing" textLength="167" x="318.5" y="848.292">error SendTo(*AppData)</text><ellipse cx="309.5" cy="861.2422" fill="#84BE84" rx="3" ry="3" style="stroke:#038048;stroke-width:1.0;"/><text fill="#000000" font-family="sans-serif" font-size="14" lengthAdjust="spacing" textLength="86" x="318.5" y="864.5889">error Serve()</text></g><!--class HTTPProducer--><g id="elem_HTTPProducer"><rect codeLine="54" fill="#F1F1F1" height="129.4844" id="HTTPProducer" rx="2.5" ry="2.5" style="stroke:#181818;stroke-width:0.5;" width="221" x="21.5" y="948"/><ellipse cx="77.75" cy="964" fill="#F1F1F1" rx="11" ry="11" style="stroke:#181818;stroke-width:1.0;"/><path d="M77.2344,964.5625 Q75.375,963.8594 74.7188,963.0938 Q74.0781,962.3125 74.0781,961 Q74.0781,959.3125 75.1563,958.3438 Q76.2344,957.375 78.1094,957.375 Q78.9688,957.375 79.8125,957.5781 Q80.6719,957.7656 81.5156,958.1563 L81.5156,960.5469 Q80.7344,959.9844 79.9063,959.7031 Q79.0938,959.4063 78.2969,959.4063 Q77.4219,959.4063 76.9375,959.7656 Q76.4688,960.125 76.4688,960.7813 Q76.4688,961.2969 76.8125,961.6406 Q77.1563,961.9688 78.25,962.375 L79.3125,962.7813 Q80.7969,963.3281 81.5,964.2344 Q82.2188,965.1406 82.2188,966.5156 Q82.2188,968.3906 81.1094,969.3125 Q80,970.2344 77.75,970.2344 Q76.8281,970.2344 75.9063,970.0156 Q74.9844,969.7969 74.125,969.375 L74.125,966.8438 Q75.0938,967.5313 76.0156,967.875 Q76.9375,968.2188 77.8281,968.2188 Q78.7344,968.2188 79.2344,967.8125 Q79.7344,967.3906 79.7344,966.6563 Q79.7344,966.0938 79.3906,965.6875 Q79.0625,965.2656 78.4375,965.0156 L77.2344,964.5625 Z " fill="#000000"/><text fill="#000000" font-family="sans-serif" font-size="14" lengthAdjust="spacing" textLength="100" x="98.25" y="968.8467">HTTPProducer</text><line style="stroke:#181818;stroke-width:0.5;" x1="22.5" x2="241.5" y1="980" y2="980"/><rect fill="none" height="6" style="stroke:#C82930;stroke-width:1.0;" width="6" x="29.5" y="990.6484"/><text fill="#000000" font-family="sans-serif" font-size="14" lengthAdjust="spacing" textLength="190" x="41.5" y="996.9951">HTTPProducerConfig config</text><rect fill="none" height="6" style="stroke:#C82930;stroke-width:1.0;" width="6" x="29.5" y="1006.9453"/><text fill="#000000" font-family="sans-serif" font-size="14" lengthAdjust="spacing" textLength="142" x="41.5" y="1013.292">http.Client httpClient</text><line style="stroke:#181818;stroke-width:0.5;" x1="22.5" x2="241.5" y1="1020.5938" y2="1020.5938"/><ellipse cx="32.5" cy="1034.2422" fill="#84BE84" rx="3" ry="3" style="stroke:#038048;stroke-width:1.0;"/><text fill="#000000" font-family="sans-serif" font-size="14" lengthAdjust="spacing" textLength="195" x="41.5" y="1037.5889">error Setup(ProducerConfig)</text><ellipse cx="32.5" cy="1050.5391" fill="#84BE84" rx="3" ry="3" style="stroke:#038048;stroke-width:1.0;"/><text fill="#000000" font-family="sans-serif" font-size="14" lengthAdjust="spacing" textLength="167" x="41.5" y="1053.8857">error SendTo(*AppData)</text><ellipse cx="32.5" cy="1066.8359" fill="#84BE84" rx="3" ry="3" style="stroke:#038048;stroke-width:1.0;"/><text fill="#000000" font-family="sans-serif" font-size="14" lengthAdjust="spacing" textLength="86" x="41.5" y="1070.1826">error Serve()</text></g><!--class Consumer--><g id="elem_Consumer"><rect codeLine="61" fill="#F1F1F1" height="96.8906" id="Consumer" rx="2.5" ry="2.5" style="stroke:#181818;stroke-width:0.5;" width="230" x="670" y="775"/><ellipse cx="744.75" cy="791" fill="#B4A7E5" rx="11" ry="11" style="stroke:#181818;stroke-width:1.0;"/><path d="M740.6719,786.7656 L740.6719,784.6094 L748.0625,784.6094 L748.0625,786.7656 L745.5938,786.7656 L745.5938,794.8438 L748.0625,794.8438 L748.0625,797 L740.6719,797 L740.6719,794.8438 L743.1406,794.8438 L743.1406,786.7656 L740.6719,786.7656 Z " fill="#000000"/><text fill="#000000" font-family="sans-serif" font-size="14" font-style="italic" lengthAdjust="spacing" textLength="72" x="765.25" y="795.8467">Consumer</text><line style="stroke:#181818;stroke-width:0.5;" x1="671" x2="899" y1="807" y2="807"/><line style="stroke:#181818;stroke-width:0.5;" x1="671" x2="899" y1="815" y2="815"/><ellipse cx="681" cy="828.6484" fill="#84BE84" rx="3" ry="3" style="stroke:#038048;stroke-width:1.0;"/><text fill="#000000" font-family="sans-serif" font-size="14" lengthAdjust="spacing" textLength="202" x="690" y="831.9951">error AddPushable(Pushable)</text><ellipse cx="681" cy="844.9453" fill="#84BE84" rx="3" ry="3" style="stroke:#038048;stroke-width:1.0;"/><text fill="#000000" font-family="sans-serif" font-size="14" lengthAdjust="spacing" textLength="204" x="690" y="848.292">error Setup(ConsumerConfig)</text><ellipse cx="681" cy="861.2422" fill="#84BE84" rx="3" ry="3" style="stroke:#038048;stroke-width:1.0;"/><text fill="#000000" font-family="sans-serif" font-size="14" lengthAdjust="spacing" textLength="86" x="690" y="864.5889">error Serve()</text></g><!--class MapSinkServer--><g id="elem_MapSinkServer"><rect codeLine="66" fill="#F1F1F1" height="96.8906" id="MapSinkServer" rx="2.5" ry="2.5" style="stroke:#181818;stroke-width:0.5;" width="283" x="124.5" y="602"/><ellipse cx="210.75" cy="618" fill="#F1F1F1" rx="11" ry="11" style="stroke:#181818;stroke-width:1.0;"/><path d="M210.2344,618.5625 Q208.375,617.8594 207.7188,617.0938 Q207.0781,616.3125 207.0781,615 Q207.0781,613.3125 208.1563,612.3438 Q209.2344,611.375 211.1094,611.375 Q211.9688,611.375 212.8125,611.5781 Q213.6719,611.7656 214.5156,612.1563 L214.5156,614.5469 Q213.7344,613.9844 212.9063,613.7031 Q212.0938,613.4063 211.2969,613.4063 Q210.4219,613.4063 209.9375,613.7656 Q209.4688,614.125 209.4688,614.7813 Q209.4688,615.2969 209.8125,615.6406 Q210.1563,615.9688 211.25,616.375 L212.3125,616.7813 Q213.7969,617.3281 214.5,618.2344 Q215.2188,619.1406 215.2188,620.5156 Q215.2188,622.3906 214.1094,623.3125 Q213,624.2344 210.75,624.2344 Q209.8281,624.2344 208.9063,624.0156 Q207.9844,623.7969 207.125,623.375 L207.125,620.8438 Q208.0938,621.5313 209.0156,621.875 Q209.9375,622.2188 210.8281,622.2188 Q211.7344,622.2188 212.2344,621.8125 Q212.7344,621.3906 212.7344,620.6563 Q212.7344,620.0938 212.3906,619.6875 Q212.0625,619.2656 211.4375,619.0156 L210.2344,618.5625 Z " fill="#000000"/><text fill="#000000" font-family="sans-serif" font-size="14" lengthAdjust="spacing" textLength="102" x="231.25" y="622.8467">MapSinkServer</text><line style="stroke:#181818;stroke-width:0.5;" x1="125.5" x2="406.5" y1="634" y2="634"/><rect fill="none" height="6" style="stroke:#C82930;stroke-width:1.0;" width="6" x="132.5" y="644.6484"/><text fill="#000000" font-family="sans-serif" font-size="14" lengthAdjust="spacing" textLength="257" x="144.5" y="650.9951">map[string]SinkServer sinkServerMap</text><line style="stroke:#181818;stroke-width:0.5;" x1="125.5" x2="406.5" y1="658.2969" y2="658.2969"/><ellipse cx="135.5" cy="671.9453" fill="#84BE84" rx="3" ry="3" style="stroke:#038048;stroke-width:1.0;"/><text fill="#000000" font-family="sans-serif" font-size="14" lengthAdjust="spacing" textLength="167" x="144.5" y="675.292">error SendTo(*AppData)</text><ellipse cx="135.5" cy="688.2422" fill="#84BE84" rx="3" ry="3" style="stroke:#038048;stroke-width:1.0;"/><text fill="#000000" font-family="sans-serif" font-size="14" lengthAdjust="spacing" textLength="86" x="144.5" y="691.5889">error Serve()</text></g><!--class ConsumerServer--><g id="elem_ConsumerServer"><rect codeLine="71" fill="#F1F1F1" height="96.8906" id="ConsumerServer" rx="2.5" ry="2.5" style="stroke:#181818;stroke-width:0.5;" width="288" x="874" y="964"/><ellipse cx="955.75" cy="980" fill="#F1F1F1" rx="11" ry="11" style="stroke:#181818;stroke-width:1.0;"/><path d="M955.2344,980.5625 Q953.375,979.8594 952.7188,979.0938 Q952.0781,978.3125 952.0781,977 Q952.0781,975.3125 953.1563,974.3438 Q954.2344,973.375 956.1094,973.375 Q956.9688,973.375 957.8125,973.5781 Q958.6719,973.7656 959.5156,974.1563 L959.5156,976.5469 Q958.7344,975.9844 957.9063,975.7031 Q957.0938,975.4063 956.2969,975.4063 Q955.4219,975.4063 954.9375,975.7656 Q954.4688,976.125 954.4688,976.7813 Q954.4688,977.2969 954.8125,977.6406 Q955.1563,977.9688 956.25,978.375 L957.3125,978.7813 Q958.7969,979.3281 959.5,980.2344 Q960.2188,981.1406 960.2188,982.5156 Q960.2188,984.3906 959.1094,985.3125 Q958,986.2344 955.75,986.2344 Q954.8281,986.2344 953.9063,986.0156 Q952.9844,985.7969 952.125,985.375 L952.125,982.8438 Q953.0938,983.5313 954.0156,983.875 Q954.9375,984.2188 955.8281,984.2188 Q956.7344,984.2188 957.2344,983.8125 Q957.7344,983.3906 957.7344,982.6563 Q957.7344,982.0938 957.3906,981.6875 Q957.0625,981.2656 956.4375,981.0156 L955.2344,980.5625 Z " fill="#000000"/><text fill="#000000" font-family="sans-serif" font-size="14" lengthAdjust="spacing" textLength="116" x="976.25" y="984.8467">ConsumerServer</text><line style="stroke:#181818;stroke-width:0.5;" x1="875" x2="1161" y1="996" y2="996"/><rect fill="none" height="6" style="stroke:#C82930;stroke-width:1.0;" width="6" x="882" y="1006.6484"/><text fill="#000000" font-family="sans-serif" font-size="14" lengthAdjust="spacing" textLength="262" x="894" y="1012.9951">map[string]Consumer consumersMap</text><line style="stroke:#181818;stroke-width:0.5;" x1="875" x2="1161" y1="1020.2969" y2="1020.2969"/><ellipse cx="885" cy="1033.9453" fill="#84BE84" rx="3" ry="3" style="stroke:#038048;stroke-width:1.0;"/><text fill="#000000" font-family="sans-serif" font-size="14" lengthAdjust="spacing" textLength="202" x="894" y="1037.292">error AddPushable(Pushable)</text><ellipse cx="885" cy="1050.2422" fill="#84BE84" rx="3" ry="3" style="stroke:#038048;stroke-width:1.0;"/><text fill="#000000" font-family="sans-serif" font-size="14" lengthAdjust="spacing" textLength="86" x="894" y="1053.5889">error Serve()</text></g><!--class ProducerConfig--><g id="elem_ProducerConfig"><rect codeLine="76" fill="#F1F1F1" height="64.2969" id="ProducerConfig" rx="2.5" ry="2.5" style="stroke:#181818;stroke-width:0.5;" width="263" x="277.5" y="980.5"/><ellipse cx="351.25" cy="996.5" fill="#B4A7E5" rx="11" ry="11" style="stroke:#181818;stroke-width:1.0;"/><path d="M347.1719,992.2656 L347.1719,990.1094 L354.5625,990.1094 L354.5625,992.2656 L352.0938,992.2656 L352.0938,1000.3438 L354.5625,1000.3438 L354.5625,1002.5 L347.1719,1002.5 L347.1719,1000.3438 L349.6406,1000.3438 L349.6406,992.2656 L347.1719,992.2656 Z " fill="#000000"/><text fill="#000000" font-family="sans-serif" font-size="14" font-style="italic" lengthAdjust="spacing" textLength="107" x="371.75" y="1001.3467">ProducerConfig</text><line style="stroke:#181818;stroke-width:0.5;" x1="278.5" x2="539.5" y1="1012.5" y2="1012.5"/><line style="stroke:#181818;stroke-width:0.5;" x1="278.5" x2="539.5" y1="1020.5" y2="1020.5"/><ellipse cx="288.5" cy="1034.1484" fill="#84BE84" rx="3" ry="3" style="stroke:#038048;stroke-width:1.0;"/><text fill="#000000" font-family="sans-serif" font-size="14" lengthAdjust="spacing" textLength="237" x="297.5" y="1037.4951">error IngestConfig(map[string]any)</text></g><!--class HTTPProducerConfig--><g id="elem_HTTPProducerConfig"><rect codeLine="79" fill="#F1F1F1" height="113.1875" id="HTTPProducerConfig" rx="2.5" ry="2.5" style="stroke:#181818;stroke-width:0.5;" width="263" x="149.5" y="1137"/><ellipse cx="204.75" cy="1153" fill="#F1F1F1" rx="11" ry="11" style="stroke:#181818;stroke-width:1.0;"/><path d="M204.2344,1153.5625 Q202.375,1152.8594 201.7188,1152.0938 Q201.0781,1151.3125 201.0781,1150 Q201.0781,1148.3125 202.1563,1147.3438 Q203.2344,1146.375 205.1094,1146.375 Q205.9688,1146.375 206.8125,1146.5781 Q207.6719,1146.7656 208.5156,1147.1563 L208.5156,1149.5469 Q207.7344,1148.9844 206.9063,1148.7031 Q206.0938,1148.4063 205.2969,1148.4063 Q204.4219,1148.4063 203.9375,1148.7656 Q203.4688,1149.125 203.4688,1149.7813 Q203.4688,1150.2969 203.8125,1150.6406 Q204.1563,1150.9688 205.25,1151.375 L206.3125,1151.7813 Q207.7969,1152.3281 208.5,1153.2344 Q209.2188,1154.1406 209.2188,1155.5156 Q209.2188,1157.3906 208.1094,1158.3125 Q207,1159.2344 204.75,1159.2344 Q203.8281,1159.2344 202.9063,1159.0156 Q201.9844,1158.7969 201.125,1158.375 L201.125,1155.8438 Q202.0938,1156.5313 203.0156,1156.875 Q203.9375,1157.2188 204.8281,1157.2188 Q205.7344,1157.2188 206.2344,1156.8125 Q206.7344,1156.3906 206.7344,1155.6563 Q206.7344,1155.0938 206.3906,1154.6875 Q206.0625,1154.2656 205.4375,1154.0156 L204.2344,1153.5625 Z " fill="#000000"/><text fill="#000000" font-family="sans-serif" font-size="14" lengthAdjust="spacing" textLength="144" x="225.25" y="1157.8467">HTTPProducerConfig</text><line style="stroke:#181818;stroke-width:0.5;" x1="150.5" x2="411.5" y1="1169" y2="1169"/><ellipse cx="160.5" cy="1182.6484" fill="none" rx="3" ry="3" style="stroke:#038048;stroke-width:1.0;"/><text fill="#000000" font-family="sans-serif" font-size="14" lengthAdjust="spacing" textLength="70" x="169.5" y="1185.9951">string URL</text><ellipse cx="160.5" cy="1198.9453" fill="none" rx="3" ry="3" style="stroke:#038048;stroke-width:1.0;"/><text fill="#000000" font-family="sans-serif" font-size="14" lengthAdjust="spacing" textLength="102" x="169.5" y="1202.292">int NumRetries</text><ellipse cx="160.5" cy="1215.2422" fill="none" rx="3" ry="3" style="stroke:#038048;stroke-width:1.0;"/><text fill="#000000" font-family="sans-serif" font-size="14" lengthAdjust="spacing" textLength="78" x="169.5" y="1218.5889">int Timeout</text><line style="stroke:#181818;stroke-width:0.5;" x1="150.5" x2="411.5" y1="1225.8906" y2="1225.8906"/><ellipse cx="160.5" cy="1239.5391" fill="#84BE84" rx="3" ry="3" style="stroke:#038048;stroke-width:1.0;"/><text fill="#000000" font-family="sans-serif" font-size="14" lengthAdjust="spacing" textLength="237" x="169.5" y="1242.8857">error IngestConfig(map[string]any)</text></g><!--class ConsumerConfig--><g id="elem_ConsumerConfig"><rect codeLine="86" fill="#F1F1F1" height="64.2969" id="ConsumerConfig" rx="2.5" ry="2.5" style="stroke:#181818;stroke-width:0.5;" width="263" x="575.5" y="980.5"/><ellipse cx="644.75" cy="996.5" fill="#B4A7E5" rx="11" ry="11" style="stroke:#181818;stroke-width:1.0;"/><path d="M640.6719,992.2656 L640.6719,990.1094 L648.0625,990.1094 L648.0625,992.2656 L645.5938,992.2656 L645.5938,1000.3438 L648.0625,1000.3438 L648.0625,1002.5 L640.6719,1002.5 L640.6719,1000.3438 L643.1406,1000.3438 L643.1406,992.2656 L640.6719,992.2656 Z " fill="#000000"/><text fill="#000000" font-family="sans-serif" font-size="14" font-style="italic" lengthAdjust="spacing" textLength="116" x="665.25" y="1001.3467">ConsumerConfig</text><line style="stroke:#181818;stroke-width:0.5;" x1="576.5" x2="837.5" y1="1012.5" y2="1012.5"/><line style="stroke:#181818;stroke-width:0.5;" x1="576.5" x2="837.5" y1="1020.5" y2="1020.5"/><ellipse cx="586.5" cy="1034.1484" fill="#84BE84" rx="3" ry="3" style="stroke:#038048;stroke-width:1.0;"/><text fill="#000000" font-family="sans-serif" font-size="14" lengthAdjust="spacing" textLength="237" x="595.5" y="1037.4951">error IngestConfig(map[string]any)</text></g><!--reverse link CompletionHandler to WaitGroupCompletionHandler--><g id="link_CompletionHandler_WaitGroupCompletionHandler"><path codeLine="90" d="M766.91,117.8132 C749.31,134.9132 739.75,144.21 718.63,164.73 " fill="none" id="CompletionHandler-backto-WaitGroupCompletionHandler" style="stroke:#181818;stroke-width:1.0;"/><polygon fill="none" points="779.82,105.27,762.7289,113.5099,771.0911,122.1165,779.82,105.27" style="stroke:#181818;stroke-width:1.0;"/></g><!--reverse link CompletionHandler to AppData--><g id="link_CompletionHandler_AppData"><path codeLine="91" d="M852.7873,113.6315 C872.7473,133.0215 890.36,150.14 913.78,172.9 " fill="none" id="CompletionHandler-backto-AppData" style="stroke:#181818;stroke-width:1.0;"/><polygon fill="#181818" points="844.18,105.27,845.6965,112.3198,852.7873,113.6315,851.2708,106.5816,844.18,105.27" style="stroke:#181818;stroke-width:1.0;"/></g><!--reverse link AppData to Pushable--><g id="link_AppData_Pushable"><path codeLine="92" d="M971,298.28 C971,320.92 971,334.24 971,353.57 " fill="none" id="AppData-backto-Pushable" style="stroke:#181818;stroke-width:1.0;"/><polygon fill="#181818" points="971,286.28,967,292.28,971,298.28,975,292.28,971,286.28" style="stroke:#181818;stroke-width:1.0;"/></g><!--reverse link Server to SourceServer--><g id="link_Server_SourceServer"><path codeLine="93" d="M754.9942,559.1623 C761.6442,579.1823 764.68,588.31 771.82,609.82 " fill="none" id="Server-backto-SourceServer" style="stroke:#181818;stroke-width:1.0;"/><polygon fill="none" points="749.32,542.08,749.3001,561.0537,760.6883,557.2709,749.32,542.08" style="stroke:#181818;stroke-width:1.0;"/></g><!--reverse link Pushable to Pullable--><g id="link_Pushable_Pullable"><path codeLine="94" d="M961.5229,429.8156 C957.4529,448.1756 954.93,459.61 950.87,477.96 " fill="none" id="Pushable-backto-Pullable" style="stroke:#181818;stroke-width:1.0;"/><polygon fill="#181818" points="964.12,418.1,958.9163,423.0921,961.5229,429.8156,966.7267,424.8235,964.12,418.1" style="stroke:#181818;stroke-width:1.0;"/></g><!--reverse link Pullable to SourceServer--><g id="link_Pullable_SourceServer"><path codeLine="95" d="M894.748,553.9038 C871.768,573.9238 855.25,588.31 830.55,609.82 " fill="none" id="Pullable-backto-SourceServer" style="stroke:#181818;stroke-width:1.0;"/><polygon fill="none" points="908.32,542.08,890.8068,549.3798,898.6893,558.4278,908.32,542.08" style="stroke:#181818;stroke-width:1.0;"/></g><!--reverse link Server to SinkServer--><g id="link_Server_SinkServer"><path codeLine="96" d="M679.3218,552.3276 C650.4118,572.3476 627.37,588.31 596.29,609.82 " fill="none" id="Server-backto-SinkServer" style="stroke:#181818;stroke-width:1.0;"/><polygon fill="none" points="694.12,542.08,675.9059,547.3949,682.7377,557.2604,694.12,542.08" style="stroke:#181818;stroke-width:1.0;"/></g><!--reverse link Pushable to SinkServer--><g id="link_Pushable_SinkServer"><path codeLine="97" d="M856.6921,402.9271 C792.9821,414.9471 727.86,434.61 666,478 C617.32,512.15 579.76,570.89 558.51,609.96 " fill="none" id="Pushable-backto-SinkServer" style="stroke:#181818;stroke-width:1.0;"/><polygon fill="none" points="874.38,399.59,855.5797,397.0312,857.8044,408.8231,874.38,399.59" style="stroke:#181818;stroke-width:1.0;"/></g><!--reverse link Pushable to PipeServer--><g id="link_Pushable_PipeServer"><path codeLine="98" d="M1037.6314,428.8146 C1058.1014,444.0446 1064.88,453.64 1076,478 C1093.92,517.24 1083.08,566.16 1070.02,601.69 " fill="none" id="Pushable-backto-PipeServer" style="stroke:#181818;stroke-width:1.0;"/><polygon fill="none" points="1023.19,418.07,1034.0498,433.6284,1041.2129,424.0008,1023.19,418.07" style="stroke:#181818;stroke-width:1.0;"/></g><!--reverse link Pullable to PipeServer--><g id="link_Pullable_PipeServer"><path codeLine="99" d="M978.1439,556.4771 C991.3739,574.1071 997.41,582.13 1012.28,601.93 " fill="none" id="Pullable-backto-PipeServer" style="stroke:#181818;stroke-width:1.0;"/><polygon fill="none" points="967.34,542.08,973.3449,560.0784,982.9429,552.8758,967.34,542.08" style="stroke:#181818;stroke-width:1.0;"/></g><!--reverse link Server to PipeServer--><g id="link_Server_PipeServer"><path codeLine="100" d="M811.745,543.6035 C852.565,561.9035 892.57,579.83 941.75,601.88 " fill="none" id="Server-backto-PipeServer" style="stroke:#181818;stroke-width:1.0;"/><polygon fill="none" points="795.32,536.24,809.2905,549.0785,814.1995,538.1285,795.32,536.24" style="stroke:#181818;stroke-width:1.0;"/></g><!--reverse link SinkServer to Producer--><g id="link_SinkServer_Producer"><path codeLine="102" d="M497.9547,705.488 C478.9747,730.448 465.27,748.48 445.23,774.84 " fill="none" id="SinkServer-backto-Producer" style="stroke:#181818;stroke-width:1.0;"/><polygon fill="none" points="508.85,691.16,493.1787,701.8563,502.7307,709.1198,508.85,691.16" style="stroke:#181818;stroke-width:1.0;"/></g><!--link MapSinkServer to SinkServer--><g id="link_MapSinkServer_SinkServer"><path codeLine="103" d="M407.57,686.82 C419.2,686.59 418.984,687.4238 430.624,685.6038 " fill="none" id="MapSinkServer-to-SinkServer" style="stroke:#181818;stroke-width:1.0;"/><polygon fill="#181818" points="442.48,683.75,435.9341,680.7249,430.624,685.6038,437.1699,688.6289,442.48,683.75" style="stroke:#181818;stroke-width:1.0;"/></g><!--link MapSinkServer to SinkServer--><g id="link_MapSinkServer_SinkServer"><path codeLine="104" d="M407.57,614.18 C419.2,614.41 413.0561,612.6494 424.6961,614.4694 " fill="none" id="MapSinkServer-to-SinkServer-1" style="stroke:#181818;stroke-width:1.0;"/><polygon fill="none" points="442.48,617.25,425.623,608.5414,423.7692,620.3973,442.48,617.25" style="stroke:#181818;stroke-width:1.0;"/></g><!--reverse link SourceServer to ConsumerServer--><g id="link_SourceServer_ConsumerServer"><path codeLine="105" d="M903.6574,700.9628 C914.5274,708.0828 909.6,706.47 918,716 C981.05,787.49 1004.67,900.35 1013.28,963.91 " fill="none" id="SourceServer-backto-ConsumerServer" style="stroke:#181818;stroke-width:1.0;"/><polygon fill="none" points="888.6,691.1,900.3698,705.9819,906.945,695.9437,888.6,691.1" style="stroke:#181818;stroke-width:1.0;"/></g><!--reverse link Consumer to ConsumerServer--><g id="link_Consumer_ConsumerServer"><path codeLine="106" d="M853.7574,879.6826 C888.8074,907.8226 923.67,935.8 958.71,963.92 " fill="none" id="Consumer-backto-ConsumerServer" style="stroke:#181818;stroke-width:1.0;"/><polygon fill="#181818" points="844.4,872.17,846.5745,879.0454,853.7574,879.6826,851.5829,872.8072,844.4,872.17" style="stroke:#181818;stroke-width:1.0;"/></g><!--reverse link SourceServer to Consumer--><g id="link_SourceServer_Consumer"><path codeLine="107" d="M785,709.16 C785,734.12 785,748.48 785,774.84 " fill="none" id="SourceServer-backto-Consumer" style="stroke:#181818;stroke-width:1.0;"/><polygon fill="none" points="785,691.16,779,709.16,791,709.16,785,691.16" style="stroke:#181818;stroke-width:1.0;"/></g><!--reverse link PipeServer to JQTransformer--><g id="link_PipeServer_JQTransformer"><path codeLine="109" d="M1163.7073,707.6125 C1174.0073,713.0825 1168.34,710.31 1178,716 C1200.12,729.04 1223.25,744.18 1244.67,758.87 " fill="none" id="PipeServer-backto-JQTransformer" style="stroke:#181818;stroke-width:1.0;"/><polygon fill="none" points="1147.81,699.17,1160.8931,712.9116,1166.5215,702.3134,1147.81,699.17" style="stroke:#181818;stroke-width:1.0;"/></g><!--reverse link Pushable to JQTransformer--><g id="link_Pushable_JQTransformer"><path codeLine="110" d="M1027.1891,425.1708 C1049.9991,441.5908 1067.4,455.88 1089,478 C1174.65,565.71 1252.25,686.13 1295.66,758.9 " fill="none" id="Pushable-backto-JQTransformer" style="stroke:#181818;stroke-width:1.0;"/><polygon fill="#181818" points="1017.45,418.16,1019.9826,424.9117,1027.1891,425.1708,1024.6564,418.419,1017.45,418.16" style="stroke:#181818;stroke-width:1.0;"/></g><!--link Consumer to ConsumerConfig--><g id="link_Consumer_ConsumerConfig"><path codeLine="113" d="M765.12,872.17 C750.94,906.15 736.9212,939.7755 724.6112,969.2755 " fill="none" id="Consumer-to-ConsumerConfig" style="stroke:#181818;stroke-width:1.0;"/><polygon fill="#181818" points="719.99,980.35,725.9921,976.3532,724.6112,969.2755,718.6091,973.2723,719.99,980.35" style="stroke:#181818;stroke-width:1.0;"/></g><!--link Producer to ProducerConfig--><g id="link_Producer_ProducerConfig"><path codeLine="114" d="M409,872.17 C409,906.15 409,938.85 409,968.35 " fill="none" id="Producer-to-ProducerConfig" style="stroke:#181818;stroke-width:1.0;"/><polygon fill="#181818" points="409,980.35,413,974.35,409,968.35,405,974.35,409,980.35" style="stroke:#181818;stroke-width:1.0;"/></g><!--reverse link ProducerConfig to HTTPProducerConfig--><g id="link_ProducerConfig_HTTPProducerConfig"><path codeLine="115" d="M376.2301,1059.3217 C358.1101,1084.6617 342.56,1106.41 320.87,1136.75 " fill="none" id="ProducerConfig-backto-HTTPProducerConfig" style="stroke:#181818;stroke-width:1.0;"/><polygon fill="none" points="386.7,1044.68,371.3495,1055.8318,381.1106,1062.8117,386.7,1044.68" style="stroke:#181818;stroke-width:1.0;"/></g><!--reverse link Producer to HTTPProducer--><g id="link_Producer_HTTPProducer"><path codeLine="116" d="M323.4627,882.2434 C289.4027,905.2434 262.98,923.07 226.28,947.86 " fill="none" id="Producer-backto-HTTPProducer" style="stroke:#181818;stroke-width:1.0;"/><polygon fill="none" points="338.38,872.17,320.1049,877.2709,326.8204,887.2158,338.38,872.17" style="stroke:#181818;stroke-width:1.0;"/></g><!--link HTTPProducer to HTTPProducerConfig--><g id="link_HTTPProducer_HTTPProducerConfig"><path codeLine="117" d="M184.95,1077.11 C201.18,1096.61 211.225,1108.6654 226.975,1127.5954 " fill="none" id="HTTPProducer-to-HTTPProducerConfig" style="stroke:#181818;stroke-width:1.0;"/><polygon fill="#181818" points="234.65,1136.82,233.8874,1129.6493,226.975,1127.5954,227.7376,1134.766,234.65,1136.82" style="stroke:#181818;stroke-width:1.0;"/></g><!--SRC=[lLRDSjCm4BxhANHqK-mduD89J7y6IcZ2S60ugBRYkjYIAaj09_JTaMFPrcyIaWu-9FBkjxlVQbSh4zJWbg4SmvlbfzltlmL7kQ0SRW1KJokup0My-RpYYBHhoXiygBedBUdZKpQd1OQFJmjEIuwQIRcGxGEwhp5aUZ6gpZ7dAiP5KGoOP5YSkQ0b9iMA9hCBnjuXWG9w_XCdlVW5l00o9hJL37Gh8Z1VT-8vRLYDHKN95I95RIMaVMe8JX1vVWEtiY60iIjVKIKkEPLibyUqVIPvDaBXht9IAU-mK3bDaZxyzdSItbDQmweTI1r7Lc-VoSmBV-udahkI2ToPNsBHUKtETlbG84-Oc1IdsbWbYnRPjbd8kjwssURm_l9zw5RT7DH-7cqgUOvZv0ziytY6ouhyYE_ClnmF9-kAdKhwXE2S5Z8FfoGaImRzd99rLRv2Q7qGhbQhHI1sQihxcAhvkxy9yY04o-PrXOc0tRfV_YVwvW0ZhMnEA5h7Rt0IvHVPle-81TinRH3xfZ0LARyRW7PSAiDNg-50VYUBSPjolMW354u-cqxBU2Mv9YLkHQzD37PgUkvfJjzZRmg_t7sOP8e9l9ND7LOwtDhoLTLWAiKHb28TTqAIBw0lLkRV3s__fAcU_5dyJetRpoPptKd0VZKHGv47Y6uXauCvpO5ZPhlgBnxWlEzr5eevdXCluX6mQR3lvER30imC4F1Os4ZTk07OBAtnMen8QuY4lHw0DozTauSz7O0ZDIiOHkvrF6w4SO5kSTOdT6PzDGSRQHSUkCJruPkbalcCd1A4i6vv7AoPg3-6NACe74HTs6nC_Ly0]--></g></svg>