<?xml version="1.0" encoding="us-ascii" standalone="no"?><svg xmlns="http://www.w3.org/2000/svg" xmlns:xlink="http://www.w3.org/1999/xlink" contentStyleType="text/css" height="555px" preserveAspectRatio="none" style="width:801px;height:555px;background:#FFFFFF;" version="1.1" viewBox="0 0 801 555" width="801px" zoomAndPan="magnify"><defs/><g><!--cluster Server--><g id="cluster_Server"><path d="M8.5,6 L62.5,6 A3.75,3.75 0 0 1 65,8.5 L72,28.2969 L791.5,28.2969 A2.5,2.5 0 0 1 794,30.7969 L794,151.5 A2.5,2.5 0 0 1 791.5,154 L8.5,154 A2.5,2.5 0 0 1 6,151.5 L6,8.5 A2.5,2.5 0 0 1 8.5,6 " fill="none" style="stroke:#000000;stroke-width:1.5;"/><line style="stroke:#000000;stroke-width:1.5;" x1="6" x2="72" y1="28.2969" y2="28.2969"/><text fill="#000000" font-family="sans-serif" font-size="14" font-weight="bold" lengthAdjust="spacing" textLength="53" x="10" y="20.9951">Server</text></g><!--cluster Consumer--><g id="cluster_Consumer"><path d="M404.5,178 L486.5,178 A3.75,3.75 0 0 1 489,180.5 L496,200.2969 L695.5,200.2969 A2.5,2.5 0 0 1 698,202.7969 L698,545.5 A2.5,2.5 0 0 1 695.5,548 L404.5,548 A2.5,2.5 0 0 1 402,545.5 L402,180.5 A2.5,2.5 0 0 1 404.5,178 " fill="none" style="stroke:#000000;stroke-width:1.5;"/><line style="stroke:#000000;stroke-width:1.5;" x1="402" x2="496" y1="200.2969" y2="200.2969"/><text fill="#000000" font-family="sans-serif" font-size="14" font-weight="bold" lengthAdjust="spacing" textLength="81" x="406" y="192.9951">Consumer</text></g><!--class Pushable--><g id="elem_Pushable"><rect codeLine="2" fill="#F1F1F1" height="64.2969" id="Pushable" rx="2.5" ry="2.5" style="stroke:#181818;stroke-width:0.5;" width="193" x="22.5" y="57.5"/><ellipse cx="82.75" cy="73.5" fill="#B4A7E5" rx="11" ry="11" style="stroke:#181818;stroke-width:1.0;"/><path d="M78.6719,69.2656 L78.6719,67.1094 L86.0625,67.1094 L86.0625,69.2656 L83.5938,69.2656 L83.5938,77.3438 L86.0625,77.3438 L86.0625,79.5 L78.6719,79.5 L78.6719,77.3438 L81.1406,77.3438 L81.1406,69.2656 L78.6719,69.2656 Z " fill="#000000"/><text fill="#000000" font-family="sans-serif" font-size="14" font-style="italic" lengthAdjust="spacing" textLength="64" x="103.25" y="78.3467">Pushable</text><line style="stroke:#181818;stroke-width:0.5;" x1="23.5" x2="214.5" y1="89.5" y2="89.5"/><line style="stroke:#181818;stroke-width:0.5;" x1="23.5" x2="214.5" y1="97.5" y2="97.5"/><ellipse cx="33.5" cy="111.1484" fill="#84BE84" rx="3" ry="3" style="stroke:#038048;stroke-width:1.0;"/><text fill="#000000" font-family="sans-serif" font-size="14" lengthAdjust="spacing" textLength="167" x="42.5" y="114.4951">error SendTo(*AppData)</text></g><!--class SourceServer--><g id="elem_SourceServer"><rect codeLine="5" fill="#F1F1F1" height="96.8906" id="SourceServer" rx="2.5" ry="2.5" style="stroke:#181818;stroke-width:0.5;" width="228" x="251" y="41"/><ellipse cx="314.25" cy="57" fill="#B4A7E5" rx="11" ry="11" style="stroke:#181818;stroke-width:1.0;"/><path d="M310.1719,52.7656 L310.1719,50.6094 L317.5625,50.6094 L317.5625,52.7656 L315.0938,52.7656 L315.0938,60.8438 L317.5625,60.8438 L317.5625,63 L310.1719,63 L310.1719,60.8438 L312.6406,60.8438 L312.6406,52.7656 L310.1719,52.7656 Z " fill="#000000"/><text fill="#000000" font-family="sans-serif" font-size="14" font-style="italic" lengthAdjust="spacing" textLength="93" x="334.75" y="61.8467">SourceServer</text><line style="stroke:#181818;stroke-width:0.5;" x1="252" x2="478" y1="73" y2="73"/><line style="stroke:#181818;stroke-width:0.5;" x1="252" x2="478" y1="81" y2="81"/><ellipse cx="262" cy="94.6484" fill="#84BE84" rx="3" ry="3" style="stroke:#038048;stroke-width:1.0;"/><text fill="#000000" font-family="sans-serif" font-size="14" lengthAdjust="spacing" textLength="202" x="271" y="97.9951">error AddPushable(Pushable)</text><ellipse cx="262" cy="110.9453" fill="#84BE84" rx="3" ry="3" style="stroke:#038048;stroke-width:1.0;"/><text fill="#000000" font-family="sans-serif" font-size="14" lengthAdjust="spacing" textLength="86" x="271" y="114.292">error Serve()</text><ellipse cx="262" cy="127.2422" fill="#84BE84" rx="3" ry="3" style="stroke:#038048;stroke-width:1.0;"/><text fill="#000000" font-family="sans-serif" font-size="14" lengthAdjust="spacing" textLength="132" x="271" y="130.5889">error Setup(Config)</text></g><!--class Config--><g id="elem_Config"><rect codeLine="10" fill="#F1F1F1" height="64.2969" id="Config" rx="2.5" ry="2.5" style="stroke:#181818;stroke-width:0.5;" width="263" x="514.5" y="57.5"/><ellipse cx="619.75" cy="73.5" fill="#B4A7E5" rx="11" ry="11" style="stroke:#181818;stroke-width:1.0;"/><path d="M615.6719,69.2656 L615.6719,67.1094 L623.0625,67.1094 L623.0625,69.2656 L620.5938,69.2656 L620.5938,77.3438 L623.0625,77.3438 L623.0625,79.5 L615.6719,79.5 L615.6719,77.3438 L618.1406,77.3438 L618.1406,69.2656 L615.6719,69.2656 Z " fill="#000000"/><text fill="#000000" font-family="sans-serif" font-size="14" font-style="italic" lengthAdjust="spacing" textLength="44" x="640.25" y="78.3467">Config</text><line style="stroke:#181818;stroke-width:0.5;" x1="515.5" x2="776.5" y1="89.5" y2="89.5"/><line style="stroke:#181818;stroke-width:0.5;" x1="515.5" x2="776.5" y1="97.5" y2="97.5"/><ellipse cx="525.5" cy="111.1484" fill="#84BE84" rx="3" ry="3" style="stroke:#038048;stroke-width:1.0;"/><text fill="#000000" font-family="sans-serif" font-size="14" lengthAdjust="spacing" textLength="237" x="534.5" y="114.4951">error IngestConfig(map[string]any)</text></g><!--class RabbitMQConsumer--><g id="elem_RabbitMQConsumer"><rect codeLine="15" fill="#F1F1F1" height="145.7813" id="RabbitMQConsumer" rx="2.5" ry="2.5" style="stroke:#181818;stroke-width:0.5;" width="255" x="418.5" y="386"/><ellipse cx="472.25" cy="402" fill="#F1F1F1" rx="11" ry="11" style="stroke:#181818;stroke-width:1.0;"/><path d="M471.7344,402.5625 Q469.875,401.8594 469.2188,401.0938 Q468.5781,400.3125 468.5781,399 Q468.5781,397.3125 469.6563,396.3438 Q470.7344,395.375 472.6094,395.375 Q473.4688,395.375 474.3125,395.5781 Q475.1719,395.7656 476.0156,396.1563 L476.0156,398.5469 Q475.2344,397.9844 474.4063,397.7031 Q473.5938,397.4063 472.7969,397.4063 Q471.9219,397.4063 471.4375,397.7656 Q470.9688,398.125 470.9688,398.7813 Q470.9688,399.2969 471.3125,399.6406 Q471.6563,399.9688 472.75,400.375 L473.8125,400.7813 Q475.2969,401.3281 476,402.2344 Q476.7188,403.1406 476.7188,404.5156 Q476.7188,406.3906 475.6094,407.3125 Q474.5,408.2344 472.25,408.2344 Q471.3281,408.2344 470.4063,408.0156 Q469.4844,407.7969 468.625,407.375 L468.625,404.8438 Q469.5938,405.5313 470.5156,405.875 Q471.4375,406.2188 472.3281,406.2188 Q473.2344,406.2188 473.7344,405.8125 Q474.2344,405.3906 474.2344,404.6563 Q474.2344,404.0938 473.8906,403.6875 Q473.5625,403.2656 472.9375,403.0156 L471.7344,402.5625 Z " fill="#000000"/><text fill="#000000" font-family="sans-serif" font-size="14" lengthAdjust="spacing" textLength="139" x="492.75" y="406.8467">RabbitMQConsumer</text><line style="stroke:#181818;stroke-width:0.5;" x1="419.5" x2="672.5" y1="418" y2="418"/><rect fill="none" height="6" style="stroke:#C82930;stroke-width:1.0;" width="6" x="426.5" y="428.6484"/><text fill="#000000" font-family="sans-serif" font-size="14" lengthAdjust="spacing" textLength="229" x="438.5" y="434.9951">RabbitMQConsumerConfig config</text><rect fill="none" height="6" style="stroke:#C82930;stroke-width:1.0;" width="6" x="426.5" y="444.9453"/><text fill="#000000" font-family="sans-serif" font-size="14" lengthAdjust="spacing" textLength="132" x="438.5" y="451.292">Pushable pushable</text><rect fill="none" height="6" style="stroke:#C82930;stroke-width:1.0;" width="6" x="426.5" y="461.2422"/><text fill="#000000" font-family="sans-serif" font-size="14" lengthAdjust="spacing" textLength="119" x="438.5" y="467.5889">RabbitMQDial dial</text><line style="stroke:#181818;stroke-width:0.5;" x1="419.5" x2="672.5" y1="474.8906" y2="474.8906"/><ellipse cx="429.5" cy="488.5391" fill="#84BE84" rx="3" ry="3" style="stroke:#038048;stroke-width:1.0;"/><text fill="#000000" font-family="sans-serif" font-size="14" lengthAdjust="spacing" textLength="202" x="438.5" y="491.8857">error AddPushable(Pushable)</text><ellipse cx="429.5" cy="504.8359" fill="#84BE84" rx="3" ry="3" style="stroke:#038048;stroke-width:1.0;"/><text fill="#000000" font-family="sans-serif" font-size="14" lengthAdjust="spacing" textLength="86" x="438.5" y="508.1826">error Serve()</text><ellipse cx="429.5" cy="521.1328" fill="#84BE84" rx="3" ry="3" style="stroke:#038048;stroke-width:1.0;"/><text fill="#000000" font-family="sans-serif" font-size="14" lengthAdjust="spacing" textLength="132" x="438.5" y="524.4795">error Setup(Config)</text></g><!--class RabbitMQConsumerConfig--><g id="elem_RabbitMQConsumerConfig"><rect codeLine="23" fill="#F1F1F1" height="113.1875" id="RabbitMQConsumerConfig" rx="2.5" ry="2.5" style="stroke:#181818;stroke-width:0.5;" width="263" x="418.5" y="213"/><ellipse cx="455.1" cy="229" fill="#F1F1F1" rx="11" ry="11" style="stroke:#181818;stroke-width:1.0;"/><path d="M454.5844,229.5625 Q452.725,228.8594 452.0688,228.0938 Q451.4281,227.3125 451.4281,226 Q451.4281,224.3125 452.5063,223.3438 Q453.5844,222.375 455.4594,222.375 Q456.3188,222.375 457.1625,222.5781 Q458.0219,222.7656 458.8656,223.1563 L458.8656,225.5469 Q458.0844,224.9844 457.2563,224.7031 Q456.4438,224.4063 455.6469,224.4063 Q454.7719,224.4063 454.2875,224.7656 Q453.8188,225.125 453.8188,225.7813 Q453.8188,226.2969 454.1625,226.6406 Q454.5063,226.9688 455.6,227.375 L456.6625,227.7813 Q458.1469,228.3281 458.85,229.2344 Q459.5688,230.1406 459.5688,231.5156 Q459.5688,233.3906 458.4594,234.3125 Q457.35,235.2344 455.1,235.2344 Q454.1781,235.2344 453.2563,235.0156 Q452.3344,234.7969 451.475,234.375 L451.475,231.8438 Q452.4438,232.5313 453.3656,232.875 Q454.2875,233.2188 455.1781,233.2188 Q456.0844,233.2188 456.5844,232.8125 Q457.0844,232.3906 457.0844,231.6563 Q457.0844,231.0938 456.7406,230.6875 Q456.4125,230.2656 455.7875,230.0156 L454.5844,229.5625 Z " fill="#000000"/><text fill="#000000" font-family="sans-serif" font-size="14" lengthAdjust="spacing" textLength="183" x="473.9" y="233.8467">RabbitMQConsumerConfig</text><line style="stroke:#181818;stroke-width:0.5;" x1="419.5" x2="680.5" y1="245" y2="245"/><ellipse cx="429.5" cy="258.6484" fill="none" rx="3" ry="3" style="stroke:#038048;stroke-width:1.0;"/><text fill="#000000" font-family="sans-serif" font-size="14" lengthAdjust="spacing" textLength="123" x="438.5" y="261.9951">string Connection</text><ellipse cx="429.5" cy="274.9453" fill="none" rx="3" ry="3" style="stroke:#038048;stroke-width:1.0;"/><text fill="#000000" font-family="sans-serif" font-size="14" lengthAdjust="spacing" textLength="90" x="438.5" y="278.292">string Queue</text><ellipse cx="429.5" cy="291.2422" fill="none" rx="3" ry="3" style="stroke:#038048;stroke-width:1.0;"/><text fill="#000000" font-family="sans-serif" font-size="14" lengthAdjust="spacing" textLength="141" x="438.5" y="294.5889">string ConsumerTag</text><line style="stroke:#181818;stroke-width:0.5;" x1="419.5" x2="680.5" y1="301.8906" y2="301.8906"/><ellipse cx="429.5" cy="315.5391" fill="#84BE84" rx="3" ry="3" style="stroke:#038048;stroke-width:1.0;"/><text fill="#000000" font-family="sans-serif" font-size="14" lengthAdjust="spacing" textLength="237" x="438.5" y="318.8857">error IngestConfig(map[string]any)</text></g><!--reverse link SourceServer to RabbitMQConsumer--><g id="link_SourceServer_RabbitMQConsumer"><path codeLine="32" d="M363.2298,156.09 C363.3398,205.84 369.25,266.76 401,326 C412.74,347.9 429.57,368.05 447.64,385.66 " fill="none" id="SourceServer-backto-RabbitMQConsumer" style="stroke:#181818;stroke-width:1.0;"/><polygon fill="none" points="363.19,138.09,357.2298,156.1032,369.2298,156.0767,363.19,138.09" style="stroke:#181818;stroke-width:1.0;"/></g><!--reverse link Pushable to RabbitMQConsumer--><g id="link_Pushable_RabbitMQConsumer"><path codeLine="33" d="M155.0805,130.4534 C197.9005,177.2534 275.12,258.6 356,326 C380.69,346.57 408.5,367.17 435.07,385.78 " fill="none" id="Pushable-backto-RabbitMQConsumer" style="stroke:#181818;stroke-width:1.0;"/><polygon fill="#181818" points="146.98,121.6,148.0791,128.7268,155.0805,130.4534,153.9814,123.3265,146.98,121.6" style="stroke:#181818;stroke-width:1.0;"/></g><!--reverse link Config to RabbitMQConsumerConfig--><g id="link_Config_RabbitMQConsumerConfig"><path codeLine="36" d="M620.7342,137.352 C607.1942,162.452 596.32,182.61 580.1,212.7 " fill="none" id="Config-backto-RabbitMQConsumerConfig" style="stroke:#181818;stroke-width:1.0;"/><polygon fill="none" points="629.28,121.51,615.4535,134.5034,626.0148,140.2006,629.28,121.51" style="stroke:#181818;stroke-width:1.0;"/></g><!--reverse link RabbitMQConsumerConfig to RabbitMQConsumer--><g id="link_RabbitMQConsumerConfig_RabbitMQConsumer"><path codeLine="37" d="M548.553,338.2472 C548.153,356.9172 547.96,366.02 547.54,385.77 " fill="none" id="RabbitMQConsumerConfig-backto-RabbitMQConsumer" style="stroke:#181818;stroke-width:1.0;"/><polygon fill="#181818" points="548.81,326.25,544.6824,332.1629,548.553,338.2472,552.6806,332.3343,548.81,326.25" style="stroke:#181818;stroke-width:1.0;"/></g><!--SRC=[fLAzJiCm4Dxp51xJelG9M2gwC21HsgrYk3ZNOAavM_v1gg3lZXCdXiOX8BWXiVpztFcp2Heq2ZYo7UfNrEmjOxu4MTJ7TllHcHSeJzW3RTsWrb9x0LLxcI_NIct0mgB3BoFvJZhDyShxYyMwgWR_V5WiqZvUd4ziMwVoEqb7KK_t3bZQzPvgD3QWUGFgOAmML3y3dGUZIqOn64yqhedZUxBZbZr1MGhxi1sXRHLZh1-4TxzFMenMzOlKOIFWn2h_-LLox9_HVNEqDCSGM9iC8RT2KW9j7JgS4dIEUwZ_S2d-LhBmabPNp-hslIYYzMey_I29QIzdsR55V-fvyq3AVi3dMtu0]--></g></svg>