<?xml version="1.0" encoding="us-ascii" standalone="no"?><svg xmlns="http://www.w3.org/2000/svg" xmlns:xlink="http://www.w3.org/1999/xlink" contentStyleType="text/css" height="1463px" preserveAspectRatio="none" style="width:1366px;height:1463px;background:#FFFFFF;" version="1.1" viewBox="0 0 1366 1463" width="1366px" zoomAndPan="magnify"><defs/><g><!--cluster JSONExtractor--><g id="cluster_JSONExtractor"><path d="M1111.5,710.88 L1213.5,710.88 A3.75,3.75 0 0 1 1216,713.38 L1223,733.3683 L1356.5,733.3683 A2.5,2.5 0 0 1 1359,735.8683 L1359,906.31 A2.5,2.5 0 0 1 1356.5,908.81 L1111.5,908.81 A2.5,2.5 0 0 1 1109,906.31 L1109,713.38 A2.5,2.5 0 0 1 1111.5,710.88 " fill="none" style="stroke:#000000;stroke-width:1.5;"/><line style="stroke:#000000;stroke-width:1.5;" x1="1109" x2="1223" y1="733.3683" y2="733.3683"/><text fill="#000000" font-family="sans-serif" font-size="14" font-weight="bold" lengthAdjust="spacing" textLength="101" x="1113" y="726.4152">JSONExtractor</text></g><!--cluster Server--><g id="cluster_Server"><path d="M8.5,6 L53.5,6 A3.75,3.75 0 0 1 56,8.5 L63,28.4883 L1082.5,28.4883 A2.5,2.5 0 0 1 1085,30.9883 L1085,1453.73 A2.5,2.5 0 0 1 1082.5,1456.23 L8.5,1456.23 A2.5,2.5 0 0 1 6,1453.73 L6,8.5 A2.5,2.5 0 0 1 8.5,6 " fill="none" style="stroke:#000000;stroke-width:1.5;"/><line style="stroke:#000000;stroke-width:1.5;" x1="6" x2="63" y1="28.4883" y2="28.4883"/><text fill="#000000" font-family="sans-serif" font-size="14" font-weight="bold" lengthAdjust="spacing" textLength="44" x="10" y="21.5352">Server</text></g><!--class JQTransformer--><g id="elem_JQTransformer"><rect codeLine="2" fill="#F1F1F1" height="146.9297" id="JQTransformer" rx="2.5" ry="2.5" style="stroke:#181818;stroke-width:0.5;" width="217" x="1125.5" y="745.88"/><ellipse cx="1179.25" cy="761.88" fill="#F1F1F1" rx="11" ry="11" style="stroke:#181818;stroke-width:1.0;"/><path d="M1178.9834,762.943 Q1177.1323,762.2374 1176.4766,761.4613 Q1175.8208,760.6852 1175.8208,759.3737 Q1175.8208,757.6886 1176.8999,756.7257 Q1177.979,755.7628 1179.8633,755.7628 Q1180.7183,755.7628 1181.5732,755.9579 Q1182.4282,756.1529 1183.2666,756.5348 L1183.2666,758.9254 Q1182.478,758.3693 1181.6646,758.0787 Q1180.8511,757.7882 1180.0542,757.7882 Q1179.166,757.7882 1178.6929,758.1451 Q1178.2197,758.5021 1178.2197,759.1661 Q1178.2197,759.6808 1178.5642,760.017 Q1178.9087,760.3531 1180.0044,760.7599 L1181.0586,761.1583 Q1182.5527,761.7062 1183.2583,762.611 Q1183.9639,763.5157 1183.9639,764.8937 Q1183.9639,766.7696 1182.8557,767.6952 Q1181.7476,768.6207 1179.5063,768.6207 Q1178.585,768.6207 1177.6594,768.4008 Q1176.7339,768.1808 1175.8706,767.7491 L1175.8706,765.2174 Q1176.8501,765.9147 1177.7673,766.255 Q1178.6846,766.5953 1179.5811,766.5953 Q1180.4858,766.5953 1180.9839,766.1844 Q1181.4819,765.7736 1181.4819,765.0348 Q1181.4819,764.4786 1181.1499,764.0594 Q1180.8179,763.6403 1180.187,763.3995 Z " fill="#000000"/><text fill="#000000" font-family="sans-serif" font-size="14" lengthAdjust="spacing" textLength="101" x="1199.75" y="767.171">JQTransformer</text><line style="stroke:#181818;stroke-width:0.5;" x1="1126.5" x2="1341.5" y1="777.88" y2="777.88"/><rect fill="none" height="6" style="stroke:#C82930;stroke-width:1.0;" width="6" x="1133.5" y="788.6241"/><text fill="#000000" font-family="sans-serif" font-size="14" lengthAdjust="spacing" textLength="98" x="1145.5" y="795.4152">string jqQuery</text><rect fill="none" height="6" style="stroke:#C82930;stroke-width:1.0;" width="6" x="1133.5" y="805.1124"/><text fill="#000000" font-family="sans-serif" font-size="14" lengthAdjust="spacing" textLength="112" x="1145.5" y="811.9034">Code jqProgram</text><rect fill="none" height="6" style="stroke:#C82930;stroke-width:1.0;" width="6" x="1133.5" y="821.6007"/><text fill="#000000" font-family="sans-serif" font-size="14" lengthAdjust="spacing" textLength="115" x="1145.5" y="828.3917">Receiver receiver</text><line style="stroke:#181818;stroke-width:0.5;" x1="1126.5" x2="1341.5" y1="835.3448" y2="835.3448"/><ellipse cx="1136.5" cy="849.089" fill="#84BE84" rx="3" ry="3" style="stroke:#038048;stroke-width:1.0;"/><text fill="#000000" font-family="sans-serif" font-size="14" lengthAdjust="spacing" textLength="191" x="1145.5" y="852.88">error AddReceiver(Receiver)</text><ellipse cx="1136.5" cy="865.5773" fill="#84BE84" rx="3" ry="3" style="stroke:#038048;stroke-width:1.0;"/><text fill="#000000" font-family="sans-serif" font-size="14" lengthAdjust="spacing" textLength="151" x="1145.5" y="869.3683">Receiver GetReceiver()</text><ellipse cx="1136.5" cy="882.0655" fill="#84BE84" rx="3" ry="3" style="stroke:#038048;stroke-width:1.0;"/><text fill="#000000" font-family="sans-serif" font-size="14" lengthAdjust="spacing" textLength="86" x="1145.5" y="885.8566">error Serve()</text></g><!--class CompletionHandler--><g id="elem_CompletionHandler"><rect codeLine="12" fill="#F1F1F1" height="64.4883" id="CompletionHandler" rx="2.5" ry="2.5" style="stroke:#181818;stroke-width:0.5;" width="208" x="818" y="41"/><ellipse cx="851.9" cy="57" fill="#B4A7E5" rx="11" ry="11" style="stroke:#181818;stroke-width:1.0;"/><path d="M848.3277,53.2651 L848.3277,51.1069 L855.7071,51.1069 L855.7071,53.2651 L853.2418,53.2651 L853.2418,61.3418 L855.7071,61.3418 L855.7071,63.5 L848.3277,63.5 L848.3277,61.3418 L850.7931,61.3418 L850.7931,53.2651 Z " fill="#000000"/><text fill="#000000" font-family="sans-serif" font-size="14" font-style="italic" lengthAdjust="spacing" textLength="134" x="870.1" y="62.291">CompletionHandler</text><line style="stroke:#181818;stroke-width:0.5;" x1="819" x2="1025" y1="73" y2="73"/><line style="stroke:#181818;stroke-width:0.5;" x1="819" x2="1025" y1="81" y2="81"/><ellipse cx="829" cy="94.7441" fill="#84BE84" rx="3" ry="3" style="stroke:#038048;stroke-width:1.0;"/><text fill="#000000" font-family="sans-serif" font-size="14" lengthAdjust="spacing" textLength="182" x="838" y="98.5352">error Complete(any, error)</text></g><!--class KafkaConsumerCompletionHandler--><g id="elem_KafkaConsumerCompletionHandler"><rect codeLine="15" fill="#F1F1F1" height="64.4883" id="KafkaConsumerCompletionHandler" rx="2.5" ry="2.5" style="stroke:#181818;stroke-width:0.5;" width="275" x="508.5" y="41"/><ellipse cx="523.5" cy="57" fill="#F1F1F1" rx="11" ry="11" style="stroke:#181818;stroke-width:1.0;"/><path d="M523.2334,58.063 Q521.3823,57.3574 520.7266,56.5813 Q520.0708,55.8052 520.0708,54.4937 Q520.0708,52.8086 521.1499,51.8457 Q522.229,50.8828 524.1133,50.8828 Q524.9683,50.8828 525.8232,51.0779 Q526.6782,51.2729 527.5166,51.6548 L527.5166,54.0454 Q526.728,53.4893 525.9146,53.1987 Q525.1011,52.9082 524.3042,52.9082 Q523.416,52.9082 522.9429,53.2651 Q522.4697,53.6221 522.4697,54.2861 Q522.4697,54.8008 522.8142,55.137 Q523.1587,55.4731 524.2544,55.8799 L525.3086,56.2783 Q526.8027,56.8262 527.5083,57.731 Q528.2139,58.6357 528.2139,60.0137 Q528.2139,61.8896 527.1057,62.8152 Q525.9976,63.7407 523.7563,63.7407 Q522.835,63.7407 521.9094,63.5208 Q520.9839,63.3008 520.1206,62.8691 L520.1206,60.3374 Q521.1001,61.0347 522.0173,61.375 Q522.9346,61.7153 523.8311,61.7153 Q524.7358,61.7153 525.2339,61.3044 Q525.7319,60.8936 525.7319,60.1548 Q525.7319,59.5986 525.3999,59.1794 Q525.0679,58.7603 524.437,58.5195 Z " fill="#000000"/><text fill="#000000" font-family="sans-serif" font-size="14" lengthAdjust="spacing" textLength="243" x="537.5" y="62.291">KafkaConsumerCompletionHandler</text><line style="stroke:#181818;stroke-width:0.5;" x1="509.5" x2="782.5" y1="73" y2="73"/><line style="stroke:#181818;stroke-width:0.5;" x1="509.5" x2="782.5" y1="81" y2="81"/><ellipse cx="519.5" cy="94.7441" fill="#84BE84" rx="3" ry="3" style="stroke:#038048;stroke-width:1.0;"/><text fill="#000000" font-family="sans-serif" font-size="14" lengthAdjust="spacing" textLength="182" x="528.5" y="98.5352">error Complete(any, error)</text></g><!--class AppData--><g id="elem_AppData"><rect codeLine="18" fill="#F1F1F1" height="97.4648" id="AppData" rx="2.5" ry="2.5" style="stroke:#181818;stroke-width:0.5;" width="295" x="774.5" y="165.49"/><ellipse cx="888.25" cy="181.49" fill="#F1F1F1" rx="11" ry="11" style="stroke:#181818;stroke-width:1.0;"/><path d="M887.9834,182.553 Q886.1323,181.8474 885.4766,181.0713 Q884.8208,180.2952 884.8208,178.9837 Q884.8208,177.2986 885.8999,176.3357 Q886.979,175.3728 888.8633,175.3728 Q889.7183,175.3728 890.5732,175.5679 Q891.4282,175.7629 892.2666,176.1448 L892.2666,178.5354 Q891.478,177.9793 890.6646,177.6887 Q889.8511,177.3982 889.0542,177.3982 Q888.166,177.3982 887.6929,177.7551 Q887.2197,178.1121 887.2197,178.7761 Q887.2197,179.2908 887.5642,179.627 Q887.9087,179.9631 889.0044,180.3699 L890.0586,180.7683 Q891.5527,181.3162 892.2583,182.221 Q892.9639,183.1257 892.9639,184.5037 Q892.9639,186.3796 891.8557,187.3052 Q890.7476,188.2307 888.5063,188.2307 Q887.585,188.2307 886.6594,188.0108 Q885.7339,187.7908 884.8706,187.3591 L884.8706,184.8274 Q885.8501,185.5247 886.7673,185.865 Q887.6846,186.2053 888.5811,186.2053 Q889.4858,186.2053 889.9839,185.7944 Q890.4819,185.3836 890.4819,184.6448 Q890.4819,184.0886 890.1499,183.6694 Q889.8179,183.2503 889.187,183.0095 Z " fill="#000000"/><text fill="#000000" font-family="sans-serif" font-size="14" lengthAdjust="spacing" textLength="59" x="908.75" y="186.781">AppData</text><line style="stroke:#181818;stroke-width:0.5;" x1="775.5" x2="1068.5" y1="197.49" y2="197.49"/><rect fill="none" height="6" style="stroke:#C82930;stroke-width:1.0;" width="6" x="782.5" y="208.2341"/><text fill="#000000" font-family="sans-serif" font-size="14" lengthAdjust="spacing" textLength="58" x="794.5" y="215.0252">any data</text><ellipse cx="785.5" cy="227.7224" fill="none" rx="3" ry="3" style="stroke:#038048;stroke-width:1.0;"/><text fill="#000000" font-family="sans-serif" font-size="14" lengthAdjust="spacing" textLength="269" x="794.5" y="231.5134">CompletionHandler completionHandler</text><line style="stroke:#181818;stroke-width:0.5;" x1="775.5" x2="1068.5" y1="238.4666" y2="238.4666"/><ellipse cx="785.5" cy="252.2107" fill="#84BE84" rx="3" ry="3" style="stroke:#038048;stroke-width:1.0;"/><text fill="#000000" font-family="sans-serif" font-size="14" lengthAdjust="spacing" textLength="90" x="794.5" y="256.0017">any SendTo()</text></g><!--class Receiver--><g id="elem_Receiver"><rect codeLine="23" fill="#F1F1F1" height="64.4883" id="Receiver" rx="2.5" ry="2.5" style="stroke:#181818;stroke-width:0.5;" width="185" x="836.5" y="331.2"/><ellipse cx="896.25" cy="347.2" fill="#B4A7E5" rx="11" ry="11" style="stroke:#181818;stroke-width:1.0;"/><path d="M892.6777,343.4651 L892.6777,341.3069 L900.0571,341.3069 L900.0571,343.4651 L897.5918,343.4651 L897.5918,351.5418 L900.0571,351.5418 L900.0571,353.7 L892.6777,353.7 L892.6777,351.5418 L895.1431,351.5418 L895.1431,343.4651 Z " fill="#000000"/><text fill="#000000" font-family="sans-serif" font-size="14" font-style="italic" lengthAdjust="spacing" textLength="57" x="916.75" y="352.491">Receiver</text><line style="stroke:#181818;stroke-width:0.5;" x1="837.5" x2="1020.5" y1="363.2" y2="363.2"/><line style="stroke:#181818;stroke-width:0.5;" x1="837.5" x2="1020.5" y1="371.2" y2="371.2"/><ellipse cx="847.5" cy="384.9441" fill="#84BE84" rx="3" ry="3" style="stroke:#038048;stroke-width:1.0;"/><text fill="#000000" font-family="sans-serif" font-size="14" lengthAdjust="spacing" textLength="159" x="856.5" y="388.7352">error Receive(AppData)</text></g><!--class ChanReceiver--><g id="elem_ChanReceiver"><rect codeLine="26" fill="#F1F1F1" height="80.9766" id="ChanReceiver" rx="2.5" ry="2.5" style="stroke:#181818;stroke-width:0.5;" width="192" x="610" y="322.95"/><ellipse cx="655.25" cy="338.95" fill="#F1F1F1" rx="11" ry="11" style="stroke:#181818;stroke-width:1.0;"/><path d="M654.9834,340.013 Q653.1323,339.3074 652.4766,338.5313 Q651.8208,337.7552 651.8208,336.4437 Q651.8208,334.7586 652.8999,333.7957 Q653.979,332.8328 655.8633,332.8328 Q656.7183,332.8328 657.5732,333.0279 Q658.4282,333.2229 659.2666,333.6048 L659.2666,335.9954 Q658.478,335.4393 657.6646,335.1487 Q656.8511,334.8582 656.0542,334.8582 Q655.166,334.8582 654.6929,335.2151 Q654.2197,335.5721 654.2197,336.2361 Q654.2197,336.7508 654.5642,337.087 Q654.9087,337.4231 656.0044,337.8299 L657.0586,338.2283 Q658.5527,338.7762 659.2583,339.681 Q659.9639,340.5857 659.9639,341.9637 Q659.9639,343.8396 658.8557,344.7652 Q657.7476,345.6907 655.5063,345.6907 Q654.585,345.6907 653.6594,345.4708 Q652.7339,345.2508 651.8706,344.8191 L651.8706,342.2874 Q652.8501,342.9847 653.7673,343.325 Q654.6846,343.6653 655.5811,343.6653 Q656.4858,343.6653 656.9839,343.2544 Q657.4819,342.8436 657.4819,342.1048 Q657.4819,341.5486 657.1499,341.1294 Q656.8179,340.7103 656.187,340.4695 Z " fill="#000000"/><text fill="#000000" font-family="sans-serif" font-size="14" lengthAdjust="spacing" textLength="93" x="675.75" y="344.241">ChanReceiver</text><line style="stroke:#181818;stroke-width:0.5;" x1="611" x2="801" y1="354.95" y2="354.95"/><rect fill="none" height="6" style="stroke:#C82930;stroke-width:1.0;" width="6" x="618" y="365.6941"/><text fill="#000000" font-family="sans-serif" font-size="14" lengthAdjust="spacing" textLength="166" x="630" y="372.4852">chan AppData dataChan</text><line style="stroke:#181818;stroke-width:0.5;" x1="611" x2="801" y1="379.4383" y2="379.4383"/><ellipse cx="621" cy="393.1824" fill="#84BE84" rx="3" ry="3" style="stroke:#038048;stroke-width:1.0;"/><text fill="#000000" font-family="sans-serif" font-size="14" lengthAdjust="spacing" textLength="159" x="630" y="396.9734">error Receive(AppData)</text></g><!--class Server--><g id="elem_Server"><rect codeLine="30" fill="#F1F1F1" height="64.4883" id="Server" rx="2.5" ry="2.5" style="stroke:#181818;stroke-width:0.5;" width="112" x="669" y="463.93"/><ellipse cx="700.65" cy="479.93" fill="#B4A7E5" rx="11" ry="11" style="stroke:#181818;stroke-width:1.0;"/><path d="M697.0777,476.1951 L697.0777,474.0369 L704.4571,474.0369 L704.4571,476.1951 L701.9918,476.1951 L701.9918,484.2718 L704.4571,484.2718 L704.4571,486.43 L697.0777,486.43 L697.0777,484.2718 L699.5431,484.2718 L699.5431,476.1951 Z " fill="#000000"/><text fill="#000000" font-family="sans-serif" font-size="14" font-style="italic" lengthAdjust="spacing" textLength="43" x="718.35" y="485.221">Server</text><line style="stroke:#181818;stroke-width:0.5;" x1="670" x2="780" y1="495.93" y2="495.93"/><line style="stroke:#181818;stroke-width:0.5;" x1="670" x2="780" y1="503.93" y2="503.93"/><ellipse cx="680" cy="517.6741" fill="#84BE84" rx="3" ry="3" style="stroke:#038048;stroke-width:1.0;"/><text fill="#000000" font-family="sans-serif" font-size="14" lengthAdjust="spacing" textLength="86" x="689" y="521.4652">error Serve()</text></g><!--class Pullable--><g id="elem_Pullable"><rect codeLine="33" fill="#F1F1F1" height="64.4883" id="Pullable" rx="2.5" ry="2.5" style="stroke:#181818;stroke-width:0.5;" width="224" x="410" y="463.93"/><ellipse cx="490.75" cy="479.93" fill="#B4A7E5" rx="11" ry="11" style="stroke:#181818;stroke-width:1.0;"/><path d="M487.1777,476.1951 L487.1777,474.0369 L494.5571,474.0369 L494.5571,476.1951 L492.0918,476.1951 L492.0918,484.2718 L494.5571,484.2718 L494.5571,486.43 L487.1777,486.43 L487.1777,484.2718 L489.6431,484.2718 L489.6431,476.1951 Z " fill="#000000"/><text fill="#000000" font-family="sans-serif" font-size="14" font-style="italic" lengthAdjust="spacing" textLength="54" x="511.25" y="485.221">Pullable</text><line style="stroke:#181818;stroke-width:0.5;" x1="411" x2="633" y1="495.93" y2="495.93"/><line style="stroke:#181818;stroke-width:0.5;" x1="411" x2="633" y1="503.93" y2="503.93"/><ellipse cx="421" cy="517.6741" fill="#84BE84" rx="3" ry="3" style="stroke:#038048;stroke-width:1.0;"/><text fill="#000000" font-family="sans-serif" font-size="14" lengthAdjust="spacing" textLength="198" x="430" y="521.4652">error AddReceiver(*Receiver)</text></g><!--class Pushable--><g id="elem_Pushable"><rect codeLine="36" fill="#F1F1F1" height="64.4883" id="Pushable" rx="2.5" ry="2.5" style="stroke:#181818;stroke-width:0.5;" width="177" x="840.5" y="463.93"/><ellipse cx="893.75" cy="479.93" fill="#B4A7E5" rx="11" ry="11" style="stroke:#181818;stroke-width:1.0;"/><path d="M890.1777,476.1951 L890.1777,474.0369 L897.5571,474.0369 L897.5571,476.1951 L895.0918,476.1951 L895.0918,484.2718 L897.5571,484.2718 L897.5571,486.43 L890.1777,486.43 L890.1777,484.2718 L892.6431,484.2718 L892.6431,476.1951 Z " fill="#000000"/><text fill="#000000" font-family="sans-serif" font-size="14" font-style="italic" lengthAdjust="spacing" textLength="62" x="914.25" y="485.221">Pushable</text><line style="stroke:#181818;stroke-width:0.5;" x1="841.5" x2="1016.5" y1="495.93" y2="495.93"/><line style="stroke:#181818;stroke-width:0.5;" x1="841.5" x2="1016.5" y1="503.93" y2="503.93"/><ellipse cx="851.5" cy="517.6741" fill="#84BE84" rx="3" ry="3" style="stroke:#038048;stroke-width:1.0;"/><text fill="#000000" font-family="sans-serif" font-size="14" lengthAdjust="spacing" textLength="151" x="860.5" y="521.4652">Receiver GetReceiver()</text></g><!--class SourceServer--><g id="elem_SourceServer"><rect codeLine="39" fill="#F1F1F1" height="80.9766" id="SourceServer" rx="2.5" ry="2.5" style="stroke:#181818;stroke-width:0.5;" width="217" x="340.5" y="596.66"/><ellipse cx="399.75" cy="612.66" fill="#B4A7E5" rx="11" ry="11" style="stroke:#181818;stroke-width:1.0;"/><path d="M396.1777,608.9251 L396.1777,606.7669 L403.5571,606.7669 L403.5571,608.9251 L401.0918,608.9251 L401.0918,617.0018 L403.5571,617.0018 L403.5571,619.16 L396.1777,619.16 L396.1777,617.0018 L398.6431,617.0018 L398.6431,608.9251 Z " fill="#000000"/><text fill="#000000" font-family="sans-serif" font-size="14" font-style="italic" lengthAdjust="spacing" textLength="90" x="420.25" y="617.951">SourceServer</text><line style="stroke:#181818;stroke-width:0.5;" x1="341.5" x2="556.5" y1="628.66" y2="628.66"/><line style="stroke:#181818;stroke-width:0.5;" x1="341.5" x2="556.5" y1="636.66" y2="636.66"/><ellipse cx="351.5" cy="650.4041" fill="#84BE84" rx="3" ry="3" style="stroke:#038048;stroke-width:1.0;"/><text fill="#000000" font-family="sans-serif" font-size="14" lengthAdjust="spacing" textLength="191" x="360.5" y="654.1952">error AddReceiver(Receiver)</text><ellipse cx="351.5" cy="666.8924" fill="#84BE84" rx="3" ry="3" style="stroke:#038048;stroke-width:1.0;"/><text fill="#000000" font-family="sans-serif" font-size="14" lengthAdjust="spacing" textLength="86" x="360.5" y="670.6834">error Serve()</text></g><!--class SinkServer--><g id="elem_SinkServer"><rect codeLine="43" fill="#F1F1F1" height="80.9766" id="SinkServer" rx="2.5" ry="2.5" style="stroke:#181818;stroke-width:0.5;" width="177" x="844.5" y="596.66"/><ellipse cx="892.75" cy="612.66" fill="#B4A7E5" rx="11" ry="11" style="stroke:#181818;stroke-width:1.0;"/><path d="M889.1777,608.9251 L889.1777,606.7669 L896.5571,606.7669 L896.5571,608.9251 L894.0918,608.9251 L894.0918,617.0018 L896.5571,617.0018 L896.5571,619.16 L889.1777,619.16 L889.1777,617.0018 L891.6431,617.0018 L891.6431,608.9251 Z " fill="#000000"/><text fill="#000000" font-family="sans-serif" font-size="14" font-style="italic" lengthAdjust="spacing" textLength="72" x="913.25" y="617.951">SinkServer</text><line style="stroke:#181818;stroke-width:0.5;" x1="845.5" x2="1020.5" y1="628.66" y2="628.66"/><line style="stroke:#181818;stroke-width:0.5;" x1="845.5" x2="1020.5" y1="636.66" y2="636.66"/><ellipse cx="855.5" cy="650.4041" fill="#84BE84" rx="3" ry="3" style="stroke:#038048;stroke-width:1.0;"/><text fill="#000000" font-family="sans-serif" font-size="14" lengthAdjust="spacing" textLength="151" x="864.5" y="654.1952">Receiver GetReceiver()</text><ellipse cx="855.5" cy="666.8924" fill="#84BE84" rx="3" ry="3" style="stroke:#038048;stroke-width:1.0;"/><text fill="#000000" font-family="sans-serif" font-size="14" lengthAdjust="spacing" textLength="86" x="864.5" y="670.6834">error Serve()</text></g><!--class PipeServer--><g id="elem_PipeServer"><rect codeLine="47" fill="#F1F1F1" height="97.4648" id="PipeServer" rx="2.5" ry="2.5" style="stroke:#181818;stroke-width:0.5;" width="217" x="592.5" y="588.42"/><ellipse cx="660.75" cy="604.42" fill="#B4A7E5" rx="11" ry="11" style="stroke:#181818;stroke-width:1.0;"/><path d="M657.1777,600.6851 L657.1777,598.5269 L664.5571,598.5269 L664.5571,600.6851 L662.0918,600.6851 L662.0918,608.7618 L664.5571,608.7618 L664.5571,610.92 L657.1777,610.92 L657.1777,608.7618 L659.6431,608.7618 L659.6431,600.6851 Z " fill="#000000"/><text fill="#000000" font-family="sans-serif" font-size="14" font-style="italic" lengthAdjust="spacing" textLength="72" x="681.25" y="609.711">PipeServer</text><line style="stroke:#181818;stroke-width:0.5;" x1="593.5" x2="808.5" y1="620.42" y2="620.42"/><line style="stroke:#181818;stroke-width:0.5;" x1="593.5" x2="808.5" y1="628.42" y2="628.42"/><ellipse cx="603.5" cy="642.1641" fill="#84BE84" rx="3" ry="3" style="stroke:#038048;stroke-width:1.0;"/><text fill="#000000" font-family="sans-serif" font-size="14" lengthAdjust="spacing" textLength="191" x="612.5" y="645.9552">error AddReceiver(Receiver)</text><ellipse cx="603.5" cy="658.6524" fill="#84BE84" rx="3" ry="3" style="stroke:#038048;stroke-width:1.0;"/><text fill="#000000" font-family="sans-serif" font-size="14" lengthAdjust="spacing" textLength="151" x="612.5" y="662.4434">Receiver GetReceiver()</text><ellipse cx="603.5" cy="675.1407" fill="#84BE84" rx="3" ry="3" style="stroke:#038048;stroke-width:1.0;"/><text fill="#000000" font-family="sans-serif" font-size="14" lengthAdjust="spacing" textLength="86" x="612.5" y="678.9317">error Serve()</text></g><!--class ProducerResponse--><g id="elem_ProducerResponse"><rect codeLine="52" fill="#F1F1F1" height="80.9766" id="ProducerResponse" rx="2.5" ry="2.5" style="stroke:#181818;stroke-width:0.5;" width="160" x="636" y="969.3"/><ellipse cx="651" cy="985.3" fill="#F1F1F1" rx="11" ry="11" style="stroke:#181818;stroke-width:1.0;"/><path d="M650.7334,986.363 Q648.8823,985.6574 648.2266,984.8813 Q647.5708,984.1052 647.5708,982.7937 Q647.5708,981.1086 648.6499,980.1457 Q649.729,979.1828 651.6133,979.1828 Q652.4683,979.1828 653.3232,979.3779 Q654.1782,979.5729 655.0166,979.9548 L655.0166,982.3454 Q654.228,981.7893 653.4146,981.4987 Q652.6011,981.2082 651.8042,981.2082 Q650.916,981.2082 650.4429,981.5651 Q649.9697,981.9221 649.9697,982.5861 Q649.9697,983.1008 650.3142,983.437 Q650.6587,983.7731 651.7544,984.1799 L652.8086,984.5783 Q654.3027,985.1262 655.0083,986.031 Q655.7139,986.9357 655.7139,988.3137 Q655.7139,990.1896 654.6057,991.1152 Q653.4976,992.0407 651.2563,992.0407 Q650.335,992.0407 649.4094,991.8208 Q648.4839,991.6008 647.6206,991.1691 L647.6206,988.6374 Q648.6001,989.3347 649.5173,989.675 Q650.4346,990.0153 651.3311,990.0153 Q652.2358,990.0153 652.7339,989.6044 Q653.2319,989.1936 653.2319,988.4548 Q653.2319,987.8986 652.8999,987.4794 Q652.5679,987.0603 651.937,986.8195 Z " fill="#000000"/><text fill="#000000" font-family="sans-serif" font-size="14" lengthAdjust="spacing" textLength="128" x="665" y="990.591">ProducerResponse</text><line style="stroke:#181818;stroke-width:0.5;" x1="637" x2="795" y1="1001.3" y2="1001.3"/><rect fill="none" height="6" style="stroke:#C82930;stroke-width:1.0;" width="6" x="644" y="1012.0441"/><text fill="#000000" font-family="sans-serif" font-size="14" lengthAdjust="spacing" textLength="74" x="656" y="1018.8352">error error</text><line style="stroke:#181818;stroke-width:0.5;" x1="637" x2="795" y1="1025.7883" y2="1025.7883"/><ellipse cx="647" cy="1039.5324" fill="#84BE84" rx="3" ry="3" style="stroke:#038048;stroke-width:1.0;"/><text fill="#000000" font-family="sans-serif" font-size="14" lengthAdjust="spacing" textLength="107" x="656" y="1043.3234">error GetError()</text></g><!--class Producer--><g id="elem_Producer"><rect codeLine="56" fill="#F1F1F1" height="113.9531" id="Producer" rx="2.5" ry="2.5" style="stroke:#181818;stroke-width:0.5;" width="239" x="830.5" y="952.81"/><ellipse cx="914.75" cy="968.81" fill="#B4A7E5" rx="11" ry="11" style="stroke:#181818;stroke-width:1.0;"/><path d="M911.1777,965.0751 L911.1777,962.9169 L918.5571,962.9169 L918.5571,965.0751 L916.0918,965.0751 L916.0918,973.1518 L918.5571,973.1518 L918.5571,975.31 L911.1777,975.31 L911.1777,973.1518 L913.6431,973.1518 L913.6431,965.0751 Z " fill="#000000"/><text fill="#000000" font-family="sans-serif" font-size="14" font-style="italic" lengthAdjust="spacing" textLength="62" x="935.25" y="974.101">Producer</text><line style="stroke:#181818;stroke-width:0.5;" x1="831.5" x2="1068.5" y1="984.81" y2="984.81"/><line style="stroke:#181818;stroke-width:0.5;" x1="831.5" x2="1068.5" y1="992.81" y2="992.81"/><ellipse cx="841.5" cy="1006.5541" fill="#84BE84" rx="3" ry="3" style="stroke:#038048;stroke-width:1.0;"/><text fill="#000000" font-family="sans-serif" font-size="14" lengthAdjust="spacing" textLength="213" x="850.5" y="1010.3452">ProducerInstance GetInstance()</text><ellipse cx="841.5" cy="1023.0424" fill="#84BE84" rx="3" ry="3" style="stroke:#038048;stroke-width:1.0;"/><text fill="#000000" font-family="sans-serif" font-size="14" lengthAdjust="spacing" textLength="196" x="850.5" y="1026.8334">error Setup(ProducerConfig)</text><ellipse cx="841.5" cy="1039.5307" fill="#84BE84" rx="3" ry="3" style="stroke:#038048;stroke-width:1.0;"/><text fill="#000000" font-family="sans-serif" font-size="14" lengthAdjust="spacing" textLength="81" x="850.5" y="1043.3217">error Start()</text><ellipse cx="841.5" cy="1056.019" fill="#84BE84" rx="3" ry="3" style="stroke:#038048;stroke-width:1.0;"/><text fill="#000000" font-family="sans-serif" font-size="14" lengthAdjust="spacing" textLength="200" x="850.5" y="1059.81">ProducerResponse Send(any)</text></g><!--class Consumer--><g id="elem_Consumer"><rect codeLine="62" fill="#F1F1F1" height="97.4648" id="Consumer" rx="2.5" ry="2.5" style="stroke:#181818;stroke-width:0.5;" width="231" x="333.5" y="770.61"/><ellipse cx="409.25" cy="786.61" fill="#B4A7E5" rx="11" ry="11" style="stroke:#181818;stroke-width:1.0;"/><path d="M405.6777,782.8751 L405.6777,780.7169 L413.0571,780.7169 L413.0571,782.8751 L410.5918,782.8751 L410.5918,790.9518 L413.0571,790.9518 L413.0571,793.11 L405.6777,793.11 L405.6777,790.9518 L408.1431,790.9518 L408.1431,782.8751 Z " fill="#000000"/><text fill="#000000" font-family="sans-serif" font-size="14" font-style="italic" lengthAdjust="spacing" textLength="71" x="429.75" y="791.901">Consumer</text><line style="stroke:#181818;stroke-width:0.5;" x1="334.5" x2="563.5" y1="802.61" y2="802.61"/><line style="stroke:#181818;stroke-width:0.5;" x1="334.5" x2="563.5" y1="810.61" y2="810.61"/><ellipse cx="344.5" cy="824.3541" fill="#84BE84" rx="3" ry="3" style="stroke:#038048;stroke-width:1.0;"/><text fill="#000000" font-family="sans-serif" font-size="14" lengthAdjust="spacing" textLength="191" x="353.5" y="828.1452">error AddReceiver(Receiver)</text><ellipse cx="344.5" cy="840.8424" fill="#84BE84" rx="3" ry="3" style="stroke:#038048;stroke-width:1.0;"/><text fill="#000000" font-family="sans-serif" font-size="14" lengthAdjust="spacing" textLength="205" x="353.5" y="844.6334">error Setup(ConsumerConfig)</text><ellipse cx="344.5" cy="857.3307" fill="#84BE84" rx="3" ry="3" style="stroke:#038048;stroke-width:1.0;"/><text fill="#000000" font-family="sans-serif" font-size="14" lengthAdjust="spacing" textLength="86" x="353.5" y="861.1217">error Serve()</text></g><!--class KafkaConsumer--><g id="elem_KafkaConsumer"><rect codeLine="67" fill="#F1F1F1" height="97.4648" id="KafkaConsumer" rx="2.5" ry="2.5" style="stroke:#181818;stroke-width:0.5;" width="260" x="341" y="961.06"/><ellipse cx="412.25" cy="977.06" fill="#F1F1F1" rx="11" ry="11" style="stroke:#181818;stroke-width:1.0;"/><path d="M411.9834,978.123 Q410.1323,977.4174 409.4766,976.6413 Q408.8208,975.8652 408.8208,974.5537 Q408.8208,972.8686 409.8999,971.9057 Q410.979,970.9428 412.8633,970.9428 Q413.7183,970.9428 414.5732,971.1379 Q415.4282,971.3329 416.2666,971.7148 L416.2666,974.1054 Q415.478,973.5493 414.6646,973.2587 Q413.8511,972.9682 413.0542,972.9682 Q412.166,972.9682 411.6929,973.3251 Q411.2197,973.6821 411.2197,974.3461 Q411.2197,974.8608 411.5642,975.197 Q411.9087,975.5331 413.0044,975.9399 L414.0586,976.3383 Q415.5527,976.8862 416.2583,977.791 Q416.9639,978.6957 416.9639,980.0737 Q416.9639,981.9496 415.8557,982.8752 Q414.7476,983.8007 412.5063,983.8007 Q411.585,983.8007 410.6594,983.5808 Q409.7339,983.3608 408.8706,982.9291 L408.8706,980.3974 Q409.8501,981.0947 410.7673,981.435 Q411.6846,981.7753 412.5811,981.7753 Q413.4858,981.7753 413.9839,981.3644 Q414.4819,980.9536 414.4819,980.2148 Q414.4819,979.6586 414.1499,979.2394 Q413.8179,978.8203 413.187,978.5795 Z " fill="#000000"/><text fill="#000000" font-family="sans-serif" font-size="14" lengthAdjust="spacing" textLength="109" x="432.75" y="982.351">KafkaConsumer</text><line style="stroke:#181818;stroke-width:0.5;" x1="342" x2="600" y1="993.06" y2="993.06"/><line style="stroke:#181818;stroke-width:0.5;" x1="342" x2="600" y1="1001.06" y2="1001.06"/><ellipse cx="352" cy="1014.8041" fill="#84BE84" rx="3" ry="3" style="stroke:#038048;stroke-width:1.0;"/><text fill="#000000" font-family="sans-serif" font-size="14" lengthAdjust="spacing" textLength="191" x="361" y="1018.5952">error AddReceiver(Receiver)</text><ellipse cx="352" cy="1031.2924" fill="#84BE84" rx="3" ry="3" style="stroke:#038048;stroke-width:1.0;"/><text fill="#000000" font-family="sans-serif" font-size="14" lengthAdjust="spacing" textLength="234" x="361" y="1035.0834">error Setup(KafkaConsumerCofig)</text><ellipse cx="352" cy="1047.7807" fill="#84BE84" rx="3" ry="3" style="stroke:#038048;stroke-width:1.0;"/><text fill="#000000" font-family="sans-serif" font-size="14" lengthAdjust="spacing" textLength="86" x="361" y="1051.5717">error Serve()</text></g><!--class KafkaProducer--><g id="elem_KafkaProducer"><rect codeLine="72" fill="#F1F1F1" height="97.4648" id="KafkaProducer" rx="2.5" ry="2.5" style="stroke:#181818;stroke-width:0.5;" width="260" x="809" y="1126.77"/><ellipse cx="884.75" cy="1142.77" fill="#F1F1F1" rx="11" ry="11" style="stroke:#181818;stroke-width:1.0;"/><path d="M884.4834,1143.833 Q882.6323,1143.1274 881.9766,1142.3513 Q881.3208,1141.5752 881.3208,1140.2637 Q881.3208,1138.5786 882.3999,1137.6157 Q883.479,1136.6528 885.3633,1136.6528 Q886.2183,1136.6528 887.0732,1136.8479 Q887.9282,1137.0429 888.7666,1137.4248 L888.7666,1139.8154 Q887.978,1139.2593 887.1646,1138.9687 Q886.3511,1138.6782 885.5542,1138.6782 Q884.666,1138.6782 884.1929,1139.0351 Q883.7197,1139.3921 883.7197,1140.0561 Q883.7197,1140.5708 884.0642,1140.907 Q884.4087,1141.2431 885.5044,1141.6499 L886.5586,1142.0483 Q888.0527,1142.5962 888.7583,1143.501 Q889.4639,1144.4057 889.4639,1145.7837 Q889.4639,1147.6596 888.3557,1148.5852 Q887.2476,1149.5107 885.0063,1149.5107 Q884.085,1149.5107 883.1594,1149.2908 Q882.2339,1149.0708 881.3706,1148.6391 L881.3706,1146.1074 Q882.3501,1146.8047 883.2673,1147.145 Q884.1846,1147.4853 885.0811,1147.4853 Q885.9858,1147.4853 886.4839,1147.0744 Q886.9819,1146.6636 886.9819,1145.9248 Q886.9819,1145.3686 886.6499,1144.9494 Q886.3179,1144.5303 885.687,1144.2895 Z " fill="#000000"/><text fill="#000000" font-family="sans-serif" font-size="14" lengthAdjust="spacing" textLength="100" x="905.25" y="1148.061">KafkaProducer</text><line style="stroke:#181818;stroke-width:0.5;" x1="810" x2="1068" y1="1158.77" y2="1158.77"/><line style="stroke:#181818;stroke-width:0.5;" x1="810" x2="1068" y1="1166.77" y2="1166.77"/><ellipse cx="820" cy="1180.5141" fill="#84BE84" rx="3" ry="3" style="stroke:#038048;stroke-width:1.0;"/><text fill="#000000" font-family="sans-serif" font-size="14" lengthAdjust="spacing" textLength="234" x="829" y="1184.3052">error Setup(KafkaProducerConfig)</text><ellipse cx="820" cy="1197.0024" fill="#84BE84" rx="3" ry="3" style="stroke:#038048;stroke-width:1.0;"/><text fill="#000000" font-family="sans-serif" font-size="14" lengthAdjust="spacing" textLength="81" x="829" y="1200.7934">error Start()</text><ellipse cx="820" cy="1213.4907" fill="#84BE84" rx="3" ry="3" style="stroke:#038048;stroke-width:1.0;"/><text fill="#000000" font-family="sans-serif" font-size="14" lengthAdjust="spacing" textLength="200" x="829" y="1217.2817">ProducerResponse Send(any)</text></g><!--class ProducerServer--><g id="elem_ProducerServer"><rect codeLine="77" fill="#F1F1F1" height="113.9531" id="ProducerServer" rx="2.5" ry="2.5" style="stroke:#181818;stroke-width:0.5;" width="264" x="805" y="762.37"/><ellipse cx="880.25" cy="778.37" fill="#F1F1F1" rx="11" ry="11" style="stroke:#181818;stroke-width:1.0;"/><path d="M879.9834,779.433 Q878.1323,778.7274 877.4766,777.9513 Q876.8208,777.1752 876.8208,775.8637 Q876.8208,774.1786 877.8999,773.2157 Q878.979,772.2528 880.8633,772.2528 Q881.7183,772.2528 882.5732,772.4479 Q883.4282,772.6429 884.2666,773.0248 L884.2666,775.4154 Q883.478,774.8593 882.6646,774.5687 Q881.8511,774.2782 881.0542,774.2782 Q880.166,774.2782 879.6929,774.6351 Q879.2197,774.9921 879.2197,775.6561 Q879.2197,776.1708 879.5642,776.507 Q879.9087,776.8431 881.0044,777.2499 L882.0586,777.6483 Q883.5527,778.1962 884.2583,779.101 Q884.9639,780.0057 884.9639,781.3837 Q884.9639,783.2596 883.8557,784.1852 Q882.7476,785.1107 880.5063,785.1107 Q879.585,785.1107 878.6594,784.8908 Q877.7339,784.6708 876.8706,784.2391 L876.8706,781.7074 Q877.8501,782.4047 878.7673,782.745 Q879.6846,783.0853 880.5811,783.0853 Q881.4858,783.0853 881.9839,782.6744 Q882.4819,782.2636 882.4819,781.5248 Q882.4819,780.9686 882.1499,780.5494 Q881.8179,780.1303 881.187,779.8895 Z " fill="#000000"/><text fill="#000000" font-family="sans-serif" font-size="14" lengthAdjust="spacing" textLength="105" x="900.75" y="783.661">ProducerServer</text><line style="stroke:#181818;stroke-width:0.5;" x1="806" x2="1068" y1="794.37" y2="794.37"/><rect fill="none" height="6" style="stroke:#C82930;stroke-width:1.0;" width="6" x="813" y="805.1141"/><text fill="#000000" font-family="sans-serif" font-size="14" lengthAdjust="spacing" textLength="238" x="825" y="811.9052">map[string]Producer producerMap</text><rect fill="none" height="6" style="stroke:#C82930;stroke-width:1.0;" width="6" x="813" y="821.6024"/><text fill="#000000" font-family="sans-serif" font-size="14" lengthAdjust="spacing" textLength="115" x="825" y="828.3934">Receiver receiver</text><line style="stroke:#181818;stroke-width:0.5;" x1="806" x2="1068" y1="835.3466" y2="835.3466"/><ellipse cx="816" cy="849.0907" fill="#84BE84" rx="3" ry="3" style="stroke:#038048;stroke-width:1.0;"/><text fill="#000000" font-family="sans-serif" font-size="14" lengthAdjust="spacing" textLength="151" x="825" y="852.8817">Receiver GetReceiver()</text><ellipse cx="816" cy="865.579" fill="#84BE84" rx="3" ry="3" style="stroke:#038048;stroke-width:1.0;"/><text fill="#000000" font-family="sans-serif" font-size="14" lengthAdjust="spacing" textLength="86" x="825" y="869.37">error Serve()</text></g><!--class ConsumerServer--><g id="elem_ConsumerServer"><rect codeLine="83" fill="#F1F1F1" height="97.4648" id="ConsumerServer" rx="2.5" ry="2.5" style="stroke:#181818;stroke-width:0.5;" width="285" x="21.5" y="961.06"/><ellipse cx="102.75" cy="977.06" fill="#F1F1F1" rx="11" ry="11" style="stroke:#181818;stroke-width:1.0;"/><path d="M102.4834,978.123 Q100.6323,977.4174 99.9766,976.6413 Q99.3208,975.8652 99.3208,974.5537 Q99.3208,972.8686 100.3999,971.9057 Q101.479,970.9428 103.3633,970.9428 Q104.2183,970.9428 105.0732,971.1379 Q105.9282,971.3329 106.7666,971.7148 L106.7666,974.1054 Q105.978,973.5493 105.1646,973.2587 Q104.3511,972.9682 103.5542,972.9682 Q102.666,972.9682 102.1929,973.3251 Q101.7197,973.6821 101.7197,974.3461 Q101.7197,974.8608 102.0642,975.197 Q102.4087,975.5331 103.5044,975.9399 L104.5586,976.3383 Q106.0527,976.8862 106.7583,977.791 Q107.4639,978.6957 107.4639,980.0737 Q107.4639,981.9496 106.3557,982.8752 Q105.2476,983.8007 103.0063,983.8007 Q102.085,983.8007 101.1594,983.5808 Q100.2339,983.3608 99.3706,982.9291 L99.3706,980.3974 Q100.3501,981.0947 101.2673,981.435 Q102.1846,981.7753 103.0811,981.7753 Q103.9858,981.7753 104.4839,981.3644 Q104.9819,980.9536 104.9819,980.2148 Q104.9819,979.6586 104.6499,979.2394 Q104.3179,978.8203 103.687,978.5795 Z " fill="#000000"/><text fill="#000000" font-family="sans-serif" font-size="14" lengthAdjust="spacing" textLength="114" x="123.25" y="982.351">ConsumerServer</text><line style="stroke:#181818;stroke-width:0.5;" x1="22.5" x2="305.5" y1="993.06" y2="993.06"/><rect fill="none" height="6" style="stroke:#C82930;stroke-width:1.0;" width="6" x="29.5" y="1003.8041"/><text fill="#000000" font-family="sans-serif" font-size="14" lengthAdjust="spacing" textLength="259" x="41.5" y="1010.5952">map[string]Consumer consumersMap</text><line style="stroke:#181818;stroke-width:0.5;" x1="22.5" x2="305.5" y1="1017.5483" y2="1017.5483"/><ellipse cx="32.5" cy="1031.2924" fill="#84BE84" rx="3" ry="3" style="stroke:#038048;stroke-width:1.0;"/><text fill="#000000" font-family="sans-serif" font-size="14" lengthAdjust="spacing" textLength="191" x="41.5" y="1035.0834">error AddReceiver(Receiver)</text><ellipse cx="32.5" cy="1047.7807" fill="#84BE84" rx="3" ry="3" style="stroke:#038048;stroke-width:1.0;"/><text fill="#000000" font-family="sans-serif" font-size="14" lengthAdjust="spacing" textLength="86" x="41.5" y="1051.5717">error Serve()</text></g><!--class KafkaConsumerCofig--><g id="elem_KafkaConsumerCofig"><rect codeLine="88" fill="#F1F1F1" height="48" id="KafkaConsumerCofig" rx="2.5" ry="2.5" style="stroke:#181818;stroke-width:0.5;" width="178" x="382" y="1151.5"/><ellipse cx="397" cy="1167.5" fill="#F1F1F1" rx="11" ry="11" style="stroke:#181818;stroke-width:1.0;"/><path d="M396.7334,1168.563 Q394.8823,1167.8574 394.2266,1167.0813 Q393.5708,1166.3052 393.5708,1164.9937 Q393.5708,1163.3086 394.6499,1162.3457 Q395.729,1161.3828 397.6133,1161.3828 Q398.4683,1161.3828 399.3232,1161.5779 Q400.1782,1161.7729 401.0166,1162.1548 L401.0166,1164.5454 Q400.228,1163.9893 399.4146,1163.6987 Q398.6011,1163.4082 397.8042,1163.4082 Q396.916,1163.4082 396.4429,1163.7651 Q395.9697,1164.1221 395.9697,1164.7861 Q395.9697,1165.3008 396.3142,1165.637 Q396.6587,1165.9731 397.7544,1166.3799 L398.8086,1166.7783 Q400.3027,1167.3262 401.0083,1168.231 Q401.7139,1169.1357 401.7139,1170.5137 Q401.7139,1172.3896 400.6057,1173.3152 Q399.4976,1174.2407 397.2563,1174.2407 Q396.335,1174.2407 395.4094,1174.0208 Q394.4839,1173.8008 393.6206,1173.3691 L393.6206,1170.8374 Q394.6001,1171.5347 395.5173,1171.875 Q396.4346,1172.2153 397.3311,1172.2153 Q398.2358,1172.2153 398.7339,1171.8044 Q399.2319,1171.3936 399.2319,1170.6548 Q399.2319,1170.0986 398.8999,1169.6794 Q398.5679,1169.2603 397.937,1169.0195 Z " fill="#000000"/><text fill="#000000" font-family="sans-serif" font-size="14" lengthAdjust="spacing" textLength="146" x="411" y="1172.791">KafkaConsumerCofig</text><line style="stroke:#181818;stroke-width:0.5;" x1="383" x2="559" y1="1183.5" y2="1183.5"/><line style="stroke:#181818;stroke-width:0.5;" x1="383" x2="559" y1="1191.5" y2="1191.5"/></g><!--class KafkaProducerConfig--><g id="elem_KafkaProducerConfig"><rect codeLine="89" fill="#F1F1F1" height="48" id="KafkaProducerConfig" rx="2.5" ry="2.5" style="stroke:#181818;stroke-width:0.5;" width="178" x="850" y="1284.23"/><ellipse cx="865" cy="1300.23" fill="#F1F1F1" rx="11" ry="11" style="stroke:#181818;stroke-width:1.0;"/><path d="M864.7334,1301.293 Q862.8823,1300.5874 862.2266,1299.8113 Q861.5708,1299.0352 861.5708,1297.7237 Q861.5708,1296.0386 862.6499,1295.0757 Q863.729,1294.1128 865.6133,1294.1128 Q866.4683,1294.1128 867.3232,1294.3079 Q868.1782,1294.5029 869.0166,1294.8848 L869.0166,1297.2754 Q868.228,1296.7193 867.4146,1296.4287 Q866.6011,1296.1382 865.8042,1296.1382 Q864.916,1296.1382 864.4429,1296.4951 Q863.9697,1296.8521 863.9697,1297.5161 Q863.9697,1298.0308 864.3142,1298.367 Q864.6587,1298.7031 865.7544,1299.1099 L866.8086,1299.5083 Q868.3027,1300.0562 869.0083,1300.961 Q869.7139,1301.8657 869.7139,1303.2437 Q869.7139,1305.1196 868.6057,1306.0452 Q867.4976,1306.9707 865.2563,1306.9707 Q864.335,1306.9707 863.4094,1306.7508 Q862.4839,1306.5308 861.6206,1306.0991 L861.6206,1303.5674 Q862.6001,1304.2647 863.5173,1304.605 Q864.4346,1304.9453 865.3311,1304.9453 Q866.2358,1304.9453 866.7339,1304.5344 Q867.2319,1304.1236 867.2319,1303.3848 Q867.2319,1302.8286 866.8999,1302.4094 Q866.5679,1301.9903 865.937,1301.7495 Z " fill="#000000"/><text fill="#000000" font-family="sans-serif" font-size="14" lengthAdjust="spacing" textLength="146" x="879" y="1305.521">KafkaProducerConfig</text><line style="stroke:#181818;stroke-width:0.5;" x1="851" x2="1027" y1="1316.23" y2="1316.23"/><line style="stroke:#181818;stroke-width:0.5;" x1="851" x2="1027" y1="1324.23" y2="1324.23"/></g><!--class ProducerConfig--><g id="elem_ProducerConfig"><rect codeLine="90" fill="#F1F1F1" height="48" id="ProducerConfig" rx="2.5" ry="2.5" style="stroke:#181818;stroke-width:0.5;" width="140" x="869" y="1392.23"/><ellipse cx="884" cy="1408.23" fill="#F1F1F1" rx="11" ry="11" style="stroke:#181818;stroke-width:1.0;"/><path d="M883.7334,1409.293 Q881.8823,1408.5874 881.2266,1407.8113 Q880.5708,1407.0352 880.5708,1405.7237 Q880.5708,1404.0386 881.6499,1403.0757 Q882.729,1402.1128 884.6133,1402.1128 Q885.4683,1402.1128 886.3232,1402.3079 Q887.1782,1402.5029 888.0166,1402.8848 L888.0166,1405.2754 Q887.228,1404.7193 886.4146,1404.4287 Q885.6011,1404.1382 884.8042,1404.1382 Q883.916,1404.1382 883.4429,1404.4951 Q882.9697,1404.8521 882.9697,1405.5161 Q882.9697,1406.0308 883.3142,1406.367 Q883.6587,1406.7031 884.7544,1407.1099 L885.8086,1407.5083 Q887.3027,1408.0562 888.0083,1408.961 Q888.7139,1409.8657 888.7139,1411.2437 Q888.7139,1413.1196 887.6057,1414.0452 Q886.4976,1414.9707 884.2563,1414.9707 Q883.335,1414.9707 882.4094,1414.7508 Q881.4839,1414.5308 880.6206,1414.0991 L880.6206,1411.5674 Q881.6001,1412.2647 882.5173,1412.605 Q883.4346,1412.9453 884.3311,1412.9453 Q885.2358,1412.9453 885.7339,1412.5344 Q886.2319,1412.1236 886.2319,1411.3848 Q886.2319,1410.8286 885.8999,1410.4094 Q885.5679,1409.9903 884.937,1409.7495 Z " fill="#000000"/><text fill="#000000" font-family="sans-serif" font-size="14" lengthAdjust="spacing" textLength="108" x="898" y="1413.521">ProducerConfig</text><line style="stroke:#181818;stroke-width:0.5;" x1="870" x2="1008" y1="1424.23" y2="1424.23"/><line style="stroke:#181818;stroke-width:0.5;" x1="870" x2="1008" y1="1432.23" y2="1432.23"/></g><!--class ConsumerConfig--><g id="elem_ConsumerConfig"><rect codeLine="91" fill="#F1F1F1" height="48" id="ConsumerConfig" rx="2.5" ry="2.5" style="stroke:#181818;stroke-width:0.5;" width="149" x="396.5" y="1284.23"/><ellipse cx="411.5" cy="1300.23" fill="#F1F1F1" rx="11" ry="11" style="stroke:#181818;stroke-width:1.0;"/><path d="M411.2334,1301.293 Q409.3823,1300.5874 408.7266,1299.8113 Q408.0708,1299.0352 408.0708,1297.7237 Q408.0708,1296.0386 409.1499,1295.0757 Q410.229,1294.1128 412.1133,1294.1128 Q412.9683,1294.1128 413.8232,1294.3079 Q414.6782,1294.5029 415.5166,1294.8848 L415.5166,1297.2754 Q414.728,1296.7193 413.9146,1296.4287 Q413.1011,1296.1382 412.3042,1296.1382 Q411.416,1296.1382 410.9429,1296.4951 Q410.4697,1296.8521 410.4697,1297.5161 Q410.4697,1298.0308 410.8142,1298.367 Q411.1587,1298.7031 412.2544,1299.1099 L413.3086,1299.5083 Q414.8027,1300.0562 415.5083,1300.961 Q416.2139,1301.8657 416.2139,1303.2437 Q416.2139,1305.1196 415.1057,1306.0452 Q413.9976,1306.9707 411.7563,1306.9707 Q410.835,1306.9707 409.9094,1306.7508 Q408.9839,1306.5308 408.1206,1306.0991 L408.1206,1303.5674 Q409.1001,1304.2647 410.0173,1304.605 Q410.9346,1304.9453 411.8311,1304.9453 Q412.7358,1304.9453 413.2339,1304.5344 Q413.7319,1304.1236 413.7319,1303.3848 Q413.7319,1302.8286 413.3999,1302.4094 Q413.0679,1301.9903 412.437,1301.7495 Z " fill="#000000"/><text fill="#000000" font-family="sans-serif" font-size="14" lengthAdjust="spacing" textLength="117" x="425.5" y="1305.521">ConsumerConfig</text><line style="stroke:#181818;stroke-width:0.5;" x1="397.5" x2="544.5" y1="1316.23" y2="1316.23"/><line style="stroke:#181818;stroke-width:0.5;" x1="397.5" x2="544.5" y1="1324.23" y2="1324.23"/></g><!--reverse link CompletionHandler to AppData--><g id="link_CompletionHandler_AppData"><path codeLine="93" d="M922,117.78 C922,135.32 922,145.51 922,165.17 " fill="none" id="CompletionHandler-backto-AppData" style="stroke:#181818;stroke-width:1.0;"/><polygon fill="#181818" points="922,105.78,918,111.78,922,117.78,926,111.78,922,105.78" style="stroke:#181818;stroke-width:1.0;"/></g><!--link KafkaConsumerCompletionHandler to CompletionHandler--><g id="link_KafkaConsumerCompletionHandler_CompletionHandler"><path codeLine="94" d="M783.73,73.24 C795.07,73.24 788.42,73.24 799.76,73.24 " fill="none" id="KafkaConsumerCompletionHandler-to-CompletionHandler" style="stroke:#181818;stroke-width:1.0;"/><polygon fill="none" points="817.76,73.24,799.76,67.24,799.76,79.24,817.76,73.24" style="stroke:#181818;stroke-width:1.0;"/></g><!--reverse link AppData to Receiver--><g id="link_AppData_Receiver"><path codeLine="95" d="M924.8587,275.4165 C925.9087,297.5465 926.56,311.2 927.5,330.84 " fill="none" id="AppData-backto-Receiver" style="stroke:#181818;stroke-width:1.0;"/><polygon fill="#181818" points="924.29,263.43,920.5789,269.6128,924.8587,275.4165,928.5699,269.2337,924.29,263.43" style="stroke:#181818;stroke-width:1.0;"/></g><!--reverse link Receiver to Pullable--><g id="link_Receiver_Pullable"><path codeLine="96" d="M831.5428,400.0616 C823.8228,402.7616 827.45,401.44 820,403.93 C757.52,424.8 687.06,446.45 630.35,463.43 " fill="none" id="Receiver-backto-Pullable" style="stroke:#181818;stroke-width:1.0;"/><polygon fill="#181818" points="842.87,396.1,835.8859,394.3051,831.5428,400.0616,838.5269,401.8565,842.87,396.1" style="stroke:#181818;stroke-width:1.0;"/></g><!--reverse link Receiver to Pushable--><g id="link_Receiver_Pushable"><path codeLine="97" d="M929,408.09 C929,428.64 929,443.32 929,463.82 " fill="none" id="Receiver-backto-Pushable" style="stroke:#181818;stroke-width:1.0;"/><polygon fill="#181818" points="929,396.09,925,402.09,929,408.09,933,402.09,929,396.09" style="stroke:#181818;stroke-width:1.0;"/></g><!--link ChanReceiver to Receiver--><g id="link_ChanReceiver_Receiver"><path codeLine="98" d="M802.26,363.44 C813.64,363.44 807.03,363.44 818.42,363.44 " fill="none" id="ChanReceiver-to-Receiver" style="stroke:#181818;stroke-width:1.0;"/><polygon fill="none" points="836.42,363.44,818.42,357.44,818.42,369.44,836.42,363.44" style="stroke:#181818;stroke-width:1.0;"/></g><!--reverse link Server to SourceServer--><g id="link_Server_SourceServer"><path codeLine="99" d="M652.7342,533.5575 C612.3142,553.9175 573.3,573.56 528.38,596.18 " fill="none" id="Server-backto-SourceServer" style="stroke:#181818;stroke-width:1.0;"/><polygon fill="none" points="668.81,525.46,650.0351,528.199,655.4334,538.9161,668.81,525.46" style="stroke:#181818;stroke-width:1.0;"/></g><!--reverse link Pullable to SourceServer--><g id="link_Pullable_SourceServer"><path codeLine="100" d="M497.0671,544.644 C486.5471,564.664 481.22,574.82 469.95,596.27 " fill="none" id="Pullable-backto-SourceServer" style="stroke:#181818;stroke-width:1.0;"/><polygon fill="none" points="505.44,528.71,491.7557,541.8531,502.3784,547.435,505.44,528.71" style="stroke:#181818;stroke-width:1.0;"/></g><!--reverse link Server to SinkServer--><g id="link_Server_SinkServer"><path codeLine="101" d="M787.4254,538.8819 C817.3954,558.9119 841.41,574.96 873.46,596.36 " fill="none" id="Server-backto-SinkServer" style="stroke:#181818;stroke-width:1.0;"/><polygon fill="none" points="772.46,528.88,784.0914,543.8703,790.7593,533.8934,772.46,528.88" style="stroke:#181818;stroke-width:1.0;"/></g><!--reverse link Pushable to SinkServer--><g id="link_Pushable_SinkServer"><path codeLine="102" d="M930.4223,546.7027 C930.9923,566.7227 931.23,574.82 931.85,596.27 " fill="none" id="Pushable-backto-SinkServer" style="stroke:#181818;stroke-width:1.0;"/><polygon fill="none" points="929.91,528.71,924.4247,546.8735,936.4198,546.5319,929.91,528.71" style="stroke:#181818;stroke-width:1.0;"/></g><!--reverse link Pushable to PipeServer--><g id="link_Pushable_PipeServer"><path codeLine="103" d="M861.6118,538.2511 C832.9618,555.7211 812.17,568.39 780.09,587.94 " fill="none" id="Pushable-backto-PipeServer" style="stroke:#181818;stroke-width:1.0;"/><polygon fill="none" points="876.98,528.88,858.4881,533.1284,864.7355,543.3739,876.98,528.88" style="stroke:#181818;stroke-width:1.0;"/></g><!--reverse link Pullable to PipeServer--><g id="link_Pullable_PipeServer"><path codeLine="104" d="M576.8375,539.7492 C599.4275,557.2892 613.79,568.44 639.11,588.1 " fill="none" id="Pullable-backto-PipeServer" style="stroke:#181818;stroke-width:1.0;"/><polygon fill="none" points="562.62,528.71,573.1578,544.4883,580.5172,535.01,562.62,528.71" style="stroke:#181818;stroke-width:1.0;"/></g><!--reverse link Server to PipeServer--><g id="link_Server_PipeServer"><path codeLine="105" d="M716.4957,546.449 C713.4757,563.989 712.69,568.44 709.3,588.1 " fill="none" id="Server-backto-PipeServer" style="stroke:#181818;stroke-width:1.0;"/><polygon fill="none" points="719.55,528.71,710.5827,545.4309,722.4087,547.4671,719.55,528.71" style="stroke:#181818;stroke-width:1.0;"/></g><!--reverse link ProducerResponse to Producer--><g id="link_ProducerResponse_Producer"><path codeLine="107" d="M808.44,1009.79 C819.63,1009.79 818.83,1009.79 830.03,1009.79 " fill="none" id="ProducerResponse-backto-Producer" style="stroke:#181818;stroke-width:1.0;"/><polygon fill="#181818" points="796.44,1009.79,802.44,1013.79,808.44,1009.79,802.44,1005.79,796.44,1009.79" style="stroke:#181818;stroke-width:1.0;"/></g><!--reverse link Producer to KafkaProducer--><g id="link_Producer_KafkaProducer"><path codeLine="108" d="M945.0114,1085.0901 C943.7214,1104.4201 943.47,1107.9 942.22,1126.5 " fill="none" id="Producer-backto-KafkaProducer" style="stroke:#181818;stroke-width:1.0;"/><polygon fill="none" points="946.21,1067.13,939.0247,1084.6905,950.9981,1085.4896,946.21,1067.13" style="stroke:#181818;stroke-width:1.0;"/></g><!--reverse link Consumer to KafkaConsumer--><g id="link_Consumer_KafkaConsumer"><path codeLine="109" d="M456.6974,886.2686 C460.0074,914.6186 462.09,932.5 465.4,960.84 " fill="none" id="Consumer-backto-KafkaConsumer" style="stroke:#181818;stroke-width:1.0;"/><polygon fill="none" points="454.61,868.39,450.7379,886.9644,462.6569,885.5728,454.61,868.39" style="stroke:#181818;stroke-width:1.0;"/></g><!--link ProducerServer to Producer--><g id="link_ProducerServer_Producer"><path codeLine="110" d="M940.88,876.63 C942.54,900.6 943.6359,916.5283 945.2859,940.4983 " fill="none" id="ProducerServer-to-Producer" style="stroke:#181818;stroke-width:1.0;"/><polygon fill="#181818" points="946.11,952.47,949.6885,946.2095,945.2859,940.4983,941.7074,946.7589,946.11,952.47" style="stroke:#181818;stroke-width:1.0;"/></g><!--reverse link SinkServer to ProducerServer--><g id="link_SinkServer_ProducerServer"><path codeLine="111" d="M934.2796,695.6856 C934.8296,720.4556 935.14,734.75 935.75,762.15 " fill="none" id="SinkServer-backto-ProducerServer" style="stroke:#181818;stroke-width:1.0;"/><polygon fill="none" points="933.88,677.69,928.2811,695.8188,940.2781,695.5524,933.88,677.69" style="stroke:#181818;stroke-width:1.0;"/></g><!--reverse link Receiver to ProducerServer--><g id="link_Receiver_ProducerServer"><path codeLine="112" d="M986.652,403.5614 C1008.472,420.7714 1022.68,436.68 1035,463.93 C1075.64,553.83 1070.79,592.48 1039,685.88 C1029.55,713.63 1011.68,740.11 993.51,761.99 " fill="none" id="Receiver-backto-ProducerServer" style="stroke:#181818;stroke-width:1.0;"/><polygon fill="#181818" points="977.23,396.13,979.4639,402.9864,986.652,403.5614,984.4181,396.705,977.23,396.13" style="stroke:#181818;stroke-width:1.0;"/></g><!--link ConsumerServer to SourceServer--><g id="link_ConsumerServer_SourceServer"><path codeLine="113" d="M177.11,960.77 C197.22,895.07 241.37,776.91 316,702.88 C325.48,693.48 321.262,694.6406 332.952,687.4606 " fill="none" id="ConsumerServer-to-SourceServer" style="stroke:#181818;stroke-width:1.0;"/><polygon fill="none" points="348.29,678.04,329.8119,682.3479,336.0922,692.5732,348.29,678.04" style="stroke:#181818;stroke-width:1.0;"/></g><!--reverse link Consumer to ConsumerServer--><g id="link_Consumer_ConsumerServer"><path codeLine="114" d="M366.34,875.0081 C323.46,903.3581 279.38,932.5 236.52,960.84 " fill="none" id="Consumer-backto-ConsumerServer" style="stroke:#181818;stroke-width:1.0;"/><polygon fill="#181818" points="376.35,868.39,369.139,868.3624,366.34,875.0081,373.551,875.0357,376.35,868.39" style="stroke:#181818;stroke-width:1.0;"/></g><!--reverse link SourceServer to Consumer--><g id="link_SourceServer_Consumer"><path codeLine="115" d="M449,695.69 C449,722.94 449,741.31 449,770.24 " fill="none" id="SourceServer-backto-Consumer" style="stroke:#181818;stroke-width:1.0;"/><polygon fill="none" points="449,677.69,443,695.69,455,695.69,449,677.69" style="stroke:#181818;stroke-width:1.0;"/></g><!--link KafkaConsumer to KafkaConsumerCofig--><g id="link_KafkaConsumer_KafkaConsumerCofig"><path codeLine="117" d="M471,1058.58 C471,1088.97 471,1114.98 471,1139.01 " fill="none" id="KafkaConsumer-to-KafkaConsumerCofig" style="stroke:#181818;stroke-width:1.0;"/><polygon fill="#181818" points="471,1151.01,475,1145.01,471,1139.01,467,1145.01,471,1151.01" style="stroke:#181818;stroke-width:1.0;"/></g><!--link KafkaProducer to KafkaProducerConfig--><g id="link_KafkaProducer_KafkaProducerConfig"><path codeLine="118" d="M939,1224.44 C939,1244.69 939,1255.36 939,1271.85 " fill="none" id="KafkaProducer-to-KafkaProducerConfig" style="stroke:#181818;stroke-width:1.0;"/><polygon fill="#181818" points="939,1283.85,943,1277.85,939,1271.85,935,1277.85,939,1283.85" style="stroke:#181818;stroke-width:1.0;"/></g><!--reverse link PipeServer to JQTransformer--><g id="link_PipeServer_JQTransformer"><path codeLine="120" d="M827.0108,686.3968 C883.1608,698.5968 1031.28,682.51 1085,702.88 C1110.86,712.69 1135.88,728.6 1157.8,745.52 " fill="none" id="PipeServer-backto-JQTransformer" style="stroke:#181818;stroke-width:1.0;"/><polygon fill="none" points="809.67,681.57,825.4018,692.1771,828.6197,680.6166,809.67,681.57" style="stroke:#181818;stroke-width:1.0;"/></g><!--reverse link Receiver to JQTransformer--><g id="link_Receiver_JQTransformer"><path codeLine="121" d="M989.3106,403.0418 C1014.5806,420.7318 1034.45,437.59 1056,463.93 C1126.86,550.52 1179.48,669.98 1208.47,745.7 " fill="none" id="Receiver-backto-JQTransformer" style="stroke:#181818;stroke-width:1.0;"/><polygon fill="#181818" points="979.48,396.16,982.1014,402.8778,989.3106,403.0418,986.6892,396.324,979.48,396.16" style="stroke:#181818;stroke-width:1.0;"/></g><!--link KafkaProducerConfig to ProducerConfig--><g id="link_KafkaProducerConfig_ProducerConfig"><path codeLine="123" d="M939,1332.49 C939,1350.17 939,1362.36 939,1380.02 " fill="none" id="KafkaProducerConfig-to-ProducerConfig" style="stroke:#181818;stroke-width:1.0;"/><polygon fill="#181818" points="939,1392.02,943,1386.02,939,1380.02,935,1386.02,939,1392.02" style="stroke:#181818;stroke-width:1.0;"/></g><!--link KafkaConsumerCofig to ConsumerConfig--><g id="link_KafkaConsumerCofig_ConsumerConfig"><path codeLine="124" d="M471,1199.87 C471,1223.67 471,1248.34 471,1272.06 " fill="none" id="KafkaConsumerCofig-to-ConsumerConfig" style="stroke:#181818;stroke-width:1.0;"/><polygon fill="#181818" points="471,1284.06,475,1278.06,471,1272.06,467,1278.06,471,1284.06" style="stroke:#181818;stroke-width:1.0;"/></g><!--SRC=[jLVDSjCm4BxxANnq0yuJSEc43j0Eq3QzCHo4BITkRKd8Sg43VNVaMFyhEzI173hgwjlLj_y9GItk62fmUhdz_EdYf-2e49Idlv9KVZh1-qAabpTt796kehp5-chuvFA-9hlq_ljDZ_cJbMzeYQNqcjCTHwsLt-82ru_I1bS7S_KASowVFIzBZSdquSo2ZFuxB0pkB3IonVmHA_5pyfmGu-FXHdjG4u5vDOWtj6KD5ZKbxn4f6yz7PLD1S8R8q-lq8DCFE86wGjK3sb3IzJ9G_ypgEMDlaK1ku2K-BQNC6eIl5Q74WWVrBIRb7StSzsn4JA01PNMJAL8Hkfiz8X7zl91ouyj0VW2-mBnbvwLnCl6-pdNVDEXRWw6MMtChl-YWaMuV6fcfIS2Rzhp0K-oFrFvn5xSrUO36b_HCu7NDbf9U-hWg9Jb0ohx0_5Rsh-mgD-xvg7hu6zgJZrqCXob_b5NN6otxG3g1Y0H96_eS8onwbcaTsV1LlOCWWRXmTO4tGmiEhH-dgUV8uaePEDfX5ESu5Nblaft489Y9BsSHInTuuB_a8gX2q0DvYzYNSGT-DIoPEdn4xAyMtuajeYCxIyuaib27pcLtslo9hpwPXCb4ZZcAHHZU-FKhb_devngkkrMUgyMmLijZ6llcTzxWIXY5-RsT-6RTbtISak1_5wCtppncN2m04p9rbwi6gzHBg86vcoO9U1m5nkoPrP84Z9V0x4APvGPX4MOEo1WBUtkLytgtjq7KW531C-oLh2qbrKW0gM-0pLNUC_1ou9PTt9vhKN2qVE9ctQyRe92ykG7ySup7aQ7naluWGCMa14u7FoxH44Q6HaJBf2W15J56q_jXi_P-oqHZEeSFitkKbPfRGLmcrRmG_G40]--></g></svg>