<?xml version="1.0" encoding="us-ascii" standalone="no"?><svg xmlns="http://www.w3.org/2000/svg" xmlns:xlink="http://www.w3.org/1999/xlink" contentStyleType="text/css" height="1459px" preserveAspectRatio="none" style="width:1384px;height:1459px;background:#FFFFFF;" version="1.1" viewBox="0 0 1384 1459" width="1384px" zoomAndPan="magnify"><defs/><g><!--cluster JSONExtractor--><g id="cluster_JSONExtractor"><path d="M1127.5,709 L1237.5,709 A3.75,3.75 0 0 1 1240,711.5 L1247,731.2969 L1374.5,731.2969 A2.5,2.5 0 0 1 1377,733.7969 L1377,903.5 A2.5,2.5 0 0 1 1374.5,906 L1127.5,906 A2.5,2.5 0 0 1 1125,903.5 L1125,711.5 A2.5,2.5 0 0 1 1127.5,709 " fill="none" style="stroke:#000000;stroke-width:1.5;"/><line style="stroke:#000000;stroke-width:1.5;" x1="1125" x2="1247" y1="731.2969" y2="731.2969"/><text fill="#000000" font-family="sans-serif" font-size="14" font-weight="bold" lengthAdjust="spacing" textLength="109" x="1129" y="723.9951">JSONExtractor</text></g><!--cluster Server--><g id="cluster_Server"><path d="M8.5,6 L62.5,6 A3.75,3.75 0 0 1 65,8.5 L72,28.2969 L1098.5,28.2969 A2.5,2.5 0 0 1 1101,30.7969 L1101,1449.5 A2.5,2.5 0 0 1 1098.5,1452 L8.5,1452 A2.5,2.5 0 0 1 6,1449.5 L6,8.5 A2.5,2.5 0 0 1 8.5,6 " fill="none" style="stroke:#000000;stroke-width:1.5;"/><line style="stroke:#000000;stroke-width:1.5;" x1="6" x2="72" y1="28.2969" y2="28.2969"/><text fill="#000000" font-family="sans-serif" font-size="14" font-weight="bold" lengthAdjust="spacing" textLength="53" x="10" y="20.9951">Server</text></g><!--class JQTransformer--><g id="elem_JQTransformer"><rect codeLine="2" fill="#F1F1F1" height="145.7813" id="JQTransformer" rx="2.5" ry="2.5" style="stroke:#181818;stroke-width:0.5;" width="220" x="1141" y="744"/><ellipse cx="1197.75" cy="760" fill="#F1F1F1" rx="11" ry="11" style="stroke:#181818;stroke-width:1.0;"/><path d="M1197.2344,760.5625 Q1195.375,759.8594 1194.7188,759.0938 Q1194.0781,758.3125 1194.0781,757 Q1194.0781,755.3125 1195.1563,754.3438 Q1196.2344,753.375 1198.1094,753.375 Q1198.9688,753.375 1199.8125,753.5781 Q1200.6719,753.7656 1201.5156,754.1563 L1201.5156,756.5469 Q1200.7344,755.9844 1199.9063,755.7031 Q1199.0938,755.4063 1198.2969,755.4063 Q1197.4219,755.4063 1196.9375,755.7656 Q1196.4688,756.125 1196.4688,756.7813 Q1196.4688,757.2969 1196.8125,757.6406 Q1197.1563,757.9688 1198.25,758.375 L1199.3125,758.7813 Q1200.7969,759.3281 1201.5,760.2344 Q1202.2188,761.1406 1202.2188,762.5156 Q1202.2188,764.3906 1201.1094,765.3125 Q1200,766.2344 1197.75,766.2344 Q1196.8281,766.2344 1195.9063,766.0156 Q1194.9844,765.7969 1194.125,765.375 L1194.125,762.8438 Q1195.0938,763.5313 1196.0156,763.875 Q1196.9375,764.2188 1197.8281,764.2188 Q1198.7344,764.2188 1199.2344,763.8125 Q1199.7344,763.3906 1199.7344,762.6563 Q1199.7344,762.0938 1199.3906,761.6875 Q1199.0625,761.2656 1198.4375,761.0156 L1197.2344,760.5625 Z " fill="#000000"/><text fill="#000000" font-family="sans-serif" font-size="14" lengthAdjust="spacing" textLength="98" x="1218.25" y="764.8467">JQTransformer</text><line style="stroke:#181818;stroke-width:0.5;" x1="1142" x2="1360" y1="776" y2="776"/><rect fill="none" height="6" style="stroke:#C82930;stroke-width:1.0;" width="6" x="1149" y="786.6484"/><text fill="#000000" font-family="sans-serif" font-size="14" lengthAdjust="spacing" textLength="96" x="1161" y="792.9951">string jqQuery</text><rect fill="none" height="6" style="stroke:#C82930;stroke-width:1.0;" width="6" x="1149" y="802.9453"/><text fill="#000000" font-family="sans-serif" font-size="14" lengthAdjust="spacing" textLength="111" x="1161" y="809.292">Code jqProgram</text><rect fill="none" height="6" style="stroke:#C82930;stroke-width:1.0;" width="6" x="1149" y="819.2422"/><text fill="#000000" font-family="sans-serif" font-size="14" lengthAdjust="spacing" textLength="119" x="1161" y="825.5889">Receiver receiver</text><line style="stroke:#181818;stroke-width:0.5;" x1="1142" x2="1360" y1="832.8906" y2="832.8906"/><ellipse cx="1152" cy="846.5391" fill="#84BE84" rx="3" ry="3" style="stroke:#038048;stroke-width:1.0;"/><text fill="#000000" font-family="sans-serif" font-size="14" lengthAdjust="spacing" textLength="194" x="1161" y="849.8857">error AddReceiver(Receiver)</text><ellipse cx="1152" cy="862.8359" fill="#84BE84" rx="3" ry="3" style="stroke:#038048;stroke-width:1.0;"/><text fill="#000000" font-family="sans-serif" font-size="14" lengthAdjust="spacing" textLength="159" x="1161" y="866.1826">Receiver GetReceiver()</text><ellipse cx="1152" cy="879.1328" fill="#84BE84" rx="3" ry="3" style="stroke:#038048;stroke-width:1.0;"/><text fill="#000000" font-family="sans-serif" font-size="14" lengthAdjust="spacing" textLength="86" x="1161" y="882.4795">error Serve()</text></g><!--class CompletionHandler--><g id="elem_CompletionHandler"><rect codeLine="12" fill="#F1F1F1" height="64.2969" id="CompletionHandler" rx="2.5" ry="2.5" style="stroke:#181818;stroke-width:0.5;" width="205" x="836.5" y="41"/><ellipse cx="869.95" cy="57" fill="#B4A7E5" rx="11" ry="11" style="stroke:#181818;stroke-width:1.0;"/><path d="M865.8719,52.7656 L865.8719,50.6094 L873.2625,50.6094 L873.2625,52.7656 L870.7938,52.7656 L870.7938,60.8438 L873.2625,60.8438 L873.2625,63 L865.8719,63 L865.8719,60.8438 L868.3406,60.8438 L868.3406,52.7656 L865.8719,52.7656 Z " fill="#000000"/><text fill="#000000" font-family="sans-serif" font-size="14" font-style="italic" lengthAdjust="spacing" textLength="132" x="888.05" y="61.8467">CompletionHandler</text><line style="stroke:#181818;stroke-width:0.5;" x1="837.5" x2="1040.5" y1="73" y2="73"/><line style="stroke:#181818;stroke-width:0.5;" x1="837.5" x2="1040.5" y1="81" y2="81"/><ellipse cx="847.5" cy="94.6484" fill="#84BE84" rx="3" ry="3" style="stroke:#038048;stroke-width:1.0;"/><text fill="#000000" font-family="sans-serif" font-size="14" lengthAdjust="spacing" textLength="179" x="856.5" y="97.9951">error Complete(any, error)</text></g><!--class KafkaConsumerCompletionHandler--><g id="elem_KafkaConsumerCompletionHandler"><rect codeLine="15" fill="#F1F1F1" height="64.2969" id="KafkaConsumerCompletionHandler" rx="2.5" ry="2.5" style="stroke:#181818;stroke-width:0.5;" width="273" x="528.5" y="41"/><ellipse cx="543.5" cy="57" fill="#F1F1F1" rx="11" ry="11" style="stroke:#181818;stroke-width:1.0;"/><path d="M542.9844,57.5625 Q541.125,56.8594 540.4688,56.0938 Q539.8281,55.3125 539.8281,54 Q539.8281,52.3125 540.9063,51.3438 Q541.9844,50.375 543.8594,50.375 Q544.7188,50.375 545.5625,50.5781 Q546.4219,50.7656 547.2656,51.1563 L547.2656,53.5469 Q546.4844,52.9844 545.6563,52.7031 Q544.8438,52.4063 544.0469,52.4063 Q543.1719,52.4063 542.6875,52.7656 Q542.2188,53.125 542.2188,53.7813 Q542.2188,54.2969 542.5625,54.6406 Q542.9063,54.9688 544,55.375 L545.0625,55.7813 Q546.5469,56.3281 547.25,57.2344 Q547.9688,58.1406 547.9688,59.5156 Q547.9688,61.3906 546.8594,62.3125 Q545.75,63.2344 543.5,63.2344 Q542.5781,63.2344 541.6563,63.0156 Q540.7344,62.7969 539.875,62.375 L539.875,59.8438 Q540.8438,60.5313 541.7656,60.875 Q542.6875,61.2188 543.5781,61.2188 Q544.4844,61.2188 544.9844,60.8125 Q545.4844,60.3906 545.4844,59.6563 Q545.4844,59.0938 545.1406,58.6875 Q544.8125,58.2656 544.1875,58.0156 L542.9844,57.5625 Z " fill="#000000"/><text fill="#000000" font-family="sans-serif" font-size="14" lengthAdjust="spacing" textLength="241" x="557.5" y="61.8467">KafkaConsumerCompletionHandler</text><line style="stroke:#181818;stroke-width:0.5;" x1="529.5" x2="800.5" y1="73" y2="73"/><line style="stroke:#181818;stroke-width:0.5;" x1="529.5" x2="800.5" y1="81" y2="81"/><ellipse cx="539.5" cy="94.6484" fill="#84BE84" rx="3" ry="3" style="stroke:#038048;stroke-width:1.0;"/><text fill="#000000" font-family="sans-serif" font-size="14" lengthAdjust="spacing" textLength="179" x="548.5" y="97.9951">error Complete(any, error)</text></g><!--class AppData--><g id="elem_AppData"><rect codeLine="18" fill="#F1F1F1" height="96.8906" id="AppData" rx="2.5" ry="2.5" style="stroke:#181818;stroke-width:0.5;" width="292" x="793" y="165"/><ellipse cx="905.25" cy="181" fill="#F1F1F1" rx="11" ry="11" style="stroke:#181818;stroke-width:1.0;"/><path d="M904.7344,181.5625 Q902.875,180.8594 902.2188,180.0938 Q901.5781,179.3125 901.5781,178 Q901.5781,176.3125 902.6563,175.3438 Q903.7344,174.375 905.6094,174.375 Q906.4688,174.375 907.3125,174.5781 Q908.1719,174.7656 909.0156,175.1563 L909.0156,177.5469 Q908.2344,176.9844 907.4063,176.7031 Q906.5938,176.4063 905.7969,176.4063 Q904.9219,176.4063 904.4375,176.7656 Q903.9688,177.125 903.9688,177.7813 Q903.9688,178.2969 904.3125,178.6406 Q904.6563,178.9688 905.75,179.375 L906.8125,179.7813 Q908.2969,180.3281 909,181.2344 Q909.7188,182.1406 909.7188,183.5156 Q909.7188,185.3906 908.6094,186.3125 Q907.5,187.2344 905.25,187.2344 Q904.3281,187.2344 903.4063,187.0156 Q902.4844,186.7969 901.625,186.375 L901.625,183.8438 Q902.5938,184.5313 903.5156,184.875 Q904.4375,185.2188 905.3281,185.2188 Q906.2344,185.2188 906.7344,184.8125 Q907.2344,184.3906 907.2344,183.6563 Q907.2344,183.0938 906.8906,182.6875 Q906.5625,182.2656 905.9375,182.0156 L904.7344,181.5625 Z " fill="#000000"/><text fill="#000000" font-family="sans-serif" font-size="14" lengthAdjust="spacing" textLength="59" x="925.75" y="185.8467">AppData</text><line style="stroke:#181818;stroke-width:0.5;" x1="794" x2="1084" y1="197" y2="197"/><rect fill="none" height="6" style="stroke:#C82930;stroke-width:1.0;" width="6" x="801" y="207.6484"/><text fill="#000000" font-family="sans-serif" font-size="14" lengthAdjust="spacing" textLength="58" x="813" y="213.9951">any data</text><ellipse cx="804" cy="226.9453" fill="none" rx="3" ry="3" style="stroke:#038048;stroke-width:1.0;"/><text fill="#000000" font-family="sans-serif" font-size="14" lengthAdjust="spacing" textLength="266" x="813" y="230.292">CompletionHandler completionHandler</text><line style="stroke:#181818;stroke-width:0.5;" x1="794" x2="1084" y1="237.5938" y2="237.5938"/><ellipse cx="804" cy="251.2422" fill="#84BE84" rx="3" ry="3" style="stroke:#038048;stroke-width:1.0;"/><text fill="#000000" font-family="sans-serif" font-size="14" lengthAdjust="spacing" textLength="95" x="813" y="254.5889">any GetData()</text></g><!--class Receiver--><g id="elem_Receiver"><rect codeLine="23" fill="#F1F1F1" height="64.2969" id="Receiver" rx="2.5" ry="2.5" style="stroke:#181818;stroke-width:0.5;" width="187" x="852.5" y="330.5"/><ellipse cx="911.75" cy="346.5" fill="#B4A7E5" rx="11" ry="11" style="stroke:#181818;stroke-width:1.0;"/><path d="M907.6719,342.2656 L907.6719,340.1094 L915.0625,340.1094 L915.0625,342.2656 L912.5938,342.2656 L912.5938,350.3438 L915.0625,350.3438 L915.0625,352.5 L907.6719,352.5 L907.6719,350.3438 L910.1406,350.3438 L910.1406,342.2656 L907.6719,342.2656 Z " fill="#000000"/><text fill="#000000" font-family="sans-serif" font-size="14" font-style="italic" lengthAdjust="spacing" textLength="60" x="932.25" y="351.3467">Receiver</text><line style="stroke:#181818;stroke-width:0.5;" x1="853.5" x2="1038.5" y1="362.5" y2="362.5"/><line style="stroke:#181818;stroke-width:0.5;" x1="853.5" x2="1038.5" y1="370.5" y2="370.5"/><ellipse cx="863.5" cy="384.1484" fill="#84BE84" rx="3" ry="3" style="stroke:#038048;stroke-width:1.0;"/><text fill="#000000" font-family="sans-serif" font-size="14" lengthAdjust="spacing" textLength="161" x="872.5" y="387.4951">error Receive(AppData)</text></g><!--class ChanReceiver--><g id="elem_ChanReceiver"><rect codeLine="26" fill="#F1F1F1" height="80.5938" id="ChanReceiver" rx="2.5" ry="2.5" style="stroke:#181818;stroke-width:0.5;" width="193" x="624.5" y="322"/><ellipse cx="668.75" cy="338" fill="#F1F1F1" rx="11" ry="11" style="stroke:#181818;stroke-width:1.0;"/><path d="M668.2344,338.5625 Q666.375,337.8594 665.7188,337.0938 Q665.0781,336.3125 665.0781,335 Q665.0781,333.3125 666.1563,332.3438 Q667.2344,331.375 669.1094,331.375 Q669.9688,331.375 670.8125,331.5781 Q671.6719,331.7656 672.5156,332.1563 L672.5156,334.5469 Q671.7344,333.9844 670.9063,333.7031 Q670.0938,333.4063 669.2969,333.4063 Q668.4219,333.4063 667.9375,333.7656 Q667.4688,334.125 667.4688,334.7813 Q667.4688,335.2969 667.8125,335.6406 Q668.1563,335.9688 669.25,336.375 L670.3125,336.7813 Q671.7969,337.3281 672.5,338.2344 Q673.2188,339.1406 673.2188,340.5156 Q673.2188,342.3906 672.1094,343.3125 Q671,344.2344 668.75,344.2344 Q667.8281,344.2344 666.9063,344.0156 Q665.9844,343.7969 665.125,343.375 L665.125,340.8438 Q666.0938,341.5313 667.0156,341.875 Q667.9375,342.2188 668.8281,342.2188 Q669.7344,342.2188 670.2344,341.8125 Q670.7344,341.3906 670.7344,340.6563 Q670.7344,340.0938 670.3906,339.6875 Q670.0625,339.2656 669.4375,339.0156 L668.2344,338.5625 Z " fill="#000000"/><text fill="#000000" font-family="sans-serif" font-size="14" lengthAdjust="spacing" textLength="96" x="689.25" y="342.8467">ChanReceiver</text><line style="stroke:#181818;stroke-width:0.5;" x1="625.5" x2="816.5" y1="354" y2="354"/><rect fill="none" height="6" style="stroke:#C82930;stroke-width:1.0;" width="6" x="632.5" y="364.6484"/><text fill="#000000" font-family="sans-serif" font-size="14" lengthAdjust="spacing" textLength="167" x="644.5" y="370.9951">chan AppData dataChan</text><line style="stroke:#181818;stroke-width:0.5;" x1="625.5" x2="816.5" y1="378.2969" y2="378.2969"/><ellipse cx="635.5" cy="391.9453" fill="#84BE84" rx="3" ry="3" style="stroke:#038048;stroke-width:1.0;"/><text fill="#000000" font-family="sans-serif" font-size="14" lengthAdjust="spacing" textLength="161" x="644.5" y="395.292">error Receive(AppData)</text></g><!--class Server--><g id="elem_Server"><rect codeLine="30" fill="#F1F1F1" height="64.2969" id="Server" rx="2.5" ry="2.5" style="stroke:#181818;stroke-width:0.5;" width="112" x="681" y="463"/><ellipse cx="712.2" cy="479" fill="#B4A7E5" rx="11" ry="11" style="stroke:#181818;stroke-width:1.0;"/><path d="M708.1219,474.7656 L708.1219,472.6094 L715.5125,472.6094 L715.5125,474.7656 L713.0438,474.7656 L713.0438,482.8438 L715.5125,482.8438 L715.5125,485 L708.1219,485 L708.1219,482.8438 L710.5906,482.8438 L710.5906,474.7656 L708.1219,474.7656 Z " fill="#000000"/><text fill="#000000" font-family="sans-serif" font-size="14" font-style="italic" lengthAdjust="spacing" textLength="44" x="729.8" y="483.8467">Server</text><line style="stroke:#181818;stroke-width:0.5;" x1="682" x2="792" y1="495" y2="495"/><line style="stroke:#181818;stroke-width:0.5;" x1="682" x2="792" y1="503" y2="503"/><ellipse cx="692" cy="516.6484" fill="#84BE84" rx="3" ry="3" style="stroke:#038048;stroke-width:1.0;"/><text fill="#000000" font-family="sans-serif" font-size="14" lengthAdjust="spacing" textLength="86" x="701" y="519.9951">error Serve()</text></g><!--class Pullable--><g id="elem_Pullable"><rect codeLine="33" fill="#F1F1F1" height="64.2969" id="Pullable" rx="2.5" ry="2.5" style="stroke:#181818;stroke-width:0.5;" width="227" x="418.5" y="463"/><ellipse cx="501.25" cy="479" fill="#B4A7E5" rx="11" ry="11" style="stroke:#181818;stroke-width:1.0;"/><path d="M497.1719,474.7656 L497.1719,472.6094 L504.5625,472.6094 L504.5625,474.7656 L502.0938,474.7656 L502.0938,482.8438 L504.5625,482.8438 L504.5625,485 L497.1719,485 L497.1719,482.8438 L499.6406,482.8438 L499.6406,474.7656 L497.1719,474.7656 Z " fill="#000000"/><text fill="#000000" font-family="sans-serif" font-size="14" font-style="italic" lengthAdjust="spacing" textLength="53" x="521.75" y="483.8467">Pullable</text><line style="stroke:#181818;stroke-width:0.5;" x1="419.5" x2="644.5" y1="495" y2="495"/><line style="stroke:#181818;stroke-width:0.5;" x1="419.5" x2="644.5" y1="503" y2="503"/><ellipse cx="429.5" cy="516.6484" fill="#84BE84" rx="3" ry="3" style="stroke:#038048;stroke-width:1.0;"/><text fill="#000000" font-family="sans-serif" font-size="14" lengthAdjust="spacing" textLength="201" x="438.5" y="519.9951">error AddReceiver(*Receiver)</text></g><!--class Pushable--><g id="elem_Pushable"><rect codeLine="36" fill="#F1F1F1" height="64.2969" id="Pushable" rx="2.5" ry="2.5" style="stroke:#181818;stroke-width:0.5;" width="185" x="853.5" y="463"/><ellipse cx="909.75" cy="479" fill="#B4A7E5" rx="11" ry="11" style="stroke:#181818;stroke-width:1.0;"/><path d="M905.6719,474.7656 L905.6719,472.6094 L913.0625,472.6094 L913.0625,474.7656 L910.5938,474.7656 L910.5938,482.8438 L913.0625,482.8438 L913.0625,485 L905.6719,485 L905.6719,482.8438 L908.1406,482.8438 L908.1406,474.7656 L905.6719,474.7656 Z " fill="#000000"/><text fill="#000000" font-family="sans-serif" font-size="14" font-style="italic" lengthAdjust="spacing" textLength="64" x="930.25" y="483.8467">Pushable</text><line style="stroke:#181818;stroke-width:0.5;" x1="854.5" x2="1037.5" y1="495" y2="495"/><line style="stroke:#181818;stroke-width:0.5;" x1="854.5" x2="1037.5" y1="503" y2="503"/><ellipse cx="864.5" cy="516.6484" fill="#84BE84" rx="3" ry="3" style="stroke:#038048;stroke-width:1.0;"/><text fill="#000000" font-family="sans-serif" font-size="14" lengthAdjust="spacing" textLength="159" x="873.5" y="519.9951">Receiver GetReceiver()</text></g><!--class SourceServer--><g id="elem_SourceServer"><rect codeLine="39" fill="#F1F1F1" height="80.5938" id="SourceServer" rx="2.5" ry="2.5" style="stroke:#181818;stroke-width:0.5;" width="220" x="347" y="595"/><ellipse cx="406.25" cy="611" fill="#B4A7E5" rx="11" ry="11" style="stroke:#181818;stroke-width:1.0;"/><path d="M402.1719,606.7656 L402.1719,604.6094 L409.5625,604.6094 L409.5625,606.7656 L407.0938,606.7656 L407.0938,614.8438 L409.5625,614.8438 L409.5625,617 L402.1719,617 L402.1719,614.8438 L404.6406,614.8438 L404.6406,606.7656 L402.1719,606.7656 Z " fill="#000000"/><text fill="#000000" font-family="sans-serif" font-size="14" font-style="italic" lengthAdjust="spacing" textLength="93" x="426.75" y="615.8467">SourceServer</text><line style="stroke:#181818;stroke-width:0.5;" x1="348" x2="566" y1="627" y2="627"/><line style="stroke:#181818;stroke-width:0.5;" x1="348" x2="566" y1="635" y2="635"/><ellipse cx="358" cy="648.6484" fill="#84BE84" rx="3" ry="3" style="stroke:#038048;stroke-width:1.0;"/><text fill="#000000" font-family="sans-serif" font-size="14" lengthAdjust="spacing" textLength="194" x="367" y="651.9951">error AddReceiver(Receiver)</text><ellipse cx="358" cy="664.9453" fill="#84BE84" rx="3" ry="3" style="stroke:#038048;stroke-width:1.0;"/><text fill="#000000" font-family="sans-serif" font-size="14" lengthAdjust="spacing" textLength="86" x="367" y="668.292">error Serve()</text></g><!--class SinkServer--><g id="elem_SinkServer"><rect codeLine="43" fill="#F1F1F1" height="80.5938" id="SinkServer" rx="2.5" ry="2.5" style="stroke:#181818;stroke-width:0.5;" width="185" x="857.5" y="595"/><ellipse cx="909.25" cy="611" fill="#B4A7E5" rx="11" ry="11" style="stroke:#181818;stroke-width:1.0;"/><path d="M905.1719,606.7656 L905.1719,604.6094 L912.5625,604.6094 L912.5625,606.7656 L910.0938,606.7656 L910.0938,614.8438 L912.5625,614.8438 L912.5625,617 L905.1719,617 L905.1719,614.8438 L907.6406,614.8438 L907.6406,606.7656 L905.1719,606.7656 Z " fill="#000000"/><text fill="#000000" font-family="sans-serif" font-size="14" font-style="italic" lengthAdjust="spacing" textLength="73" x="929.75" y="615.8467">SinkServer</text><line style="stroke:#181818;stroke-width:0.5;" x1="858.5" x2="1041.5" y1="627" y2="627"/><line style="stroke:#181818;stroke-width:0.5;" x1="858.5" x2="1041.5" y1="635" y2="635"/><ellipse cx="868.5" cy="648.6484" fill="#84BE84" rx="3" ry="3" style="stroke:#038048;stroke-width:1.0;"/><text fill="#000000" font-family="sans-serif" font-size="14" lengthAdjust="spacing" textLength="159" x="877.5" y="651.9951">Receiver GetReceiver()</text><ellipse cx="868.5" cy="664.9453" fill="#84BE84" rx="3" ry="3" style="stroke:#038048;stroke-width:1.0;"/><text fill="#000000" font-family="sans-serif" font-size="14" lengthAdjust="spacing" textLength="86" x="877.5" y="668.292">error Serve()</text></g><!--class PipeServer--><g id="elem_PipeServer"><rect codeLine="47" fill="#F1F1F1" height="96.8906" id="PipeServer" rx="2.5" ry="2.5" style="stroke:#181818;stroke-width:0.5;" width="220" x="602" y="587"/><ellipse cx="670.75" cy="603" fill="#B4A7E5" rx="11" ry="11" style="stroke:#181818;stroke-width:1.0;"/><path d="M666.6719,598.7656 L666.6719,596.6094 L674.0625,596.6094 L674.0625,598.7656 L671.5938,598.7656 L671.5938,606.8438 L674.0625,606.8438 L674.0625,609 L666.6719,609 L666.6719,606.8438 L669.1406,606.8438 L669.1406,598.7656 L666.6719,598.7656 Z " fill="#000000"/><text fill="#000000" font-family="sans-serif" font-size="14" font-style="italic" lengthAdjust="spacing" textLength="74" x="691.25" y="607.8467">PipeServer</text><line style="stroke:#181818;stroke-width:0.5;" x1="603" x2="821" y1="619" y2="619"/><line style="stroke:#181818;stroke-width:0.5;" x1="603" x2="821" y1="627" y2="627"/><ellipse cx="613" cy="640.6484" fill="#84BE84" rx="3" ry="3" style="stroke:#038048;stroke-width:1.0;"/><text fill="#000000" font-family="sans-serif" font-size="14" lengthAdjust="spacing" textLength="194" x="622" y="643.9951">error AddReceiver(Receiver)</text><ellipse cx="613" cy="656.9453" fill="#84BE84" rx="3" ry="3" style="stroke:#038048;stroke-width:1.0;"/><text fill="#000000" font-family="sans-serif" font-size="14" lengthAdjust="spacing" textLength="159" x="622" y="660.292">Receiver GetReceiver()</text><ellipse cx="613" cy="673.2422" fill="#84BE84" rx="3" ry="3" style="stroke:#038048;stroke-width:1.0;"/><text fill="#000000" font-family="sans-serif" font-size="14" lengthAdjust="spacing" textLength="86" x="622" y="676.5889">error Serve()</text></g><!--class ProducerResponse--><g id="elem_ProducerResponse"><rect codeLine="52" fill="#F1F1F1" height="80.5938" id="ProducerResponse" rx="2.5" ry="2.5" style="stroke:#181818;stroke-width:0.5;" width="166" x="638" y="966"/><ellipse cx="653" cy="982" fill="#F1F1F1" rx="11" ry="11" style="stroke:#181818;stroke-width:1.0;"/><path d="M652.4844,982.5625 Q650.625,981.8594 649.9688,981.0938 Q649.3281,980.3125 649.3281,979 Q649.3281,977.3125 650.4063,976.3438 Q651.4844,975.375 653.3594,975.375 Q654.2188,975.375 655.0625,975.5781 Q655.9219,975.7656 656.7656,976.1563 L656.7656,978.5469 Q655.9844,977.9844 655.1563,977.7031 Q654.3438,977.4063 653.5469,977.4063 Q652.6719,977.4063 652.1875,977.7656 Q651.7188,978.125 651.7188,978.7813 Q651.7188,979.2969 652.0625,979.6406 Q652.4063,979.9688 653.5,980.375 L654.5625,980.7813 Q656.0469,981.3281 656.75,982.2344 Q657.4688,983.1406 657.4688,984.5156 Q657.4688,986.3906 656.3594,987.3125 Q655.25,988.2344 653,988.2344 Q652.0781,988.2344 651.1563,988.0156 Q650.2344,987.7969 649.375,987.375 L649.375,984.8438 Q650.3438,985.5313 651.2656,985.875 Q652.1875,986.2188 653.0781,986.2188 Q653.9844,986.2188 654.4844,985.8125 Q654.9844,985.3906 654.9844,984.6563 Q654.9844,984.0938 654.6406,983.6875 Q654.3125,983.2656 653.6875,983.0156 L652.4844,982.5625 Z " fill="#000000"/><text fill="#000000" font-family="sans-serif" font-size="14" lengthAdjust="spacing" textLength="134" x="667" y="986.8467">ProducerResponse</text><line style="stroke:#181818;stroke-width:0.5;" x1="639" x2="803" y1="998" y2="998"/><rect fill="none" height="6" style="stroke:#C82930;stroke-width:1.0;" width="6" x="646" y="1008.6484"/><text fill="#000000" font-family="sans-serif" font-size="14" lengthAdjust="spacing" textLength="70" x="658" y="1014.9951">error error</text><line style="stroke:#181818;stroke-width:0.5;" x1="639" x2="803" y1="1022.2969" y2="1022.2969"/><ellipse cx="649" cy="1035.9453" fill="#84BE84" rx="3" ry="3" style="stroke:#038048;stroke-width:1.0;"/><text fill="#000000" font-family="sans-serif" font-size="14" lengthAdjust="spacing" textLength="105" x="658" y="1039.292">error GetError()</text></g><!--class Producer--><g id="elem_Producer"><rect codeLine="56" fill="#F1F1F1" height="113.1875" id="Producer" rx="2.5" ry="2.5" style="stroke:#181818;stroke-width:0.5;" width="246" x="839" y="950"/><ellipse cx="926.25" cy="966" fill="#B4A7E5" rx="11" ry="11" style="stroke:#181818;stroke-width:1.0;"/><path d="M922.1719,961.7656 L922.1719,959.6094 L929.5625,959.6094 L929.5625,961.7656 L927.0938,961.7656 L927.0938,969.8438 L929.5625,969.8438 L929.5625,972 L922.1719,972 L922.1719,969.8438 L924.6406,969.8438 L924.6406,961.7656 L922.1719,961.7656 Z " fill="#000000"/><text fill="#000000" font-family="sans-serif" font-size="14" font-style="italic" lengthAdjust="spacing" textLength="63" x="946.75" y="970.8467">Producer</text><line style="stroke:#181818;stroke-width:0.5;" x1="840" x2="1084" y1="982" y2="982"/><line style="stroke:#181818;stroke-width:0.5;" x1="840" x2="1084" y1="990" y2="990"/><ellipse cx="850" cy="1003.6484" fill="#84BE84" rx="3" ry="3" style="stroke:#038048;stroke-width:1.0;"/><text fill="#000000" font-family="sans-serif" font-size="14" lengthAdjust="spacing" textLength="220" x="859" y="1006.9951">ProducerInstance GetInstance()</text><ellipse cx="850" cy="1019.9453" fill="#84BE84" rx="3" ry="3" style="stroke:#038048;stroke-width:1.0;"/><text fill="#000000" font-family="sans-serif" font-size="14" lengthAdjust="spacing" textLength="195" x="859" y="1023.292">error Setup(ProducerConfig)</text><ellipse cx="850" cy="1036.2422" fill="#84BE84" rx="3" ry="3" style="stroke:#038048;stroke-width:1.0;"/><text fill="#000000" font-family="sans-serif" font-size="14" lengthAdjust="spacing" textLength="79" x="859" y="1039.5889">error Start()</text><ellipse cx="850" cy="1052.5391" fill="#84BE84" rx="3" ry="3" style="stroke:#038048;stroke-width:1.0;"/><text fill="#000000" font-family="sans-serif" font-size="14" lengthAdjust="spacing" textLength="208" x="859" y="1055.8857">ProducerResponse Send(any)</text></g><!--class Consumer--><g id="elem_Consumer"><rect codeLine="62" fill="#F1F1F1" height="96.8906" id="Consumer" rx="2.5" ry="2.5" style="stroke:#181818;stroke-width:0.5;" width="230" x="342" y="768.5"/><ellipse cx="416.75" cy="784.5" fill="#B4A7E5" rx="11" ry="11" style="stroke:#181818;stroke-width:1.0;"/><path d="M412.6719,780.2656 L412.6719,778.1094 L420.0625,778.1094 L420.0625,780.2656 L417.5938,780.2656 L417.5938,788.3438 L420.0625,788.3438 L420.0625,790.5 L412.6719,790.5 L412.6719,788.3438 L415.1406,788.3438 L415.1406,780.2656 L412.6719,780.2656 Z " fill="#000000"/><text fill="#000000" font-family="sans-serif" font-size="14" font-style="italic" lengthAdjust="spacing" textLength="72" x="437.25" y="789.3467">Consumer</text><line style="stroke:#181818;stroke-width:0.5;" x1="343" x2="571" y1="800.5" y2="800.5"/><line style="stroke:#181818;stroke-width:0.5;" x1="343" x2="571" y1="808.5" y2="808.5"/><ellipse cx="353" cy="822.1484" fill="#84BE84" rx="3" ry="3" style="stroke:#038048;stroke-width:1.0;"/><text fill="#000000" font-family="sans-serif" font-size="14" lengthAdjust="spacing" textLength="194" x="362" y="825.4951">error AddReceiver(Receiver)</text><ellipse cx="353" cy="838.4453" fill="#84BE84" rx="3" ry="3" style="stroke:#038048;stroke-width:1.0;"/><text fill="#000000" font-family="sans-serif" font-size="14" lengthAdjust="spacing" textLength="204" x="362" y="841.792">error Setup(ConsumerConfig)</text><ellipse cx="353" cy="854.7422" fill="#84BE84" rx="3" ry="3" style="stroke:#038048;stroke-width:1.0;"/><text fill="#000000" font-family="sans-serif" font-size="14" lengthAdjust="spacing" textLength="86" x="362" y="858.0889">error Serve()</text></g><!--class KafkaConsumer--><g id="elem_KafkaConsumer"><rect codeLine="67" fill="#F1F1F1" height="96.8906" id="KafkaConsumer" rx="2.5" ry="2.5" style="stroke:#181818;stroke-width:0.5;" width="258" x="345" y="958"/><ellipse cx="415.25" cy="974" fill="#F1F1F1" rx="11" ry="11" style="stroke:#181818;stroke-width:1.0;"/><path d="M414.7344,974.5625 Q412.875,973.8594 412.2188,973.0938 Q411.5781,972.3125 411.5781,971 Q411.5781,969.3125 412.6563,968.3438 Q413.7344,967.375 415.6094,967.375 Q416.4688,967.375 417.3125,967.5781 Q418.1719,967.7656 419.0156,968.1563 L419.0156,970.5469 Q418.2344,969.9844 417.4063,969.7031 Q416.5938,969.4063 415.7969,969.4063 Q414.9219,969.4063 414.4375,969.7656 Q413.9688,970.125 413.9688,970.7813 Q413.9688,971.2969 414.3125,971.6406 Q414.6563,971.9688 415.75,972.375 L416.8125,972.7813 Q418.2969,973.3281 419,974.2344 Q419.7188,975.1406 419.7188,976.5156 Q419.7188,978.3906 418.6094,979.3125 Q417.5,980.2344 415.25,980.2344 Q414.3281,980.2344 413.4063,980.0156 Q412.4844,979.7969 411.625,979.375 L411.625,976.8438 Q412.5938,977.5313 413.5156,977.875 Q414.4375,978.2188 415.3281,978.2188 Q416.2344,978.2188 416.7344,977.8125 Q417.2344,977.3906 417.2344,976.6563 Q417.2344,976.0938 416.8906,975.6875 Q416.5625,975.2656 415.9375,975.0156 L414.7344,974.5625 Z " fill="#000000"/><text fill="#000000" font-family="sans-serif" font-size="14" lengthAdjust="spacing" textLength="109" x="435.75" y="978.8467">KafkaConsumer</text><line style="stroke:#181818;stroke-width:0.5;" x1="346" x2="602" y1="990" y2="990"/><line style="stroke:#181818;stroke-width:0.5;" x1="346" x2="602" y1="998" y2="998"/><ellipse cx="356" cy="1011.6484" fill="#84BE84" rx="3" ry="3" style="stroke:#038048;stroke-width:1.0;"/><text fill="#000000" font-family="sans-serif" font-size="14" lengthAdjust="spacing" textLength="194" x="365" y="1014.9951">error AddReceiver(Receiver)</text><ellipse cx="356" cy="1027.9453" fill="#84BE84" rx="3" ry="3" style="stroke:#038048;stroke-width:1.0;"/><text fill="#000000" font-family="sans-serif" font-size="14" lengthAdjust="spacing" textLength="232" x="365" y="1031.292">error Setup(KafkaConsumerCofig)</text><ellipse cx="356" cy="1044.2422" fill="#84BE84" rx="3" ry="3" style="stroke:#038048;stroke-width:1.0;"/><text fill="#000000" font-family="sans-serif" font-size="14" lengthAdjust="spacing" textLength="86" x="365" y="1047.5889">error Serve()</text></g><!--class KafkaProducer--><g id="elem_KafkaProducer"><rect codeLine="72" fill="#F1F1F1" height="96.8906" id="KafkaProducer" rx="2.5" ry="2.5" style="stroke:#181818;stroke-width:0.5;" width="258" x="827" y="1123"/><ellipse cx="901.75" cy="1139" fill="#F1F1F1" rx="11" ry="11" style="stroke:#181818;stroke-width:1.0;"/><path d="M901.2344,1139.5625 Q899.375,1138.8594 898.7188,1138.0938 Q898.0781,1137.3125 898.0781,1136 Q898.0781,1134.3125 899.1563,1133.3438 Q900.2344,1132.375 902.1094,1132.375 Q902.9688,1132.375 903.8125,1132.5781 Q904.6719,1132.7656 905.5156,1133.1563 L905.5156,1135.5469 Q904.7344,1134.9844 903.9063,1134.7031 Q903.0938,1134.4063 902.2969,1134.4063 Q901.4219,1134.4063 900.9375,1134.7656 Q900.4688,1135.125 900.4688,1135.7813 Q900.4688,1136.2969 900.8125,1136.6406 Q901.1563,1136.9688 902.25,1137.375 L903.3125,1137.7813 Q904.7969,1138.3281 905.5,1139.2344 Q906.2188,1140.1406 906.2188,1141.5156 Q906.2188,1143.3906 905.1094,1144.3125 Q904,1145.2344 901.75,1145.2344 Q900.8281,1145.2344 899.9063,1145.0156 Q898.9844,1144.7969 898.125,1144.375 L898.125,1141.8438 Q899.0938,1142.5313 900.0156,1142.875 Q900.9375,1143.2188 901.8281,1143.2188 Q902.7344,1143.2188 903.2344,1142.8125 Q903.7344,1142.3906 903.7344,1141.6563 Q903.7344,1141.0938 903.3906,1140.6875 Q903.0625,1140.2656 902.4375,1140.0156 L901.2344,1139.5625 Z " fill="#000000"/><text fill="#000000" font-family="sans-serif" font-size="14" lengthAdjust="spacing" textLength="100" x="922.25" y="1143.8467">KafkaProducer</text><line style="stroke:#181818;stroke-width:0.5;" x1="828" x2="1084" y1="1155" y2="1155"/><line style="stroke:#181818;stroke-width:0.5;" x1="828" x2="1084" y1="1163" y2="1163"/><ellipse cx="838" cy="1176.6484" fill="#84BE84" rx="3" ry="3" style="stroke:#038048;stroke-width:1.0;"/><text fill="#000000" font-family="sans-serif" font-size="14" lengthAdjust="spacing" textLength="232" x="847" y="1179.9951">error Setup(KafkaProducerConfig)</text><ellipse cx="838" cy="1192.9453" fill="#84BE84" rx="3" ry="3" style="stroke:#038048;stroke-width:1.0;"/><text fill="#000000" font-family="sans-serif" font-size="14" lengthAdjust="spacing" textLength="79" x="847" y="1196.292">error Start()</text><ellipse cx="838" cy="1209.2422" fill="#84BE84" rx="3" ry="3" style="stroke:#038048;stroke-width:1.0;"/><text fill="#000000" font-family="sans-serif" font-size="14" lengthAdjust="spacing" textLength="208" x="847" y="1212.5889">ProducerResponse Send(any)</text></g><!--class ProducerServer--><g id="elem_ProducerServer"><rect codeLine="77" fill="#F1F1F1" height="113.1875" id="ProducerServer" rx="2.5" ry="2.5" style="stroke:#181818;stroke-width:0.5;" width="264" x="821" y="760.5"/><ellipse cx="895.25" cy="776.5" fill="#F1F1F1" rx="11" ry="11" style="stroke:#181818;stroke-width:1.0;"/><path d="M894.7344,777.0625 Q892.875,776.3594 892.2188,775.5938 Q891.5781,774.8125 891.5781,773.5 Q891.5781,771.8125 892.6563,770.8438 Q893.7344,769.875 895.6094,769.875 Q896.4688,769.875 897.3125,770.0781 Q898.1719,770.2656 899.0156,770.6563 L899.0156,773.0469 Q898.2344,772.4844 897.4063,772.2031 Q896.5938,771.9063 895.7969,771.9063 Q894.9219,771.9063 894.4375,772.2656 Q893.9688,772.625 893.9688,773.2813 Q893.9688,773.7969 894.3125,774.1406 Q894.6563,774.4688 895.75,774.875 L896.8125,775.2813 Q898.2969,775.8281 899,776.7344 Q899.7188,777.6406 899.7188,779.0156 Q899.7188,780.8906 898.6094,781.8125 Q897.5,782.7344 895.25,782.7344 Q894.3281,782.7344 893.4063,782.5156 Q892.4844,782.2969 891.625,781.875 L891.625,779.3438 Q892.5938,780.0313 893.5156,780.375 Q894.4375,780.7188 895.3281,780.7188 Q896.2344,780.7188 896.7344,780.3125 Q897.2344,779.8906 897.2344,779.1563 Q897.2344,778.5938 896.8906,778.1875 Q896.5625,777.7656 895.9375,777.5156 L894.7344,777.0625 Z " fill="#000000"/><text fill="#000000" font-family="sans-serif" font-size="14" lengthAdjust="spacing" textLength="107" x="915.75" y="781.3467">ProducerServer</text><line style="stroke:#181818;stroke-width:0.5;" x1="822" x2="1084" y1="792.5" y2="792.5"/><rect fill="none" height="6" style="stroke:#C82930;stroke-width:1.0;" width="6" x="829" y="803.1484"/><text fill="#000000" font-family="sans-serif" font-size="14" lengthAdjust="spacing" textLength="238" x="841" y="809.4951">map[string]Producer producerMap</text><rect fill="none" height="6" style="stroke:#C82930;stroke-width:1.0;" width="6" x="829" y="819.4453"/><text fill="#000000" font-family="sans-serif" font-size="14" lengthAdjust="spacing" textLength="119" x="841" y="825.792">Receiver receiver</text><line style="stroke:#181818;stroke-width:0.5;" x1="822" x2="1084" y1="833.0938" y2="833.0938"/><ellipse cx="832" cy="846.7422" fill="#84BE84" rx="3" ry="3" style="stroke:#038048;stroke-width:1.0;"/><text fill="#000000" font-family="sans-serif" font-size="14" lengthAdjust="spacing" textLength="159" x="841" y="850.0889">Receiver GetReceiver()</text><ellipse cx="832" cy="863.0391" fill="#84BE84" rx="3" ry="3" style="stroke:#038048;stroke-width:1.0;"/><text fill="#000000" font-family="sans-serif" font-size="14" lengthAdjust="spacing" textLength="86" x="841" y="866.3857">error Serve()</text></g><!--class ConsumerServer--><g id="elem_ConsumerServer"><rect codeLine="83" fill="#F1F1F1" height="96.8906" id="ConsumerServer" rx="2.5" ry="2.5" style="stroke:#181818;stroke-width:0.5;" width="288" x="22" y="958"/><ellipse cx="103.75" cy="974" fill="#F1F1F1" rx="11" ry="11" style="stroke:#181818;stroke-width:1.0;"/><path d="M103.2344,974.5625 Q101.375,973.8594 100.7188,973.0938 Q100.0781,972.3125 100.0781,971 Q100.0781,969.3125 101.1563,968.3438 Q102.2344,967.375 104.1094,967.375 Q104.9688,967.375 105.8125,967.5781 Q106.6719,967.7656 107.5156,968.1563 L107.5156,970.5469 Q106.7344,969.9844 105.9063,969.7031 Q105.0938,969.4063 104.2969,969.4063 Q103.4219,969.4063 102.9375,969.7656 Q102.4688,970.125 102.4688,970.7813 Q102.4688,971.2969 102.8125,971.6406 Q103.1563,971.9688 104.25,972.375 L105.3125,972.7813 Q106.7969,973.3281 107.5,974.2344 Q108.2188,975.1406 108.2188,976.5156 Q108.2188,978.3906 107.1094,979.3125 Q106,980.2344 103.75,980.2344 Q102.8281,980.2344 101.9063,980.0156 Q100.9844,979.7969 100.125,979.375 L100.125,976.8438 Q101.0938,977.5313 102.0156,977.875 Q102.9375,978.2188 103.8281,978.2188 Q104.7344,978.2188 105.2344,977.8125 Q105.7344,977.3906 105.7344,976.6563 Q105.7344,976.0938 105.3906,975.6875 Q105.0625,975.2656 104.4375,975.0156 L103.2344,974.5625 Z " fill="#000000"/><text fill="#000000" font-family="sans-serif" font-size="14" lengthAdjust="spacing" textLength="116" x="124.25" y="978.8467">ConsumerServer</text><line style="stroke:#181818;stroke-width:0.5;" x1="23" x2="309" y1="990" y2="990"/><rect fill="none" height="6" style="stroke:#C82930;stroke-width:1.0;" width="6" x="30" y="1000.6484"/><text fill="#000000" font-family="sans-serif" font-size="14" lengthAdjust="spacing" textLength="262" x="42" y="1006.9951">map[string]Consumer consumersMap</text><line style="stroke:#181818;stroke-width:0.5;" x1="23" x2="309" y1="1014.2969" y2="1014.2969"/><ellipse cx="33" cy="1027.9453" fill="#84BE84" rx="3" ry="3" style="stroke:#038048;stroke-width:1.0;"/><text fill="#000000" font-family="sans-serif" font-size="14" lengthAdjust="spacing" textLength="194" x="42" y="1031.292">error AddReceiver(Receiver)</text><ellipse cx="33" cy="1044.2422" fill="#84BE84" rx="3" ry="3" style="stroke:#038048;stroke-width:1.0;"/><text fill="#000000" font-family="sans-serif" font-size="14" lengthAdjust="spacing" textLength="86" x="42" y="1047.5889">error Serve()</text></g><!--class KafkaConsumerCofig--><g id="elem_KafkaConsumerCofig"><rect codeLine="88" fill="#F1F1F1" height="48" id="KafkaConsumerCofig" rx="2.5" ry="2.5" style="stroke:#181818;stroke-width:0.5;" width="176" x="386" y="1147.5"/><ellipse cx="401" cy="1163.5" fill="#F1F1F1" rx="11" ry="11" style="stroke:#181818;stroke-width:1.0;"/><path d="M400.4844,1164.0625 Q398.625,1163.3594 397.9688,1162.5938 Q397.3281,1161.8125 397.3281,1160.5 Q397.3281,1158.8125 398.4063,1157.8438 Q399.4844,1156.875 401.3594,1156.875 Q402.2188,1156.875 403.0625,1157.0781 Q403.9219,1157.2656 404.7656,1157.6563 L404.7656,1160.0469 Q403.9844,1159.4844 403.1563,1159.2031 Q402.3438,1158.9063 401.5469,1158.9063 Q400.6719,1158.9063 400.1875,1159.2656 Q399.7188,1159.625 399.7188,1160.2813 Q399.7188,1160.7969 400.0625,1161.1406 Q400.4063,1161.4688 401.5,1161.875 L402.5625,1162.2813 Q404.0469,1162.8281 404.75,1163.7344 Q405.4688,1164.6406 405.4688,1166.0156 Q405.4688,1167.8906 404.3594,1168.8125 Q403.25,1169.7344 401,1169.7344 Q400.0781,1169.7344 399.1563,1169.5156 Q398.2344,1169.2969 397.375,1168.875 L397.375,1166.3438 Q398.3438,1167.0313 399.2656,1167.375 Q400.1875,1167.7188 401.0781,1167.7188 Q401.9844,1167.7188 402.4844,1167.3125 Q402.9844,1166.8906 402.9844,1166.1563 Q402.9844,1165.5938 402.6406,1165.1875 Q402.3125,1164.7656 401.6875,1164.5156 L400.4844,1164.0625 Z " fill="#000000"/><text fill="#000000" font-family="sans-serif" font-size="14" lengthAdjust="spacing" textLength="144" x="415" y="1168.3467">KafkaConsumerCofig</text><line style="stroke:#181818;stroke-width:0.5;" x1="387" x2="561" y1="1179.5" y2="1179.5"/><line style="stroke:#181818;stroke-width:0.5;" x1="387" x2="561" y1="1187.5" y2="1187.5"/></g><!--class KafkaProducerConfig--><g id="elem_KafkaProducerConfig"><rect codeLine="89" fill="#F1F1F1" height="48" id="KafkaProducerConfig" rx="2.5" ry="2.5" style="stroke:#181818;stroke-width:0.5;" width="176" x="868" y="1280"/><ellipse cx="883" cy="1296" fill="#F1F1F1" rx="11" ry="11" style="stroke:#181818;stroke-width:1.0;"/><path d="M882.4844,1296.5625 Q880.625,1295.8594 879.9688,1295.0938 Q879.3281,1294.3125 879.3281,1293 Q879.3281,1291.3125 880.4063,1290.3438 Q881.4844,1289.375 883.3594,1289.375 Q884.2188,1289.375 885.0625,1289.5781 Q885.9219,1289.7656 886.7656,1290.1563 L886.7656,1292.5469 Q885.9844,1291.9844 885.1563,1291.7031 Q884.3438,1291.4063 883.5469,1291.4063 Q882.6719,1291.4063 882.1875,1291.7656 Q881.7188,1292.125 881.7188,1292.7813 Q881.7188,1293.2969 882.0625,1293.6406 Q882.4063,1293.9688 883.5,1294.375 L884.5625,1294.7813 Q886.0469,1295.3281 886.75,1296.2344 Q887.4688,1297.1406 887.4688,1298.5156 Q887.4688,1300.3906 886.3594,1301.3125 Q885.25,1302.2344 883,1302.2344 Q882.0781,1302.2344 881.1563,1302.0156 Q880.2344,1301.7969 879.375,1301.375 L879.375,1298.8438 Q880.3438,1299.5313 881.2656,1299.875 Q882.1875,1300.2188 883.0781,1300.2188 Q883.9844,1300.2188 884.4844,1299.8125 Q884.9844,1299.3906 884.9844,1298.6563 Q884.9844,1298.0938 884.6406,1297.6875 Q884.3125,1297.2656 883.6875,1297.0156 L882.4844,1296.5625 Z " fill="#000000"/><text fill="#000000" font-family="sans-serif" font-size="14" lengthAdjust="spacing" textLength="144" x="897" y="1300.8467">KafkaProducerConfig</text><line style="stroke:#181818;stroke-width:0.5;" x1="869" x2="1043" y1="1312" y2="1312"/><line style="stroke:#181818;stroke-width:0.5;" x1="869" x2="1043" y1="1320" y2="1320"/></g><!--class ProducerConfig--><g id="elem_ProducerConfig"><rect codeLine="90" fill="#F1F1F1" height="48" id="ProducerConfig" rx="2.5" ry="2.5" style="stroke:#181818;stroke-width:0.5;" width="139" x="886.5" y="1388"/><ellipse cx="901.5" cy="1404" fill="#F1F1F1" rx="11" ry="11" style="stroke:#181818;stroke-width:1.0;"/><path d="M900.9844,1404.5625 Q899.125,1403.8594 898.4688,1403.0938 Q897.8281,1402.3125 897.8281,1401 Q897.8281,1399.3125 898.9063,1398.3438 Q899.9844,1397.375 901.8594,1397.375 Q902.7188,1397.375 903.5625,1397.5781 Q904.4219,1397.7656 905.2656,1398.1563 L905.2656,1400.5469 Q904.4844,1399.9844 903.6563,1399.7031 Q902.8438,1399.4063 902.0469,1399.4063 Q901.1719,1399.4063 900.6875,1399.7656 Q900.2188,1400.125 900.2188,1400.7813 Q900.2188,1401.2969 900.5625,1401.6406 Q900.9063,1401.9688 902,1402.375 L903.0625,1402.7813 Q904.5469,1403.3281 905.25,1404.2344 Q905.9688,1405.1406 905.9688,1406.5156 Q905.9688,1408.3906 904.8594,1409.3125 Q903.75,1410.2344 901.5,1410.2344 Q900.5781,1410.2344 899.6563,1410.0156 Q898.7344,1409.7969 897.875,1409.375 L897.875,1406.8438 Q898.8438,1407.5313 899.7656,1407.875 Q900.6875,1408.2188 901.5781,1408.2188 Q902.4844,1408.2188 902.9844,1407.8125 Q903.4844,1407.3906 903.4844,1406.6563 Q903.4844,1406.0938 903.1406,1405.6875 Q902.8125,1405.2656 902.1875,1405.0156 L900.9844,1404.5625 Z " fill="#000000"/><text fill="#000000" font-family="sans-serif" font-size="14" lengthAdjust="spacing" textLength="107" x="915.5" y="1408.8467">ProducerConfig</text><line style="stroke:#181818;stroke-width:0.5;" x1="887.5" x2="1024.5" y1="1420" y2="1420"/><line style="stroke:#181818;stroke-width:0.5;" x1="887.5" x2="1024.5" y1="1428" y2="1428"/></g><!--class ConsumerConfig--><g id="elem_ConsumerConfig"><rect codeLine="91" fill="#F1F1F1" height="48" id="ConsumerConfig" rx="2.5" ry="2.5" style="stroke:#181818;stroke-width:0.5;" width="148" x="400" y="1280"/><ellipse cx="415" cy="1296" fill="#F1F1F1" rx="11" ry="11" style="stroke:#181818;stroke-width:1.0;"/><path d="M414.4844,1296.5625 Q412.625,1295.8594 411.9688,1295.0938 Q411.3281,1294.3125 411.3281,1293 Q411.3281,1291.3125 412.4063,1290.3438 Q413.4844,1289.375 415.3594,1289.375 Q416.2188,1289.375 417.0625,1289.5781 Q417.9219,1289.7656 418.7656,1290.1563 L418.7656,1292.5469 Q417.9844,1291.9844 417.1563,1291.7031 Q416.3438,1291.4063 415.5469,1291.4063 Q414.6719,1291.4063 414.1875,1291.7656 Q413.7188,1292.125 413.7188,1292.7813 Q413.7188,1293.2969 414.0625,1293.6406 Q414.4063,1293.9688 415.5,1294.375 L416.5625,1294.7813 Q418.0469,1295.3281 418.75,1296.2344 Q419.4688,1297.1406 419.4688,1298.5156 Q419.4688,1300.3906 418.3594,1301.3125 Q417.25,1302.2344 415,1302.2344 Q414.0781,1302.2344 413.1563,1302.0156 Q412.2344,1301.7969 411.375,1301.375 L411.375,1298.8438 Q412.3438,1299.5313 413.2656,1299.875 Q414.1875,1300.2188 415.0781,1300.2188 Q415.9844,1300.2188 416.4844,1299.8125 Q416.9844,1299.3906 416.9844,1298.6563 Q416.9844,1298.0938 416.6406,1297.6875 Q416.3125,1297.2656 415.6875,1297.0156 L414.4844,1296.5625 Z " fill="#000000"/><text fill="#000000" font-family="sans-serif" font-size="14" lengthAdjust="spacing" textLength="116" x="429" y="1300.8467">ConsumerConfig</text><line style="stroke:#181818;stroke-width:0.5;" x1="401" x2="547" y1="1312" y2="1312"/><line style="stroke:#181818;stroke-width:0.5;" x1="401" x2="547" y1="1320" y2="1320"/></g><!--reverse link CompletionHandler to AppData--><g id="link_CompletionHandler_AppData"><path codeLine="93" d="M939,117.08 C939,134.71 939,145.13 939,164.93 " fill="none" id="CompletionHandler-backto-AppData" style="stroke:#181818;stroke-width:1.0;"/><polygon fill="#181818" points="939,105.08,935,111.08,939,117.08,943,111.08,939,105.08" style="stroke:#181818;stroke-width:1.0;"/></g><!--link KafkaConsumerCompletionHandler to CompletionHandler--><g id="link_KafkaConsumerCompletionHandler_CompletionHandler"><path codeLine="94" d="M801.73,73 C813.26,73 806.79,73 818.32,73 " fill="none" id="KafkaConsumerCompletionHandler-to-CompletionHandler" style="stroke:#181818;stroke-width:1.0;"/><polygon fill="none" points="836.32,73,818.32,67,818.32,79,836.32,73" style="stroke:#181818;stroke-width:1.0;"/></g><!--reverse link AppData to Receiver--><g id="link_AppData_Receiver"><path codeLine="95" d="M941.8398,274.2165 C942.8998,296.5165 943.57,310.45 944.51,330.21 " fill="none" id="AppData-backto-Receiver" style="stroke:#181818;stroke-width:1.0;"/><polygon fill="#181818" points="941.27,262.23,937.5594,268.4132,941.8398,274.2165,945.5504,268.0333,941.27,262.23" style="stroke:#181818;stroke-width:1.0;"/></g><!--reverse link Receiver to Pullable--><g id="link_Receiver_Pullable"><path codeLine="96" d="M848.7525,398.4532 C840.2925,401.3632 843.16,400.32 835,403 C770.67,424.09 698.05,445.97 640.04,462.98 " fill="none" id="Receiver-backto-Pullable" style="stroke:#181818;stroke-width:1.0;"/><polygon fill="#181818" points="860.1,394.55,853.1252,392.7191,848.7525,398.4532,855.7273,400.2841,860.1,394.55" style="stroke:#181818;stroke-width:1.0;"/></g><!--reverse link Receiver to Pushable--><g id="link_Receiver_Pushable"><path codeLine="97" d="M946,406.76 C946,427.42 946,442.39 946,463 " fill="none" id="Receiver-backto-Pushable" style="stroke:#181818;stroke-width:1.0;"/><polygon fill="#181818" points="946,394.76,942,400.76,946,406.76,950,400.76,946,394.76" style="stroke:#181818;stroke-width:1.0;"/></g><!--link ChanReceiver to Receiver--><g id="link_ChanReceiver_Receiver"><path codeLine="98" d="M817.68,362.5 C829.21,362.5 822.74,362.5 834.27,362.5 " fill="none" id="ChanReceiver-to-Receiver" style="stroke:#181818;stroke-width:1.0;"/><polygon fill="none" points="852.27,362.5,834.27,356.5,834.27,368.5,852.27,362.5" style="stroke:#181818;stroke-width:1.0;"/></g><!--reverse link Server to SourceServer--><g id="link_Server_SourceServer"><path codeLine="99" d="M664.536,531.8408 C623.336,552.2208 583,572.18 537.11,594.88 " fill="none" id="Server-backto-SourceServer" style="stroke:#181818;stroke-width:1.0;"/><polygon fill="none" points="680.67,523.86,661.8757,526.4628,667.1963,537.2188,680.67,523.86" style="stroke:#181818;stroke-width:1.0;"/></g><!--reverse link Pullable to SourceServer--><g id="link_Pullable_SourceServer"><path codeLine="100" d="M506.5995,542.9086 C495.7595,562.9286 490.14,573.31 478.49,594.82 " fill="none" id="Pullable-backto-SourceServer" style="stroke:#181818;stroke-width:1.0;"/><polygon fill="none" points="515.17,527.08,501.3232,540.0518,511.8757,545.7655,515.17,527.08" style="stroke:#181818;stroke-width:1.0;"/></g><!--reverse link Server to SinkServer--><g id="link_Server_SinkServer"><path codeLine="101" d="M799.8905,536.892 C830.6805,556.912 855.89,573.31 888.98,594.82 " fill="none" id="Server-backto-SinkServer" style="stroke:#181818;stroke-width:1.0;"/><polygon fill="none" points="784.8,527.08,796.6199,541.9222,803.1612,531.8619,784.8,527.08" style="stroke:#181818;stroke-width:1.0;"/></g><!--reverse link Pushable to SinkServer--><g id="link_Pushable_SinkServer"><path codeLine="102" d="M947.4213,545.0725 C948.0013,565.0925 948.23,573.31 948.85,594.82 " fill="none" id="Pushable-backto-SinkServer" style="stroke:#181818;stroke-width:1.0;"/><polygon fill="none" points="946.9,527.08,941.4238,545.2462,953.4187,544.8987,946.9,527.08" style="stroke:#181818;stroke-width:1.0;"/></g><!--reverse link Pushable to PipeServer--><g id="link_Pushable_PipeServer"><path codeLine="103" d="M878.0008,536.2497 C848.2208,553.8797 825.82,567.13 792.38,586.93 " fill="none" id="Pushable-backto-PipeServer" style="stroke:#181818;stroke-width:1.0;"/><polygon fill="none" points="893.49,527.08,874.9442,531.0867,881.0574,541.4128,893.49,527.08" style="stroke:#181818;stroke-width:1.0;"/></g><!--reverse link Pullable to PipeServer--><g id="link_Pullable_PipeServer"><path codeLine="104" d="M586.6628,538.0605 C609.5628,555.6905 624.44,567.13 650.17,586.93 " fill="none" id="Pullable-backto-PipeServer" style="stroke:#181818;stroke-width:1.0;"/><polygon fill="none" points="572.4,527.08,583.0027,542.8148,590.323,533.3062,572.4,527.08" style="stroke:#181818;stroke-width:1.0;"/></g><!--reverse link Server to PipeServer--><g id="link_Server_PipeServer"><path codeLine="105" d="M728.1948,544.7941 C725.0148,562.4241 724.16,567.13 720.59,586.93 " fill="none" id="Server-backto-PipeServer" style="stroke:#181818;stroke-width:1.0;"/><polygon fill="none" points="731.39,527.08,722.2901,543.7291,734.0995,545.8592,731.39,527.08" style="stroke:#181818;stroke-width:1.0;"/></g><!--reverse link ProducerResponse to Producer--><g id="link_ProducerResponse_Producer"><path codeLine="107" d="M816.31,1006.5 C827.81,1006.5 827.31,1006.5 838.81,1006.5 " fill="none" id="ProducerResponse-backto-Producer" style="stroke:#181818;stroke-width:1.0;"/><polygon fill="#181818" points="804.31,1006.5,810.31,1010.5,816.31,1006.5,810.31,1002.5,804.31,1006.5" style="stroke:#181818;stroke-width:1.0;"/></g><!--reverse link Producer to KafkaProducer--><g id="link_Producer_KafkaProducer"><path codeLine="108" d="M959.2937,1081.128 C958.5837,1100.588 958.44,1104.25 957.75,1122.99 " fill="none" id="Producer-backto-KafkaProducer" style="stroke:#181818;stroke-width:1.0;"/><polygon fill="none" points="959.95,1063.14,953.2977,1080.9093,965.2897,1081.3468,959.95,1063.14" style="stroke:#181818;stroke-width:1.0;"/></g><!--reverse link Consumer to KafkaConsumer--><g id="link_Consumer_KafkaConsumer"><path codeLine="109" d="M462.9568,883.7263 C465.5168,911.9363 467.12,929.59 469.67,957.79 " fill="none" id="Consumer-backto-KafkaConsumer" style="stroke:#181818;stroke-width:1.0;"/><polygon fill="none" points="461.33,865.8,456.9813,884.2686,468.9322,883.1841,461.33,865.8" style="stroke:#181818;stroke-width:1.0;"/></g><!--link ProducerServer to Producer--><g id="link_ProducerServer_Producer"><path codeLine="110" d="M955.68,873.75 C956.83,897.82 957.6069,913.9337 958.7569,937.9837 " fill="none" id="ProducerServer-to-Producer" style="stroke:#181818;stroke-width:1.0;"/><polygon fill="#181818" points="959.33,949.97,963.0389,943.7858,958.7569,937.9837,955.048,944.1679,959.33,949.97" style="stroke:#181818;stroke-width:1.0;"/></g><!--reverse link SinkServer to ProducerServer--><g id="link_SinkServer_ProducerServer"><path codeLine="111" d="M950.969,694.3375 C951.379,719.0175 951.61,733.09 952.07,760.28 " fill="none" id="SinkServer-backto-ProducerServer" style="stroke:#181818;stroke-width:1.0;"/><polygon fill="none" points="950.67,676.34,944.9698,694.4372,956.9682,694.2379,950.67,676.34" style="stroke:#181818;stroke-width:1.0;"/></g><!--reverse link Receiver to ProducerServer--><g id="link_Receiver_ProducerServer"><path codeLine="112" d="M1005.2997,401.827 C1028.0197,418.967 1043.12,435.2 1056,463 C1097.3,552.14 1092.82,591.4 1060,684 C1050.05,712.08 1031.29,738.55 1012.23,760.31 " fill="none" id="Receiver-backto-ProducerServer" style="stroke:#181818;stroke-width:1.0;"/><polygon fill="#181818" points="995.72,394.6,998.1009,401.4067,1005.2997,401.827,1002.9188,395.0202,995.72,394.6" style="stroke:#181818;stroke-width:1.0;"/></g><!--link ConsumerServer to SourceServer--><g id="link_ConsumerServer_SourceServer"><path codeLine="113" d="M180.09,957.96 C201.58,892.61 248.24,774.73 324,701 C333.65,691.6 329.5512,692.6872 341.4012,685.4972 " fill="none" id="ConsumerServer-to-SourceServer" style="stroke:#181818;stroke-width:1.0;"/><polygon fill="none" points="356.79,676.16,338.2888,680.3676,344.5136,690.6268,356.79,676.16" style="stroke:#181818;stroke-width:1.0;"/></g><!--reverse link Consumer to ConsumerServer--><g id="link_Consumer_ConsumerServer"><path codeLine="114" d="M373.1018,872.0583 C329.1518,900.3683 283.66,929.69 239.73,957.99 " fill="none" id="Consumer-backto-ConsumerServer" style="stroke:#181818;stroke-width:1.0;"/><polygon fill="#181818" points="383.19,865.56,375.9798,865.4464,373.1018,872.0583,380.312,872.1719,383.19,865.56" style="stroke:#181818;stroke-width:1.0;"/></g><!--reverse link SourceServer to Consumer--><g id="link_SourceServer_Consumer"><path codeLine="115" d="M457,694.34 C457,721.5 457,739.61 457,768.31 " fill="none" id="SourceServer-backto-Consumer" style="stroke:#181818;stroke-width:1.0;"/><polygon fill="none" points="457,676.34,451,694.34,463,694.34,457,676.34" style="stroke:#181818;stroke-width:1.0;"/></g><!--link KafkaConsumer to KafkaConsumerCofig--><g id="link_KafkaConsumer_KafkaConsumerCofig"><path codeLine="117" d="M474,1055.08 C474,1085.34 474,1111.19 474,1135.11 " fill="none" id="KafkaConsumer-to-KafkaConsumerCofig" style="stroke:#181818;stroke-width:1.0;"/><polygon fill="#181818" points="474,1147.11,478,1141.11,474,1135.11,470,1141.11,474,1147.11" style="stroke:#181818;stroke-width:1.0;"/></g><!--link KafkaProducer to KafkaProducerConfig--><g id="link_KafkaProducer_KafkaProducerConfig"><path codeLine="118" d="M956,1220.35 C956,1240.58 956,1251.2 956,1267.66 " fill="none" id="KafkaProducer-to-KafkaProducerConfig" style="stroke:#181818;stroke-width:1.0;"/><polygon fill="#181818" points="956,1279.66,960,1273.66,956,1267.66,952,1273.66,956,1279.66" style="stroke:#181818;stroke-width:1.0;"/></g><!--reverse link PipeServer to JQTransformer--><g id="link_PipeServer_JQTransformer"><path codeLine="120" d="M839.4297,684.3681 C845.4497,686.0181 834.09,682.74 840,684 C896.84,696.13 1046.59,680.55 1101,701 C1127.11,710.81 1152.42,726.79 1174.58,743.75 " fill="none" id="PipeServer-backto-JQTransformer" style="stroke:#181818;stroke-width:1.0;"/><polygon fill="none" points="822.07,679.61,837.8437,690.1547,841.0158,678.5815,822.07,679.61" style="stroke:#181818;stroke-width:1.0;"/></g><!--reverse link Receiver to JQTransformer--><g id="link_Receiver_JQTransformer"><path codeLine="121" d="M1007.0591,401.269 C1033.0791,418.929 1053.87,436.12 1076,463 C1146.77,548.94 1198.28,668.28 1226.43,743.82 " fill="none" id="Receiver-backto-JQTransformer" style="stroke:#181818;stroke-width:1.0;"/><polygon fill="#181818" points="997.13,394.53,999.8482,401.2092,1007.0591,401.269,1004.3409,394.5898,997.13,394.53" style="stroke:#181818;stroke-width:1.0;"/></g><!--link KafkaProducerConfig to ProducerConfig--><g id="link_KafkaProducerConfig_ProducerConfig"><path codeLine="123" d="M956,1328 C956,1345.66 956,1357.94 956,1375.68 " fill="none" id="KafkaProducerConfig-to-ProducerConfig" style="stroke:#181818;stroke-width:1.0;"/><polygon fill="#181818" points="956,1387.68,960,1381.68,956,1375.68,952,1381.68,956,1387.68" style="stroke:#181818;stroke-width:1.0;"/></g><!--link KafkaConsumerCofig to ConsumerConfig--><g id="link_KafkaConsumerCofig_ConsumerConfig"><path codeLine="124" d="M474,1195.53 C474,1219.24 474,1243.98 474,1267.76 " fill="none" id="KafkaConsumerCofig-to-ConsumerConfig" style="stroke:#181818;stroke-width:1.0;"/><polygon fill="#181818" points="474,1279.76,478,1273.76,474,1267.76,470,1273.76,474,1279.76" style="stroke:#181818;stroke-width:1.0;"/></g><!--SRC=[jLTDSzCm4BtxL_Ze1fnVmAKJEfGoGDjmOpW8MqxSshAHvK87-jzPn_fUsQ5EoQ6ZIc-VtdveDs6afbrBCXfVRJz_klWbECb4m-FVKGoVJl0-4_7LpHTEM5SqlARgQFYaS5woNNptuwQd_D7iRvgSmkurRtQSr6R_bcQqV00EBXVww1Nb7AuzptE5ITJYp82q_JigDExC9zbI_a3bzbFq537ju-54UL0oGNanR6-QkgseA1jsILXUEJvAJWcX2M6Fh-F3dhh02jG7KjoJJSEw7WBrOgpdRVkM26877l1n3dk64D-M-Ji6F9X320VMnBxGX4H76ccM9ubK5T2xsHCMi4ypsDVE3Ee7u3FeZJedZvEPTssk-weYtokAhUoYMxbLXqcwlKyoKvH8TzFpZ4wfFrBynrtSbkmUaozvD9xNPRjKzDBBPIb11ydxZF9RUC3mhEoufwFfuQ_F1vTT38ifVoIhxOtQUyywGHY0W4EjGu95toRA1bvyKUumI10kR5lapPQoV7ZxOPcgaIokb46ZwKPXZLEHTrhPIGgyflXy5Q5qeGl-IowyAaHl8Ar9-tKSWj-qobOkFfBsdoRVYKz4HNPMd4va9XUThUwq_XEUVP24oKIEEGf569-uzGlJVFHpZUVTAatbO5ZBuJ6DVVCdhMWXjC7yu8vSMlic5QV8-z_6gCapZna72yBuIktXgi0ozG3LC7lIH9wEey0GdnujaQTu2SmCb5bj61PGPe4qcV-sLoalTtiJH0Nm3HnYfsHDASc7X93g176kqhv5DtjkcS7jk1O41yidJ6j_tK25vFGDv9z57aRwv7dpao4JdHBS7Tou14COQ1e1AvsY25N464tdbytQ-J4JZEaSti_kKLMoRtbncJHpGlGN]--></g></svg>