<?xml version="1.0" encoding="us-ascii" standalone="no"?><svg xmlns="http://www.w3.org/2000/svg" xmlns:xlink="http://www.w3.org/1999/xlink" contentStyleType="text/css" height="1281px" preserveAspectRatio="none" style="width:1063px;height:1281px;background:#FFFFFF;" version="1.1" viewBox="0 0 1063 1281" width="1063px" zoomAndPan="magnify"><defs/><g><!--cluster Server--><g id="cluster_Server"><path d="M8.5,6 L62.5,6 A3.75,3.75 0 0 1 65,8.5 L72,28.2969 L1053.5,28.2969 A2.5,2.5 0 0 1 1056,30.7969 L1056,1271.5 A2.5,2.5 0 0 1 1053.5,1274 L8.5,1274 A2.5,2.5 0 0 1 6,1271.5 L6,8.5 A2.5,2.5 0 0 1 8.5,6 " fill="none" style="stroke:#000000;stroke-width:1.5;"/><line style="stroke:#000000;stroke-width:1.5;" x1="6" x2="72" y1="28.2969" y2="28.2969"/><text fill="#000000" font-family="sans-serif" font-size="14" font-weight="bold" lengthAdjust="spacing" textLength="53" x="10" y="20.9951">Server</text></g><!--class AppData--><g id="elem_AppData"><rect codeLine="2" fill="#F1F1F1" height="113.1875" id="AppData" rx="2.5" ry="2.5" style="stroke:#181818;stroke-width:0.5;" width="234" x="574" y="41"/><ellipse cx="657.25" cy="57" fill="#F1F1F1" rx="11" ry="11" style="stroke:#181818;stroke-width:1.0;"/><path d="M656.7344,57.5625 Q654.875,56.8594 654.2188,56.0938 Q653.5781,55.3125 653.5781,54 Q653.5781,52.3125 654.6563,51.3438 Q655.7344,50.375 657.6094,50.375 Q658.4688,50.375 659.3125,50.5781 Q660.1719,50.7656 661.0156,51.1563 L661.0156,53.5469 Q660.2344,52.9844 659.4063,52.7031 Q658.5938,52.4063 657.7969,52.4063 Q656.9219,52.4063 656.4375,52.7656 Q655.9688,53.125 655.9688,53.7813 Q655.9688,54.2969 656.3125,54.6406 Q656.6563,54.9688 657.75,55.375 L658.8125,55.7813 Q660.2969,56.3281 661,57.2344 Q661.7188,58.1406 661.7188,59.5156 Q661.7188,61.3906 660.6094,62.3125 Q659.5,63.2344 657.25,63.2344 Q656.3281,63.2344 655.4063,63.0156 Q654.4844,62.7969 653.625,62.375 L653.625,59.8438 Q654.5938,60.5313 655.5156,60.875 Q656.4375,61.2188 657.3281,61.2188 Q658.2344,61.2188 658.7344,60.8125 Q659.2344,60.3906 659.2344,59.6563 Q659.2344,59.0938 658.8906,58.6875 Q658.5625,58.2656 657.9375,58.0156 L656.7344,57.5625 Z " fill="#000000"/><text fill="#000000" font-family="sans-serif" font-size="14" lengthAdjust="spacing" textLength="59" x="677.75" y="61.8467">AppData</text><line style="stroke:#181818;stroke-width:0.5;" x1="575" x2="807" y1="73" y2="73"/><rect fill="none" height="6" style="stroke:#C82930;stroke-width:1.0;" width="6" x="582" y="83.6484"/><text fill="#000000" font-family="sans-serif" font-size="14" lengthAdjust="spacing" textLength="58" x="594" y="89.9951">any data</text><rect fill="none" height="6" style="stroke:#C82930;stroke-width:1.0;" width="6" x="582" y="99.9453"/><text fill="#000000" font-family="sans-serif" font-size="14" lengthAdjust="spacing" textLength="117" x="594" y="106.292">string routingKey</text><line style="stroke:#181818;stroke-width:0.5;" x1="575" x2="807" y1="113.5938" y2="113.5938"/><ellipse cx="585" cy="127.2422" fill="#84BE84" rx="3" ry="3" style="stroke:#038048;stroke-width:1.0;"/><text fill="#000000" font-family="sans-serif" font-size="14" lengthAdjust="spacing" textLength="146" x="594" y="130.5889">(any, error) GetData()</text><ellipse cx="585" cy="143.5391" fill="#84BE84" rx="3" ry="3" style="stroke:#038048;stroke-width:1.0;"/><text fill="#000000" font-family="sans-serif" font-size="14" lengthAdjust="spacing" textLength="208" x="594" y="146.8857">(string, error) GetRoutingKey()</text></g><!--class Server--><g id="elem_Server"><rect codeLine="8" fill="#F1F1F1" height="80.5938" id="Server" rx="2.5" ry="2.5" style="stroke:#181818;stroke-width:0.5;" width="158" x="343" y="338"/><ellipse cx="395.75" cy="354" fill="#B4A7E5" rx="11" ry="11" style="stroke:#181818;stroke-width:1.0;"/><path d="M391.6719,349.7656 L391.6719,347.6094 L399.0625,347.6094 L399.0625,349.7656 L396.5938,349.7656 L396.5938,357.8438 L399.0625,357.8438 L399.0625,360 L391.6719,360 L391.6719,357.8438 L394.1406,357.8438 L394.1406,349.7656 L391.6719,349.7656 Z " fill="#000000"/><text fill="#000000" font-family="sans-serif" font-size="14" font-style="italic" lengthAdjust="spacing" textLength="44" x="416.25" y="358.8467">Server</text><line style="stroke:#181818;stroke-width:0.5;" x1="344" x2="500" y1="370" y2="370"/><line style="stroke:#181818;stroke-width:0.5;" x1="344" x2="500" y1="378" y2="378"/><ellipse cx="354" cy="391.6484" fill="#84BE84" rx="3" ry="3" style="stroke:#038048;stroke-width:1.0;"/><text fill="#000000" font-family="sans-serif" font-size="14" lengthAdjust="spacing" textLength="86" x="363" y="394.9951">error Serve()</text><ellipse cx="354" cy="407.9453" fill="#84BE84" rx="3" ry="3" style="stroke:#038048;stroke-width:1.0;"/><text fill="#000000" font-family="sans-serif" font-size="14" lengthAdjust="spacing" textLength="132" x="363" y="411.292">error Setup(Config)</text></g><!--class Pullable--><g id="elem_Pullable"><rect codeLine="12" fill="#F1F1F1" height="64.2969" id="Pullable" rx="2.5" ry="2.5" style="stroke:#181818;stroke-width:0.5;" width="228" x="577" y="346.5"/><ellipse cx="660.25" cy="362.5" fill="#B4A7E5" rx="11" ry="11" style="stroke:#181818;stroke-width:1.0;"/><path d="M656.1719,358.2656 L656.1719,356.1094 L663.5625,356.1094 L663.5625,358.2656 L661.0938,358.2656 L661.0938,366.3438 L663.5625,366.3438 L663.5625,368.5 L656.1719,368.5 L656.1719,366.3438 L658.6406,366.3438 L658.6406,358.2656 L656.1719,358.2656 Z " fill="#000000"/><text fill="#000000" font-family="sans-serif" font-size="14" font-style="italic" lengthAdjust="spacing" textLength="53" x="680.75" y="367.3467">Pullable</text><line style="stroke:#181818;stroke-width:0.5;" x1="578" x2="804" y1="378.5" y2="378.5"/><line style="stroke:#181818;stroke-width:0.5;" x1="578" x2="804" y1="386.5" y2="386.5"/><ellipse cx="588" cy="400.1484" fill="#84BE84" rx="3" ry="3" style="stroke:#038048;stroke-width:1.0;"/><text fill="#000000" font-family="sans-serif" font-size="14" lengthAdjust="spacing" textLength="202" x="597" y="403.4951">error AddPushable(Pushable)</text></g><!--class Pushable--><g id="elem_Pushable"><rect codeLine="15" fill="#F1F1F1" height="64.2969" id="Pushable" rx="2.5" ry="2.5" style="stroke:#181818;stroke-width:0.5;" width="193" x="594.5" y="214"/><ellipse cx="654.75" cy="230" fill="#B4A7E5" rx="11" ry="11" style="stroke:#181818;stroke-width:1.0;"/><path d="M650.6719,225.7656 L650.6719,223.6094 L658.0625,223.6094 L658.0625,225.7656 L655.5938,225.7656 L655.5938,233.8438 L658.0625,233.8438 L658.0625,236 L650.6719,236 L650.6719,233.8438 L653.1406,233.8438 L653.1406,225.7656 L650.6719,225.7656 Z " fill="#000000"/><text fill="#000000" font-family="sans-serif" font-size="14" font-style="italic" lengthAdjust="spacing" textLength="64" x="675.25" y="234.8467">Pushable</text><line style="stroke:#181818;stroke-width:0.5;" x1="595.5" x2="786.5" y1="246" y2="246"/><line style="stroke:#181818;stroke-width:0.5;" x1="595.5" x2="786.5" y1="254" y2="254"/><ellipse cx="605.5" cy="267.6484" fill="#84BE84" rx="3" ry="3" style="stroke:#038048;stroke-width:1.0;"/><text fill="#000000" font-family="sans-serif" font-size="14" lengthAdjust="spacing" textLength="167" x="614.5" y="270.9951">error SendTo(*AppData)</text></g><!--class SourceServer--><g id="elem_SourceServer"><rect codeLine="18" fill="#F1F1F1" height="96.8906" id="SourceServer" rx="2.5" ry="2.5" style="stroke:#181818;stroke-width:0.5;" width="228" x="549" y="487"/><ellipse cx="612.25" cy="503" fill="#B4A7E5" rx="11" ry="11" style="stroke:#181818;stroke-width:1.0;"/><path d="M608.1719,498.7656 L608.1719,496.6094 L615.5625,496.6094 L615.5625,498.7656 L613.0938,498.7656 L613.0938,506.8438 L615.5625,506.8438 L615.5625,509 L608.1719,509 L608.1719,506.8438 L610.6406,506.8438 L610.6406,498.7656 L608.1719,498.7656 Z " fill="#000000"/><text fill="#000000" font-family="sans-serif" font-size="14" font-style="italic" lengthAdjust="spacing" textLength="93" x="632.75" y="507.8467">SourceServer</text><line style="stroke:#181818;stroke-width:0.5;" x1="550" x2="776" y1="519" y2="519"/><line style="stroke:#181818;stroke-width:0.5;" x1="550" x2="776" y1="527" y2="527"/><ellipse cx="560" cy="540.6484" fill="#84BE84" rx="3" ry="3" style="stroke:#038048;stroke-width:1.0;"/><text fill="#000000" font-family="sans-serif" font-size="14" lengthAdjust="spacing" textLength="202" x="569" y="543.9951">error AddPushable(Pushable)</text><ellipse cx="560" cy="556.9453" fill="#84BE84" rx="3" ry="3" style="stroke:#038048;stroke-width:1.0;"/><text fill="#000000" font-family="sans-serif" font-size="14" lengthAdjust="spacing" textLength="86" x="569" y="560.292">error Serve()</text><ellipse cx="560" cy="573.2422" fill="#84BE84" rx="3" ry="3" style="stroke:#038048;stroke-width:1.0;"/><text fill="#000000" font-family="sans-serif" font-size="14" lengthAdjust="spacing" textLength="132" x="569" y="576.5889">error Setup(Config)</text></g><!--class SinkServer--><g id="elem_SinkServer"><rect codeLine="23" fill="#F1F1F1" height="96.8906" id="SinkServer" rx="2.5" ry="2.5" style="stroke:#181818;stroke-width:0.5;" width="193" x="22.5" y="487"/><ellipse cx="78.25" cy="503" fill="#B4A7E5" rx="11" ry="11" style="stroke:#181818;stroke-width:1.0;"/><path d="M74.1719,498.7656 L74.1719,496.6094 L81.5625,496.6094 L81.5625,498.7656 L79.0938,498.7656 L79.0938,506.8438 L81.5625,506.8438 L81.5625,509 L74.1719,509 L74.1719,506.8438 L76.6406,506.8438 L76.6406,498.7656 L74.1719,498.7656 Z " fill="#000000"/><text fill="#000000" font-family="sans-serif" font-size="14" font-style="italic" lengthAdjust="spacing" textLength="73" x="98.75" y="507.8467">SinkServer</text><line style="stroke:#181818;stroke-width:0.5;" x1="23.5" x2="214.5" y1="519" y2="519"/><line style="stroke:#181818;stroke-width:0.5;" x1="23.5" x2="214.5" y1="527" y2="527"/><ellipse cx="33.5" cy="540.6484" fill="#84BE84" rx="3" ry="3" style="stroke:#038048;stroke-width:1.0;"/><text fill="#000000" font-family="sans-serif" font-size="14" lengthAdjust="spacing" textLength="167" x="42.5" y="543.9951">error SendTo(*AppData)</text><ellipse cx="33.5" cy="556.9453" fill="#84BE84" rx="3" ry="3" style="stroke:#038048;stroke-width:1.0;"/><text fill="#000000" font-family="sans-serif" font-size="14" lengthAdjust="spacing" textLength="86" x="42.5" y="560.292">error Serve()</text><ellipse cx="33.5" cy="573.2422" fill="#84BE84" rx="3" ry="3" style="stroke:#038048;stroke-width:1.0;"/><text fill="#000000" font-family="sans-serif" font-size="14" lengthAdjust="spacing" textLength="132" x="42.5" y="576.5889">error Setup(Config)</text></g><!--class PipeServer--><g id="elem_PipeServer"><rect codeLine="28" fill="#F1F1F1" height="113.1875" id="PipeServer" rx="2.5" ry="2.5" style="stroke:#181818;stroke-width:0.5;" width="228" x="812" y="479"/><ellipse cx="884.75" cy="495" fill="#B4A7E5" rx="11" ry="11" style="stroke:#181818;stroke-width:1.0;"/><path d="M880.6719,490.7656 L880.6719,488.6094 L888.0625,488.6094 L888.0625,490.7656 L885.5938,490.7656 L885.5938,498.8438 L888.0625,498.8438 L888.0625,501 L880.6719,501 L880.6719,498.8438 L883.1406,498.8438 L883.1406,490.7656 L880.6719,490.7656 Z " fill="#000000"/><text fill="#000000" font-family="sans-serif" font-size="14" font-style="italic" lengthAdjust="spacing" textLength="74" x="905.25" y="499.8467">PipeServer</text><line style="stroke:#181818;stroke-width:0.5;" x1="813" x2="1039" y1="511" y2="511"/><line style="stroke:#181818;stroke-width:0.5;" x1="813" x2="1039" y1="519" y2="519"/><ellipse cx="823" cy="532.6484" fill="#84BE84" rx="3" ry="3" style="stroke:#038048;stroke-width:1.0;"/><text fill="#000000" font-family="sans-serif" font-size="14" lengthAdjust="spacing" textLength="202" x="832" y="535.9951">error AddPushable(Pushable)</text><ellipse cx="823" cy="548.9453" fill="#84BE84" rx="3" ry="3" style="stroke:#038048;stroke-width:1.0;"/><text fill="#000000" font-family="sans-serif" font-size="14" lengthAdjust="spacing" textLength="167" x="832" y="552.292">error SendTo(*AppData)</text><ellipse cx="823" cy="565.2422" fill="#84BE84" rx="3" ry="3" style="stroke:#038048;stroke-width:1.0;"/><text fill="#000000" font-family="sans-serif" font-size="14" lengthAdjust="spacing" textLength="86" x="832" y="568.5889">error Serve()</text><ellipse cx="823" cy="581.5391" fill="#84BE84" rx="3" ry="3" style="stroke:#038048;stroke-width:1.0;"/><text fill="#000000" font-family="sans-serif" font-size="14" lengthAdjust="spacing" textLength="132" x="832" y="584.8857">error Setup(Config)</text></g><!--class MapSinkServer--><g id="elem_MapSinkServer"><rect codeLine="34" fill="#F1F1F1" height="113.1875" id="MapSinkServer" rx="2.5" ry="2.5" style="stroke:#181818;stroke-width:0.5;" width="283" x="22.5" y="676.5"/><ellipse cx="108.75" cy="692.5" fill="#F1F1F1" rx="11" ry="11" style="stroke:#181818;stroke-width:1.0;"/><path d="M108.2344,693.0625 Q106.375,692.3594 105.7188,691.5938 Q105.0781,690.8125 105.0781,689.5 Q105.0781,687.8125 106.1563,686.8438 Q107.2344,685.875 109.1094,685.875 Q109.9688,685.875 110.8125,686.0781 Q111.6719,686.2656 112.5156,686.6563 L112.5156,689.0469 Q111.7344,688.4844 110.9063,688.2031 Q110.0938,687.9063 109.2969,687.9063 Q108.4219,687.9063 107.9375,688.2656 Q107.4688,688.625 107.4688,689.2813 Q107.4688,689.7969 107.8125,690.1406 Q108.1563,690.4688 109.25,690.875 L110.3125,691.2813 Q111.7969,691.8281 112.5,692.7344 Q113.2188,693.6406 113.2188,695.0156 Q113.2188,696.8906 112.1094,697.8125 Q111,698.7344 108.75,698.7344 Q107.8281,698.7344 106.9063,698.5156 Q105.9844,698.2969 105.125,697.875 L105.125,695.3438 Q106.0938,696.0313 107.0156,696.375 Q107.9375,696.7188 108.8281,696.7188 Q109.7344,696.7188 110.2344,696.3125 Q110.7344,695.8906 110.7344,695.1563 Q110.7344,694.5938 110.3906,694.1875 Q110.0625,693.7656 109.4375,693.5156 L108.2344,693.0625 Z " fill="#000000"/><text fill="#000000" font-family="sans-serif" font-size="14" lengthAdjust="spacing" textLength="102" x="129.25" y="697.3467">MapSinkServer</text><line style="stroke:#181818;stroke-width:0.5;" x1="23.5" x2="304.5" y1="708.5" y2="708.5"/><rect fill="none" height="6" style="stroke:#C82930;stroke-width:1.0;" width="6" x="30.5" y="719.1484"/><text fill="#000000" font-family="sans-serif" font-size="14" lengthAdjust="spacing" textLength="257" x="42.5" y="725.4951">map[string]SinkServer sinkServerMap</text><line style="stroke:#181818;stroke-width:0.5;" x1="23.5" x2="304.5" y1="732.7969" y2="732.7969"/><ellipse cx="33.5" cy="746.4453" fill="#84BE84" rx="3" ry="3" style="stroke:#038048;stroke-width:1.0;"/><text fill="#000000" font-family="sans-serif" font-size="14" lengthAdjust="spacing" textLength="167" x="42.5" y="749.792">error SendTo(*AppData)</text><ellipse cx="33.5" cy="762.7422" fill="#84BE84" rx="3" ry="3" style="stroke:#038048;stroke-width:1.0;"/><text fill="#000000" font-family="sans-serif" font-size="14" lengthAdjust="spacing" textLength="86" x="42.5" y="766.0889">error Serve()</text><ellipse cx="33.5" cy="779.0391" fill="#84BE84" rx="3" ry="3" style="stroke:#038048;stroke-width:1.0;"/><text fill="#000000" font-family="sans-serif" font-size="14" lengthAdjust="spacing" textLength="132" x="42.5" y="782.3857">error Setup(Config)</text></g><!--class Config--><g id="elem_Config"><rect codeLine="40" fill="#F1F1F1" height="64.2969" id="Config" rx="2.5" ry="2.5" style="stroke:#181818;stroke-width:0.5;" width="263" x="250.5" y="503.5"/><ellipse cx="355.75" cy="519.5" fill="#B4A7E5" rx="11" ry="11" style="stroke:#181818;stroke-width:1.0;"/><path d="M351.6719,515.2656 L351.6719,513.1094 L359.0625,513.1094 L359.0625,515.2656 L356.5938,515.2656 L356.5938,523.3438 L359.0625,523.3438 L359.0625,525.5 L351.6719,525.5 L351.6719,523.3438 L354.1406,523.3438 L354.1406,515.2656 L351.6719,515.2656 Z " fill="#000000"/><text fill="#000000" font-family="sans-serif" font-size="14" font-style="italic" lengthAdjust="spacing" textLength="44" x="376.25" y="524.3467">Config</text><line style="stroke:#181818;stroke-width:0.5;" x1="251.5" x2="512.5" y1="535.5" y2="535.5"/><line style="stroke:#181818;stroke-width:0.5;" x1="251.5" x2="512.5" y1="543.5" y2="543.5"/><ellipse cx="261.5" cy="557.1484" fill="#84BE84" rx="3" ry="3" style="stroke:#038048;stroke-width:1.0;"/><text fill="#000000" font-family="sans-serif" font-size="14" lengthAdjust="spacing" textLength="237" x="270.5" y="560.4951">error IngestConfig(map[string]any)</text></g><!--class SelectProducerConfig--><g id="elem_SelectProducerConfig"><rect codeLine="43" fill="#F1F1F1" height="162.0781" id="SelectProducerConfig" rx="2.5" ry="2.5" style="stroke:#181818;stroke-width:0.5;" width="193" x="650.5" y="652"/><ellipse cx="670.45" cy="668" fill="#F1F1F1" rx="11" ry="11" style="stroke:#181818;stroke-width:1.0;"/><path d="M669.9344,668.5625 Q668.075,667.8594 667.4188,667.0938 Q666.7781,666.3125 666.7781,665 Q666.7781,663.3125 667.8563,662.3438 Q668.9344,661.375 670.8094,661.375 Q671.6688,661.375 672.5125,661.5781 Q673.3719,661.7656 674.2156,662.1563 L674.2156,664.5469 Q673.4344,663.9844 672.6063,663.7031 Q671.7938,663.4063 670.9969,663.4063 Q670.1219,663.4063 669.6375,663.7656 Q669.1688,664.125 669.1688,664.7813 Q669.1688,665.2969 669.5125,665.6406 Q669.8563,665.9688 670.95,666.375 L672.0125,666.7813 Q673.4969,667.3281 674.2,668.2344 Q674.9188,669.1406 674.9188,670.5156 Q674.9188,672.3906 673.8094,673.3125 Q672.7,674.2344 670.45,674.2344 Q669.5281,674.2344 668.6063,674.0156 Q667.6844,673.7969 666.825,673.375 L666.825,670.8438 Q667.7938,671.5313 668.7156,671.875 Q669.6375,672.2188 670.5281,672.2188 Q671.4344,672.2188 671.9344,671.8125 Q672.4344,671.3906 672.4344,670.6563 Q672.4344,670.0938 672.0906,669.6875 Q671.7625,669.2656 671.1375,669.0156 L669.9344,668.5625 Z " fill="#000000"/><text fill="#000000" font-family="sans-serif" font-size="14" lengthAdjust="spacing" textLength="150" x="685.55" y="672.8467">SelectProducerConfig</text><line style="stroke:#181818;stroke-width:0.5;" x1="651.5" x2="842.5" y1="684" y2="684"/><ellipse cx="661.5" cy="697.6484" fill="none" rx="3" ry="3" style="stroke:#038048;stroke-width:1.0;"/><text fill="#000000" font-family="sans-serif" font-size="14" lengthAdjust="spacing" textLength="72" x="670.5" y="700.9951">string Map</text><ellipse cx="661.5" cy="713.9453" fill="none" rx="3" ry="3" style="stroke:#038048;stroke-width:1.0;"/><text fill="#000000" font-family="sans-serif" font-size="14" lengthAdjust="spacing" textLength="77" x="670.5" y="717.292">string Type</text><ellipse cx="661.5" cy="730.2422" fill="none" rx="3" ry="3" style="stroke:#038048;stroke-width:1.0;"/><text fill="#000000" font-family="sans-serif" font-size="14" lengthAdjust="spacing" textLength="92" x="670.5" y="733.5889">Config Config</text><text fill="#000000" font-family="sans-serif" font-size="14" lengthAdjust="spacing" textLength="107" x="670.5" y="749.8857">map[string]any,</text><line style="stroke:#181818;stroke-width:0.5;" x1="651.5" x2="842.5" y1="757.1875" y2="757.1875"/><ellipse cx="661.5" cy="770.8359" fill="#84BE84" rx="3" ry="3" style="stroke:#038048;stroke-width:1.0;"/><text fill="#000000" font-family="sans-serif" font-size="14" lengthAdjust="spacing" textLength="129" x="670.5" y="774.1826">error IngestConfig(</text><text fill="#000000" font-family="sans-serif" font-size="14" lengthAdjust="spacing" textLength="167" x="670.5" y="790.4795">map[string]func() Config</text><text fill="#000000" font-family="sans-serif" font-size="14" lengthAdjust="spacing" textLength="5" x="670.5" y="806.7764">)</text></g><!--class SetupProducersConfig--><g id="elem_SetupProducersConfig"><rect codeLine="52" fill="#F1F1F1" height="145.7813" id="SetupProducersConfig" rx="2.5" ry="2.5" style="stroke:#181818;stroke-width:0.5;" width="348" x="614" y="874"/><ellipse cx="705.75" cy="890" fill="#F1F1F1" rx="11" ry="11" style="stroke:#181818;stroke-width:1.0;"/><path d="M705.2344,890.5625 Q703.375,889.8594 702.7188,889.0938 Q702.0781,888.3125 702.0781,887 Q702.0781,885.3125 703.1563,884.3438 Q704.2344,883.375 706.1094,883.375 Q706.9688,883.375 707.8125,883.5781 Q708.6719,883.7656 709.5156,884.1563 L709.5156,886.5469 Q708.7344,885.9844 707.9063,885.7031 Q707.0938,885.4063 706.2969,885.4063 Q705.4219,885.4063 704.9375,885.7656 Q704.4688,886.125 704.4688,886.7813 Q704.4688,887.2969 704.8125,887.6406 Q705.1563,887.9688 706.25,888.375 L707.3125,888.7813 Q708.7969,889.3281 709.5,890.2344 Q710.2188,891.1406 710.2188,892.5156 Q710.2188,894.3906 709.1094,895.3125 Q708,896.2344 705.75,896.2344 Q704.8281,896.2344 703.9063,896.0156 Q702.9844,895.7969 702.125,895.375 L702.125,892.8438 Q703.0938,893.5313 704.0156,893.875 Q704.9375,894.2188 705.8281,894.2188 Q706.7344,894.2188 707.2344,893.8125 Q707.7344,893.3906 707.7344,892.6563 Q707.7344,892.0938 707.3906,891.6875 Q707.0625,891.2656 706.4375,891.0156 L705.2344,890.5625 Z " fill="#000000"/><text fill="#000000" font-family="sans-serif" font-size="14" lengthAdjust="spacing" textLength="156" x="726.25" y="894.8467">SetupProducersConfig</text><line style="stroke:#181818;stroke-width:0.5;" x1="615" x2="961" y1="906" y2="906"/><ellipse cx="625" cy="919.6484" fill="none" rx="3" ry="3" style="stroke:#038048;stroke-width:1.0;"/><text fill="#000000" font-family="sans-serif" font-size="14" lengthAdjust="spacing" textLength="104" x="634" y="922.9951">IsMapping bool</text><ellipse cx="625" cy="935.9453" fill="none" rx="3" ry="3" style="stroke:#038048;stroke-width:1.0;"/><text fill="#000000" font-family="sans-serif" font-size="14" lengthAdjust="spacing" textLength="322" x="634" y="939.292">[]SelectProducerConfig SelectProducerConfigs</text><text fill="#000000" font-family="sans-serif" font-size="14" lengthAdjust="spacing" textLength="107" x="634" y="955.5889">map[string]any,</text><line style="stroke:#181818;stroke-width:0.5;" x1="615" x2="961" y1="962.8906" y2="962.8906"/><ellipse cx="625" cy="976.5391" fill="#84BE84" rx="3" ry="3" style="stroke:#038048;stroke-width:1.0;"/><text fill="#000000" font-family="sans-serif" font-size="14" lengthAdjust="spacing" textLength="129" x="634" y="979.8857">error IngestConfig(</text><text fill="#000000" font-family="sans-serif" font-size="14" lengthAdjust="spacing" textLength="167" x="634" y="996.1826">map[string]func() Config</text><text fill="#000000" font-family="sans-serif" font-size="14" lengthAdjust="spacing" textLength="5" x="634" y="1012.4795">)</text></g><!--class SelectConsumerConfig--><g id="elem_SelectConsumerConfig"><rect codeLine="60" fill="#F1F1F1" height="145.7813" id="SelectConsumerConfig" rx="2.5" ry="2.5" style="stroke:#181818;stroke-width:0.5;" width="193" x="340.5" y="660"/><ellipse cx="356.4" cy="676" fill="#F1F1F1" rx="11" ry="11" style="stroke:#181818;stroke-width:1.0;"/><path d="M355.8844,676.5625 Q354.025,675.8594 353.3688,675.0938 Q352.7281,674.3125 352.7281,673 Q352.7281,671.3125 353.8063,670.3438 Q354.8844,669.375 356.7594,669.375 Q357.6188,669.375 358.4625,669.5781 Q359.3219,669.7656 360.1656,670.1563 L360.1656,672.5469 Q359.3844,671.9844 358.5563,671.7031 Q357.7438,671.4063 356.9469,671.4063 Q356.0719,671.4063 355.5875,671.7656 Q355.1188,672.125 355.1188,672.7813 Q355.1188,673.2969 355.4625,673.6406 Q355.8063,673.9688 356.9,674.375 L357.9625,674.7813 Q359.4469,675.3281 360.15,676.2344 Q360.8688,677.1406 360.8688,678.5156 Q360.8688,680.3906 359.7594,681.3125 Q358.65,682.2344 356.4,682.2344 Q355.4781,682.2344 354.5563,682.0156 Q353.6344,681.7969 352.775,681.375 L352.775,678.8438 Q353.7438,679.5313 354.6656,679.875 Q355.5875,680.2188 356.4781,680.2188 Q357.3844,680.2188 357.8844,679.8125 Q358.3844,679.3906 358.3844,678.6563 Q358.3844,678.0938 358.0406,677.6875 Q357.7125,677.2656 357.0875,677.0156 L355.8844,676.5625 Z " fill="#000000"/><text fill="#000000" font-family="sans-serif" font-size="14" lengthAdjust="spacing" textLength="159" x="370.6" y="680.8467">SelectConsumerConfig</text><line style="stroke:#181818;stroke-width:0.5;" x1="341.5" x2="532.5" y1="692" y2="692"/><ellipse cx="351.5" cy="705.6484" fill="none" rx="3" ry="3" style="stroke:#038048;stroke-width:1.0;"/><text fill="#000000" font-family="sans-serif" font-size="14" lengthAdjust="spacing" textLength="77" x="360.5" y="708.9951">string Type</text><ellipse cx="351.5" cy="721.9453" fill="none" rx="3" ry="3" style="stroke:#038048;stroke-width:1.0;"/><text fill="#000000" font-family="sans-serif" font-size="14" lengthAdjust="spacing" textLength="92" x="360.5" y="725.292">Config Config</text><text fill="#000000" font-family="sans-serif" font-size="14" lengthAdjust="spacing" textLength="107" x="360.5" y="741.5889">map[string]any,</text><line style="stroke:#181818;stroke-width:0.5;" x1="341.5" x2="532.5" y1="748.8906" y2="748.8906"/><ellipse cx="351.5" cy="762.5391" fill="#84BE84" rx="3" ry="3" style="stroke:#038048;stroke-width:1.0;"/><text fill="#000000" font-family="sans-serif" font-size="14" lengthAdjust="spacing" textLength="129" x="360.5" y="765.8857">error IngestConfig(</text><text fill="#000000" font-family="sans-serif" font-size="14" lengthAdjust="spacing" textLength="167" x="360.5" y="782.1826">map[string]func() Config</text><text fill="#000000" font-family="sans-serif" font-size="14" lengthAdjust="spacing" textLength="5" x="360.5" y="798.4795">)</text></g><!--class SetupConsumersConfig--><g id="elem_SetupConsumersConfig"><rect codeLine="68" fill="#F1F1F1" height="129.4844" id="SetupConsumersConfig" rx="2.5" ry="2.5" style="stroke:#181818;stroke-width:0.5;" width="366" x="213" y="882.5"/><ellipse cx="309.25" cy="898.5" fill="#F1F1F1" rx="11" ry="11" style="stroke:#181818;stroke-width:1.0;"/><path d="M308.7344,899.0625 Q306.875,898.3594 306.2188,897.5938 Q305.5781,896.8125 305.5781,895.5 Q305.5781,893.8125 306.6563,892.8438 Q307.7344,891.875 309.6094,891.875 Q310.4688,891.875 311.3125,892.0781 Q312.1719,892.2656 313.0156,892.6563 L313.0156,895.0469 Q312.2344,894.4844 311.4063,894.2031 Q310.5938,893.9063 309.7969,893.9063 Q308.9219,893.9063 308.4375,894.2656 Q307.9688,894.625 307.9688,895.2813 Q307.9688,895.7969 308.3125,896.1406 Q308.6563,896.4688 309.75,896.875 L310.8125,897.2813 Q312.2969,897.8281 313,898.7344 Q313.7188,899.6406 313.7188,901.0156 Q313.7188,902.8906 312.6094,903.8125 Q311.5,904.7344 309.25,904.7344 Q308.3281,904.7344 307.4063,904.5156 Q306.4844,904.2969 305.625,903.875 L305.625,901.3438 Q306.5938,902.0313 307.5156,902.375 Q308.4375,902.7188 309.3281,902.7188 Q310.2344,902.7188 310.7344,902.3125 Q311.2344,901.8906 311.2344,901.1563 Q311.2344,900.5938 310.8906,900.1875 Q310.5625,899.7656 309.9375,899.5156 L308.7344,899.0625 Z " fill="#000000"/><text fill="#000000" font-family="sans-serif" font-size="14" lengthAdjust="spacing" textLength="165" x="329.75" y="903.3467">SetupConsumersConfig</text><line style="stroke:#181818;stroke-width:0.5;" x1="214" x2="578" y1="914.5" y2="914.5"/><ellipse cx="224" cy="928.1484" fill="none" rx="3" ry="3" style="stroke:#038048;stroke-width:1.0;"/><text fill="#000000" font-family="sans-serif" font-size="14" lengthAdjust="spacing" textLength="340" x="233" y="931.4951">[]SelectConsumerConfig SelectConsumerConfigs</text><text fill="#000000" font-family="sans-serif" font-size="14" lengthAdjust="spacing" textLength="107" x="233" y="947.792">map[string]any,</text><line style="stroke:#181818;stroke-width:0.5;" x1="214" x2="578" y1="955.0938" y2="955.0938"/><ellipse cx="224" cy="968.7422" fill="#84BE84" rx="3" ry="3" style="stroke:#038048;stroke-width:1.0;"/><text fill="#000000" font-family="sans-serif" font-size="14" lengthAdjust="spacing" textLength="129" x="233" y="972.0889">error IngestConfig(</text><text fill="#000000" font-family="sans-serif" font-size="14" lengthAdjust="spacing" textLength="167" x="233" y="988.3857">map[string]func() Config</text><text fill="#000000" font-family="sans-serif" font-size="14" lengthAdjust="spacing" textLength="5" x="233" y="1004.6826">)</text></g><!--class AppConfig--><g id="elem_AppConfig"><rect codeLine="75" fill="#F1F1F1" height="178.375" id="AppConfig" rx="2.5" ry="2.5" style="stroke:#181818;stroke-width:0.5;" width="360" x="412" y="1080"/><ellipse cx="552.25" cy="1096" fill="#F1F1F1" rx="11" ry="11" style="stroke:#181818;stroke-width:1.0;"/><path d="M551.7344,1096.5625 Q549.875,1095.8594 549.2188,1095.0938 Q548.5781,1094.3125 548.5781,1093 Q548.5781,1091.3125 549.6563,1090.3438 Q550.7344,1089.375 552.6094,1089.375 Q553.4688,1089.375 554.3125,1089.5781 Q555.1719,1089.7656 556.0156,1090.1563 L556.0156,1092.5469 Q555.2344,1091.9844 554.4063,1091.7031 Q553.5938,1091.4063 552.7969,1091.4063 Q551.9219,1091.4063 551.4375,1091.7656 Q550.9688,1092.125 550.9688,1092.7813 Q550.9688,1093.2969 551.3125,1093.6406 Q551.6563,1093.9688 552.75,1094.375 L553.8125,1094.7813 Q555.2969,1095.3281 556,1096.2344 Q556.7188,1097.1406 556.7188,1098.5156 Q556.7188,1100.3906 555.6094,1101.3125 Q554.5,1102.2344 552.25,1102.2344 Q551.3281,1102.2344 550.4063,1102.0156 Q549.4844,1101.7969 548.625,1101.375 L548.625,1098.8438 Q549.5938,1099.5313 550.5156,1099.875 Q551.4375,1100.2188 552.3281,1100.2188 Q553.2344,1100.2188 553.7344,1099.8125 Q554.2344,1099.3906 554.2344,1098.6563 Q554.2344,1098.0938 553.8906,1097.6875 Q553.5625,1097.2656 552.9375,1097.0156 L551.7344,1096.5625 Z " fill="#000000"/><text fill="#000000" font-family="sans-serif" font-size="14" lengthAdjust="spacing" textLength="71" x="572.75" y="1100.8467">AppConfig</text><line style="stroke:#181818;stroke-width:0.5;" x1="413" x2="771" y1="1112" y2="1112"/><ellipse cx="423" cy="1125.6484" fill="none" rx="3" ry="3" style="stroke:#038048;stroke-width:1.0;"/><text fill="#000000" font-family="sans-serif" font-size="14" lengthAdjust="spacing" textLength="316" x="432" y="1128.9951">SetupProducersConfig SetupProducersConfig</text><ellipse cx="423" cy="1141.9453" fill="none" rx="3" ry="3" style="stroke:#038048;stroke-width:1.0;"/><text fill="#000000" font-family="sans-serif" font-size="14" lengthAdjust="spacing" textLength="334" x="432" y="1145.292">SetupConsumersConfig SetupConsumersConfig</text><ellipse cx="423" cy="1158.2422" fill="none" rx="3" ry="3" style="stroke:#038048;stroke-width:1.0;"/><text fill="#000000" font-family="sans-serif" font-size="14" lengthAdjust="spacing" textLength="166" x="432" y="1161.5889">Config PipeServerConfig</text><text fill="#000000" font-family="sans-serif" font-size="14" lengthAdjust="spacing" textLength="107" x="432" y="1177.8857">map[string]any,</text><line style="stroke:#181818;stroke-width:0.5;" x1="413" x2="771" y1="1185.1875" y2="1185.1875"/><ellipse cx="423" cy="1198.8359" fill="#84BE84" rx="3" ry="3" style="stroke:#038048;stroke-width:1.0;"/><text fill="#000000" font-family="sans-serif" font-size="14" lengthAdjust="spacing" textLength="129" x="432" y="1202.1826">error IngestConfig(</text><text fill="#000000" font-family="sans-serif" font-size="14" lengthAdjust="spacing" textLength="171" x="432" y="1218.4795">map[string]func() Config,</text><text fill="#000000" font-family="sans-serif" font-size="14" lengthAdjust="spacing" textLength="167" x="432" y="1234.7764">map[string]func() Config</text><text fill="#000000" font-family="sans-serif" font-size="14" lengthAdjust="spacing" textLength="5" x="432" y="1251.0732">)</text></g><!--reverse link AppData to Pushable--><g id="link_AppData_Pushable"><path codeLine="86" d="M691,166.3 C691,186.52 691,196.62 691,213.94 " fill="none" id="AppData-backto-Pushable" style="stroke:#181818;stroke-width:1.0;"/><polygon fill="#181818" points="691,154.3,687,160.3,691,166.3,695,160.3,691,154.3" style="stroke:#181818;stroke-width:1.0;"/></g><!--reverse link Server to SourceServer--><g id="link_Server_SourceServer"><path codeLine="87" d="M498.5783,428.7482 C530.6483,449.3782 555.01,465.04 588.78,486.76 " fill="none" id="Server-backto-SourceServer" style="stroke:#181818;stroke-width:1.0;"/><polygon fill="none" points="483.44,419.01,495.3322,433.7943,501.8244,423.7021,483.44,419.01" style="stroke:#181818;stroke-width:1.0;"/></g><!--reverse link Pushable to Pullable--><g id="link_Pushable_Pullable"><path codeLine="88" d="M691,290.26 C691,310.92 691,325.89 691,346.5 " fill="none" id="Pushable-backto-Pullable" style="stroke:#181818;stroke-width:1.0;"/><polygon fill="#181818" points="691,278.26,687,284.26,691,290.26,695,284.26,691,278.26" style="stroke:#181818;stroke-width:1.0;"/></g><!--reverse link Pullable to SourceServer--><g id="link_Pullable_SourceServer"><path codeLine="89" d="M682.1357,428.5843 C678.1957,450.4343 676.05,462.26 671.58,486.98 " fill="none" id="Pullable-backto-SourceServer" style="stroke:#181818;stroke-width:1.0;"/><polygon fill="none" points="685.33,410.87,676.231,427.5196,688.0405,429.6491,685.33,410.87" style="stroke:#181818;stroke-width:1.0;"/></g><!--reverse link Server to SinkServer--><g id="link_Server_SinkServer"><path codeLine="90" d="M328.7355,427.2086 C288.3155,447.8886 254.56,465.15 212.04,486.91 " fill="none" id="Server-backto-SinkServer" style="stroke:#181818;stroke-width:1.0;"/><polygon fill="none" points="344.76,419.01,326.0027,421.8671,331.4684,432.5501,344.76,419.01" style="stroke:#181818;stroke-width:1.0;"/></g><!--reverse link Pushable to SinkServer--><g id="link_Pushable_SinkServer"><path codeLine="91" d="M576.4152,260.0239 C499.8452,271.3939 410.02,291.9 326,338 C257.36,375.66 194.6,441.69 156.6,486.72 " fill="none" id="Pushable-backto-SinkServer" style="stroke:#181818;stroke-width:1.0;"/><polygon fill="none" points="594.22,257.38,575.5339,254.0889,577.2965,265.9588,594.22,257.38" style="stroke:#181818;stroke-width:1.0;"/></g><!--reverse link Pushable to PipeServer--><g id="link_Pushable_PipeServer"><path codeLine="92" d="M763.6513,287.5062 C788.7713,303.1062 801.96,314.25 823,338 C859.91,379.66 887.97,436.9 905.41,478.85 " fill="none" id="Pushable-backto-PipeServer" style="stroke:#181818;stroke-width:1.0;"/><polygon fill="none" points="748.36,278.01,760.4859,292.6033,766.8167,282.4091,748.36,278.01" style="stroke:#181818;stroke-width:1.0;"/></g><!--reverse link Pullable to PipeServer--><g id="link_Pullable_PipeServer"><path codeLine="93" d="M753.2951,420.5919 C782.9151,440.1319 806.92,455.96 841.71,478.91 " fill="none" id="Pullable-backto-PipeServer" style="stroke:#181818;stroke-width:1.0;"/><polygon fill="none" points="738.27,410.68,749.9911,425.6003,756.5991,415.5835,738.27,410.68" style="stroke:#181818;stroke-width:1.0;"/></g><!--reverse link Server to PipeServer--><g id="link_Server_PipeServer"><path codeLine="94" d="M518.3798,407.4967 C537.6298,412.9867 540.88,413.82 560,419 C664.05,447.17 692.86,444.54 795,479 C800.5,480.86 806.09,482.84 811.72,484.91 " fill="none" id="Server-backto-PipeServer" style="stroke:#181818;stroke-width:1.0;"/><polygon fill="none" points="501.07,402.56,516.7342,413.2666,520.0254,401.7267,501.07,402.56" style="stroke:#181818;stroke-width:1.0;"/></g><!--reverse link SinkServer to MapSinkServer--><g id="link_SinkServer_MapSinkServer"><path codeLine="96" d="M120.7136,595.9212 C125.1336,623.7312 131.18,647.11 139.52,676.22 " fill="none" id="SinkServer-backto-MapSinkServer" style="stroke:#181818;stroke-width:1.0;"/><polygon fill="#181818" points="118.83,584.07,115.8214,590.6235,120.7136,595.9212,123.7222,589.3678,118.83,584.07" style="stroke:#181818;stroke-width:1.0;"/></g><!--reverse link SinkServer to MapSinkServer--><g id="link_SinkServer_MapSinkServer"><path codeLine="97" d="M146.9857,601.2856 C155.4757,629.0956 158.52,647.11 163.49,676.22 " fill="none" id="SinkServer-backto-MapSinkServer-1" style="stroke:#181818;stroke-width:1.0;"/><polygon fill="none" points="141.73,584.07,141.2471,603.0375,152.7242,599.5337,141.73,584.07" style="stroke:#181818;stroke-width:1.0;"/></g><!--reverse link Server to Config--><g id="link_Server_Config"><path codeLine="99" d="M408.8009,430.6292 C402.0409,456.8192 396.3,479.08 390.04,503.36 " fill="none" id="Server-backto-Config" style="stroke:#181818;stroke-width:1.0;"/><polygon fill="#181818" points="411.8,419.01,406.4274,423.8199,408.8009,430.6292,414.1735,425.8193,411.8,419.01" style="stroke:#181818;stroke-width:1.0;"/></g><!--reverse link Config to SelectProducerConfig--><g id="link_Config_SelectProducerConfig"><path codeLine="100" d="M450.8178,573.3565 C507.2678,603.5965 583.36,644.35 650.2,680.15 " fill="none" id="Config-backto-SelectProducerConfig" style="stroke:#181818;stroke-width:1.0;"/><polygon fill="#181818" points="440.24,567.69,443.6401,574.0492,450.8178,573.3565,447.4178,566.9973,440.24,567.69" style="stroke:#181818;stroke-width:1.0;"/></g><!--reverse link Config to SelectConsumerConfig--><g id="link_Config_SelectConsumerConfig"><path codeLine="101" d="M394.0879,579.4621 C401.0379,604.1821 407.76,628.06 416.65,659.68 " fill="none" id="Config-backto-SelectConsumerConfig" style="stroke:#181818;stroke-width:1.0;"/><polygon fill="#181818" points="390.84,567.91,388.6132,574.7687,394.0879,579.4621,396.3146,572.6034,390.84,567.91" style="stroke:#181818;stroke-width:1.0;"/></g><!--reverse link SetupProducersConfig to AppConfig--><g id="link_SetupProducersConfig_AppConfig"><path codeLine="102" d="M715.8357,1028.9983 C698.8657,1048.0383 688.34,1059.86 670.7,1079.67 " fill="none" id="SetupProducersConfig-backto-AppConfig" style="stroke:#181818;stroke-width:1.0;"/><polygon fill="#181818" points="723.82,1020.04,716.8417,1021.8577,715.8357,1028.9983,722.8139,1027.1806,723.82,1020.04" style="stroke:#181818;stroke-width:1.0;"/></g><!--reverse link SetupConsumersConfig to AppConfig--><g id="link_SetupConsumersConfig_AppConfig"><path codeLine="103" d="M460.6738,1020.5887 C479.6738,1041.9087 493.21,1057.12 513.57,1079.96 " fill="none" id="SetupConsumersConfig-backto-AppConfig" style="stroke:#181818;stroke-width:1.0;"/><polygon fill="#181818" points="452.69,1011.63,453.6957,1018.7706,460.6738,1020.5887,459.6682,1013.4481,452.69,1011.63" style="stroke:#181818;stroke-width:1.0;"/></g><!--reverse link SelectProducerConfig to SetupProducersConfig--><g id="link_SelectProducerConfig_SetupProducersConfig"><path codeLine="104" d="M764.7804,825.9313 C768.5704,845.5113 770.32,854.56 774.03,873.75 " fill="none" id="SelectProducerConfig-backto-SetupProducersConfig" style="stroke:#181818;stroke-width:1.0;"/><polygon fill="#181818" points="762.5,814.15,759.7131,820.8008,764.7804,825.9313,767.5673,819.2805,762.5,814.15" style="stroke:#181818;stroke-width:1.0;"/></g><!--reverse link SelectConsumerConfig to SetupConsumersConfig--><g id="link_SelectConsumerConfig_SetupConsumersConfig"><path codeLine="105" d="M420.7827,817.8519 C416.0027,842.5819 412.96,858.28 408.32,882.3 " fill="none" id="SelectConsumerConfig-backto-SetupConsumersConfig" style="stroke:#181818;stroke-width:1.0;"/><polygon fill="#181818" points="423.06,806.07,417.994,811.2019,420.7827,817.8519,425.8487,812.7201,423.06,806.07" style="stroke:#181818;stroke-width:1.0;"/></g><!--SRC=[pLRBRi8m4BpdAt8C5FY2Nb0hLQYgX0etn24aXaODjkL79TJoxtMma_Yn2H95q1n8iZixdjtDsk1qZpXDCnGl4Fj2BFwEOdLnmMGcuYcbpwb8ZR6wnYa-nBcojHQ5BV0kPaGATNz5XyRra2ZqA4QC4JQ8Nv2eo9A1vTUnDkIzeJ70u-ctm0AnRQ3pn78ArdQRl3OBIPCdWhV53YQSox9CDoKAAQTvFfVyet8czKCNX_P2id2-9CdGbB8Z9o9PXheowvPnZVGN1VxihYaW_YerB-XVqxsgClEzlwKKBCTudzAL_bRN5e0tZohmPhNJlh1kCxn3N6XlOWbMCmYaka0boiISaLncY8MSPggTn8njUQ2eDPfGVUlLr3YhonKuwl9j9SwIWSyEvgFgLgV3mtncNAL2A_aRGihMlbg3bO2C_9xPLN8KZijzJxV-RsTgwK1dwWvusK76EtP0ZN4e7Vpe8ACNubS3CWPzRFVCMtJqmeeT8ornKlzr68x7viYUr9jv3J6xwEDF2x4FmiWBSwdqcHrvxsV9e3MRNJnOyG9OswLURI4CK6Q1ea25NGxdt0AWDgcBzLQtE4s3dJVR3-sGvz3kDBTh0rDanJQZvmJuCzGV06pnZZfWP7kK1x6Uc5y0]--></g></svg>