<?xml version="1.0" encoding="us-ascii" standalone="no"?><svg xmlns="http://www.w3.org/2000/svg" xmlns:xlink="http://www.w3.org/1999/xlink" contentStyleType="text/css" height="555px" preserveAspectRatio="none" style="width:959px;height:555px;background:#FFFFFF;" version="1.1" viewBox="0 0 959 555" width="959px" zoomAndPan="magnify"><defs/><g><!--cluster Server--><g id="cluster_Server"><path d="M8.5,6 L62.5,6 A3.75,3.75 0 0 1 65,8.5 L72,28.2969 L791.5,28.2969 A2.5,2.5 0 0 1 794,30.7969 L794,151.5 A2.5,2.5 0 0 1 791.5,154 L8.5,154 A2.5,2.5 0 0 1 6,151.5 L6,8.5 A2.5,2.5 0 0 1 8.5,6 " fill="none" style="stroke:#000000;stroke-width:1.5;"/><line style="stroke:#000000;stroke-width:1.5;" x1="6" x2="72" y1="28.2969" y2="28.2969"/><text fill="#000000" font-family="sans-serif" font-size="14" font-weight="bold" lengthAdjust="spacing" textLength="53" x="10" y="20.9951">Server</text></g><!--cluster Consumer--><g id="cluster_Consumer"><path d="M360.5,178 L442.5,178 A3.75,3.75 0 0 1 445,180.5 L452,200.2969 L949.5,200.2969 A2.5,2.5 0 0 1 952,202.7969 L952,545.5 A2.5,2.5 0 0 1 949.5,548 L360.5,548 A2.5,2.5 0 0 1 358,545.5 L358,180.5 A2.5,2.5 0 0 1 360.5,178 " fill="none" style="stroke:#000000;stroke-width:1.5;"/><line style="stroke:#000000;stroke-width:1.5;" x1="358" x2="452" y1="200.2969" y2="200.2969"/><text fill="#000000" font-family="sans-serif" font-size="14" font-weight="bold" lengthAdjust="spacing" textLength="81" x="362" y="192.9951">Consumer</text></g><!--class Pushable--><g id="elem_Pushable"><rect codeLine="2" fill="#F1F1F1" height="64.2969" id="Pushable" rx="2.5" ry="2.5" style="stroke:#181818;stroke-width:0.5;" width="193" x="22.5" y="57.5"/><ellipse cx="82.75" cy="73.5" fill="#B4A7E5" rx="11" ry="11" style="stroke:#181818;stroke-width:1.0;"/><path d="M78.6719,69.2656 L78.6719,67.1094 L86.0625,67.1094 L86.0625,69.2656 L83.5938,69.2656 L83.5938,77.3438 L86.0625,77.3438 L86.0625,79.5 L78.6719,79.5 L78.6719,77.3438 L81.1406,77.3438 L81.1406,69.2656 L78.6719,69.2656 Z " fill="#000000"/><text fill="#000000" font-family="sans-serif" font-size="14" font-style="italic" lengthAdjust="spacing" textLength="64" x="103.25" y="78.3467">Pushable</text><line style="stroke:#181818;stroke-width:0.5;" x1="23.5" x2="214.5" y1="89.5" y2="89.5"/><line style="stroke:#181818;stroke-width:0.5;" x1="23.5" x2="214.5" y1="97.5" y2="97.5"/><ellipse cx="33.5" cy="111.1484" fill="#84BE84" rx="3" ry="3" style="stroke:#038048;stroke-width:1.0;"/><text fill="#000000" font-family="sans-serif" font-size="14" lengthAdjust="spacing" textLength="167" x="42.5" y="114.4951">error SendTo(*AppData)</text></g><!--class SourceServer--><g id="elem_SourceServer"><rect codeLine="5" fill="#F1F1F1" height="96.8906" id="SourceServer" rx="2.5" ry="2.5" style="stroke:#181818;stroke-width:0.5;" width="228" x="251" y="41"/><ellipse cx="314.25" cy="57" fill="#B4A7E5" rx="11" ry="11" style="stroke:#181818;stroke-width:1.0;"/><path d="M310.1719,52.7656 L310.1719,50.6094 L317.5625,50.6094 L317.5625,52.7656 L315.0938,52.7656 L315.0938,60.8438 L317.5625,60.8438 L317.5625,63 L310.1719,63 L310.1719,60.8438 L312.6406,60.8438 L312.6406,52.7656 L310.1719,52.7656 Z " fill="#000000"/><text fill="#000000" font-family="sans-serif" font-size="14" font-style="italic" lengthAdjust="spacing" textLength="93" x="334.75" y="61.8467">SourceServer</text><line style="stroke:#181818;stroke-width:0.5;" x1="252" x2="478" y1="73" y2="73"/><line style="stroke:#181818;stroke-width:0.5;" x1="252" x2="478" y1="81" y2="81"/><ellipse cx="262" cy="94.6484" fill="#84BE84" rx="3" ry="3" style="stroke:#038048;stroke-width:1.0;"/><text fill="#000000" font-family="sans-serif" font-size="14" lengthAdjust="spacing" textLength="202" x="271" y="97.9951">error AddPushable(Pushable)</text><ellipse cx="262" cy="110.9453" fill="#84BE84" rx="3" ry="3" style="stroke:#038048;stroke-width:1.0;"/><text fill="#000000" font-family="sans-serif" font-size="14" lengthAdjust="spacing" textLength="86" x="271" y="114.292">error Serve()</text><ellipse cx="262" cy="127.2422" fill="#84BE84" rx="3" ry="3" style="stroke:#038048;stroke-width:1.0;"/><text fill="#000000" font-family="sans-serif" font-size="14" lengthAdjust="spacing" textLength="132" x="271" y="130.5889">error Setup(Config)</text></g><!--class Config--><g id="elem_Config"><rect codeLine="10" fill="#F1F1F1" height="64.2969" id="Config" rx="2.5" ry="2.5" style="stroke:#181818;stroke-width:0.5;" width="263" x="514.5" y="57.5"/><ellipse cx="619.75" cy="73.5" fill="#B4A7E5" rx="11" ry="11" style="stroke:#181818;stroke-width:1.0;"/><path d="M615.6719,69.2656 L615.6719,67.1094 L623.0625,67.1094 L623.0625,69.2656 L620.5938,69.2656 L620.5938,77.3438 L623.0625,77.3438 L623.0625,79.5 L615.6719,79.5 L615.6719,77.3438 L618.1406,77.3438 L618.1406,69.2656 L615.6719,69.2656 Z " fill="#000000"/><text fill="#000000" font-family="sans-serif" font-size="14" font-style="italic" lengthAdjust="spacing" textLength="44" x="640.25" y="78.3467">Config</text><line style="stroke:#181818;stroke-width:0.5;" x1="515.5" x2="776.5" y1="89.5" y2="89.5"/><line style="stroke:#181818;stroke-width:0.5;" x1="515.5" x2="776.5" y1="97.5" y2="97.5"/><ellipse cx="525.5" cy="111.1484" fill="#84BE84" rx="3" ry="3" style="stroke:#038048;stroke-width:1.0;"/><text fill="#000000" font-family="sans-serif" font-size="14" lengthAdjust="spacing" textLength="237" x="534.5" y="114.4951">error IngestConfig(map[string]any)</text></g><!--class RabbitMQConsumer--><g id="elem_RabbitMQConsumer"><rect codeLine="15" fill="#F1F1F1" height="145.7813" id="RabbitMQConsumer" rx="2.5" ry="2.5" style="stroke:#181818;stroke-width:0.5;" width="255" x="374.5" y="386"/><ellipse cx="428.25" cy="402" fill="#F1F1F1" rx="11" ry="11" style="stroke:#181818;stroke-width:1.0;"/><path d="M427.7344,402.5625 Q425.875,401.8594 425.2188,401.0938 Q424.5781,400.3125 424.5781,399 Q424.5781,397.3125 425.6563,396.3438 Q426.7344,395.375 428.6094,395.375 Q429.4688,395.375 430.3125,395.5781 Q431.1719,395.7656 432.0156,396.1563 L432.0156,398.5469 Q431.2344,397.9844 430.4063,397.7031 Q429.5938,397.4063 428.7969,397.4063 Q427.9219,397.4063 427.4375,397.7656 Q426.9688,398.125 426.9688,398.7813 Q426.9688,399.2969 427.3125,399.6406 Q427.6563,399.9688 428.75,400.375 L429.8125,400.7813 Q431.2969,401.3281 432,402.2344 Q432.7188,403.1406 432.7188,404.5156 Q432.7188,406.3906 431.6094,407.3125 Q430.5,408.2344 428.25,408.2344 Q427.3281,408.2344 426.4063,408.0156 Q425.4844,407.7969 424.625,407.375 L424.625,404.8438 Q425.5938,405.5313 426.5156,405.875 Q427.4375,406.2188 428.3281,406.2188 Q429.2344,406.2188 429.7344,405.8125 Q430.2344,405.3906 430.2344,404.6563 Q430.2344,404.0938 429.8906,403.6875 Q429.5625,403.2656 428.9375,403.0156 L427.7344,402.5625 Z " fill="#000000"/><text fill="#000000" font-family="sans-serif" font-size="14" lengthAdjust="spacing" textLength="139" x="448.75" y="406.8467">RabbitMQConsumer</text><line style="stroke:#181818;stroke-width:0.5;" x1="375.5" x2="628.5" y1="418" y2="418"/><rect fill="none" height="6" style="stroke:#C82930;stroke-width:1.0;" width="6" x="382.5" y="428.6484"/><text fill="#000000" font-family="sans-serif" font-size="14" lengthAdjust="spacing" textLength="229" x="394.5" y="434.9951">RabbitMQConsumerConfig config</text><rect fill="none" height="6" style="stroke:#C82930;stroke-width:1.0;" width="6" x="382.5" y="444.9453"/><text fill="#000000" font-family="sans-serif" font-size="14" lengthAdjust="spacing" textLength="132" x="394.5" y="451.292">Pushable pushable</text><rect fill="none" height="6" style="stroke:#C82930;stroke-width:1.0;" width="6" x="382.5" y="461.2422"/><text fill="#000000" font-family="sans-serif" font-size="14" lengthAdjust="spacing" textLength="119" x="394.5" y="467.5889">RabbitMQDial dial</text><line style="stroke:#181818;stroke-width:0.5;" x1="375.5" x2="628.5" y1="474.8906" y2="474.8906"/><ellipse cx="385.5" cy="488.5391" fill="#84BE84" rx="3" ry="3" style="stroke:#038048;stroke-width:1.0;"/><text fill="#000000" font-family="sans-serif" font-size="14" lengthAdjust="spacing" textLength="202" x="394.5" y="491.8857">error AddPushable(Pushable)</text><ellipse cx="385.5" cy="504.8359" fill="#84BE84" rx="3" ry="3" style="stroke:#038048;stroke-width:1.0;"/><text fill="#000000" font-family="sans-serif" font-size="14" lengthAdjust="spacing" textLength="86" x="394.5" y="508.1826">error Serve()</text><ellipse cx="385.5" cy="521.1328" fill="#84BE84" rx="3" ry="3" style="stroke:#038048;stroke-width:1.0;"/><text fill="#000000" font-family="sans-serif" font-size="14" lengthAdjust="spacing" textLength="132" x="394.5" y="524.4795">error Setup(Config)</text></g><!--class RabbitMQConsumerConfig--><g id="elem_RabbitMQConsumerConfig"><rect codeLine="23" fill="#F1F1F1" height="113.1875" id="RabbitMQConsumerConfig" rx="2.5" ry="2.5" style="stroke:#181818;stroke-width:0.5;" width="263" x="672.5" y="213"/><ellipse cx="709.1" cy="229" fill="#F1F1F1" rx="11" ry="11" style="stroke:#181818;stroke-width:1.0;"/><path d="M708.5844,229.5625 Q706.725,228.8594 706.0688,228.0938 Q705.4281,227.3125 705.4281,226 Q705.4281,224.3125 706.5063,223.3438 Q707.5844,222.375 709.4594,222.375 Q710.3188,222.375 711.1625,222.5781 Q712.0219,222.7656 712.8656,223.1563 L712.8656,225.5469 Q712.0844,224.9844 711.2563,224.7031 Q710.4438,224.4063 709.6469,224.4063 Q708.7719,224.4063 708.2875,224.7656 Q707.8188,225.125 707.8188,225.7813 Q707.8188,226.2969 708.1625,226.6406 Q708.5063,226.9688 709.6,227.375 L710.6625,227.7813 Q712.1469,228.3281 712.85,229.2344 Q713.5688,230.1406 713.5688,231.5156 Q713.5688,233.3906 712.4594,234.3125 Q711.35,235.2344 709.1,235.2344 Q708.1781,235.2344 707.2563,235.0156 Q706.3344,234.7969 705.475,234.375 L705.475,231.8438 Q706.4438,232.5313 707.3656,232.875 Q708.2875,233.2188 709.1781,233.2188 Q710.0844,233.2188 710.5844,232.8125 Q711.0844,232.3906 711.0844,231.6563 Q711.0844,231.0938 710.7406,230.6875 Q710.4125,230.2656 709.7875,230.0156 L708.5844,229.5625 Z " fill="#000000"/><text fill="#000000" font-family="sans-serif" font-size="14" lengthAdjust="spacing" textLength="183" x="727.9" y="233.8467">RabbitMQConsumerConfig</text><line style="stroke:#181818;stroke-width:0.5;" x1="673.5" x2="934.5" y1="245" y2="245"/><ellipse cx="683.5" cy="258.6484" fill="none" rx="3" ry="3" style="stroke:#038048;stroke-width:1.0;"/><text fill="#000000" font-family="sans-serif" font-size="14" lengthAdjust="spacing" textLength="123" x="692.5" y="261.9951">string Connection</text><ellipse cx="683.5" cy="274.9453" fill="none" rx="3" ry="3" style="stroke:#038048;stroke-width:1.0;"/><text fill="#000000" font-family="sans-serif" font-size="14" lengthAdjust="spacing" textLength="90" x="692.5" y="278.292">string Queue</text><ellipse cx="683.5" cy="291.2422" fill="none" rx="3" ry="3" style="stroke:#038048;stroke-width:1.0;"/><text fill="#000000" font-family="sans-serif" font-size="14" lengthAdjust="spacing" textLength="141" x="692.5" y="294.5889">string ConsumerTag</text><line style="stroke:#181818;stroke-width:0.5;" x1="673.5" x2="934.5" y1="301.8906" y2="301.8906"/><ellipse cx="683.5" cy="315.5391" fill="#84BE84" rx="3" ry="3" style="stroke:#038048;stroke-width:1.0;"/><text fill="#000000" font-family="sans-serif" font-size="14" lengthAdjust="spacing" textLength="237" x="692.5" y="318.8857">error IngestConfig(map[string]any)</text></g><!--class AMQPOneConsumerConfig--><g id="elem_AMQPOneConsumerConfig"><rect codeLine="29" fill="#F1F1F1" height="96.8906" id="AMQPOneConsumerConfig" rx="2.5" ry="2.5" style="stroke:#181818;stroke-width:0.5;" width="263" x="374.5" y="221"/><ellipse cx="409.75" cy="237" fill="#F1F1F1" rx="11" ry="11" style="stroke:#181818;stroke-width:1.0;"/><path d="M409.2344,237.5625 Q407.375,236.8594 406.7188,236.0938 Q406.0781,235.3125 406.0781,234 Q406.0781,232.3125 407.1563,231.3438 Q408.2344,230.375 410.1094,230.375 Q410.9688,230.375 411.8125,230.5781 Q412.6719,230.7656 413.5156,231.1563 L413.5156,233.5469 Q412.7344,232.9844 411.9063,232.7031 Q411.0938,232.4063 410.2969,232.4063 Q409.4219,232.4063 408.9375,232.7656 Q408.4688,233.125 408.4688,233.7813 Q408.4688,234.2969 408.8125,234.6406 Q409.1563,234.9688 410.25,235.375 L411.3125,235.7813 Q412.7969,236.3281 413.5,237.2344 Q414.2188,238.1406 414.2188,239.5156 Q414.2188,241.3906 413.1094,242.3125 Q412,243.2344 409.75,243.2344 Q408.8281,243.2344 407.9063,243.0156 Q406.9844,242.7969 406.125,242.375 L406.125,239.8438 Q407.0938,240.5313 408.0156,240.875 Q408.9375,241.2188 409.8281,241.2188 Q410.7344,241.2188 411.2344,240.8125 Q411.7344,240.3906 411.7344,239.6563 Q411.7344,239.0938 411.3906,238.6875 Q411.0625,238.2656 410.4375,238.0156 L409.2344,237.5625 Z " fill="#000000"/><text fill="#000000" font-family="sans-serif" font-size="14" lengthAdjust="spacing" textLength="186" x="428.25" y="241.8467">AMQPOneConsumerConfig</text><line style="stroke:#181818;stroke-width:0.5;" x1="375.5" x2="636.5" y1="253" y2="253"/><ellipse cx="385.5" cy="266.6484" fill="none" rx="3" ry="3" style="stroke:#038048;stroke-width:1.0;"/><text fill="#000000" font-family="sans-serif" font-size="14" lengthAdjust="spacing" textLength="123" x="394.5" y="269.9951">string Connection</text><ellipse cx="385.5" cy="282.9453" fill="none" rx="3" ry="3" style="stroke:#038048;stroke-width:1.0;"/><text fill="#000000" font-family="sans-serif" font-size="14" lengthAdjust="spacing" textLength="90" x="394.5" y="286.292">string Queue</text><line style="stroke:#181818;stroke-width:0.5;" x1="375.5" x2="636.5" y1="293.5938" y2="293.5938"/><ellipse cx="385.5" cy="307.2422" fill="#84BE84" rx="3" ry="3" style="stroke:#038048;stroke-width:1.0;"/><text fill="#000000" font-family="sans-serif" font-size="14" lengthAdjust="spacing" textLength="237" x="394.5" y="310.5889">error IngestConfig(map[string]any)</text></g><!--reverse link SourceServer to RabbitMQConsumer--><g id="link_SourceServer_RabbitMQConsumer"><path codeLine="37" d="M347.6478,155.9362 C336.4978,205.2162 330.29,265.57 357,326 C366.84,348.26 382.49,368.39 399.95,385.83 " fill="none" id="SourceServer-backto-RabbitMQConsumer" style="stroke:#181818;stroke-width:1.0;"/><polygon fill="none" points="351.62,138.38,341.7957,154.6122,353.4998,157.2603,351.62,138.38" style="stroke:#181818;stroke-width:1.0;"/></g><!--reverse link Pushable to RabbitMQConsumer--><g id="link_Pushable_RabbitMQConsumer"><path codeLine="38" d="M151.9178,131.092 C190.2778,177.782 258.85,258.14 332,326 C354.05,346.46 379.05,367.1 402.95,385.79 " fill="none" id="Pushable-backto-RabbitMQConsumer" style="stroke:#181818;stroke-width:1.0;"/><polygon fill="#181818" points="144.3,121.82,145.0182,128.9952,151.9178,131.092,151.1995,123.9167,144.3,121.82" style="stroke:#181818;stroke-width:1.0;"/></g><!--reverse link Config to RabbitMQConsumerConfig--><g id="link_Config_RabbitMQConsumerConfig"><path codeLine="41" d="M685.4692,134.9716 C707.7492,160.0716 727.76,182.61 754.47,212.7 " fill="none" id="Config-backto-RabbitMQConsumerConfig" style="stroke:#181818;stroke-width:1.0;"/><polygon fill="none" points="673.52,121.51,680.982,138.9547,689.9564,130.9886,673.52,121.51" style="stroke:#181818;stroke-width:1.0;"/></g><!--reverse link Config to AMQPOneConsumerConfig--><g id="link_Config_AMQPOneConsumerConfig"><path codeLine="42" d="M610.4831,135.6589 C588.9431,163.0489 568.32,189.27 543.53,220.78 " fill="none" id="Config-backto-AMQPOneConsumerConfig" style="stroke:#181818;stroke-width:1.0;"/><polygon fill="none" points="621.61,121.51,605.7668,131.9499,615.1993,139.3679,621.61,121.51" style="stroke:#181818;stroke-width:1.0;"/></g><!--reverse link RabbitMQConsumerConfig to RabbitMQConsumer--><g id="link_RabbitMQConsumerConfig_RabbitMQConsumer"><path codeLine="43" d="M704.0149,332.5793 C673.8449,351.3093 649.95,366.14 618.06,385.94 " fill="none" id="RabbitMQConsumerConfig-backto-RabbitMQConsumer" style="stroke:#181818;stroke-width:1.0;"/><polygon fill="#181818" points="714.21,326.25,707.0027,326.0163,704.0149,332.5793,711.2222,332.813,714.21,326.25" style="stroke:#181818;stroke-width:1.0;"/></g><!--SRC=[hLBBJiCm4BpdAtnqYz8lu1BH2uUAXlQ6E3ZEDbXgrfOVI0ZwxpWlqyOXLC0U4ikpCxixNcGr6CKua1teLz3aFI4-15hGX-PwwymBAuxG0qtSWDPIUmAMUqcNcL9hPjcYnKyZ-auwpU52-qmYAyj1dmw7HLp7a-d4jNMAtaayY6gwTeV5LU-n0cCxbDPCFHch1LRF3Dy6eLE2mHYVQ5mTslV9Zbloo8f2s4q-Gfj8nrZV26z_Nsd1MjKVOeMrO4TI-izLpf4_MlVDQB6FdM6DCmZS2eaHb3jmC4Le5VUi-iMZdBMORVBj0y8_TdXr5tutacwVLnVBVVkHfc70rTZ3WHBUV3cR7KhqaysBTqcpb4d3aXyKvvly1000]--></g></svg>