<?xml version="1.0" encoding="us-ascii" standalone="no"?><svg xmlns="http://www.w3.org/2000/svg" xmlns:xlink="http://www.w3.org/1999/xlink" contentStyleType="text/css" height="1301px" preserveAspectRatio="none" style="width:1306px;height:1301px;background:#FFFFFF;" version="1.1" viewBox="0 0 1306 1301" width="1306px" zoomAndPan="magnify"><defs/><g><!--cluster Server--><g id="cluster_Server"><path d="M8.5,6 L62.5,6 A3.75,3.75 0 0 1 65,8.5 L72,28.2969 L1020.5,28.2969 A2.5,2.5 0 0 1 1023,30.7969 L1023,1291.5 A2.5,2.5 0 0 1 1020.5,1294 L8.5,1294 A2.5,2.5 0 0 1 6,1291.5 L6,8.5 A2.5,2.5 0 0 1 8.5,6 " fill="none" style="stroke:#000000;stroke-width:1.5;"/><line style="stroke:#000000;stroke-width:1.5;" x1="6" x2="72" y1="28.2969" y2="28.2969"/><text fill="#000000" font-family="sans-serif" font-size="14" font-weight="bold" lengthAdjust="spacing" textLength="53" x="10" y="20.9951">Server</text></g><!--cluster JSONExtractor--><g id="cluster_JSONExtractor"><path d="M1049.5,411 L1159.5,411 A3.75,3.75 0 0 1 1162,413.5 L1169,433.2969 L1296.5,433.2969 A2.5,2.5 0 0 1 1299,435.7969 L1299,588.5 A2.5,2.5 0 0 1 1296.5,591 L1049.5,591 A2.5,2.5 0 0 1 1047,588.5 L1047,413.5 A2.5,2.5 0 0 1 1049.5,411 " fill="none" style="stroke:#000000;stroke-width:1.5;"/><line style="stroke:#000000;stroke-width:1.5;" x1="1047" x2="1169" y1="433.2969" y2="433.2969"/><text fill="#000000" font-family="sans-serif" font-size="14" font-weight="bold" lengthAdjust="spacing" textLength="109" x="1051" y="425.9951">JSONExtractor</text></g><!--class CompletionHandler--><g id="elem_CompletionHandler"><rect codeLine="2" fill="#F1F1F1" height="64.2969" id="CompletionHandler" rx="2.5" ry="2.5" style="stroke:#181818;stroke-width:0.5;" width="205" x="653.5" y="41"/><ellipse cx="686.95" cy="57" fill="#B4A7E5" rx="11" ry="11" style="stroke:#181818;stroke-width:1.0;"/><path d="M682.8719,52.7656 L682.8719,50.6094 L690.2625,50.6094 L690.2625,52.7656 L687.7938,52.7656 L687.7938,60.8438 L690.2625,60.8438 L690.2625,63 L682.8719,63 L682.8719,60.8438 L685.3406,60.8438 L685.3406,52.7656 L682.8719,52.7656 Z " fill="#000000"/><text fill="#000000" font-family="sans-serif" font-size="14" font-style="italic" lengthAdjust="spacing" textLength="132" x="705.05" y="61.8467">CompletionHandler</text><line style="stroke:#181818;stroke-width:0.5;" x1="654.5" x2="857.5" y1="73" y2="73"/><line style="stroke:#181818;stroke-width:0.5;" x1="654.5" x2="857.5" y1="81" y2="81"/><ellipse cx="664.5" cy="94.6484" fill="#84BE84" rx="3" ry="3" style="stroke:#038048;stroke-width:1.0;"/><text fill="#000000" font-family="sans-serif" font-size="14" lengthAdjust="spacing" textLength="179" x="673.5" y="97.9951">error Complete(any, error)</text></g><!--class AppData--><g id="elem_AppData"><rect codeLine="5" fill="#F1F1F1" height="96.8906" id="AppData" rx="2.5" ry="2.5" style="stroke:#181818;stroke-width:0.5;" width="292" x="610" y="165"/><ellipse cx="722.25" cy="181" fill="#F1F1F1" rx="11" ry="11" style="stroke:#181818;stroke-width:1.0;"/><path d="M721.7344,181.5625 Q719.875,180.8594 719.2188,180.0938 Q718.5781,179.3125 718.5781,178 Q718.5781,176.3125 719.6563,175.3438 Q720.7344,174.375 722.6094,174.375 Q723.4688,174.375 724.3125,174.5781 Q725.1719,174.7656 726.0156,175.1563 L726.0156,177.5469 Q725.2344,176.9844 724.4063,176.7031 Q723.5938,176.4063 722.7969,176.4063 Q721.9219,176.4063 721.4375,176.7656 Q720.9688,177.125 720.9688,177.7813 Q720.9688,178.2969 721.3125,178.6406 Q721.6563,178.9688 722.75,179.375 L723.8125,179.7813 Q725.2969,180.3281 726,181.2344 Q726.7188,182.1406 726.7188,183.5156 Q726.7188,185.3906 725.6094,186.3125 Q724.5,187.2344 722.25,187.2344 Q721.3281,187.2344 720.4063,187.0156 Q719.4844,186.7969 718.625,186.375 L718.625,183.8438 Q719.5938,184.5313 720.5156,184.875 Q721.4375,185.2188 722.3281,185.2188 Q723.2344,185.2188 723.7344,184.8125 Q724.2344,184.3906 724.2344,183.6563 Q724.2344,183.0938 723.8906,182.6875 Q723.5625,182.2656 722.9375,182.0156 L721.7344,181.5625 Z " fill="#000000"/><text fill="#000000" font-family="sans-serif" font-size="14" lengthAdjust="spacing" textLength="59" x="742.75" y="185.8467">AppData</text><line style="stroke:#181818;stroke-width:0.5;" x1="611" x2="901" y1="197" y2="197"/><rect fill="none" height="6" style="stroke:#C82930;stroke-width:1.0;" width="6" x="618" y="207.6484"/><text fill="#000000" font-family="sans-serif" font-size="14" lengthAdjust="spacing" textLength="58" x="630" y="213.9951">any data</text><ellipse cx="621" cy="226.9453" fill="none" rx="3" ry="3" style="stroke:#038048;stroke-width:1.0;"/><text fill="#000000" font-family="sans-serif" font-size="14" lengthAdjust="spacing" textLength="266" x="630" y="230.292">CompletionHandler completionHandler</text><line style="stroke:#181818;stroke-width:0.5;" x1="611" x2="901" y1="237.5938" y2="237.5938"/><ellipse cx="621" cy="251.2422" fill="#84BE84" rx="3" ry="3" style="stroke:#038048;stroke-width:1.0;"/><text fill="#000000" font-family="sans-serif" font-size="14" lengthAdjust="spacing" textLength="95" x="630" y="254.5889">any GetData()</text></g><!--class Receiver--><g id="elem_Receiver"><rect codeLine="10" fill="#F1F1F1" height="64.2969" id="Receiver" rx="2.5" ry="2.5" style="stroke:#181818;stroke-width:0.5;" width="187" x="662.5" y="322"/><ellipse cx="721.75" cy="338" fill="#B4A7E5" rx="11" ry="11" style="stroke:#181818;stroke-width:1.0;"/><path d="M717.6719,333.7656 L717.6719,331.6094 L725.0625,331.6094 L725.0625,333.7656 L722.5938,333.7656 L722.5938,341.8438 L725.0625,341.8438 L725.0625,344 L717.6719,344 L717.6719,341.8438 L720.1406,341.8438 L720.1406,333.7656 L717.6719,333.7656 Z " fill="#000000"/><text fill="#000000" font-family="sans-serif" font-size="14" font-style="italic" lengthAdjust="spacing" textLength="60" x="742.25" y="342.8467">Receiver</text><line style="stroke:#181818;stroke-width:0.5;" x1="663.5" x2="848.5" y1="354" y2="354"/><line style="stroke:#181818;stroke-width:0.5;" x1="663.5" x2="848.5" y1="362" y2="362"/><ellipse cx="673.5" cy="375.6484" fill="#84BE84" rx="3" ry="3" style="stroke:#038048;stroke-width:1.0;"/><text fill="#000000" font-family="sans-serif" font-size="14" lengthAdjust="spacing" textLength="161" x="682.5" y="378.9951">error Receive(AppData)</text></g><!--class Server--><g id="elem_Server"><rect codeLine="13" fill="#F1F1F1" height="64.2969" id="Server" rx="2.5" ry="2.5" style="stroke:#181818;stroke-width:0.5;" width="112" x="412" y="478.5"/><ellipse cx="443.2" cy="494.5" fill="#B4A7E5" rx="11" ry="11" style="stroke:#181818;stroke-width:1.0;"/><path d="M439.1219,490.2656 L439.1219,488.1094 L446.5125,488.1094 L446.5125,490.2656 L444.0438,490.2656 L444.0438,498.3438 L446.5125,498.3438 L446.5125,500.5 L439.1219,500.5 L439.1219,498.3438 L441.5906,498.3438 L441.5906,490.2656 L439.1219,490.2656 Z " fill="#000000"/><text fill="#000000" font-family="sans-serif" font-size="14" font-style="italic" lengthAdjust="spacing" textLength="44" x="460.8" y="499.3467">Server</text><line style="stroke:#181818;stroke-width:0.5;" x1="413" x2="523" y1="510.5" y2="510.5"/><line style="stroke:#181818;stroke-width:0.5;" x1="413" x2="523" y1="518.5" y2="518.5"/><ellipse cx="423" cy="532.1484" fill="#84BE84" rx="3" ry="3" style="stroke:#038048;stroke-width:1.0;"/><text fill="#000000" font-family="sans-serif" font-size="14" lengthAdjust="spacing" textLength="86" x="432" y="535.4951">error Serve()</text></g><!--class Pullable--><g id="elem_Pullable"><rect codeLine="16" fill="#F1F1F1" height="64.2969" id="Pullable" rx="2.5" ry="2.5" style="stroke:#181818;stroke-width:0.5;" width="227" x="779.5" y="478.5"/><ellipse cx="862.25" cy="494.5" fill="#B4A7E5" rx="11" ry="11" style="stroke:#181818;stroke-width:1.0;"/><path d="M858.1719,490.2656 L858.1719,488.1094 L865.5625,488.1094 L865.5625,490.2656 L863.0938,490.2656 L863.0938,498.3438 L865.5625,498.3438 L865.5625,500.5 L858.1719,500.5 L858.1719,498.3438 L860.6406,498.3438 L860.6406,490.2656 L858.1719,490.2656 Z " fill="#000000"/><text fill="#000000" font-family="sans-serif" font-size="14" font-style="italic" lengthAdjust="spacing" textLength="53" x="882.75" y="499.3467">Pullable</text><line style="stroke:#181818;stroke-width:0.5;" x1="780.5" x2="1005.5" y1="510.5" y2="510.5"/><line style="stroke:#181818;stroke-width:0.5;" x1="780.5" x2="1005.5" y1="518.5" y2="518.5"/><ellipse cx="790.5" cy="532.1484" fill="#84BE84" rx="3" ry="3" style="stroke:#038048;stroke-width:1.0;"/><text fill="#000000" font-family="sans-serif" font-size="14" lengthAdjust="spacing" textLength="201" x="799.5" y="535.4951">error AddReceiver(*Receiver)</text></g><!--class Pushable--><g id="elem_Pushable"><rect codeLine="19" fill="#F1F1F1" height="64.2969" id="Pushable" rx="2.5" ry="2.5" style="stroke:#181818;stroke-width:0.5;" width="185" x="559.5" y="478.5"/><ellipse cx="615.75" cy="494.5" fill="#B4A7E5" rx="11" ry="11" style="stroke:#181818;stroke-width:1.0;"/><path d="M611.6719,490.2656 L611.6719,488.1094 L619.0625,488.1094 L619.0625,490.2656 L616.5938,490.2656 L616.5938,498.3438 L619.0625,498.3438 L619.0625,500.5 L611.6719,500.5 L611.6719,498.3438 L614.1406,498.3438 L614.1406,490.2656 L611.6719,490.2656 Z " fill="#000000"/><text fill="#000000" font-family="sans-serif" font-size="14" font-style="italic" lengthAdjust="spacing" textLength="64" x="636.25" y="499.3467">Pushable</text><line style="stroke:#181818;stroke-width:0.5;" x1="560.5" x2="743.5" y1="510.5" y2="510.5"/><line style="stroke:#181818;stroke-width:0.5;" x1="560.5" x2="743.5" y1="518.5" y2="518.5"/><ellipse cx="570.5" cy="532.1484" fill="#84BE84" rx="3" ry="3" style="stroke:#038048;stroke-width:1.0;"/><text fill="#000000" font-family="sans-serif" font-size="14" lengthAdjust="spacing" textLength="159" x="579.5" y="535.4951">Receiver GetReceiver()</text></g><!--class SourceServer--><g id="elem_SourceServer"><rect codeLine="22" fill="#F1F1F1" height="80.5938" id="SourceServer" rx="2.5" ry="2.5" style="stroke:#181818;stroke-width:0.5;" width="220" x="524" y="651"/><ellipse cx="583.25" cy="667" fill="#B4A7E5" rx="11" ry="11" style="stroke:#181818;stroke-width:1.0;"/><path d="M579.1719,662.7656 L579.1719,660.6094 L586.5625,660.6094 L586.5625,662.7656 L584.0938,662.7656 L584.0938,670.8438 L586.5625,670.8438 L586.5625,673 L579.1719,673 L579.1719,670.8438 L581.6406,670.8438 L581.6406,662.7656 L579.1719,662.7656 Z " fill="#000000"/><text fill="#000000" font-family="sans-serif" font-size="14" font-style="italic" lengthAdjust="spacing" textLength="93" x="603.75" y="671.8467">SourceServer</text><line style="stroke:#181818;stroke-width:0.5;" x1="525" x2="743" y1="683" y2="683"/><line style="stroke:#181818;stroke-width:0.5;" x1="525" x2="743" y1="691" y2="691"/><ellipse cx="535" cy="704.6484" fill="#84BE84" rx="3" ry="3" style="stroke:#038048;stroke-width:1.0;"/><text fill="#000000" font-family="sans-serif" font-size="14" lengthAdjust="spacing" textLength="194" x="544" y="707.9951">error AddReceiver(Receiver)</text><ellipse cx="535" cy="720.9453" fill="#84BE84" rx="3" ry="3" style="stroke:#038048;stroke-width:1.0;"/><text fill="#000000" font-family="sans-serif" font-size="14" lengthAdjust="spacing" textLength="86" x="544" y="724.292">error Serve()</text></g><!--class SinkServer--><g id="elem_SinkServer"><rect codeLine="26" fill="#F1F1F1" height="80.5938" id="SinkServer" rx="2.5" ry="2.5" style="stroke:#181818;stroke-width:0.5;" width="185" x="303.5" y="651"/><ellipse cx="355.25" cy="667" fill="#B4A7E5" rx="11" ry="11" style="stroke:#181818;stroke-width:1.0;"/><path d="M351.1719,662.7656 L351.1719,660.6094 L358.5625,660.6094 L358.5625,662.7656 L356.0938,662.7656 L356.0938,670.8438 L358.5625,670.8438 L358.5625,673 L351.1719,673 L351.1719,670.8438 L353.6406,670.8438 L353.6406,662.7656 L351.1719,662.7656 Z " fill="#000000"/><text fill="#000000" font-family="sans-serif" font-size="14" font-style="italic" lengthAdjust="spacing" textLength="73" x="375.75" y="671.8467">SinkServer</text><line style="stroke:#181818;stroke-width:0.5;" x1="304.5" x2="487.5" y1="683" y2="683"/><line style="stroke:#181818;stroke-width:0.5;" x1="304.5" x2="487.5" y1="691" y2="691"/><ellipse cx="314.5" cy="704.6484" fill="#84BE84" rx="3" ry="3" style="stroke:#038048;stroke-width:1.0;"/><text fill="#000000" font-family="sans-serif" font-size="14" lengthAdjust="spacing" textLength="159" x="323.5" y="707.9951">Receiver GetReceiver()</text><ellipse cx="314.5" cy="720.9453" fill="#84BE84" rx="3" ry="3" style="stroke:#038048;stroke-width:1.0;"/><text fill="#000000" font-family="sans-serif" font-size="14" lengthAdjust="spacing" textLength="86" x="323.5" y="724.292">error Serve()</text></g><!--class PipeServer--><g id="elem_PipeServer"><rect codeLine="30" fill="#F1F1F1" height="96.8906" id="PipeServer" rx="2.5" ry="2.5" style="stroke:#181818;stroke-width:0.5;" width="227" x="779.5" y="643"/><ellipse cx="851.75" cy="659" fill="#B4A7E5" rx="11" ry="11" style="stroke:#181818;stroke-width:1.0;"/><path d="M847.6719,654.7656 L847.6719,652.6094 L855.0625,652.6094 L855.0625,654.7656 L852.5938,654.7656 L852.5938,662.8438 L855.0625,662.8438 L855.0625,665 L847.6719,665 L847.6719,662.8438 L850.1406,662.8438 L850.1406,654.7656 L847.6719,654.7656 Z " fill="#000000"/><text fill="#000000" font-family="sans-serif" font-size="14" font-style="italic" lengthAdjust="spacing" textLength="74" x="872.25" y="663.8467">PipeServer</text><line style="stroke:#181818;stroke-width:0.5;" x1="780.5" x2="1005.5" y1="675" y2="675"/><line style="stroke:#181818;stroke-width:0.5;" x1="780.5" x2="1005.5" y1="683" y2="683"/><ellipse cx="790.5" cy="696.6484" fill="#84BE84" rx="3" ry="3" style="stroke:#038048;stroke-width:1.0;"/><text fill="#000000" font-family="sans-serif" font-size="14" lengthAdjust="spacing" textLength="201" x="799.5" y="699.9951">error AddReceiver(*Receiver)</text><ellipse cx="790.5" cy="712.9453" fill="#84BE84" rx="3" ry="3" style="stroke:#038048;stroke-width:1.0;"/><text fill="#000000" font-family="sans-serif" font-size="14" lengthAdjust="spacing" textLength="159" x="799.5" y="716.292">Receiver GetReceiver()</text><ellipse cx="790.5" cy="729.2422" fill="#84BE84" rx="3" ry="3" style="stroke:#038048;stroke-width:1.0;"/><text fill="#000000" font-family="sans-serif" font-size="14" lengthAdjust="spacing" textLength="86" x="799.5" y="732.5889">error Serve()</text></g><!--class ProducerResponse--><g id="elem_ProducerResponse"><rect codeLine="35" fill="#F1F1F1" height="80.5938" id="ProducerResponse" rx="2.5" ry="2.5" style="stroke:#181818;stroke-width:0.5;" width="166" x="62" y="470"/><ellipse cx="77" cy="486" fill="#F1F1F1" rx="11" ry="11" style="stroke:#181818;stroke-width:1.0;"/><path d="M76.4844,486.5625 Q74.625,485.8594 73.9688,485.0938 Q73.3281,484.3125 73.3281,483 Q73.3281,481.3125 74.4063,480.3438 Q75.4844,479.375 77.3594,479.375 Q78.2188,479.375 79.0625,479.5781 Q79.9219,479.7656 80.7656,480.1563 L80.7656,482.5469 Q79.9844,481.9844 79.1563,481.7031 Q78.3438,481.4063 77.5469,481.4063 Q76.6719,481.4063 76.1875,481.7656 Q75.7188,482.125 75.7188,482.7813 Q75.7188,483.2969 76.0625,483.6406 Q76.4063,483.9688 77.5,484.375 L78.5625,484.7813 Q80.0469,485.3281 80.75,486.2344 Q81.4688,487.1406 81.4688,488.5156 Q81.4688,490.3906 80.3594,491.3125 Q79.25,492.2344 77,492.2344 Q76.0781,492.2344 75.1563,492.0156 Q74.2344,491.7969 73.375,491.375 L73.375,488.8438 Q74.3438,489.5313 75.2656,489.875 Q76.1875,490.2188 77.0781,490.2188 Q77.9844,490.2188 78.4844,489.8125 Q78.9844,489.3906 78.9844,488.6563 Q78.9844,488.0938 78.6406,487.6875 Q78.3125,487.2656 77.6875,487.0156 L76.4844,486.5625 Z " fill="#000000"/><text fill="#000000" font-family="sans-serif" font-size="14" lengthAdjust="spacing" textLength="134" x="91" y="490.8467">ProducerResponse</text><line style="stroke:#181818;stroke-width:0.5;" x1="63" x2="227" y1="502" y2="502"/><rect fill="none" height="6" style="stroke:#C82930;stroke-width:1.0;" width="6" x="70" y="512.6484"/><text fill="#000000" font-family="sans-serif" font-size="14" lengthAdjust="spacing" textLength="70" x="82" y="518.9951">error error</text><line style="stroke:#181818;stroke-width:0.5;" x1="63" x2="227" y1="526.2969" y2="526.2969"/><ellipse cx="73" cy="539.9453" fill="#84BE84" rx="3" ry="3" style="stroke:#038048;stroke-width:1.0;"/><text fill="#000000" font-family="sans-serif" font-size="14" lengthAdjust="spacing" textLength="105" x="82" y="543.292">error GetError()</text></g><!--class Producer--><g id="elem_Producer"><rect codeLine="39" fill="#F1F1F1" height="113.1875" id="Producer" rx="2.5" ry="2.5" style="stroke:#181818;stroke-width:0.5;" width="246" x="22" y="635"/><ellipse cx="109.25" cy="651" fill="#B4A7E5" rx="11" ry="11" style="stroke:#181818;stroke-width:1.0;"/><path d="M105.1719,646.7656 L105.1719,644.6094 L112.5625,644.6094 L112.5625,646.7656 L110.0938,646.7656 L110.0938,654.8438 L112.5625,654.8438 L112.5625,657 L105.1719,657 L105.1719,654.8438 L107.6406,654.8438 L107.6406,646.7656 L105.1719,646.7656 Z " fill="#000000"/><text fill="#000000" font-family="sans-serif" font-size="14" font-style="italic" lengthAdjust="spacing" textLength="63" x="129.75" y="655.8467">Producer</text><line style="stroke:#181818;stroke-width:0.5;" x1="23" x2="267" y1="667" y2="667"/><line style="stroke:#181818;stroke-width:0.5;" x1="23" x2="267" y1="675" y2="675"/><ellipse cx="33" cy="688.6484" fill="#84BE84" rx="3" ry="3" style="stroke:#038048;stroke-width:1.0;"/><text fill="#000000" font-family="sans-serif" font-size="14" lengthAdjust="spacing" textLength="220" x="42" y="691.9951">ProducerInstance GetInstance()</text><ellipse cx="33" cy="704.9453" fill="#84BE84" rx="3" ry="3" style="stroke:#038048;stroke-width:1.0;"/><text fill="#000000" font-family="sans-serif" font-size="14" lengthAdjust="spacing" textLength="195" x="42" y="708.292">error Setup(ProducerConfig)</text><ellipse cx="33" cy="721.2422" fill="#84BE84" rx="3" ry="3" style="stroke:#038048;stroke-width:1.0;"/><text fill="#000000" font-family="sans-serif" font-size="14" lengthAdjust="spacing" textLength="79" x="42" y="724.5889">error Start()</text><ellipse cx="33" cy="737.5391" fill="#84BE84" rx="3" ry="3" style="stroke:#038048;stroke-width:1.0;"/><text fill="#000000" font-family="sans-serif" font-size="14" lengthAdjust="spacing" textLength="208" x="42" y="740.8857">ProducerResponse Send(any)</text></g><!--class Consumer--><g id="elem_Consumer"><rect codeLine="45" fill="#F1F1F1" height="96.8906" id="Consumer" rx="2.5" ry="2.5" style="stroke:#181818;stroke-width:0.5;" width="230" x="651" y="808"/><ellipse cx="725.75" cy="824" fill="#B4A7E5" rx="11" ry="11" style="stroke:#181818;stroke-width:1.0;"/><path d="M721.6719,819.7656 L721.6719,817.6094 L729.0625,817.6094 L729.0625,819.7656 L726.5938,819.7656 L726.5938,827.8438 L729.0625,827.8438 L729.0625,830 L721.6719,830 L721.6719,827.8438 L724.1406,827.8438 L724.1406,819.7656 L721.6719,819.7656 Z " fill="#000000"/><text fill="#000000" font-family="sans-serif" font-size="14" font-style="italic" lengthAdjust="spacing" textLength="72" x="746.25" y="828.8467">Consumer</text><line style="stroke:#181818;stroke-width:0.5;" x1="652" x2="880" y1="840" y2="840"/><line style="stroke:#181818;stroke-width:0.5;" x1="652" x2="880" y1="848" y2="848"/><ellipse cx="662" cy="861.6484" fill="#84BE84" rx="3" ry="3" style="stroke:#038048;stroke-width:1.0;"/><text fill="#000000" font-family="sans-serif" font-size="14" lengthAdjust="spacing" textLength="194" x="671" y="864.9951">error AddReceiver(Receiver)</text><ellipse cx="662" cy="877.9453" fill="#84BE84" rx="3" ry="3" style="stroke:#038048;stroke-width:1.0;"/><text fill="#000000" font-family="sans-serif" font-size="14" lengthAdjust="spacing" textLength="204" x="671" y="881.292">error Setup(ConsumerConfig)</text><ellipse cx="662" cy="894.2422" fill="#84BE84" rx="3" ry="3" style="stroke:#038048;stroke-width:1.0;"/><text fill="#000000" font-family="sans-serif" font-size="14" lengthAdjust="spacing" textLength="86" x="671" y="897.5889">error Serve()</text></g><!--class KafkaConsumer--><g id="elem_KafkaConsumer"><rect codeLine="50" fill="#F1F1F1" height="96.8906" id="KafkaConsumer" rx="2.5" ry="2.5" style="stroke:#181818;stroke-width:0.5;" width="258" x="749" y="965"/><ellipse cx="819.25" cy="981" fill="#F1F1F1" rx="11" ry="11" style="stroke:#181818;stroke-width:1.0;"/><path d="M818.7344,981.5625 Q816.875,980.8594 816.2188,980.0938 Q815.5781,979.3125 815.5781,978 Q815.5781,976.3125 816.6563,975.3438 Q817.7344,974.375 819.6094,974.375 Q820.4688,974.375 821.3125,974.5781 Q822.1719,974.7656 823.0156,975.1563 L823.0156,977.5469 Q822.2344,976.9844 821.4063,976.7031 Q820.5938,976.4063 819.7969,976.4063 Q818.9219,976.4063 818.4375,976.7656 Q817.9688,977.125 817.9688,977.7813 Q817.9688,978.2969 818.3125,978.6406 Q818.6563,978.9688 819.75,979.375 L820.8125,979.7813 Q822.2969,980.3281 823,981.2344 Q823.7188,982.1406 823.7188,983.5156 Q823.7188,985.3906 822.6094,986.3125 Q821.5,987.2344 819.25,987.2344 Q818.3281,987.2344 817.4063,987.0156 Q816.4844,986.7969 815.625,986.375 L815.625,983.8438 Q816.5938,984.5313 817.5156,984.875 Q818.4375,985.2188 819.3281,985.2188 Q820.2344,985.2188 820.7344,984.8125 Q821.2344,984.3906 821.2344,983.6563 Q821.2344,983.0938 820.8906,982.6875 Q820.5625,982.2656 819.9375,982.0156 L818.7344,981.5625 Z " fill="#000000"/><text fill="#000000" font-family="sans-serif" font-size="14" lengthAdjust="spacing" textLength="109" x="839.75" y="985.8467">KafkaConsumer</text><line style="stroke:#181818;stroke-width:0.5;" x1="750" x2="1006" y1="997" y2="997"/><line style="stroke:#181818;stroke-width:0.5;" x1="750" x2="1006" y1="1005" y2="1005"/><ellipse cx="760" cy="1018.6484" fill="#84BE84" rx="3" ry="3" style="stroke:#038048;stroke-width:1.0;"/><text fill="#000000" font-family="sans-serif" font-size="14" lengthAdjust="spacing" textLength="194" x="769" y="1021.9951">error AddReceiver(Receiver)</text><ellipse cx="760" cy="1034.9453" fill="#84BE84" rx="3" ry="3" style="stroke:#038048;stroke-width:1.0;"/><text fill="#000000" font-family="sans-serif" font-size="14" lengthAdjust="spacing" textLength="232" x="769" y="1038.292">error Setup(KafkaConsumerCofig)</text><ellipse cx="760" cy="1051.2422" fill="#84BE84" rx="3" ry="3" style="stroke:#038048;stroke-width:1.0;"/><text fill="#000000" font-family="sans-serif" font-size="14" lengthAdjust="spacing" textLength="86" x="769" y="1054.5889">error Serve()</text></g><!--class KafkaProducer--><g id="elem_KafkaProducer"><rect codeLine="55" fill="#F1F1F1" height="96.8906" id="KafkaProducer" rx="2.5" ry="2.5" style="stroke:#181818;stroke-width:0.5;" width="258" x="22" y="808"/><ellipse cx="96.75" cy="824" fill="#F1F1F1" rx="11" ry="11" style="stroke:#181818;stroke-width:1.0;"/><path d="M96.2344,824.5625 Q94.375,823.8594 93.7188,823.0938 Q93.0781,822.3125 93.0781,821 Q93.0781,819.3125 94.1563,818.3438 Q95.2344,817.375 97.1094,817.375 Q97.9688,817.375 98.8125,817.5781 Q99.6719,817.7656 100.5156,818.1563 L100.5156,820.5469 Q99.7344,819.9844 98.9063,819.7031 Q98.0938,819.4063 97.2969,819.4063 Q96.4219,819.4063 95.9375,819.7656 Q95.4688,820.125 95.4688,820.7813 Q95.4688,821.2969 95.8125,821.6406 Q96.1563,821.9688 97.25,822.375 L98.3125,822.7813 Q99.7969,823.3281 100.5,824.2344 Q101.2188,825.1406 101.2188,826.5156 Q101.2188,828.3906 100.1094,829.3125 Q99,830.2344 96.75,830.2344 Q95.8281,830.2344 94.9063,830.0156 Q93.9844,829.7969 93.125,829.375 L93.125,826.8438 Q94.0938,827.5313 95.0156,827.875 Q95.9375,828.2188 96.8281,828.2188 Q97.7344,828.2188 98.2344,827.8125 Q98.7344,827.3906 98.7344,826.6563 Q98.7344,826.0938 98.3906,825.6875 Q98.0625,825.2656 97.4375,825.0156 L96.2344,824.5625 Z " fill="#000000"/><text fill="#000000" font-family="sans-serif" font-size="14" lengthAdjust="spacing" textLength="100" x="117.25" y="828.8467">KafkaProducer</text><line style="stroke:#181818;stroke-width:0.5;" x1="23" x2="279" y1="840" y2="840"/><line style="stroke:#181818;stroke-width:0.5;" x1="23" x2="279" y1="848" y2="848"/><ellipse cx="33" cy="861.6484" fill="#84BE84" rx="3" ry="3" style="stroke:#038048;stroke-width:1.0;"/><text fill="#000000" font-family="sans-serif" font-size="14" lengthAdjust="spacing" textLength="232" x="42" y="864.9951">error Setup(KafkaProducerConfig)</text><ellipse cx="33" cy="877.9453" fill="#84BE84" rx="3" ry="3" style="stroke:#038048;stroke-width:1.0;"/><text fill="#000000" font-family="sans-serif" font-size="14" lengthAdjust="spacing" textLength="79" x="42" y="881.292">error Start()</text><ellipse cx="33" cy="894.2422" fill="#84BE84" rx="3" ry="3" style="stroke:#038048;stroke-width:1.0;"/><text fill="#000000" font-family="sans-serif" font-size="14" lengthAdjust="spacing" textLength="208" x="42" y="897.5889">ProducerResponse Send(any)</text></g><!--class ProducersServer--><g id="elem_ProducersServer"><rect codeLine="60" fill="#F1F1F1" height="96.8906" id="ProducersServer" rx="2.5" ry="2.5" style="stroke:#181818;stroke-width:0.5;" width="264" x="315" y="808"/><ellipse cx="385.25" cy="824" fill="#F1F1F1" rx="11" ry="11" style="stroke:#181818;stroke-width:1.0;"/><path d="M384.7344,824.5625 Q382.875,823.8594 382.2188,823.0938 Q381.5781,822.3125 381.5781,821 Q381.5781,819.3125 382.6563,818.3438 Q383.7344,817.375 385.6094,817.375 Q386.4688,817.375 387.3125,817.5781 Q388.1719,817.7656 389.0156,818.1563 L389.0156,820.5469 Q388.2344,819.9844 387.4063,819.7031 Q386.5938,819.4063 385.7969,819.4063 Q384.9219,819.4063 384.4375,819.7656 Q383.9688,820.125 383.9688,820.7813 Q383.9688,821.2969 384.3125,821.6406 Q384.6563,821.9688 385.75,822.375 L386.8125,822.7813 Q388.2969,823.3281 389,824.2344 Q389.7188,825.1406 389.7188,826.5156 Q389.7188,828.3906 388.6094,829.3125 Q387.5,830.2344 385.25,830.2344 Q384.3281,830.2344 383.4063,830.0156 Q382.4844,829.7969 381.625,829.375 L381.625,826.8438 Q382.5938,827.5313 383.5156,827.875 Q384.4375,828.2188 385.3281,828.2188 Q386.2344,828.2188 386.7344,827.8125 Q387.2344,827.3906 387.2344,826.6563 Q387.2344,826.0938 386.8906,825.6875 Q386.5625,825.2656 385.9375,825.0156 L384.7344,824.5625 Z " fill="#000000"/><text fill="#000000" font-family="sans-serif" font-size="14" lengthAdjust="spacing" textLength="115" x="405.75" y="828.8467">ProducersServer</text><line style="stroke:#181818;stroke-width:0.5;" x1="316" x2="578" y1="840" y2="840"/><rect fill="none" height="6" style="stroke:#C82930;stroke-width:1.0;" width="6" x="323" y="850.6484"/><text fill="#000000" font-family="sans-serif" font-size="14" lengthAdjust="spacing" textLength="238" x="335" y="856.9951">map[string]Producer producerMap</text><line style="stroke:#181818;stroke-width:0.5;" x1="316" x2="578" y1="864.2969" y2="864.2969"/><ellipse cx="326" cy="877.9453" fill="#84BE84" rx="3" ry="3" style="stroke:#038048;stroke-width:1.0;"/><text fill="#000000" font-family="sans-serif" font-size="14" lengthAdjust="spacing" textLength="159" x="335" y="881.292">Receiver GetReceiver()</text><ellipse cx="326" cy="894.2422" fill="#84BE84" rx="3" ry="3" style="stroke:#038048;stroke-width:1.0;"/><text fill="#000000" font-family="sans-serif" font-size="14" lengthAdjust="spacing" textLength="86" x="335" y="897.5889">error Serve()</text></g><!--class ConsumersServer--><g id="elem_ConsumersServer"><rect codeLine="65" fill="#F1F1F1" height="96.8906" id="ConsumersServer" rx="2.5" ry="2.5" style="stroke:#181818;stroke-width:0.5;" width="288" x="426" y="965"/><ellipse cx="503.75" cy="981" fill="#F1F1F1" rx="11" ry="11" style="stroke:#181818;stroke-width:1.0;"/><path d="M503.2344,981.5625 Q501.375,980.8594 500.7188,980.0938 Q500.0781,979.3125 500.0781,978 Q500.0781,976.3125 501.1563,975.3438 Q502.2344,974.375 504.1094,974.375 Q504.9688,974.375 505.8125,974.5781 Q506.6719,974.7656 507.5156,975.1563 L507.5156,977.5469 Q506.7344,976.9844 505.9063,976.7031 Q505.0938,976.4063 504.2969,976.4063 Q503.4219,976.4063 502.9375,976.7656 Q502.4688,977.125 502.4688,977.7813 Q502.4688,978.2969 502.8125,978.6406 Q503.1563,978.9688 504.25,979.375 L505.3125,979.7813 Q506.7969,980.3281 507.5,981.2344 Q508.2188,982.1406 508.2188,983.5156 Q508.2188,985.3906 507.1094,986.3125 Q506,987.2344 503.75,987.2344 Q502.8281,987.2344 501.9063,987.0156 Q500.9844,986.7969 500.125,986.375 L500.125,983.8438 Q501.0938,984.5313 502.0156,984.875 Q502.9375,985.2188 503.8281,985.2188 Q504.7344,985.2188 505.2344,984.8125 Q505.7344,984.3906 505.7344,983.6563 Q505.7344,983.0938 505.3906,982.6875 Q505.0625,982.2656 504.4375,982.0156 L503.2344,981.5625 Z " fill="#000000"/><text fill="#000000" font-family="sans-serif" font-size="14" lengthAdjust="spacing" textLength="124" x="524.25" y="985.8467">ConsumersServer</text><line style="stroke:#181818;stroke-width:0.5;" x1="427" x2="713" y1="997" y2="997"/><rect fill="none" height="6" style="stroke:#C82930;stroke-width:1.0;" width="6" x="434" y="1007.6484"/><text fill="#000000" font-family="sans-serif" font-size="14" lengthAdjust="spacing" textLength="262" x="446" y="1013.9951">map[string]Consumer consumersMap</text><line style="stroke:#181818;stroke-width:0.5;" x1="427" x2="713" y1="1021.2969" y2="1021.2969"/><ellipse cx="437" cy="1034.9453" fill="#84BE84" rx="3" ry="3" style="stroke:#038048;stroke-width:1.0;"/><text fill="#000000" font-family="sans-serif" font-size="14" lengthAdjust="spacing" textLength="194" x="446" y="1038.292">error AddReceiver(Receiver)</text><ellipse cx="437" cy="1051.2422" fill="#84BE84" rx="3" ry="3" style="stroke:#038048;stroke-width:1.0;"/><text fill="#000000" font-family="sans-serif" font-size="14" lengthAdjust="spacing" textLength="86" x="446" y="1054.5889">error Serve()</text></g><!--class KafkaConsumerCofig--><g id="elem_KafkaConsumerCofig"><rect codeLine="70" fill="#F1F1F1" height="48" id="KafkaConsumerCofig" rx="2.5" ry="2.5" style="stroke:#181818;stroke-width:0.5;" width="176" x="790" y="1122"/><ellipse cx="805" cy="1138" fill="#F1F1F1" rx="11" ry="11" style="stroke:#181818;stroke-width:1.0;"/><path d="M804.4844,1138.5625 Q802.625,1137.8594 801.9688,1137.0938 Q801.3281,1136.3125 801.3281,1135 Q801.3281,1133.3125 802.4063,1132.3438 Q803.4844,1131.375 805.3594,1131.375 Q806.2188,1131.375 807.0625,1131.5781 Q807.9219,1131.7656 808.7656,1132.1563 L808.7656,1134.5469 Q807.9844,1133.9844 807.1563,1133.7031 Q806.3438,1133.4063 805.5469,1133.4063 Q804.6719,1133.4063 804.1875,1133.7656 Q803.7188,1134.125 803.7188,1134.7813 Q803.7188,1135.2969 804.0625,1135.6406 Q804.4063,1135.9688 805.5,1136.375 L806.5625,1136.7813 Q808.0469,1137.3281 808.75,1138.2344 Q809.4688,1139.1406 809.4688,1140.5156 Q809.4688,1142.3906 808.3594,1143.3125 Q807.25,1144.2344 805,1144.2344 Q804.0781,1144.2344 803.1563,1144.0156 Q802.2344,1143.7969 801.375,1143.375 L801.375,1140.8438 Q802.3438,1141.5313 803.2656,1141.875 Q804.1875,1142.2188 805.0781,1142.2188 Q805.9844,1142.2188 806.4844,1141.8125 Q806.9844,1141.3906 806.9844,1140.6563 Q806.9844,1140.0938 806.6406,1139.6875 Q806.3125,1139.2656 805.6875,1139.0156 L804.4844,1138.5625 Z " fill="#000000"/><text fill="#000000" font-family="sans-serif" font-size="14" lengthAdjust="spacing" textLength="144" x="819" y="1142.8467">KafkaConsumerCofig</text><line style="stroke:#181818;stroke-width:0.5;" x1="791" x2="965" y1="1154" y2="1154"/><line style="stroke:#181818;stroke-width:0.5;" x1="791" x2="965" y1="1162" y2="1162"/></g><!--class KafkaProducerConfig--><g id="elem_KafkaProducerConfig"><rect codeLine="71" fill="#F1F1F1" height="48" id="KafkaProducerConfig" rx="2.5" ry="2.5" style="stroke:#181818;stroke-width:0.5;" width="176" x="63" y="989.5"/><ellipse cx="78" cy="1005.5" fill="#F1F1F1" rx="11" ry="11" style="stroke:#181818;stroke-width:1.0;"/><path d="M77.4844,1006.0625 Q75.625,1005.3594 74.9688,1004.5938 Q74.3281,1003.8125 74.3281,1002.5 Q74.3281,1000.8125 75.4063,999.8438 Q76.4844,998.875 78.3594,998.875 Q79.2188,998.875 80.0625,999.0781 Q80.9219,999.2656 81.7656,999.6563 L81.7656,1002.0469 Q80.9844,1001.4844 80.1563,1001.2031 Q79.3438,1000.9063 78.5469,1000.9063 Q77.6719,1000.9063 77.1875,1001.2656 Q76.7188,1001.625 76.7188,1002.2813 Q76.7188,1002.7969 77.0625,1003.1406 Q77.4063,1003.4688 78.5,1003.875 L79.5625,1004.2813 Q81.0469,1004.8281 81.75,1005.7344 Q82.4688,1006.6406 82.4688,1008.0156 Q82.4688,1009.8906 81.3594,1010.8125 Q80.25,1011.7344 78,1011.7344 Q77.0781,1011.7344 76.1563,1011.5156 Q75.2344,1011.2969 74.375,1010.875 L74.375,1008.3438 Q75.3438,1009.0313 76.2656,1009.375 Q77.1875,1009.7188 78.0781,1009.7188 Q78.9844,1009.7188 79.4844,1009.3125 Q79.9844,1008.8906 79.9844,1008.1563 Q79.9844,1007.5938 79.6406,1007.1875 Q79.3125,1006.7656 78.6875,1006.5156 L77.4844,1006.0625 Z " fill="#000000"/><text fill="#000000" font-family="sans-serif" font-size="14" lengthAdjust="spacing" textLength="144" x="92" y="1010.3467">KafkaProducerConfig</text><line style="stroke:#181818;stroke-width:0.5;" x1="64" x2="238" y1="1021.5" y2="1021.5"/><line style="stroke:#181818;stroke-width:0.5;" x1="64" x2="238" y1="1029.5" y2="1029.5"/></g><!--class ProducerConfig--><g id="elem_ProducerConfig"><rect codeLine="72" fill="#F1F1F1" height="48" id="ProducerConfig" rx="2.5" ry="2.5" style="stroke:#181818;stroke-width:0.5;" width="139" x="81.5" y="1122"/><ellipse cx="96.5" cy="1138" fill="#F1F1F1" rx="11" ry="11" style="stroke:#181818;stroke-width:1.0;"/><path d="M95.9844,1138.5625 Q94.125,1137.8594 93.4688,1137.0938 Q92.8281,1136.3125 92.8281,1135 Q92.8281,1133.3125 93.9063,1132.3438 Q94.9844,1131.375 96.8594,1131.375 Q97.7188,1131.375 98.5625,1131.5781 Q99.4219,1131.7656 100.2656,1132.1563 L100.2656,1134.5469 Q99.4844,1133.9844 98.6563,1133.7031 Q97.8438,1133.4063 97.0469,1133.4063 Q96.1719,1133.4063 95.6875,1133.7656 Q95.2188,1134.125 95.2188,1134.7813 Q95.2188,1135.2969 95.5625,1135.6406 Q95.9063,1135.9688 97,1136.375 L98.0625,1136.7813 Q99.5469,1137.3281 100.25,1138.2344 Q100.9688,1139.1406 100.9688,1140.5156 Q100.9688,1142.3906 99.8594,1143.3125 Q98.75,1144.2344 96.5,1144.2344 Q95.5781,1144.2344 94.6563,1144.0156 Q93.7344,1143.7969 92.875,1143.375 L92.875,1140.8438 Q93.8438,1141.5313 94.7656,1141.875 Q95.6875,1142.2188 96.5781,1142.2188 Q97.4844,1142.2188 97.9844,1141.8125 Q98.4844,1141.3906 98.4844,1140.6563 Q98.4844,1140.0938 98.1406,1139.6875 Q97.8125,1139.2656 97.1875,1139.0156 L95.9844,1138.5625 Z " fill="#000000"/><text fill="#000000" font-family="sans-serif" font-size="14" lengthAdjust="spacing" textLength="107" x="110.5" y="1142.8467">ProducerConfig</text><line style="stroke:#181818;stroke-width:0.5;" x1="82.5" x2="219.5" y1="1154" y2="1154"/><line style="stroke:#181818;stroke-width:0.5;" x1="82.5" x2="219.5" y1="1162" y2="1162"/></g><!--class ConsumerConfig--><g id="elem_ConsumerConfig"><rect codeLine="73" fill="#F1F1F1" height="48" id="ConsumerConfig" rx="2.5" ry="2.5" style="stroke:#181818;stroke-width:0.5;" width="148" x="804" y="1230"/><ellipse cx="819" cy="1246" fill="#F1F1F1" rx="11" ry="11" style="stroke:#181818;stroke-width:1.0;"/><path d="M818.4844,1246.5625 Q816.625,1245.8594 815.9688,1245.0938 Q815.3281,1244.3125 815.3281,1243 Q815.3281,1241.3125 816.4063,1240.3438 Q817.4844,1239.375 819.3594,1239.375 Q820.2188,1239.375 821.0625,1239.5781 Q821.9219,1239.7656 822.7656,1240.1563 L822.7656,1242.5469 Q821.9844,1241.9844 821.1563,1241.7031 Q820.3438,1241.4063 819.5469,1241.4063 Q818.6719,1241.4063 818.1875,1241.7656 Q817.7188,1242.125 817.7188,1242.7813 Q817.7188,1243.2969 818.0625,1243.6406 Q818.4063,1243.9688 819.5,1244.375 L820.5625,1244.7813 Q822.0469,1245.3281 822.75,1246.2344 Q823.4688,1247.1406 823.4688,1248.5156 Q823.4688,1250.3906 822.3594,1251.3125 Q821.25,1252.2344 819,1252.2344 Q818.0781,1252.2344 817.1563,1252.0156 Q816.2344,1251.7969 815.375,1251.375 L815.375,1248.8438 Q816.3438,1249.5313 817.2656,1249.875 Q818.1875,1250.2188 819.0781,1250.2188 Q819.9844,1250.2188 820.4844,1249.8125 Q820.9844,1249.3906 820.9844,1248.6563 Q820.9844,1248.0938 820.6406,1247.6875 Q820.3125,1247.2656 819.6875,1247.0156 L818.4844,1246.5625 Z " fill="#000000"/><text fill="#000000" font-family="sans-serif" font-size="14" lengthAdjust="spacing" textLength="116" x="833" y="1250.8467">ConsumerConfig</text><line style="stroke:#181818;stroke-width:0.5;" x1="805" x2="951" y1="1262" y2="1262"/><line style="stroke:#181818;stroke-width:0.5;" x1="805" x2="951" y1="1270" y2="1270"/></g><!--class JQTransformer--><g id="elem_JQTransformer"><rect codeLine="76" fill="#F1F1F1" height="129.4844" id="JQTransformer" rx="2.5" ry="2.5" style="stroke:#181818;stroke-width:0.5;" width="220" x="1063" y="446"/><ellipse cx="1119.75" cy="462" fill="#F1F1F1" rx="11" ry="11" style="stroke:#181818;stroke-width:1.0;"/><path d="M1119.2344,462.5625 Q1117.375,461.8594 1116.7188,461.0938 Q1116.0781,460.3125 1116.0781,459 Q1116.0781,457.3125 1117.1563,456.3438 Q1118.2344,455.375 1120.1094,455.375 Q1120.9688,455.375 1121.8125,455.5781 Q1122.6719,455.7656 1123.5156,456.1563 L1123.5156,458.5469 Q1122.7344,457.9844 1121.9063,457.7031 Q1121.0938,457.4063 1120.2969,457.4063 Q1119.4219,457.4063 1118.9375,457.7656 Q1118.4688,458.125 1118.4688,458.7813 Q1118.4688,459.2969 1118.8125,459.6406 Q1119.1563,459.9688 1120.25,460.375 L1121.3125,460.7813 Q1122.7969,461.3281 1123.5,462.2344 Q1124.2188,463.1406 1124.2188,464.5156 Q1124.2188,466.3906 1123.1094,467.3125 Q1122,468.2344 1119.75,468.2344 Q1118.8281,468.2344 1117.9063,468.0156 Q1116.9844,467.7969 1116.125,467.375 L1116.125,464.8438 Q1117.0938,465.5313 1118.0156,465.875 Q1118.9375,466.2188 1119.8281,466.2188 Q1120.7344,466.2188 1121.2344,465.8125 Q1121.7344,465.3906 1121.7344,464.6563 Q1121.7344,464.0938 1121.3906,463.6875 Q1121.0625,463.2656 1120.4375,463.0156 L1119.2344,462.5625 Z " fill="#000000"/><text fill="#000000" font-family="sans-serif" font-size="14" lengthAdjust="spacing" textLength="98" x="1140.25" y="466.8467">JQTransformer</text><line style="stroke:#181818;stroke-width:0.5;" x1="1064" x2="1282" y1="478" y2="478"/><rect fill="none" height="6" style="stroke:#C82930;stroke-width:1.0;" width="6" x="1071" y="488.6484"/><text fill="#000000" font-family="sans-serif" font-size="14" lengthAdjust="spacing" textLength="96" x="1083" y="494.9951">string jqQuery</text><rect fill="none" height="6" style="stroke:#C82930;stroke-width:1.0;" width="6" x="1071" y="504.9453"/><text fill="#000000" font-family="sans-serif" font-size="14" lengthAdjust="spacing" textLength="111" x="1083" y="511.292">Code jqProgram</text><line style="stroke:#181818;stroke-width:0.5;" x1="1064" x2="1282" y1="518.5938" y2="518.5938"/><ellipse cx="1074" cy="532.2422" fill="#84BE84" rx="3" ry="3" style="stroke:#038048;stroke-width:1.0;"/><text fill="#000000" font-family="sans-serif" font-size="14" lengthAdjust="spacing" textLength="194" x="1083" y="535.5889">error AddReceiver(Receiver)</text><ellipse cx="1074" cy="548.5391" fill="#84BE84" rx="3" ry="3" style="stroke:#038048;stroke-width:1.0;"/><text fill="#000000" font-family="sans-serif" font-size="14" lengthAdjust="spacing" textLength="159" x="1083" y="551.8857">Receiver GetReceiver()</text><ellipse cx="1074" cy="564.8359" fill="#84BE84" rx="3" ry="3" style="stroke:#038048;stroke-width:1.0;"/><text fill="#000000" font-family="sans-serif" font-size="14" lengthAdjust="spacing" textLength="86" x="1083" y="568.1826">error Serve()</text></g><!--reverse link CompletionHandler to AppData--><g id="link_CompletionHandler_AppData"><path codeLine="84" d="M756,117.08 C756,134.71 756,145.13 756,164.93 " fill="none" id="CompletionHandler-backto-AppData" style="stroke:#181818;stroke-width:1.0;"/><polygon fill="#181818" points="756,105.08,752,111.08,756,117.08,760,111.08,756,105.08" style="stroke:#181818;stroke-width:1.0;"/></g><!--reverse link AppData to Receiver--><g id="link_AppData_Receiver"><path codeLine="85" d="M756,274.16 C756,293.88 756,304.2 756,321.77 " fill="none" id="AppData-backto-Receiver" style="stroke:#181818;stroke-width:1.0;"/><polygon fill="#181818" points="756,262.16,752,268.16,756,274.16,760,268.16,756,262.16" style="stroke:#181818;stroke-width:1.0;"/></g><!--reverse link Receiver to Pullable--><g id="link_Receiver_Pullable"><path codeLine="86" d="M791.6826,395.2476 C815.4526,422.0476 841.56,451.49 865.32,478.28 " fill="none" id="Receiver-backto-Pullable" style="stroke:#181818;stroke-width:1.0;"/><polygon fill="#181818" points="783.72,386.27,784.7088,393.413,791.6826,395.2476,790.6938,388.1046,783.72,386.27" style="stroke:#181818;stroke-width:1.0;"/></g><!--reverse link Receiver to Pushable--><g id="link_Receiver_Pushable"><path codeLine="87" d="M728.2491,396.2248 C710.2091,423.0248 691.05,451.49 673.01,478.28 " fill="none" id="Receiver-backto-Pushable" style="stroke:#181818;stroke-width:1.0;"/><polygon fill="#181818" points="734.95,386.27,728.2813,389.0138,728.2491,396.2248,734.9178,393.481,734.95,386.27" style="stroke:#181818;stroke-width:1.0;"/></g><!--reverse link Server to SourceServer--><g id="link_Server_SourceServer"><path codeLine="88" d="M504.8609,556.7115 C518.8609,573.6415 525.27,580.87 542,599 C558.04,616.39 576.4,634.9 592.47,650.7 " fill="none" id="Server-backto-SourceServer" style="stroke:#181818;stroke-width:1.0;"/><polygon fill="none" points="493.39,542.84,500.237,560.5352,509.4847,552.8879,493.39,542.84" style="stroke:#181818;stroke-width:1.0;"/></g><!--reverse link Pullable to SourceServer--><g id="link_Pullable_SourceServer"><path codeLine="89" d="M833.0823,552.9139 C789.6023,582.9639 738.45,618.31 691.28,650.91 " fill="none" id="Pullable-backto-SourceServer" style="stroke:#181818;stroke-width:1.0;"/><polygon fill="none" points="847.89,542.68,829.671,547.978,836.4936,557.8498,847.89,542.68" style="stroke:#181818;stroke-width:1.0;"/></g><!--reverse link Server to SinkServer--><g id="link_Server_SinkServer"><path codeLine="90" d="M448.7414,559.3791 C436.6514,589.4291 425.04,618.31 411.92,650.91 " fill="none" id="Server-backto-SinkServer" style="stroke:#181818;stroke-width:1.0;"/><polygon fill="none" points="455.46,542.68,443.1751,557.1396,454.3078,561.6187,455.46,542.68" style="stroke:#181818;stroke-width:1.0;"/></g><!--reverse link Pushable to SinkServer--><g id="link_Pushable_SinkServer"><path codeLine="91" d="M601.2171,553.9506 C580.2271,571.1806 567.1,581.24 542,599 C516.73,616.89 488.03,635.27 462.8,650.82 " fill="none" id="Pushable-backto-SinkServer" style="stroke:#181818;stroke-width:1.0;"/><polygon fill="none" points="615.13,542.53,597.4102,549.313,605.024,558.5883,615.13,542.53" style="stroke:#181818;stroke-width:1.0;"/></g><!--reverse link Pushable to PipeServer--><g id="link_Pushable_PipeServer"><path codeLine="92" d="M703.9749,553.99 C724.9549,570.96 737.65,580.84 762,599 C781.57,613.6 803.16,628.97 823.08,642.86 " fill="none" id="Pushable-backto-PipeServer" style="stroke:#181818;stroke-width:1.0;"/><polygon fill="none" points="689.98,542.67,700.2016,558.655,707.7482,549.325,689.98,542.67" style="stroke:#181818;stroke-width:1.0;"/></g><!--reverse link Pullable to PipeServer--><g id="link_Pullable_PipeServer"><path codeLine="93" d="M893,560.68 C893,588.33 893,611.12 893,642.85 " fill="none" id="Pullable-backto-PipeServer" style="stroke:#181818;stroke-width:1.0;"/><polygon fill="none" points="893,542.68,887,560.68,899,560.68,893,542.68" style="stroke:#181818;stroke-width:1.0;"/></g><!--reverse link Server to PipeServer--><g id="link_Server_PipeServer"><path codeLine="94" d="M496.3551,557.7264 C509.3751,577.0864 518.63,585.76 542,599 C628.2,647.84 666.82,607.48 762,635 C770.07,637.33 778.3,640.02 786.52,642.94 " fill="none" id="Server-backto-PipeServer" style="stroke:#181818;stroke-width:1.0;"/><polygon fill="none" points="486.31,542.79,491.3762,561.0748,501.3339,554.3781,486.31,542.79" style="stroke:#181818;stroke-width:1.0;"/></g><!--reverse link ProducerResponse to Producer--><g id="link_ProducerResponse_Producer"><path codeLine="96" d="M145,563.23 C145,587.84 145,607.82 145,634.93 " fill="none" id="ProducerResponse-backto-Producer" style="stroke:#181818;stroke-width:1.0;"/><polygon fill="#181818" points="145,551.23,141,557.23,145,563.23,149,557.23,145,551.23" style="stroke:#181818;stroke-width:1.0;"/></g><!--reverse link Producer to KafkaProducer--><g id="link_Producer_KafkaProducer"><path codeLine="97" d="M147.7063,766.128 C148.4163,785.588 148.56,789.25 149.25,807.99 " fill="none" id="Producer-backto-KafkaProducer" style="stroke:#181818;stroke-width:1.0;"/><polygon fill="none" points="147.05,748.14,141.7103,766.3468,153.7023,765.9093,147.05,748.14" style="stroke:#181818;stroke-width:1.0;"/></g><!--reverse link Consumer to KafkaConsumer--><g id="link_Consumer_KafkaConsumer"><path codeLine="98" d="M811.0608,919.8608 C824.7508,938.8108 829.92,945.96 843.6,964.89 " fill="none" id="Consumer-backto-KafkaConsumer" style="stroke:#181818;stroke-width:1.0;"/><polygon fill="none" points="800.52,905.27,806.1972,923.3744,815.9244,916.3472,800.52,905.27" style="stroke:#181818;stroke-width:1.0;"/></g><!--reverse link Producer to ProducersServer--><g id="link_Producer_ProducersServer"><path codeLine="99" d="M258.6497,753.8402 C294.6997,773.3002 324.26,789.25 358.97,807.99 " fill="none" id="Producer-backto-ProducersServer" style="stroke:#181818;stroke-width:1.0;"/><polygon fill="#181818" points="248.09,748.14,251.4698,754.51,258.6497,753.8402,255.2699,747.4702,248.09,748.14" style="stroke:#181818;stroke-width:1.0;"/></g><!--reverse link SinkServer to ProducersServer--><g id="link_SinkServer_ProducersServer"><path codeLine="100" d="M413.8502,749.5502 C420.9802,772.3602 424.61,783.94 432.11,807.92 " fill="none" id="SinkServer-backto-ProducersServer" style="stroke:#181818;stroke-width:1.0;"/><polygon fill="none" points="408.48,732.37,408.1235,751.3403,419.577,747.7602,408.48,732.37" style="stroke:#181818;stroke-width:1.0;"/></g><!--reverse link SourceServer to ConsumersServer--><g id="link_SourceServer_ConsumersServer"><path codeLine="101" d="M625.1974,750.0036 C618.4974,792.8236 609.72,845.11 597,905 C592.82,924.67 587.56,946.19 582.79,964.78 " fill="none" id="SourceServer-backto-ConsumersServer" style="stroke:#181818;stroke-width:1.0;"/><polygon fill="none" points="627.98,732.22,619.2695,749.0761,631.1253,750.9312,627.98,732.22" style="stroke:#181818;stroke-width:1.0;"/></g><!--reverse link Consumer to ConsumersServer--><g id="link_Consumer_ConsumersServer"><path codeLine="102" d="M696.4464,912.5021 C672.4764,931.4521 654.35,945.79 630.36,964.76 " fill="none" id="Consumer-backto-ConsumersServer" style="stroke:#181818;stroke-width:1.0;"/><polygon fill="#181818" points="705.86,905.06,698.6725,905.6432,696.4464,912.5021,703.6339,911.9189,705.86,905.06" style="stroke:#181818;stroke-width:1.0;"/></g><!--reverse link SourceServer to Consumer--><g id="link_SourceServer_Consumer"><path codeLine="103" d="M677.6173,746.359 C696.0873,769.169 708.05,783.94 727.47,807.92 " fill="none" id="SourceServer-backto-Consumer" style="stroke:#181818;stroke-width:1.0;"/><polygon fill="none" points="666.29,732.37,672.9543,750.1348,682.2803,742.5832,666.29,732.37" style="stroke:#181818;stroke-width:1.0;"/></g><!--link KafkaConsumer to KafkaConsumerCofig--><g id="link_KafkaConsumer_KafkaConsumerCofig"><path codeLine="105" d="M878,1062.35 C878,1082.58 878,1093.2 878,1109.66 " fill="none" id="KafkaConsumer-to-KafkaConsumerCofig" style="stroke:#181818;stroke-width:1.0;"/><polygon fill="#181818" points="878,1121.66,882,1115.66,878,1109.66,874,1115.66,878,1121.66" style="stroke:#181818;stroke-width:1.0;"/></g><!--link KafkaProducer to KafkaProducerConfig--><g id="link_KafkaProducer_KafkaProducerConfig"><path codeLine="106" d="M151,905.27 C151,933.2 151,955.2 151,977.33 " fill="none" id="KafkaProducer-to-KafkaProducerConfig" style="stroke:#181818;stroke-width:1.0;"/><polygon fill="#181818" points="151,989.33,155,983.33,151,977.33,147,983.33,151,989.33" style="stroke:#181818;stroke-width:1.0;"/></g><!--link JQTransformer to PipeServer--><g id="link_JQTransformer_PipeServer"><path codeLine="108" d="M1073.49,575.11 C1038.6,597.42 1015.1972,612.387 982.6972,633.157 " fill="none" id="JQTransformer-to-PipeServer" style="stroke:#181818;stroke-width:1.0;"/><polygon fill="none" points="967.53,642.85,985.9282,638.2127,979.4662,628.1012,967.53,642.85" style="stroke:#181818;stroke-width:1.0;"/></g><!--link KafkaProducerConfig to ProducerConfig--><g id="link_KafkaProducerConfig_ProducerConfig"><path codeLine="110" d="M151,1037.53 C151,1061.24 151,1085.98 151,1109.76 " fill="none" id="KafkaProducerConfig-to-ProducerConfig" style="stroke:#181818;stroke-width:1.0;"/><polygon fill="#181818" points="151,1121.76,155,1115.76,151,1109.76,147,1115.76,151,1121.76" style="stroke:#181818;stroke-width:1.0;"/></g><!--link KafkaConsumerCofig to ConsumerConfig--><g id="link_KafkaConsumerCofig_ConsumerConfig"><path codeLine="111" d="M878,1170 C878,1187.66 878,1199.94 878,1217.68 " fill="none" id="KafkaConsumerCofig-to-ConsumerConfig" style="stroke:#181818;stroke-width:1.0;"/><polygon fill="#181818" points="878,1229.68,882,1223.68,878,1217.68,874,1223.68,878,1229.68" style="stroke:#181818;stroke-width:1.0;"/></g><!--SRC=[jLPDSzCm4BthL_Xe0iuluD897Q0Cq3RS60x2LeAfBGb9xj21_7SaMvBrwQHfoS5ZIs_VljsLTeDXZpY5DIgsYDqZLlm1XVorM22sKyiRqjCEYPRWTn0tdKMetql46646Wag87ruLuzgB4NCOdromeHR51QLle82EUINnHIFNPiBOMnskp61b_XO9nLgw3cVnjwX6xNrAizufjQgqkPSIntXSpxYy7heEVkzGR7NHD4PFkJ9lEHB-8oIniSYGBKz6DnbOZNBgNHs-Z1D3tBRuBYPVq7TgwbfwakXLGlMvtlNXl6Qa6Mh4RkLb89YxYQycq_4Pyabdb-eb5v1cTSCnQ-yn5n1BaEGmxod1Og2biTaGl6ltCKX09bpRA9ejmeswdMcPafOF_HEEYj9eI78QSvd_07Tty5aKU4mRydWLgN953lvBBO9JoADRKFMGVfMe5k-_MPbKlto4zDakWidViWHRhzh0FGrFwZEfSp5MCrklgHIfHCOx_Z451u3j0BpQVlvq-LimM0jY0jTMLpTV6CHyHvX_IAif7yNFNpS3OW_p-eOqIAvA7Ni6-qTcvfmI7i1Ki7KyGLTLfIVPMayxu7-w2ECF1DykneouPSmqmGn67wVNVsU8EwL0G7qKcEApOma48iw1pSDeKLiCIoXpG9OiR0jkxlHUYFKulHim5r_VomXfTYBEX5yU13IFUo-e3Dhzx-7YWyuIILuTXHwbjjcDcuUa7-XoIX8z9M5bKmwYuYfD2kurahNNEwBw7_MZ6rKGQTRC2_eV]--></g></svg>