<?xml version="1.0" encoding="us-ascii" standalone="no"?><svg xmlns="http://www.w3.org/2000/svg" xmlns:xlink="http://www.w3.org/1999/xlink" contentStyleType="text/css" height="587px" preserveAspectRatio="none" style="width:1090px;height:587px;background:#FFFFFF;" version="1.1" viewBox="0 0 1090 587" width="1090px" zoomAndPan="magnify"><defs/><g><!--cluster Server--><g id="cluster_Server"><path d="M8.5,6 L62.5,6 A3.75,3.75 0 0 1 65,8.5 L72,28.2969 L527.5,28.2969 A2.5,2.5 0 0 1 530,30.7969 L530,151.5 A2.5,2.5 0 0 1 527.5,154 L8.5,154 A2.5,2.5 0 0 1 6,151.5 L6,8.5 A2.5,2.5 0 0 1 8.5,6 " fill="none" style="stroke:#000000;stroke-width:1.5;"/><line style="stroke:#000000;stroke-width:1.5;" x1="6" x2="72" y1="28.2969" y2="28.2969"/><text fill="#000000" font-family="sans-serif" font-size="14" font-weight="bold" lengthAdjust="spacing" textLength="53" x="10" y="20.9951">Server</text></g><!--cluster Producer--><g id="cluster_Producer"><path d="M193.5,178 L267.5,178 A3.75,3.75 0 0 1 270,180.5 L277,200.2969 L1080.5,200.2969 A2.5,2.5 0 0 1 1083,202.7969 L1083,577.5 A2.5,2.5 0 0 1 1080.5,580 L193.5,580 A2.5,2.5 0 0 1 191,577.5 L191,180.5 A2.5,2.5 0 0 1 193.5,178 " fill="none" style="stroke:#000000;stroke-width:1.5;"/><line style="stroke:#000000;stroke-width:1.5;" x1="191" x2="277" y1="200.2969" y2="200.2969"/><text fill="#000000" font-family="sans-serif" font-size="14" font-weight="bold" lengthAdjust="spacing" textLength="73" x="195" y="192.9951">Producer</text></g><!--class SinkServer--><g id="elem_SinkServer"><rect codeLine="2" fill="#F1F1F1" height="96.8906" id="SinkServer" rx="2.5" ry="2.5" style="stroke:#181818;stroke-width:0.5;" width="193" x="22.5" y="41"/><ellipse cx="78.25" cy="57" fill="#B4A7E5" rx="11" ry="11" style="stroke:#181818;stroke-width:1.0;"/><path d="M74.1719,52.7656 L74.1719,50.6094 L81.5625,50.6094 L81.5625,52.7656 L79.0938,52.7656 L79.0938,60.8438 L81.5625,60.8438 L81.5625,63 L74.1719,63 L74.1719,60.8438 L76.6406,60.8438 L76.6406,52.7656 L74.1719,52.7656 Z " fill="#000000"/><text fill="#000000" font-family="sans-serif" font-size="14" font-style="italic" lengthAdjust="spacing" textLength="73" x="98.75" y="61.8467">SinkServer</text><line style="stroke:#181818;stroke-width:0.5;" x1="23.5" x2="214.5" y1="73" y2="73"/><line style="stroke:#181818;stroke-width:0.5;" x1="23.5" x2="214.5" y1="81" y2="81"/><ellipse cx="33.5" cy="94.6484" fill="#84BE84" rx="3" ry="3" style="stroke:#038048;stroke-width:1.0;"/><text fill="#000000" font-family="sans-serif" font-size="14" lengthAdjust="spacing" textLength="167" x="42.5" y="97.9951">error SendTo(*AppData)</text><ellipse cx="33.5" cy="110.9453" fill="#84BE84" rx="3" ry="3" style="stroke:#038048;stroke-width:1.0;"/><text fill="#000000" font-family="sans-serif" font-size="14" lengthAdjust="spacing" textLength="86" x="42.5" y="114.292">error Serve()</text><ellipse cx="33.5" cy="127.2422" fill="#84BE84" rx="3" ry="3" style="stroke:#038048;stroke-width:1.0;"/><text fill="#000000" font-family="sans-serif" font-size="14" lengthAdjust="spacing" textLength="132" x="42.5" y="130.5889">error Setup(Config)</text></g><!--class Config--><g id="elem_Config"><rect codeLine="7" fill="#F1F1F1" height="64.2969" id="Config" rx="2.5" ry="2.5" style="stroke:#181818;stroke-width:0.5;" width="263" x="250.5" y="57.5"/><ellipse cx="355.75" cy="73.5" fill="#B4A7E5" rx="11" ry="11" style="stroke:#181818;stroke-width:1.0;"/><path d="M351.6719,69.2656 L351.6719,67.1094 L359.0625,67.1094 L359.0625,69.2656 L356.5938,69.2656 L356.5938,77.3438 L359.0625,77.3438 L359.0625,79.5 L351.6719,79.5 L351.6719,77.3438 L354.1406,77.3438 L354.1406,69.2656 L351.6719,69.2656 Z " fill="#000000"/><text fill="#000000" font-family="sans-serif" font-size="14" font-style="italic" lengthAdjust="spacing" textLength="44" x="376.25" y="78.3467">Config</text><line style="stroke:#181818;stroke-width:0.5;" x1="251.5" x2="512.5" y1="89.5" y2="89.5"/><line style="stroke:#181818;stroke-width:0.5;" x1="251.5" x2="512.5" y1="97.5" y2="97.5"/><ellipse cx="261.5" cy="111.1484" fill="#84BE84" rx="3" ry="3" style="stroke:#038048;stroke-width:1.0;"/><text fill="#000000" font-family="sans-serif" font-size="14" lengthAdjust="spacing" textLength="237" x="270.5" y="114.4951">error IngestConfig(map[string]any)</text></g><!--class HTTPProducer--><g id="elem_HTTPProducer"><rect codeLine="12" fill="#F1F1F1" height="129.4844" id="HTTPProducer" rx="2.5" ry="2.5" style="stroke:#181818;stroke-width:0.5;" width="216" x="219" y="410.5"/><ellipse cx="272.75" cy="426.5" fill="#F1F1F1" rx="11" ry="11" style="stroke:#181818;stroke-width:1.0;"/><path d="M272.2344,427.0625 Q270.375,426.3594 269.7188,425.5938 Q269.0781,424.8125 269.0781,423.5 Q269.0781,421.8125 270.1563,420.8438 Q271.2344,419.875 273.1094,419.875 Q273.9688,419.875 274.8125,420.0781 Q275.6719,420.2656 276.5156,420.6563 L276.5156,423.0469 Q275.7344,422.4844 274.9063,422.2031 Q274.0938,421.9063 273.2969,421.9063 Q272.4219,421.9063 271.9375,422.2656 Q271.4688,422.625 271.4688,423.2813 Q271.4688,423.7969 271.8125,424.1406 Q272.1563,424.4688 273.25,424.875 L274.3125,425.2813 Q275.7969,425.8281 276.5,426.7344 Q277.2188,427.6406 277.2188,429.0156 Q277.2188,430.8906 276.1094,431.8125 Q275,432.7344 272.75,432.7344 Q271.8281,432.7344 270.9063,432.5156 Q269.9844,432.2969 269.125,431.875 L269.125,429.3438 Q270.0938,430.0313 271.0156,430.375 Q271.9375,430.7188 272.8281,430.7188 Q273.7344,430.7188 274.2344,430.3125 Q274.7344,429.8906 274.7344,429.1563 Q274.7344,428.5938 274.3906,428.1875 Q274.0625,427.7656 273.4375,427.5156 L272.2344,427.0625 Z " fill="#000000"/><text fill="#000000" font-family="sans-serif" font-size="14" lengthAdjust="spacing" textLength="100" x="293.25" y="431.3467">HTTPProducer</text><line style="stroke:#181818;stroke-width:0.5;" x1="220" x2="434" y1="442.5" y2="442.5"/><rect fill="none" height="6" style="stroke:#C82930;stroke-width:1.0;" width="6" x="227" y="453.1484"/><text fill="#000000" font-family="sans-serif" font-size="14" lengthAdjust="spacing" textLength="190" x="239" y="459.4951">HTTPProducerConfig config</text><rect fill="none" height="6" style="stroke:#C82930;stroke-width:1.0;" width="6" x="227" y="469.4453"/><text fill="#000000" font-family="sans-serif" font-size="14" lengthAdjust="spacing" textLength="142" x="239" y="475.792">http.Client httpClient</text><line style="stroke:#181818;stroke-width:0.5;" x1="220" x2="434" y1="483.0938" y2="483.0938"/><ellipse cx="230" cy="496.7422" fill="#84BE84" rx="3" ry="3" style="stroke:#038048;stroke-width:1.0;"/><text fill="#000000" font-family="sans-serif" font-size="14" lengthAdjust="spacing" textLength="167" x="239" y="500.0889">error SendTo(*AppData)</text><ellipse cx="230" cy="513.0391" fill="#84BE84" rx="3" ry="3" style="stroke:#038048;stroke-width:1.0;"/><text fill="#000000" font-family="sans-serif" font-size="14" lengthAdjust="spacing" textLength="86" x="239" y="516.3857">error Serve()</text><ellipse cx="230" cy="529.3359" fill="#84BE84" rx="3" ry="3" style="stroke:#038048;stroke-width:1.0;"/><text fill="#000000" font-family="sans-serif" font-size="14" lengthAdjust="spacing" textLength="132" x="239" y="532.6826">error Setup(Config)</text></g><!--class RabbitMQProducer--><g id="elem_RabbitMQProducer"><rect codeLine="19" fill="#F1F1F1" height="178.375" id="RabbitMQProducer" rx="2.5" ry="2.5" style="stroke:#181818;stroke-width:0.5;" width="256" x="489" y="386"/><ellipse cx="547.75" cy="402" fill="#F1F1F1" rx="11" ry="11" style="stroke:#181818;stroke-width:1.0;"/><path d="M547.2344,402.5625 Q545.375,401.8594 544.7188,401.0938 Q544.0781,400.3125 544.0781,399 Q544.0781,397.3125 545.1563,396.3438 Q546.2344,395.375 548.1094,395.375 Q548.9688,395.375 549.8125,395.5781 Q550.6719,395.7656 551.5156,396.1563 L551.5156,398.5469 Q550.7344,397.9844 549.9063,397.7031 Q549.0938,397.4063 548.2969,397.4063 Q547.4219,397.4063 546.9375,397.7656 Q546.4688,398.125 546.4688,398.7813 Q546.4688,399.2969 546.8125,399.6406 Q547.1563,399.9688 548.25,400.375 L549.3125,400.7813 Q550.7969,401.3281 551.5,402.2344 Q552.2188,403.1406 552.2188,404.5156 Q552.2188,406.3906 551.1094,407.3125 Q550,408.2344 547.75,408.2344 Q546.8281,408.2344 545.9063,408.0156 Q544.9844,407.7969 544.125,407.375 L544.125,404.8438 Q545.0938,405.5313 546.0156,405.875 Q546.9375,406.2188 547.8281,406.2188 Q548.7344,406.2188 549.2344,405.8125 Q549.7344,405.3906 549.7344,404.6563 Q549.7344,404.0938 549.3906,403.6875 Q549.0625,403.2656 548.4375,403.0156 L547.2344,402.5625 Z " fill="#000000"/><text fill="#000000" font-family="sans-serif" font-size="14" lengthAdjust="spacing" textLength="130" x="568.25" y="406.8467">RabbitMQProducer</text><line style="stroke:#181818;stroke-width:0.5;" x1="490" x2="744" y1="418" y2="418"/><rect fill="none" height="6" style="stroke:#C82930;stroke-width:1.0;" width="6" x="497" y="428.6484"/><text fill="#000000" font-family="sans-serif" font-size="14" lengthAdjust="spacing" textLength="220" x="509" y="434.9951">RabbitMQProducerConfig config</text><rect fill="none" height="6" style="stroke:#C82930;stroke-width:1.0;" width="6" x="497" y="444.9453"/><text fill="#000000" font-family="sans-serif" font-size="14" lengthAdjust="spacing" textLength="181" x="509" y="451.292">rabbitmq.Channel channel</text><rect fill="none" height="6" style="stroke:#C82930;stroke-width:1.0;" width="6" x="497" y="461.2422"/><text fill="#000000" font-family="sans-serif" font-size="14" lengthAdjust="spacing" textLength="119" x="509" y="467.5889">RabbitMQDial dial</text><rect fill="none" height="6" style="stroke:#C82930;stroke-width:1.0;" width="6" x="497" y="477.5391"/><text fill="#000000" font-family="sans-serif" font-size="14" lengthAdjust="spacing" textLength="134" x="509" y="483.8857">context.Context ctx</text><rect fill="none" height="6" style="stroke:#C82930;stroke-width:1.0;" width="6" x="497" y="493.8359"/><text fill="#000000" font-family="sans-serif" font-size="14" lengthAdjust="spacing" textLength="230" x="509" y="500.1826">context.CancelCauseFunc cancel</text><line style="stroke:#181818;stroke-width:0.5;" x1="490" x2="744" y1="507.4844" y2="507.4844"/><ellipse cx="500" cy="521.1328" fill="#84BE84" rx="3" ry="3" style="stroke:#038048;stroke-width:1.0;"/><text fill="#000000" font-family="sans-serif" font-size="14" lengthAdjust="spacing" textLength="167" x="509" y="524.4795">error SendTo(*AppData)</text><ellipse cx="500" cy="537.4297" fill="#84BE84" rx="3" ry="3" style="stroke:#038048;stroke-width:1.0;"/><text fill="#000000" font-family="sans-serif" font-size="14" lengthAdjust="spacing" textLength="86" x="509" y="540.7764">error Serve()</text><ellipse cx="500" cy="553.7266" fill="#84BE84" rx="3" ry="3" style="stroke:#038048;stroke-width:1.0;"/><text fill="#000000" font-family="sans-serif" font-size="14" lengthAdjust="spacing" textLength="132" x="509" y="557.0732">error Setup(Config)</text></g><!--class AMQPOneProducer--><g id="elem_AMQPOneProducer"><rect codeLine="29" fill="#F1F1F1" height="178.375" id="AMQPOneProducer" rx="2.5" ry="2.5" style="stroke:#181818;stroke-width:0.5;" width="262" x="792" y="386"/><ellipse cx="852.25" cy="402" fill="#F1F1F1" rx="11" ry="11" style="stroke:#181818;stroke-width:1.0;"/><path d="M851.7344,402.5625 Q849.875,401.8594 849.2188,401.0938 Q848.5781,400.3125 848.5781,399 Q848.5781,397.3125 849.6563,396.3438 Q850.7344,395.375 852.6094,395.375 Q853.4688,395.375 854.3125,395.5781 Q855.1719,395.7656 856.0156,396.1563 L856.0156,398.5469 Q855.2344,397.9844 854.4063,397.7031 Q853.5938,397.4063 852.7969,397.4063 Q851.9219,397.4063 851.4375,397.7656 Q850.9688,398.125 850.9688,398.7813 Q850.9688,399.2969 851.3125,399.6406 Q851.6563,399.9688 852.75,400.375 L853.8125,400.7813 Q855.2969,401.3281 856,402.2344 Q856.7188,403.1406 856.7188,404.5156 Q856.7188,406.3906 855.6094,407.3125 Q854.5,408.2344 852.25,408.2344 Q851.3281,408.2344 850.4063,408.0156 Q849.4844,407.7969 848.625,407.375 L848.625,404.8438 Q849.5938,405.5313 850.5156,405.875 Q851.4375,406.2188 852.3281,406.2188 Q853.2344,406.2188 853.7344,405.8125 Q854.2344,405.3906 854.2344,404.6563 Q854.2344,404.0938 853.8906,403.6875 Q853.5625,403.2656 852.9375,403.0156 L851.7344,402.5625 Z " fill="#000000"/><text fill="#000000" font-family="sans-serif" font-size="14" lengthAdjust="spacing" textLength="133" x="872.75" y="406.8467">AMQPOneProducer</text><line style="stroke:#181818;stroke-width:0.5;" x1="793" x2="1053" y1="418" y2="418"/><rect fill="none" height="6" style="stroke:#C82930;stroke-width:1.0;" width="6" x="800" y="428.6484"/><text fill="#000000" font-family="sans-serif" font-size="14" lengthAdjust="spacing" textLength="223" x="812" y="434.9951">AMQPOneProducerConfig config</text><rect fill="none" height="6" style="stroke:#C82930;stroke-width:1.0;" width="6" x="800" y="444.9453"/><text fill="#000000" font-family="sans-serif" font-size="14" lengthAdjust="spacing" textLength="236" x="812" y="451.292">AMQPOneProducerSender sender</text><rect fill="none" height="6" style="stroke:#C82930;stroke-width:1.0;" width="6" x="800" y="461.2422"/><text fill="#000000" font-family="sans-serif" font-size="14" lengthAdjust="spacing" textLength="185" x="812" y="467.5889">AMQPOneProdcuerDial dial</text><rect fill="none" height="6" style="stroke:#C82930;stroke-width:1.0;" width="6" x="800" y="477.5391"/><text fill="#000000" font-family="sans-serif" font-size="14" lengthAdjust="spacing" textLength="134" x="812" y="483.8857">context.Context ctx</text><rect fill="none" height="6" style="stroke:#C82930;stroke-width:1.0;" width="6" x="800" y="493.8359"/><text fill="#000000" font-family="sans-serif" font-size="14" lengthAdjust="spacing" textLength="230" x="812" y="500.1826">context.CancelCauseFunc cancel</text><line style="stroke:#181818;stroke-width:0.5;" x1="793" x2="1053" y1="507.4844" y2="507.4844"/><ellipse cx="803" cy="521.1328" fill="#84BE84" rx="3" ry="3" style="stroke:#038048;stroke-width:1.0;"/><text fill="#000000" font-family="sans-serif" font-size="14" lengthAdjust="spacing" textLength="167" x="812" y="524.4795">error SendTo(*AppData)</text><ellipse cx="803" cy="537.4297" fill="#84BE84" rx="3" ry="3" style="stroke:#038048;stroke-width:1.0;"/><text fill="#000000" font-family="sans-serif" font-size="14" lengthAdjust="spacing" textLength="86" x="812" y="540.7764">error Serve()</text><ellipse cx="803" cy="553.7266" fill="#84BE84" rx="3" ry="3" style="stroke:#038048;stroke-width:1.0;"/><text fill="#000000" font-family="sans-serif" font-size="14" lengthAdjust="spacing" textLength="132" x="812" y="557.0732">error Setup(Config)</text></g><!--class HTTPProducerConfig--><g id="elem_HTTPProducerConfig"><rect codeLine="39" fill="#F1F1F1" height="113.1875" id="HTTPProducerConfig" rx="2.5" ry="2.5" style="stroke:#181818;stroke-width:0.5;" width="263" x="207.5" y="213"/><ellipse cx="262.75" cy="229" fill="#F1F1F1" rx="11" ry="11" style="stroke:#181818;stroke-width:1.0;"/><path d="M262.2344,229.5625 Q260.375,228.8594 259.7188,228.0938 Q259.0781,227.3125 259.0781,226 Q259.0781,224.3125 260.1563,223.3438 Q261.2344,222.375 263.1094,222.375 Q263.9688,222.375 264.8125,222.5781 Q265.6719,222.7656 266.5156,223.1563 L266.5156,225.5469 Q265.7344,224.9844 264.9063,224.7031 Q264.0938,224.4063 263.2969,224.4063 Q262.4219,224.4063 261.9375,224.7656 Q261.4688,225.125 261.4688,225.7813 Q261.4688,226.2969 261.8125,226.6406 Q262.1563,226.9688 263.25,227.375 L264.3125,227.7813 Q265.7969,228.3281 266.5,229.2344 Q267.2188,230.1406 267.2188,231.5156 Q267.2188,233.3906 266.1094,234.3125 Q265,235.2344 262.75,235.2344 Q261.8281,235.2344 260.9063,235.0156 Q259.9844,234.7969 259.125,234.375 L259.125,231.8438 Q260.0938,232.5313 261.0156,232.875 Q261.9375,233.2188 262.8281,233.2188 Q263.7344,233.2188 264.2344,232.8125 Q264.7344,232.3906 264.7344,231.6563 Q264.7344,231.0938 264.3906,230.6875 Q264.0625,230.2656 263.4375,230.0156 L262.2344,229.5625 Z " fill="#000000"/><text fill="#000000" font-family="sans-serif" font-size="14" lengthAdjust="spacing" textLength="144" x="283.25" y="233.8467">HTTPProducerConfig</text><line style="stroke:#181818;stroke-width:0.5;" x1="208.5" x2="469.5" y1="245" y2="245"/><ellipse cx="218.5" cy="258.6484" fill="none" rx="3" ry="3" style="stroke:#038048;stroke-width:1.0;"/><text fill="#000000" font-family="sans-serif" font-size="14" lengthAdjust="spacing" textLength="70" x="227.5" y="261.9951">string URL</text><ellipse cx="218.5" cy="274.9453" fill="none" rx="3" ry="3" style="stroke:#038048;stroke-width:1.0;"/><text fill="#000000" font-family="sans-serif" font-size="14" lengthAdjust="spacing" textLength="102" x="227.5" y="278.292">int NumRetries</text><ellipse cx="218.5" cy="291.2422" fill="none" rx="3" ry="3" style="stroke:#038048;stroke-width:1.0;"/><text fill="#000000" font-family="sans-serif" font-size="14" lengthAdjust="spacing" textLength="78" x="227.5" y="294.5889">int Timeout</text><line style="stroke:#181818;stroke-width:0.5;" x1="208.5" x2="469.5" y1="301.8906" y2="301.8906"/><ellipse cx="218.5" cy="315.5391" fill="#84BE84" rx="3" ry="3" style="stroke:#038048;stroke-width:1.0;"/><text fill="#000000" font-family="sans-serif" font-size="14" lengthAdjust="spacing" textLength="237" x="227.5" y="318.8857">error IngestConfig(map[string]any)</text></g><!--class RabbitMQProducerConfig--><g id="elem_RabbitMQProducerConfig"><rect codeLine="45" fill="#F1F1F1" height="113.1875" id="RabbitMQProducerConfig" rx="2.5" ry="2.5" style="stroke:#181818;stroke-width:0.5;" width="263" x="505.5" y="213"/><ellipse cx="546.15" cy="229" fill="#F1F1F1" rx="11" ry="11" style="stroke:#181818;stroke-width:1.0;"/><path d="M545.6344,229.5625 Q543.775,228.8594 543.1188,228.0938 Q542.4781,227.3125 542.4781,226 Q542.4781,224.3125 543.5563,223.3438 Q544.6344,222.375 546.5094,222.375 Q547.3688,222.375 548.2125,222.5781 Q549.0719,222.7656 549.9156,223.1563 L549.9156,225.5469 Q549.1344,224.9844 548.3063,224.7031 Q547.4938,224.4063 546.6969,224.4063 Q545.8219,224.4063 545.3375,224.7656 Q544.8688,225.125 544.8688,225.7813 Q544.8688,226.2969 545.2125,226.6406 Q545.5563,226.9688 546.65,227.375 L547.7125,227.7813 Q549.1969,228.3281 549.9,229.2344 Q550.6188,230.1406 550.6188,231.5156 Q550.6188,233.3906 549.5094,234.3125 Q548.4,235.2344 546.15,235.2344 Q545.2281,235.2344 544.3063,235.0156 Q543.3844,234.7969 542.525,234.375 L542.525,231.8438 Q543.4938,232.5313 544.4156,232.875 Q545.3375,233.2188 546.2281,233.2188 Q547.1344,233.2188 547.6344,232.8125 Q548.1344,232.3906 548.1344,231.6563 Q548.1344,231.0938 547.7906,230.6875 Q547.4625,230.2656 546.8375,230.0156 L545.6344,229.5625 Z " fill="#000000"/><text fill="#000000" font-family="sans-serif" font-size="14" lengthAdjust="spacing" textLength="174" x="565.85" y="233.8467">RabbitMQProducerConfig</text><line style="stroke:#181818;stroke-width:0.5;" x1="506.5" x2="767.5" y1="245" y2="245"/><ellipse cx="516.5" cy="258.6484" fill="none" rx="3" ry="3" style="stroke:#038048;stroke-width:1.0;"/><text fill="#000000" font-family="sans-serif" font-size="14" lengthAdjust="spacing" textLength="123" x="525.5" y="261.9951">string Connection</text><ellipse cx="516.5" cy="274.9453" fill="none" rx="3" ry="3" style="stroke:#038048;stroke-width:1.0;"/><text fill="#000000" font-family="sans-serif" font-size="14" lengthAdjust="spacing" textLength="111" x="525.5" y="278.292">string Exchange</text><ellipse cx="516.5" cy="291.2422" fill="none" rx="3" ry="3" style="stroke:#038048;stroke-width:1.0;"/><text fill="#000000" font-family="sans-serif" font-size="14" lengthAdjust="spacing" textLength="122" x="525.5" y="294.5889">string RoutingKey</text><line style="stroke:#181818;stroke-width:0.5;" x1="506.5" x2="767.5" y1="301.8906" y2="301.8906"/><ellipse cx="516.5" cy="315.5391" fill="#84BE84" rx="3" ry="3" style="stroke:#038048;stroke-width:1.0;"/><text fill="#000000" font-family="sans-serif" font-size="14" lengthAdjust="spacing" textLength="237" x="525.5" y="318.8857">error IngestConfig(map[string]any)</text></g><!--class AMQPOneProducerConfig--><g id="elem_AMQPOneProducerConfig"><rect codeLine="51" fill="#F1F1F1" height="96.8906" id="AMQPOneProducerConfig" rx="2.5" ry="2.5" style="stroke:#181818;stroke-width:0.5;" width="263" x="803.5" y="221"/><ellipse cx="842.8" cy="237" fill="#F1F1F1" rx="11" ry="11" style="stroke:#181818;stroke-width:1.0;"/><path d="M842.2844,237.5625 Q840.425,236.8594 839.7688,236.0938 Q839.1281,235.3125 839.1281,234 Q839.1281,232.3125 840.2063,231.3438 Q841.2844,230.375 843.1594,230.375 Q844.0188,230.375 844.8625,230.5781 Q845.7219,230.7656 846.5656,231.1563 L846.5656,233.5469 Q845.7844,232.9844 844.9563,232.7031 Q844.1438,232.4063 843.3469,232.4063 Q842.4719,232.4063 841.9875,232.7656 Q841.5188,233.125 841.5188,233.7813 Q841.5188,234.2969 841.8625,234.6406 Q842.2063,234.9688 843.3,235.375 L844.3625,235.7813 Q845.8469,236.3281 846.55,237.2344 Q847.2688,238.1406 847.2688,239.5156 Q847.2688,241.3906 846.1594,242.3125 Q845.05,243.2344 842.8,243.2344 Q841.8781,243.2344 840.9563,243.0156 Q840.0344,242.7969 839.175,242.375 L839.175,239.8438 Q840.1438,240.5313 841.0656,240.875 Q841.9875,241.2188 842.8781,241.2188 Q843.7844,241.2188 844.2844,240.8125 Q844.7844,240.3906 844.7844,239.6563 Q844.7844,239.0938 844.4406,238.6875 Q844.1125,238.2656 843.4875,238.0156 L842.2844,237.5625 Z " fill="#000000"/><text fill="#000000" font-family="sans-serif" font-size="14" lengthAdjust="spacing" textLength="177" x="862.2" y="241.8467">AMQPOneProducerConfig</text><line style="stroke:#181818;stroke-width:0.5;" x1="804.5" x2="1065.5" y1="253" y2="253"/><ellipse cx="814.5" cy="266.6484" fill="none" rx="3" ry="3" style="stroke:#038048;stroke-width:1.0;"/><text fill="#000000" font-family="sans-serif" font-size="14" lengthAdjust="spacing" textLength="123" x="823.5" y="269.9951">string Connection</text><ellipse cx="814.5" cy="282.9453" fill="none" rx="3" ry="3" style="stroke:#038048;stroke-width:1.0;"/><text fill="#000000" font-family="sans-serif" font-size="14" lengthAdjust="spacing" textLength="90" x="823.5" y="286.292">string Queue</text><line style="stroke:#181818;stroke-width:0.5;" x1="804.5" x2="1065.5" y1="293.5938" y2="293.5938"/><ellipse cx="814.5" cy="307.2422" fill="#84BE84" rx="3" ry="3" style="stroke:#038048;stroke-width:1.0;"/><text fill="#000000" font-family="sans-serif" font-size="14" lengthAdjust="spacing" textLength="237" x="823.5" y="310.5889">error IngestConfig(map[string]any)</text></g><!--reverse link SinkServer to HTTPProducer--><g id="link_SinkServer_HTTPProducer"><path codeLine="59" d="M63.4176,153.1191 C56.5476,162.9191 60.81,158.91 57,170 C34.46,235.57 21.67,266.34 57,326 C92,385.1 159.89,422.16 218.84,444.42 " fill="none" id="SinkServer-backto-HTTPProducer" style="stroke:#181818;stroke-width:1.0;"/><polygon fill="none" points="73.75,138.38,58.5046,149.675,68.3306,156.5632,73.75,138.38" style="stroke:#181818;stroke-width:1.0;"/></g><!--reverse link SinkServer to RabbitMQProducer--><g id="link_SinkServer_RabbitMQProducer"><path codeLine="60" d="M101.0379,155.8503 C88.9279,208.4003 83.56,274.64 128,326 C224.1,437.08 314.4,337.36 453,386 C464.89,390.17 476.96,395.12 488.89,400.5 " fill="none" id="SinkServer-backto-RabbitMQProducer" style="stroke:#181818;stroke-width:1.0;"/><polygon fill="none" points="105.08,138.31,95.1911,154.5029,106.8847,157.1976,105.08,138.31" style="stroke:#181818;stroke-width:1.0;"/></g><!--reverse link SinkServer to AMQPOneProducer--><g id="link_SinkServer_AMQPOneProducer"><path codeLine="61" d="M130.2434,155.8017 C141.6034,217.4217 161.05,302.05 190,326 C288.65,407.61 640.83,347.73 763,386 C772.53,388.99 782.14,392.57 791.66,396.56 " fill="none" id="SinkServer-backto-AMQPOneProducer" style="stroke:#181818;stroke-width:1.0;"/><polygon fill="none" points="126.98,138.1,124.3428,156.8895,136.144,154.7139,126.98,138.1" style="stroke:#181818;stroke-width:1.0;"/></g><!--reverse link Config to HTTPProducerConfig--><g id="link_Config_HTTPProducerConfig"><path codeLine="63" d="M370.2856,139.0073 C364.2256,164.1073 359.75,182.61 352.48,212.7 " fill="none" id="Config-backto-HTTPProducerConfig" style="stroke:#181818;stroke-width:1.0;"/><polygon fill="none" points="374.51,121.51,364.4531,137.5991,376.118,140.4154,374.51,121.51" style="stroke:#181818;stroke-width:1.0;"/></g><!--reverse link Config to RabbitMQProducerConfig--><g id="link_Config_RabbitMQProducerConfig"><path codeLine="64" d="M441.1798,131.8128 C477.2098,156.9628 514.16,182.75 557.32,212.88 " fill="none" id="Config-backto-RabbitMQProducerConfig" style="stroke:#181818;stroke-width:1.0;"/><polygon fill="none" points="426.42,121.51,437.7456,136.7327,444.6141,126.8929,426.42,121.51" style="stroke:#181818;stroke-width:1.0;"/></g><!--reverse link Config to AMQPOneProducerConfig--><g id="link_Config_AMQPOneProducerConfig"><path codeLine="65" d="M531.3857,105.6763 C612.2457,116.6763 698.86,134.26 786,170 C817.13,182.77 848.64,202.41 874.61,220.8 " fill="none" id="Config-backto-AMQPOneProducerConfig" style="stroke:#181818;stroke-width:1.0;"/><polygon fill="none" points="513.55,103.25,530.5769,111.6216,532.1945,99.7311,513.55,103.25" style="stroke:#181818;stroke-width:1.0;"/></g><!--reverse link HTTPProducerConfig to HTTPProducer--><g id="link_HTTPProducerConfig_HTTPProducer"><path codeLine="66" d="M335.0151,338.0893 C333.4851,364.0893 332.35,383.22 330.76,410.19 " fill="none" id="HTTPProducerConfig-backto-HTTPProducer" style="stroke:#181818;stroke-width:1.0;"/><polygon fill="#181818" points="335.72,326.11,331.3744,331.8647,335.0151,338.0893,339.3606,332.3346,335.72,326.11" style="stroke:#181818;stroke-width:1.0;"/></g><!--reverse link RabbitMQProducerConfig to RabbitMQProducer--><g id="link_RabbitMQProducerConfig_RabbitMQProducer"><path codeLine="67" d="M630.3596,338.0528 C628.5496,356.5228 627.65,365.63 625.65,385.94 " fill="none" id="RabbitMQProducerConfig-backto-RabbitMQProducer" style="stroke:#181818;stroke-width:1.0;"/><polygon fill="#181818" points="631.53,326.11,626.9639,331.6913,630.3596,338.0528,634.9258,332.4715,631.53,326.11" style="stroke:#181818;stroke-width:1.0;"/></g><!--reverse link AMQPOneProducerConfig to AMQPOneProducer--><g id="link_AMQPOneProducerConfig_AMQPOneProducer"><path codeLine="68" d="M931.4846,330.1893 C930.2946,350.3993 929.57,362.63 928.2,385.87 " fill="none" id="AMQPOneProducerConfig-backto-AMQPOneProducer" style="stroke:#181818;stroke-width:1.0;"/><polygon fill="#181818" points="932.19,318.21,927.8442,323.9645,931.4846,330.1893,935.8304,324.4347,932.19,318.21" style="stroke:#181818;stroke-width:1.0;"/></g><!--SRC=[rLJBJiCm4BpdAtmiHSqNSAbI48XN6y89SN3TRMgHR89ZerRGVyU9Ivg7aueYaF0Xw-pCskFn0saCMKePa0SGRo38kqDquoX1B8iqnvSQbBTJ428HkWGNGJ8OZjDqGYKzQUEwRc19IvKEl0INF3JWjZ6fmTeJNc48cJJe8ARfKoO5n_2PukPheAs3vPAc8baeLYhNPCKakGo2QGF9swYQtmbWHTXJLbAchXTnG4dolkd-iYqxsJwTpxcydTcaDx4E-QAWnQ-kjwA8415cOdkW2QSHMUZF7jA3ILXBrpEHCBcsW1GPH1vL6LmeP8GL_tzZq5Yl_nx1vay3wh2dmSfLwc6o8bXPJ87uZqvPJdhbgfaxHHxzctrENqrofs8VD0PPFH_m618bZxYhFQUxKvO649Za2RQWytL-daDe0RwMf-CrR7ucqdwClgLnfa314Ihqk-QOPzYjlCXd7wDH-SgvrMqzI6uQVh2WiVXIpiw5RYc6q4ktxtvlYNKld1u1PDZfrG4TzSgMSVsIwiKDoYS0]--></g></svg>