<?xml version="1.0" encoding="us-ascii" standalone="no"?><svg xmlns="http://www.w3.org/2000/svg" xmlns:xlink="http://www.w3.org/1999/xlink" contentStyleType="text/css" height="1052px" preserveAspectRatio="none" style="width:1494px;height:1052px;background:#FFFFFF;" version="1.1" viewBox="0 0 1494 1052" width="1494px" zoomAndPan="magnify"><defs/><g><!--cluster JSONExtractor--><g id="cluster_JSONExtractor"><path d="M1141.5,708 L1251.5,708 A3.75,3.75 0 0 1 1254,710.5 L1261,730.2969 L1484.5,730.2969 A2.5,2.5 0 0 1 1487,732.7969 L1487,885.5 A2.5,2.5 0 0 1 1484.5,888 L1141.5,888 A2.5,2.5 0 0 1 1139,885.5 L1139,710.5 A2.5,2.5 0 0 1 1141.5,708 " fill="none" style="stroke:#000000;stroke-width:1.5;"/><line style="stroke:#000000;stroke-width:1.5;" x1="1139" x2="1261" y1="730.2969" y2="730.2969"/><text fill="#000000" font-family="sans-serif" font-size="14" font-weight="bold" lengthAdjust="spacing" textLength="109" x="1143" y="722.9951">JSONExtractor</text></g><!--cluster Server--><g id="cluster_Server"><path d="M8.5,6 L62.5,6 A3.75,3.75 0 0 1 65,8.5 L72,28.2969 L1112.5,28.2969 A2.5,2.5 0 0 1 1115,30.7969 L1115,1042.5 A2.5,2.5 0 0 1 1112.5,1045 L8.5,1045 A2.5,2.5 0 0 1 6,1042.5 L6,8.5 A2.5,2.5 0 0 1 8.5,6 " fill="none" style="stroke:#000000;stroke-width:1.5;"/><line style="stroke:#000000;stroke-width:1.5;" x1="6" x2="72" y1="28.2969" y2="28.2969"/><text fill="#000000" font-family="sans-serif" font-size="14" font-weight="bold" lengthAdjust="spacing" textLength="53" x="10" y="20.9951">Server</text></g><!--class JQTransformer--><g id="elem_JQTransformer"><rect codeLine="2" fill="#F1F1F1" height="129.4844" id="JQTransformer" rx="2.5" ry="2.5" style="stroke:#181818;stroke-width:0.5;" width="315" x="1155.5" y="743"/><ellipse cx="1259.75" cy="759" fill="#F1F1F1" rx="11" ry="11" style="stroke:#181818;stroke-width:1.0;"/><path d="M1259.2344,759.5625 Q1257.375,758.8594 1256.7188,758.0938 Q1256.0781,757.3125 1256.0781,756 Q1256.0781,754.3125 1257.1563,753.3438 Q1258.2344,752.375 1260.1094,752.375 Q1260.9688,752.375 1261.8125,752.5781 Q1262.6719,752.7656 1263.5156,753.1563 L1263.5156,755.5469 Q1262.7344,754.9844 1261.9063,754.7031 Q1261.0938,754.4063 1260.2969,754.4063 Q1259.4219,754.4063 1258.9375,754.7656 Q1258.4688,755.125 1258.4688,755.7813 Q1258.4688,756.2969 1258.8125,756.6406 Q1259.1563,756.9688 1260.25,757.375 L1261.3125,757.7813 Q1262.7969,758.3281 1263.5,759.2344 Q1264.2188,760.1406 1264.2188,761.5156 Q1264.2188,763.3906 1263.1094,764.3125 Q1262,765.2344 1259.75,765.2344 Q1258.8281,765.2344 1257.9063,765.0156 Q1256.9844,764.7969 1256.125,764.375 L1256.125,761.8438 Q1257.0938,762.5313 1258.0156,762.875 Q1258.9375,763.2188 1259.8281,763.2188 Q1260.7344,763.2188 1261.2344,762.8125 Q1261.7344,762.3906 1261.7344,761.6563 Q1261.7344,761.0938 1261.3906,760.6875 Q1261.0625,760.2656 1260.4375,760.0156 L1259.2344,759.5625 Z " fill="#000000"/><text fill="#000000" font-family="sans-serif" font-size="14" lengthAdjust="spacing" textLength="98" x="1280.25" y="763.8467">JQTransformer</text><line style="stroke:#181818;stroke-width:0.5;" x1="1156.5" x2="1469.5" y1="775" y2="775"/><rect fill="none" height="6" style="stroke:#C82930;stroke-width:1.0;" width="6" x="1163.5" y="785.6484"/><text fill="#000000" font-family="sans-serif" font-size="14" lengthAdjust="spacing" textLength="145" x="1175.5" y="791.9951">gojq.Code jqProgram</text><rect fill="none" height="6" style="stroke:#C82930;stroke-width:1.0;" width="6" x="1163.5" y="801.9453"/><text fill="#000000" font-family="sans-serif" font-size="14" lengthAdjust="spacing" textLength="132" x="1175.5" y="808.292">Pushable pushable</text><line style="stroke:#181818;stroke-width:0.5;" x1="1156.5" x2="1469.5" y1="815.5938" y2="815.5938"/><ellipse cx="1166.5" cy="829.2422" fill="#84BE84" rx="3" ry="3" style="stroke:#038048;stroke-width:1.0;"/><text fill="#000000" font-family="sans-serif" font-size="14" lengthAdjust="spacing" textLength="202" x="1175.5" y="832.5889">error AddPushable(Pushable)</text><ellipse cx="1166.5" cy="845.5391" fill="#84BE84" rx="3" ry="3" style="stroke:#038048;stroke-width:1.0;"/><text fill="#000000" font-family="sans-serif" font-size="14" lengthAdjust="spacing" textLength="289" x="1175.5" y="848.8857">(sync.WaitGroup error) SendTo(*AppData)</text><ellipse cx="1166.5" cy="861.8359" fill="#84BE84" rx="3" ry="3" style="stroke:#038048;stroke-width:1.0;"/><text fill="#000000" font-family="sans-serif" font-size="14" lengthAdjust="spacing" textLength="86" x="1175.5" y="865.1826">error Serve()</text></g><!--class CompletionHandler--><g id="elem_CompletionHandler"><rect codeLine="11" fill="#F1F1F1" height="64.2969" id="CompletionHandler" rx="2.5" ry="2.5" style="stroke:#181818;stroke-width:0.5;" width="205" x="772.5" y="41"/><ellipse cx="805.95" cy="57" fill="#B4A7E5" rx="11" ry="11" style="stroke:#181818;stroke-width:1.0;"/><path d="M801.8719,52.7656 L801.8719,50.6094 L809.2625,50.6094 L809.2625,52.7656 L806.7938,52.7656 L806.7938,60.8438 L809.2625,60.8438 L809.2625,63 L801.8719,63 L801.8719,60.8438 L804.3406,60.8438 L804.3406,52.7656 L801.8719,52.7656 Z " fill="#000000"/><text fill="#000000" font-family="sans-serif" font-size="14" font-style="italic" lengthAdjust="spacing" textLength="132" x="824.05" y="61.8467">CompletionHandler</text><line style="stroke:#181818;stroke-width:0.5;" x1="773.5" x2="976.5" y1="73" y2="73"/><line style="stroke:#181818;stroke-width:0.5;" x1="773.5" x2="976.5" y1="81" y2="81"/><ellipse cx="783.5" cy="94.6484" fill="#84BE84" rx="3" ry="3" style="stroke:#038048;stroke-width:1.0;"/><text fill="#000000" font-family="sans-serif" font-size="14" lengthAdjust="spacing" textLength="179" x="792.5" y="97.9951">error Complete(any, error)</text></g><!--class AppData--><g id="elem_AppData"><rect codeLine="14" fill="#F1F1F1" height="113.1875" id="AppData" rx="2.5" ry="2.5" style="stroke:#181818;stroke-width:0.5;" width="329" x="710.5" y="165"/><ellipse cx="841.25" cy="181" fill="#F1F1F1" rx="11" ry="11" style="stroke:#181818;stroke-width:1.0;"/><path d="M840.7344,181.5625 Q838.875,180.8594 838.2188,180.0938 Q837.5781,179.3125 837.5781,178 Q837.5781,176.3125 838.6563,175.3438 Q839.7344,174.375 841.6094,174.375 Q842.4688,174.375 843.3125,174.5781 Q844.1719,174.7656 845.0156,175.1563 L845.0156,177.5469 Q844.2344,176.9844 843.4063,176.7031 Q842.5938,176.4063 841.7969,176.4063 Q840.9219,176.4063 840.4375,176.7656 Q839.9688,177.125 839.9688,177.7813 Q839.9688,178.2969 840.3125,178.6406 Q840.6563,178.9688 841.75,179.375 L842.8125,179.7813 Q844.2969,180.3281 845,181.2344 Q845.7188,182.1406 845.7188,183.5156 Q845.7188,185.3906 844.6094,186.3125 Q843.5,187.2344 841.25,187.2344 Q840.3281,187.2344 839.4063,187.0156 Q838.4844,186.7969 837.625,186.375 L837.625,183.8438 Q838.5938,184.5313 839.5156,184.875 Q840.4375,185.2188 841.3281,185.2188 Q842.2344,185.2188 842.7344,184.8125 Q843.2344,184.3906 843.2344,183.6563 Q843.2344,183.0938 842.8906,182.6875 Q842.5625,182.2656 841.9375,182.0156 L840.7344,181.5625 Z " fill="#000000"/><text fill="#000000" font-family="sans-serif" font-size="14" lengthAdjust="spacing" textLength="59" x="861.75" y="185.8467">AppData</text><line style="stroke:#181818;stroke-width:0.5;" x1="711.5" x2="1038.5" y1="197" y2="197"/><rect fill="none" height="6" style="stroke:#C82930;stroke-width:1.0;" width="6" x="718.5" y="207.6484"/><text fill="#000000" font-family="sans-serif" font-size="14" lengthAdjust="spacing" textLength="58" x="730.5" y="213.9951">any data</text><ellipse cx="721.5" cy="226.9453" fill="none" rx="3" ry="3" style="stroke:#038048;stroke-width:1.0;"/><text fill="#000000" font-family="sans-serif" font-size="14" lengthAdjust="spacing" textLength="266" x="730.5" y="230.292">CompletionHandler completionHandler</text><line style="stroke:#181818;stroke-width:0.5;" x1="711.5" x2="1038.5" y1="237.5938" y2="237.5938"/><ellipse cx="721.5" cy="251.2422" fill="#84BE84" rx="3" ry="3" style="stroke:#038048;stroke-width:1.0;"/><text fill="#000000" font-family="sans-serif" font-size="14" lengthAdjust="spacing" textLength="95" x="730.5" y="254.5889">any GetData()</text><ellipse cx="721.5" cy="267.5391" fill="#84BE84" rx="3" ry="3" style="stroke:#038048;stroke-width:1.0;"/><text fill="#000000" font-family="sans-serif" font-size="14" lengthAdjust="spacing" textLength="303" x="730.5" y="270.8857">CompletionHandler GetCompletionHandler()</text></g><!--class Server--><g id="elem_Server"><rect codeLine="20" fill="#F1F1F1" height="64.2969" id="Server" rx="2.5" ry="2.5" style="stroke:#181818;stroke-width:0.5;" width="112" x="554" y="462"/><ellipse cx="585.2" cy="478" fill="#B4A7E5" rx="11" ry="11" style="stroke:#181818;stroke-width:1.0;"/><path d="M581.1219,473.7656 L581.1219,471.6094 L588.5125,471.6094 L588.5125,473.7656 L586.0438,473.7656 L586.0438,481.8438 L588.5125,481.8438 L588.5125,484 L581.1219,484 L581.1219,481.8438 L583.5906,481.8438 L583.5906,473.7656 L581.1219,473.7656 Z " fill="#000000"/><text fill="#000000" font-family="sans-serif" font-size="14" font-style="italic" lengthAdjust="spacing" textLength="44" x="602.8" y="482.8467">Server</text><line style="stroke:#181818;stroke-width:0.5;" x1="555" x2="665" y1="494" y2="494"/><line style="stroke:#181818;stroke-width:0.5;" x1="555" x2="665" y1="502" y2="502"/><ellipse cx="565" cy="515.6484" fill="#84BE84" rx="3" ry="3" style="stroke:#038048;stroke-width:1.0;"/><text fill="#000000" font-family="sans-serif" font-size="14" lengthAdjust="spacing" textLength="86" x="574" y="518.9951">error Serve()</text></g><!--class Pullable--><g id="elem_Pullable"><rect codeLine="23" fill="#F1F1F1" height="64.2969" id="Pullable" rx="2.5" ry="2.5" style="stroke:#181818;stroke-width:0.5;" width="228" x="701" y="462"/><ellipse cx="784.25" cy="478" fill="#B4A7E5" rx="11" ry="11" style="stroke:#181818;stroke-width:1.0;"/><path d="M780.1719,473.7656 L780.1719,471.6094 L787.5625,471.6094 L787.5625,473.7656 L785.0938,473.7656 L785.0938,481.8438 L787.5625,481.8438 L787.5625,484 L780.1719,484 L780.1719,481.8438 L782.6406,481.8438 L782.6406,473.7656 L780.1719,473.7656 Z " fill="#000000"/><text fill="#000000" font-family="sans-serif" font-size="14" font-style="italic" lengthAdjust="spacing" textLength="53" x="804.75" y="482.8467">Pullable</text><line style="stroke:#181818;stroke-width:0.5;" x1="702" x2="928" y1="494" y2="494"/><line style="stroke:#181818;stroke-width:0.5;" x1="702" x2="928" y1="502" y2="502"/><ellipse cx="712" cy="515.6484" fill="#84BE84" rx="3" ry="3" style="stroke:#038048;stroke-width:1.0;"/><text fill="#000000" font-family="sans-serif" font-size="14" lengthAdjust="spacing" textLength="202" x="721" y="518.9951">error AddPushable(Pushable)</text></g><!--class Pushable--><g id="elem_Pushable"><rect codeLine="26" fill="#F1F1F1" height="64.2969" id="Pushable" rx="2.5" ry="2.5" style="stroke:#181818;stroke-width:0.5;" width="315" x="717.5" y="338"/><ellipse cx="838.75" cy="354" fill="#B4A7E5" rx="11" ry="11" style="stroke:#181818;stroke-width:1.0;"/><path d="M834.6719,349.7656 L834.6719,347.6094 L842.0625,347.6094 L842.0625,349.7656 L839.5938,349.7656 L839.5938,357.8438 L842.0625,357.8438 L842.0625,360 L834.6719,360 L834.6719,357.8438 L837.1406,357.8438 L837.1406,349.7656 L834.6719,349.7656 Z " fill="#000000"/><text fill="#000000" font-family="sans-serif" font-size="14" font-style="italic" lengthAdjust="spacing" textLength="64" x="859.25" y="358.8467">Pushable</text><line style="stroke:#181818;stroke-width:0.5;" x1="718.5" x2="1031.5" y1="370" y2="370"/><line style="stroke:#181818;stroke-width:0.5;" x1="718.5" x2="1031.5" y1="378" y2="378"/><ellipse cx="728.5" cy="391.6484" fill="#84BE84" rx="3" ry="3" style="stroke:#038048;stroke-width:1.0;"/><text fill="#000000" font-family="sans-serif" font-size="14" lengthAdjust="spacing" textLength="289" x="737.5" y="394.9951">(sync.WaitGroup error) SendTo(*AppData)</text></g><!--class SourceServer--><g id="elem_SourceServer"><rect codeLine="29" fill="#F1F1F1" height="80.5938" id="SourceServer" rx="2.5" ry="2.5" style="stroke:#181818;stroke-width:0.5;" width="228" x="520" y="594"/><ellipse cx="583.25" cy="610" fill="#B4A7E5" rx="11" ry="11" style="stroke:#181818;stroke-width:1.0;"/><path d="M579.1719,605.7656 L579.1719,603.6094 L586.5625,603.6094 L586.5625,605.7656 L584.0938,605.7656 L584.0938,613.8438 L586.5625,613.8438 L586.5625,616 L579.1719,616 L579.1719,613.8438 L581.6406,613.8438 L581.6406,605.7656 L579.1719,605.7656 Z " fill="#000000"/><text fill="#000000" font-family="sans-serif" font-size="14" font-style="italic" lengthAdjust="spacing" textLength="93" x="603.75" y="614.8467">SourceServer</text><line style="stroke:#181818;stroke-width:0.5;" x1="521" x2="747" y1="626" y2="626"/><line style="stroke:#181818;stroke-width:0.5;" x1="521" x2="747" y1="634" y2="634"/><ellipse cx="531" cy="647.6484" fill="#84BE84" rx="3" ry="3" style="stroke:#038048;stroke-width:1.0;"/><text fill="#000000" font-family="sans-serif" font-size="14" lengthAdjust="spacing" textLength="202" x="540" y="650.9951">error AddPushable(Pushable)</text><ellipse cx="531" cy="663.9453" fill="#84BE84" rx="3" ry="3" style="stroke:#038048;stroke-width:1.0;"/><text fill="#000000" font-family="sans-serif" font-size="14" lengthAdjust="spacing" textLength="86" x="540" y="667.292">error Serve()</text></g><!--class SinkServer--><g id="elem_SinkServer"><rect codeLine="33" fill="#F1F1F1" height="80.5938" id="SinkServer" rx="2.5" ry="2.5" style="stroke:#181818;stroke-width:0.5;" width="315" x="169.5" y="594"/><ellipse cx="286.25" cy="610" fill="#B4A7E5" rx="11" ry="11" style="stroke:#181818;stroke-width:1.0;"/><path d="M282.1719,605.7656 L282.1719,603.6094 L289.5625,603.6094 L289.5625,605.7656 L287.0938,605.7656 L287.0938,613.8438 L289.5625,613.8438 L289.5625,616 L282.1719,616 L282.1719,613.8438 L284.6406,613.8438 L284.6406,605.7656 L282.1719,605.7656 Z " fill="#000000"/><text fill="#000000" font-family="sans-serif" font-size="14" font-style="italic" lengthAdjust="spacing" textLength="73" x="306.75" y="614.8467">SinkServer</text><line style="stroke:#181818;stroke-width:0.5;" x1="170.5" x2="483.5" y1="626" y2="626"/><line style="stroke:#181818;stroke-width:0.5;" x1="170.5" x2="483.5" y1="634" y2="634"/><ellipse cx="180.5" cy="647.6484" fill="#84BE84" rx="3" ry="3" style="stroke:#038048;stroke-width:1.0;"/><text fill="#000000" font-family="sans-serif" font-size="14" lengthAdjust="spacing" textLength="289" x="189.5" y="650.9951">(sync.WaitGroup error) SendTo(*AppData)</text><ellipse cx="180.5" cy="663.9453" fill="#84BE84" rx="3" ry="3" style="stroke:#038048;stroke-width:1.0;"/><text fill="#000000" font-family="sans-serif" font-size="14" lengthAdjust="spacing" textLength="86" x="189.5" y="667.292">error Serve()</text></g><!--class PipeServer--><g id="elem_PipeServer"><rect codeLine="37" fill="#F1F1F1" height="96.8906" id="PipeServer" rx="2.5" ry="2.5" style="stroke:#181818;stroke-width:0.5;" width="315" x="783.5" y="586"/><ellipse cx="899.75" cy="602" fill="#B4A7E5" rx="11" ry="11" style="stroke:#181818;stroke-width:1.0;"/><path d="M895.6719,597.7656 L895.6719,595.6094 L903.0625,595.6094 L903.0625,597.7656 L900.5938,597.7656 L900.5938,605.8438 L903.0625,605.8438 L903.0625,608 L895.6719,608 L895.6719,605.8438 L898.1406,605.8438 L898.1406,597.7656 L895.6719,597.7656 Z " fill="#000000"/><text fill="#000000" font-family="sans-serif" font-size="14" font-style="italic" lengthAdjust="spacing" textLength="74" x="920.25" y="606.8467">PipeServer</text><line style="stroke:#181818;stroke-width:0.5;" x1="784.5" x2="1097.5" y1="618" y2="618"/><line style="stroke:#181818;stroke-width:0.5;" x1="784.5" x2="1097.5" y1="626" y2="626"/><ellipse cx="794.5" cy="639.6484" fill="#84BE84" rx="3" ry="3" style="stroke:#038048;stroke-width:1.0;"/><text fill="#000000" font-family="sans-serif" font-size="14" lengthAdjust="spacing" textLength="202" x="803.5" y="642.9951">error AddPushable(Pushable)</text><ellipse cx="794.5" cy="655.9453" fill="#84BE84" rx="3" ry="3" style="stroke:#038048;stroke-width:1.0;"/><text fill="#000000" font-family="sans-serif" font-size="14" lengthAdjust="spacing" textLength="289" x="803.5" y="659.292">(sync.WaitGroup error) SendTo(*AppData)</text><ellipse cx="794.5" cy="672.2422" fill="#84BE84" rx="3" ry="3" style="stroke:#038048;stroke-width:1.0;"/><text fill="#000000" font-family="sans-serif" font-size="14" lengthAdjust="spacing" textLength="86" x="803.5" y="675.5889">error Serve()</text></g><!--class Producer--><g id="elem_Producer"><rect codeLine="42" fill="#F1F1F1" height="96.8906" id="Producer" rx="2.5" ry="2.5" style="stroke:#181818;stroke-width:0.5;" width="315" x="47.5" y="759"/><ellipse cx="169.25" cy="775" fill="#B4A7E5" rx="11" ry="11" style="stroke:#181818;stroke-width:1.0;"/><path d="M165.1719,770.7656 L165.1719,768.6094 L172.5625,768.6094 L172.5625,770.7656 L170.0938,770.7656 L170.0938,778.8438 L172.5625,778.8438 L172.5625,781 L165.1719,781 L165.1719,778.8438 L167.6406,778.8438 L167.6406,770.7656 L165.1719,770.7656 Z " fill="#000000"/><text fill="#000000" font-family="sans-serif" font-size="14" font-style="italic" lengthAdjust="spacing" textLength="63" x="189.75" y="779.8467">Producer</text><line style="stroke:#181818;stroke-width:0.5;" x1="48.5" x2="361.5" y1="791" y2="791"/><line style="stroke:#181818;stroke-width:0.5;" x1="48.5" x2="361.5" y1="799" y2="799"/><ellipse cx="58.5" cy="812.6484" fill="#84BE84" rx="3" ry="3" style="stroke:#038048;stroke-width:1.0;"/><text fill="#000000" font-family="sans-serif" font-size="14" lengthAdjust="spacing" textLength="195" x="67.5" y="815.9951">error Setup(ProducerConfig)</text><ellipse cx="58.5" cy="828.9453" fill="#84BE84" rx="3" ry="3" style="stroke:#038048;stroke-width:1.0;"/><text fill="#000000" font-family="sans-serif" font-size="14" lengthAdjust="spacing" textLength="289" x="67.5" y="832.292">(sync.WaitGroup error) SendTo(*AppData)</text><ellipse cx="58.5" cy="845.2422" fill="#84BE84" rx="3" ry="3" style="stroke:#038048;stroke-width:1.0;"/><text fill="#000000" font-family="sans-serif" font-size="14" lengthAdjust="spacing" textLength="86" x="67.5" y="848.5889">error Serve()</text></g><!--class Consumer--><g id="elem_Consumer"><rect codeLine="47" fill="#F1F1F1" height="96.8906" id="Consumer" rx="2.5" ry="2.5" style="stroke:#181818;stroke-width:0.5;" width="230" x="569" y="759"/><ellipse cx="643.75" cy="775" fill="#B4A7E5" rx="11" ry="11" style="stroke:#181818;stroke-width:1.0;"/><path d="M639.6719,770.7656 L639.6719,768.6094 L647.0625,768.6094 L647.0625,770.7656 L644.5938,770.7656 L644.5938,778.8438 L647.0625,778.8438 L647.0625,781 L639.6719,781 L639.6719,778.8438 L642.1406,778.8438 L642.1406,770.7656 L639.6719,770.7656 Z " fill="#000000"/><text fill="#000000" font-family="sans-serif" font-size="14" font-style="italic" lengthAdjust="spacing" textLength="72" x="664.25" y="779.8467">Consumer</text><line style="stroke:#181818;stroke-width:0.5;" x1="570" x2="798" y1="791" y2="791"/><line style="stroke:#181818;stroke-width:0.5;" x1="570" x2="798" y1="799" y2="799"/><ellipse cx="580" cy="812.6484" fill="#84BE84" rx="3" ry="3" style="stroke:#038048;stroke-width:1.0;"/><text fill="#000000" font-family="sans-serif" font-size="14" lengthAdjust="spacing" textLength="202" x="589" y="815.9951">error AddPushable(Pushable)</text><ellipse cx="580" cy="828.9453" fill="#84BE84" rx="3" ry="3" style="stroke:#038048;stroke-width:1.0;"/><text fill="#000000" font-family="sans-serif" font-size="14" lengthAdjust="spacing" textLength="204" x="589" y="832.292">error Setup(ConsumerConfig)</text><ellipse cx="580" cy="845.2422" fill="#84BE84" rx="3" ry="3" style="stroke:#038048;stroke-width:1.0;"/><text fill="#000000" font-family="sans-serif" font-size="14" lengthAdjust="spacing" textLength="86" x="589" y="848.5889">error Serve()</text></g><!--class ProducerServer--><g id="elem_ProducerServer"><rect codeLine="52" fill="#F1F1F1" height="96.8906" id="ProducerServer" rx="2.5" ry="2.5" style="stroke:#181818;stroke-width:0.5;" width="315" x="241.5" y="932"/><ellipse cx="341.25" cy="948" fill="#F1F1F1" rx="11" ry="11" style="stroke:#181818;stroke-width:1.0;"/><path d="M340.7344,948.5625 Q338.875,947.8594 338.2188,947.0938 Q337.5781,946.3125 337.5781,945 Q337.5781,943.3125 338.6563,942.3438 Q339.7344,941.375 341.6094,941.375 Q342.4688,941.375 343.3125,941.5781 Q344.1719,941.7656 345.0156,942.1563 L345.0156,944.5469 Q344.2344,943.9844 343.4063,943.7031 Q342.5938,943.4063 341.7969,943.4063 Q340.9219,943.4063 340.4375,943.7656 Q339.9688,944.125 339.9688,944.7813 Q339.9688,945.2969 340.3125,945.6406 Q340.6563,945.9688 341.75,946.375 L342.8125,946.7813 Q344.2969,947.3281 345,948.2344 Q345.7188,949.1406 345.7188,950.5156 Q345.7188,952.3906 344.6094,953.3125 Q343.5,954.2344 341.25,954.2344 Q340.3281,954.2344 339.4063,954.0156 Q338.4844,953.7969 337.625,953.375 L337.625,950.8438 Q338.5938,951.5313 339.5156,951.875 Q340.4375,952.2188 341.3281,952.2188 Q342.2344,952.2188 342.7344,951.8125 Q343.2344,951.3906 343.2344,950.6563 Q343.2344,950.0938 342.8906,949.6875 Q342.5625,949.2656 341.9375,949.0156 L340.7344,948.5625 Z " fill="#000000"/><text fill="#000000" font-family="sans-serif" font-size="14" lengthAdjust="spacing" textLength="107" x="361.75" y="952.8467">ProducerServer</text><line style="stroke:#181818;stroke-width:0.5;" x1="242.5" x2="555.5" y1="964" y2="964"/><rect fill="none" height="6" style="stroke:#C82930;stroke-width:1.0;" width="6" x="249.5" y="974.6484"/><text fill="#000000" font-family="sans-serif" font-size="14" lengthAdjust="spacing" textLength="238" x="261.5" y="980.9951">map[string]Producer producerMap</text><line style="stroke:#181818;stroke-width:0.5;" x1="242.5" x2="555.5" y1="988.2969" y2="988.2969"/><ellipse cx="252.5" cy="1001.9453" fill="#84BE84" rx="3" ry="3" style="stroke:#038048;stroke-width:1.0;"/><text fill="#000000" font-family="sans-serif" font-size="14" lengthAdjust="spacing" textLength="289" x="261.5" y="1005.292">(sync.WaitGroup error) SendTo(*AppData)</text><ellipse cx="252.5" cy="1018.2422" fill="#84BE84" rx="3" ry="3" style="stroke:#038048;stroke-width:1.0;"/><text fill="#000000" font-family="sans-serif" font-size="14" lengthAdjust="spacing" textLength="86" x="261.5" y="1021.5889">error Serve()</text></g><!--class ConsumerServer--><g id="elem_ConsumerServer"><rect codeLine="57" fill="#F1F1F1" height="96.8906" id="ConsumerServer" rx="2.5" ry="2.5" style="stroke:#181818;stroke-width:0.5;" width="288" x="811" y="932"/><ellipse cx="892.75" cy="948" fill="#F1F1F1" rx="11" ry="11" style="stroke:#181818;stroke-width:1.0;"/><path d="M892.2344,948.5625 Q890.375,947.8594 889.7188,947.0938 Q889.0781,946.3125 889.0781,945 Q889.0781,943.3125 890.1563,942.3438 Q891.2344,941.375 893.1094,941.375 Q893.9688,941.375 894.8125,941.5781 Q895.6719,941.7656 896.5156,942.1563 L896.5156,944.5469 Q895.7344,943.9844 894.9063,943.7031 Q894.0938,943.4063 893.2969,943.4063 Q892.4219,943.4063 891.9375,943.7656 Q891.4688,944.125 891.4688,944.7813 Q891.4688,945.2969 891.8125,945.6406 Q892.1563,945.9688 893.25,946.375 L894.3125,946.7813 Q895.7969,947.3281 896.5,948.2344 Q897.2188,949.1406 897.2188,950.5156 Q897.2188,952.3906 896.1094,953.3125 Q895,954.2344 892.75,954.2344 Q891.8281,954.2344 890.9063,954.0156 Q889.9844,953.7969 889.125,953.375 L889.125,950.8438 Q890.0938,951.5313 891.0156,951.875 Q891.9375,952.2188 892.8281,952.2188 Q893.7344,952.2188 894.2344,951.8125 Q894.7344,951.3906 894.7344,950.6563 Q894.7344,950.0938 894.3906,949.6875 Q894.0625,949.2656 893.4375,949.0156 L892.2344,948.5625 Z " fill="#000000"/><text fill="#000000" font-family="sans-serif" font-size="14" lengthAdjust="spacing" textLength="116" x="913.25" y="952.8467">ConsumerServer</text><line style="stroke:#181818;stroke-width:0.5;" x1="812" x2="1098" y1="964" y2="964"/><rect fill="none" height="6" style="stroke:#C82930;stroke-width:1.0;" width="6" x="819" y="974.6484"/><text fill="#000000" font-family="sans-serif" font-size="14" lengthAdjust="spacing" textLength="262" x="831" y="980.9951">map[string]Consumer consumersMap</text><line style="stroke:#181818;stroke-width:0.5;" x1="812" x2="1098" y1="988.2969" y2="988.2969"/><ellipse cx="822" cy="1001.9453" fill="#84BE84" rx="3" ry="3" style="stroke:#038048;stroke-width:1.0;"/><text fill="#000000" font-family="sans-serif" font-size="14" lengthAdjust="spacing" textLength="202" x="831" y="1005.292">error AddPushable(Pushable)</text><ellipse cx="822" cy="1018.2422" fill="#84BE84" rx="3" ry="3" style="stroke:#038048;stroke-width:1.0;"/><text fill="#000000" font-family="sans-serif" font-size="14" lengthAdjust="spacing" textLength="86" x="831" y="1021.5889">error Serve()</text></g><!--class ProducerConfig--><g id="elem_ProducerConfig"><rect codeLine="62" fill="#F1F1F1" height="64.2969" id="ProducerConfig" rx="2.5" ry="2.5" style="stroke:#181818;stroke-width:0.5;" width="184" x="22" y="948.5"/><ellipse cx="57.25" cy="964.5" fill="#B4A7E5" rx="11" ry="11" style="stroke:#181818;stroke-width:1.0;"/><path d="M53.1719,960.2656 L53.1719,958.1094 L60.5625,958.1094 L60.5625,960.2656 L58.0938,960.2656 L58.0938,968.3438 L60.5625,968.3438 L60.5625,970.5 L53.1719,970.5 L53.1719,968.3438 L55.6406,968.3438 L55.6406,960.2656 L53.1719,960.2656 Z " fill="#000000"/><text fill="#000000" font-family="sans-serif" font-size="14" font-style="italic" lengthAdjust="spacing" textLength="107" x="75.75" y="969.3467">ProducerConfig</text><line style="stroke:#181818;stroke-width:0.5;" x1="23" x2="205" y1="980.5" y2="980.5"/><line style="stroke:#181818;stroke-width:0.5;" x1="23" x2="205" y1="988.5" y2="988.5"/><ellipse cx="33" cy="1002.1484" fill="#84BE84" rx="3" ry="3" style="stroke:#038048;stroke-width:1.0;"/><text fill="#000000" font-family="sans-serif" font-size="14" lengthAdjust="spacing" textLength="158" x="42" y="1005.4951">error IngestConfig(any)</text></g><!--class ConsumerConfig--><g id="elem_ConsumerConfig"><rect codeLine="65" fill="#F1F1F1" height="64.2969" id="ConsumerConfig" rx="2.5" ry="2.5" style="stroke:#181818;stroke-width:0.5;" width="184" x="592" y="948.5"/><ellipse cx="623.2" cy="964.5" fill="#B4A7E5" rx="11" ry="11" style="stroke:#181818;stroke-width:1.0;"/><path d="M619.1219,960.2656 L619.1219,958.1094 L626.5125,958.1094 L626.5125,960.2656 L624.0438,960.2656 L624.0438,968.3438 L626.5125,968.3438 L626.5125,970.5 L619.1219,970.5 L619.1219,968.3438 L621.5906,968.3438 L621.5906,960.2656 L619.1219,960.2656 Z " fill="#000000"/><text fill="#000000" font-family="sans-serif" font-size="14" font-style="italic" lengthAdjust="spacing" textLength="116" x="640.8" y="969.3467">ConsumerConfig</text><line style="stroke:#181818;stroke-width:0.5;" x1="593" x2="775" y1="980.5" y2="980.5"/><line style="stroke:#181818;stroke-width:0.5;" x1="593" x2="775" y1="988.5" y2="988.5"/><ellipse cx="603" cy="1002.1484" fill="#84BE84" rx="3" ry="3" style="stroke:#038048;stroke-width:1.0;"/><text fill="#000000" font-family="sans-serif" font-size="14" lengthAdjust="spacing" textLength="158" x="612" y="1005.4951">error IngestConfig(any)</text></g><!--reverse link CompletionHandler to AppData--><g id="link_CompletionHandler_AppData"><path codeLine="69" d="M875,117.07 C875,134.46 875,144.65 875,164.93 " fill="none" id="CompletionHandler-backto-AppData" style="stroke:#181818;stroke-width:1.0;"/><polygon fill="#181818" points="875,105.07,871,111.07,875,117.07,879,111.07,875,105.07" style="stroke:#181818;stroke-width:1.0;"/></g><!--reverse link AppData to Pushable--><g id="link_AppData_Pushable"><path codeLine="70" d="M875,290.3 C875,310.52 875,320.62 875,337.94 " fill="none" id="AppData-backto-Pushable" style="stroke:#181818;stroke-width:1.0;"/><polygon fill="#181818" points="875,278.3,871,284.3,875,290.3,879,284.3,875,278.3" style="stroke:#181818;stroke-width:1.0;"/></g><!--reverse link Server to SourceServer--><g id="link_Server_SourceServer"><path codeLine="71" d="M618.4554,543.8171 C621.9154,563.8371 623.4,572.31 627.12,593.82 " fill="none" id="Server-backto-SourceServer" style="stroke:#181818;stroke-width:1.0;"/><polygon fill="none" points="615.39,526.08,612.5431,544.8389,624.3678,542.7952,615.39,526.08" style="stroke:#181818;stroke-width:1.0;"/></g><!--reverse link Pushable to Pullable--><g id="link_Pushable_Pullable"><path codeLine="72" d="M854.4087,412.8704 C845.3887,431.2304 839.29,443.61 830.27,461.96 " fill="none" id="Pushable-backto-Pullable" style="stroke:#181818;stroke-width:1.0;"/><polygon fill="#181818" points="859.7,402.1,853.4642,405.7214,854.4087,412.8704,860.6445,409.249,859.7,402.1" style="stroke:#181818;stroke-width:1.0;"/></g><!--reverse link Pullable to SourceServer--><g id="link_Pullable_SourceServer"><path codeLine="73" d="M760.0856,537.0194 C733.9256,557.0394 713.97,572.31 685.85,593.82 " fill="none" id="Pullable-backto-SourceServer" style="stroke:#181818;stroke-width:1.0;"/><polygon fill="none" points="774.38,526.08,756.4391,532.2546,763.7321,541.7842,774.38,526.08" style="stroke:#181818;stroke-width:1.0;"/></g><!--reverse link Server to SinkServer--><g id="link_Server_SinkServer"><path codeLine="74" d="M537.582,530.4417 C495.832,550.8717 454.47,571.12 407.8,593.96 " fill="none" id="Server-backto-SinkServer" style="stroke:#181818;stroke-width:1.0;"/><polygon fill="none" points="553.75,522.53,534.9447,525.0523,540.2192,535.831,553.75,522.53" style="stroke:#181818;stroke-width:1.0;"/></g><!--reverse link Pushable to SinkServer--><g id="link_Pushable_SinkServer"><path codeLine="75" d="M699.7278,403.1539 C641.1078,417.2339 592.83,433.37 537,462 C469.99,496.37 404.71,554.77 365.17,593.74 " fill="none" id="Pushable-backto-SinkServer" style="stroke:#181818;stroke-width:1.0;"/><polygon fill="none" points="717.23,398.95,698.3265,397.3198,701.1291,408.9879,717.23,398.95" style="stroke:#181818;stroke-width:1.0;"/></g><!--reverse link Pushable to PipeServer--><g id="link_Pushable_PipeServer"><path codeLine="76" d="M920.5723,415.5103 C935.4523,431.7203 939.19,439.55 947,462 C960.94,502.1 957.51,550.7 951.72,585.9 " fill="none" id="Pushable-backto-PipeServer" style="stroke:#181818;stroke-width:1.0;"/><polygon fill="none" points="908.4,402.25,916.1522,419.5677,924.9924,411.4528,908.4,402.25" style="stroke:#181818;stroke-width:1.0;"/></g><!--reverse link Pullable to PipeServer--><g id="link_Pullable_PipeServer"><path codeLine="77" d="M855.3892,539.3979 C871.4192,557.0279 879.71,566.13 897.72,585.93 " fill="none" id="Pullable-backto-PipeServer" style="stroke:#181818;stroke-width:1.0;"/><polygon fill="none" points="843.28,526.08,850.9499,543.4343,859.8285,535.3615,843.28,526.08" style="stroke:#181818;stroke-width:1.0;"/></g><!--reverse link Server to PipeServer--><g id="link_Server_PipeServer"><path codeLine="78" d="M682.7639,525.4805 C688.7839,528.0005 678.22,523.58 684,526 C730.84,545.61 782.5,567.22 827.13,585.89 " fill="none" id="Server-backto-PipeServer" style="stroke:#181818;stroke-width:1.0;"/><polygon fill="none" points="666.16,518.53,680.4471,531.0151,685.0808,519.9458,666.16,518.53" style="stroke:#181818;stroke-width:1.0;"/></g><!--reverse link SinkServer to Producer--><g id="link_SinkServer_Producer"><path codeLine="80" d="M288.2488,689.8151 C270.4488,714.7751 257.81,732.48 239,758.84 " fill="none" id="SinkServer-backto-Producer" style="stroke:#181818;stroke-width:1.0;"/><polygon fill="none" points="298.7,675.16,283.3638,686.3314,293.1339,693.2989,298.7,675.16" style="stroke:#181818;stroke-width:1.0;"/></g><!--reverse link Producer to ProducerServer--><g id="link_Producer_ProducerServer"><path codeLine="81" d="M268.0426,864.0643 C294.8426,887.6843 318.11,908.2 344.91,931.83 " fill="none" id="Producer-backto-ProducerServer" style="stroke:#181818;stroke-width:1.0;"/><polygon fill="#181818" points="259.04,856.13,260.8965,863.098,268.0426,864.0643,266.1861,857.0963,259.04,856.13" style="stroke:#181818;stroke-width:1.0;"/></g><!--reverse link SinkServer to ProducerServer--><g id="link_SinkServer_ProducerServer"><path codeLine="82" d="M376.3512,689.5057 C382.0712,697.2757 376.52,691.24 380,700 C410.46,776.74 408.88,874.6 404.36,931.83 " fill="none" id="SinkServer-backto-ProducerServer" style="stroke:#181818;stroke-width:1.0;"/><polygon fill="none" points="365.68,675.01,371.5193,693.0628,381.1831,685.9486,365.68,675.01" style="stroke:#181818;stroke-width:1.0;"/></g><!--reverse link SourceServer to ConsumerServer--><g id="link_SourceServer_ConsumerServer"><path codeLine="83" d="M760.3883,681.078 C768.0283,683.768 758.64,680.45 766,683 C788.58,690.82 798.99,684.3 817,700 C888.39,762.23 926.66,869.99 943.74,931.95 " fill="none" id="SourceServer-backto-ConsumerServer" style="stroke:#181818;stroke-width:1.0;"/><polygon fill="none" points="743.41,675.1,758.3957,686.7374,762.381,675.4185,743.41,675.1" style="stroke:#181818;stroke-width:1.0;"/></g><!--reverse link Consumer to ConsumerServer--><g id="link_Consumer_ConsumerServer"><path codeLine="84" d="M769.6383,862.534 C807.0683,886.154 842.01,908.2 879.45,931.83 " fill="none" id="Consumer-backto-ConsumerServer" style="stroke:#181818;stroke-width:1.0;"/><polygon fill="#181818" points="759.49,856.13,762.4295,862.7148,769.6383,862.534,766.6988,855.9492,759.49,856.13" style="stroke:#181818;stroke-width:1.0;"/></g><!--reverse link SourceServer to Consumer--><g id="link_SourceServer_Consumer"><path codeLine="85" d="M650.6528,692.4363 C657.9528,717.3963 662.36,732.48 670.06,758.84 " fill="none" id="SourceServer-backto-Consumer" style="stroke:#181818;stroke-width:1.0;"/><polygon fill="none" points="645.6,675.16,644.894,694.1205,656.4115,690.752,645.6,675.16" style="stroke:#181818;stroke-width:1.0;"/></g><!--reverse link PipeServer to JQTransformer--><g id="link_PipeServer_JQTransformer"><path codeLine="87" d="M1091.9324,689.8305 C1105.4724,695.2705 1102.23,694.23 1115,700 C1143.46,712.85 1173.47,728.07 1201.27,742.93 " fill="none" id="PipeServer-backto-JQTransformer" style="stroke:#181818;stroke-width:1.0;"/><polygon fill="none" points="1075.23,683.12,1089.6955,695.398,1094.1692,684.2631,1075.23,683.12" style="stroke:#181818;stroke-width:1.0;"/></g><!--reverse link Pushable to JQTransformer--><g id="link_Pushable_JQTransformer"><path codeLine="88" d="M921.7011,409.8971 C970.1311,450.6571 1047.19,517.24 1116,586 C1166.84,636.8 1220.99,697.98 1259.62,743 " fill="none" id="Pushable-backto-JQTransformer" style="stroke:#181818;stroke-width:1.0;"/><polygon fill="#181818" points="912.52,402.17,914.5349,409.0939,921.7011,409.8971,919.6862,402.9732,912.52,402.17" style="stroke:#181818;stroke-width:1.0;"/></g><!--link Consumer to ConsumerConfig--><g id="link_Consumer_ConsumerConfig"><path codeLine="91" d="M684,856.13 C684,885.58 684,910.54 684,936.29 " fill="none" id="Consumer-to-ConsumerConfig" style="stroke:#181818;stroke-width:1.0;"/><polygon fill="#181818" points="684,948.29,688,942.29,684,936.29,680,942.29,684,948.29" style="stroke:#181818;stroke-width:1.0;"/></g><!--link Producer to ProducerConfig--><g id="link_Producer_ProducerConfig"><path codeLine="92" d="M179.65,856.13 C163.98,885.58 149.9464,911.9461 136.2464,937.6961 " fill="none" id="Producer-to-ProducerConfig" style="stroke:#181818;stroke-width:1.0;"/><polygon fill="#181818" points="130.61,948.29,136.9595,944.8718,136.2464,937.6961,129.8969,941.1142,130.61,948.29" style="stroke:#181818;stroke-width:1.0;"/></g><!--SRC=[jLPDKuCm4BtdL-H8g_0Bl3ZLgNP6hLDdF3WU8gH8XII6nD6f_Uz2cq0-ADNQSWhPbzstRpSB11MuP2Z6S3Axkxty51p5WdAu1B1wIi5bBE3a_e4ZKiufBx0srK-OqiLxDA89XeltAQSfHqLhdCho5Rta63ArQ4mdcFCgndcIQ4oW5uCM59HV98uUKIR6d4e6ruS6S8P9ya23uJbZ5qYWWUjrXla73ZRRAx02fCbmRT7yCo8mdzVR8rgm78kCaYj4ajpAKFbK41mWydMgYAW0XaoAaIbGXOT9jTSwzAF5xauBhe-FiQYz1eC-7nN8smnCYcswbWfRTRFFJ6MUhqkv_7qDVH-g7PRxbTZBWqeUustPxEYjtIdFClBcEpz8JpgwP6pVB8x1XjD4njtz8IGBj7r4oJnBZykbYb7AuX_LhGbh9nxXRV7LPTQ9UgK92yIUAb16qkT6BQOMDuWTGH95IQVIIwaHBLQBqk9qeDjXju5Ve6kIub9ihFNGx2_mNxsim4Q2o1-4mp1K4ovI-WBxrKJer3L42NlstKBCAGESOxQhpOG4pljEPrqncz7ZHTm3riwNNcu-h8EP0G8U2nkf6WGuxvPcrXNxfKC7R7u4JBXzLu2pQxBeHkvqt0XWpEyrplgFYgnVfyu6wiC3bxYwASDGCf-HerGNLjj-0000]--></g></svg>