<?xml version="1.0" encoding="us-ascii" standalone="no"?><svg xmlns="http://www.w3.org/2000/svg" xmlns:xlink="http://www.w3.org/1999/xlink" contentStyleType="text/css" height="1334px" preserveAspectRatio="none" style="width:1527px;height:1334px;background:#FFFFFF;" version="1.1" viewBox="0 0 1527 1334" width="1527px" zoomAndPan="magnify"><defs/><g><!--cluster Server--><g id="cluster_Server"><path d="M8.5,6 L62.5,6 A3.75,3.75 0 0 1 65,8.5 L72,28.2969 L1241.5,28.2969 A2.5,2.5 0 0 1 1244,30.7969 L1244,1324.5 A2.5,2.5 0 0 1 1241.5,1327 L8.5,1327 A2.5,2.5 0 0 1 6,1324.5 L6,8.5 A2.5,2.5 0 0 1 8.5,6 " fill="none" style="stroke:#000000;stroke-width:1.5;"/><line style="stroke:#000000;stroke-width:1.5;" x1="6" x2="72" y1="28.2969" y2="28.2969"/><text fill="#000000" font-family="sans-serif" font-size="14" font-weight="bold" lengthAdjust="spacing" textLength="53" x="10" y="20.9951">Server</text></g><!--cluster JSONExtractor--><g id="cluster_JSONExtractor"><path d="M1270.5,411 L1380.5,411 A3.75,3.75 0 0 1 1383,413.5 L1390,433.2969 L1517.5,433.2969 A2.5,2.5 0 0 1 1520,435.7969 L1520,605.5 A2.5,2.5 0 0 1 1517.5,608 L1270.5,608 A2.5,2.5 0 0 1 1268,605.5 L1268,413.5 A2.5,2.5 0 0 1 1270.5,411 " fill="none" style="stroke:#000000;stroke-width:1.5;"/><line style="stroke:#000000;stroke-width:1.5;" x1="1268" x2="1390" y1="433.2969" y2="433.2969"/><text fill="#000000" font-family="sans-serif" font-size="14" font-weight="bold" lengthAdjust="spacing" textLength="109" x="1272" y="425.9951">JSONExtractor</text></g><!--class CompletionHandler--><g id="elem_CompletionHandler"><rect codeLine="2" fill="#F1F1F1" height="64.2969" id="CompletionHandler" rx="2.5" ry="2.5" style="stroke:#181818;stroke-width:0.5;" width="205" x="655.5" y="41"/><ellipse cx="688.95" cy="57" fill="#B4A7E5" rx="11" ry="11" style="stroke:#181818;stroke-width:1.0;"/><path d="M684.8719,52.7656 L684.8719,50.6094 L692.2625,50.6094 L692.2625,52.7656 L689.7938,52.7656 L689.7938,60.8438 L692.2625,60.8438 L692.2625,63 L684.8719,63 L684.8719,60.8438 L687.3406,60.8438 L687.3406,52.7656 L684.8719,52.7656 Z " fill="#000000"/><text fill="#000000" font-family="sans-serif" font-size="14" font-style="italic" lengthAdjust="spacing" textLength="132" x="707.05" y="61.8467">CompletionHandler</text><line style="stroke:#181818;stroke-width:0.5;" x1="656.5" x2="859.5" y1="73" y2="73"/><line style="stroke:#181818;stroke-width:0.5;" x1="656.5" x2="859.5" y1="81" y2="81"/><ellipse cx="666.5" cy="94.6484" fill="#84BE84" rx="3" ry="3" style="stroke:#038048;stroke-width:1.0;"/><text fill="#000000" font-family="sans-serif" font-size="14" lengthAdjust="spacing" textLength="179" x="675.5" y="97.9951">error Complete(any, error)</text></g><!--class KafkaConsumerCompletionHandler--><g id="elem_KafkaConsumerCompletionHandler"><rect codeLine="5" fill="#F1F1F1" height="64.2969" id="KafkaConsumerCompletionHandler" rx="2.5" ry="2.5" style="stroke:#181818;stroke-width:0.5;" width="273" x="462.5" y="181.5"/><ellipse cx="477.5" cy="197.5" fill="#F1F1F1" rx="11" ry="11" style="stroke:#181818;stroke-width:1.0;"/><path d="M476.9844,198.0625 Q475.125,197.3594 474.4688,196.5938 Q473.8281,195.8125 473.8281,194.5 Q473.8281,192.8125 474.9063,191.8438 Q475.9844,190.875 477.8594,190.875 Q478.7188,190.875 479.5625,191.0781 Q480.4219,191.2656 481.2656,191.6563 L481.2656,194.0469 Q480.4844,193.4844 479.6563,193.2031 Q478.8438,192.9063 478.0469,192.9063 Q477.1719,192.9063 476.6875,193.2656 Q476.2188,193.625 476.2188,194.2813 Q476.2188,194.7969 476.5625,195.1406 Q476.9063,195.4688 478,195.875 L479.0625,196.2813 Q480.5469,196.8281 481.25,197.7344 Q481.9688,198.6406 481.9688,200.0156 Q481.9688,201.8906 480.8594,202.8125 Q479.75,203.7344 477.5,203.7344 Q476.5781,203.7344 475.6563,203.5156 Q474.7344,203.2969 473.875,202.875 L473.875,200.3438 Q474.8438,201.0313 475.7656,201.375 Q476.6875,201.7188 477.5781,201.7188 Q478.4844,201.7188 478.9844,201.3125 Q479.4844,200.8906 479.4844,200.1563 Q479.4844,199.5938 479.1406,199.1875 Q478.8125,198.7656 478.1875,198.5156 L476.9844,198.0625 Z " fill="#000000"/><text fill="#000000" font-family="sans-serif" font-size="14" lengthAdjust="spacing" textLength="241" x="491.5" y="202.3467">KafkaConsumerCompletionHandler</text><line style="stroke:#181818;stroke-width:0.5;" x1="463.5" x2="734.5" y1="213.5" y2="213.5"/><line style="stroke:#181818;stroke-width:0.5;" x1="463.5" x2="734.5" y1="221.5" y2="221.5"/><ellipse cx="473.5" cy="235.1484" fill="#84BE84" rx="3" ry="3" style="stroke:#038048;stroke-width:1.0;"/><text fill="#000000" font-family="sans-serif" font-size="14" lengthAdjust="spacing" textLength="179" x="482.5" y="238.4951">error Complete(any, error)</text></g><!--class AppData--><g id="elem_AppData"><rect codeLine="8" fill="#F1F1F1" height="96.8906" id="AppData" rx="2.5" ry="2.5" style="stroke:#181818;stroke-width:0.5;" width="292" x="771" y="165"/><ellipse cx="883.25" cy="181" fill="#F1F1F1" rx="11" ry="11" style="stroke:#181818;stroke-width:1.0;"/><path d="M882.7344,181.5625 Q880.875,180.8594 880.2188,180.0938 Q879.5781,179.3125 879.5781,178 Q879.5781,176.3125 880.6563,175.3438 Q881.7344,174.375 883.6094,174.375 Q884.4688,174.375 885.3125,174.5781 Q886.1719,174.7656 887.0156,175.1563 L887.0156,177.5469 Q886.2344,176.9844 885.4063,176.7031 Q884.5938,176.4063 883.7969,176.4063 Q882.9219,176.4063 882.4375,176.7656 Q881.9688,177.125 881.9688,177.7813 Q881.9688,178.2969 882.3125,178.6406 Q882.6563,178.9688 883.75,179.375 L884.8125,179.7813 Q886.2969,180.3281 887,181.2344 Q887.7188,182.1406 887.7188,183.5156 Q887.7188,185.3906 886.6094,186.3125 Q885.5,187.2344 883.25,187.2344 Q882.3281,187.2344 881.4063,187.0156 Q880.4844,186.7969 879.625,186.375 L879.625,183.8438 Q880.5938,184.5313 881.5156,184.875 Q882.4375,185.2188 883.3281,185.2188 Q884.2344,185.2188 884.7344,184.8125 Q885.2344,184.3906 885.2344,183.6563 Q885.2344,183.0938 884.8906,182.6875 Q884.5625,182.2656 883.9375,182.0156 L882.7344,181.5625 Z " fill="#000000"/><text fill="#000000" font-family="sans-serif" font-size="14" lengthAdjust="spacing" textLength="59" x="903.75" y="185.8467">AppData</text><line style="stroke:#181818;stroke-width:0.5;" x1="772" x2="1062" y1="197" y2="197"/><rect fill="none" height="6" style="stroke:#C82930;stroke-width:1.0;" width="6" x="779" y="207.6484"/><text fill="#000000" font-family="sans-serif" font-size="14" lengthAdjust="spacing" textLength="58" x="791" y="213.9951">any data</text><ellipse cx="782" cy="226.9453" fill="none" rx="3" ry="3" style="stroke:#038048;stroke-width:1.0;"/><text fill="#000000" font-family="sans-serif" font-size="14" lengthAdjust="spacing" textLength="266" x="791" y="230.292">CompletionHandler completionHandler</text><line style="stroke:#181818;stroke-width:0.5;" x1="772" x2="1062" y1="237.5938" y2="237.5938"/><ellipse cx="782" cy="251.2422" fill="#84BE84" rx="3" ry="3" style="stroke:#038048;stroke-width:1.0;"/><text fill="#000000" font-family="sans-serif" font-size="14" lengthAdjust="spacing" textLength="95" x="791" y="254.5889">any GetData()</text></g><!--class Receiver--><g id="elem_Receiver"><rect codeLine="13" fill="#F1F1F1" height="64.2969" id="Receiver" rx="2.5" ry="2.5" style="stroke:#181818;stroke-width:0.5;" width="187" x="823.5" y="322"/><ellipse cx="882.75" cy="338" fill="#B4A7E5" rx="11" ry="11" style="stroke:#181818;stroke-width:1.0;"/><path d="M878.6719,333.7656 L878.6719,331.6094 L886.0625,331.6094 L886.0625,333.7656 L883.5938,333.7656 L883.5938,341.8438 L886.0625,341.8438 L886.0625,344 L878.6719,344 L878.6719,341.8438 L881.1406,341.8438 L881.1406,333.7656 L878.6719,333.7656 Z " fill="#000000"/><text fill="#000000" font-family="sans-serif" font-size="14" font-style="italic" lengthAdjust="spacing" textLength="60" x="903.25" y="342.8467">Receiver</text><line style="stroke:#181818;stroke-width:0.5;" x1="824.5" x2="1009.5" y1="354" y2="354"/><line style="stroke:#181818;stroke-width:0.5;" x1="824.5" x2="1009.5" y1="362" y2="362"/><ellipse cx="834.5" cy="375.6484" fill="#84BE84" rx="3" ry="3" style="stroke:#038048;stroke-width:1.0;"/><text fill="#000000" font-family="sans-serif" font-size="14" lengthAdjust="spacing" textLength="161" x="843.5" y="378.9951">error Receive(AppData)</text></g><!--class ChanReceiver--><g id="elem_ChanReceiver"><rect codeLine="16" fill="#F1F1F1" height="80.5938" id="ChanReceiver" rx="2.5" ry="2.5" style="stroke:#181818;stroke-width:0.5;" width="193" x="1034.5" y="668"/><ellipse cx="1078.75" cy="684" fill="#F1F1F1" rx="11" ry="11" style="stroke:#181818;stroke-width:1.0;"/><path d="M1078.2344,684.5625 Q1076.375,683.8594 1075.7188,683.0938 Q1075.0781,682.3125 1075.0781,681 Q1075.0781,679.3125 1076.1563,678.3438 Q1077.2344,677.375 1079.1094,677.375 Q1079.9688,677.375 1080.8125,677.5781 Q1081.6719,677.7656 1082.5156,678.1563 L1082.5156,680.5469 Q1081.7344,679.9844 1080.9063,679.7031 Q1080.0938,679.4063 1079.2969,679.4063 Q1078.4219,679.4063 1077.9375,679.7656 Q1077.4688,680.125 1077.4688,680.7813 Q1077.4688,681.2969 1077.8125,681.6406 Q1078.1563,681.9688 1079.25,682.375 L1080.3125,682.7813 Q1081.7969,683.3281 1082.5,684.2344 Q1083.2188,685.1406 1083.2188,686.5156 Q1083.2188,688.3906 1082.1094,689.3125 Q1081,690.2344 1078.75,690.2344 Q1077.8281,690.2344 1076.9063,690.0156 Q1075.9844,689.7969 1075.125,689.375 L1075.125,686.8438 Q1076.0938,687.5313 1077.0156,687.875 Q1077.9375,688.2188 1078.8281,688.2188 Q1079.7344,688.2188 1080.2344,687.8125 Q1080.7344,687.3906 1080.7344,686.6563 Q1080.7344,686.0938 1080.3906,685.6875 Q1080.0625,685.2656 1079.4375,685.0156 L1078.2344,684.5625 Z " fill="#000000"/><text fill="#000000" font-family="sans-serif" font-size="14" lengthAdjust="spacing" textLength="96" x="1099.25" y="688.8467">ChanReceiver</text><line style="stroke:#181818;stroke-width:0.5;" x1="1035.5" x2="1226.5" y1="700" y2="700"/><rect fill="none" height="6" style="stroke:#C82930;stroke-width:1.0;" width="6" x="1042.5" y="710.6484"/><text fill="#000000" font-family="sans-serif" font-size="14" lengthAdjust="spacing" textLength="167" x="1054.5" y="716.9951">chan AppData dataChan</text><line style="stroke:#181818;stroke-width:0.5;" x1="1035.5" x2="1226.5" y1="724.2969" y2="724.2969"/><ellipse cx="1045.5" cy="737.9453" fill="#84BE84" rx="3" ry="3" style="stroke:#038048;stroke-width:1.0;"/><text fill="#000000" font-family="sans-serif" font-size="14" lengthAdjust="spacing" textLength="161" x="1054.5" y="741.292">error Receive(AppData)</text></g><!--class Server--><g id="elem_Server"><rect codeLine="20" fill="#F1F1F1" height="64.2969" id="Server" rx="2.5" ry="2.5" style="stroke:#181818;stroke-width:0.5;" width="112" x="415" y="487"/><ellipse cx="446.2" cy="503" fill="#B4A7E5" rx="11" ry="11" style="stroke:#181818;stroke-width:1.0;"/><path d="M442.1219,498.7656 L442.1219,496.6094 L449.5125,496.6094 L449.5125,498.7656 L447.0438,498.7656 L447.0438,506.8438 L449.5125,506.8438 L449.5125,509 L442.1219,509 L442.1219,506.8438 L444.5906,506.8438 L444.5906,498.7656 L442.1219,498.7656 Z " fill="#000000"/><text fill="#000000" font-family="sans-serif" font-size="14" font-style="italic" lengthAdjust="spacing" textLength="44" x="463.8" y="507.8467">Server</text><line style="stroke:#181818;stroke-width:0.5;" x1="416" x2="526" y1="519" y2="519"/><line style="stroke:#181818;stroke-width:0.5;" x1="416" x2="526" y1="527" y2="527"/><ellipse cx="426" cy="540.6484" fill="#84BE84" rx="3" ry="3" style="stroke:#038048;stroke-width:1.0;"/><text fill="#000000" font-family="sans-serif" font-size="14" lengthAdjust="spacing" textLength="86" x="435" y="543.9951">error Serve()</text></g><!--class Pullable--><g id="elem_Pullable"><rect codeLine="23" fill="#F1F1F1" height="64.2969" id="Pullable" rx="2.5" ry="2.5" style="stroke:#181818;stroke-width:0.5;" width="227" x="562.5" y="487"/><ellipse cx="645.25" cy="503" fill="#B4A7E5" rx="11" ry="11" style="stroke:#181818;stroke-width:1.0;"/><path d="M641.1719,498.7656 L641.1719,496.6094 L648.5625,496.6094 L648.5625,498.7656 L646.0938,498.7656 L646.0938,506.8438 L648.5625,506.8438 L648.5625,509 L641.1719,509 L641.1719,506.8438 L643.6406,506.8438 L643.6406,498.7656 L641.1719,498.7656 Z " fill="#000000"/><text fill="#000000" font-family="sans-serif" font-size="14" font-style="italic" lengthAdjust="spacing" textLength="53" x="665.75" y="507.8467">Pullable</text><line style="stroke:#181818;stroke-width:0.5;" x1="563.5" x2="788.5" y1="519" y2="519"/><line style="stroke:#181818;stroke-width:0.5;" x1="563.5" x2="788.5" y1="527" y2="527"/><ellipse cx="573.5" cy="540.6484" fill="#84BE84" rx="3" ry="3" style="stroke:#038048;stroke-width:1.0;"/><text fill="#000000" font-family="sans-serif" font-size="14" lengthAdjust="spacing" textLength="201" x="582.5" y="543.9951">error AddReceiver(*Receiver)</text></g><!--class Pushable--><g id="elem_Pushable"><rect codeLine="26" fill="#F1F1F1" height="64.2969" id="Pushable" rx="2.5" ry="2.5" style="stroke:#181818;stroke-width:0.5;" width="185" x="824.5" y="487"/><ellipse cx="880.75" cy="503" fill="#B4A7E5" rx="11" ry="11" style="stroke:#181818;stroke-width:1.0;"/><path d="M876.6719,498.7656 L876.6719,496.6094 L884.0625,496.6094 L884.0625,498.7656 L881.5938,498.7656 L881.5938,506.8438 L884.0625,506.8438 L884.0625,509 L876.6719,509 L876.6719,506.8438 L879.1406,506.8438 L879.1406,498.7656 L876.6719,498.7656 Z " fill="#000000"/><text fill="#000000" font-family="sans-serif" font-size="14" font-style="italic" lengthAdjust="spacing" textLength="64" x="901.25" y="507.8467">Pushable</text><line style="stroke:#181818;stroke-width:0.5;" x1="825.5" x2="1008.5" y1="519" y2="519"/><line style="stroke:#181818;stroke-width:0.5;" x1="825.5" x2="1008.5" y1="527" y2="527"/><ellipse cx="835.5" cy="540.6484" fill="#84BE84" rx="3" ry="3" style="stroke:#038048;stroke-width:1.0;"/><text fill="#000000" font-family="sans-serif" font-size="14" lengthAdjust="spacing" textLength="159" x="844.5" y="543.9951">Receiver GetReceiver()</text></g><!--class SourceServer--><g id="elem_SourceServer"><rect codeLine="29" fill="#F1F1F1" height="80.5938" id="SourceServer" rx="2.5" ry="2.5" style="stroke:#181818;stroke-width:0.5;" width="220" x="303" y="668"/><ellipse cx="362.25" cy="684" fill="#B4A7E5" rx="11" ry="11" style="stroke:#181818;stroke-width:1.0;"/><path d="M358.1719,679.7656 L358.1719,677.6094 L365.5625,677.6094 L365.5625,679.7656 L363.0938,679.7656 L363.0938,687.8438 L365.5625,687.8438 L365.5625,690 L358.1719,690 L358.1719,687.8438 L360.6406,687.8438 L360.6406,679.7656 L358.1719,679.7656 Z " fill="#000000"/><text fill="#000000" font-family="sans-serif" font-size="14" font-style="italic" lengthAdjust="spacing" textLength="93" x="382.75" y="688.8467">SourceServer</text><line style="stroke:#181818;stroke-width:0.5;" x1="304" x2="522" y1="700" y2="700"/><line style="stroke:#181818;stroke-width:0.5;" x1="304" x2="522" y1="708" y2="708"/><ellipse cx="314" cy="721.6484" fill="#84BE84" rx="3" ry="3" style="stroke:#038048;stroke-width:1.0;"/><text fill="#000000" font-family="sans-serif" font-size="14" lengthAdjust="spacing" textLength="194" x="323" y="724.9951">error AddReceiver(Receiver)</text><ellipse cx="314" cy="737.9453" fill="#84BE84" rx="3" ry="3" style="stroke:#038048;stroke-width:1.0;"/><text fill="#000000" font-family="sans-serif" font-size="14" lengthAdjust="spacing" textLength="86" x="323" y="741.292">error Serve()</text></g><!--class SinkServer--><g id="elem_SinkServer"><rect codeLine="33" fill="#F1F1F1" height="80.5938" id="SinkServer" rx="2.5" ry="2.5" style="stroke:#181818;stroke-width:0.5;" width="185" x="558.5" y="668"/><ellipse cx="610.25" cy="684" fill="#B4A7E5" rx="11" ry="11" style="stroke:#181818;stroke-width:1.0;"/><path d="M606.1719,679.7656 L606.1719,677.6094 L613.5625,677.6094 L613.5625,679.7656 L611.0938,679.7656 L611.0938,687.8438 L613.5625,687.8438 L613.5625,690 L606.1719,690 L606.1719,687.8438 L608.6406,687.8438 L608.6406,679.7656 L606.1719,679.7656 Z " fill="#000000"/><text fill="#000000" font-family="sans-serif" font-size="14" font-style="italic" lengthAdjust="spacing" textLength="73" x="630.75" y="688.8467">SinkServer</text><line style="stroke:#181818;stroke-width:0.5;" x1="559.5" x2="742.5" y1="700" y2="700"/><line style="stroke:#181818;stroke-width:0.5;" x1="559.5" x2="742.5" y1="708" y2="708"/><ellipse cx="569.5" cy="721.6484" fill="#84BE84" rx="3" ry="3" style="stroke:#038048;stroke-width:1.0;"/><text fill="#000000" font-family="sans-serif" font-size="14" lengthAdjust="spacing" textLength="159" x="578.5" y="724.9951">Receiver GetReceiver()</text><ellipse cx="569.5" cy="737.9453" fill="#84BE84" rx="3" ry="3" style="stroke:#038048;stroke-width:1.0;"/><text fill="#000000" font-family="sans-serif" font-size="14" lengthAdjust="spacing" textLength="86" x="578.5" y="741.292">error Serve()</text></g><!--class PipeServer--><g id="elem_PipeServer"><rect codeLine="37" fill="#F1F1F1" height="96.8906" id="PipeServer" rx="2.5" ry="2.5" style="stroke:#181818;stroke-width:0.5;" width="220" x="779" y="660"/><ellipse cx="847.75" cy="676" fill="#B4A7E5" rx="11" ry="11" style="stroke:#181818;stroke-width:1.0;"/><path d="M843.6719,671.7656 L843.6719,669.6094 L851.0625,669.6094 L851.0625,671.7656 L848.5938,671.7656 L848.5938,679.8438 L851.0625,679.8438 L851.0625,682 L843.6719,682 L843.6719,679.8438 L846.1406,679.8438 L846.1406,671.7656 L843.6719,671.7656 Z " fill="#000000"/><text fill="#000000" font-family="sans-serif" font-size="14" font-style="italic" lengthAdjust="spacing" textLength="74" x="868.25" y="680.8467">PipeServer</text><line style="stroke:#181818;stroke-width:0.5;" x1="780" x2="998" y1="692" y2="692"/><line style="stroke:#181818;stroke-width:0.5;" x1="780" x2="998" y1="700" y2="700"/><ellipse cx="790" cy="713.6484" fill="#84BE84" rx="3" ry="3" style="stroke:#038048;stroke-width:1.0;"/><text fill="#000000" font-family="sans-serif" font-size="14" lengthAdjust="spacing" textLength="194" x="799" y="716.9951">error AddReceiver(Receiver)</text><ellipse cx="790" cy="729.9453" fill="#84BE84" rx="3" ry="3" style="stroke:#038048;stroke-width:1.0;"/><text fill="#000000" font-family="sans-serif" font-size="14" lengthAdjust="spacing" textLength="159" x="799" y="733.292">Receiver GetReceiver()</text><ellipse cx="790" cy="746.2422" fill="#84BE84" rx="3" ry="3" style="stroke:#038048;stroke-width:1.0;"/><text fill="#000000" font-family="sans-serif" font-size="14" lengthAdjust="spacing" textLength="86" x="799" y="749.5889">error Serve()</text></g><!--class ProducerResponse--><g id="elem_ProducerResponse"><rect codeLine="42" fill="#F1F1F1" height="80.5938" id="ProducerResponse" rx="2.5" ry="2.5" style="stroke:#181818;stroke-width:0.5;" width="166" x="62" y="478.5"/><ellipse cx="77" cy="494.5" fill="#F1F1F1" rx="11" ry="11" style="stroke:#181818;stroke-width:1.0;"/><path d="M76.4844,495.0625 Q74.625,494.3594 73.9688,493.5938 Q73.3281,492.8125 73.3281,491.5 Q73.3281,489.8125 74.4063,488.8438 Q75.4844,487.875 77.3594,487.875 Q78.2188,487.875 79.0625,488.0781 Q79.9219,488.2656 80.7656,488.6563 L80.7656,491.0469 Q79.9844,490.4844 79.1563,490.2031 Q78.3438,489.9063 77.5469,489.9063 Q76.6719,489.9063 76.1875,490.2656 Q75.7188,490.625 75.7188,491.2813 Q75.7188,491.7969 76.0625,492.1406 Q76.4063,492.4688 77.5,492.875 L78.5625,493.2813 Q80.0469,493.8281 80.75,494.7344 Q81.4688,495.6406 81.4688,497.0156 Q81.4688,498.8906 80.3594,499.8125 Q79.25,500.7344 77,500.7344 Q76.0781,500.7344 75.1563,500.5156 Q74.2344,500.2969 73.375,499.875 L73.375,497.3438 Q74.3438,498.0313 75.2656,498.375 Q76.1875,498.7188 77.0781,498.7188 Q77.9844,498.7188 78.4844,498.3125 Q78.9844,497.8906 78.9844,497.1563 Q78.9844,496.5938 78.6406,496.1875 Q78.3125,495.7656 77.6875,495.5156 L76.4844,495.0625 Z " fill="#000000"/><text fill="#000000" font-family="sans-serif" font-size="14" lengthAdjust="spacing" textLength="134" x="91" y="499.3467">ProducerResponse</text><line style="stroke:#181818;stroke-width:0.5;" x1="63" x2="227" y1="510.5" y2="510.5"/><rect fill="none" height="6" style="stroke:#C82930;stroke-width:1.0;" width="6" x="70" y="521.1484"/><text fill="#000000" font-family="sans-serif" font-size="14" lengthAdjust="spacing" textLength="70" x="82" y="527.4951">error error</text><line style="stroke:#181818;stroke-width:0.5;" x1="63" x2="227" y1="534.7969" y2="534.7969"/><ellipse cx="73" cy="548.4453" fill="#84BE84" rx="3" ry="3" style="stroke:#038048;stroke-width:1.0;"/><text fill="#000000" font-family="sans-serif" font-size="14" lengthAdjust="spacing" textLength="105" x="82" y="551.792">error GetError()</text></g><!--class Producer--><g id="elem_Producer"><rect codeLine="46" fill="#F1F1F1" height="113.1875" id="Producer" rx="2.5" ry="2.5" style="stroke:#181818;stroke-width:0.5;" width="246" x="22" y="652"/><ellipse cx="109.25" cy="668" fill="#B4A7E5" rx="11" ry="11" style="stroke:#181818;stroke-width:1.0;"/><path d="M105.1719,663.7656 L105.1719,661.6094 L112.5625,661.6094 L112.5625,663.7656 L110.0938,663.7656 L110.0938,671.8438 L112.5625,671.8438 L112.5625,674 L105.1719,674 L105.1719,671.8438 L107.6406,671.8438 L107.6406,663.7656 L105.1719,663.7656 Z " fill="#000000"/><text fill="#000000" font-family="sans-serif" font-size="14" font-style="italic" lengthAdjust="spacing" textLength="63" x="129.75" y="672.8467">Producer</text><line style="stroke:#181818;stroke-width:0.5;" x1="23" x2="267" y1="684" y2="684"/><line style="stroke:#181818;stroke-width:0.5;" x1="23" x2="267" y1="692" y2="692"/><ellipse cx="33" cy="705.6484" fill="#84BE84" rx="3" ry="3" style="stroke:#038048;stroke-width:1.0;"/><text fill="#000000" font-family="sans-serif" font-size="14" lengthAdjust="spacing" textLength="220" x="42" y="708.9951">ProducerInstance GetInstance()</text><ellipse cx="33" cy="721.9453" fill="#84BE84" rx="3" ry="3" style="stroke:#038048;stroke-width:1.0;"/><text fill="#000000" font-family="sans-serif" font-size="14" lengthAdjust="spacing" textLength="195" x="42" y="725.292">error Setup(ProducerConfig)</text><ellipse cx="33" cy="738.2422" fill="#84BE84" rx="3" ry="3" style="stroke:#038048;stroke-width:1.0;"/><text fill="#000000" font-family="sans-serif" font-size="14" lengthAdjust="spacing" textLength="79" x="42" y="741.5889">error Start()</text><ellipse cx="33" cy="754.5391" fill="#84BE84" rx="3" ry="3" style="stroke:#038048;stroke-width:1.0;"/><text fill="#000000" font-family="sans-serif" font-size="14" lengthAdjust="spacing" textLength="208" x="42" y="757.8857">ProducerResponse Send(any)</text></g><!--class Consumer--><g id="elem_Consumer"><rect codeLine="52" fill="#F1F1F1" height="96.8906" id="Consumer" rx="2.5" ry="2.5" style="stroke:#181818;stroke-width:0.5;" width="230" x="382" y="833"/><ellipse cx="456.75" cy="849" fill="#B4A7E5" rx="11" ry="11" style="stroke:#181818;stroke-width:1.0;"/><path d="M452.6719,844.7656 L452.6719,842.6094 L460.0625,842.6094 L460.0625,844.7656 L457.5938,844.7656 L457.5938,852.8438 L460.0625,852.8438 L460.0625,855 L452.6719,855 L452.6719,852.8438 L455.1406,852.8438 L455.1406,844.7656 L452.6719,844.7656 Z " fill="#000000"/><text fill="#000000" font-family="sans-serif" font-size="14" font-style="italic" lengthAdjust="spacing" textLength="72" x="477.25" y="853.8467">Consumer</text><line style="stroke:#181818;stroke-width:0.5;" x1="383" x2="611" y1="865" y2="865"/><line style="stroke:#181818;stroke-width:0.5;" x1="383" x2="611" y1="873" y2="873"/><ellipse cx="393" cy="886.6484" fill="#84BE84" rx="3" ry="3" style="stroke:#038048;stroke-width:1.0;"/><text fill="#000000" font-family="sans-serif" font-size="14" lengthAdjust="spacing" textLength="194" x="402" y="889.9951">error AddReceiver(Receiver)</text><ellipse cx="393" cy="902.9453" fill="#84BE84" rx="3" ry="3" style="stroke:#038048;stroke-width:1.0;"/><text fill="#000000" font-family="sans-serif" font-size="14" lengthAdjust="spacing" textLength="204" x="402" y="906.292">error Setup(ConsumerConfig)</text><ellipse cx="393" cy="919.2422" fill="#84BE84" rx="3" ry="3" style="stroke:#038048;stroke-width:1.0;"/><text fill="#000000" font-family="sans-serif" font-size="14" lengthAdjust="spacing" textLength="86" x="402" y="922.5889">error Serve()</text></g><!--class KafkaConsumer--><g id="elem_KafkaConsumer"><rect codeLine="57" fill="#F1F1F1" height="96.8906" id="KafkaConsumer" rx="2.5" ry="2.5" style="stroke:#181818;stroke-width:0.5;" width="258" x="576" y="998"/><ellipse cx="646.25" cy="1014" fill="#F1F1F1" rx="11" ry="11" style="stroke:#181818;stroke-width:1.0;"/><path d="M645.7344,1014.5625 Q643.875,1013.8594 643.2188,1013.0938 Q642.5781,1012.3125 642.5781,1011 Q642.5781,1009.3125 643.6563,1008.3438 Q644.7344,1007.375 646.6094,1007.375 Q647.4688,1007.375 648.3125,1007.5781 Q649.1719,1007.7656 650.0156,1008.1563 L650.0156,1010.5469 Q649.2344,1009.9844 648.4063,1009.7031 Q647.5938,1009.4063 646.7969,1009.4063 Q645.9219,1009.4063 645.4375,1009.7656 Q644.9688,1010.125 644.9688,1010.7813 Q644.9688,1011.2969 645.3125,1011.6406 Q645.6563,1011.9688 646.75,1012.375 L647.8125,1012.7813 Q649.2969,1013.3281 650,1014.2344 Q650.7188,1015.1406 650.7188,1016.5156 Q650.7188,1018.3906 649.6094,1019.3125 Q648.5,1020.2344 646.25,1020.2344 Q645.3281,1020.2344 644.4063,1020.0156 Q643.4844,1019.7969 642.625,1019.375 L642.625,1016.8438 Q643.5938,1017.5313 644.5156,1017.875 Q645.4375,1018.2188 646.3281,1018.2188 Q647.2344,1018.2188 647.7344,1017.8125 Q648.2344,1017.3906 648.2344,1016.6563 Q648.2344,1016.0938 647.8906,1015.6875 Q647.5625,1015.2656 646.9375,1015.0156 L645.7344,1014.5625 Z " fill="#000000"/><text fill="#000000" font-family="sans-serif" font-size="14" lengthAdjust="spacing" textLength="109" x="666.75" y="1018.8467">KafkaConsumer</text><line style="stroke:#181818;stroke-width:0.5;" x1="577" x2="833" y1="1030" y2="1030"/><line style="stroke:#181818;stroke-width:0.5;" x1="577" x2="833" y1="1038" y2="1038"/><ellipse cx="587" cy="1051.6484" fill="#84BE84" rx="3" ry="3" style="stroke:#038048;stroke-width:1.0;"/><text fill="#000000" font-family="sans-serif" font-size="14" lengthAdjust="spacing" textLength="194" x="596" y="1054.9951">error AddReceiver(Receiver)</text><ellipse cx="587" cy="1067.9453" fill="#84BE84" rx="3" ry="3" style="stroke:#038048;stroke-width:1.0;"/><text fill="#000000" font-family="sans-serif" font-size="14" lengthAdjust="spacing" textLength="232" x="596" y="1071.292">error Setup(KafkaConsumerCofig)</text><ellipse cx="587" cy="1084.2422" fill="#84BE84" rx="3" ry="3" style="stroke:#038048;stroke-width:1.0;"/><text fill="#000000" font-family="sans-serif" font-size="14" lengthAdjust="spacing" textLength="86" x="596" y="1087.5889">error Serve()</text></g><!--class KafkaProducer--><g id="elem_KafkaProducer"><rect codeLine="62" fill="#F1F1F1" height="96.8906" id="KafkaProducer" rx="2.5" ry="2.5" style="stroke:#181818;stroke-width:0.5;" width="258" x="22" y="833"/><ellipse cx="96.75" cy="849" fill="#F1F1F1" rx="11" ry="11" style="stroke:#181818;stroke-width:1.0;"/><path d="M96.2344,849.5625 Q94.375,848.8594 93.7188,848.0938 Q93.0781,847.3125 93.0781,846 Q93.0781,844.3125 94.1563,843.3438 Q95.2344,842.375 97.1094,842.375 Q97.9688,842.375 98.8125,842.5781 Q99.6719,842.7656 100.5156,843.1563 L100.5156,845.5469 Q99.7344,844.9844 98.9063,844.7031 Q98.0938,844.4063 97.2969,844.4063 Q96.4219,844.4063 95.9375,844.7656 Q95.4688,845.125 95.4688,845.7813 Q95.4688,846.2969 95.8125,846.6406 Q96.1563,846.9688 97.25,847.375 L98.3125,847.7813 Q99.7969,848.3281 100.5,849.2344 Q101.2188,850.1406 101.2188,851.5156 Q101.2188,853.3906 100.1094,854.3125 Q99,855.2344 96.75,855.2344 Q95.8281,855.2344 94.9063,855.0156 Q93.9844,854.7969 93.125,854.375 L93.125,851.8438 Q94.0938,852.5313 95.0156,852.875 Q95.9375,853.2188 96.8281,853.2188 Q97.7344,853.2188 98.2344,852.8125 Q98.7344,852.3906 98.7344,851.6563 Q98.7344,851.0938 98.3906,850.6875 Q98.0625,850.2656 97.4375,850.0156 L96.2344,849.5625 Z " fill="#000000"/><text fill="#000000" font-family="sans-serif" font-size="14" lengthAdjust="spacing" textLength="100" x="117.25" y="853.8467">KafkaProducer</text><line style="stroke:#181818;stroke-width:0.5;" x1="23" x2="279" y1="865" y2="865"/><line style="stroke:#181818;stroke-width:0.5;" x1="23" x2="279" y1="873" y2="873"/><ellipse cx="33" cy="886.6484" fill="#84BE84" rx="3" ry="3" style="stroke:#038048;stroke-width:1.0;"/><text fill="#000000" font-family="sans-serif" font-size="14" lengthAdjust="spacing" textLength="232" x="42" y="889.9951">error Setup(KafkaProducerConfig)</text><ellipse cx="33" cy="902.9453" fill="#84BE84" rx="3" ry="3" style="stroke:#038048;stroke-width:1.0;"/><text fill="#000000" font-family="sans-serif" font-size="14" lengthAdjust="spacing" textLength="79" x="42" y="906.292">error Start()</text><ellipse cx="33" cy="919.2422" fill="#84BE84" rx="3" ry="3" style="stroke:#038048;stroke-width:1.0;"/><text fill="#000000" font-family="sans-serif" font-size="14" lengthAdjust="spacing" textLength="208" x="42" y="922.5889">ProducerResponse Send(any)</text></g><!--class ProducerServer--><g id="elem_ProducerServer"><rect codeLine="67" fill="#F1F1F1" height="113.1875" id="ProducerServer" rx="2.5" ry="2.5" style="stroke:#181818;stroke-width:0.5;" width="264" x="647" y="825"/><ellipse cx="721.25" cy="841" fill="#F1F1F1" rx="11" ry="11" style="stroke:#181818;stroke-width:1.0;"/><path d="M720.7344,841.5625 Q718.875,840.8594 718.2188,840.0938 Q717.5781,839.3125 717.5781,838 Q717.5781,836.3125 718.6563,835.3438 Q719.7344,834.375 721.6094,834.375 Q722.4688,834.375 723.3125,834.5781 Q724.1719,834.7656 725.0156,835.1563 L725.0156,837.5469 Q724.2344,836.9844 723.4063,836.7031 Q722.5938,836.4063 721.7969,836.4063 Q720.9219,836.4063 720.4375,836.7656 Q719.9688,837.125 719.9688,837.7813 Q719.9688,838.2969 720.3125,838.6406 Q720.6563,838.9688 721.75,839.375 L722.8125,839.7813 Q724.2969,840.3281 725,841.2344 Q725.7188,842.1406 725.7188,843.5156 Q725.7188,845.3906 724.6094,846.3125 Q723.5,847.2344 721.25,847.2344 Q720.3281,847.2344 719.4063,847.0156 Q718.4844,846.7969 717.625,846.375 L717.625,843.8438 Q718.5938,844.5313 719.5156,844.875 Q720.4375,845.2188 721.3281,845.2188 Q722.2344,845.2188 722.7344,844.8125 Q723.2344,844.3906 723.2344,843.6563 Q723.2344,843.0938 722.8906,842.6875 Q722.5625,842.2656 721.9375,842.0156 L720.7344,841.5625 Z " fill="#000000"/><text fill="#000000" font-family="sans-serif" font-size="14" lengthAdjust="spacing" textLength="107" x="741.75" y="845.8467">ProducerServer</text><line style="stroke:#181818;stroke-width:0.5;" x1="648" x2="910" y1="857" y2="857"/><rect fill="none" height="6" style="stroke:#C82930;stroke-width:1.0;" width="6" x="655" y="867.6484"/><text fill="#000000" font-family="sans-serif" font-size="14" lengthAdjust="spacing" textLength="238" x="667" y="873.9951">map[string]Producer producerMap</text><rect fill="none" height="6" style="stroke:#C82930;stroke-width:1.0;" width="6" x="655" y="883.9453"/><text fill="#000000" font-family="sans-serif" font-size="14" lengthAdjust="spacing" textLength="155" x="667" y="890.292">ChanReceiver receiver</text><line style="stroke:#181818;stroke-width:0.5;" x1="648" x2="910" y1="897.5938" y2="897.5938"/><ellipse cx="658" cy="911.2422" fill="#84BE84" rx="3" ry="3" style="stroke:#038048;stroke-width:1.0;"/><text fill="#000000" font-family="sans-serif" font-size="14" lengthAdjust="spacing" textLength="159" x="667" y="914.5889">Receiver GetReceiver()</text><ellipse cx="658" cy="927.5391" fill="#84BE84" rx="3" ry="3" style="stroke:#038048;stroke-width:1.0;"/><text fill="#000000" font-family="sans-serif" font-size="14" lengthAdjust="spacing" textLength="86" x="667" y="930.8857">error Serve()</text></g><!--class ConsumerServer--><g id="elem_ConsumerServer"><rect codeLine="73" fill="#F1F1F1" height="96.8906" id="ConsumerServer" rx="2.5" ry="2.5" style="stroke:#181818;stroke-width:0.5;" width="288" x="253" y="998"/><ellipse cx="334.75" cy="1014" fill="#F1F1F1" rx="11" ry="11" style="stroke:#181818;stroke-width:1.0;"/><path d="M334.2344,1014.5625 Q332.375,1013.8594 331.7188,1013.0938 Q331.0781,1012.3125 331.0781,1011 Q331.0781,1009.3125 332.1563,1008.3438 Q333.2344,1007.375 335.1094,1007.375 Q335.9688,1007.375 336.8125,1007.5781 Q337.6719,1007.7656 338.5156,1008.1563 L338.5156,1010.5469 Q337.7344,1009.9844 336.9063,1009.7031 Q336.0938,1009.4063 335.2969,1009.4063 Q334.4219,1009.4063 333.9375,1009.7656 Q333.4688,1010.125 333.4688,1010.7813 Q333.4688,1011.2969 333.8125,1011.6406 Q334.1563,1011.9688 335.25,1012.375 L336.3125,1012.7813 Q337.7969,1013.3281 338.5,1014.2344 Q339.2188,1015.1406 339.2188,1016.5156 Q339.2188,1018.3906 338.1094,1019.3125 Q337,1020.2344 334.75,1020.2344 Q333.8281,1020.2344 332.9063,1020.0156 Q331.9844,1019.7969 331.125,1019.375 L331.125,1016.8438 Q332.0938,1017.5313 333.0156,1017.875 Q333.9375,1018.2188 334.8281,1018.2188 Q335.7344,1018.2188 336.2344,1017.8125 Q336.7344,1017.3906 336.7344,1016.6563 Q336.7344,1016.0938 336.3906,1015.6875 Q336.0625,1015.2656 335.4375,1015.0156 L334.2344,1014.5625 Z " fill="#000000"/><text fill="#000000" font-family="sans-serif" font-size="14" lengthAdjust="spacing" textLength="116" x="355.25" y="1018.8467">ConsumerServer</text><line style="stroke:#181818;stroke-width:0.5;" x1="254" x2="540" y1="1030" y2="1030"/><rect fill="none" height="6" style="stroke:#C82930;stroke-width:1.0;" width="6" x="261" y="1040.6484"/><text fill="#000000" font-family="sans-serif" font-size="14" lengthAdjust="spacing" textLength="262" x="273" y="1046.9951">map[string]Consumer consumersMap</text><line style="stroke:#181818;stroke-width:0.5;" x1="254" x2="540" y1="1054.2969" y2="1054.2969"/><ellipse cx="264" cy="1067.9453" fill="#84BE84" rx="3" ry="3" style="stroke:#038048;stroke-width:1.0;"/><text fill="#000000" font-family="sans-serif" font-size="14" lengthAdjust="spacing" textLength="194" x="273" y="1071.292">error AddReceiver(Receiver)</text><ellipse cx="264" cy="1084.2422" fill="#84BE84" rx="3" ry="3" style="stroke:#038048;stroke-width:1.0;"/><text fill="#000000" font-family="sans-serif" font-size="14" lengthAdjust="spacing" textLength="86" x="273" y="1087.5889">error Serve()</text></g><!--class KafkaConsumerCofig--><g id="elem_KafkaConsumerCofig"><rect codeLine="78" fill="#F1F1F1" height="48" id="KafkaConsumerCofig" rx="2.5" ry="2.5" style="stroke:#181818;stroke-width:0.5;" width="176" x="617" y="1155"/><ellipse cx="632" cy="1171" fill="#F1F1F1" rx="11" ry="11" style="stroke:#181818;stroke-width:1.0;"/><path d="M631.4844,1171.5625 Q629.625,1170.8594 628.9688,1170.0938 Q628.3281,1169.3125 628.3281,1168 Q628.3281,1166.3125 629.4063,1165.3438 Q630.4844,1164.375 632.3594,1164.375 Q633.2188,1164.375 634.0625,1164.5781 Q634.9219,1164.7656 635.7656,1165.1563 L635.7656,1167.5469 Q634.9844,1166.9844 634.1563,1166.7031 Q633.3438,1166.4063 632.5469,1166.4063 Q631.6719,1166.4063 631.1875,1166.7656 Q630.7188,1167.125 630.7188,1167.7813 Q630.7188,1168.2969 631.0625,1168.6406 Q631.4063,1168.9688 632.5,1169.375 L633.5625,1169.7813 Q635.0469,1170.3281 635.75,1171.2344 Q636.4688,1172.1406 636.4688,1173.5156 Q636.4688,1175.3906 635.3594,1176.3125 Q634.25,1177.2344 632,1177.2344 Q631.0781,1177.2344 630.1563,1177.0156 Q629.2344,1176.7969 628.375,1176.375 L628.375,1173.8438 Q629.3438,1174.5313 630.2656,1174.875 Q631.1875,1175.2188 632.0781,1175.2188 Q632.9844,1175.2188 633.4844,1174.8125 Q633.9844,1174.3906 633.9844,1173.6563 Q633.9844,1173.0938 633.6406,1172.6875 Q633.3125,1172.2656 632.6875,1172.0156 L631.4844,1171.5625 Z " fill="#000000"/><text fill="#000000" font-family="sans-serif" font-size="14" lengthAdjust="spacing" textLength="144" x="646" y="1175.8467">KafkaConsumerCofig</text><line style="stroke:#181818;stroke-width:0.5;" x1="618" x2="792" y1="1187" y2="1187"/><line style="stroke:#181818;stroke-width:0.5;" x1="618" x2="792" y1="1195" y2="1195"/></g><!--class KafkaProducerConfig--><g id="elem_KafkaProducerConfig"><rect codeLine="79" fill="#F1F1F1" height="48" id="KafkaProducerConfig" rx="2.5" ry="2.5" style="stroke:#181818;stroke-width:0.5;" width="176" x="42" y="1022.5"/><ellipse cx="57" cy="1038.5" fill="#F1F1F1" rx="11" ry="11" style="stroke:#181818;stroke-width:1.0;"/><path d="M56.4844,1039.0625 Q54.625,1038.3594 53.9688,1037.5938 Q53.3281,1036.8125 53.3281,1035.5 Q53.3281,1033.8125 54.4063,1032.8438 Q55.4844,1031.875 57.3594,1031.875 Q58.2188,1031.875 59.0625,1032.0781 Q59.9219,1032.2656 60.7656,1032.6563 L60.7656,1035.0469 Q59.9844,1034.4844 59.1563,1034.2031 Q58.3438,1033.9063 57.5469,1033.9063 Q56.6719,1033.9063 56.1875,1034.2656 Q55.7188,1034.625 55.7188,1035.2813 Q55.7188,1035.7969 56.0625,1036.1406 Q56.4063,1036.4688 57.5,1036.875 L58.5625,1037.2813 Q60.0469,1037.8281 60.75,1038.7344 Q61.4688,1039.6406 61.4688,1041.0156 Q61.4688,1042.8906 60.3594,1043.8125 Q59.25,1044.7344 57,1044.7344 Q56.0781,1044.7344 55.1563,1044.5156 Q54.2344,1044.2969 53.375,1043.875 L53.375,1041.3438 Q54.3438,1042.0313 55.2656,1042.375 Q56.1875,1042.7188 57.0781,1042.7188 Q57.9844,1042.7188 58.4844,1042.3125 Q58.9844,1041.8906 58.9844,1041.1563 Q58.9844,1040.5938 58.6406,1040.1875 Q58.3125,1039.7656 57.6875,1039.5156 L56.4844,1039.0625 Z " fill="#000000"/><text fill="#000000" font-family="sans-serif" font-size="14" lengthAdjust="spacing" textLength="144" x="71" y="1043.3467">KafkaProducerConfig</text><line style="stroke:#181818;stroke-width:0.5;" x1="43" x2="217" y1="1054.5" y2="1054.5"/><line style="stroke:#181818;stroke-width:0.5;" x1="43" x2="217" y1="1062.5" y2="1062.5"/></g><!--class ProducerConfig--><g id="elem_ProducerConfig"><rect codeLine="80" fill="#F1F1F1" height="48" id="ProducerConfig" rx="2.5" ry="2.5" style="stroke:#181818;stroke-width:0.5;" width="139" x="60.5" y="1155"/><ellipse cx="75.5" cy="1171" fill="#F1F1F1" rx="11" ry="11" style="stroke:#181818;stroke-width:1.0;"/><path d="M74.9844,1171.5625 Q73.125,1170.8594 72.4688,1170.0938 Q71.8281,1169.3125 71.8281,1168 Q71.8281,1166.3125 72.9063,1165.3438 Q73.9844,1164.375 75.8594,1164.375 Q76.7188,1164.375 77.5625,1164.5781 Q78.4219,1164.7656 79.2656,1165.1563 L79.2656,1167.5469 Q78.4844,1166.9844 77.6563,1166.7031 Q76.8438,1166.4063 76.0469,1166.4063 Q75.1719,1166.4063 74.6875,1166.7656 Q74.2188,1167.125 74.2188,1167.7813 Q74.2188,1168.2969 74.5625,1168.6406 Q74.9063,1168.9688 76,1169.375 L77.0625,1169.7813 Q78.5469,1170.3281 79.25,1171.2344 Q79.9688,1172.1406 79.9688,1173.5156 Q79.9688,1175.3906 78.8594,1176.3125 Q77.75,1177.2344 75.5,1177.2344 Q74.5781,1177.2344 73.6563,1177.0156 Q72.7344,1176.7969 71.875,1176.375 L71.875,1173.8438 Q72.8438,1174.5313 73.7656,1174.875 Q74.6875,1175.2188 75.5781,1175.2188 Q76.4844,1175.2188 76.9844,1174.8125 Q77.4844,1174.3906 77.4844,1173.6563 Q77.4844,1173.0938 77.1406,1172.6875 Q76.8125,1172.2656 76.1875,1172.0156 L74.9844,1171.5625 Z " fill="#000000"/><text fill="#000000" font-family="sans-serif" font-size="14" lengthAdjust="spacing" textLength="107" x="89.5" y="1175.8467">ProducerConfig</text><line style="stroke:#181818;stroke-width:0.5;" x1="61.5" x2="198.5" y1="1187" y2="1187"/><line style="stroke:#181818;stroke-width:0.5;" x1="61.5" x2="198.5" y1="1195" y2="1195"/></g><!--class ConsumerConfig--><g id="elem_ConsumerConfig"><rect codeLine="81" fill="#F1F1F1" height="48" id="ConsumerConfig" rx="2.5" ry="2.5" style="stroke:#181818;stroke-width:0.5;" width="148" x="631" y="1263"/><ellipse cx="646" cy="1279" fill="#F1F1F1" rx="11" ry="11" style="stroke:#181818;stroke-width:1.0;"/><path d="M645.4844,1279.5625 Q643.625,1278.8594 642.9688,1278.0938 Q642.3281,1277.3125 642.3281,1276 Q642.3281,1274.3125 643.4063,1273.3438 Q644.4844,1272.375 646.3594,1272.375 Q647.2188,1272.375 648.0625,1272.5781 Q648.9219,1272.7656 649.7656,1273.1563 L649.7656,1275.5469 Q648.9844,1274.9844 648.1563,1274.7031 Q647.3438,1274.4063 646.5469,1274.4063 Q645.6719,1274.4063 645.1875,1274.7656 Q644.7188,1275.125 644.7188,1275.7813 Q644.7188,1276.2969 645.0625,1276.6406 Q645.4063,1276.9688 646.5,1277.375 L647.5625,1277.7813 Q649.0469,1278.3281 649.75,1279.2344 Q650.4688,1280.1406 650.4688,1281.5156 Q650.4688,1283.3906 649.3594,1284.3125 Q648.25,1285.2344 646,1285.2344 Q645.0781,1285.2344 644.1563,1285.0156 Q643.2344,1284.7969 642.375,1284.375 L642.375,1281.8438 Q643.3438,1282.5313 644.2656,1282.875 Q645.1875,1283.2188 646.0781,1283.2188 Q646.9844,1283.2188 647.4844,1282.8125 Q647.9844,1282.3906 647.9844,1281.6563 Q647.9844,1281.0938 647.6406,1280.6875 Q647.3125,1280.2656 646.6875,1280.0156 L645.4844,1279.5625 Z " fill="#000000"/><text fill="#000000" font-family="sans-serif" font-size="14" lengthAdjust="spacing" textLength="116" x="660" y="1283.8467">ConsumerConfig</text><line style="stroke:#181818;stroke-width:0.5;" x1="632" x2="778" y1="1295" y2="1295"/><line style="stroke:#181818;stroke-width:0.5;" x1="632" x2="778" y1="1303" y2="1303"/></g><!--class JQTransformer--><g id="elem_JQTransformer"><rect codeLine="84" fill="#F1F1F1" height="145.7813" id="JQTransformer" rx="2.5" ry="2.5" style="stroke:#181818;stroke-width:0.5;" width="220" x="1284" y="446"/><ellipse cx="1340.75" cy="462" fill="#F1F1F1" rx="11" ry="11" style="stroke:#181818;stroke-width:1.0;"/><path d="M1340.2344,462.5625 Q1338.375,461.8594 1337.7188,461.0938 Q1337.0781,460.3125 1337.0781,459 Q1337.0781,457.3125 1338.1563,456.3438 Q1339.2344,455.375 1341.1094,455.375 Q1341.9688,455.375 1342.8125,455.5781 Q1343.6719,455.7656 1344.5156,456.1563 L1344.5156,458.5469 Q1343.7344,457.9844 1342.9063,457.7031 Q1342.0938,457.4063 1341.2969,457.4063 Q1340.4219,457.4063 1339.9375,457.7656 Q1339.4688,458.125 1339.4688,458.7813 Q1339.4688,459.2969 1339.8125,459.6406 Q1340.1563,459.9688 1341.25,460.375 L1342.3125,460.7813 Q1343.7969,461.3281 1344.5,462.2344 Q1345.2188,463.1406 1345.2188,464.5156 Q1345.2188,466.3906 1344.1094,467.3125 Q1343,468.2344 1340.75,468.2344 Q1339.8281,468.2344 1338.9063,468.0156 Q1337.9844,467.7969 1337.125,467.375 L1337.125,464.8438 Q1338.0938,465.5313 1339.0156,465.875 Q1339.9375,466.2188 1340.8281,466.2188 Q1341.7344,466.2188 1342.2344,465.8125 Q1342.7344,465.3906 1342.7344,464.6563 Q1342.7344,464.0938 1342.3906,463.6875 Q1342.0625,463.2656 1341.4375,463.0156 L1340.2344,462.5625 Z " fill="#000000"/><text fill="#000000" font-family="sans-serif" font-size="14" lengthAdjust="spacing" textLength="98" x="1361.25" y="466.8467">JQTransformer</text><line style="stroke:#181818;stroke-width:0.5;" x1="1285" x2="1503" y1="478" y2="478"/><rect fill="none" height="6" style="stroke:#C82930;stroke-width:1.0;" width="6" x="1292" y="488.6484"/><text fill="#000000" font-family="sans-serif" font-size="14" lengthAdjust="spacing" textLength="96" x="1304" y="494.9951">string jqQuery</text><rect fill="none" height="6" style="stroke:#C82930;stroke-width:1.0;" width="6" x="1292" y="504.9453"/><text fill="#000000" font-family="sans-serif" font-size="14" lengthAdjust="spacing" textLength="111" x="1304" y="511.292">Code jqProgram</text><rect fill="none" height="6" style="stroke:#C82930;stroke-width:1.0;" width="6" x="1292" y="521.2422"/><text fill="#000000" font-family="sans-serif" font-size="14" lengthAdjust="spacing" textLength="155" x="1304" y="527.5889">ChanReceiver receiver</text><line style="stroke:#181818;stroke-width:0.5;" x1="1285" x2="1503" y1="534.8906" y2="534.8906"/><ellipse cx="1295" cy="548.5391" fill="#84BE84" rx="3" ry="3" style="stroke:#038048;stroke-width:1.0;"/><text fill="#000000" font-family="sans-serif" font-size="14" lengthAdjust="spacing" textLength="194" x="1304" y="551.8857">error AddReceiver(Receiver)</text><ellipse cx="1295" cy="564.8359" fill="#84BE84" rx="3" ry="3" style="stroke:#038048;stroke-width:1.0;"/><text fill="#000000" font-family="sans-serif" font-size="14" lengthAdjust="spacing" textLength="159" x="1304" y="568.1826">Receiver GetReceiver()</text><ellipse cx="1295" cy="581.1328" fill="#84BE84" rx="3" ry="3" style="stroke:#038048;stroke-width:1.0;"/><text fill="#000000" font-family="sans-serif" font-size="14" lengthAdjust="spacing" textLength="86" x="1304" y="584.4795">error Serve()</text></g><!--reverse link CompletionHandler to AppData--><g id="link_CompletionHandler_AppData"><path codeLine="93" d="M802.7286,112.9618 C822.9686,130.5918 839.66,145.13 862.38,164.93 " fill="none" id="CompletionHandler-backto-AppData" style="stroke:#181818;stroke-width:1.0;"/><polygon fill="#181818" points="793.68,105.08,795.5771,112.0371,802.7286,112.9618,800.8316,106.0047,793.68,105.08" style="stroke:#181818;stroke-width:1.0;"/></g><!--reverse link CompletionHandler to KafkaConsumerCompletionHandler--><g id="link_CompletionHandler_KafkaConsumerCompletionHandler"><path codeLine="94" d="M708.7459,116.9014 C682.6459,139.6314 660.97,158.52 634.84,181.28 " fill="none" id="CompletionHandler-backto-KafkaConsumerCompletionHandler" style="stroke:#181818;stroke-width:1.0;"/><polygon fill="none" points="722.32,105.08,704.8055,112.3767,712.6864,121.4261,722.32,105.08" style="stroke:#181818;stroke-width:1.0;"/></g><!--reverse link AppData to Receiver--><g id="link_AppData_Receiver"><path codeLine="95" d="M917,274.16 C917,293.88 917,304.2 917,321.77 " fill="none" id="AppData-backto-Receiver" style="stroke:#181818;stroke-width:1.0;"/><polygon fill="#181818" points="917,262.16,913,268.16,917,274.16,921,268.16,917,262.16" style="stroke:#181818;stroke-width:1.0;"/></g><!--reverse link Receiver to Pullable--><g id="link_Receiver_Pullable"><path codeLine="96" d="M826.8644,391.3403 C816.2844,396.5003 816.59,396.91 807,403 C769.07,427.1 731.06,461.94 705.83,486.94 " fill="none" id="Receiver-backto-Pullable" style="stroke:#181818;stroke-width:1.0;"/><polygon fill="#181818" points="837.65,386.08,830.5038,385.1149,826.8644,391.3403,834.0106,392.3053,837.65,386.08" style="stroke:#181818;stroke-width:1.0;"/></g><!--reverse link Receiver to Pushable--><g id="link_Receiver_Pushable"><path codeLine="97" d="M917,398.04 C917,426.95 917,457.83 917,486.8 " fill="none" id="Receiver-backto-Pushable" style="stroke:#181818;stroke-width:1.0;"/><polygon fill="#181818" points="917,386.04,913,392.04,917,398.04,921,392.04,917,386.04" style="stroke:#181818;stroke-width:1.0;"/></g><!--reverse link Receiver to ChanReceiver--><g id="link_Receiver_ChanReceiver"><path codeLine="98" d="M1021.7109,395.9227 C1029.1809,400.8227 1021.07,396.56 1027,403 C1097.01,479.02 1120.14,604.19 1127.59,667.77 " fill="none" id="Receiver-backto-ChanReceiver" style="stroke:#181818;stroke-width:1.0;"/><polygon fill="none" points="1006.66,386.05,1018.42,400.9397,1025.0018,390.9058,1006.66,386.05" style="stroke:#181818;stroke-width:1.0;"/></g><!--reverse link Server to SourceServer--><g id="link_Server_SourceServer"><path codeLine="99" d="M455.9715,568.5763 C446.0715,600.5863 436,633.14 425.26,667.85 " fill="none" id="Server-backto-SourceServer" style="stroke:#181818;stroke-width:1.0;"/><polygon fill="none" points="461.29,551.38,450.2394,566.8035,461.7037,570.3492,461.29,551.38" style="stroke:#181818;stroke-width:1.0;"/></g><!--reverse link Pullable to SourceServer--><g id="link_Pullable_SourceServer"><path codeLine="100" d="M619.5444,561.8884 C593.9444,580.8084 574.96,594.64 545,616 C520.82,633.24 493.91,651.97 470.73,667.97 " fill="none" id="Pullable-backto-SourceServer" style="stroke:#181818;stroke-width:1.0;"/><polygon fill="none" points="634.02,551.19,615.9782,557.0632,623.1105,566.7136,634.02,551.19" style="stroke:#181818;stroke-width:1.0;"/></g><!--reverse link Server to SinkServer--><g id="link_Server_SinkServer"><path codeLine="101" d="M503.0439,565.7058 C517.0739,585.1458 525.77,595.67 545,616 C562.13,634.1 582.53,652.38 600.84,667.78 " fill="none" id="Server-backto-SinkServer" style="stroke:#181818;stroke-width:1.0;"/><polygon fill="none" points="492.51,551.11,498.1786,569.2171,507.9092,562.1945,492.51,551.11" style="stroke:#181818;stroke-width:1.0;"/></g><!--reverse link Pushable to SinkServer--><g id="link_Pushable_SinkServer"><path codeLine="102" d="M871.4362,563.3436 C850.2062,583.0136 834.56,596.15 807,616 C781.26,634.53 751.55,652.68 725.01,667.87 " fill="none" id="Pushable-backto-SinkServer" style="stroke:#181818;stroke-width:1.0;"/><polygon fill="none" points="884.64,551.11,867.3584,558.9423,875.5141,567.7448,884.64,551.11" style="stroke:#181818;stroke-width:1.0;"/></g><!--reverse link Pushable to PipeServer--><g id="link_Pushable_PipeServer"><path codeLine="103" d="M909.6525,569.1827 C905.2325,598.7927 901.2,625.79 896.12,659.81 " fill="none" id="Pushable-backto-PipeServer" style="stroke:#181818;stroke-width:1.0;"/><polygon fill="none" points="912.31,551.38,903.7183,568.2969,915.5868,570.0686,912.31,551.38" style="stroke:#181818;stroke-width:1.0;"/></g><!--reverse link Pullable to PipeServer--><g id="link_Pullable_PipeServer"><path codeLine="104" d="M725.1615,563.2728 C758.8015,592.8828 796.17,625.79 834.82,659.81 " fill="none" id="Pullable-backto-PipeServer" style="stroke:#181818;stroke-width:1.0;"/><polygon fill="none" points="711.65,551.38,721.1972,567.7767,729.1258,558.769,711.65,551.38" style="stroke:#181818;stroke-width:1.0;"/></g><!--reverse link Server to PipeServer--><g id="link_Server_PipeServer"><path codeLine="105" d="M495.7701,566.5678 C508.4701,588.3378 519.36,600.65 545,616 C628.49,666.01 667.66,624.44 761,652 C768.9,654.33 776.96,657.02 784.99,659.94 " fill="none" id="Server-backto-PipeServer" style="stroke:#181818;stroke-width:1.0;"/><polygon fill="none" points="486.7,551.02,490.5875,569.5911,500.9527,563.5444,486.7,551.02" style="stroke:#181818;stroke-width:1.0;"/></g><!--reverse link ProducerResponse to Producer--><g id="link_ProducerResponse_Producer"><path codeLine="107" d="M145,571.76 C145,598.53 145,622.2 145,651.79 " fill="none" id="ProducerResponse-backto-Producer" style="stroke:#181818;stroke-width:1.0;"/><polygon fill="#181818" points="145,559.76,141,565.76,145,571.76,149,565.76,145,559.76" style="stroke:#181818;stroke-width:1.0;"/></g><!--reverse link Producer to KafkaProducer--><g id="link_Producer_KafkaProducer"><path codeLine="108" d="M147.576,783.0091 C148.336,804.8491 148.59,811.7 149.32,832.72 " fill="none" id="Producer-backto-KafkaProducer" style="stroke:#181818;stroke-width:1.0;"/><polygon fill="none" points="146.95,765.02,141.5796,783.2178,153.5724,782.8004,146.95,765.02" style="stroke:#181818;stroke-width:1.0;"/></g><!--reverse link Consumer to KafkaConsumer--><g id="link_Consumer_KafkaConsumer"><path codeLine="109" d="M571.8856,941.1856 C599.1056,962.5256 616.97,976.52 644.2,997.86 " fill="none" id="Consumer-backto-KafkaConsumer" style="stroke:#181818;stroke-width:1.0;"/><polygon fill="none" points="557.72,930.08,568.1838,945.9075,575.5875,936.4637,557.72,930.08" style="stroke:#181818;stroke-width:1.0;"/></g><!--reverse link Producer to ProducerServer--><g id="link_Producer_ProducerServer"><path codeLine="110" d="M279.7413,763.3203 C285.6913,765.2203 280.17,763.36 286,765 C435.41,806.97 480.21,784.41 630,825 C635.6,826.52 641.27,828.16 646.99,829.89 " fill="none" id="Producer-backto-ProducerServer" style="stroke:#181818;stroke-width:1.0;"/><polygon fill="#181818" points="268.31,759.67,272.8089,765.3056,279.7413,763.3203,275.2424,757.6847,268.31,759.67" style="stroke:#181818;stroke-width:1.0;"/></g><!--reverse link SinkServer to ProducerServer--><g id="link_SinkServer_ProducerServer"><path codeLine="111" d="M691.4756,763.5708 C708.3156,786.0708 718.86,800.16 737.35,824.86 " fill="none" id="SinkServer-backto-ProducerServer" style="stroke:#181818;stroke-width:1.0;"/><polygon fill="none" points="680.69,749.16,686.6721,767.166,696.2792,759.9755,680.69,749.16" style="stroke:#181818;stroke-width:1.0;"/></g><!--reverse link ChanReceiver to ProducerServer--><g id="link_ChanReceiver_ProducerServer"><path codeLine="112" d="M1038.9487,754.3285 C1027.9487,759.6785 1027.59,759.85 1017,765 C976.83,784.53 932.83,805.88 893.71,824.87 " fill="none" id="ChanReceiver-backto-ProducerServer" style="stroke:#181818;stroke-width:1.0;"/><polygon fill="#181818" points="1049.74,749.08,1042.5948,748.1071,1038.9487,754.3285,1046.0938,755.3014,1049.74,749.08" style="stroke:#181818;stroke-width:1.0;"/></g><!--reverse link SourceServer to ConsumerServer--><g id="link_SourceServer_ConsumerServer"><path codeLine="113" d="M384.2126,765.4122 C373.8626,787.1522 370.25,798.7 365,825 C355.17,874.25 357.76,888.3 365,938 C367.91,957.94 373.69,979.33 379.56,997.74 " fill="none" id="SourceServer-backto-ConsumerServer" style="stroke:#181818;stroke-width:1.0;"/><polygon fill="none" points="391.95,749.16,378.7953,762.8331,389.63,767.9913,391.95,749.16" style="stroke:#181818;stroke-width:1.0;"/></g><!--reverse link Consumer to ConsumerServer--><g id="link_Consumer_ConsumerServer"><path codeLine="114" d="M461.5355,940.3089 C448.4455,961.6489 439.32,976.52 426.23,997.86 " fill="none" id="Consumer-backto-ConsumerServer" style="stroke:#181818;stroke-width:1.0;"/><polygon fill="#181818" points="467.81,930.08,461.2631,933.103,461.5355,940.3089,468.0824,937.286,467.81,930.08" style="stroke:#181818;stroke-width:1.0;"/></g><!--reverse link SourceServer to Consumer--><g id="link_SourceServer_Consumer"><path codeLine="115" d="M440.4157,765.3162 C452.6757,790.2762 460.64,806.48 473.59,832.84 " fill="none" id="SourceServer-backto-Consumer" style="stroke:#181818;stroke-width:1.0;"/><polygon fill="none" points="432.48,749.16,435.0303,767.9615,445.8011,762.671,432.48,749.16" style="stroke:#181818;stroke-width:1.0;"/></g><!--link KafkaConsumer to KafkaConsumerCofig--><g id="link_KafkaConsumer_KafkaConsumerCofig"><path codeLine="117" d="M705,1095.35 C705,1115.58 705,1126.2 705,1142.66 " fill="none" id="KafkaConsumer-to-KafkaConsumerCofig" style="stroke:#181818;stroke-width:1.0;"/><polygon fill="#181818" points="705,1154.66,709,1148.66,705,1142.66,701,1148.66,705,1154.66" style="stroke:#181818;stroke-width:1.0;"/></g><!--link KafkaProducer to KafkaProducerConfig--><g id="link_KafkaProducer_KafkaProducerConfig"><path codeLine="118" d="M144.87,930.08 C140.97,960.34 137.6374,986.2889 134.5474,1010.2089 " fill="none" id="KafkaProducer-to-KafkaProducerConfig" style="stroke:#181818;stroke-width:1.0;"/><polygon fill="#181818" points="133.01,1022.11,137.7457,1016.6719,134.5474,1010.2089,129.8117,1015.647,133.01,1022.11" style="stroke:#181818;stroke-width:1.0;"/></g><!--link JQTransformer to PipeServer--><g id="link_JQTransformer_PipeServer"><path codeLine="120" d="M1293.69,592.01 C1277.63,601.21 1260.76,609.63 1244,616 C1148.52,652.3 1115.08,623.46 1017,652 C1008.98,654.34 1017.7178,650.9303 1009.5578,653.8803 " fill="none" id="JQTransformer-to-PipeServer" style="stroke:#181818;stroke-width:1.0;"/><polygon fill="none" points="992.63,660,1011.5977,659.5229,1007.5179,648.2377,992.63,660" style="stroke:#181818;stroke-width:1.0;"/></g><!--link JQTransformer to ChanReceiver--><g id="link_JQTransformer_ChanReceiver"><path codeLine="121" d="M1292.69,592.22 C1256.66,617.91 1227.2012,638.9142 1196.4112,660.8642 " fill="none" id="JQTransformer-to-ChanReceiver" style="stroke:#181818;stroke-width:1.0;"/><polygon fill="#181818" points="1186.64,667.83,1193.8476,667.6042,1196.4112,660.8642,1189.2037,661.09,1186.64,667.83" style="stroke:#181818;stroke-width:1.0;"/></g><!--link KafkaProducerConfig to ProducerConfig--><g id="link_KafkaProducerConfig_ProducerConfig"><path codeLine="123" d="M130,1070.53 C130,1094.24 130,1118.98 130,1142.76 " fill="none" id="KafkaProducerConfig-to-ProducerConfig" style="stroke:#181818;stroke-width:1.0;"/><polygon fill="#181818" points="130,1154.76,134,1148.76,130,1142.76,126,1148.76,130,1154.76" style="stroke:#181818;stroke-width:1.0;"/></g><!--link KafkaConsumerCofig to ConsumerConfig--><g id="link_KafkaConsumerCofig_ConsumerConfig"><path codeLine="124" d="M705,1203 C705,1220.66 705,1232.94 705,1250.68 " fill="none" id="KafkaConsumerCofig-to-ConsumerConfig" style="stroke:#181818;stroke-width:1.0;"/><polygon fill="#181818" points="705,1262.68,709,1256.68,705,1250.68,701,1256.68,705,1262.68" style="stroke:#181818;stroke-width:1.0;"/></g><!--SRC=[jLRBSjCm5DthAxnq0yuNiEc43b2cq3Ri61R2Lb9JMnAotA43-NSaMvBrjDEqpSAZoESUdVlGlSQmHHs59SgsY3qWblq5cVZLc2EsaziRqj86yPhWZn1NZK78tnl4664QWdA87zzcmzxPW3aCpuwplkJPPxYxXnk2kxv5xCLOpobz3pcqp0k1pognDn66fvN-pWIMvXyGbwovVU0KabjKeleXfbczoPMgYDxD7SGH-w8K-yOPgLu2dq0_gNFoQ1aF-mcFhlkcWJyR55gTLvMMcw_qAaNItVaanbKHKSEJq4rwLgAKUbk7A-D85xSrlW_9P_GT6xgQdYhwrCDLALqpKlKbOhVY0ejhPSUz64s7fyyd3hkGYvG_YjNsHkzzmXs7M804Xrx71FEUvjf6tFXTlGz1739ksmRUR16kvDsFozIDvEHAaHgdRXJNc8gyqygUfS1hYazN4KjNSC2hvCAhmk0E52satmMenliVHYLLYoj89w3J4vbQlDWrqT6T5MYIMQf5PojyNW-App-HY6Gonpp5eXo-SMiO700s4_ro-_NBnH_EOCc9TbnPNTvyOn1tEyBS2Yx6U6I_Vj_qY3rQEI8L4hj2nvx1zkZSlLeVF80nd-jmjg-AGWt1jHgKQUoxVnDu_WC5k9JsALepyFxR63rXvp7Z00qmjaexu1geIjk6sTCKU1eMWJ4-Cpw1f_OKs3GqPxM5i8Wo2sJ8_Fvb1rczyx5XAVX8qoEIHHDmHixr_9c-IXoVec3dhYrJszzJJWKv3J7mRhM4N2GsUGXRdc3lwNpm8fqmOcMI0u8oa9eat6b_QwVZ9IAwPENdTr6TQifUV99cJgZ-0m00]--></g></svg>