<?xml version="1.0" encoding="us-ascii" standalone="no"?><svg xmlns="http://www.w3.org/2000/svg" xmlns:xlink="http://www.w3.org/1999/xlink" contentStyleType="text/css" height="1052px" preserveAspectRatio="none" style="width:1358px;height:1052px;background:#FFFFFF;" version="1.1" viewBox="0 0 1358 1052" width="1358px" zoomAndPan="magnify"><defs/><g><!--cluster JSONExtractor--><g id="cluster_JSONExtractor"><path d="M1093.5,708 L1203.5,708 A3.75,3.75 0 0 1 1206,710.5 L1213,730.2969 L1348.5,730.2969 A2.5,2.5 0 0 1 1351,732.7969 L1351,885.5 A2.5,2.5 0 0 1 1348.5,888 L1093.5,888 A2.5,2.5 0 0 1 1091,885.5 L1091,710.5 A2.5,2.5 0 0 1 1093.5,708 " fill="none" style="stroke:#000000;stroke-width:1.5;"/><line style="stroke:#000000;stroke-width:1.5;" x1="1091" x2="1213" y1="730.2969" y2="730.2969"/><text fill="#000000" font-family="sans-serif" font-size="14" font-weight="bold" lengthAdjust="spacing" textLength="109" x="1095" y="722.9951">JSONExtractor</text></g><!--cluster Server--><g id="cluster_Server"><path d="M8.5,6 L62.5,6 A3.75,3.75 0 0 1 65,8.5 L72,28.2969 L1064.5,28.2969 A2.5,2.5 0 0 1 1067,30.7969 L1067,1042.5 A2.5,2.5 0 0 1 1064.5,1045 L8.5,1045 A2.5,2.5 0 0 1 6,1042.5 L6,8.5 A2.5,2.5 0 0 1 8.5,6 " fill="none" style="stroke:#000000;stroke-width:1.5;"/><line style="stroke:#000000;stroke-width:1.5;" x1="6" x2="72" y1="28.2969" y2="28.2969"/><text fill="#000000" font-family="sans-serif" font-size="14" font-weight="bold" lengthAdjust="spacing" textLength="53" x="10" y="20.9951">Server</text></g><!--class JQTransformer--><g id="elem_JQTransformer"><rect codeLine="2" fill="#F1F1F1" height="129.4844" id="JQTransformer" rx="2.5" ry="2.5" style="stroke:#181818;stroke-width:0.5;" width="228" x="1107" y="743"/><ellipse cx="1167.75" cy="759" fill="#F1F1F1" rx="11" ry="11" style="stroke:#181818;stroke-width:1.0;"/><path d="M1167.2344,759.5625 Q1165.375,758.8594 1164.7188,758.0938 Q1164.0781,757.3125 1164.0781,756 Q1164.0781,754.3125 1165.1563,753.3438 Q1166.2344,752.375 1168.1094,752.375 Q1168.9688,752.375 1169.8125,752.5781 Q1170.6719,752.7656 1171.5156,753.1563 L1171.5156,755.5469 Q1170.7344,754.9844 1169.9063,754.7031 Q1169.0938,754.4063 1168.2969,754.4063 Q1167.4219,754.4063 1166.9375,754.7656 Q1166.4688,755.125 1166.4688,755.7813 Q1166.4688,756.2969 1166.8125,756.6406 Q1167.1563,756.9688 1168.25,757.375 L1169.3125,757.7813 Q1170.7969,758.3281 1171.5,759.2344 Q1172.2188,760.1406 1172.2188,761.5156 Q1172.2188,763.3906 1171.1094,764.3125 Q1170,765.2344 1167.75,765.2344 Q1166.8281,765.2344 1165.9063,765.0156 Q1164.9844,764.7969 1164.125,764.375 L1164.125,761.8438 Q1165.0938,762.5313 1166.0156,762.875 Q1166.9375,763.2188 1167.8281,763.2188 Q1168.7344,763.2188 1169.2344,762.8125 Q1169.7344,762.3906 1169.7344,761.6563 Q1169.7344,761.0938 1169.3906,760.6875 Q1169.0625,760.2656 1168.4375,760.0156 L1167.2344,759.5625 Z " fill="#000000"/><text fill="#000000" font-family="sans-serif" font-size="14" lengthAdjust="spacing" textLength="98" x="1188.25" y="763.8467">JQTransformer</text><line style="stroke:#181818;stroke-width:0.5;" x1="1108" x2="1334" y1="775" y2="775"/><rect fill="none" height="6" style="stroke:#C82930;stroke-width:1.0;" width="6" x="1115" y="785.6484"/><text fill="#000000" font-family="sans-serif" font-size="14" lengthAdjust="spacing" textLength="145" x="1127" y="791.9951">gojq.Code jqProgram</text><rect fill="none" height="6" style="stroke:#C82930;stroke-width:1.0;" width="6" x="1115" y="801.9453"/><text fill="#000000" font-family="sans-serif" font-size="14" lengthAdjust="spacing" textLength="132" x="1127" y="808.292">Pushable pushable</text><line style="stroke:#181818;stroke-width:0.5;" x1="1108" x2="1334" y1="815.5938" y2="815.5938"/><ellipse cx="1118" cy="829.2422" fill="#84BE84" rx="3" ry="3" style="stroke:#038048;stroke-width:1.0;"/><text fill="#000000" font-family="sans-serif" font-size="14" lengthAdjust="spacing" textLength="202" x="1127" y="832.5889">error AddPushable(Pushable)</text><ellipse cx="1118" cy="845.5391" fill="#84BE84" rx="3" ry="3" style="stroke:#038048;stroke-width:1.0;"/><text fill="#000000" font-family="sans-serif" font-size="14" lengthAdjust="spacing" textLength="167" x="1127" y="848.8857">error SendTo(*AppData)</text><ellipse cx="1118" cy="861.8359" fill="#84BE84" rx="3" ry="3" style="stroke:#038048;stroke-width:1.0;"/><text fill="#000000" font-family="sans-serif" font-size="14" lengthAdjust="spacing" textLength="86" x="1127" y="865.1826">error Serve()</text></g><!--class CompletionHandler--><g id="elem_CompletionHandler"><rect codeLine="11" fill="#F1F1F1" height="64.2969" id="CompletionHandler" rx="2.5" ry="2.5" style="stroke:#181818;stroke-width:0.5;" width="205" x="598.5" y="41"/><ellipse cx="631.95" cy="57" fill="#B4A7E5" rx="11" ry="11" style="stroke:#181818;stroke-width:1.0;"/><path d="M627.8719,52.7656 L627.8719,50.6094 L635.2625,50.6094 L635.2625,52.7656 L632.7938,52.7656 L632.7938,60.8438 L635.2625,60.8438 L635.2625,63 L627.8719,63 L627.8719,60.8438 L630.3406,60.8438 L630.3406,52.7656 L627.8719,52.7656 Z " fill="#000000"/><text fill="#000000" font-family="sans-serif" font-size="14" font-style="italic" lengthAdjust="spacing" textLength="132" x="650.05" y="61.8467">CompletionHandler</text><line style="stroke:#181818;stroke-width:0.5;" x1="599.5" x2="802.5" y1="73" y2="73"/><line style="stroke:#181818;stroke-width:0.5;" x1="599.5" x2="802.5" y1="81" y2="81"/><ellipse cx="609.5" cy="94.6484" fill="#84BE84" rx="3" ry="3" style="stroke:#038048;stroke-width:1.0;"/><text fill="#000000" font-family="sans-serif" font-size="14" lengthAdjust="spacing" textLength="179" x="618.5" y="97.9951">error Complete(any, error)</text></g><!--class WaitGroupCompletionHandler--><g id="elem_WaitGroupCompletionHandler"><rect codeLine="14" fill="#F1F1F1" height="113.1875" id="WaitGroupCompletionHandler" rx="2.5" ry="2.5" style="stroke:#181818;stroke-width:0.5;" width="236" x="424" y="165"/><ellipse cx="439" cy="181" fill="#F1F1F1" rx="11" ry="11" style="stroke:#181818;stroke-width:1.0;"/><path d="M438.4844,181.5625 Q436.625,180.8594 435.9688,180.0938 Q435.3281,179.3125 435.3281,178 Q435.3281,176.3125 436.4063,175.3438 Q437.4844,174.375 439.3594,174.375 Q440.2188,174.375 441.0625,174.5781 Q441.9219,174.7656 442.7656,175.1563 L442.7656,177.5469 Q441.9844,176.9844 441.1563,176.7031 Q440.3438,176.4063 439.5469,176.4063 Q438.6719,176.4063 438.1875,176.7656 Q437.7188,177.125 437.7188,177.7813 Q437.7188,178.2969 438.0625,178.6406 Q438.4063,178.9688 439.5,179.375 L440.5625,179.7813 Q442.0469,180.3281 442.75,181.2344 Q443.4688,182.1406 443.4688,183.5156 Q443.4688,185.3906 442.3594,186.3125 Q441.25,187.2344 439,187.2344 Q438.0781,187.2344 437.1563,187.0156 Q436.2344,186.7969 435.375,186.375 L435.375,183.8438 Q436.3438,184.5313 437.2656,184.875 Q438.1875,185.2188 439.0781,185.2188 Q439.9844,185.2188 440.4844,184.8125 Q440.9844,184.3906 440.9844,183.6563 Q440.9844,183.0938 440.6406,182.6875 Q440.3125,182.2656 439.6875,182.0156 L438.4844,181.5625 Z " fill="#000000"/><text fill="#000000" font-family="sans-serif" font-size="14" lengthAdjust="spacing" textLength="204" x="453" y="185.8467">WaitGroupCompletionHandler</text><line style="stroke:#181818;stroke-width:0.5;" x1="425" x2="659" y1="197" y2="197"/><rect fill="none" height="6" style="stroke:#C82930;stroke-width:1.0;" width="6" x="432" y="207.6484"/><text fill="#000000" font-family="sans-serif" font-size="14" lengthAdjust="spacing" textLength="132" x="444" y="213.9951">sync.WaitGroup wg</text><rect fill="none" height="6" style="stroke:#C82930;stroke-width:1.0;" width="6" x="432" y="223.9453"/><text fill="#000000" font-family="sans-serif" font-size="14" lengthAdjust="spacing" textLength="58" x="444" y="230.292">any data</text><rect fill="none" height="6" style="stroke:#C82930;stroke-width:1.0;" width="6" x="432" y="240.2422"/><text fill="#000000" font-family="sans-serif" font-size="14" lengthAdjust="spacing" textLength="70" x="444" y="246.5889">error error</text><line style="stroke:#181818;stroke-width:0.5;" x1="425" x2="659" y1="253.8906" y2="253.8906"/><ellipse cx="435" cy="267.5391" fill="#84BE84" rx="3" ry="3" style="stroke:#038048;stroke-width:1.0;"/><text fill="#000000" font-family="sans-serif" font-size="14" lengthAdjust="spacing" textLength="179" x="444" y="270.8857">error Complete(any, error)</text></g><!--class AppData--><g id="elem_AppData"><rect codeLine="20" fill="#F1F1F1" height="113.1875" id="AppData" rx="2.5" ry="2.5" style="stroke:#181818;stroke-width:0.5;" width="329" x="695.5" y="165"/><ellipse cx="826.25" cy="181" fill="#F1F1F1" rx="11" ry="11" style="stroke:#181818;stroke-width:1.0;"/><path d="M825.7344,181.5625 Q823.875,180.8594 823.2188,180.0938 Q822.5781,179.3125 822.5781,178 Q822.5781,176.3125 823.6563,175.3438 Q824.7344,174.375 826.6094,174.375 Q827.4688,174.375 828.3125,174.5781 Q829.1719,174.7656 830.0156,175.1563 L830.0156,177.5469 Q829.2344,176.9844 828.4063,176.7031 Q827.5938,176.4063 826.7969,176.4063 Q825.9219,176.4063 825.4375,176.7656 Q824.9688,177.125 824.9688,177.7813 Q824.9688,178.2969 825.3125,178.6406 Q825.6563,178.9688 826.75,179.375 L827.8125,179.7813 Q829.2969,180.3281 830,181.2344 Q830.7188,182.1406 830.7188,183.5156 Q830.7188,185.3906 829.6094,186.3125 Q828.5,187.2344 826.25,187.2344 Q825.3281,187.2344 824.4063,187.0156 Q823.4844,186.7969 822.625,186.375 L822.625,183.8438 Q823.5938,184.5313 824.5156,184.875 Q825.4375,185.2188 826.3281,185.2188 Q827.2344,185.2188 827.7344,184.8125 Q828.2344,184.3906 828.2344,183.6563 Q828.2344,183.0938 827.8906,182.6875 Q827.5625,182.2656 826.9375,182.0156 L825.7344,181.5625 Z " fill="#000000"/><text fill="#000000" font-family="sans-serif" font-size="14" lengthAdjust="spacing" textLength="59" x="846.75" y="185.8467">AppData</text><line style="stroke:#181818;stroke-width:0.5;" x1="696.5" x2="1023.5" y1="197" y2="197"/><rect fill="none" height="6" style="stroke:#C82930;stroke-width:1.0;" width="6" x="703.5" y="207.6484"/><text fill="#000000" font-family="sans-serif" font-size="14" lengthAdjust="spacing" textLength="58" x="715.5" y="213.9951">any data</text><ellipse cx="706.5" cy="226.9453" fill="none" rx="3" ry="3" style="stroke:#038048;stroke-width:1.0;"/><text fill="#000000" font-family="sans-serif" font-size="14" lengthAdjust="spacing" textLength="266" x="715.5" y="230.292">CompletionHandler completionHandler</text><line style="stroke:#181818;stroke-width:0.5;" x1="696.5" x2="1023.5" y1="237.5938" y2="237.5938"/><ellipse cx="706.5" cy="251.2422" fill="#84BE84" rx="3" ry="3" style="stroke:#038048;stroke-width:1.0;"/><text fill="#000000" font-family="sans-serif" font-size="14" lengthAdjust="spacing" textLength="95" x="715.5" y="254.5889">any GetData()</text><ellipse cx="706.5" cy="267.5391" fill="#84BE84" rx="3" ry="3" style="stroke:#038048;stroke-width:1.0;"/><text fill="#000000" font-family="sans-serif" font-size="14" lengthAdjust="spacing" textLength="303" x="715.5" y="270.8857">CompletionHandler GetCompletionHandler()</text></g><!--class Server--><g id="elem_Server"><rect codeLine="26" fill="#F1F1F1" height="64.2969" id="Server" rx="2.5" ry="2.5" style="stroke:#181818;stroke-width:0.5;" width="112" x="572" y="462"/><ellipse cx="603.2" cy="478" fill="#B4A7E5" rx="11" ry="11" style="stroke:#181818;stroke-width:1.0;"/><path d="M599.1219,473.7656 L599.1219,471.6094 L606.5125,471.6094 L606.5125,473.7656 L604.0438,473.7656 L604.0438,481.8438 L606.5125,481.8438 L606.5125,484 L599.1219,484 L599.1219,481.8438 L601.5906,481.8438 L601.5906,473.7656 L599.1219,473.7656 Z " fill="#000000"/><text fill="#000000" font-family="sans-serif" font-size="14" font-style="italic" lengthAdjust="spacing" textLength="44" x="620.8" y="482.8467">Server</text><line style="stroke:#181818;stroke-width:0.5;" x1="573" x2="683" y1="494" y2="494"/><line style="stroke:#181818;stroke-width:0.5;" x1="573" x2="683" y1="502" y2="502"/><ellipse cx="583" cy="515.6484" fill="#84BE84" rx="3" ry="3" style="stroke:#038048;stroke-width:1.0;"/><text fill="#000000" font-family="sans-serif" font-size="14" lengthAdjust="spacing" textLength="86" x="592" y="518.9951">error Serve()</text></g><!--class Pullable--><g id="elem_Pullable"><rect codeLine="29" fill="#F1F1F1" height="64.2969" id="Pullable" rx="2.5" ry="2.5" style="stroke:#181818;stroke-width:0.5;" width="228" x="719" y="462"/><ellipse cx="802.25" cy="478" fill="#B4A7E5" rx="11" ry="11" style="stroke:#181818;stroke-width:1.0;"/><path d="M798.1719,473.7656 L798.1719,471.6094 L805.5625,471.6094 L805.5625,473.7656 L803.0938,473.7656 L803.0938,481.8438 L805.5625,481.8438 L805.5625,484 L798.1719,484 L798.1719,481.8438 L800.6406,481.8438 L800.6406,473.7656 L798.1719,473.7656 Z " fill="#000000"/><text fill="#000000" font-family="sans-serif" font-size="14" font-style="italic" lengthAdjust="spacing" textLength="53" x="822.75" y="482.8467">Pullable</text><line style="stroke:#181818;stroke-width:0.5;" x1="720" x2="946" y1="494" y2="494"/><line style="stroke:#181818;stroke-width:0.5;" x1="720" x2="946" y1="502" y2="502"/><ellipse cx="730" cy="515.6484" fill="#84BE84" rx="3" ry="3" style="stroke:#038048;stroke-width:1.0;"/><text fill="#000000" font-family="sans-serif" font-size="14" lengthAdjust="spacing" textLength="202" x="739" y="518.9951">error AddPushable(Pushable)</text></g><!--class Pushable--><g id="elem_Pushable"><rect codeLine="32" fill="#F1F1F1" height="64.2969" id="Pushable" rx="2.5" ry="2.5" style="stroke:#181818;stroke-width:0.5;" width="193" x="763.5" y="338"/><ellipse cx="823.75" cy="354" fill="#B4A7E5" rx="11" ry="11" style="stroke:#181818;stroke-width:1.0;"/><path d="M819.6719,349.7656 L819.6719,347.6094 L827.0625,347.6094 L827.0625,349.7656 L824.5938,349.7656 L824.5938,357.8438 L827.0625,357.8438 L827.0625,360 L819.6719,360 L819.6719,357.8438 L822.1406,357.8438 L822.1406,349.7656 L819.6719,349.7656 Z " fill="#000000"/><text fill="#000000" font-family="sans-serif" font-size="14" font-style="italic" lengthAdjust="spacing" textLength="64" x="844.25" y="358.8467">Pushable</text><line style="stroke:#181818;stroke-width:0.5;" x1="764.5" x2="955.5" y1="370" y2="370"/><line style="stroke:#181818;stroke-width:0.5;" x1="764.5" x2="955.5" y1="378" y2="378"/><ellipse cx="774.5" cy="391.6484" fill="#84BE84" rx="3" ry="3" style="stroke:#038048;stroke-width:1.0;"/><text fill="#000000" font-family="sans-serif" font-size="14" lengthAdjust="spacing" textLength="167" x="783.5" y="394.9951">error SendTo(*AppData)</text></g><!--class SourceServer--><g id="elem_SourceServer"><rect codeLine="35" fill="#F1F1F1" height="80.5938" id="SourceServer" rx="2.5" ry="2.5" style="stroke:#181818;stroke-width:0.5;" width="228" x="560" y="594"/><ellipse cx="623.25" cy="610" fill="#B4A7E5" rx="11" ry="11" style="stroke:#181818;stroke-width:1.0;"/><path d="M619.1719,605.7656 L619.1719,603.6094 L626.5625,603.6094 L626.5625,605.7656 L624.0938,605.7656 L624.0938,613.8438 L626.5625,613.8438 L626.5625,616 L619.1719,616 L619.1719,613.8438 L621.6406,613.8438 L621.6406,605.7656 L619.1719,605.7656 Z " fill="#000000"/><text fill="#000000" font-family="sans-serif" font-size="14" font-style="italic" lengthAdjust="spacing" textLength="93" x="643.75" y="614.8467">SourceServer</text><line style="stroke:#181818;stroke-width:0.5;" x1="561" x2="787" y1="626" y2="626"/><line style="stroke:#181818;stroke-width:0.5;" x1="561" x2="787" y1="634" y2="634"/><ellipse cx="571" cy="647.6484" fill="#84BE84" rx="3" ry="3" style="stroke:#038048;stroke-width:1.0;"/><text fill="#000000" font-family="sans-serif" font-size="14" lengthAdjust="spacing" textLength="202" x="580" y="650.9951">error AddPushable(Pushable)</text><ellipse cx="571" cy="663.9453" fill="#84BE84" rx="3" ry="3" style="stroke:#038048;stroke-width:1.0;"/><text fill="#000000" font-family="sans-serif" font-size="14" lengthAdjust="spacing" textLength="86" x="580" y="667.292">error Serve()</text></g><!--class SinkServer--><g id="elem_SinkServer"><rect codeLine="39" fill="#F1F1F1" height="80.5938" id="SinkServer" rx="2.5" ry="2.5" style="stroke:#181818;stroke-width:0.5;" width="193" x="331.5" y="594"/><ellipse cx="387.25" cy="610" fill="#B4A7E5" rx="11" ry="11" style="stroke:#181818;stroke-width:1.0;"/><path d="M383.1719,605.7656 L383.1719,603.6094 L390.5625,603.6094 L390.5625,605.7656 L388.0938,605.7656 L388.0938,613.8438 L390.5625,613.8438 L390.5625,616 L383.1719,616 L383.1719,613.8438 L385.6406,613.8438 L385.6406,605.7656 L383.1719,605.7656 Z " fill="#000000"/><text fill="#000000" font-family="sans-serif" font-size="14" font-style="italic" lengthAdjust="spacing" textLength="73" x="407.75" y="614.8467">SinkServer</text><line style="stroke:#181818;stroke-width:0.5;" x1="332.5" x2="523.5" y1="626" y2="626"/><line style="stroke:#181818;stroke-width:0.5;" x1="332.5" x2="523.5" y1="634" y2="634"/><ellipse cx="342.5" cy="647.6484" fill="#84BE84" rx="3" ry="3" style="stroke:#038048;stroke-width:1.0;"/><text fill="#000000" font-family="sans-serif" font-size="14" lengthAdjust="spacing" textLength="167" x="351.5" y="650.9951">error SendTo(*AppData)</text><ellipse cx="342.5" cy="663.9453" fill="#84BE84" rx="3" ry="3" style="stroke:#038048;stroke-width:1.0;"/><text fill="#000000" font-family="sans-serif" font-size="14" lengthAdjust="spacing" textLength="86" x="351.5" y="667.292">error Serve()</text></g><!--class PipeServer--><g id="elem_PipeServer"><rect codeLine="43" fill="#F1F1F1" height="96.8906" id="PipeServer" rx="2.5" ry="2.5" style="stroke:#181818;stroke-width:0.5;" width="228" x="823" y="586"/><ellipse cx="895.75" cy="602" fill="#B4A7E5" rx="11" ry="11" style="stroke:#181818;stroke-width:1.0;"/><path d="M891.6719,597.7656 L891.6719,595.6094 L899.0625,595.6094 L899.0625,597.7656 L896.5938,597.7656 L896.5938,605.8438 L899.0625,605.8438 L899.0625,608 L891.6719,608 L891.6719,605.8438 L894.1406,605.8438 L894.1406,597.7656 L891.6719,597.7656 Z " fill="#000000"/><text fill="#000000" font-family="sans-serif" font-size="14" font-style="italic" lengthAdjust="spacing" textLength="74" x="916.25" y="606.8467">PipeServer</text><line style="stroke:#181818;stroke-width:0.5;" x1="824" x2="1050" y1="618" y2="618"/><line style="stroke:#181818;stroke-width:0.5;" x1="824" x2="1050" y1="626" y2="626"/><ellipse cx="834" cy="639.6484" fill="#84BE84" rx="3" ry="3" style="stroke:#038048;stroke-width:1.0;"/><text fill="#000000" font-family="sans-serif" font-size="14" lengthAdjust="spacing" textLength="202" x="843" y="642.9951">error AddPushable(Pushable)</text><ellipse cx="834" cy="655.9453" fill="#84BE84" rx="3" ry="3" style="stroke:#038048;stroke-width:1.0;"/><text fill="#000000" font-family="sans-serif" font-size="14" lengthAdjust="spacing" textLength="167" x="843" y="659.292">error SendTo(*AppData)</text><ellipse cx="834" cy="672.2422" fill="#84BE84" rx="3" ry="3" style="stroke:#038048;stroke-width:1.0;"/><text fill="#000000" font-family="sans-serif" font-size="14" lengthAdjust="spacing" textLength="86" x="843" y="675.5889">error Serve()</text></g><!--class Producer--><g id="elem_Producer"><rect codeLine="48" fill="#F1F1F1" height="96.8906" id="Producer" rx="2.5" ry="2.5" style="stroke:#181818;stroke-width:0.5;" width="221" x="283.5" y="759"/><ellipse cx="358.25" cy="775" fill="#B4A7E5" rx="11" ry="11" style="stroke:#181818;stroke-width:1.0;"/><path d="M354.1719,770.7656 L354.1719,768.6094 L361.5625,768.6094 L361.5625,770.7656 L359.0938,770.7656 L359.0938,778.8438 L361.5625,778.8438 L361.5625,781 L354.1719,781 L354.1719,778.8438 L356.6406,778.8438 L356.6406,770.7656 L354.1719,770.7656 Z " fill="#000000"/><text fill="#000000" font-family="sans-serif" font-size="14" font-style="italic" lengthAdjust="spacing" textLength="63" x="378.75" y="779.8467">Producer</text><line style="stroke:#181818;stroke-width:0.5;" x1="284.5" x2="503.5" y1="791" y2="791"/><line style="stroke:#181818;stroke-width:0.5;" x1="284.5" x2="503.5" y1="799" y2="799"/><ellipse cx="294.5" cy="812.6484" fill="#84BE84" rx="3" ry="3" style="stroke:#038048;stroke-width:1.0;"/><text fill="#000000" font-family="sans-serif" font-size="14" lengthAdjust="spacing" textLength="195" x="303.5" y="815.9951">error Setup(ProducerConfig)</text><ellipse cx="294.5" cy="828.9453" fill="#84BE84" rx="3" ry="3" style="stroke:#038048;stroke-width:1.0;"/><text fill="#000000" font-family="sans-serif" font-size="14" lengthAdjust="spacing" textLength="167" x="303.5" y="832.292">error SendTo(*AppData)</text><ellipse cx="294.5" cy="845.2422" fill="#84BE84" rx="3" ry="3" style="stroke:#038048;stroke-width:1.0;"/><text fill="#000000" font-family="sans-serif" font-size="14" lengthAdjust="spacing" textLength="86" x="303.5" y="848.5889">error Serve()</text></g><!--class Consumer--><g id="elem_Consumer"><rect codeLine="53" fill="#F1F1F1" height="96.8906" id="Consumer" rx="2.5" ry="2.5" style="stroke:#181818;stroke-width:0.5;" width="230" x="559" y="759"/><ellipse cx="633.75" cy="775" fill="#B4A7E5" rx="11" ry="11" style="stroke:#181818;stroke-width:1.0;"/><path d="M629.6719,770.7656 L629.6719,768.6094 L637.0625,768.6094 L637.0625,770.7656 L634.5938,770.7656 L634.5938,778.8438 L637.0625,778.8438 L637.0625,781 L629.6719,781 L629.6719,778.8438 L632.1406,778.8438 L632.1406,770.7656 L629.6719,770.7656 Z " fill="#000000"/><text fill="#000000" font-family="sans-serif" font-size="14" font-style="italic" lengthAdjust="spacing" textLength="72" x="654.25" y="779.8467">Consumer</text><line style="stroke:#181818;stroke-width:0.5;" x1="560" x2="788" y1="791" y2="791"/><line style="stroke:#181818;stroke-width:0.5;" x1="560" x2="788" y1="799" y2="799"/><ellipse cx="570" cy="812.6484" fill="#84BE84" rx="3" ry="3" style="stroke:#038048;stroke-width:1.0;"/><text fill="#000000" font-family="sans-serif" font-size="14" lengthAdjust="spacing" textLength="202" x="579" y="815.9951">error AddPushable(Pushable)</text><ellipse cx="570" cy="828.9453" fill="#84BE84" rx="3" ry="3" style="stroke:#038048;stroke-width:1.0;"/><text fill="#000000" font-family="sans-serif" font-size="14" lengthAdjust="spacing" textLength="204" x="579" y="832.292">error Setup(ConsumerConfig)</text><ellipse cx="570" cy="845.2422" fill="#84BE84" rx="3" ry="3" style="stroke:#038048;stroke-width:1.0;"/><text fill="#000000" font-family="sans-serif" font-size="14" lengthAdjust="spacing" textLength="86" x="579" y="848.5889">error Serve()</text></g><!--class MapSinkServer--><g id="elem_MapSinkServer"><rect codeLine="58" fill="#F1F1F1" height="96.8906" id="MapSinkServer" rx="2.5" ry="2.5" style="stroke:#181818;stroke-width:0.5;" width="274" x="22" y="586"/><ellipse cx="103.75" cy="602" fill="#F1F1F1" rx="11" ry="11" style="stroke:#181818;stroke-width:1.0;"/><path d="M103.2344,602.5625 Q101.375,601.8594 100.7188,601.0938 Q100.0781,600.3125 100.0781,599 Q100.0781,597.3125 101.1563,596.3438 Q102.2344,595.375 104.1094,595.375 Q104.9688,595.375 105.8125,595.5781 Q106.6719,595.7656 107.5156,596.1563 L107.5156,598.5469 Q106.7344,597.9844 105.9063,597.7031 Q105.0938,597.4063 104.2969,597.4063 Q103.4219,597.4063 102.9375,597.7656 Q102.4688,598.125 102.4688,598.7813 Q102.4688,599.2969 102.8125,599.6406 Q103.1563,599.9688 104.25,600.375 L105.3125,600.7813 Q106.7969,601.3281 107.5,602.2344 Q108.2188,603.1406 108.2188,604.5156 Q108.2188,606.3906 107.1094,607.3125 Q106,608.2344 103.75,608.2344 Q102.8281,608.2344 101.9063,608.0156 Q100.9844,607.7969 100.125,607.375 L100.125,604.8438 Q101.0938,605.5313 102.0156,605.875 Q102.9375,606.2188 103.8281,606.2188 Q104.7344,606.2188 105.2344,605.8125 Q105.7344,605.3906 105.7344,604.6563 Q105.7344,604.0938 105.3906,603.6875 Q105.0625,603.2656 104.4375,603.0156 L103.2344,602.5625 Z " fill="#000000"/><text fill="#000000" font-family="sans-serif" font-size="14" lengthAdjust="spacing" textLength="102" x="124.25" y="606.8467">MapSinkServer</text><line style="stroke:#181818;stroke-width:0.5;" x1="23" x2="295" y1="618" y2="618"/><rect fill="none" height="6" style="stroke:#C82930;stroke-width:1.0;" width="6" x="30" y="628.6484"/><text fill="#000000" font-family="sans-serif" font-size="14" lengthAdjust="spacing" textLength="248" x="42" y="634.9951">map[string]SinkServer producerMap</text><line style="stroke:#181818;stroke-width:0.5;" x1="23" x2="295" y1="642.2969" y2="642.2969"/><ellipse cx="33" cy="655.9453" fill="#84BE84" rx="3" ry="3" style="stroke:#038048;stroke-width:1.0;"/><text fill="#000000" font-family="sans-serif" font-size="14" lengthAdjust="spacing" textLength="167" x="42" y="659.292">error SendTo(*AppData)</text><ellipse cx="33" cy="672.2422" fill="#84BE84" rx="3" ry="3" style="stroke:#038048;stroke-width:1.0;"/><text fill="#000000" font-family="sans-serif" font-size="14" lengthAdjust="spacing" textLength="86" x="42" y="675.5889">error Serve()</text></g><!--class ConsumerServer--><g id="elem_ConsumerServer"><rect codeLine="63" fill="#F1F1F1" height="96.8906" id="ConsumerServer" rx="2.5" ry="2.5" style="stroke:#181818;stroke-width:0.5;" width="288" x="730" y="932"/><ellipse cx="811.75" cy="948" fill="#F1F1F1" rx="11" ry="11" style="stroke:#181818;stroke-width:1.0;"/><path d="M811.2344,948.5625 Q809.375,947.8594 808.7188,947.0938 Q808.0781,946.3125 808.0781,945 Q808.0781,943.3125 809.1563,942.3438 Q810.2344,941.375 812.1094,941.375 Q812.9688,941.375 813.8125,941.5781 Q814.6719,941.7656 815.5156,942.1563 L815.5156,944.5469 Q814.7344,943.9844 813.9063,943.7031 Q813.0938,943.4063 812.2969,943.4063 Q811.4219,943.4063 810.9375,943.7656 Q810.4688,944.125 810.4688,944.7813 Q810.4688,945.2969 810.8125,945.6406 Q811.1563,945.9688 812.25,946.375 L813.3125,946.7813 Q814.7969,947.3281 815.5,948.2344 Q816.2188,949.1406 816.2188,950.5156 Q816.2188,952.3906 815.1094,953.3125 Q814,954.2344 811.75,954.2344 Q810.8281,954.2344 809.9063,954.0156 Q808.9844,953.7969 808.125,953.375 L808.125,950.8438 Q809.0938,951.5313 810.0156,951.875 Q810.9375,952.2188 811.8281,952.2188 Q812.7344,952.2188 813.2344,951.8125 Q813.7344,951.3906 813.7344,950.6563 Q813.7344,950.0938 813.3906,949.6875 Q813.0625,949.2656 812.4375,949.0156 L811.2344,948.5625 Z " fill="#000000"/><text fill="#000000" font-family="sans-serif" font-size="14" lengthAdjust="spacing" textLength="116" x="832.25" y="952.8467">ConsumerServer</text><line style="stroke:#181818;stroke-width:0.5;" x1="731" x2="1017" y1="964" y2="964"/><rect fill="none" height="6" style="stroke:#C82930;stroke-width:1.0;" width="6" x="738" y="974.6484"/><text fill="#000000" font-family="sans-serif" font-size="14" lengthAdjust="spacing" textLength="262" x="750" y="980.9951">map[string]Consumer consumersMap</text><line style="stroke:#181818;stroke-width:0.5;" x1="731" x2="1017" y1="988.2969" y2="988.2969"/><ellipse cx="741" cy="1001.9453" fill="#84BE84" rx="3" ry="3" style="stroke:#038048;stroke-width:1.0;"/><text fill="#000000" font-family="sans-serif" font-size="14" lengthAdjust="spacing" textLength="202" x="750" y="1005.292">error AddPushable(Pushable)</text><ellipse cx="741" cy="1018.2422" fill="#84BE84" rx="3" ry="3" style="stroke:#038048;stroke-width:1.0;"/><text fill="#000000" font-family="sans-serif" font-size="14" lengthAdjust="spacing" textLength="86" x="750" y="1021.5889">error Serve()</text></g><!--class ProducerConfig--><g id="elem_ProducerConfig"><rect codeLine="68" fill="#F1F1F1" height="64.2969" id="ProducerConfig" rx="2.5" ry="2.5" style="stroke:#181818;stroke-width:0.5;" width="184" x="292" y="948.5"/><ellipse cx="327.25" cy="964.5" fill="#B4A7E5" rx="11" ry="11" style="stroke:#181818;stroke-width:1.0;"/><path d="M323.1719,960.2656 L323.1719,958.1094 L330.5625,958.1094 L330.5625,960.2656 L328.0938,960.2656 L328.0938,968.3438 L330.5625,968.3438 L330.5625,970.5 L323.1719,970.5 L323.1719,968.3438 L325.6406,968.3438 L325.6406,960.2656 L323.1719,960.2656 Z " fill="#000000"/><text fill="#000000" font-family="sans-serif" font-size="14" font-style="italic" lengthAdjust="spacing" textLength="107" x="345.75" y="969.3467">ProducerConfig</text><line style="stroke:#181818;stroke-width:0.5;" x1="293" x2="475" y1="980.5" y2="980.5"/><line style="stroke:#181818;stroke-width:0.5;" x1="293" x2="475" y1="988.5" y2="988.5"/><ellipse cx="303" cy="1002.1484" fill="#84BE84" rx="3" ry="3" style="stroke:#038048;stroke-width:1.0;"/><text fill="#000000" font-family="sans-serif" font-size="14" lengthAdjust="spacing" textLength="158" x="312" y="1005.4951">error IngestConfig(any)</text></g><!--class ConsumerConfig--><g id="elem_ConsumerConfig"><rect codeLine="71" fill="#F1F1F1" height="64.2969" id="ConsumerConfig" rx="2.5" ry="2.5" style="stroke:#181818;stroke-width:0.5;" width="184" x="511" y="948.5"/><ellipse cx="542.2" cy="964.5" fill="#B4A7E5" rx="11" ry="11" style="stroke:#181818;stroke-width:1.0;"/><path d="M538.1219,960.2656 L538.1219,958.1094 L545.5125,958.1094 L545.5125,960.2656 L543.0438,960.2656 L543.0438,968.3438 L545.5125,968.3438 L545.5125,970.5 L538.1219,970.5 L538.1219,968.3438 L540.5906,968.3438 L540.5906,960.2656 L538.1219,960.2656 Z " fill="#000000"/><text fill="#000000" font-family="sans-serif" font-size="14" font-style="italic" lengthAdjust="spacing" textLength="116" x="559.8" y="969.3467">ConsumerConfig</text><line style="stroke:#181818;stroke-width:0.5;" x1="512" x2="694" y1="980.5" y2="980.5"/><line style="stroke:#181818;stroke-width:0.5;" x1="512" x2="694" y1="988.5" y2="988.5"/><ellipse cx="522" cy="1002.1484" fill="#84BE84" rx="3" ry="3" style="stroke:#038048;stroke-width:1.0;"/><text fill="#000000" font-family="sans-serif" font-size="14" lengthAdjust="spacing" textLength="158" x="531" y="1005.4951">error IngestConfig(any)</text></g><!--reverse link CompletionHandler to WaitGroupCompletionHandler--><g id="link_CompletionHandler_WaitGroupCompletionHandler"><path codeLine="75" d="M654.0436,117.2683 C635.1736,134.6583 624.32,144.65 602.32,164.93 " fill="none" id="CompletionHandler-backto-WaitGroupCompletionHandler" style="stroke:#181818;stroke-width:1.0;"/><polygon fill="none" points="667.28,105.07,649.9775,112.8561,658.1097,121.6804,667.28,105.07" style="stroke:#181818;stroke-width:1.0;"/></g><!--reverse link CompletionHandler to AppData--><g id="link_CompletionHandler_AppData"><path codeLine="76" d="M743.5443,113.2022 C762.4143,130.5922 777.68,144.65 799.68,164.93 " fill="none" id="CompletionHandler-backto-AppData" style="stroke:#181818;stroke-width:1.0;"/><polygon fill="#181818" points="734.72,105.07,736.4214,112.0775,743.5443,113.2022,741.8429,106.1947,734.72,105.07" style="stroke:#181818;stroke-width:1.0;"/></g><!--reverse link AppData to Pushable--><g id="link_AppData_Pushable"><path codeLine="77" d="M860,290.3 C860,310.52 860,320.62 860,337.94 " fill="none" id="AppData-backto-Pushable" style="stroke:#181818;stroke-width:1.0;"/><polygon fill="#181818" points="860,278.3,856,284.3,860,290.3,864,284.3,860,278.3" style="stroke:#181818;stroke-width:1.0;"/></g><!--reverse link Server to SourceServer--><g id="link_Server_SourceServer"><path codeLine="78" d="M643.9942,543.1623 C650.6442,563.1823 653.68,572.31 660.82,593.82 " fill="none" id="Server-backto-SourceServer" style="stroke:#181818;stroke-width:1.0;"/><polygon fill="none" points="638.32,526.08,638.3001,545.0537,649.6883,541.2709,638.32,526.08" style="stroke:#181818;stroke-width:1.0;"/></g><!--reverse link Pushable to Pullable--><g id="link_Pushable_Pullable"><path codeLine="79" d="M850.5229,413.8156 C846.4529,432.1756 843.93,443.61 839.87,461.96 " fill="none" id="Pushable-backto-Pullable" style="stroke:#181818;stroke-width:1.0;"/><polygon fill="#181818" points="853.12,402.1,847.9163,407.0921,850.5229,413.8156,855.7267,408.8235,853.12,402.1" style="stroke:#181818;stroke-width:1.0;"/></g><!--reverse link Pullable to SourceServer--><g id="link_Pullable_SourceServer"><path codeLine="80" d="M783.748,537.9038 C760.768,557.9238 744.25,572.31 719.55,593.82 " fill="none" id="Pullable-backto-SourceServer" style="stroke:#181818;stroke-width:1.0;"/><polygon fill="none" points="797.32,526.08,779.8068,533.3798,787.6893,542.4278,797.32,526.08" style="stroke:#181818;stroke-width:1.0;"/></g><!--reverse link Server to SinkServer--><g id="link_Server_SinkServer"><path codeLine="81" d="M568.3218,536.3276 C539.4118,556.3476 516.37,572.31 485.29,593.82 " fill="none" id="Server-backto-SinkServer" style="stroke:#181818;stroke-width:1.0;"/><polygon fill="none" points="583.12,526.08,564.9059,531.3949,571.7377,541.2604,583.12,526.08" style="stroke:#181818;stroke-width:1.0;"/></g><!--reverse link Pushable to SinkServer--><g id="link_Pushable_SinkServer"><path codeLine="82" d="M745.6921,386.9271 C681.9821,398.9471 616.86,418.61 555,462 C506.32,496.15 468.76,554.89 447.51,593.96 " fill="none" id="Pushable-backto-SinkServer" style="stroke:#181818;stroke-width:1.0;"/><polygon fill="none" points="763.38,383.59,744.5797,381.0312,746.8044,392.8231,763.38,383.59" style="stroke:#181818;stroke-width:1.0;"/></g><!--reverse link Pushable to PipeServer--><g id="link_Pushable_PipeServer"><path codeLine="83" d="M926.6314,412.8146 C947.1014,428.0446 953.88,437.64 965,462 C982.92,501.24 972.08,550.16 959.02,585.69 " fill="none" id="Pushable-backto-PipeServer" style="stroke:#181818;stroke-width:1.0;"/><polygon fill="none" points="912.19,402.07,923.0498,417.6284,930.2129,408.0008,912.19,402.07" style="stroke:#181818;stroke-width:1.0;"/></g><!--reverse link Pullable to PipeServer--><g id="link_Pullable_PipeServer"><path codeLine="84" d="M867.1439,540.4771 C880.3739,558.1071 886.41,566.13 901.28,585.93 " fill="none" id="Pullable-backto-PipeServer" style="stroke:#181818;stroke-width:1.0;"/><polygon fill="none" points="856.34,526.08,862.3449,544.0784,871.9429,536.8758,856.34,526.08" style="stroke:#181818;stroke-width:1.0;"/></g><!--reverse link Server to PipeServer--><g id="link_Server_PipeServer"><path codeLine="85" d="M700.745,527.6035 C741.565,545.9035 781.57,563.83 830.75,585.88 " fill="none" id="Server-backto-PipeServer" style="stroke:#181818;stroke-width:1.0;"/><polygon fill="none" points="684.32,520.24,698.2905,533.0785,703.1995,522.1285,684.32,520.24" style="stroke:#181818;stroke-width:1.0;"/></g><!--reverse link SinkServer to Producer--><g id="link_SinkServer_Producer"><path codeLine="87" d="M416.6017,692.8148 C411.6417,717.7748 408.72,732.48 403.48,758.84 " fill="none" id="SinkServer-backto-Producer" style="stroke:#181818;stroke-width:1.0;"/><polygon fill="none" points="420.11,675.16,410.7167,691.6454,422.4866,693.9842,420.11,675.16" style="stroke:#181818;stroke-width:1.0;"/></g><!--link MapSinkServer to SinkServer--><g id="link_MapSinkServer_SinkServer"><path codeLine="88" d="M296.13,670.86 C307.89,670.74 307.7881,671.5956 319.5481,669.7956 " fill="none" id="MapSinkServer-to-SinkServer" style="stroke:#181818;stroke-width:1.0;"/><polygon fill="#181818" points="331.41,667.98,324.8739,664.9338,319.5481,669.7956,326.0843,672.8417,331.41,667.98" style="stroke:#181818;stroke-width:1.0;"/></g><!--link MapSinkServer to SinkServer--><g id="link_MapSinkServer_SinkServer"><path codeLine="89" d="M296.13,598.14 C307.89,598.26 301.8572,596.4966 313.6172,598.2966 " fill="none" id="MapSinkServer-to-SinkServer-1" style="stroke:#181818;stroke-width:1.0;"/><polygon fill="none" points="331.41,601.02,314.525,592.3657,312.7094,604.2275,331.41,601.02" style="stroke:#181818;stroke-width:1.0;"/></g><!--reverse link SourceServer to ConsumerServer--><g id="link_SourceServer_ConsumerServer"><path codeLine="90" d="M794.2853,685.2192 C804.6253,692.3092 799.28,690.4 807,700 C861.17,767.37 872.71,871.56 874.51,931.89 " fill="none" id="SourceServer-backto-ConsumerServer" style="stroke:#181818;stroke-width:1.0;"/><polygon fill="none" points="779.44,675.04,790.8922,690.1677,797.6784,680.2708,779.44,675.04" style="stroke:#181818;stroke-width:1.0;"/></g><!--reverse link Consumer to ConsumerServer--><g id="link_Consumer_ConsumerServer"><path codeLine="91" d="M738.8313,863.9275 C766.4613,887.5475 790.61,908.2 818.24,931.83 " fill="none" id="Consumer-backto-ConsumerServer" style="stroke:#181818;stroke-width:1.0;"/><polygon fill="#181818" points="729.71,856.13,731.6715,863.0692,738.8313,863.9275,736.8698,856.9883,729.71,856.13" style="stroke:#181818;stroke-width:1.0;"/></g><!--reverse link SourceServer to Consumer--><g id="link_SourceServer_Consumer"><path codeLine="92" d="M674,693.16 C674,718.12 674,732.48 674,758.84 " fill="none" id="SourceServer-backto-Consumer" style="stroke:#181818;stroke-width:1.0;"/><polygon fill="none" points="674,675.16,668,693.16,680,693.16,674,675.16" style="stroke:#181818;stroke-width:1.0;"/></g><!--reverse link PipeServer to JQTransformer--><g id="link_PipeServer_JQTransformer"><path codeLine="94" d="M1052.7073,691.6125 C1063.0073,697.0825 1057.34,694.31 1067,700 C1089.12,713.04 1112.25,728.18 1133.67,742.87 " fill="none" id="PipeServer-backto-JQTransformer" style="stroke:#181818;stroke-width:1.0;"/><polygon fill="none" points="1036.81,683.17,1049.8931,696.9116,1055.5215,686.3134,1036.81,683.17" style="stroke:#181818;stroke-width:1.0;"/></g><!--reverse link Pushable to JQTransformer--><g id="link_Pushable_JQTransformer"><path codeLine="95" d="M916.1891,409.1708 C938.9991,425.5908 956.4,439.88 978,462 C1063.65,549.71 1141.25,670.13 1184.66,742.9 " fill="none" id="Pushable-backto-JQTransformer" style="stroke:#181818;stroke-width:1.0;"/><polygon fill="#181818" points="906.45,402.16,908.9826,408.9117,916.1891,409.1708,913.6564,402.419,906.45,402.16" style="stroke:#181818;stroke-width:1.0;"/></g><!--link Consumer to ConsumerConfig--><g id="link_Consumer_ConsumerConfig"><path codeLine="98" d="M654.22,856.13 C642,885.58 631.251,911.4571 620.561,937.2071 " fill="none" id="Consumer-to-ConsumerConfig" style="stroke:#181818;stroke-width:1.0;"/><polygon fill="#181818" points="615.96,948.29,621.9548,944.2822,620.561,937.2071,614.5662,941.2149,615.96,948.29" style="stroke:#181818;stroke-width:1.0;"/></g><!--link Producer to ProducerConfig--><g id="link_Producer_ProducerConfig"><path codeLine="99" d="M391.21,856.13 C389.49,885.58 388.0325,910.5606 386.5225,936.3106 " fill="none" id="Producer-to-ProducerConfig" style="stroke:#181818;stroke-width:1.0;"/><polygon fill="#181818" points="385.82,948.29,390.1644,942.5345,386.5225,936.3106,382.1781,942.0661,385.82,948.29" style="stroke:#181818;stroke-width:1.0;"/></g><!--SRC=[hLR9Rjim4BtpAtXKd4XVq4lW5bc0j2uS88UW1qQYLIKIoL1acy3nlrSBAN6JuaJLmQ1ctioyMJWMGHMk6KenlDx- -FxjHN2K2ihX7i3cgGMNgO3NFsyv8lMEyWfhLVl4ENryJjOqm_3nUSDfpb4rAZUo_eqUIWoPEWogKynv4-CyopGcqeSJ5xJ59BkbqUgSiQz8e82U_y5HBpw00o13Gfr6qos8m7pNYjUqOYKM1IMNY6IbbP3ogI0uGkJr37Oo7S2eoXqgn0MdairvZEjNaYO35FxDHrNZ7MPDJgEa3z_zVewJgf99m8jowlDDNSa8Riqli6YzHYTpFXgG9unCYcCBhCvCzjAssSYoxAPfV_mO-JxKHEwFcZAFDfKynLFaZvpcwGot1NcQhin7Re6JTS6MabuGdDDCfk6KX6IHrgyfsHNvVmtTkAnbjI3hbfzsCidFZQykuWrYmNx65MBt3QOW-Iy3m5GP6hFb9L0KDFLP3aEHKdMe0nGMZxRTPRyXLoJ7jUYrxOARR-X7lHn0NuB4NrfVtk9OhQDaUfzFswz6SzKVOB-Q25qw3L6DCJcOAmOuPhQhVXi2v_rTPw6OmnXw4Jy16xVDB3SV5c1cW837maQg0Gl0Ld69Ts90MXSpxFK8lFbFOFAmxnnmf6O7myXt7G-5CBPwXxC-tnBhYoquI7Duu19NDsuLI-OpSbeGmchTFm00]--></g></svg>