<?xml version="1.0" encoding="us-ascii" standalone="no"?><svg xmlns="http://www.w3.org/2000/svg" xmlns:xlink="http://www.w3.org/1999/xlink" contentStyleType="text/css" height="1442px" preserveAspectRatio="none" style="width:1384px;height:1442px;background:#FFFFFF;" version="1.1" viewBox="0 0 1384 1442" width="1384px" zoomAndPan="magnify"><defs/><g><!--cluster JSONExtractor--><g id="cluster_JSONExtractor"><path d="M1127.5,692 L1237.5,692 A3.75,3.75 0 0 1 1240,694.5 L1247,714.2969 L1374.5,714.2969 A2.5,2.5 0 0 1 1377,716.7969 L1377,886.5 A2.5,2.5 0 0 1 1374.5,889 L1127.5,889 A2.5,2.5 0 0 1 1125,886.5 L1125,694.5 A2.5,2.5 0 0 1 1127.5,692 " fill="none" style="stroke:#000000;stroke-width:1.5;"/><line style="stroke:#000000;stroke-width:1.5;" x1="1125" x2="1247" y1="714.2969" y2="714.2969"/><text fill="#000000" font-family="sans-serif" font-size="14" font-weight="bold" lengthAdjust="spacing" textLength="109" x="1129" y="706.9951">JSONExtractor</text></g><!--cluster Server--><g id="cluster_Server"><path d="M8.5,6 L62.5,6 A3.75,3.75 0 0 1 65,8.5 L72,28.2969 L1098.5,28.2969 A2.5,2.5 0 0 1 1101,30.7969 L1101,1432.5 A2.5,2.5 0 0 1 1098.5,1435 L8.5,1435 A2.5,2.5 0 0 1 6,1432.5 L6,8.5 A2.5,2.5 0 0 1 8.5,6 " fill="none" style="stroke:#000000;stroke-width:1.5;"/><line style="stroke:#000000;stroke-width:1.5;" x1="6" x2="72" y1="28.2969" y2="28.2969"/><text fill="#000000" font-family="sans-serif" font-size="14" font-weight="bold" lengthAdjust="spacing" textLength="53" x="10" y="20.9951">Server</text></g><!--class JQTransformer--><g id="elem_JQTransformer"><rect codeLine="2" fill="#F1F1F1" height="145.7813" id="JQTransformer" rx="2.5" ry="2.5" style="stroke:#181818;stroke-width:0.5;" width="220" x="1141" y="727"/><ellipse cx="1197.75" cy="743" fill="#F1F1F1" rx="11" ry="11" style="stroke:#181818;stroke-width:1.0;"/><path d="M1197.2344,743.5625 Q1195.375,742.8594 1194.7188,742.0938 Q1194.0781,741.3125 1194.0781,740 Q1194.0781,738.3125 1195.1563,737.3438 Q1196.2344,736.375 1198.1094,736.375 Q1198.9688,736.375 1199.8125,736.5781 Q1200.6719,736.7656 1201.5156,737.1563 L1201.5156,739.5469 Q1200.7344,738.9844 1199.9063,738.7031 Q1199.0938,738.4063 1198.2969,738.4063 Q1197.4219,738.4063 1196.9375,738.7656 Q1196.4688,739.125 1196.4688,739.7813 Q1196.4688,740.2969 1196.8125,740.6406 Q1197.1563,740.9688 1198.25,741.375 L1199.3125,741.7813 Q1200.7969,742.3281 1201.5,743.2344 Q1202.2188,744.1406 1202.2188,745.5156 Q1202.2188,747.3906 1201.1094,748.3125 Q1200,749.2344 1197.75,749.2344 Q1196.8281,749.2344 1195.9063,749.0156 Q1194.9844,748.7969 1194.125,748.375 L1194.125,745.8438 Q1195.0938,746.5313 1196.0156,746.875 Q1196.9375,747.2188 1197.8281,747.2188 Q1198.7344,747.2188 1199.2344,746.8125 Q1199.7344,746.3906 1199.7344,745.6563 Q1199.7344,745.0938 1199.3906,744.6875 Q1199.0625,744.2656 1198.4375,744.0156 L1197.2344,743.5625 Z " fill="#000000"/><text fill="#000000" font-family="sans-serif" font-size="14" lengthAdjust="spacing" textLength="98" x="1218.25" y="747.8467">JQTransformer</text><line style="stroke:#181818;stroke-width:0.5;" x1="1142" x2="1360" y1="759" y2="759"/><rect fill="none" height="6" style="stroke:#C82930;stroke-width:1.0;" width="6" x="1149" y="769.6484"/><text fill="#000000" font-family="sans-serif" font-size="14" lengthAdjust="spacing" textLength="96" x="1161" y="775.9951">string jqQuery</text><rect fill="none" height="6" style="stroke:#C82930;stroke-width:1.0;" width="6" x="1149" y="785.9453"/><text fill="#000000" font-family="sans-serif" font-size="14" lengthAdjust="spacing" textLength="111" x="1161" y="792.292">Code jqProgram</text><rect fill="none" height="6" style="stroke:#C82930;stroke-width:1.0;" width="6" x="1149" y="802.2422"/><text fill="#000000" font-family="sans-serif" font-size="14" lengthAdjust="spacing" textLength="155" x="1161" y="808.5889">ChanReceiver receiver</text><line style="stroke:#181818;stroke-width:0.5;" x1="1142" x2="1360" y1="815.8906" y2="815.8906"/><ellipse cx="1152" cy="829.5391" fill="#84BE84" rx="3" ry="3" style="stroke:#038048;stroke-width:1.0;"/><text fill="#000000" font-family="sans-serif" font-size="14" lengthAdjust="spacing" textLength="194" x="1161" y="832.8857">error AddReceiver(Receiver)</text><ellipse cx="1152" cy="845.8359" fill="#84BE84" rx="3" ry="3" style="stroke:#038048;stroke-width:1.0;"/><text fill="#000000" font-family="sans-serif" font-size="14" lengthAdjust="spacing" textLength="159" x="1161" y="849.1826">Receiver GetReceiver()</text><ellipse cx="1152" cy="862.1328" fill="#84BE84" rx="3" ry="3" style="stroke:#038048;stroke-width:1.0;"/><text fill="#000000" font-family="sans-serif" font-size="14" lengthAdjust="spacing" textLength="86" x="1161" y="865.4795">error Serve()</text></g><!--class CompletionHandler--><g id="elem_CompletionHandler"><rect codeLine="12" fill="#F1F1F1" height="64.2969" id="CompletionHandler" rx="2.5" ry="2.5" style="stroke:#181818;stroke-width:0.5;" width="205" x="488.5" y="41"/><ellipse cx="521.95" cy="57" fill="#B4A7E5" rx="11" ry="11" style="stroke:#181818;stroke-width:1.0;"/><path d="M517.8719,52.7656 L517.8719,50.6094 L525.2625,50.6094 L525.2625,52.7656 L522.7938,52.7656 L522.7938,60.8438 L525.2625,60.8438 L525.2625,63 L517.8719,63 L517.8719,60.8438 L520.3406,60.8438 L520.3406,52.7656 L517.8719,52.7656 Z " fill="#000000"/><text fill="#000000" font-family="sans-serif" font-size="14" font-style="italic" lengthAdjust="spacing" textLength="132" x="540.05" y="61.8467">CompletionHandler</text><line style="stroke:#181818;stroke-width:0.5;" x1="489.5" x2="692.5" y1="73" y2="73"/><line style="stroke:#181818;stroke-width:0.5;" x1="489.5" x2="692.5" y1="81" y2="81"/><ellipse cx="499.5" cy="94.6484" fill="#84BE84" rx="3" ry="3" style="stroke:#038048;stroke-width:1.0;"/><text fill="#000000" font-family="sans-serif" font-size="14" lengthAdjust="spacing" textLength="179" x="508.5" y="97.9951">error Complete(any, error)</text></g><!--class KafkaConsumerCompletionHandler--><g id="elem_KafkaConsumerCompletionHandler"><rect codeLine="15" fill="#F1F1F1" height="64.2969" id="KafkaConsumerCompletionHandler" rx="2.5" ry="2.5" style="stroke:#181818;stroke-width:0.5;" width="273" x="295.5" y="181.5"/><ellipse cx="310.5" cy="197.5" fill="#F1F1F1" rx="11" ry="11" style="stroke:#181818;stroke-width:1.0;"/><path d="M309.9844,198.0625 Q308.125,197.3594 307.4688,196.5938 Q306.8281,195.8125 306.8281,194.5 Q306.8281,192.8125 307.9063,191.8438 Q308.9844,190.875 310.8594,190.875 Q311.7188,190.875 312.5625,191.0781 Q313.4219,191.2656 314.2656,191.6563 L314.2656,194.0469 Q313.4844,193.4844 312.6563,193.2031 Q311.8438,192.9063 311.0469,192.9063 Q310.1719,192.9063 309.6875,193.2656 Q309.2188,193.625 309.2188,194.2813 Q309.2188,194.7969 309.5625,195.1406 Q309.9063,195.4688 311,195.875 L312.0625,196.2813 Q313.5469,196.8281 314.25,197.7344 Q314.9688,198.6406 314.9688,200.0156 Q314.9688,201.8906 313.8594,202.8125 Q312.75,203.7344 310.5,203.7344 Q309.5781,203.7344 308.6563,203.5156 Q307.7344,203.2969 306.875,202.875 L306.875,200.3438 Q307.8438,201.0313 308.7656,201.375 Q309.6875,201.7188 310.5781,201.7188 Q311.4844,201.7188 311.9844,201.3125 Q312.4844,200.8906 312.4844,200.1563 Q312.4844,199.5938 312.1406,199.1875 Q311.8125,198.7656 311.1875,198.5156 L309.9844,198.0625 Z " fill="#000000"/><text fill="#000000" font-family="sans-serif" font-size="14" lengthAdjust="spacing" textLength="241" x="324.5" y="202.3467">KafkaConsumerCompletionHandler</text><line style="stroke:#181818;stroke-width:0.5;" x1="296.5" x2="567.5" y1="213.5" y2="213.5"/><line style="stroke:#181818;stroke-width:0.5;" x1="296.5" x2="567.5" y1="221.5" y2="221.5"/><ellipse cx="306.5" cy="235.1484" fill="#84BE84" rx="3" ry="3" style="stroke:#038048;stroke-width:1.0;"/><text fill="#000000" font-family="sans-serif" font-size="14" lengthAdjust="spacing" textLength="179" x="315.5" y="238.4951">error Complete(any, error)</text></g><!--class AppData--><g id="elem_AppData"><rect codeLine="18" fill="#F1F1F1" height="96.8906" id="AppData" rx="2.5" ry="2.5" style="stroke:#181818;stroke-width:0.5;" width="292" x="604" y="165"/><ellipse cx="716.25" cy="181" fill="#F1F1F1" rx="11" ry="11" style="stroke:#181818;stroke-width:1.0;"/><path d="M715.7344,181.5625 Q713.875,180.8594 713.2188,180.0938 Q712.5781,179.3125 712.5781,178 Q712.5781,176.3125 713.6563,175.3438 Q714.7344,174.375 716.6094,174.375 Q717.4688,174.375 718.3125,174.5781 Q719.1719,174.7656 720.0156,175.1563 L720.0156,177.5469 Q719.2344,176.9844 718.4063,176.7031 Q717.5938,176.4063 716.7969,176.4063 Q715.9219,176.4063 715.4375,176.7656 Q714.9688,177.125 714.9688,177.7813 Q714.9688,178.2969 715.3125,178.6406 Q715.6563,178.9688 716.75,179.375 L717.8125,179.7813 Q719.2969,180.3281 720,181.2344 Q720.7188,182.1406 720.7188,183.5156 Q720.7188,185.3906 719.6094,186.3125 Q718.5,187.2344 716.25,187.2344 Q715.3281,187.2344 714.4063,187.0156 Q713.4844,186.7969 712.625,186.375 L712.625,183.8438 Q713.5938,184.5313 714.5156,184.875 Q715.4375,185.2188 716.3281,185.2188 Q717.2344,185.2188 717.7344,184.8125 Q718.2344,184.3906 718.2344,183.6563 Q718.2344,183.0938 717.8906,182.6875 Q717.5625,182.2656 716.9375,182.0156 L715.7344,181.5625 Z " fill="#000000"/><text fill="#000000" font-family="sans-serif" font-size="14" lengthAdjust="spacing" textLength="59" x="736.75" y="185.8467">AppData</text><line style="stroke:#181818;stroke-width:0.5;" x1="605" x2="895" y1="197" y2="197"/><rect fill="none" height="6" style="stroke:#C82930;stroke-width:1.0;" width="6" x="612" y="207.6484"/><text fill="#000000" font-family="sans-serif" font-size="14" lengthAdjust="spacing" textLength="58" x="624" y="213.9951">any data</text><ellipse cx="615" cy="226.9453" fill="none" rx="3" ry="3" style="stroke:#038048;stroke-width:1.0;"/><text fill="#000000" font-family="sans-serif" font-size="14" lengthAdjust="spacing" textLength="266" x="624" y="230.292">CompletionHandler completionHandler</text><line style="stroke:#181818;stroke-width:0.5;" x1="605" x2="895" y1="237.5938" y2="237.5938"/><ellipse cx="615" cy="251.2422" fill="#84BE84" rx="3" ry="3" style="stroke:#038048;stroke-width:1.0;"/><text fill="#000000" font-family="sans-serif" font-size="14" lengthAdjust="spacing" textLength="95" x="624" y="254.5889">any GetData()</text></g><!--class Receiver--><g id="elem_Receiver"><rect codeLine="23" fill="#F1F1F1" height="64.2969" id="Receiver" rx="2.5" ry="2.5" style="stroke:#181818;stroke-width:0.5;" width="187" x="656.5" y="322"/><ellipse cx="715.75" cy="338" fill="#B4A7E5" rx="11" ry="11" style="stroke:#181818;stroke-width:1.0;"/><path d="M711.6719,333.7656 L711.6719,331.6094 L719.0625,331.6094 L719.0625,333.7656 L716.5938,333.7656 L716.5938,341.8438 L719.0625,341.8438 L719.0625,344 L711.6719,344 L711.6719,341.8438 L714.1406,341.8438 L714.1406,333.7656 L711.6719,333.7656 Z " fill="#000000"/><text fill="#000000" font-family="sans-serif" font-size="14" font-style="italic" lengthAdjust="spacing" textLength="60" x="736.25" y="342.8467">Receiver</text><line style="stroke:#181818;stroke-width:0.5;" x1="657.5" x2="842.5" y1="354" y2="354"/><line style="stroke:#181818;stroke-width:0.5;" x1="657.5" x2="842.5" y1="362" y2="362"/><ellipse cx="667.5" cy="375.6484" fill="#84BE84" rx="3" ry="3" style="stroke:#038048;stroke-width:1.0;"/><text fill="#000000" font-family="sans-serif" font-size="14" lengthAdjust="spacing" textLength="161" x="676.5" y="378.9951">error Receive(AppData)</text></g><!--class ChanReceiver--><g id="elem_ChanReceiver"><rect codeLine="26" fill="#F1F1F1" height="80.5938" id="ChanReceiver" rx="2.5" ry="2.5" style="stroke:#181818;stroke-width:0.5;" width="193" x="891.5" y="578"/><ellipse cx="935.75" cy="594" fill="#F1F1F1" rx="11" ry="11" style="stroke:#181818;stroke-width:1.0;"/><path d="M935.2344,594.5625 Q933.375,593.8594 932.7188,593.0938 Q932.0781,592.3125 932.0781,591 Q932.0781,589.3125 933.1563,588.3438 Q934.2344,587.375 936.1094,587.375 Q936.9688,587.375 937.8125,587.5781 Q938.6719,587.7656 939.5156,588.1563 L939.5156,590.5469 Q938.7344,589.9844 937.9063,589.7031 Q937.0938,589.4063 936.2969,589.4063 Q935.4219,589.4063 934.9375,589.7656 Q934.4688,590.125 934.4688,590.7813 Q934.4688,591.2969 934.8125,591.6406 Q935.1563,591.9688 936.25,592.375 L937.3125,592.7813 Q938.7969,593.3281 939.5,594.2344 Q940.2188,595.1406 940.2188,596.5156 Q940.2188,598.3906 939.1094,599.3125 Q938,600.2344 935.75,600.2344 Q934.8281,600.2344 933.9063,600.0156 Q932.9844,599.7969 932.125,599.375 L932.125,596.8438 Q933.0938,597.5313 934.0156,597.875 Q934.9375,598.2188 935.8281,598.2188 Q936.7344,598.2188 937.2344,597.8125 Q937.7344,597.3906 937.7344,596.6563 Q937.7344,596.0938 937.3906,595.6875 Q937.0625,595.2656 936.4375,595.0156 L935.2344,594.5625 Z " fill="#000000"/><text fill="#000000" font-family="sans-serif" font-size="14" lengthAdjust="spacing" textLength="96" x="956.25" y="598.8467">ChanReceiver</text><line style="stroke:#181818;stroke-width:0.5;" x1="892.5" x2="1083.5" y1="610" y2="610"/><rect fill="none" height="6" style="stroke:#C82930;stroke-width:1.0;" width="6" x="899.5" y="620.6484"/><text fill="#000000" font-family="sans-serif" font-size="14" lengthAdjust="spacing" textLength="167" x="911.5" y="626.9951">chan AppData dataChan</text><line style="stroke:#181818;stroke-width:0.5;" x1="892.5" x2="1083.5" y1="634.2969" y2="634.2969"/><ellipse cx="902.5" cy="647.9453" fill="#84BE84" rx="3" ry="3" style="stroke:#038048;stroke-width:1.0;"/><text fill="#000000" font-family="sans-serif" font-size="14" lengthAdjust="spacing" textLength="161" x="911.5" y="651.292">error Receive(AppData)</text></g><!--class Server--><g id="elem_Server"><rect codeLine="30" fill="#F1F1F1" height="64.2969" id="Server" rx="2.5" ry="2.5" style="stroke:#181818;stroke-width:0.5;" width="112" x="483" y="446"/><ellipse cx="514.2" cy="462" fill="#B4A7E5" rx="11" ry="11" style="stroke:#181818;stroke-width:1.0;"/><path d="M510.1219,457.7656 L510.1219,455.6094 L517.5125,455.6094 L517.5125,457.7656 L515.0438,457.7656 L515.0438,465.8438 L517.5125,465.8438 L517.5125,468 L510.1219,468 L510.1219,465.8438 L512.5906,465.8438 L512.5906,457.7656 L510.1219,457.7656 Z " fill="#000000"/><text fill="#000000" font-family="sans-serif" font-size="14" font-style="italic" lengthAdjust="spacing" textLength="44" x="531.8" y="466.8467">Server</text><line style="stroke:#181818;stroke-width:0.5;" x1="484" x2="594" y1="478" y2="478"/><line style="stroke:#181818;stroke-width:0.5;" x1="484" x2="594" y1="486" y2="486"/><ellipse cx="494" cy="499.6484" fill="#84BE84" rx="3" ry="3" style="stroke:#038048;stroke-width:1.0;"/><text fill="#000000" font-family="sans-serif" font-size="14" lengthAdjust="spacing" textLength="86" x="503" y="502.9951">error Serve()</text></g><!--class Pullable--><g id="elem_Pullable"><rect codeLine="33" fill="#F1F1F1" height="64.2969" id="Pullable" rx="2.5" ry="2.5" style="stroke:#181818;stroke-width:0.5;" width="227" x="220.5" y="446"/><ellipse cx="303.25" cy="462" fill="#B4A7E5" rx="11" ry="11" style="stroke:#181818;stroke-width:1.0;"/><path d="M299.1719,457.7656 L299.1719,455.6094 L306.5625,455.6094 L306.5625,457.7656 L304.0938,457.7656 L304.0938,465.8438 L306.5625,465.8438 L306.5625,468 L299.1719,468 L299.1719,465.8438 L301.6406,465.8438 L301.6406,457.7656 L299.1719,457.7656 Z " fill="#000000"/><text fill="#000000" font-family="sans-serif" font-size="14" font-style="italic" lengthAdjust="spacing" textLength="53" x="323.75" y="466.8467">Pullable</text><line style="stroke:#181818;stroke-width:0.5;" x1="221.5" x2="446.5" y1="478" y2="478"/><line style="stroke:#181818;stroke-width:0.5;" x1="221.5" x2="446.5" y1="486" y2="486"/><ellipse cx="231.5" cy="499.6484" fill="#84BE84" rx="3" ry="3" style="stroke:#038048;stroke-width:1.0;"/><text fill="#000000" font-family="sans-serif" font-size="14" lengthAdjust="spacing" textLength="201" x="240.5" y="502.9951">error AddReceiver(*Receiver)</text></g><!--class Pushable--><g id="elem_Pushable"><rect codeLine="36" fill="#F1F1F1" height="64.2969" id="Pushable" rx="2.5" ry="2.5" style="stroke:#181818;stroke-width:0.5;" width="185" x="657.5" y="446"/><ellipse cx="713.75" cy="462" fill="#B4A7E5" rx="11" ry="11" style="stroke:#181818;stroke-width:1.0;"/><path d="M709.6719,457.7656 L709.6719,455.6094 L717.0625,455.6094 L717.0625,457.7656 L714.5938,457.7656 L714.5938,465.8438 L717.0625,465.8438 L717.0625,468 L709.6719,468 L709.6719,465.8438 L712.1406,465.8438 L712.1406,457.7656 L709.6719,457.7656 Z " fill="#000000"/><text fill="#000000" font-family="sans-serif" font-size="14" font-style="italic" lengthAdjust="spacing" textLength="64" x="734.25" y="466.8467">Pushable</text><line style="stroke:#181818;stroke-width:0.5;" x1="658.5" x2="841.5" y1="478" y2="478"/><line style="stroke:#181818;stroke-width:0.5;" x1="658.5" x2="841.5" y1="486" y2="486"/><ellipse cx="668.5" cy="499.6484" fill="#84BE84" rx="3" ry="3" style="stroke:#038048;stroke-width:1.0;"/><text fill="#000000" font-family="sans-serif" font-size="14" lengthAdjust="spacing" textLength="159" x="677.5" y="502.9951">Receiver GetReceiver()</text></g><!--class SourceServer--><g id="elem_SourceServer"><rect codeLine="39" fill="#F1F1F1" height="80.5938" id="SourceServer" rx="2.5" ry="2.5" style="stroke:#181818;stroke-width:0.5;" width="220" x="161" y="578"/><ellipse cx="220.25" cy="594" fill="#B4A7E5" rx="11" ry="11" style="stroke:#181818;stroke-width:1.0;"/><path d="M216.1719,589.7656 L216.1719,587.6094 L223.5625,587.6094 L223.5625,589.7656 L221.0938,589.7656 L221.0938,597.8438 L223.5625,597.8438 L223.5625,600 L216.1719,600 L216.1719,597.8438 L218.6406,597.8438 L218.6406,589.7656 L216.1719,589.7656 Z " fill="#000000"/><text fill="#000000" font-family="sans-serif" font-size="14" font-style="italic" lengthAdjust="spacing" textLength="93" x="240.75" y="598.8467">SourceServer</text><line style="stroke:#181818;stroke-width:0.5;" x1="162" x2="380" y1="610" y2="610"/><line style="stroke:#181818;stroke-width:0.5;" x1="162" x2="380" y1="618" y2="618"/><ellipse cx="172" cy="631.6484" fill="#84BE84" rx="3" ry="3" style="stroke:#038048;stroke-width:1.0;"/><text fill="#000000" font-family="sans-serif" font-size="14" lengthAdjust="spacing" textLength="194" x="181" y="634.9951">error AddReceiver(Receiver)</text><ellipse cx="172" cy="647.9453" fill="#84BE84" rx="3" ry="3" style="stroke:#038048;stroke-width:1.0;"/><text fill="#000000" font-family="sans-serif" font-size="14" lengthAdjust="spacing" textLength="86" x="181" y="651.292">error Serve()</text></g><!--class SinkServer--><g id="elem_SinkServer"><rect codeLine="43" fill="#F1F1F1" height="80.5938" id="SinkServer" rx="2.5" ry="2.5" style="stroke:#181818;stroke-width:0.5;" width="185" x="671.5" y="578"/><ellipse cx="723.25" cy="594" fill="#B4A7E5" rx="11" ry="11" style="stroke:#181818;stroke-width:1.0;"/><path d="M719.1719,589.7656 L719.1719,587.6094 L726.5625,587.6094 L726.5625,589.7656 L724.0938,589.7656 L724.0938,597.8438 L726.5625,597.8438 L726.5625,600 L719.1719,600 L719.1719,597.8438 L721.6406,597.8438 L721.6406,589.7656 L719.1719,589.7656 Z " fill="#000000"/><text fill="#000000" font-family="sans-serif" font-size="14" font-style="italic" lengthAdjust="spacing" textLength="73" x="743.75" y="598.8467">SinkServer</text><line style="stroke:#181818;stroke-width:0.5;" x1="672.5" x2="855.5" y1="610" y2="610"/><line style="stroke:#181818;stroke-width:0.5;" x1="672.5" x2="855.5" y1="618" y2="618"/><ellipse cx="682.5" cy="631.6484" fill="#84BE84" rx="3" ry="3" style="stroke:#038048;stroke-width:1.0;"/><text fill="#000000" font-family="sans-serif" font-size="14" lengthAdjust="spacing" textLength="159" x="691.5" y="634.9951">Receiver GetReceiver()</text><ellipse cx="682.5" cy="647.9453" fill="#84BE84" rx="3" ry="3" style="stroke:#038048;stroke-width:1.0;"/><text fill="#000000" font-family="sans-serif" font-size="14" lengthAdjust="spacing" textLength="86" x="691.5" y="651.292">error Serve()</text></g><!--class PipeServer--><g id="elem_PipeServer"><rect codeLine="47" fill="#F1F1F1" height="96.8906" id="PipeServer" rx="2.5" ry="2.5" style="stroke:#181818;stroke-width:0.5;" width="220" x="416" y="570"/><ellipse cx="484.75" cy="586" fill="#B4A7E5" rx="11" ry="11" style="stroke:#181818;stroke-width:1.0;"/><path d="M480.6719,581.7656 L480.6719,579.6094 L488.0625,579.6094 L488.0625,581.7656 L485.5938,581.7656 L485.5938,589.8438 L488.0625,589.8438 L488.0625,592 L480.6719,592 L480.6719,589.8438 L483.1406,589.8438 L483.1406,581.7656 L480.6719,581.7656 Z " fill="#000000"/><text fill="#000000" font-family="sans-serif" font-size="14" font-style="italic" lengthAdjust="spacing" textLength="74" x="505.25" y="590.8467">PipeServer</text><line style="stroke:#181818;stroke-width:0.5;" x1="417" x2="635" y1="602" y2="602"/><line style="stroke:#181818;stroke-width:0.5;" x1="417" x2="635" y1="610" y2="610"/><ellipse cx="427" cy="623.6484" fill="#84BE84" rx="3" ry="3" style="stroke:#038048;stroke-width:1.0;"/><text fill="#000000" font-family="sans-serif" font-size="14" lengthAdjust="spacing" textLength="194" x="436" y="626.9951">error AddReceiver(Receiver)</text><ellipse cx="427" cy="639.9453" fill="#84BE84" rx="3" ry="3" style="stroke:#038048;stroke-width:1.0;"/><text fill="#000000" font-family="sans-serif" font-size="14" lengthAdjust="spacing" textLength="159" x="436" y="643.292">Receiver GetReceiver()</text><ellipse cx="427" cy="656.2422" fill="#84BE84" rx="3" ry="3" style="stroke:#038048;stroke-width:1.0;"/><text fill="#000000" font-family="sans-serif" font-size="14" lengthAdjust="spacing" textLength="86" x="436" y="659.5889">error Serve()</text></g><!--class ProducerResponse--><g id="elem_ProducerResponse"><rect codeLine="52" fill="#F1F1F1" height="80.5938" id="ProducerResponse" rx="2.5" ry="2.5" style="stroke:#181818;stroke-width:0.5;" width="166" x="638" y="949"/><ellipse cx="653" cy="965" fill="#F1F1F1" rx="11" ry="11" style="stroke:#181818;stroke-width:1.0;"/><path d="M652.4844,965.5625 Q650.625,964.8594 649.9688,964.0938 Q649.3281,963.3125 649.3281,962 Q649.3281,960.3125 650.4063,959.3438 Q651.4844,958.375 653.3594,958.375 Q654.2188,958.375 655.0625,958.5781 Q655.9219,958.7656 656.7656,959.1563 L656.7656,961.5469 Q655.9844,960.9844 655.1563,960.7031 Q654.3438,960.4063 653.5469,960.4063 Q652.6719,960.4063 652.1875,960.7656 Q651.7188,961.125 651.7188,961.7813 Q651.7188,962.2969 652.0625,962.6406 Q652.4063,962.9688 653.5,963.375 L654.5625,963.7813 Q656.0469,964.3281 656.75,965.2344 Q657.4688,966.1406 657.4688,967.5156 Q657.4688,969.3906 656.3594,970.3125 Q655.25,971.2344 653,971.2344 Q652.0781,971.2344 651.1563,971.0156 Q650.2344,970.7969 649.375,970.375 L649.375,967.8438 Q650.3438,968.5313 651.2656,968.875 Q652.1875,969.2188 653.0781,969.2188 Q653.9844,969.2188 654.4844,968.8125 Q654.9844,968.3906 654.9844,967.6563 Q654.9844,967.0938 654.6406,966.6875 Q654.3125,966.2656 653.6875,966.0156 L652.4844,965.5625 Z " fill="#000000"/><text fill="#000000" font-family="sans-serif" font-size="14" lengthAdjust="spacing" textLength="134" x="667" y="969.8467">ProducerResponse</text><line style="stroke:#181818;stroke-width:0.5;" x1="639" x2="803" y1="981" y2="981"/><rect fill="none" height="6" style="stroke:#C82930;stroke-width:1.0;" width="6" x="646" y="991.6484"/><text fill="#000000" font-family="sans-serif" font-size="14" lengthAdjust="spacing" textLength="70" x="658" y="997.9951">error error</text><line style="stroke:#181818;stroke-width:0.5;" x1="639" x2="803" y1="1005.2969" y2="1005.2969"/><ellipse cx="649" cy="1018.9453" fill="#84BE84" rx="3" ry="3" style="stroke:#038048;stroke-width:1.0;"/><text fill="#000000" font-family="sans-serif" font-size="14" lengthAdjust="spacing" textLength="105" x="658" y="1022.292">error GetError()</text></g><!--class Producer--><g id="elem_Producer"><rect codeLine="56" fill="#F1F1F1" height="113.1875" id="Producer" rx="2.5" ry="2.5" style="stroke:#181818;stroke-width:0.5;" width="246" x="839" y="933"/><ellipse cx="926.25" cy="949" fill="#B4A7E5" rx="11" ry="11" style="stroke:#181818;stroke-width:1.0;"/><path d="M922.1719,944.7656 L922.1719,942.6094 L929.5625,942.6094 L929.5625,944.7656 L927.0938,944.7656 L927.0938,952.8438 L929.5625,952.8438 L929.5625,955 L922.1719,955 L922.1719,952.8438 L924.6406,952.8438 L924.6406,944.7656 L922.1719,944.7656 Z " fill="#000000"/><text fill="#000000" font-family="sans-serif" font-size="14" font-style="italic" lengthAdjust="spacing" textLength="63" x="946.75" y="953.8467">Producer</text><line style="stroke:#181818;stroke-width:0.5;" x1="840" x2="1084" y1="965" y2="965"/><line style="stroke:#181818;stroke-width:0.5;" x1="840" x2="1084" y1="973" y2="973"/><ellipse cx="850" cy="986.6484" fill="#84BE84" rx="3" ry="3" style="stroke:#038048;stroke-width:1.0;"/><text fill="#000000" font-family="sans-serif" font-size="14" lengthAdjust="spacing" textLength="220" x="859" y="989.9951">ProducerInstance GetInstance()</text><ellipse cx="850" cy="1002.9453" fill="#84BE84" rx="3" ry="3" style="stroke:#038048;stroke-width:1.0;"/><text fill="#000000" font-family="sans-serif" font-size="14" lengthAdjust="spacing" textLength="195" x="859" y="1006.292">error Setup(ProducerConfig)</text><ellipse cx="850" cy="1019.2422" fill="#84BE84" rx="3" ry="3" style="stroke:#038048;stroke-width:1.0;"/><text fill="#000000" font-family="sans-serif" font-size="14" lengthAdjust="spacing" textLength="79" x="859" y="1022.5889">error Start()</text><ellipse cx="850" cy="1035.5391" fill="#84BE84" rx="3" ry="3" style="stroke:#038048;stroke-width:1.0;"/><text fill="#000000" font-family="sans-serif" font-size="14" lengthAdjust="spacing" textLength="208" x="859" y="1038.8857">ProducerResponse Send(any)</text></g><!--class Consumer--><g id="elem_Consumer"><rect codeLine="62" fill="#F1F1F1" height="96.8906" id="Consumer" rx="2.5" ry="2.5" style="stroke:#181818;stroke-width:0.5;" width="230" x="202" y="751.5"/><ellipse cx="276.75" cy="767.5" fill="#B4A7E5" rx="11" ry="11" style="stroke:#181818;stroke-width:1.0;"/><path d="M272.6719,763.2656 L272.6719,761.1094 L280.0625,761.1094 L280.0625,763.2656 L277.5938,763.2656 L277.5938,771.3438 L280.0625,771.3438 L280.0625,773.5 L272.6719,773.5 L272.6719,771.3438 L275.1406,771.3438 L275.1406,763.2656 L272.6719,763.2656 Z " fill="#000000"/><text fill="#000000" font-family="sans-serif" font-size="14" font-style="italic" lengthAdjust="spacing" textLength="72" x="297.25" y="772.3467">Consumer</text><line style="stroke:#181818;stroke-width:0.5;" x1="203" x2="431" y1="783.5" y2="783.5"/><line style="stroke:#181818;stroke-width:0.5;" x1="203" x2="431" y1="791.5" y2="791.5"/><ellipse cx="213" cy="805.1484" fill="#84BE84" rx="3" ry="3" style="stroke:#038048;stroke-width:1.0;"/><text fill="#000000" font-family="sans-serif" font-size="14" lengthAdjust="spacing" textLength="194" x="222" y="808.4951">error AddReceiver(Receiver)</text><ellipse cx="213" cy="821.4453" fill="#84BE84" rx="3" ry="3" style="stroke:#038048;stroke-width:1.0;"/><text fill="#000000" font-family="sans-serif" font-size="14" lengthAdjust="spacing" textLength="204" x="222" y="824.792">error Setup(ConsumerConfig)</text><ellipse cx="213" cy="837.7422" fill="#84BE84" rx="3" ry="3" style="stroke:#038048;stroke-width:1.0;"/><text fill="#000000" font-family="sans-serif" font-size="14" lengthAdjust="spacing" textLength="86" x="222" y="841.0889">error Serve()</text></g><!--class KafkaConsumer--><g id="elem_KafkaConsumer"><rect codeLine="67" fill="#F1F1F1" height="96.8906" id="KafkaConsumer" rx="2.5" ry="2.5" style="stroke:#181818;stroke-width:0.5;" width="258" x="345" y="941"/><ellipse cx="415.25" cy="957" fill="#F1F1F1" rx="11" ry="11" style="stroke:#181818;stroke-width:1.0;"/><path d="M414.7344,957.5625 Q412.875,956.8594 412.2188,956.0938 Q411.5781,955.3125 411.5781,954 Q411.5781,952.3125 412.6563,951.3438 Q413.7344,950.375 415.6094,950.375 Q416.4688,950.375 417.3125,950.5781 Q418.1719,950.7656 419.0156,951.1563 L419.0156,953.5469 Q418.2344,952.9844 417.4063,952.7031 Q416.5938,952.4063 415.7969,952.4063 Q414.9219,952.4063 414.4375,952.7656 Q413.9688,953.125 413.9688,953.7813 Q413.9688,954.2969 414.3125,954.6406 Q414.6563,954.9688 415.75,955.375 L416.8125,955.7813 Q418.2969,956.3281 419,957.2344 Q419.7188,958.1406 419.7188,959.5156 Q419.7188,961.3906 418.6094,962.3125 Q417.5,963.2344 415.25,963.2344 Q414.3281,963.2344 413.4063,963.0156 Q412.4844,962.7969 411.625,962.375 L411.625,959.8438 Q412.5938,960.5313 413.5156,960.875 Q414.4375,961.2188 415.3281,961.2188 Q416.2344,961.2188 416.7344,960.8125 Q417.2344,960.3906 417.2344,959.6563 Q417.2344,959.0938 416.8906,958.6875 Q416.5625,958.2656 415.9375,958.0156 L414.7344,957.5625 Z " fill="#000000"/><text fill="#000000" font-family="sans-serif" font-size="14" lengthAdjust="spacing" textLength="109" x="435.75" y="961.8467">KafkaConsumer</text><line style="stroke:#181818;stroke-width:0.5;" x1="346" x2="602" y1="973" y2="973"/><line style="stroke:#181818;stroke-width:0.5;" x1="346" x2="602" y1="981" y2="981"/><ellipse cx="356" cy="994.6484" fill="#84BE84" rx="3" ry="3" style="stroke:#038048;stroke-width:1.0;"/><text fill="#000000" font-family="sans-serif" font-size="14" lengthAdjust="spacing" textLength="194" x="365" y="997.9951">error AddReceiver(Receiver)</text><ellipse cx="356" cy="1010.9453" fill="#84BE84" rx="3" ry="3" style="stroke:#038048;stroke-width:1.0;"/><text fill="#000000" font-family="sans-serif" font-size="14" lengthAdjust="spacing" textLength="232" x="365" y="1014.292">error Setup(KafkaConsumerCofig)</text><ellipse cx="356" cy="1027.2422" fill="#84BE84" rx="3" ry="3" style="stroke:#038048;stroke-width:1.0;"/><text fill="#000000" font-family="sans-serif" font-size="14" lengthAdjust="spacing" textLength="86" x="365" y="1030.5889">error Serve()</text></g><!--class KafkaProducer--><g id="elem_KafkaProducer"><rect codeLine="72" fill="#F1F1F1" height="96.8906" id="KafkaProducer" rx="2.5" ry="2.5" style="stroke:#181818;stroke-width:0.5;" width="258" x="827" y="1106"/><ellipse cx="901.75" cy="1122" fill="#F1F1F1" rx="11" ry="11" style="stroke:#181818;stroke-width:1.0;"/><path d="M901.2344,1122.5625 Q899.375,1121.8594 898.7188,1121.0938 Q898.0781,1120.3125 898.0781,1119 Q898.0781,1117.3125 899.1563,1116.3438 Q900.2344,1115.375 902.1094,1115.375 Q902.9688,1115.375 903.8125,1115.5781 Q904.6719,1115.7656 905.5156,1116.1563 L905.5156,1118.5469 Q904.7344,1117.9844 903.9063,1117.7031 Q903.0938,1117.4063 902.2969,1117.4063 Q901.4219,1117.4063 900.9375,1117.7656 Q900.4688,1118.125 900.4688,1118.7813 Q900.4688,1119.2969 900.8125,1119.6406 Q901.1563,1119.9688 902.25,1120.375 L903.3125,1120.7813 Q904.7969,1121.3281 905.5,1122.2344 Q906.2188,1123.1406 906.2188,1124.5156 Q906.2188,1126.3906 905.1094,1127.3125 Q904,1128.2344 901.75,1128.2344 Q900.8281,1128.2344 899.9063,1128.0156 Q898.9844,1127.7969 898.125,1127.375 L898.125,1124.8438 Q899.0938,1125.5313 900.0156,1125.875 Q900.9375,1126.2188 901.8281,1126.2188 Q902.7344,1126.2188 903.2344,1125.8125 Q903.7344,1125.3906 903.7344,1124.6563 Q903.7344,1124.0938 903.3906,1123.6875 Q903.0625,1123.2656 902.4375,1123.0156 L901.2344,1122.5625 Z " fill="#000000"/><text fill="#000000" font-family="sans-serif" font-size="14" lengthAdjust="spacing" textLength="100" x="922.25" y="1126.8467">KafkaProducer</text><line style="stroke:#181818;stroke-width:0.5;" x1="828" x2="1084" y1="1138" y2="1138"/><line style="stroke:#181818;stroke-width:0.5;" x1="828" x2="1084" y1="1146" y2="1146"/><ellipse cx="838" cy="1159.6484" fill="#84BE84" rx="3" ry="3" style="stroke:#038048;stroke-width:1.0;"/><text fill="#000000" font-family="sans-serif" font-size="14" lengthAdjust="spacing" textLength="232" x="847" y="1162.9951">error Setup(KafkaProducerConfig)</text><ellipse cx="838" cy="1175.9453" fill="#84BE84" rx="3" ry="3" style="stroke:#038048;stroke-width:1.0;"/><text fill="#000000" font-family="sans-serif" font-size="14" lengthAdjust="spacing" textLength="79" x="847" y="1179.292">error Start()</text><ellipse cx="838" cy="1192.2422" fill="#84BE84" rx="3" ry="3" style="stroke:#038048;stroke-width:1.0;"/><text fill="#000000" font-family="sans-serif" font-size="14" lengthAdjust="spacing" textLength="208" x="847" y="1195.5889">ProducerResponse Send(any)</text></g><!--class ProducerServer--><g id="elem_ProducerServer"><rect codeLine="77" fill="#F1F1F1" height="113.1875" id="ProducerServer" rx="2.5" ry="2.5" style="stroke:#181818;stroke-width:0.5;" width="264" x="821" y="743.5"/><ellipse cx="895.25" cy="759.5" fill="#F1F1F1" rx="11" ry="11" style="stroke:#181818;stroke-width:1.0;"/><path d="M894.7344,760.0625 Q892.875,759.3594 892.2188,758.5938 Q891.5781,757.8125 891.5781,756.5 Q891.5781,754.8125 892.6563,753.8438 Q893.7344,752.875 895.6094,752.875 Q896.4688,752.875 897.3125,753.0781 Q898.1719,753.2656 899.0156,753.6563 L899.0156,756.0469 Q898.2344,755.4844 897.4063,755.2031 Q896.5938,754.9063 895.7969,754.9063 Q894.9219,754.9063 894.4375,755.2656 Q893.9688,755.625 893.9688,756.2813 Q893.9688,756.7969 894.3125,757.1406 Q894.6563,757.4688 895.75,757.875 L896.8125,758.2813 Q898.2969,758.8281 899,759.7344 Q899.7188,760.6406 899.7188,762.0156 Q899.7188,763.8906 898.6094,764.8125 Q897.5,765.7344 895.25,765.7344 Q894.3281,765.7344 893.4063,765.5156 Q892.4844,765.2969 891.625,764.875 L891.625,762.3438 Q892.5938,763.0313 893.5156,763.375 Q894.4375,763.7188 895.3281,763.7188 Q896.2344,763.7188 896.7344,763.3125 Q897.2344,762.8906 897.2344,762.1563 Q897.2344,761.5938 896.8906,761.1875 Q896.5625,760.7656 895.9375,760.5156 L894.7344,760.0625 Z " fill="#000000"/><text fill="#000000" font-family="sans-serif" font-size="14" lengthAdjust="spacing" textLength="107" x="915.75" y="764.3467">ProducerServer</text><line style="stroke:#181818;stroke-width:0.5;" x1="822" x2="1084" y1="775.5" y2="775.5"/><rect fill="none" height="6" style="stroke:#C82930;stroke-width:1.0;" width="6" x="829" y="786.1484"/><text fill="#000000" font-family="sans-serif" font-size="14" lengthAdjust="spacing" textLength="238" x="841" y="792.4951">map[string]Producer producerMap</text><rect fill="none" height="6" style="stroke:#C82930;stroke-width:1.0;" width="6" x="829" y="802.4453"/><text fill="#000000" font-family="sans-serif" font-size="14" lengthAdjust="spacing" textLength="155" x="841" y="808.792">ChanReceiver receiver</text><line style="stroke:#181818;stroke-width:0.5;" x1="822" x2="1084" y1="816.0938" y2="816.0938"/><ellipse cx="832" cy="829.7422" fill="#84BE84" rx="3" ry="3" style="stroke:#038048;stroke-width:1.0;"/><text fill="#000000" font-family="sans-serif" font-size="14" lengthAdjust="spacing" textLength="159" x="841" y="833.0889">Receiver GetReceiver()</text><ellipse cx="832" cy="846.0391" fill="#84BE84" rx="3" ry="3" style="stroke:#038048;stroke-width:1.0;"/><text fill="#000000" font-family="sans-serif" font-size="14" lengthAdjust="spacing" textLength="86" x="841" y="849.3857">error Serve()</text></g><!--class ConsumerServer--><g id="elem_ConsumerServer"><rect codeLine="83" fill="#F1F1F1" height="96.8906" id="ConsumerServer" rx="2.5" ry="2.5" style="stroke:#181818;stroke-width:0.5;" width="288" x="22" y="941"/><ellipse cx="103.75" cy="957" fill="#F1F1F1" rx="11" ry="11" style="stroke:#181818;stroke-width:1.0;"/><path d="M103.2344,957.5625 Q101.375,956.8594 100.7188,956.0938 Q100.0781,955.3125 100.0781,954 Q100.0781,952.3125 101.1563,951.3438 Q102.2344,950.375 104.1094,950.375 Q104.9688,950.375 105.8125,950.5781 Q106.6719,950.7656 107.5156,951.1563 L107.5156,953.5469 Q106.7344,952.9844 105.9063,952.7031 Q105.0938,952.4063 104.2969,952.4063 Q103.4219,952.4063 102.9375,952.7656 Q102.4688,953.125 102.4688,953.7813 Q102.4688,954.2969 102.8125,954.6406 Q103.1563,954.9688 104.25,955.375 L105.3125,955.7813 Q106.7969,956.3281 107.5,957.2344 Q108.2188,958.1406 108.2188,959.5156 Q108.2188,961.3906 107.1094,962.3125 Q106,963.2344 103.75,963.2344 Q102.8281,963.2344 101.9063,963.0156 Q100.9844,962.7969 100.125,962.375 L100.125,959.8438 Q101.0938,960.5313 102.0156,960.875 Q102.9375,961.2188 103.8281,961.2188 Q104.7344,961.2188 105.2344,960.8125 Q105.7344,960.3906 105.7344,959.6563 Q105.7344,959.0938 105.3906,958.6875 Q105.0625,958.2656 104.4375,958.0156 L103.2344,957.5625 Z " fill="#000000"/><text fill="#000000" font-family="sans-serif" font-size="14" lengthAdjust="spacing" textLength="116" x="124.25" y="961.8467">ConsumerServer</text><line style="stroke:#181818;stroke-width:0.5;" x1="23" x2="309" y1="973" y2="973"/><rect fill="none" height="6" style="stroke:#C82930;stroke-width:1.0;" width="6" x="30" y="983.6484"/><text fill="#000000" font-family="sans-serif" font-size="14" lengthAdjust="spacing" textLength="262" x="42" y="989.9951">map[string]Consumer consumersMap</text><line style="stroke:#181818;stroke-width:0.5;" x1="23" x2="309" y1="997.2969" y2="997.2969"/><ellipse cx="33" cy="1010.9453" fill="#84BE84" rx="3" ry="3" style="stroke:#038048;stroke-width:1.0;"/><text fill="#000000" font-family="sans-serif" font-size="14" lengthAdjust="spacing" textLength="194" x="42" y="1014.292">error AddReceiver(Receiver)</text><ellipse cx="33" cy="1027.2422" fill="#84BE84" rx="3" ry="3" style="stroke:#038048;stroke-width:1.0;"/><text fill="#000000" font-family="sans-serif" font-size="14" lengthAdjust="spacing" textLength="86" x="42" y="1030.5889">error Serve()</text></g><!--class KafkaConsumerCofig--><g id="elem_KafkaConsumerCofig"><rect codeLine="88" fill="#F1F1F1" height="48" id="KafkaConsumerCofig" rx="2.5" ry="2.5" style="stroke:#181818;stroke-width:0.5;" width="176" x="386" y="1130.5"/><ellipse cx="401" cy="1146.5" fill="#F1F1F1" rx="11" ry="11" style="stroke:#181818;stroke-width:1.0;"/><path d="M400.4844,1147.0625 Q398.625,1146.3594 397.9688,1145.5938 Q397.3281,1144.8125 397.3281,1143.5 Q397.3281,1141.8125 398.4063,1140.8438 Q399.4844,1139.875 401.3594,1139.875 Q402.2188,1139.875 403.0625,1140.0781 Q403.9219,1140.2656 404.7656,1140.6563 L404.7656,1143.0469 Q403.9844,1142.4844 403.1563,1142.2031 Q402.3438,1141.9063 401.5469,1141.9063 Q400.6719,1141.9063 400.1875,1142.2656 Q399.7188,1142.625 399.7188,1143.2813 Q399.7188,1143.7969 400.0625,1144.1406 Q400.4063,1144.4688 401.5,1144.875 L402.5625,1145.2813 Q404.0469,1145.8281 404.75,1146.7344 Q405.4688,1147.6406 405.4688,1149.0156 Q405.4688,1150.8906 404.3594,1151.8125 Q403.25,1152.7344 401,1152.7344 Q400.0781,1152.7344 399.1563,1152.5156 Q398.2344,1152.2969 397.375,1151.875 L397.375,1149.3438 Q398.3438,1150.0313 399.2656,1150.375 Q400.1875,1150.7188 401.0781,1150.7188 Q401.9844,1150.7188 402.4844,1150.3125 Q402.9844,1149.8906 402.9844,1149.1563 Q402.9844,1148.5938 402.6406,1148.1875 Q402.3125,1147.7656 401.6875,1147.5156 L400.4844,1147.0625 Z " fill="#000000"/><text fill="#000000" font-family="sans-serif" font-size="14" lengthAdjust="spacing" textLength="144" x="415" y="1151.3467">KafkaConsumerCofig</text><line style="stroke:#181818;stroke-width:0.5;" x1="387" x2="561" y1="1162.5" y2="1162.5"/><line style="stroke:#181818;stroke-width:0.5;" x1="387" x2="561" y1="1170.5" y2="1170.5"/></g><!--class KafkaProducerConfig--><g id="elem_KafkaProducerConfig"><rect codeLine="89" fill="#F1F1F1" height="48" id="KafkaProducerConfig" rx="2.5" ry="2.5" style="stroke:#181818;stroke-width:0.5;" width="176" x="868" y="1263"/><ellipse cx="883" cy="1279" fill="#F1F1F1" rx="11" ry="11" style="stroke:#181818;stroke-width:1.0;"/><path d="M882.4844,1279.5625 Q880.625,1278.8594 879.9688,1278.0938 Q879.3281,1277.3125 879.3281,1276 Q879.3281,1274.3125 880.4063,1273.3438 Q881.4844,1272.375 883.3594,1272.375 Q884.2188,1272.375 885.0625,1272.5781 Q885.9219,1272.7656 886.7656,1273.1563 L886.7656,1275.5469 Q885.9844,1274.9844 885.1563,1274.7031 Q884.3438,1274.4063 883.5469,1274.4063 Q882.6719,1274.4063 882.1875,1274.7656 Q881.7188,1275.125 881.7188,1275.7813 Q881.7188,1276.2969 882.0625,1276.6406 Q882.4063,1276.9688 883.5,1277.375 L884.5625,1277.7813 Q886.0469,1278.3281 886.75,1279.2344 Q887.4688,1280.1406 887.4688,1281.5156 Q887.4688,1283.3906 886.3594,1284.3125 Q885.25,1285.2344 883,1285.2344 Q882.0781,1285.2344 881.1563,1285.0156 Q880.2344,1284.7969 879.375,1284.375 L879.375,1281.8438 Q880.3438,1282.5313 881.2656,1282.875 Q882.1875,1283.2188 883.0781,1283.2188 Q883.9844,1283.2188 884.4844,1282.8125 Q884.9844,1282.3906 884.9844,1281.6563 Q884.9844,1281.0938 884.6406,1280.6875 Q884.3125,1280.2656 883.6875,1280.0156 L882.4844,1279.5625 Z " fill="#000000"/><text fill="#000000" font-family="sans-serif" font-size="14" lengthAdjust="spacing" textLength="144" x="897" y="1283.8467">KafkaProducerConfig</text><line style="stroke:#181818;stroke-width:0.5;" x1="869" x2="1043" y1="1295" y2="1295"/><line style="stroke:#181818;stroke-width:0.5;" x1="869" x2="1043" y1="1303" y2="1303"/></g><!--class ProducerConfig--><g id="elem_ProducerConfig"><rect codeLine="90" fill="#F1F1F1" height="48" id="ProducerConfig" rx="2.5" ry="2.5" style="stroke:#181818;stroke-width:0.5;" width="139" x="886.5" y="1371"/><ellipse cx="901.5" cy="1387" fill="#F1F1F1" rx="11" ry="11" style="stroke:#181818;stroke-width:1.0;"/><path d="M900.9844,1387.5625 Q899.125,1386.8594 898.4688,1386.0938 Q897.8281,1385.3125 897.8281,1384 Q897.8281,1382.3125 898.9063,1381.3438 Q899.9844,1380.375 901.8594,1380.375 Q902.7188,1380.375 903.5625,1380.5781 Q904.4219,1380.7656 905.2656,1381.1563 L905.2656,1383.5469 Q904.4844,1382.9844 903.6563,1382.7031 Q902.8438,1382.4063 902.0469,1382.4063 Q901.1719,1382.4063 900.6875,1382.7656 Q900.2188,1383.125 900.2188,1383.7813 Q900.2188,1384.2969 900.5625,1384.6406 Q900.9063,1384.9688 902,1385.375 L903.0625,1385.7813 Q904.5469,1386.3281 905.25,1387.2344 Q905.9688,1388.1406 905.9688,1389.5156 Q905.9688,1391.3906 904.8594,1392.3125 Q903.75,1393.2344 901.5,1393.2344 Q900.5781,1393.2344 899.6563,1393.0156 Q898.7344,1392.7969 897.875,1392.375 L897.875,1389.8438 Q898.8438,1390.5313 899.7656,1390.875 Q900.6875,1391.2188 901.5781,1391.2188 Q902.4844,1391.2188 902.9844,1390.8125 Q903.4844,1390.3906 903.4844,1389.6563 Q903.4844,1389.0938 903.1406,1388.6875 Q902.8125,1388.2656 902.1875,1388.0156 L900.9844,1387.5625 Z " fill="#000000"/><text fill="#000000" font-family="sans-serif" font-size="14" lengthAdjust="spacing" textLength="107" x="915.5" y="1391.8467">ProducerConfig</text><line style="stroke:#181818;stroke-width:0.5;" x1="887.5" x2="1024.5" y1="1403" y2="1403"/><line style="stroke:#181818;stroke-width:0.5;" x1="887.5" x2="1024.5" y1="1411" y2="1411"/></g><!--class ConsumerConfig--><g id="elem_ConsumerConfig"><rect codeLine="91" fill="#F1F1F1" height="48" id="ConsumerConfig" rx="2.5" ry="2.5" style="stroke:#181818;stroke-width:0.5;" width="148" x="400" y="1263"/><ellipse cx="415" cy="1279" fill="#F1F1F1" rx="11" ry="11" style="stroke:#181818;stroke-width:1.0;"/><path d="M414.4844,1279.5625 Q412.625,1278.8594 411.9688,1278.0938 Q411.3281,1277.3125 411.3281,1276 Q411.3281,1274.3125 412.4063,1273.3438 Q413.4844,1272.375 415.3594,1272.375 Q416.2188,1272.375 417.0625,1272.5781 Q417.9219,1272.7656 418.7656,1273.1563 L418.7656,1275.5469 Q417.9844,1274.9844 417.1563,1274.7031 Q416.3438,1274.4063 415.5469,1274.4063 Q414.6719,1274.4063 414.1875,1274.7656 Q413.7188,1275.125 413.7188,1275.7813 Q413.7188,1276.2969 414.0625,1276.6406 Q414.4063,1276.9688 415.5,1277.375 L416.5625,1277.7813 Q418.0469,1278.3281 418.75,1279.2344 Q419.4688,1280.1406 419.4688,1281.5156 Q419.4688,1283.3906 418.3594,1284.3125 Q417.25,1285.2344 415,1285.2344 Q414.0781,1285.2344 413.1563,1285.0156 Q412.2344,1284.7969 411.375,1284.375 L411.375,1281.8438 Q412.3438,1282.5313 413.2656,1282.875 Q414.1875,1283.2188 415.0781,1283.2188 Q415.9844,1283.2188 416.4844,1282.8125 Q416.9844,1282.3906 416.9844,1281.6563 Q416.9844,1281.0938 416.6406,1280.6875 Q416.3125,1280.2656 415.6875,1280.0156 L414.4844,1279.5625 Z " fill="#000000"/><text fill="#000000" font-family="sans-serif" font-size="14" lengthAdjust="spacing" textLength="116" x="429" y="1283.8467">ConsumerConfig</text><line style="stroke:#181818;stroke-width:0.5;" x1="401" x2="547" y1="1295" y2="1295"/><line style="stroke:#181818;stroke-width:0.5;" x1="401" x2="547" y1="1303" y2="1303"/></g><!--reverse link CompletionHandler to AppData--><g id="link_CompletionHandler_AppData"><path codeLine="93" d="M635.7286,112.9618 C655.9686,130.5918 672.66,145.13 695.38,164.93 " fill="none" id="CompletionHandler-backto-AppData" style="stroke:#181818;stroke-width:1.0;"/><polygon fill="#181818" points="626.68,105.08,628.5771,112.0371,635.7286,112.9618,633.8316,106.0047,626.68,105.08" style="stroke:#181818;stroke-width:1.0;"/></g><!--reverse link CompletionHandler to KafkaConsumerCompletionHandler--><g id="link_CompletionHandler_KafkaConsumerCompletionHandler"><path codeLine="94" d="M541.7459,116.9014 C515.6459,139.6314 493.97,158.52 467.84,181.28 " fill="none" id="CompletionHandler-backto-KafkaConsumerCompletionHandler" style="stroke:#181818;stroke-width:1.0;"/><polygon fill="none" points="555.32,105.08,537.8055,112.3767,545.6864,121.4261,555.32,105.08" style="stroke:#181818;stroke-width:1.0;"/></g><!--reverse link AppData to Receiver--><g id="link_AppData_Receiver"><path codeLine="95" d="M750,274.16 C750,293.88 750,304.2 750,321.77 " fill="none" id="AppData-backto-Receiver" style="stroke:#181818;stroke-width:1.0;"/><polygon fill="#181818" points="750,262.16,746,268.16,750,274.16,754,268.16,750,262.16" style="stroke:#181818;stroke-width:1.0;"/></g><!--reverse link Receiver to Pullable--><g id="link_Receiver_Pullable"><path codeLine="96" d="M644.8647,385.836 C580.5347,404.696 506.53,426.4 439.74,445.99 " fill="none" id="Receiver-backto-Pullable" style="stroke:#181818;stroke-width:1.0;"/><polygon fill="#181818" points="656.38,382.46,649.497,380.3096,644.8647,385.836,651.7477,387.9864,656.38,382.46" style="stroke:#181818;stroke-width:1.0;"/></g><!--reverse link Receiver to Pushable--><g id="link_Receiver_Pushable"><path codeLine="97" d="M750,398.1 C750,416.46 750,427.61 750,445.96 " fill="none" id="Receiver-backto-Pushable" style="stroke:#181818;stroke-width:1.0;"/><polygon fill="#181818" points="750,386.1,746,392.1,750,398.1,754,392.1,750,386.1" style="stroke:#181818;stroke-width:1.0;"/></g><!--reverse link Receiver to ChanReceiver--><g id="link_Receiver_ChanReceiver"><path codeLine="98" d="M806.459,397.1629 C827.829,413.8129 839.33,424.27 860,446 C899.69,487.73 938.24,541.79 962.48,577.96 " fill="none" id="Receiver-backto-ChanReceiver" style="stroke:#181818;stroke-width:1.0;"/><polygon fill="none" points="792.26,386.1,802.7714,401.8959,810.1467,392.4299,792.26,386.1" style="stroke:#181818;stroke-width:1.0;"/></g><!--reverse link Server to SourceServer--><g id="link_Server_SourceServer"><path codeLine="99" d="M466.83,516.2956 C427.54,536.6056 390.57,555.71 347.44,578 " fill="none" id="Server-backto-SourceServer" style="stroke:#181818;stroke-width:1.0;"/><polygon fill="none" points="482.82,508.03,464.0748,510.9656,469.5852,521.6256,482.82,508.03" style="stroke:#181818;stroke-width:1.0;"/></g><!--reverse link Pullable to SourceServer--><g id="link_Pullable_SourceServer"><path codeLine="100" d="M312.4115,526.4666 C303.3115,546.4866 298.83,556.31 289.05,577.82 " fill="none" id="Pullable-backto-SourceServer" style="stroke:#181818;stroke-width:1.0;"/><polygon fill="none" points="319.86,510.08,306.9493,523.9838,317.8737,528.9494,319.86,510.08" style="stroke:#181818;stroke-width:1.0;"/></g><!--reverse link Server to SinkServer--><g id="link_Server_SinkServer"><path codeLine="101" d="M604.8195,519.5143 C637.3495,539.5343 664.59,556.31 699.54,577.82 " fill="none" id="Server-backto-SinkServer" style="stroke:#181818;stroke-width:1.0;"/><polygon fill="none" points="589.49,510.08,601.6748,524.6241,607.9643,514.4044,589.49,510.08" style="stroke:#181818;stroke-width:1.0;"/></g><!--reverse link Pushable to SinkServer--><g id="link_Pushable_SinkServer"><path codeLine="102" d="M754.9559,527.9882 C756.9859,548.0082 757.81,556.31 759.99,577.82 " fill="none" id="Pushable-backto-SinkServer" style="stroke:#181818;stroke-width:1.0;"/><polygon fill="none" points="753.14,510.08,748.9865,528.5935,760.9253,527.3829,753.14,510.08" style="stroke:#181818;stroke-width:1.0;"/></g><!--reverse link Pushable to PipeServer--><g id="link_Pushable_PipeServer"><path codeLine="103" d="M684.4207,519.547 C655.9107,537.177 634.96,550.13 602.94,569.93 " fill="none" id="Pushable-backto-PipeServer" style="stroke:#181818;stroke-width:1.0;"/><polygon fill="none" points="699.73,510.08,681.265,514.4439,687.5763,524.6501,699.73,510.08" style="stroke:#181818;stroke-width:1.0;"/></g><!--reverse link Pullable to PipeServer--><g id="link_Pullable_PipeServer"><path codeLine="104" d="M391.6862,520.6134 C416.1162,538.2434 432.61,550.13 460.05,569.93 " fill="none" id="Pullable-backto-PipeServer" style="stroke:#181818;stroke-width:1.0;"/><polygon fill="none" points="377.09,510.08,388.175,525.4788,395.1973,515.748,377.09,510.08" style="stroke:#181818;stroke-width:1.0;"/></g><!--reverse link Server to PipeServer--><g id="link_Server_PipeServer"><path codeLine="105" d="M534.4027,528.0017 C532.7527,545.6317 532.32,550.13 530.47,569.93 " fill="none" id="Server-backto-PipeServer" style="stroke:#181818;stroke-width:1.0;"/><polygon fill="none" points="536.08,510.08,528.4288,527.4426,540.3766,528.5608,536.08,510.08" style="stroke:#181818;stroke-width:1.0;"/></g><!--reverse link ProducerResponse to Producer--><g id="link_ProducerResponse_Producer"><path codeLine="107" d="M816.31,989.5 C827.81,989.5 827.31,989.5 838.81,989.5 " fill="none" id="ProducerResponse-backto-Producer" style="stroke:#181818;stroke-width:1.0;"/><polygon fill="#181818" points="804.31,989.5,810.31,993.5,816.31,989.5,810.31,985.5,804.31,989.5" style="stroke:#181818;stroke-width:1.0;"/></g><!--reverse link Producer to KafkaProducer--><g id="link_Producer_KafkaProducer"><path codeLine="108" d="M959.2937,1064.128 C958.5837,1083.588 958.44,1087.25 957.75,1105.99 " fill="none" id="Producer-backto-KafkaProducer" style="stroke:#181818;stroke-width:1.0;"/><polygon fill="none" points="959.95,1046.14,953.2977,1063.9093,965.2897,1064.3468,959.95,1046.14" style="stroke:#181818;stroke-width:1.0;"/></g><!--reverse link Consumer to KafkaConsumer--><g id="link_Consumer_KafkaConsumer"><path codeLine="109" d="M368.5755,862.6011 C392.1955,890.8111 410.44,912.59 434.05,940.79 " fill="none" id="Consumer-backto-KafkaConsumer" style="stroke:#181818;stroke-width:1.0;"/><polygon fill="none" points="357.02,848.8,363.9752,866.4529,373.1759,858.7492,357.02,848.8" style="stroke:#181818;stroke-width:1.0;"/></g><!--link ProducerServer to Producer--><g id="link_ProducerServer_Producer"><path codeLine="110" d="M955.68,856.75 C956.83,880.82 957.6069,896.9337 958.7569,920.9837 " fill="none" id="ProducerServer-to-Producer" style="stroke:#181818;stroke-width:1.0;"/><polygon fill="#181818" points="959.33,932.97,963.0389,926.7858,958.7569,920.9837,955.048,927.1679,959.33,932.97" style="stroke:#181818;stroke-width:1.0;"/></g><!--reverse link SinkServer to ProducerServer--><g id="link_SinkServer_ProducerServer"><path codeLine="111" d="M819.0026,671.7347 C844.9926,696.4147 865.71,716.09 894.33,743.28 " fill="none" id="SinkServer-backto-ProducerServer" style="stroke:#181818;stroke-width:1.0;"/><polygon fill="none" points="805.95,659.34,814.871,676.0856,823.1342,667.3838,805.95,659.34" style="stroke:#181818;stroke-width:1.0;"/></g><!--reverse link ChanReceiver to ProducerServer--><g id="link_ChanReceiver_ProducerServer"><path codeLine="112" d="M977.9345,671.1184 C973.1245,695.7984 969.17,716.09 963.87,743.28 " fill="none" id="ChanReceiver-backto-ProducerServer" style="stroke:#181818;stroke-width:1.0;"/><polygon fill="#181818" points="980.23,659.34,975.1561,664.464,977.9345,671.1184,983.0084,665.9944,980.23,659.34" style="stroke:#181818;stroke-width:1.0;"/></g><!--link ConsumerServer to SourceServer--><g id="link_ConsumerServer_SourceServer"><path codeLine="113" d="M157.28,940.84 C148.27,877.91 140.98,765.58 185,684 C189.96,674.8 183.751,678.8644 191.511,671.5744 " fill="none" id="ConsumerServer-to-SourceServer" style="stroke:#181818;stroke-width:1.0;"/><polygon fill="none" points="204.63,659.25,187.4028,667.2014,195.6191,675.9474,204.63,659.25" style="stroke:#181818;stroke-width:1.0;"/></g><!--reverse link Consumer to ConsumerServer--><g id="link_Consumer_ConsumerServer"><path codeLine="114" d="M270.983,858.1458 C248.263,886.3558 227.13,912.59 204.42,940.79 " fill="none" id="Consumer-backto-ConsumerServer" style="stroke:#181818;stroke-width:1.0;"/><polygon fill="#181818" points="278.51,848.8,271.6312,850.9639,270.983,858.1458,277.8618,855.9819,278.51,848.8" style="stroke:#181818;stroke-width:1.0;"/></g><!--reverse link SourceServer to Consumer--><g id="link_SourceServer_Consumer"><path codeLine="115" d="M285.6783,676.7766 C292.6383,703.9366 297.42,722.61 304.78,751.31 " fill="none" id="SourceServer-backto-Consumer" style="stroke:#181818;stroke-width:1.0;"/><polygon fill="none" points="281.21,659.34,279.8661,678.266,291.4905,675.2872,281.21,659.34" style="stroke:#181818;stroke-width:1.0;"/></g><!--link KafkaConsumer to KafkaConsumerCofig--><g id="link_KafkaConsumer_KafkaConsumerCofig"><path codeLine="117" d="M474,1038.08 C474,1068.34 474,1094.19 474,1118.11 " fill="none" id="KafkaConsumer-to-KafkaConsumerCofig" style="stroke:#181818;stroke-width:1.0;"/><polygon fill="#181818" points="474,1130.11,478,1124.11,474,1118.11,470,1124.11,474,1130.11" style="stroke:#181818;stroke-width:1.0;"/></g><!--link KafkaProducer to KafkaProducerConfig--><g id="link_KafkaProducer_KafkaProducerConfig"><path codeLine="118" d="M956,1203.35 C956,1223.58 956,1234.2 956,1250.66 " fill="none" id="KafkaProducer-to-KafkaProducerConfig" style="stroke:#181818;stroke-width:1.0;"/><polygon fill="#181818" points="956,1262.66,960,1256.66,956,1250.66,952,1256.66,956,1262.66" style="stroke:#181818;stroke-width:1.0;"/></g><!--reverse link PipeServer to JQTransformer--><g id="link_PipeServer_JQTransformer"><path codeLine="120" d="M653.4351,667.3994 C659.4651,668.9894 648.07,665.82 654,667 C751.49,686.42 1007.49,650.28 1101,684 C1127.55,693.57 1153.19,709.69 1175.53,726.88 " fill="none" id="PipeServer-backto-JQTransformer" style="stroke:#181818;stroke-width:1.0;"/><polygon fill="none" points="636.03,662.81,651.9053,673.2011,654.9649,661.5977,636.03,662.81" style="stroke:#181818;stroke-width:1.0;"/></g><!--reverse link ChanReceiver to JQTransformer--><g id="link_ChanReceiver_JQTransformer"><path codeLine="121" d="M1070.9804,665.065 C1084.6004,673.025 1088.21,675.5 1101,684 C1120.82,697.16 1141.44,712.1 1160.82,726.74 " fill="none" id="ChanReceiver-backto-JQTransformer" style="stroke:#181818;stroke-width:1.0;"/><polygon fill="#181818" points="1060.62,659.01,1063.7819,665.4909,1070.9804,665.065,1067.8185,658.584,1060.62,659.01" style="stroke:#181818;stroke-width:1.0;"/></g><!--link KafkaProducerConfig to ProducerConfig--><g id="link_KafkaProducerConfig_ProducerConfig"><path codeLine="123" d="M956,1311 C956,1328.66 956,1340.94 956,1358.68 " fill="none" id="KafkaProducerConfig-to-ProducerConfig" style="stroke:#181818;stroke-width:1.0;"/><polygon fill="#181818" points="956,1370.68,960,1364.68,956,1358.68,952,1364.68,956,1370.68" style="stroke:#181818;stroke-width:1.0;"/></g><!--link KafkaConsumerCofig to ConsumerConfig--><g id="link_KafkaConsumerCofig_ConsumerConfig"><path codeLine="124" d="M474,1178.53 C474,1202.24 474,1226.98 474,1250.76 " fill="none" id="KafkaConsumerCofig-to-ConsumerConfig" style="stroke:#181818;stroke-width:1.0;"/><polygon fill="#181818" points="474,1262.76,478,1256.76,474,1250.76,470,1256.76,474,1262.76" style="stroke:#181818;stroke-width:1.0;"/></g><!--SRC=[jLVBSjCm5DtxAxnq3SuNiEc43gKCq3Ri61R2bXEtjYnakT21_ZjohFULRUgKB3ggTExHkG_Tcn3Ku8wY7CTNky-VBdvnXdBUilXt58jFnrcVy_ZgvWj3f2jRrc1rD7moSLwHVNptuwR7xD7iRzi2YzrhrkuPQgpz0oAtECVLW-1XSg6FNs76nDNdHQ4mYLgS6P2sVuUvnftv93lC7h3SVegU8gBzF9ueBoh2CIk7xMtRq1hpgYMNY1IruwVab12S8FBuEZxkgGkiO7r0vJtQjgJhHR1UZFMSqhU88plu0XyNOiyGmjjoVyU01tCHme4riIyq8T6H1fhbII9L1VGwcRP4vs9VEpEe7u3Fe3Vgd3nEPjwrkUxh6dslCRIoYovrgmwIT0UVPAOeWUwsPpcUKhzG_CikxYfo3ydNF1hFwugk5RtsSbbAeeiKVOxPhNZ0ubdPSSz6q-DVdqzSTZ4ifloHhBOtQkyzwJWY0YGur3eacFSqKJRYnPVL7e8uOjos1TxiC2c6jn-MgHh9waePD9fk5DOu5NcdbPsam6kAprSHIXUuuB_amgj2y0Qo1j6luo3yfbLIkVY8w3zFlnEVYOhkh42Tp5mkEblXQJqeFFz48YQJEUOf56LuujQmcEYZdniuyz8iayDX8mV8DFRD7mEU7zoHIsdVec8KUV_R63LvvZ7ZO04OMwLTH0eeKsx3x2aJUHeMWI4-FLOYJ-qQc1acizeWBA3C0cao_rsd6Qls1svi9C0tWFNW8_K3cgmSm9bcFGKtUswPeUsu5WGxRIHTGZjVDmHvZKiJ1xTd01yjyZ3I9o_QdmIOwBJ0pk369XZ6GCC8MEaqHQ0gneWwlsuspW-QoRZEsVXPNbGc-vONcqap9qn_0G00]--></g></svg>