<?xml version="1.0" encoding="us-ascii" standalone="no"?><svg xmlns="http://www.w3.org/2000/svg" xmlns:xlink="http://www.w3.org/1999/xlink" contentStyleType="text/css" height="1333px" preserveAspectRatio="none" style="width:1306px;height:1333px;background:#FFFFFF;" version="1.1" viewBox="0 0 1306 1333" width="1306px" zoomAndPan="magnify"><defs/><g><!--cluster Server--><g id="cluster_Server"><path d="M8.5,6 L62.5,6 A3.75,3.75 0 0 1 65,8.5 L72,28.2969 L1020.5,28.2969 A2.5,2.5 0 0 1 1023,30.7969 L1023,1323.5 A2.5,2.5 0 0 1 1020.5,1326 L8.5,1326 A2.5,2.5 0 0 1 6,1323.5 L6,8.5 A2.5,2.5 0 0 1 8.5,6 " fill="none" style="stroke:#000000;stroke-width:1.5;"/><line style="stroke:#000000;stroke-width:1.5;" x1="6" x2="72" y1="28.2969" y2="28.2969"/><text fill="#000000" font-family="sans-serif" font-size="14" font-weight="bold" lengthAdjust="spacing" textLength="53" x="10" y="20.9951">Server</text></g><!--cluster JSONExtractor--><g id="cluster_JSONExtractor"><path d="M1049.5,411 L1159.5,411 A3.75,3.75 0 0 1 1162,413.5 L1169,433.2969 L1296.5,433.2969 A2.5,2.5 0 0 1 1299,435.7969 L1299,588.5 A2.5,2.5 0 0 1 1296.5,591 L1049.5,591 A2.5,2.5 0 0 1 1047,588.5 L1047,413.5 A2.5,2.5 0 0 1 1049.5,411 " fill="none" style="stroke:#000000;stroke-width:1.5;"/><line style="stroke:#000000;stroke-width:1.5;" x1="1047" x2="1169" y1="433.2969" y2="433.2969"/><text fill="#000000" font-family="sans-serif" font-size="14" font-weight="bold" lengthAdjust="spacing" textLength="109" x="1051" y="425.9951">JSONExtractor</text></g><!--class CompletionHandler--><g id="elem_CompletionHandler"><rect codeLine="2" fill="#F1F1F1" height="64.2969" id="CompletionHandler" rx="2.5" ry="2.5" style="stroke:#181818;stroke-width:0.5;" width="205" x="653.5" y="41"/><ellipse cx="686.95" cy="57" fill="#B4A7E5" rx="11" ry="11" style="stroke:#181818;stroke-width:1.0;"/><path d="M682.8719,52.7656 L682.8719,50.6094 L690.2625,50.6094 L690.2625,52.7656 L687.7938,52.7656 L687.7938,60.8438 L690.2625,60.8438 L690.2625,63 L682.8719,63 L682.8719,60.8438 L685.3406,60.8438 L685.3406,52.7656 L682.8719,52.7656 Z " fill="#000000"/><text fill="#000000" font-family="sans-serif" font-size="14" font-style="italic" lengthAdjust="spacing" textLength="132" x="705.05" y="61.8467">CompletionHandler</text><line style="stroke:#181818;stroke-width:0.5;" x1="654.5" x2="857.5" y1="73" y2="73"/><line style="stroke:#181818;stroke-width:0.5;" x1="654.5" x2="857.5" y1="81" y2="81"/><ellipse cx="664.5" cy="94.6484" fill="#84BE84" rx="3" ry="3" style="stroke:#038048;stroke-width:1.0;"/><text fill="#000000" font-family="sans-serif" font-size="14" lengthAdjust="spacing" textLength="179" x="673.5" y="97.9951">error Complete(any, error)</text></g><!--class AppData--><g id="elem_AppData"><rect codeLine="5" fill="#F1F1F1" height="96.8906" id="AppData" rx="2.5" ry="2.5" style="stroke:#181818;stroke-width:0.5;" width="292" x="610" y="165"/><ellipse cx="722.25" cy="181" fill="#F1F1F1" rx="11" ry="11" style="stroke:#181818;stroke-width:1.0;"/><path d="M721.7344,181.5625 Q719.875,180.8594 719.2188,180.0938 Q718.5781,179.3125 718.5781,178 Q718.5781,176.3125 719.6563,175.3438 Q720.7344,174.375 722.6094,174.375 Q723.4688,174.375 724.3125,174.5781 Q725.1719,174.7656 726.0156,175.1563 L726.0156,177.5469 Q725.2344,176.9844 724.4063,176.7031 Q723.5938,176.4063 722.7969,176.4063 Q721.9219,176.4063 721.4375,176.7656 Q720.9688,177.125 720.9688,177.7813 Q720.9688,178.2969 721.3125,178.6406 Q721.6563,178.9688 722.75,179.375 L723.8125,179.7813 Q725.2969,180.3281 726,181.2344 Q726.7188,182.1406 726.7188,183.5156 Q726.7188,185.3906 725.6094,186.3125 Q724.5,187.2344 722.25,187.2344 Q721.3281,187.2344 720.4063,187.0156 Q719.4844,186.7969 718.625,186.375 L718.625,183.8438 Q719.5938,184.5313 720.5156,184.875 Q721.4375,185.2188 722.3281,185.2188 Q723.2344,185.2188 723.7344,184.8125 Q724.2344,184.3906 724.2344,183.6563 Q724.2344,183.0938 723.8906,182.6875 Q723.5625,182.2656 722.9375,182.0156 L721.7344,181.5625 Z " fill="#000000"/><text fill="#000000" font-family="sans-serif" font-size="14" lengthAdjust="spacing" textLength="59" x="742.75" y="185.8467">AppData</text><line style="stroke:#181818;stroke-width:0.5;" x1="611" x2="901" y1="197" y2="197"/><rect fill="none" height="6" style="stroke:#C82930;stroke-width:1.0;" width="6" x="618" y="207.6484"/><text fill="#000000" font-family="sans-serif" font-size="14" lengthAdjust="spacing" textLength="58" x="630" y="213.9951">any data</text><ellipse cx="621" cy="226.9453" fill="none" rx="3" ry="3" style="stroke:#038048;stroke-width:1.0;"/><text fill="#000000" font-family="sans-serif" font-size="14" lengthAdjust="spacing" textLength="266" x="630" y="230.292">CompletionHandler completionHandler</text><line style="stroke:#181818;stroke-width:0.5;" x1="611" x2="901" y1="237.5938" y2="237.5938"/><ellipse cx="621" cy="251.2422" fill="#84BE84" rx="3" ry="3" style="stroke:#038048;stroke-width:1.0;"/><text fill="#000000" font-family="sans-serif" font-size="14" lengthAdjust="spacing" textLength="95" x="630" y="254.5889">any GetData()</text></g><!--class Receiver--><g id="elem_Receiver"><rect codeLine="10" fill="#F1F1F1" height="64.2969" id="Receiver" rx="2.5" ry="2.5" style="stroke:#181818;stroke-width:0.5;" width="187" x="662.5" y="322"/><ellipse cx="721.75" cy="338" fill="#B4A7E5" rx="11" ry="11" style="stroke:#181818;stroke-width:1.0;"/><path d="M717.6719,333.7656 L717.6719,331.6094 L725.0625,331.6094 L725.0625,333.7656 L722.5938,333.7656 L722.5938,341.8438 L725.0625,341.8438 L725.0625,344 L717.6719,344 L717.6719,341.8438 L720.1406,341.8438 L720.1406,333.7656 L717.6719,333.7656 Z " fill="#000000"/><text fill="#000000" font-family="sans-serif" font-size="14" font-style="italic" lengthAdjust="spacing" textLength="60" x="742.25" y="342.8467">Receiver</text><line style="stroke:#181818;stroke-width:0.5;" x1="663.5" x2="848.5" y1="354" y2="354"/><line style="stroke:#181818;stroke-width:0.5;" x1="663.5" x2="848.5" y1="362" y2="362"/><ellipse cx="673.5" cy="375.6484" fill="#84BE84" rx="3" ry="3" style="stroke:#038048;stroke-width:1.0;"/><text fill="#000000" font-family="sans-serif" font-size="14" lengthAdjust="spacing" textLength="161" x="682.5" y="378.9951">error Receive(AppData)</text></g><!--class Server--><g id="elem_Server"><rect codeLine="13" fill="#F1F1F1" height="64.2969" id="Server" rx="2.5" ry="2.5" style="stroke:#181818;stroke-width:0.5;" width="112" x="412" y="478.5"/><ellipse cx="443.2" cy="494.5" fill="#B4A7E5" rx="11" ry="11" style="stroke:#181818;stroke-width:1.0;"/><path d="M439.1219,490.2656 L439.1219,488.1094 L446.5125,488.1094 L446.5125,490.2656 L444.0438,490.2656 L444.0438,498.3438 L446.5125,498.3438 L446.5125,500.5 L439.1219,500.5 L439.1219,498.3438 L441.5906,498.3438 L441.5906,490.2656 L439.1219,490.2656 Z " fill="#000000"/><text fill="#000000" font-family="sans-serif" font-size="14" font-style="italic" lengthAdjust="spacing" textLength="44" x="460.8" y="499.3467">Server</text><line style="stroke:#181818;stroke-width:0.5;" x1="413" x2="523" y1="510.5" y2="510.5"/><line style="stroke:#181818;stroke-width:0.5;" x1="413" x2="523" y1="518.5" y2="518.5"/><ellipse cx="423" cy="532.1484" fill="#84BE84" rx="3" ry="3" style="stroke:#038048;stroke-width:1.0;"/><text fill="#000000" font-family="sans-serif" font-size="14" lengthAdjust="spacing" textLength="86" x="432" y="535.4951">error Serve()</text></g><!--class Pullable--><g id="elem_Pullable"><rect codeLine="16" fill="#F1F1F1" height="64.2969" id="Pullable" rx="2.5" ry="2.5" style="stroke:#181818;stroke-width:0.5;" width="227" x="779.5" y="478.5"/><ellipse cx="862.25" cy="494.5" fill="#B4A7E5" rx="11" ry="11" style="stroke:#181818;stroke-width:1.0;"/><path d="M858.1719,490.2656 L858.1719,488.1094 L865.5625,488.1094 L865.5625,490.2656 L863.0938,490.2656 L863.0938,498.3438 L865.5625,498.3438 L865.5625,500.5 L858.1719,500.5 L858.1719,498.3438 L860.6406,498.3438 L860.6406,490.2656 L858.1719,490.2656 Z " fill="#000000"/><text fill="#000000" font-family="sans-serif" font-size="14" font-style="italic" lengthAdjust="spacing" textLength="53" x="882.75" y="499.3467">Pullable</text><line style="stroke:#181818;stroke-width:0.5;" x1="780.5" x2="1005.5" y1="510.5" y2="510.5"/><line style="stroke:#181818;stroke-width:0.5;" x1="780.5" x2="1005.5" y1="518.5" y2="518.5"/><ellipse cx="790.5" cy="532.1484" fill="#84BE84" rx="3" ry="3" style="stroke:#038048;stroke-width:1.0;"/><text fill="#000000" font-family="sans-serif" font-size="14" lengthAdjust="spacing" textLength="201" x="799.5" y="535.4951">error AddReceiver(*Receiver)</text></g><!--class Pushable--><g id="elem_Pushable"><rect codeLine="19" fill="#F1F1F1" height="64.2969" id="Pushable" rx="2.5" ry="2.5" style="stroke:#181818;stroke-width:0.5;" width="185" x="559.5" y="478.5"/><ellipse cx="615.75" cy="494.5" fill="#B4A7E5" rx="11" ry="11" style="stroke:#181818;stroke-width:1.0;"/><path d="M611.6719,490.2656 L611.6719,488.1094 L619.0625,488.1094 L619.0625,490.2656 L616.5938,490.2656 L616.5938,498.3438 L619.0625,498.3438 L619.0625,500.5 L611.6719,500.5 L611.6719,498.3438 L614.1406,498.3438 L614.1406,490.2656 L611.6719,490.2656 Z " fill="#000000"/><text fill="#000000" font-family="sans-serif" font-size="14" font-style="italic" lengthAdjust="spacing" textLength="64" x="636.25" y="499.3467">Pushable</text><line style="stroke:#181818;stroke-width:0.5;" x1="560.5" x2="743.5" y1="510.5" y2="510.5"/><line style="stroke:#181818;stroke-width:0.5;" x1="560.5" x2="743.5" y1="518.5" y2="518.5"/><ellipse cx="570.5" cy="532.1484" fill="#84BE84" rx="3" ry="3" style="stroke:#038048;stroke-width:1.0;"/><text fill="#000000" font-family="sans-serif" font-size="14" lengthAdjust="spacing" textLength="159" x="579.5" y="535.4951">Receiver GetReceiver()</text></g><!--class SourceServer--><g id="elem_SourceServer"><rect codeLine="22" fill="#F1F1F1" height="80.5938" id="SourceServer" rx="2.5" ry="2.5" style="stroke:#181818;stroke-width:0.5;" width="220" x="524" y="651"/><ellipse cx="583.25" cy="667" fill="#B4A7E5" rx="11" ry="11" style="stroke:#181818;stroke-width:1.0;"/><path d="M579.1719,662.7656 L579.1719,660.6094 L586.5625,660.6094 L586.5625,662.7656 L584.0938,662.7656 L584.0938,670.8438 L586.5625,670.8438 L586.5625,673 L579.1719,673 L579.1719,670.8438 L581.6406,670.8438 L581.6406,662.7656 L579.1719,662.7656 Z " fill="#000000"/><text fill="#000000" font-family="sans-serif" font-size="14" font-style="italic" lengthAdjust="spacing" textLength="93" x="603.75" y="671.8467">SourceServer</text><line style="stroke:#181818;stroke-width:0.5;" x1="525" x2="743" y1="683" y2="683"/><line style="stroke:#181818;stroke-width:0.5;" x1="525" x2="743" y1="691" y2="691"/><ellipse cx="535" cy="704.6484" fill="#84BE84" rx="3" ry="3" style="stroke:#038048;stroke-width:1.0;"/><text fill="#000000" font-family="sans-serif" font-size="14" lengthAdjust="spacing" textLength="194" x="544" y="707.9951">error AddReceiver(Receiver)</text><ellipse cx="535" cy="720.9453" fill="#84BE84" rx="3" ry="3" style="stroke:#038048;stroke-width:1.0;"/><text fill="#000000" font-family="sans-serif" font-size="14" lengthAdjust="spacing" textLength="86" x="544" y="724.292">error Serve()</text></g><!--class SinkServer--><g id="elem_SinkServer"><rect codeLine="26" fill="#F1F1F1" height="80.5938" id="SinkServer" rx="2.5" ry="2.5" style="stroke:#181818;stroke-width:0.5;" width="185" x="303.5" y="651"/><ellipse cx="355.25" cy="667" fill="#B4A7E5" rx="11" ry="11" style="stroke:#181818;stroke-width:1.0;"/><path d="M351.1719,662.7656 L351.1719,660.6094 L358.5625,660.6094 L358.5625,662.7656 L356.0938,662.7656 L356.0938,670.8438 L358.5625,670.8438 L358.5625,673 L351.1719,673 L351.1719,670.8438 L353.6406,670.8438 L353.6406,662.7656 L351.1719,662.7656 Z " fill="#000000"/><text fill="#000000" font-family="sans-serif" font-size="14" font-style="italic" lengthAdjust="spacing" textLength="73" x="375.75" y="671.8467">SinkServer</text><line style="stroke:#181818;stroke-width:0.5;" x1="304.5" x2="487.5" y1="683" y2="683"/><line style="stroke:#181818;stroke-width:0.5;" x1="304.5" x2="487.5" y1="691" y2="691"/><ellipse cx="314.5" cy="704.6484" fill="#84BE84" rx="3" ry="3" style="stroke:#038048;stroke-width:1.0;"/><text fill="#000000" font-family="sans-serif" font-size="14" lengthAdjust="spacing" textLength="159" x="323.5" y="707.9951">Receiver GetReceiver()</text><ellipse cx="314.5" cy="720.9453" fill="#84BE84" rx="3" ry="3" style="stroke:#038048;stroke-width:1.0;"/><text fill="#000000" font-family="sans-serif" font-size="14" lengthAdjust="spacing" textLength="86" x="323.5" y="724.292">error Serve()</text></g><!--class PipeServer--><g id="elem_PipeServer"><rect codeLine="30" fill="#F1F1F1" height="96.8906" id="PipeServer" rx="2.5" ry="2.5" style="stroke:#181818;stroke-width:0.5;" width="227" x="779.5" y="643"/><ellipse cx="851.75" cy="659" fill="#B4A7E5" rx="11" ry="11" style="stroke:#181818;stroke-width:1.0;"/><path d="M847.6719,654.7656 L847.6719,652.6094 L855.0625,652.6094 L855.0625,654.7656 L852.5938,654.7656 L852.5938,662.8438 L855.0625,662.8438 L855.0625,665 L847.6719,665 L847.6719,662.8438 L850.1406,662.8438 L850.1406,654.7656 L847.6719,654.7656 Z " fill="#000000"/><text fill="#000000" font-family="sans-serif" font-size="14" font-style="italic" lengthAdjust="spacing" textLength="74" x="872.25" y="663.8467">PipeServer</text><line style="stroke:#181818;stroke-width:0.5;" x1="780.5" x2="1005.5" y1="675" y2="675"/><line style="stroke:#181818;stroke-width:0.5;" x1="780.5" x2="1005.5" y1="683" y2="683"/><ellipse cx="790.5" cy="696.6484" fill="#84BE84" rx="3" ry="3" style="stroke:#038048;stroke-width:1.0;"/><text fill="#000000" font-family="sans-serif" font-size="14" lengthAdjust="spacing" textLength="201" x="799.5" y="699.9951">error AddReceiver(*Receiver)</text><ellipse cx="790.5" cy="712.9453" fill="#84BE84" rx="3" ry="3" style="stroke:#038048;stroke-width:1.0;"/><text fill="#000000" font-family="sans-serif" font-size="14" lengthAdjust="spacing" textLength="159" x="799.5" y="716.292">Receiver GetReceiver()</text><ellipse cx="790.5" cy="729.2422" fill="#84BE84" rx="3" ry="3" style="stroke:#038048;stroke-width:1.0;"/><text fill="#000000" font-family="sans-serif" font-size="14" lengthAdjust="spacing" textLength="86" x="799.5" y="732.5889">error Serve()</text></g><!--class ProducerResponse--><g id="elem_ProducerResponse"><rect codeLine="35" fill="#F1F1F1" height="80.5938" id="ProducerResponse" rx="2.5" ry="2.5" style="stroke:#181818;stroke-width:0.5;" width="166" x="62" y="470"/><ellipse cx="77" cy="486" fill="#F1F1F1" rx="11" ry="11" style="stroke:#181818;stroke-width:1.0;"/><path d="M76.4844,486.5625 Q74.625,485.8594 73.9688,485.0938 Q73.3281,484.3125 73.3281,483 Q73.3281,481.3125 74.4063,480.3438 Q75.4844,479.375 77.3594,479.375 Q78.2188,479.375 79.0625,479.5781 Q79.9219,479.7656 80.7656,480.1563 L80.7656,482.5469 Q79.9844,481.9844 79.1563,481.7031 Q78.3438,481.4063 77.5469,481.4063 Q76.6719,481.4063 76.1875,481.7656 Q75.7188,482.125 75.7188,482.7813 Q75.7188,483.2969 76.0625,483.6406 Q76.4063,483.9688 77.5,484.375 L78.5625,484.7813 Q80.0469,485.3281 80.75,486.2344 Q81.4688,487.1406 81.4688,488.5156 Q81.4688,490.3906 80.3594,491.3125 Q79.25,492.2344 77,492.2344 Q76.0781,492.2344 75.1563,492.0156 Q74.2344,491.7969 73.375,491.375 L73.375,488.8438 Q74.3438,489.5313 75.2656,489.875 Q76.1875,490.2188 77.0781,490.2188 Q77.9844,490.2188 78.4844,489.8125 Q78.9844,489.3906 78.9844,488.6563 Q78.9844,488.0938 78.6406,487.6875 Q78.3125,487.2656 77.6875,487.0156 L76.4844,486.5625 Z " fill="#000000"/><text fill="#000000" font-family="sans-serif" font-size="14" lengthAdjust="spacing" textLength="134" x="91" y="490.8467">ProducerResponse</text><line style="stroke:#181818;stroke-width:0.5;" x1="63" x2="227" y1="502" y2="502"/><rect fill="none" height="6" style="stroke:#C82930;stroke-width:1.0;" width="6" x="70" y="512.6484"/><text fill="#000000" font-family="sans-serif" font-size="14" lengthAdjust="spacing" textLength="70" x="82" y="518.9951">error error</text><line style="stroke:#181818;stroke-width:0.5;" x1="63" x2="227" y1="526.2969" y2="526.2969"/><ellipse cx="73" cy="539.9453" fill="#84BE84" rx="3" ry="3" style="stroke:#038048;stroke-width:1.0;"/><text fill="#000000" font-family="sans-serif" font-size="14" lengthAdjust="spacing" textLength="105" x="82" y="543.292">error GetError()</text></g><!--class Producer--><g id="elem_Producer"><rect codeLine="39" fill="#F1F1F1" height="113.1875" id="Producer" rx="2.5" ry="2.5" style="stroke:#181818;stroke-width:0.5;" width="246" x="22" y="635"/><ellipse cx="109.25" cy="651" fill="#B4A7E5" rx="11" ry="11" style="stroke:#181818;stroke-width:1.0;"/><path d="M105.1719,646.7656 L105.1719,644.6094 L112.5625,644.6094 L112.5625,646.7656 L110.0938,646.7656 L110.0938,654.8438 L112.5625,654.8438 L112.5625,657 L105.1719,657 L105.1719,654.8438 L107.6406,654.8438 L107.6406,646.7656 L105.1719,646.7656 Z " fill="#000000"/><text fill="#000000" font-family="sans-serif" font-size="14" font-style="italic" lengthAdjust="spacing" textLength="63" x="129.75" y="655.8467">Producer</text><line style="stroke:#181818;stroke-width:0.5;" x1="23" x2="267" y1="667" y2="667"/><line style="stroke:#181818;stroke-width:0.5;" x1="23" x2="267" y1="675" y2="675"/><ellipse cx="33" cy="688.6484" fill="#84BE84" rx="3" ry="3" style="stroke:#038048;stroke-width:1.0;"/><text fill="#000000" font-family="sans-serif" font-size="14" lengthAdjust="spacing" textLength="220" x="42" y="691.9951">ProducerInstance GetInstance()</text><ellipse cx="33" cy="704.9453" fill="#84BE84" rx="3" ry="3" style="stroke:#038048;stroke-width:1.0;"/><text fill="#000000" font-family="sans-serif" font-size="14" lengthAdjust="spacing" textLength="195" x="42" y="708.292">error Setup(ProducerConfig)</text><ellipse cx="33" cy="721.2422" fill="#84BE84" rx="3" ry="3" style="stroke:#038048;stroke-width:1.0;"/><text fill="#000000" font-family="sans-serif" font-size="14" lengthAdjust="spacing" textLength="79" x="42" y="724.5889">error Start()</text><ellipse cx="33" cy="737.5391" fill="#84BE84" rx="3" ry="3" style="stroke:#038048;stroke-width:1.0;"/><text fill="#000000" font-family="sans-serif" font-size="14" lengthAdjust="spacing" textLength="208" x="42" y="740.8857">ProducerResponse Send(any)</text></g><!--class Consumer--><g id="elem_Consumer"><rect codeLine="45" fill="#F1F1F1" height="96.8906" id="Consumer" rx="2.5" ry="2.5" style="stroke:#181818;stroke-width:0.5;" width="230" x="711" y="816"/><ellipse cx="785.75" cy="832" fill="#B4A7E5" rx="11" ry="11" style="stroke:#181818;stroke-width:1.0;"/><path d="M781.6719,827.7656 L781.6719,825.6094 L789.0625,825.6094 L789.0625,827.7656 L786.5938,827.7656 L786.5938,835.8438 L789.0625,835.8438 L789.0625,838 L781.6719,838 L781.6719,835.8438 L784.1406,835.8438 L784.1406,827.7656 L781.6719,827.7656 Z " fill="#000000"/><text fill="#000000" font-family="sans-serif" font-size="14" font-style="italic" lengthAdjust="spacing" textLength="72" x="806.25" y="836.8467">Consumer</text><line style="stroke:#181818;stroke-width:0.5;" x1="712" x2="940" y1="848" y2="848"/><line style="stroke:#181818;stroke-width:0.5;" x1="712" x2="940" y1="856" y2="856"/><ellipse cx="722" cy="869.6484" fill="#84BE84" rx="3" ry="3" style="stroke:#038048;stroke-width:1.0;"/><text fill="#000000" font-family="sans-serif" font-size="14" lengthAdjust="spacing" textLength="194" x="731" y="872.9951">error AddReceiver(Receiver)</text><ellipse cx="722" cy="885.9453" fill="#84BE84" rx="3" ry="3" style="stroke:#038048;stroke-width:1.0;"/><text fill="#000000" font-family="sans-serif" font-size="14" lengthAdjust="spacing" textLength="204" x="731" y="889.292">error Setup(ConsumerConfig)</text><ellipse cx="722" cy="902.2422" fill="#84BE84" rx="3" ry="3" style="stroke:#038048;stroke-width:1.0;"/><text fill="#000000" font-family="sans-serif" font-size="14" lengthAdjust="spacing" textLength="86" x="731" y="905.5889">error Serve()</text></g><!--class KafkaConsumer--><g id="elem_KafkaConsumer"><rect codeLine="50" fill="#F1F1F1" height="113.1875" id="KafkaConsumer" rx="2.5" ry="2.5" style="stroke:#181818;stroke-width:0.5;" width="326" x="681" y="981"/><ellipse cx="785.25" cy="997" fill="#F1F1F1" rx="11" ry="11" style="stroke:#181818;stroke-width:1.0;"/><path d="M784.7344,997.5625 Q782.875,996.8594 782.2188,996.0938 Q781.5781,995.3125 781.5781,994 Q781.5781,992.3125 782.6563,991.3438 Q783.7344,990.375 785.6094,990.375 Q786.4688,990.375 787.3125,990.5781 Q788.1719,990.7656 789.0156,991.1563 L789.0156,993.5469 Q788.2344,992.9844 787.4063,992.7031 Q786.5938,992.4063 785.7969,992.4063 Q784.9219,992.4063 784.4375,992.7656 Q783.9688,993.125 783.9688,993.7813 Q783.9688,994.2969 784.3125,994.6406 Q784.6563,994.9688 785.75,995.375 L786.8125,995.7813 Q788.2969,996.3281 789,997.2344 Q789.7188,998.1406 789.7188,999.5156 Q789.7188,1001.3906 788.6094,1002.3125 Q787.5,1003.2344 785.25,1003.2344 Q784.3281,1003.2344 783.4063,1003.0156 Q782.4844,1002.7969 781.625,1002.375 L781.625,999.8438 Q782.5938,1000.5313 783.5156,1000.875 Q784.4375,1001.2188 785.3281,1001.2188 Q786.2344,1001.2188 786.7344,1000.8125 Q787.2344,1000.3906 787.2344,999.6563 Q787.2344,999.0938 786.8906,998.6875 Q786.5625,998.2656 785.9375,998.0156 L784.7344,997.5625 Z " fill="#000000"/><text fill="#000000" font-family="sans-serif" font-size="14" lengthAdjust="spacing" textLength="109" x="805.75" y="1001.8467">KafkaConsumer</text><line style="stroke:#181818;stroke-width:0.5;" x1="682" x2="1006" y1="1013" y2="1013"/><rect fill="none" height="6" style="stroke:#C82930;stroke-width:1.0;" width="6" x="689" y="1023.6484"/><text fill="#000000" font-family="sans-serif" font-size="14" lengthAdjust="spacing" textLength="300" x="701" y="1029.9951">KafkaConsumerCofig kafkaConsumerConfig</text><line style="stroke:#181818;stroke-width:0.5;" x1="682" x2="1006" y1="1037.2969" y2="1037.2969"/><ellipse cx="692" cy="1050.9453" fill="#84BE84" rx="3" ry="3" style="stroke:#038048;stroke-width:1.0;"/><text fill="#000000" font-family="sans-serif" font-size="14" lengthAdjust="spacing" textLength="194" x="701" y="1054.292">error AddReceiver(Receiver)</text><ellipse cx="692" cy="1067.2422" fill="#84BE84" rx="3" ry="3" style="stroke:#038048;stroke-width:1.0;"/><text fill="#000000" font-family="sans-serif" font-size="14" lengthAdjust="spacing" textLength="232" x="701" y="1070.5889">error Setup(KafkaConsumerCofig)</text><ellipse cx="692" cy="1083.5391" fill="#84BE84" rx="3" ry="3" style="stroke:#038048;stroke-width:1.0;"/><text fill="#000000" font-family="sans-serif" font-size="14" lengthAdjust="spacing" textLength="86" x="701" y="1086.8857">error Serve()</text></g><!--class KafkaProducer--><g id="elem_KafkaProducer"><rect codeLine="56" fill="#F1F1F1" height="113.1875" id="KafkaProducer" rx="2.5" ry="2.5" style="stroke:#181818;stroke-width:0.5;" width="317" x="22.5" y="808"/><ellipse cx="126.75" cy="824" fill="#F1F1F1" rx="11" ry="11" style="stroke:#181818;stroke-width:1.0;"/><path d="M126.2344,824.5625 Q124.375,823.8594 123.7188,823.0938 Q123.0781,822.3125 123.0781,821 Q123.0781,819.3125 124.1563,818.3438 Q125.2344,817.375 127.1094,817.375 Q127.9688,817.375 128.8125,817.5781 Q129.6719,817.7656 130.5156,818.1563 L130.5156,820.5469 Q129.7344,819.9844 128.9063,819.7031 Q128.0938,819.4063 127.2969,819.4063 Q126.4219,819.4063 125.9375,819.7656 Q125.4688,820.125 125.4688,820.7813 Q125.4688,821.2969 125.8125,821.6406 Q126.1563,821.9688 127.25,822.375 L128.3125,822.7813 Q129.7969,823.3281 130.5,824.2344 Q131.2188,825.1406 131.2188,826.5156 Q131.2188,828.3906 130.1094,829.3125 Q129,830.2344 126.75,830.2344 Q125.8281,830.2344 124.9063,830.0156 Q123.9844,829.7969 123.125,829.375 L123.125,826.8438 Q124.0938,827.5313 125.0156,827.875 Q125.9375,828.2188 126.8281,828.2188 Q127.7344,828.2188 128.2344,827.8125 Q128.7344,827.3906 128.7344,826.6563 Q128.7344,826.0938 128.3906,825.6875 Q128.0625,825.2656 127.4375,825.0156 L126.2344,824.5625 Z " fill="#000000"/><text fill="#000000" font-family="sans-serif" font-size="14" lengthAdjust="spacing" textLength="100" x="147.25" y="828.8467">KafkaProducer</text><line style="stroke:#181818;stroke-width:0.5;" x1="23.5" x2="338.5" y1="840" y2="840"/><rect fill="none" height="6" style="stroke:#C82930;stroke-width:1.0;" width="6" x="30.5" y="850.6484"/><text fill="#000000" font-family="sans-serif" font-size="14" lengthAdjust="spacing" textLength="291" x="42.5" y="856.9951">KafkaProducerConfig kafkaProducerConfig</text><line style="stroke:#181818;stroke-width:0.5;" x1="23.5" x2="338.5" y1="864.2969" y2="864.2969"/><ellipse cx="33.5" cy="877.9453" fill="#84BE84" rx="3" ry="3" style="stroke:#038048;stroke-width:1.0;"/><text fill="#000000" font-family="sans-serif" font-size="14" lengthAdjust="spacing" textLength="232" x="42.5" y="881.292">error Setup(KafkaProducerConfig)</text><ellipse cx="33.5" cy="894.2422" fill="#84BE84" rx="3" ry="3" style="stroke:#038048;stroke-width:1.0;"/><text fill="#000000" font-family="sans-serif" font-size="14" lengthAdjust="spacing" textLength="79" x="42.5" y="897.5889">error Start()</text><ellipse cx="33.5" cy="910.5391" fill="#84BE84" rx="3" ry="3" style="stroke:#038048;stroke-width:1.0;"/><text fill="#000000" font-family="sans-serif" font-size="14" lengthAdjust="spacing" textLength="208" x="42.5" y="913.8857">ProducerResponse Send(any)</text></g><!--class ProducersServer--><g id="elem_ProducersServer"><rect codeLine="62" fill="#F1F1F1" height="96.8906" id="ProducersServer" rx="2.5" ry="2.5" style="stroke:#181818;stroke-width:0.5;" width="264" x="375" y="816"/><ellipse cx="445.25" cy="832" fill="#F1F1F1" rx="11" ry="11" style="stroke:#181818;stroke-width:1.0;"/><path d="M444.7344,832.5625 Q442.875,831.8594 442.2188,831.0938 Q441.5781,830.3125 441.5781,829 Q441.5781,827.3125 442.6563,826.3438 Q443.7344,825.375 445.6094,825.375 Q446.4688,825.375 447.3125,825.5781 Q448.1719,825.7656 449.0156,826.1563 L449.0156,828.5469 Q448.2344,827.9844 447.4063,827.7031 Q446.5938,827.4063 445.7969,827.4063 Q444.9219,827.4063 444.4375,827.7656 Q443.9688,828.125 443.9688,828.7813 Q443.9688,829.2969 444.3125,829.6406 Q444.6563,829.9688 445.75,830.375 L446.8125,830.7813 Q448.2969,831.3281 449,832.2344 Q449.7188,833.1406 449.7188,834.5156 Q449.7188,836.3906 448.6094,837.3125 Q447.5,838.2344 445.25,838.2344 Q444.3281,838.2344 443.4063,838.0156 Q442.4844,837.7969 441.625,837.375 L441.625,834.8438 Q442.5938,835.5313 443.5156,835.875 Q444.4375,836.2188 445.3281,836.2188 Q446.2344,836.2188 446.7344,835.8125 Q447.2344,835.3906 447.2344,834.6563 Q447.2344,834.0938 446.8906,833.6875 Q446.5625,833.2656 445.9375,833.0156 L444.7344,832.5625 Z " fill="#000000"/><text fill="#000000" font-family="sans-serif" font-size="14" lengthAdjust="spacing" textLength="115" x="465.75" y="836.8467">ProducersServer</text><line style="stroke:#181818;stroke-width:0.5;" x1="376" x2="638" y1="848" y2="848"/><rect fill="none" height="6" style="stroke:#C82930;stroke-width:1.0;" width="6" x="383" y="858.6484"/><text fill="#000000" font-family="sans-serif" font-size="14" lengthAdjust="spacing" textLength="238" x="395" y="864.9951">map[string]Producer producerMap</text><line style="stroke:#181818;stroke-width:0.5;" x1="376" x2="638" y1="872.2969" y2="872.2969"/><ellipse cx="386" cy="885.9453" fill="#84BE84" rx="3" ry="3" style="stroke:#038048;stroke-width:1.0;"/><text fill="#000000" font-family="sans-serif" font-size="14" lengthAdjust="spacing" textLength="159" x="395" y="889.292">Receiver GetReceiver()</text><ellipse cx="386" cy="902.2422" fill="#84BE84" rx="3" ry="3" style="stroke:#038048;stroke-width:1.0;"/><text fill="#000000" font-family="sans-serif" font-size="14" lengthAdjust="spacing" textLength="86" x="395" y="905.5889">error Serve()</text></g><!--class ConsumersServer--><g id="elem_ConsumersServer"><rect codeLine="67" fill="#F1F1F1" height="96.8906" id="ConsumersServer" rx="2.5" ry="2.5" style="stroke:#181818;stroke-width:0.5;" width="288" x="358" y="989"/><ellipse cx="435.75" cy="1005" fill="#F1F1F1" rx="11" ry="11" style="stroke:#181818;stroke-width:1.0;"/><path d="M435.2344,1005.5625 Q433.375,1004.8594 432.7188,1004.0938 Q432.0781,1003.3125 432.0781,1002 Q432.0781,1000.3125 433.1563,999.3438 Q434.2344,998.375 436.1094,998.375 Q436.9688,998.375 437.8125,998.5781 Q438.6719,998.7656 439.5156,999.1563 L439.5156,1001.5469 Q438.7344,1000.9844 437.9063,1000.7031 Q437.0938,1000.4063 436.2969,1000.4063 Q435.4219,1000.4063 434.9375,1000.7656 Q434.4688,1001.125 434.4688,1001.7813 Q434.4688,1002.2969 434.8125,1002.6406 Q435.1563,1002.9688 436.25,1003.375 L437.3125,1003.7813 Q438.7969,1004.3281 439.5,1005.2344 Q440.2188,1006.1406 440.2188,1007.5156 Q440.2188,1009.3906 439.1094,1010.3125 Q438,1011.2344 435.75,1011.2344 Q434.8281,1011.2344 433.9063,1011.0156 Q432.9844,1010.7969 432.125,1010.375 L432.125,1007.8438 Q433.0938,1008.5313 434.0156,1008.875 Q434.9375,1009.2188 435.8281,1009.2188 Q436.7344,1009.2188 437.2344,1008.8125 Q437.7344,1008.3906 437.7344,1007.6563 Q437.7344,1007.0938 437.3906,1006.6875 Q437.0625,1006.2656 436.4375,1006.0156 L435.2344,1005.5625 Z " fill="#000000"/><text fill="#000000" font-family="sans-serif" font-size="14" lengthAdjust="spacing" textLength="124" x="456.25" y="1009.8467">ConsumersServer</text><line style="stroke:#181818;stroke-width:0.5;" x1="359" x2="645" y1="1021" y2="1021"/><rect fill="none" height="6" style="stroke:#C82930;stroke-width:1.0;" width="6" x="366" y="1031.6484"/><text fill="#000000" font-family="sans-serif" font-size="14" lengthAdjust="spacing" textLength="262" x="378" y="1037.9951">map[string]Consumer consumersMap</text><line style="stroke:#181818;stroke-width:0.5;" x1="359" x2="645" y1="1045.2969" y2="1045.2969"/><ellipse cx="369" cy="1058.9453" fill="#84BE84" rx="3" ry="3" style="stroke:#038048;stroke-width:1.0;"/><text fill="#000000" font-family="sans-serif" font-size="14" lengthAdjust="spacing" textLength="194" x="378" y="1062.292">error AddReceiver(Receiver)</text><ellipse cx="369" cy="1075.2422" fill="#84BE84" rx="3" ry="3" style="stroke:#038048;stroke-width:1.0;"/><text fill="#000000" font-family="sans-serif" font-size="14" lengthAdjust="spacing" textLength="86" x="378" y="1078.5889">error Serve()</text></g><!--class KafkaConsumerCofig--><g id="elem_KafkaConsumerCofig"><rect codeLine="72" fill="#F1F1F1" height="48" id="KafkaConsumerCofig" rx="2.5" ry="2.5" style="stroke:#181818;stroke-width:0.5;" width="176" x="756" y="1154"/><ellipse cx="771" cy="1170" fill="#F1F1F1" rx="11" ry="11" style="stroke:#181818;stroke-width:1.0;"/><path d="M770.4844,1170.5625 Q768.625,1169.8594 767.9688,1169.0938 Q767.3281,1168.3125 767.3281,1167 Q767.3281,1165.3125 768.4063,1164.3438 Q769.4844,1163.375 771.3594,1163.375 Q772.2188,1163.375 773.0625,1163.5781 Q773.9219,1163.7656 774.7656,1164.1563 L774.7656,1166.5469 Q773.9844,1165.9844 773.1563,1165.7031 Q772.3438,1165.4063 771.5469,1165.4063 Q770.6719,1165.4063 770.1875,1165.7656 Q769.7188,1166.125 769.7188,1166.7813 Q769.7188,1167.2969 770.0625,1167.6406 Q770.4063,1167.9688 771.5,1168.375 L772.5625,1168.7813 Q774.0469,1169.3281 774.75,1170.2344 Q775.4688,1171.1406 775.4688,1172.5156 Q775.4688,1174.3906 774.3594,1175.3125 Q773.25,1176.2344 771,1176.2344 Q770.0781,1176.2344 769.1563,1176.0156 Q768.2344,1175.7969 767.375,1175.375 L767.375,1172.8438 Q768.3438,1173.5313 769.2656,1173.875 Q770.1875,1174.2188 771.0781,1174.2188 Q771.9844,1174.2188 772.4844,1173.8125 Q772.9844,1173.3906 772.9844,1172.6563 Q772.9844,1172.0938 772.6406,1171.6875 Q772.3125,1171.2656 771.6875,1171.0156 L770.4844,1170.5625 Z " fill="#000000"/><text fill="#000000" font-family="sans-serif" font-size="14" lengthAdjust="spacing" textLength="144" x="785" y="1174.8467">KafkaConsumerCofig</text><line style="stroke:#181818;stroke-width:0.5;" x1="757" x2="931" y1="1186" y2="1186"/><line style="stroke:#181818;stroke-width:0.5;" x1="757" x2="931" y1="1194" y2="1194"/></g><!--class KafkaProducerConfig--><g id="elem_KafkaProducerConfig"><rect codeLine="73" fill="#F1F1F1" height="48" id="KafkaProducerConfig" rx="2.5" ry="2.5" style="stroke:#181818;stroke-width:0.5;" width="176" x="93" y="1013.5"/><ellipse cx="108" cy="1029.5" fill="#F1F1F1" rx="11" ry="11" style="stroke:#181818;stroke-width:1.0;"/><path d="M107.4844,1030.0625 Q105.625,1029.3594 104.9688,1028.5938 Q104.3281,1027.8125 104.3281,1026.5 Q104.3281,1024.8125 105.4063,1023.8438 Q106.4844,1022.875 108.3594,1022.875 Q109.2188,1022.875 110.0625,1023.0781 Q110.9219,1023.2656 111.7656,1023.6563 L111.7656,1026.0469 Q110.9844,1025.4844 110.1563,1025.2031 Q109.3438,1024.9063 108.5469,1024.9063 Q107.6719,1024.9063 107.1875,1025.2656 Q106.7188,1025.625 106.7188,1026.2813 Q106.7188,1026.7969 107.0625,1027.1406 Q107.4063,1027.4688 108.5,1027.875 L109.5625,1028.2813 Q111.0469,1028.8281 111.75,1029.7344 Q112.4688,1030.6406 112.4688,1032.0156 Q112.4688,1033.8906 111.3594,1034.8125 Q110.25,1035.7344 108,1035.7344 Q107.0781,1035.7344 106.1563,1035.5156 Q105.2344,1035.2969 104.375,1034.875 L104.375,1032.3438 Q105.3438,1033.0313 106.2656,1033.375 Q107.1875,1033.7188 108.0781,1033.7188 Q108.9844,1033.7188 109.4844,1033.3125 Q109.9844,1032.8906 109.9844,1032.1563 Q109.9844,1031.5938 109.6406,1031.1875 Q109.3125,1030.7656 108.6875,1030.5156 L107.4844,1030.0625 Z " fill="#000000"/><text fill="#000000" font-family="sans-serif" font-size="14" lengthAdjust="spacing" textLength="144" x="122" y="1034.3467">KafkaProducerConfig</text><line style="stroke:#181818;stroke-width:0.5;" x1="94" x2="268" y1="1045.5" y2="1045.5"/><line style="stroke:#181818;stroke-width:0.5;" x1="94" x2="268" y1="1053.5" y2="1053.5"/></g><!--class ProducerConfig--><g id="elem_ProducerConfig"><rect codeLine="74" fill="#F1F1F1" height="48" id="ProducerConfig" rx="2.5" ry="2.5" style="stroke:#181818;stroke-width:0.5;" width="139" x="111.5" y="1154"/><ellipse cx="126.5" cy="1170" fill="#F1F1F1" rx="11" ry="11" style="stroke:#181818;stroke-width:1.0;"/><path d="M125.9844,1170.5625 Q124.125,1169.8594 123.4688,1169.0938 Q122.8281,1168.3125 122.8281,1167 Q122.8281,1165.3125 123.9063,1164.3438 Q124.9844,1163.375 126.8594,1163.375 Q127.7188,1163.375 128.5625,1163.5781 Q129.4219,1163.7656 130.2656,1164.1563 L130.2656,1166.5469 Q129.4844,1165.9844 128.6563,1165.7031 Q127.8438,1165.4063 127.0469,1165.4063 Q126.1719,1165.4063 125.6875,1165.7656 Q125.2188,1166.125 125.2188,1166.7813 Q125.2188,1167.2969 125.5625,1167.6406 Q125.9063,1167.9688 127,1168.375 L128.0625,1168.7813 Q129.5469,1169.3281 130.25,1170.2344 Q130.9688,1171.1406 130.9688,1172.5156 Q130.9688,1174.3906 129.8594,1175.3125 Q128.75,1176.2344 126.5,1176.2344 Q125.5781,1176.2344 124.6563,1176.0156 Q123.7344,1175.7969 122.875,1175.375 L122.875,1172.8438 Q123.8438,1173.5313 124.7656,1173.875 Q125.6875,1174.2188 126.5781,1174.2188 Q127.4844,1174.2188 127.9844,1173.8125 Q128.4844,1173.3906 128.4844,1172.6563 Q128.4844,1172.0938 128.1406,1171.6875 Q127.8125,1171.2656 127.1875,1171.0156 L125.9844,1170.5625 Z " fill="#000000"/><text fill="#000000" font-family="sans-serif" font-size="14" lengthAdjust="spacing" textLength="107" x="140.5" y="1174.8467">ProducerConfig</text><line style="stroke:#181818;stroke-width:0.5;" x1="112.5" x2="249.5" y1="1186" y2="1186"/><line style="stroke:#181818;stroke-width:0.5;" x1="112.5" x2="249.5" y1="1194" y2="1194"/></g><!--class ConsumerConfig--><g id="elem_ConsumerConfig"><rect codeLine="75" fill="#F1F1F1" height="48" id="ConsumerConfig" rx="2.5" ry="2.5" style="stroke:#181818;stroke-width:0.5;" width="148" x="770" y="1262"/><ellipse cx="785" cy="1278" fill="#F1F1F1" rx="11" ry="11" style="stroke:#181818;stroke-width:1.0;"/><path d="M784.4844,1278.5625 Q782.625,1277.8594 781.9688,1277.0938 Q781.3281,1276.3125 781.3281,1275 Q781.3281,1273.3125 782.4063,1272.3438 Q783.4844,1271.375 785.3594,1271.375 Q786.2188,1271.375 787.0625,1271.5781 Q787.9219,1271.7656 788.7656,1272.1563 L788.7656,1274.5469 Q787.9844,1273.9844 787.1563,1273.7031 Q786.3438,1273.4063 785.5469,1273.4063 Q784.6719,1273.4063 784.1875,1273.7656 Q783.7188,1274.125 783.7188,1274.7813 Q783.7188,1275.2969 784.0625,1275.6406 Q784.4063,1275.9688 785.5,1276.375 L786.5625,1276.7813 Q788.0469,1277.3281 788.75,1278.2344 Q789.4688,1279.1406 789.4688,1280.5156 Q789.4688,1282.3906 788.3594,1283.3125 Q787.25,1284.2344 785,1284.2344 Q784.0781,1284.2344 783.1563,1284.0156 Q782.2344,1283.7969 781.375,1283.375 L781.375,1280.8438 Q782.3438,1281.5313 783.2656,1281.875 Q784.1875,1282.2188 785.0781,1282.2188 Q785.9844,1282.2188 786.4844,1281.8125 Q786.9844,1281.3906 786.9844,1280.6563 Q786.9844,1280.0938 786.6406,1279.6875 Q786.3125,1279.2656 785.6875,1279.0156 L784.4844,1278.5625 Z " fill="#000000"/><text fill="#000000" font-family="sans-serif" font-size="14" lengthAdjust="spacing" textLength="116" x="799" y="1282.8467">ConsumerConfig</text><line style="stroke:#181818;stroke-width:0.5;" x1="771" x2="917" y1="1294" y2="1294"/><line style="stroke:#181818;stroke-width:0.5;" x1="771" x2="917" y1="1302" y2="1302"/></g><!--class JQTransformer--><g id="elem_JQTransformer"><rect codeLine="78" fill="#F1F1F1" height="129.4844" id="JQTransformer" rx="2.5" ry="2.5" style="stroke:#181818;stroke-width:0.5;" width="220" x="1063" y="446"/><ellipse cx="1119.75" cy="462" fill="#F1F1F1" rx="11" ry="11" style="stroke:#181818;stroke-width:1.0;"/><path d="M1119.2344,462.5625 Q1117.375,461.8594 1116.7188,461.0938 Q1116.0781,460.3125 1116.0781,459 Q1116.0781,457.3125 1117.1563,456.3438 Q1118.2344,455.375 1120.1094,455.375 Q1120.9688,455.375 1121.8125,455.5781 Q1122.6719,455.7656 1123.5156,456.1563 L1123.5156,458.5469 Q1122.7344,457.9844 1121.9063,457.7031 Q1121.0938,457.4063 1120.2969,457.4063 Q1119.4219,457.4063 1118.9375,457.7656 Q1118.4688,458.125 1118.4688,458.7813 Q1118.4688,459.2969 1118.8125,459.6406 Q1119.1563,459.9688 1120.25,460.375 L1121.3125,460.7813 Q1122.7969,461.3281 1123.5,462.2344 Q1124.2188,463.1406 1124.2188,464.5156 Q1124.2188,466.3906 1123.1094,467.3125 Q1122,468.2344 1119.75,468.2344 Q1118.8281,468.2344 1117.9063,468.0156 Q1116.9844,467.7969 1116.125,467.375 L1116.125,464.8438 Q1117.0938,465.5313 1118.0156,465.875 Q1118.9375,466.2188 1119.8281,466.2188 Q1120.7344,466.2188 1121.2344,465.8125 Q1121.7344,465.3906 1121.7344,464.6563 Q1121.7344,464.0938 1121.3906,463.6875 Q1121.0625,463.2656 1120.4375,463.0156 L1119.2344,462.5625 Z " fill="#000000"/><text fill="#000000" font-family="sans-serif" font-size="14" lengthAdjust="spacing" textLength="98" x="1140.25" y="466.8467">JQTransformer</text><line style="stroke:#181818;stroke-width:0.5;" x1="1064" x2="1282" y1="478" y2="478"/><rect fill="none" height="6" style="stroke:#C82930;stroke-width:1.0;" width="6" x="1071" y="488.6484"/><text fill="#000000" font-family="sans-serif" font-size="14" lengthAdjust="spacing" textLength="96" x="1083" y="494.9951">string jqQuery</text><rect fill="none" height="6" style="stroke:#C82930;stroke-width:1.0;" width="6" x="1071" y="504.9453"/><text fill="#000000" font-family="sans-serif" font-size="14" lengthAdjust="spacing" textLength="111" x="1083" y="511.292">Code jqProgram</text><line style="stroke:#181818;stroke-width:0.5;" x1="1064" x2="1282" y1="518.5938" y2="518.5938"/><ellipse cx="1074" cy="532.2422" fill="#84BE84" rx="3" ry="3" style="stroke:#038048;stroke-width:1.0;"/><text fill="#000000" font-family="sans-serif" font-size="14" lengthAdjust="spacing" textLength="194" x="1083" y="535.5889">error AddReceiver(Receiver)</text><ellipse cx="1074" cy="548.5391" fill="#84BE84" rx="3" ry="3" style="stroke:#038048;stroke-width:1.0;"/><text fill="#000000" font-family="sans-serif" font-size="14" lengthAdjust="spacing" textLength="159" x="1083" y="551.8857">Receiver GetReceiver()</text><ellipse cx="1074" cy="564.8359" fill="#84BE84" rx="3" ry="3" style="stroke:#038048;stroke-width:1.0;"/><text fill="#000000" font-family="sans-serif" font-size="14" lengthAdjust="spacing" textLength="86" x="1083" y="568.1826">error Serve()</text></g><!--reverse link CompletionHandler to AppData--><g id="link_CompletionHandler_AppData"><path codeLine="86" d="M756,117.08 C756,134.71 756,145.13 756,164.93 " fill="none" id="CompletionHandler-backto-AppData" style="stroke:#181818;stroke-width:1.0;"/><polygon fill="#181818" points="756,105.08,752,111.08,756,117.08,760,111.08,756,105.08" style="stroke:#181818;stroke-width:1.0;"/></g><!--reverse link AppData to Receiver--><g id="link_AppData_Receiver"><path codeLine="87" d="M756,274.16 C756,293.88 756,304.2 756,321.77 " fill="none" id="AppData-backto-Receiver" style="stroke:#181818;stroke-width:1.0;"/><polygon fill="#181818" points="756,262.16,752,268.16,756,274.16,760,268.16,756,262.16" style="stroke:#181818;stroke-width:1.0;"/></g><!--reverse link Receiver to Pullable--><g id="link_Receiver_Pullable"><path codeLine="88" d="M791.6826,395.2476 C815.4526,422.0476 841.56,451.49 865.32,478.28 " fill="none" id="Receiver-backto-Pullable" style="stroke:#181818;stroke-width:1.0;"/><polygon fill="#181818" points="783.72,386.27,784.7088,393.413,791.6826,395.2476,790.6938,388.1046,783.72,386.27" style="stroke:#181818;stroke-width:1.0;"/></g><!--reverse link Receiver to Pushable--><g id="link_Receiver_Pushable"><path codeLine="89" d="M728.2491,396.2248 C710.2091,423.0248 691.05,451.49 673.01,478.28 " fill="none" id="Receiver-backto-Pushable" style="stroke:#181818;stroke-width:1.0;"/><polygon fill="#181818" points="734.95,386.27,728.2813,389.0138,728.2491,396.2248,734.9178,393.481,734.95,386.27" style="stroke:#181818;stroke-width:1.0;"/></g><!--reverse link Server to SourceServer--><g id="link_Server_SourceServer"><path codeLine="90" d="M504.8609,556.7115 C518.8609,573.6415 525.27,580.87 542,599 C558.04,616.39 576.4,634.9 592.47,650.7 " fill="none" id="Server-backto-SourceServer" style="stroke:#181818;stroke-width:1.0;"/><polygon fill="none" points="493.39,542.84,500.237,560.5352,509.4847,552.8879,493.39,542.84" style="stroke:#181818;stroke-width:1.0;"/></g><!--reverse link Pullable to SourceServer--><g id="link_Pullable_SourceServer"><path codeLine="91" d="M833.0823,552.9139 C789.6023,582.9639 738.45,618.31 691.28,650.91 " fill="none" id="Pullable-backto-SourceServer" style="stroke:#181818;stroke-width:1.0;"/><polygon fill="none" points="847.89,542.68,829.671,547.978,836.4936,557.8498,847.89,542.68" style="stroke:#181818;stroke-width:1.0;"/></g><!--reverse link Server to SinkServer--><g id="link_Server_SinkServer"><path codeLine="92" d="M448.7414,559.3791 C436.6514,589.4291 425.04,618.31 411.92,650.91 " fill="none" id="Server-backto-SinkServer" style="stroke:#181818;stroke-width:1.0;"/><polygon fill="none" points="455.46,542.68,443.1751,557.1396,454.3078,561.6187,455.46,542.68" style="stroke:#181818;stroke-width:1.0;"/></g><!--reverse link Pushable to SinkServer--><g id="link_Pushable_SinkServer"><path codeLine="93" d="M601.2171,553.9506 C580.2271,571.1806 567.1,581.24 542,599 C516.73,616.89 488.03,635.27 462.8,650.82 " fill="none" id="Pushable-backto-SinkServer" style="stroke:#181818;stroke-width:1.0;"/><polygon fill="none" points="615.13,542.53,597.4102,549.313,605.024,558.5883,615.13,542.53" style="stroke:#181818;stroke-width:1.0;"/></g><!--reverse link Pushable to PipeServer--><g id="link_Pushable_PipeServer"><path codeLine="94" d="M703.9749,553.99 C724.9549,570.96 737.65,580.84 762,599 C781.57,613.6 803.16,628.97 823.08,642.86 " fill="none" id="Pushable-backto-PipeServer" style="stroke:#181818;stroke-width:1.0;"/><polygon fill="none" points="689.98,542.67,700.2016,558.655,707.7482,549.325,689.98,542.67" style="stroke:#181818;stroke-width:1.0;"/></g><!--reverse link Pullable to PipeServer--><g id="link_Pullable_PipeServer"><path codeLine="95" d="M893,560.68 C893,588.33 893,611.12 893,642.85 " fill="none" id="Pullable-backto-PipeServer" style="stroke:#181818;stroke-width:1.0;"/><polygon fill="none" points="893,542.68,887,560.68,899,560.68,893,542.68" style="stroke:#181818;stroke-width:1.0;"/></g><!--reverse link Server to PipeServer--><g id="link_Server_PipeServer"><path codeLine="96" d="M496.3551,557.7264 C509.3751,577.0864 518.63,585.76 542,599 C628.2,647.84 666.82,607.48 762,635 C770.07,637.33 778.3,640.02 786.52,642.94 " fill="none" id="Server-backto-PipeServer" style="stroke:#181818;stroke-width:1.0;"/><polygon fill="none" points="486.31,542.79,491.3762,561.0748,501.3339,554.3781,486.31,542.79" style="stroke:#181818;stroke-width:1.0;"/></g><!--reverse link ProducerResponse to Producer--><g id="link_ProducerResponse_Producer"><path codeLine="98" d="M145,563.23 C145,587.84 145,607.82 145,634.93 " fill="none" id="ProducerResponse-backto-Producer" style="stroke:#181818;stroke-width:1.0;"/><polygon fill="#181818" points="145,551.23,141,557.23,145,563.23,149,557.23,145,551.23" style="stroke:#181818;stroke-width:1.0;"/></g><!--reverse link Producer to KafkaProducer--><g id="link_Producer_KafkaProducer"><path codeLine="99" d="M160.3945,765.6347 C164.4345,784.8447 165.26,788.75 169.31,807.97 " fill="none" id="Producer-backto-KafkaProducer" style="stroke:#181818;stroke-width:1.0;"/><polygon fill="none" points="156.69,748.02,154.5229,766.8695,166.266,764.3998,156.69,748.02" style="stroke:#181818;stroke-width:1.0;"/></g><!--reverse link Consumer to KafkaConsumer--><g id="link_Consumer_KafkaConsumer"><path codeLine="100" d="M832.8979,931.0307 C835.1179,952.0807 835.85,959.07 838.15,980.96 " fill="none" id="Consumer-backto-KafkaConsumer" style="stroke:#181818;stroke-width:1.0;"/><polygon fill="none" points="831.01,913.13,826.931,931.66,838.8648,930.4014,831.01,913.13" style="stroke:#181818;stroke-width:1.0;"/></g><!--reverse link Producer to ProducersServer--><g id="link_Producer_ProducersServer"><path codeLine="101" d="M273.3808,753.1446 C319.7308,775.0346 361.58,794.81 406.16,815.87 " fill="none" id="Producer-backto-ProducersServer" style="stroke:#181818;stroke-width:1.0;"/><polygon fill="#181818" points="262.53,748.02,266.2472,754.1992,273.3808,753.1446,269.6636,746.9654,262.53,748.02" style="stroke:#181818;stroke-width:1.0;"/></g><!--reverse link SinkServer to ProducersServer--><g id="link_SinkServer_ProducersServer"><path codeLine="102" d="M431.5438,747.2559 C447.7538,772.2159 458.95,789.48 476.06,815.84 " fill="none" id="SinkServer-backto-ProducersServer" style="stroke:#181818;stroke-width:1.0;"/><polygon fill="none" points="421.74,732.16,426.5119,750.5238,436.5758,743.9879,421.74,732.16" style="stroke:#181818;stroke-width:1.0;"/></g><!--reverse link SourceServer to ConsumersServer--><g id="link_SourceServer_ConsumersServer"><path codeLine="103" d="M656.3884,748.9834 C673.3384,796.4934 687.41,860.42 657,921 C643.22,948.44 619.5,971.02 594.69,988.71 " fill="none" id="SourceServer-backto-ConsumersServer" style="stroke:#181818;stroke-width:1.0;"/><polygon fill="none" points="650.34,732.03,650.7373,750.9995,662.0395,746.9672,650.34,732.03" style="stroke:#181818;stroke-width:1.0;"/></g><!--reverse link Consumer to ConsumersServer--><g id="link_Consumer_ConsumersServer"><path codeLine="104" d="M725.1373,918.7309 C680.2873,942.4009 636.87,965.32 592.05,988.97 " fill="none" id="Consumer-backto-ConsumersServer" style="stroke:#181818;stroke-width:1.0;"/><polygon fill="#181818" points="735.75,913.13,728.5767,912.3929,725.1373,918.7309,732.3106,919.468,735.75,913.13" style="stroke:#181818;stroke-width:1.0;"/></g><!--reverse link SourceServer to Consumer--><g id="link_SourceServer_Consumer"><path codeLine="105" d="M691.9728,744.1305 C720.0028,769.0905 742.89,789.48 772.49,815.84 " fill="none" id="SourceServer-backto-Consumer" style="stroke:#181818;stroke-width:1.0;"/><polygon fill="none" points="678.53,732.16,687.9826,748.6114,695.9629,739.6495,678.53,732.16" style="stroke:#181818;stroke-width:1.0;"/></g><!--link KafkaConsumer to KafkaConsumerCofig--><g id="link_KafkaConsumer_KafkaConsumerCofig"><path codeLine="107" d="M844,1094.04 C844,1114.96 844,1125.62 844,1141.96 " fill="none" id="KafkaConsumer-to-KafkaConsumerCofig" style="stroke:#181818;stroke-width:1.0;"/><polygon fill="#181818" points="844,1153.96,848,1147.96,844,1141.96,840,1147.96,844,1153.96" style="stroke:#181818;stroke-width:1.0;"/></g><!--link KafkaProducer to KafkaProducerConfig--><g id="link_KafkaProducer_KafkaProducerConfig"><path codeLine="108" d="M181,921.02 C181,952.23 181,977.53 181,1001.13 " fill="none" id="KafkaProducer-to-KafkaProducerConfig" style="stroke:#181818;stroke-width:1.0;"/><polygon fill="#181818" points="181,1013.13,185,1007.13,181,1001.13,177,1007.13,181,1013.13" style="stroke:#181818;stroke-width:1.0;"/></g><!--link JQTransformer to PipeServer--><g id="link_JQTransformer_PipeServer"><path codeLine="110" d="M1073.49,575.11 C1038.6,597.42 1015.1972,612.387 982.6972,633.157 " fill="none" id="JQTransformer-to-PipeServer" style="stroke:#181818;stroke-width:1.0;"/><polygon fill="none" points="967.53,642.85,985.9282,638.2127,979.4662,628.1012,967.53,642.85" style="stroke:#181818;stroke-width:1.0;"/></g><!--link KafkaProducerConfig to ProducerConfig--><g id="link_KafkaProducerConfig_ProducerConfig"><path codeLine="112" d="M181,1061.68 C181,1087.25 181,1116.15 181,1141.74 " fill="none" id="KafkaProducerConfig-to-ProducerConfig" style="stroke:#181818;stroke-width:1.0;"/><polygon fill="#181818" points="181,1153.74,185,1147.74,181,1141.74,177,1147.74,181,1153.74" style="stroke:#181818;stroke-width:1.0;"/></g><!--link KafkaConsumerCofig to ConsumerConfig--><g id="link_KafkaConsumerCofig_ConsumerConfig"><path codeLine="113" d="M844,1202 C844,1219.66 844,1231.94 844,1249.68 " fill="none" id="KafkaConsumerCofig-to-ConsumerConfig" style="stroke:#181818;stroke-width:1.0;"/><polygon fill="#181818" points="844,1261.68,848,1255.68,844,1249.68,840,1255.68,844,1261.68" style="stroke:#181818;stroke-width:1.0;"/></g><!--SRC=[jLPDSzCm4BtxL_Xe3CuluD897KePe6suCHo4hGGJMnAItA43-Uz8jYJhqqaJyC7ZhDw-VRihQOD03na1DSmta3v2cl_ESl6qY4EwbUOrxaa7UOlH3K1DPn3oUGafnLH3O07GqwjyjBqOCOVnpJWTQfvV4V86S62vLmAVDy8s4uRHQjyoWwNxMyWbQs47dCK_m1gsZp7DQgLGgkBkJaaivz6U27atT1turi7Gwwffj9wYr5yf4lRT9p6vY9GDJq8t7cWDK-fj7QwC4rFSj6WVaY_eExLqBJb9T1bHVMvqjJdlA6w66j87SHWmOdRXgybrVFjy8jYr_4Wbf5ZjTBJj7M8S804I7Fex9fWFfD0-QuosxIu4SK2vxHjaiu6eaQSpBbFGig6_OAj8ZPeafJ5L-VTWkmSH1PMpiCQ2DD-x9Xde0iLXW6UgZhItSXOcYPDirxQWwByqszlcB3XcLG_85u5gqUwhoOkeZm-0_BEJfWk-BC5iY5h37GqNNMInZJUsFzbWgsTU8SCLRtiUCcGcxEtcqyVhNvo2ccETkFAwlVzC0M9RJBrJCDKZ__7pVe3qQRQlSGE5LUZOKT0_ipBdjF2GJGrRXIEwh2erAbTgd6RkJnkXusNURnkZP-WoPXgH6gEsq-i_CyGUWvb7VHGOupDpB_D4d0ERfzsYjX0MKMQ139b_BTYrKsi-rk5qJi3SV7Kk0wHU2JWZSPcNqFn_maagWRR_tDXuxsO999T7eKUfJNKZmwci1h9SajXi2BrCoREWkLAJX3iNoSgvEuB-7usZBYelqwIRa_HV]--></g></svg>