<?xml version="1.0" encoding="us-ascii" standalone="no"?><svg xmlns="http://www.w3.org/2000/svg" xmlns:xlink="http://www.w3.org/1999/xlink" contentStyleType="text/css" height="1068px" preserveAspectRatio="none" style="width:1367px;height:1068px;background:#FFFFFF;" version="1.1" viewBox="0 0 1367 1068" width="1367px" zoomAndPan="magnify"><defs/><g><!--cluster JSONExtractor--><g id="cluster_JSONExtractor"><path d="M1102.5,724 L1212.5,724 A3.75,3.75 0 0 1 1215,726.5 L1222,746.2969 L1357.5,746.2969 A2.5,2.5 0 0 1 1360,748.7969 L1360,901.5 A2.5,2.5 0 0 1 1357.5,904 L1102.5,904 A2.5,2.5 0 0 1 1100,901.5 L1100,726.5 A2.5,2.5 0 0 1 1102.5,724 " fill="none" style="stroke:#000000;stroke-width:1.5;"/><line style="stroke:#000000;stroke-width:1.5;" x1="1100" x2="1222" y1="746.2969" y2="746.2969"/><text fill="#000000" font-family="sans-serif" font-size="14" font-weight="bold" lengthAdjust="spacing" textLength="109" x="1104" y="738.9951">JSONExtractor</text></g><!--cluster Server--><g id="cluster_Server"><path d="M8.5,6 L62.5,6 A3.75,3.75 0 0 1 65,8.5 L72,28.2969 L1073.5,28.2969 A2.5,2.5 0 0 1 1076,30.7969 L1076,1058.5 A2.5,2.5 0 0 1 1073.5,1061 L8.5,1061 A2.5,2.5 0 0 1 6,1058.5 L6,8.5 A2.5,2.5 0 0 1 8.5,6 " fill="none" style="stroke:#000000;stroke-width:1.5;"/><line style="stroke:#000000;stroke-width:1.5;" x1="6" x2="72" y1="28.2969" y2="28.2969"/><text fill="#000000" font-family="sans-serif" font-size="14" font-weight="bold" lengthAdjust="spacing" textLength="53" x="10" y="20.9951">Server</text></g><!--class JQTransformer--><g id="elem_JQTransformer"><rect codeLine="2" fill="#F1F1F1" height="129.4844" id="JQTransformer" rx="2.5" ry="2.5" style="stroke:#181818;stroke-width:0.5;" width="228" x="1116" y="759"/><ellipse cx="1176.75" cy="775" fill="#F1F1F1" rx="11" ry="11" style="stroke:#181818;stroke-width:1.0;"/><path d="M1176.2344,775.5625 Q1174.375,774.8594 1173.7188,774.0938 Q1173.0781,773.3125 1173.0781,772 Q1173.0781,770.3125 1174.1563,769.3438 Q1175.2344,768.375 1177.1094,768.375 Q1177.9688,768.375 1178.8125,768.5781 Q1179.6719,768.7656 1180.5156,769.1563 L1180.5156,771.5469 Q1179.7344,770.9844 1178.9063,770.7031 Q1178.0938,770.4063 1177.2969,770.4063 Q1176.4219,770.4063 1175.9375,770.7656 Q1175.4688,771.125 1175.4688,771.7813 Q1175.4688,772.2969 1175.8125,772.6406 Q1176.1563,772.9688 1177.25,773.375 L1178.3125,773.7813 Q1179.7969,774.3281 1180.5,775.2344 Q1181.2188,776.1406 1181.2188,777.5156 Q1181.2188,779.3906 1180.1094,780.3125 Q1179,781.2344 1176.75,781.2344 Q1175.8281,781.2344 1174.9063,781.0156 Q1173.9844,780.7969 1173.125,780.375 L1173.125,777.8438 Q1174.0938,778.5313 1175.0156,778.875 Q1175.9375,779.2188 1176.8281,779.2188 Q1177.7344,779.2188 1178.2344,778.8125 Q1178.7344,778.3906 1178.7344,777.6563 Q1178.7344,777.0938 1178.3906,776.6875 Q1178.0625,776.2656 1177.4375,776.0156 L1176.2344,775.5625 Z " fill="#000000"/><text fill="#000000" font-family="sans-serif" font-size="14" lengthAdjust="spacing" textLength="98" x="1197.25" y="779.8467">JQTransformer</text><line style="stroke:#181818;stroke-width:0.5;" x1="1117" x2="1343" y1="791" y2="791"/><rect fill="none" height="6" style="stroke:#C82930;stroke-width:1.0;" width="6" x="1124" y="801.6484"/><text fill="#000000" font-family="sans-serif" font-size="14" lengthAdjust="spacing" textLength="145" x="1136" y="807.9951">gojq.Code jqProgram</text><rect fill="none" height="6" style="stroke:#C82930;stroke-width:1.0;" width="6" x="1124" y="817.9453"/><text fill="#000000" font-family="sans-serif" font-size="14" lengthAdjust="spacing" textLength="132" x="1136" y="824.292">Pushable pushable</text><line style="stroke:#181818;stroke-width:0.5;" x1="1117" x2="1343" y1="831.5938" y2="831.5938"/><ellipse cx="1127" cy="845.2422" fill="#84BE84" rx="3" ry="3" style="stroke:#038048;stroke-width:1.0;"/><text fill="#000000" font-family="sans-serif" font-size="14" lengthAdjust="spacing" textLength="202" x="1136" y="848.5889">error AddPushable(Pushable)</text><ellipse cx="1127" cy="861.5391" fill="#84BE84" rx="3" ry="3" style="stroke:#038048;stroke-width:1.0;"/><text fill="#000000" font-family="sans-serif" font-size="14" lengthAdjust="spacing" textLength="167" x="1136" y="864.8857">error SendTo(*AppData)</text><ellipse cx="1127" cy="877.8359" fill="#84BE84" rx="3" ry="3" style="stroke:#038048;stroke-width:1.0;"/><text fill="#000000" font-family="sans-serif" font-size="14" lengthAdjust="spacing" textLength="86" x="1136" y="881.1826">error Serve()</text></g><!--class CompletionHandler--><g id="elem_CompletionHandler"><rect codeLine="11" fill="#F1F1F1" height="64.2969" id="CompletionHandler" rx="2.5" ry="2.5" style="stroke:#181818;stroke-width:0.5;" width="205" x="607.5" y="41"/><ellipse cx="640.95" cy="57" fill="#B4A7E5" rx="11" ry="11" style="stroke:#181818;stroke-width:1.0;"/><path d="M636.8719,52.7656 L636.8719,50.6094 L644.2625,50.6094 L644.2625,52.7656 L641.7938,52.7656 L641.7938,60.8438 L644.2625,60.8438 L644.2625,63 L636.8719,63 L636.8719,60.8438 L639.3406,60.8438 L639.3406,52.7656 L636.8719,52.7656 Z " fill="#000000"/><text fill="#000000" font-family="sans-serif" font-size="14" font-style="italic" lengthAdjust="spacing" textLength="132" x="659.05" y="61.8467">CompletionHandler</text><line style="stroke:#181818;stroke-width:0.5;" x1="608.5" x2="811.5" y1="73" y2="73"/><line style="stroke:#181818;stroke-width:0.5;" x1="608.5" x2="811.5" y1="81" y2="81"/><ellipse cx="618.5" cy="94.6484" fill="#84BE84" rx="3" ry="3" style="stroke:#038048;stroke-width:1.0;"/><text fill="#000000" font-family="sans-serif" font-size="14" lengthAdjust="spacing" textLength="179" x="627.5" y="97.9951">error Complete(any, error)</text></g><!--class WaitGroupCompletionHandler--><g id="elem_WaitGroupCompletionHandler"><rect codeLine="14" fill="#F1F1F1" height="129.4844" id="WaitGroupCompletionHandler" rx="2.5" ry="2.5" style="stroke:#181818;stroke-width:0.5;" width="236" x="433" y="165"/><ellipse cx="448" cy="181" fill="#F1F1F1" rx="11" ry="11" style="stroke:#181818;stroke-width:1.0;"/><path d="M447.4844,181.5625 Q445.625,180.8594 444.9688,180.0938 Q444.3281,179.3125 444.3281,178 Q444.3281,176.3125 445.4063,175.3438 Q446.4844,174.375 448.3594,174.375 Q449.2188,174.375 450.0625,174.5781 Q450.9219,174.7656 451.7656,175.1563 L451.7656,177.5469 Q450.9844,176.9844 450.1563,176.7031 Q449.3438,176.4063 448.5469,176.4063 Q447.6719,176.4063 447.1875,176.7656 Q446.7188,177.125 446.7188,177.7813 Q446.7188,178.2969 447.0625,178.6406 Q447.4063,178.9688 448.5,179.375 L449.5625,179.7813 Q451.0469,180.3281 451.75,181.2344 Q452.4688,182.1406 452.4688,183.5156 Q452.4688,185.3906 451.3594,186.3125 Q450.25,187.2344 448,187.2344 Q447.0781,187.2344 446.1563,187.0156 Q445.2344,186.7969 444.375,186.375 L444.375,183.8438 Q445.3438,184.5313 446.2656,184.875 Q447.1875,185.2188 448.0781,185.2188 Q448.9844,185.2188 449.4844,184.8125 Q449.9844,184.3906 449.9844,183.6563 Q449.9844,183.0938 449.6406,182.6875 Q449.3125,182.2656 448.6875,182.0156 L447.4844,181.5625 Z " fill="#000000"/><text fill="#000000" font-family="sans-serif" font-size="14" lengthAdjust="spacing" textLength="204" x="462" y="185.8467">WaitGroupCompletionHandler</text><line style="stroke:#181818;stroke-width:0.5;" x1="434" x2="668" y1="197" y2="197"/><rect fill="none" height="6" style="stroke:#C82930;stroke-width:1.0;" width="6" x="441" y="207.6484"/><text fill="#000000" font-family="sans-serif" font-size="14" lengthAdjust="spacing" textLength="132" x="453" y="213.9951">sync.WaitGroup wg</text><rect fill="none" height="6" style="stroke:#C82930;stroke-width:1.0;" width="6" x="441" y="223.9453"/><text fill="#000000" font-family="sans-serif" font-size="14" lengthAdjust="spacing" textLength="58" x="453" y="230.292">any data</text><rect fill="none" height="6" style="stroke:#C82930;stroke-width:1.0;" width="6" x="441" y="240.2422"/><text fill="#000000" font-family="sans-serif" font-size="14" lengthAdjust="spacing" textLength="70" x="453" y="246.5889">error error</text><rect fill="none" height="6" style="stroke:#C82930;stroke-width:1.0;" width="6" x="441" y="256.5391"/><text fill="#000000" font-family="sans-serif" font-size="14" lengthAdjust="spacing" textLength="112" x="453" y="262.8857">bool isComplete</text><line style="stroke:#181818;stroke-width:0.5;" x1="434" x2="668" y1="270.1875" y2="270.1875"/><ellipse cx="444" cy="283.8359" fill="#84BE84" rx="3" ry="3" style="stroke:#038048;stroke-width:1.0;"/><text fill="#000000" font-family="sans-serif" font-size="14" lengthAdjust="spacing" textLength="179" x="453" y="287.1826">error Complete(any, error)</text></g><!--class AppData--><g id="elem_AppData"><rect codeLine="21" fill="#F1F1F1" height="113.1875" id="AppData" rx="2.5" ry="2.5" style="stroke:#181818;stroke-width:0.5;" width="329" x="704.5" y="173"/><ellipse cx="835.25" cy="189" fill="#F1F1F1" rx="11" ry="11" style="stroke:#181818;stroke-width:1.0;"/><path d="M834.7344,189.5625 Q832.875,188.8594 832.2188,188.0938 Q831.5781,187.3125 831.5781,186 Q831.5781,184.3125 832.6563,183.3438 Q833.7344,182.375 835.6094,182.375 Q836.4688,182.375 837.3125,182.5781 Q838.1719,182.7656 839.0156,183.1563 L839.0156,185.5469 Q838.2344,184.9844 837.4063,184.7031 Q836.5938,184.4063 835.7969,184.4063 Q834.9219,184.4063 834.4375,184.7656 Q833.9688,185.125 833.9688,185.7813 Q833.9688,186.2969 834.3125,186.6406 Q834.6563,186.9688 835.75,187.375 L836.8125,187.7813 Q838.2969,188.3281 839,189.2344 Q839.7188,190.1406 839.7188,191.5156 Q839.7188,193.3906 838.6094,194.3125 Q837.5,195.2344 835.25,195.2344 Q834.3281,195.2344 833.4063,195.0156 Q832.4844,194.7969 831.625,194.375 L831.625,191.8438 Q832.5938,192.5313 833.5156,192.875 Q834.4375,193.2188 835.3281,193.2188 Q836.2344,193.2188 836.7344,192.8125 Q837.2344,192.3906 837.2344,191.6563 Q837.2344,191.0938 836.8906,190.6875 Q836.5625,190.2656 835.9375,190.0156 L834.7344,189.5625 Z " fill="#000000"/><text fill="#000000" font-family="sans-serif" font-size="14" lengthAdjust="spacing" textLength="59" x="855.75" y="193.8467">AppData</text><line style="stroke:#181818;stroke-width:0.5;" x1="705.5" x2="1032.5" y1="205" y2="205"/><rect fill="none" height="6" style="stroke:#C82930;stroke-width:1.0;" width="6" x="712.5" y="215.6484"/><text fill="#000000" font-family="sans-serif" font-size="14" lengthAdjust="spacing" textLength="58" x="724.5" y="221.9951">any data</text><ellipse cx="715.5" cy="234.9453" fill="none" rx="3" ry="3" style="stroke:#038048;stroke-width:1.0;"/><text fill="#000000" font-family="sans-serif" font-size="14" lengthAdjust="spacing" textLength="266" x="724.5" y="238.292">CompletionHandler completionHandler</text><line style="stroke:#181818;stroke-width:0.5;" x1="705.5" x2="1032.5" y1="245.5938" y2="245.5938"/><ellipse cx="715.5" cy="259.2422" fill="#84BE84" rx="3" ry="3" style="stroke:#038048;stroke-width:1.0;"/><text fill="#000000" font-family="sans-serif" font-size="14" lengthAdjust="spacing" textLength="95" x="724.5" y="262.5889">any GetData()</text><ellipse cx="715.5" cy="275.5391" fill="#84BE84" rx="3" ry="3" style="stroke:#038048;stroke-width:1.0;"/><text fill="#000000" font-family="sans-serif" font-size="14" lengthAdjust="spacing" textLength="303" x="724.5" y="278.8857">CompletionHandler GetCompletionHandler()</text></g><!--class Server--><g id="elem_Server"><rect codeLine="27" fill="#F1F1F1" height="64.2969" id="Server" rx="2.5" ry="2.5" style="stroke:#181818;stroke-width:0.5;" width="112" x="581" y="478"/><ellipse cx="612.2" cy="494" fill="#B4A7E5" rx="11" ry="11" style="stroke:#181818;stroke-width:1.0;"/><path d="M608.1219,489.7656 L608.1219,487.6094 L615.5125,487.6094 L615.5125,489.7656 L613.0438,489.7656 L613.0438,497.8438 L615.5125,497.8438 L615.5125,500 L608.1219,500 L608.1219,497.8438 L610.5906,497.8438 L610.5906,489.7656 L608.1219,489.7656 Z " fill="#000000"/><text fill="#000000" font-family="sans-serif" font-size="14" font-style="italic" lengthAdjust="spacing" textLength="44" x="629.8" y="498.8467">Server</text><line style="stroke:#181818;stroke-width:0.5;" x1="582" x2="692" y1="510" y2="510"/><line style="stroke:#181818;stroke-width:0.5;" x1="582" x2="692" y1="518" y2="518"/><ellipse cx="592" cy="531.6484" fill="#84BE84" rx="3" ry="3" style="stroke:#038048;stroke-width:1.0;"/><text fill="#000000" font-family="sans-serif" font-size="14" lengthAdjust="spacing" textLength="86" x="601" y="534.9951">error Serve()</text></g><!--class Pullable--><g id="elem_Pullable"><rect codeLine="30" fill="#F1F1F1" height="64.2969" id="Pullable" rx="2.5" ry="2.5" style="stroke:#181818;stroke-width:0.5;" width="228" x="728" y="478"/><ellipse cx="811.25" cy="494" fill="#B4A7E5" rx="11" ry="11" style="stroke:#181818;stroke-width:1.0;"/><path d="M807.1719,489.7656 L807.1719,487.6094 L814.5625,487.6094 L814.5625,489.7656 L812.0938,489.7656 L812.0938,497.8438 L814.5625,497.8438 L814.5625,500 L807.1719,500 L807.1719,497.8438 L809.6406,497.8438 L809.6406,489.7656 L807.1719,489.7656 Z " fill="#000000"/><text fill="#000000" font-family="sans-serif" font-size="14" font-style="italic" lengthAdjust="spacing" textLength="53" x="831.75" y="498.8467">Pullable</text><line style="stroke:#181818;stroke-width:0.5;" x1="729" x2="955" y1="510" y2="510"/><line style="stroke:#181818;stroke-width:0.5;" x1="729" x2="955" y1="518" y2="518"/><ellipse cx="739" cy="531.6484" fill="#84BE84" rx="3" ry="3" style="stroke:#038048;stroke-width:1.0;"/><text fill="#000000" font-family="sans-serif" font-size="14" lengthAdjust="spacing" textLength="202" x="748" y="534.9951">error AddPushable(Pushable)</text></g><!--class Pushable--><g id="elem_Pushable"><rect codeLine="33" fill="#F1F1F1" height="64.2969" id="Pushable" rx="2.5" ry="2.5" style="stroke:#181818;stroke-width:0.5;" width="193" x="772.5" y="354"/><ellipse cx="832.75" cy="370" fill="#B4A7E5" rx="11" ry="11" style="stroke:#181818;stroke-width:1.0;"/><path d="M828.6719,365.7656 L828.6719,363.6094 L836.0625,363.6094 L836.0625,365.7656 L833.5938,365.7656 L833.5938,373.8438 L836.0625,373.8438 L836.0625,376 L828.6719,376 L828.6719,373.8438 L831.1406,373.8438 L831.1406,365.7656 L828.6719,365.7656 Z " fill="#000000"/><text fill="#000000" font-family="sans-serif" font-size="14" font-style="italic" lengthAdjust="spacing" textLength="64" x="853.25" y="374.8467">Pushable</text><line style="stroke:#181818;stroke-width:0.5;" x1="773.5" x2="964.5" y1="386" y2="386"/><line style="stroke:#181818;stroke-width:0.5;" x1="773.5" x2="964.5" y1="394" y2="394"/><ellipse cx="783.5" cy="407.6484" fill="#84BE84" rx="3" ry="3" style="stroke:#038048;stroke-width:1.0;"/><text fill="#000000" font-family="sans-serif" font-size="14" lengthAdjust="spacing" textLength="167" x="792.5" y="410.9951">error SendTo(*AppData)</text></g><!--class SourceServer--><g id="elem_SourceServer"><rect codeLine="36" fill="#F1F1F1" height="80.5938" id="SourceServer" rx="2.5" ry="2.5" style="stroke:#181818;stroke-width:0.5;" width="228" x="569" y="610"/><ellipse cx="632.25" cy="626" fill="#B4A7E5" rx="11" ry="11" style="stroke:#181818;stroke-width:1.0;"/><path d="M628.1719,621.7656 L628.1719,619.6094 L635.5625,619.6094 L635.5625,621.7656 L633.0938,621.7656 L633.0938,629.8438 L635.5625,629.8438 L635.5625,632 L628.1719,632 L628.1719,629.8438 L630.6406,629.8438 L630.6406,621.7656 L628.1719,621.7656 Z " fill="#000000"/><text fill="#000000" font-family="sans-serif" font-size="14" font-style="italic" lengthAdjust="spacing" textLength="93" x="652.75" y="630.8467">SourceServer</text><line style="stroke:#181818;stroke-width:0.5;" x1="570" x2="796" y1="642" y2="642"/><line style="stroke:#181818;stroke-width:0.5;" x1="570" x2="796" y1="650" y2="650"/><ellipse cx="580" cy="663.6484" fill="#84BE84" rx="3" ry="3" style="stroke:#038048;stroke-width:1.0;"/><text fill="#000000" font-family="sans-serif" font-size="14" lengthAdjust="spacing" textLength="202" x="589" y="666.9951">error AddPushable(Pushable)</text><ellipse cx="580" cy="679.9453" fill="#84BE84" rx="3" ry="3" style="stroke:#038048;stroke-width:1.0;"/><text fill="#000000" font-family="sans-serif" font-size="14" lengthAdjust="spacing" textLength="86" x="589" y="683.292">error Serve()</text></g><!--class SinkServer--><g id="elem_SinkServer"><rect codeLine="40" fill="#F1F1F1" height="80.5938" id="SinkServer" rx="2.5" ry="2.5" style="stroke:#181818;stroke-width:0.5;" width="193" x="340.5" y="610"/><ellipse cx="396.25" cy="626" fill="#B4A7E5" rx="11" ry="11" style="stroke:#181818;stroke-width:1.0;"/><path d="M392.1719,621.7656 L392.1719,619.6094 L399.5625,619.6094 L399.5625,621.7656 L397.0938,621.7656 L397.0938,629.8438 L399.5625,629.8438 L399.5625,632 L392.1719,632 L392.1719,629.8438 L394.6406,629.8438 L394.6406,621.7656 L392.1719,621.7656 Z " fill="#000000"/><text fill="#000000" font-family="sans-serif" font-size="14" font-style="italic" lengthAdjust="spacing" textLength="73" x="416.75" y="630.8467">SinkServer</text><line style="stroke:#181818;stroke-width:0.5;" x1="341.5" x2="532.5" y1="642" y2="642"/><line style="stroke:#181818;stroke-width:0.5;" x1="341.5" x2="532.5" y1="650" y2="650"/><ellipse cx="351.5" cy="663.6484" fill="#84BE84" rx="3" ry="3" style="stroke:#038048;stroke-width:1.0;"/><text fill="#000000" font-family="sans-serif" font-size="14" lengthAdjust="spacing" textLength="167" x="360.5" y="666.9951">error SendTo(*AppData)</text><ellipse cx="351.5" cy="679.9453" fill="#84BE84" rx="3" ry="3" style="stroke:#038048;stroke-width:1.0;"/><text fill="#000000" font-family="sans-serif" font-size="14" lengthAdjust="spacing" textLength="86" x="360.5" y="683.292">error Serve()</text></g><!--class PipeServer--><g id="elem_PipeServer"><rect codeLine="44" fill="#F1F1F1" height="96.8906" id="PipeServer" rx="2.5" ry="2.5" style="stroke:#181818;stroke-width:0.5;" width="228" x="832" y="602"/><ellipse cx="904.75" cy="618" fill="#B4A7E5" rx="11" ry="11" style="stroke:#181818;stroke-width:1.0;"/><path d="M900.6719,613.7656 L900.6719,611.6094 L908.0625,611.6094 L908.0625,613.7656 L905.5938,613.7656 L905.5938,621.8438 L908.0625,621.8438 L908.0625,624 L900.6719,624 L900.6719,621.8438 L903.1406,621.8438 L903.1406,613.7656 L900.6719,613.7656 Z " fill="#000000"/><text fill="#000000" font-family="sans-serif" font-size="14" font-style="italic" lengthAdjust="spacing" textLength="74" x="925.25" y="622.8467">PipeServer</text><line style="stroke:#181818;stroke-width:0.5;" x1="833" x2="1059" y1="634" y2="634"/><line style="stroke:#181818;stroke-width:0.5;" x1="833" x2="1059" y1="642" y2="642"/><ellipse cx="843" cy="655.6484" fill="#84BE84" rx="3" ry="3" style="stroke:#038048;stroke-width:1.0;"/><text fill="#000000" font-family="sans-serif" font-size="14" lengthAdjust="spacing" textLength="202" x="852" y="658.9951">error AddPushable(Pushable)</text><ellipse cx="843" cy="671.9453" fill="#84BE84" rx="3" ry="3" style="stroke:#038048;stroke-width:1.0;"/><text fill="#000000" font-family="sans-serif" font-size="14" lengthAdjust="spacing" textLength="167" x="852" y="675.292">error SendTo(*AppData)</text><ellipse cx="843" cy="688.2422" fill="#84BE84" rx="3" ry="3" style="stroke:#038048;stroke-width:1.0;"/><text fill="#000000" font-family="sans-serif" font-size="14" lengthAdjust="spacing" textLength="86" x="852" y="691.5889">error Serve()</text></g><!--class Producer--><g id="elem_Producer"><rect codeLine="49" fill="#F1F1F1" height="96.8906" id="Producer" rx="2.5" ry="2.5" style="stroke:#181818;stroke-width:0.5;" width="221" x="292.5" y="775"/><ellipse cx="367.25" cy="791" fill="#B4A7E5" rx="11" ry="11" style="stroke:#181818;stroke-width:1.0;"/><path d="M363.1719,786.7656 L363.1719,784.6094 L370.5625,784.6094 L370.5625,786.7656 L368.0938,786.7656 L368.0938,794.8438 L370.5625,794.8438 L370.5625,797 L363.1719,797 L363.1719,794.8438 L365.6406,794.8438 L365.6406,786.7656 L363.1719,786.7656 Z " fill="#000000"/><text fill="#000000" font-family="sans-serif" font-size="14" font-style="italic" lengthAdjust="spacing" textLength="63" x="387.75" y="795.8467">Producer</text><line style="stroke:#181818;stroke-width:0.5;" x1="293.5" x2="512.5" y1="807" y2="807"/><line style="stroke:#181818;stroke-width:0.5;" x1="293.5" x2="512.5" y1="815" y2="815"/><ellipse cx="303.5" cy="828.6484" fill="#84BE84" rx="3" ry="3" style="stroke:#038048;stroke-width:1.0;"/><text fill="#000000" font-family="sans-serif" font-size="14" lengthAdjust="spacing" textLength="195" x="312.5" y="831.9951">error Setup(ProducerConfig)</text><ellipse cx="303.5" cy="844.9453" fill="#84BE84" rx="3" ry="3" style="stroke:#038048;stroke-width:1.0;"/><text fill="#000000" font-family="sans-serif" font-size="14" lengthAdjust="spacing" textLength="167" x="312.5" y="848.292">error SendTo(*AppData)</text><ellipse cx="303.5" cy="861.2422" fill="#84BE84" rx="3" ry="3" style="stroke:#038048;stroke-width:1.0;"/><text fill="#000000" font-family="sans-serif" font-size="14" lengthAdjust="spacing" textLength="86" x="312.5" y="864.5889">error Serve()</text></g><!--class Consumer--><g id="elem_Consumer"><rect codeLine="54" fill="#F1F1F1" height="96.8906" id="Consumer" rx="2.5" ry="2.5" style="stroke:#181818;stroke-width:0.5;" width="230" x="568" y="775"/><ellipse cx="642.75" cy="791" fill="#B4A7E5" rx="11" ry="11" style="stroke:#181818;stroke-width:1.0;"/><path d="M638.6719,786.7656 L638.6719,784.6094 L646.0625,784.6094 L646.0625,786.7656 L643.5938,786.7656 L643.5938,794.8438 L646.0625,794.8438 L646.0625,797 L638.6719,797 L638.6719,794.8438 L641.1406,794.8438 L641.1406,786.7656 L638.6719,786.7656 Z " fill="#000000"/><text fill="#000000" font-family="sans-serif" font-size="14" font-style="italic" lengthAdjust="spacing" textLength="72" x="663.25" y="795.8467">Consumer</text><line style="stroke:#181818;stroke-width:0.5;" x1="569" x2="797" y1="807" y2="807"/><line style="stroke:#181818;stroke-width:0.5;" x1="569" x2="797" y1="815" y2="815"/><ellipse cx="579" cy="828.6484" fill="#84BE84" rx="3" ry="3" style="stroke:#038048;stroke-width:1.0;"/><text fill="#000000" font-family="sans-serif" font-size="14" lengthAdjust="spacing" textLength="202" x="588" y="831.9951">error AddPushable(Pushable)</text><ellipse cx="579" cy="844.9453" fill="#84BE84" rx="3" ry="3" style="stroke:#038048;stroke-width:1.0;"/><text fill="#000000" font-family="sans-serif" font-size="14" lengthAdjust="spacing" textLength="204" x="588" y="848.292">error Setup(ConsumerConfig)</text><ellipse cx="579" cy="861.2422" fill="#84BE84" rx="3" ry="3" style="stroke:#038048;stroke-width:1.0;"/><text fill="#000000" font-family="sans-serif" font-size="14" lengthAdjust="spacing" textLength="86" x="588" y="864.5889">error Serve()</text></g><!--class MapSinkServer--><g id="elem_MapSinkServer"><rect codeLine="59" fill="#F1F1F1" height="96.8906" id="MapSinkServer" rx="2.5" ry="2.5" style="stroke:#181818;stroke-width:0.5;" width="283" x="22.5" y="602"/><ellipse cx="108.75" cy="618" fill="#F1F1F1" rx="11" ry="11" style="stroke:#181818;stroke-width:1.0;"/><path d="M108.2344,618.5625 Q106.375,617.8594 105.7188,617.0938 Q105.0781,616.3125 105.0781,615 Q105.0781,613.3125 106.1563,612.3438 Q107.2344,611.375 109.1094,611.375 Q109.9688,611.375 110.8125,611.5781 Q111.6719,611.7656 112.5156,612.1563 L112.5156,614.5469 Q111.7344,613.9844 110.9063,613.7031 Q110.0938,613.4063 109.2969,613.4063 Q108.4219,613.4063 107.9375,613.7656 Q107.4688,614.125 107.4688,614.7813 Q107.4688,615.2969 107.8125,615.6406 Q108.1563,615.9688 109.25,616.375 L110.3125,616.7813 Q111.7969,617.3281 112.5,618.2344 Q113.2188,619.1406 113.2188,620.5156 Q113.2188,622.3906 112.1094,623.3125 Q111,624.2344 108.75,624.2344 Q107.8281,624.2344 106.9063,624.0156 Q105.9844,623.7969 105.125,623.375 L105.125,620.8438 Q106.0938,621.5313 107.0156,621.875 Q107.9375,622.2188 108.8281,622.2188 Q109.7344,622.2188 110.2344,621.8125 Q110.7344,621.3906 110.7344,620.6563 Q110.7344,620.0938 110.3906,619.6875 Q110.0625,619.2656 109.4375,619.0156 L108.2344,618.5625 Z " fill="#000000"/><text fill="#000000" font-family="sans-serif" font-size="14" lengthAdjust="spacing" textLength="102" x="129.25" y="622.8467">MapSinkServer</text><line style="stroke:#181818;stroke-width:0.5;" x1="23.5" x2="304.5" y1="634" y2="634"/><rect fill="none" height="6" style="stroke:#C82930;stroke-width:1.0;" width="6" x="30.5" y="644.6484"/><text fill="#000000" font-family="sans-serif" font-size="14" lengthAdjust="spacing" textLength="257" x="42.5" y="650.9951">map[string]SinkServer sinkServerMap</text><line style="stroke:#181818;stroke-width:0.5;" x1="23.5" x2="304.5" y1="658.2969" y2="658.2969"/><ellipse cx="33.5" cy="671.9453" fill="#84BE84" rx="3" ry="3" style="stroke:#038048;stroke-width:1.0;"/><text fill="#000000" font-family="sans-serif" font-size="14" lengthAdjust="spacing" textLength="167" x="42.5" y="675.292">error SendTo(*AppData)</text><ellipse cx="33.5" cy="688.2422" fill="#84BE84" rx="3" ry="3" style="stroke:#038048;stroke-width:1.0;"/><text fill="#000000" font-family="sans-serif" font-size="14" lengthAdjust="spacing" textLength="86" x="42.5" y="691.5889">error Serve()</text></g><!--class ConsumerServer--><g id="elem_ConsumerServer"><rect codeLine="64" fill="#F1F1F1" height="96.8906" id="ConsumerServer" rx="2.5" ry="2.5" style="stroke:#181818;stroke-width:0.5;" width="288" x="739" y="948"/><ellipse cx="820.75" cy="964" fill="#F1F1F1" rx="11" ry="11" style="stroke:#181818;stroke-width:1.0;"/><path d="M820.2344,964.5625 Q818.375,963.8594 817.7188,963.0938 Q817.0781,962.3125 817.0781,961 Q817.0781,959.3125 818.1563,958.3438 Q819.2344,957.375 821.1094,957.375 Q821.9688,957.375 822.8125,957.5781 Q823.6719,957.7656 824.5156,958.1563 L824.5156,960.5469 Q823.7344,959.9844 822.9063,959.7031 Q822.0938,959.4063 821.2969,959.4063 Q820.4219,959.4063 819.9375,959.7656 Q819.4688,960.125 819.4688,960.7813 Q819.4688,961.2969 819.8125,961.6406 Q820.1563,961.9688 821.25,962.375 L822.3125,962.7813 Q823.7969,963.3281 824.5,964.2344 Q825.2188,965.1406 825.2188,966.5156 Q825.2188,968.3906 824.1094,969.3125 Q823,970.2344 820.75,970.2344 Q819.8281,970.2344 818.9063,970.0156 Q817.9844,969.7969 817.125,969.375 L817.125,966.8438 Q818.0938,967.5313 819.0156,967.875 Q819.9375,968.2188 820.8281,968.2188 Q821.7344,968.2188 822.2344,967.8125 Q822.7344,967.3906 822.7344,966.6563 Q822.7344,966.0938 822.3906,965.6875 Q822.0625,965.2656 821.4375,965.0156 L820.2344,964.5625 Z " fill="#000000"/><text fill="#000000" font-family="sans-serif" font-size="14" lengthAdjust="spacing" textLength="116" x="841.25" y="968.8467">ConsumerServer</text><line style="stroke:#181818;stroke-width:0.5;" x1="740" x2="1026" y1="980" y2="980"/><rect fill="none" height="6" style="stroke:#C82930;stroke-width:1.0;" width="6" x="747" y="990.6484"/><text fill="#000000" font-family="sans-serif" font-size="14" lengthAdjust="spacing" textLength="262" x="759" y="996.9951">map[string]Consumer consumersMap</text><line style="stroke:#181818;stroke-width:0.5;" x1="740" x2="1026" y1="1004.2969" y2="1004.2969"/><ellipse cx="750" cy="1017.9453" fill="#84BE84" rx="3" ry="3" style="stroke:#038048;stroke-width:1.0;"/><text fill="#000000" font-family="sans-serif" font-size="14" lengthAdjust="spacing" textLength="202" x="759" y="1021.292">error AddPushable(Pushable)</text><ellipse cx="750" cy="1034.2422" fill="#84BE84" rx="3" ry="3" style="stroke:#038048;stroke-width:1.0;"/><text fill="#000000" font-family="sans-serif" font-size="14" lengthAdjust="spacing" textLength="86" x="759" y="1037.5889">error Serve()</text></g><!--class ProducerConfig--><g id="elem_ProducerConfig"><rect codeLine="69" fill="#F1F1F1" height="64.2969" id="ProducerConfig" rx="2.5" ry="2.5" style="stroke:#181818;stroke-width:0.5;" width="184" x="301" y="964.5"/><ellipse cx="336.25" cy="980.5" fill="#B4A7E5" rx="11" ry="11" style="stroke:#181818;stroke-width:1.0;"/><path d="M332.1719,976.2656 L332.1719,974.1094 L339.5625,974.1094 L339.5625,976.2656 L337.0938,976.2656 L337.0938,984.3438 L339.5625,984.3438 L339.5625,986.5 L332.1719,986.5 L332.1719,984.3438 L334.6406,984.3438 L334.6406,976.2656 L332.1719,976.2656 Z " fill="#000000"/><text fill="#000000" font-family="sans-serif" font-size="14" font-style="italic" lengthAdjust="spacing" textLength="107" x="354.75" y="985.3467">ProducerConfig</text><line style="stroke:#181818;stroke-width:0.5;" x1="302" x2="484" y1="996.5" y2="996.5"/><line style="stroke:#181818;stroke-width:0.5;" x1="302" x2="484" y1="1004.5" y2="1004.5"/><ellipse cx="312" cy="1018.1484" fill="#84BE84" rx="3" ry="3" style="stroke:#038048;stroke-width:1.0;"/><text fill="#000000" font-family="sans-serif" font-size="14" lengthAdjust="spacing" textLength="158" x="321" y="1021.4951">error IngestConfig(any)</text></g><!--class ConsumerConfig--><g id="elem_ConsumerConfig"><rect codeLine="72" fill="#F1F1F1" height="64.2969" id="ConsumerConfig" rx="2.5" ry="2.5" style="stroke:#181818;stroke-width:0.5;" width="184" x="520" y="964.5"/><ellipse cx="551.2" cy="980.5" fill="#B4A7E5" rx="11" ry="11" style="stroke:#181818;stroke-width:1.0;"/><path d="M547.1219,976.2656 L547.1219,974.1094 L554.5125,974.1094 L554.5125,976.2656 L552.0438,976.2656 L552.0438,984.3438 L554.5125,984.3438 L554.5125,986.5 L547.1219,986.5 L547.1219,984.3438 L549.5906,984.3438 L549.5906,976.2656 L547.1219,976.2656 Z " fill="#000000"/><text fill="#000000" font-family="sans-serif" font-size="14" font-style="italic" lengthAdjust="spacing" textLength="116" x="568.8" y="985.3467">ConsumerConfig</text><line style="stroke:#181818;stroke-width:0.5;" x1="521" x2="703" y1="996.5" y2="996.5"/><line style="stroke:#181818;stroke-width:0.5;" x1="521" x2="703" y1="1004.5" y2="1004.5"/><ellipse cx="531" cy="1018.1484" fill="#84BE84" rx="3" ry="3" style="stroke:#038048;stroke-width:1.0;"/><text fill="#000000" font-family="sans-serif" font-size="14" lengthAdjust="spacing" textLength="158" x="540" y="1021.4951">error IngestConfig(any)</text></g><!--reverse link CompletionHandler to WaitGroupCompletionHandler--><g id="link_CompletionHandler_WaitGroupCompletionHandler"><path codeLine="76" d="M664.91,117.8132 C647.31,134.9132 637.75,144.21 616.63,164.73 " fill="none" id="CompletionHandler-backto-WaitGroupCompletionHandler" style="stroke:#181818;stroke-width:1.0;"/><polygon fill="none" points="677.82,105.27,660.7289,113.5099,669.0911,122.1165,677.82,105.27" style="stroke:#181818;stroke-width:1.0;"/></g><!--reverse link CompletionHandler to AppData--><g id="link_CompletionHandler_AppData"><path codeLine="77" d="M750.7873,113.6315 C770.7473,133.0215 788.36,150.14 811.78,172.9 " fill="none" id="CompletionHandler-backto-AppData" style="stroke:#181818;stroke-width:1.0;"/><polygon fill="#181818" points="742.18,105.27,743.6965,112.3198,750.7873,113.6315,749.2708,106.5816,742.18,105.27" style="stroke:#181818;stroke-width:1.0;"/></g><!--reverse link AppData to Pushable--><g id="link_AppData_Pushable"><path codeLine="78" d="M869,298.28 C869,320.92 869,334.24 869,353.57 " fill="none" id="AppData-backto-Pushable" style="stroke:#181818;stroke-width:1.0;"/><polygon fill="#181818" points="869,286.28,865,292.28,869,298.28,873,292.28,869,286.28" style="stroke:#181818;stroke-width:1.0;"/></g><!--reverse link Server to SourceServer--><g id="link_Server_SourceServer"><path codeLine="79" d="M652.9942,559.1623 C659.6442,579.1823 662.68,588.31 669.82,609.82 " fill="none" id="Server-backto-SourceServer" style="stroke:#181818;stroke-width:1.0;"/><polygon fill="none" points="647.32,542.08,647.3001,561.0537,658.6883,557.2709,647.32,542.08" style="stroke:#181818;stroke-width:1.0;"/></g><!--reverse link Pushable to Pullable--><g id="link_Pushable_Pullable"><path codeLine="80" d="M859.5229,429.8156 C855.4529,448.1756 852.93,459.61 848.87,477.96 " fill="none" id="Pushable-backto-Pullable" style="stroke:#181818;stroke-width:1.0;"/><polygon fill="#181818" points="862.12,418.1,856.9163,423.0921,859.5229,429.8156,864.7267,424.8235,862.12,418.1" style="stroke:#181818;stroke-width:1.0;"/></g><!--reverse link Pullable to SourceServer--><g id="link_Pullable_SourceServer"><path codeLine="81" d="M792.748,553.9038 C769.768,573.9238 753.25,588.31 728.55,609.82 " fill="none" id="Pullable-backto-SourceServer" style="stroke:#181818;stroke-width:1.0;"/><polygon fill="none" points="806.32,542.08,788.8068,549.3798,796.6893,558.4278,806.32,542.08" style="stroke:#181818;stroke-width:1.0;"/></g><!--reverse link Server to SinkServer--><g id="link_Server_SinkServer"><path codeLine="82" d="M577.3218,552.3276 C548.4118,572.3476 525.37,588.31 494.29,609.82 " fill="none" id="Server-backto-SinkServer" style="stroke:#181818;stroke-width:1.0;"/><polygon fill="none" points="592.12,542.08,573.9059,547.3949,580.7377,557.2604,592.12,542.08" style="stroke:#181818;stroke-width:1.0;"/></g><!--reverse link Pushable to SinkServer--><g id="link_Pushable_SinkServer"><path codeLine="83" d="M754.6921,402.9271 C690.9821,414.9471 625.86,434.61 564,478 C515.32,512.15 477.76,570.89 456.51,609.96 " fill="none" id="Pushable-backto-SinkServer" style="stroke:#181818;stroke-width:1.0;"/><polygon fill="none" points="772.38,399.59,753.5797,397.0312,755.8044,408.8231,772.38,399.59" style="stroke:#181818;stroke-width:1.0;"/></g><!--reverse link Pushable to PipeServer--><g id="link_Pushable_PipeServer"><path codeLine="84" d="M935.6314,428.8146 C956.1014,444.0446 962.88,453.64 974,478 C991.92,517.24 981.08,566.16 968.02,601.69 " fill="none" id="Pushable-backto-PipeServer" style="stroke:#181818;stroke-width:1.0;"/><polygon fill="none" points="921.19,418.07,932.0498,433.6284,939.2129,424.0008,921.19,418.07" style="stroke:#181818;stroke-width:1.0;"/></g><!--reverse link Pullable to PipeServer--><g id="link_Pullable_PipeServer"><path codeLine="85" d="M876.1439,556.4771 C889.3739,574.1071 895.41,582.13 910.28,601.93 " fill="none" id="Pullable-backto-PipeServer" style="stroke:#181818;stroke-width:1.0;"/><polygon fill="none" points="865.34,542.08,871.3449,560.0784,880.9429,552.8758,865.34,542.08" style="stroke:#181818;stroke-width:1.0;"/></g><!--reverse link Server to PipeServer--><g id="link_Server_PipeServer"><path codeLine="86" d="M709.745,543.6035 C750.565,561.9035 790.57,579.83 839.75,601.88 " fill="none" id="Server-backto-PipeServer" style="stroke:#181818;stroke-width:1.0;"/><polygon fill="none" points="693.32,536.24,707.2905,549.0785,712.1995,538.1285,693.32,536.24" style="stroke:#181818;stroke-width:1.0;"/></g><!--reverse link SinkServer to Producer--><g id="link_SinkServer_Producer"><path codeLine="88" d="M425.6017,708.8148 C420.6417,733.7748 417.72,748.48 412.48,774.84 " fill="none" id="SinkServer-backto-Producer" style="stroke:#181818;stroke-width:1.0;"/><polygon fill="none" points="429.11,691.16,419.7167,707.6454,431.4866,709.9842,429.11,691.16" style="stroke:#181818;stroke-width:1.0;"/></g><!--link MapSinkServer to SinkServer--><g id="link_MapSinkServer_SinkServer"><path codeLine="89" d="M305.57,686.82 C317.2,686.59 316.984,687.4238 328.624,685.6038 " fill="none" id="MapSinkServer-to-SinkServer" style="stroke:#181818;stroke-width:1.0;"/><polygon fill="#181818" points="340.48,683.75,333.9341,680.7249,328.624,685.6038,335.1699,688.6289,340.48,683.75" style="stroke:#181818;stroke-width:1.0;"/></g><!--link MapSinkServer to SinkServer--><g id="link_MapSinkServer_SinkServer"><path codeLine="90" d="M305.57,614.18 C317.2,614.41 311.0561,612.6494 322.6961,614.4694 " fill="none" id="MapSinkServer-to-SinkServer-1" style="stroke:#181818;stroke-width:1.0;"/><polygon fill="none" points="340.48,617.25,323.623,608.5414,321.7692,620.3973,340.48,617.25" style="stroke:#181818;stroke-width:1.0;"/></g><!--reverse link SourceServer to ConsumerServer--><g id="link_SourceServer_ConsumerServer"><path codeLine="91" d="M803.2853,701.2192 C813.6253,708.3092 808.28,706.4 816,716 C870.17,783.37 881.71,887.56 883.51,947.89 " fill="none" id="SourceServer-backto-ConsumerServer" style="stroke:#181818;stroke-width:1.0;"/><polygon fill="none" points="788.44,691.04,799.8922,706.1677,806.6784,696.2708,788.44,691.04" style="stroke:#181818;stroke-width:1.0;"/></g><!--reverse link Consumer to ConsumerServer--><g id="link_Consumer_ConsumerServer"><path codeLine="92" d="M747.8313,879.9275 C775.4613,903.5475 799.61,924.2 827.24,947.83 " fill="none" id="Consumer-backto-ConsumerServer" style="stroke:#181818;stroke-width:1.0;"/><polygon fill="#181818" points="738.71,872.13,740.6715,879.0692,747.8313,879.9275,745.8698,872.9883,738.71,872.13" style="stroke:#181818;stroke-width:1.0;"/></g><!--reverse link SourceServer to Consumer--><g id="link_SourceServer_Consumer"><path codeLine="93" d="M683,709.16 C683,734.12 683,748.48 683,774.84 " fill="none" id="SourceServer-backto-Consumer" style="stroke:#181818;stroke-width:1.0;"/><polygon fill="none" points="683,691.16,677,709.16,689,709.16,683,691.16" style="stroke:#181818;stroke-width:1.0;"/></g><!--reverse link PipeServer to JQTransformer--><g id="link_PipeServer_JQTransformer"><path codeLine="95" d="M1061.7073,707.6125 C1072.0073,713.0825 1066.34,710.31 1076,716 C1098.12,729.04 1121.25,744.18 1142.67,758.87 " fill="none" id="PipeServer-backto-JQTransformer" style="stroke:#181818;stroke-width:1.0;"/><polygon fill="none" points="1045.81,699.17,1058.8931,712.9116,1064.5215,702.3134,1045.81,699.17" style="stroke:#181818;stroke-width:1.0;"/></g><!--reverse link Pushable to JQTransformer--><g id="link_Pushable_JQTransformer"><path codeLine="96" d="M925.1891,425.1708 C947.9991,441.5908 965.4,455.88 987,478 C1072.65,565.71 1150.25,686.13 1193.66,758.9 " fill="none" id="Pushable-backto-JQTransformer" style="stroke:#181818;stroke-width:1.0;"/><polygon fill="#181818" points="915.45,418.16,917.9826,424.9117,925.1891,425.1708,922.6564,418.419,915.45,418.16" style="stroke:#181818;stroke-width:1.0;"/></g><!--link Consumer to ConsumerConfig--><g id="link_Consumer_ConsumerConfig"><path codeLine="99" d="M663.22,872.13 C651,901.58 640.251,927.4571 629.561,953.2071 " fill="none" id="Consumer-to-ConsumerConfig" style="stroke:#181818;stroke-width:1.0;"/><polygon fill="#181818" points="624.96,964.29,630.9548,960.2822,629.561,953.2071,623.5662,957.2149,624.96,964.29" style="stroke:#181818;stroke-width:1.0;"/></g><!--link Producer to ProducerConfig--><g id="link_Producer_ProducerConfig"><path codeLine="100" d="M400.21,872.13 C398.49,901.58 397.0325,926.5606 395.5225,952.3106 " fill="none" id="Producer-to-ProducerConfig" style="stroke:#181818;stroke-width:1.0;"/><polygon fill="#181818" points="394.82,964.29,399.1644,958.5345,395.5225,952.3106,391.1781,958.0661,394.82,964.29" style="stroke:#181818;stroke-width:1.0;"/></g><!--SRC=[hLPBRzGm4BxxL_YORab-0PTgGIsLW4LRYGFYu2RUa9BOhXz0jUn_9myxyIlfjY67bJFppSmt3y-6e0OBXd8CR_UVFxt_8pdA9UNm263x2CbLBk7jbpkEY3XGtc2Zwfwqf0-FsPOM63uyxZWjEMecvKw97-Y-nf3fmwYwn9otCQwAmc0ISxZmGNjCYZkQRAuOUuSaYkZvBvmCuXCu0J8cr6iCtOf8p0-TU4iRLcDPKNA3I54x2McV6e8JH9xUm5vc0bXL-OegUSsfOaiUK_54yco4mj_bf6gzmwBDQP8CuVlVINXFQGqhOKYzZgmkdyqi27yP9fBxaWdScLzZsNbDBfPyjA10cDWKfzuuBPjjickpKtNTZzdn_FaAVUXHFPurVW5jgdYEvyYVEURp6UuhydE-CY-v7bxM5LjBUaLmJWkLnrEIYYL6lwNaK9N_DNJhKgXcHTOTF-DabfyVNr_4ZuX5-vasY7rhCHKflri0CHvRm_L5q2GC-KKMOvboVH0H2gk7s-rps98FfCH23jfknIstzALUJc0eGHQkhRT_qrGlf6n-rS_RRoPptH_Wlje8Kpe3qOsnETXB1dXchgjX7mBl_LbdiPZZz0KHNm6RziqYjn0MOMQ1GC32HUe1Yy0sQOqFSaGwLpFkzGoy_LzWyt3l7F2aTWVZo6STZuMmzdgFSxxiCkTZBZf8ItZW4zStRfCg5ZBoMX336jq_]--></g></svg>