<?xml version="1.0" encoding="us-ascii" standalone="no"?><svg xmlns="http://www.w3.org/2000/svg" xmlns:xlink="http://www.w3.org/1999/xlink" contentStyleType="text/css" height="587px" preserveAspectRatio="none" style="width:1055px;height:587px;background:#FFFFFF;" version="1.1" viewBox="0 0 1055 587" width="1055px" zoomAndPan="magnify"><defs/><g><!--cluster Server--><g id="cluster_Server"><path d="M8.5,6 L62.5,6 A3.75,3.75 0 0 1 65,8.5 L72,28.2969 L527.5,28.2969 A2.5,2.5 0 0 1 530,30.7969 L530,151.5 A2.5,2.5 0 0 1 527.5,154 L8.5,154 A2.5,2.5 0 0 1 6,151.5 L6,8.5 A2.5,2.5 0 0 1 8.5,6 " fill="none" style="stroke:#000000;stroke-width:1.5;"/><line style="stroke:#000000;stroke-width:1.5;" x1="6" x2="72" y1="28.2969" y2="28.2969"/><text fill="#000000" font-family="sans-serif" font-size="14" font-weight="bold" lengthAdjust="spacing" textLength="53" x="10" y="20.9951">Server</text></g><!--cluster Producer--><g id="cluster_Producer"><path d="M158.5,178 L232.5,178 A3.75,3.75 0 0 1 235,180.5 L242,200.2969 L1045.5,200.2969 A2.5,2.5 0 0 1 1048,202.7969 L1048,577.5 A2.5,2.5 0 0 1 1045.5,580 L158.5,580 A2.5,2.5 0 0 1 156,577.5 L156,180.5 A2.5,2.5 0 0 1 158.5,178 " fill="none" style="stroke:#000000;stroke-width:1.5;"/><line style="stroke:#000000;stroke-width:1.5;" x1="156" x2="242" y1="200.2969" y2="200.2969"/><text fill="#000000" font-family="sans-serif" font-size="14" font-weight="bold" lengthAdjust="spacing" textLength="73" x="160" y="192.9951">Producer</text></g><!--class SinkServer--><g id="elem_SinkServer"><rect codeLine="2" fill="#F1F1F1" height="96.8906" id="SinkServer" rx="2.5" ry="2.5" style="stroke:#181818;stroke-width:0.5;" width="193" x="22.5" y="41"/><ellipse cx="78.25" cy="57" fill="#B4A7E5" rx="11" ry="11" style="stroke:#181818;stroke-width:1.0;"/><path d="M74.1719,52.7656 L74.1719,50.6094 L81.5625,50.6094 L81.5625,52.7656 L79.0938,52.7656 L79.0938,60.8438 L81.5625,60.8438 L81.5625,63 L74.1719,63 L74.1719,60.8438 L76.6406,60.8438 L76.6406,52.7656 L74.1719,52.7656 Z " fill="#000000"/><text fill="#000000" font-family="sans-serif" font-size="14" font-style="italic" lengthAdjust="spacing" textLength="73" x="98.75" y="61.8467">SinkServer</text><line style="stroke:#181818;stroke-width:0.5;" x1="23.5" x2="214.5" y1="73" y2="73"/><line style="stroke:#181818;stroke-width:0.5;" x1="23.5" x2="214.5" y1="81" y2="81"/><ellipse cx="33.5" cy="94.6484" fill="#84BE84" rx="3" ry="3" style="stroke:#038048;stroke-width:1.0;"/><text fill="#000000" font-family="sans-serif" font-size="14" lengthAdjust="spacing" textLength="167" x="42.5" y="97.9951">error SendTo(*AppData)</text><ellipse cx="33.5" cy="110.9453" fill="#84BE84" rx="3" ry="3" style="stroke:#038048;stroke-width:1.0;"/><text fill="#000000" font-family="sans-serif" font-size="14" lengthAdjust="spacing" textLength="86" x="42.5" y="114.292">error Serve()</text><ellipse cx="33.5" cy="127.2422" fill="#84BE84" rx="3" ry="3" style="stroke:#038048;stroke-width:1.0;"/><text fill="#000000" font-family="sans-serif" font-size="14" lengthAdjust="spacing" textLength="132" x="42.5" y="130.5889">error Setup(Config)</text></g><!--class Config--><g id="elem_Config"><rect codeLine="7" fill="#F1F1F1" height="64.2969" id="Config" rx="2.5" ry="2.5" style="stroke:#181818;stroke-width:0.5;" width="263" x="250.5" y="57.5"/><ellipse cx="355.75" cy="73.5" fill="#B4A7E5" rx="11" ry="11" style="stroke:#181818;stroke-width:1.0;"/><path d="M351.6719,69.2656 L351.6719,67.1094 L359.0625,67.1094 L359.0625,69.2656 L356.5938,69.2656 L356.5938,77.3438 L359.0625,77.3438 L359.0625,79.5 L351.6719,79.5 L351.6719,77.3438 L354.1406,77.3438 L354.1406,69.2656 L351.6719,69.2656 Z " fill="#000000"/><text fill="#000000" font-family="sans-serif" font-size="14" font-style="italic" lengthAdjust="spacing" textLength="44" x="376.25" y="78.3467">Config</text><line style="stroke:#181818;stroke-width:0.5;" x1="251.5" x2="512.5" y1="89.5" y2="89.5"/><line style="stroke:#181818;stroke-width:0.5;" x1="251.5" x2="512.5" y1="97.5" y2="97.5"/><ellipse cx="261.5" cy="111.1484" fill="#84BE84" rx="3" ry="3" style="stroke:#038048;stroke-width:1.0;"/><text fill="#000000" font-family="sans-serif" font-size="14" lengthAdjust="spacing" textLength="237" x="270.5" y="114.4951">error IngestConfig(map[string]any)</text></g><!--class HTTPProducer--><g id="elem_HTTPProducer"><rect codeLine="12" fill="#F1F1F1" height="129.4844" id="HTTPProducer" rx="2.5" ry="2.5" style="stroke:#181818;stroke-width:0.5;" width="216" x="184" y="410.5"/><ellipse cx="237.75" cy="426.5" fill="#F1F1F1" rx="11" ry="11" style="stroke:#181818;stroke-width:1.0;"/><path d="M237.2344,427.0625 Q235.375,426.3594 234.7188,425.5938 Q234.0781,424.8125 234.0781,423.5 Q234.0781,421.8125 235.1563,420.8438 Q236.2344,419.875 238.1094,419.875 Q238.9688,419.875 239.8125,420.0781 Q240.6719,420.2656 241.5156,420.6563 L241.5156,423.0469 Q240.7344,422.4844 239.9063,422.2031 Q239.0938,421.9063 238.2969,421.9063 Q237.4219,421.9063 236.9375,422.2656 Q236.4688,422.625 236.4688,423.2813 Q236.4688,423.7969 236.8125,424.1406 Q237.1563,424.4688 238.25,424.875 L239.3125,425.2813 Q240.7969,425.8281 241.5,426.7344 Q242.2188,427.6406 242.2188,429.0156 Q242.2188,430.8906 241.1094,431.8125 Q240,432.7344 237.75,432.7344 Q236.8281,432.7344 235.9063,432.5156 Q234.9844,432.2969 234.125,431.875 L234.125,429.3438 Q235.0938,430.0313 236.0156,430.375 Q236.9375,430.7188 237.8281,430.7188 Q238.7344,430.7188 239.2344,430.3125 Q239.7344,429.8906 239.7344,429.1563 Q239.7344,428.5938 239.3906,428.1875 Q239.0625,427.7656 238.4375,427.5156 L237.2344,427.0625 Z " fill="#000000"/><text fill="#000000" font-family="sans-serif" font-size="14" lengthAdjust="spacing" textLength="100" x="258.25" y="431.3467">HTTPProducer</text><line style="stroke:#181818;stroke-width:0.5;" x1="185" x2="399" y1="442.5" y2="442.5"/><rect fill="none" height="6" style="stroke:#C82930;stroke-width:1.0;" width="6" x="192" y="453.1484"/><text fill="#000000" font-family="sans-serif" font-size="14" lengthAdjust="spacing" textLength="190" x="204" y="459.4951">HTTPProducerConfig config</text><rect fill="none" height="6" style="stroke:#C82930;stroke-width:1.0;" width="6" x="192" y="469.4453"/><text fill="#000000" font-family="sans-serif" font-size="14" lengthAdjust="spacing" textLength="142" x="204" y="475.792">http.Client httpClient</text><line style="stroke:#181818;stroke-width:0.5;" x1="185" x2="399" y1="483.0938" y2="483.0938"/><ellipse cx="195" cy="496.7422" fill="#84BE84" rx="3" ry="3" style="stroke:#038048;stroke-width:1.0;"/><text fill="#000000" font-family="sans-serif" font-size="14" lengthAdjust="spacing" textLength="167" x="204" y="500.0889">error SendTo(*AppData)</text><ellipse cx="195" cy="513.0391" fill="#84BE84" rx="3" ry="3" style="stroke:#038048;stroke-width:1.0;"/><text fill="#000000" font-family="sans-serif" font-size="14" lengthAdjust="spacing" textLength="86" x="204" y="516.3857">error Serve()</text><ellipse cx="195" cy="529.3359" fill="#84BE84" rx="3" ry="3" style="stroke:#038048;stroke-width:1.0;"/><text fill="#000000" font-family="sans-serif" font-size="14" lengthAdjust="spacing" textLength="132" x="204" y="532.6826">error Setup(Config)</text></g><!--class RabbitMQProducer--><g id="elem_RabbitMQProducer"><rect codeLine="19" fill="#F1F1F1" height="178.375" id="RabbitMQProducer" rx="2.5" ry="2.5" style="stroke:#181818;stroke-width:0.5;" width="256" x="454" y="386"/><ellipse cx="512.75" cy="402" fill="#F1F1F1" rx="11" ry="11" style="stroke:#181818;stroke-width:1.0;"/><path d="M512.2344,402.5625 Q510.375,401.8594 509.7188,401.0938 Q509.0781,400.3125 509.0781,399 Q509.0781,397.3125 510.1563,396.3438 Q511.2344,395.375 513.1094,395.375 Q513.9688,395.375 514.8125,395.5781 Q515.6719,395.7656 516.5156,396.1563 L516.5156,398.5469 Q515.7344,397.9844 514.9063,397.7031 Q514.0938,397.4063 513.2969,397.4063 Q512.4219,397.4063 511.9375,397.7656 Q511.4688,398.125 511.4688,398.7813 Q511.4688,399.2969 511.8125,399.6406 Q512.1563,399.9688 513.25,400.375 L514.3125,400.7813 Q515.7969,401.3281 516.5,402.2344 Q517.2188,403.1406 517.2188,404.5156 Q517.2188,406.3906 516.1094,407.3125 Q515,408.2344 512.75,408.2344 Q511.8281,408.2344 510.9063,408.0156 Q509.9844,407.7969 509.125,407.375 L509.125,404.8438 Q510.0938,405.5313 511.0156,405.875 Q511.9375,406.2188 512.8281,406.2188 Q513.7344,406.2188 514.2344,405.8125 Q514.7344,405.3906 514.7344,404.6563 Q514.7344,404.0938 514.3906,403.6875 Q514.0625,403.2656 513.4375,403.0156 L512.2344,402.5625 Z " fill="#000000"/><text fill="#000000" font-family="sans-serif" font-size="14" lengthAdjust="spacing" textLength="130" x="533.25" y="406.8467">RabbitMQProducer</text><line style="stroke:#181818;stroke-width:0.5;" x1="455" x2="709" y1="418" y2="418"/><rect fill="none" height="6" style="stroke:#C82930;stroke-width:1.0;" width="6" x="462" y="428.6484"/><text fill="#000000" font-family="sans-serif" font-size="14" lengthAdjust="spacing" textLength="220" x="474" y="434.9951">RabbitMQProducerConfig config</text><rect fill="none" height="6" style="stroke:#C82930;stroke-width:1.0;" width="6" x="462" y="444.9453"/><text fill="#000000" font-family="sans-serif" font-size="14" lengthAdjust="spacing" textLength="181" x="474" y="451.292">rabbitmq.Channel channel</text><rect fill="none" height="6" style="stroke:#C82930;stroke-width:1.0;" width="6" x="462" y="461.2422"/><text fill="#000000" font-family="sans-serif" font-size="14" lengthAdjust="spacing" textLength="119" x="474" y="467.5889">RabbitMQDial dial</text><rect fill="none" height="6" style="stroke:#C82930;stroke-width:1.0;" width="6" x="462" y="477.5391"/><text fill="#000000" font-family="sans-serif" font-size="14" lengthAdjust="spacing" textLength="134" x="474" y="483.8857">context.Context ctx</text><rect fill="none" height="6" style="stroke:#C82930;stroke-width:1.0;" width="6" x="462" y="493.8359"/><text fill="#000000" font-family="sans-serif" font-size="14" lengthAdjust="spacing" textLength="230" x="474" y="500.1826">context.CancelCauseFunc cancel</text><line style="stroke:#181818;stroke-width:0.5;" x1="455" x2="709" y1="507.4844" y2="507.4844"/><ellipse cx="465" cy="521.1328" fill="#84BE84" rx="3" ry="3" style="stroke:#038048;stroke-width:1.0;"/><text fill="#000000" font-family="sans-serif" font-size="14" lengthAdjust="spacing" textLength="167" x="474" y="524.4795">error SendTo(*AppData)</text><ellipse cx="465" cy="537.4297" fill="#84BE84" rx="3" ry="3" style="stroke:#038048;stroke-width:1.0;"/><text fill="#000000" font-family="sans-serif" font-size="14" lengthAdjust="spacing" textLength="86" x="474" y="540.7764">error Serve()</text><ellipse cx="465" cy="553.7266" fill="#84BE84" rx="3" ry="3" style="stroke:#038048;stroke-width:1.0;"/><text fill="#000000" font-family="sans-serif" font-size="14" lengthAdjust="spacing" textLength="132" x="474" y="557.0732">error Setup(Config)</text></g><!--class HTTPProducerConfig--><g id="elem_HTTPProducerConfig"><rect codeLine="29" fill="#F1F1F1" height="113.1875" id="HTTPProducerConfig" rx="2.5" ry="2.5" style="stroke:#181818;stroke-width:0.5;" width="263" x="172.5" y="213"/><ellipse cx="227.75" cy="229" fill="#F1F1F1" rx="11" ry="11" style="stroke:#181818;stroke-width:1.0;"/><path d="M227.2344,229.5625 Q225.375,228.8594 224.7188,228.0938 Q224.0781,227.3125 224.0781,226 Q224.0781,224.3125 225.1563,223.3438 Q226.2344,222.375 228.1094,222.375 Q228.9688,222.375 229.8125,222.5781 Q230.6719,222.7656 231.5156,223.1563 L231.5156,225.5469 Q230.7344,224.9844 229.9063,224.7031 Q229.0938,224.4063 228.2969,224.4063 Q227.4219,224.4063 226.9375,224.7656 Q226.4688,225.125 226.4688,225.7813 Q226.4688,226.2969 226.8125,226.6406 Q227.1563,226.9688 228.25,227.375 L229.3125,227.7813 Q230.7969,228.3281 231.5,229.2344 Q232.2188,230.1406 232.2188,231.5156 Q232.2188,233.3906 231.1094,234.3125 Q230,235.2344 227.75,235.2344 Q226.8281,235.2344 225.9063,235.0156 Q224.9844,234.7969 224.125,234.375 L224.125,231.8438 Q225.0938,232.5313 226.0156,232.875 Q226.9375,233.2188 227.8281,233.2188 Q228.7344,233.2188 229.2344,232.8125 Q229.7344,232.3906 229.7344,231.6563 Q229.7344,231.0938 229.3906,230.6875 Q229.0625,230.2656 228.4375,230.0156 L227.2344,229.5625 Z " fill="#000000"/><text fill="#000000" font-family="sans-serif" font-size="14" lengthAdjust="spacing" textLength="144" x="248.25" y="233.8467">HTTPProducerConfig</text><line style="stroke:#181818;stroke-width:0.5;" x1="173.5" x2="434.5" y1="245" y2="245"/><ellipse cx="183.5" cy="258.6484" fill="none" rx="3" ry="3" style="stroke:#038048;stroke-width:1.0;"/><text fill="#000000" font-family="sans-serif" font-size="14" lengthAdjust="spacing" textLength="70" x="192.5" y="261.9951">string URL</text><ellipse cx="183.5" cy="274.9453" fill="none" rx="3" ry="3" style="stroke:#038048;stroke-width:1.0;"/><text fill="#000000" font-family="sans-serif" font-size="14" lengthAdjust="spacing" textLength="102" x="192.5" y="278.292">int NumRetries</text><ellipse cx="183.5" cy="291.2422" fill="none" rx="3" ry="3" style="stroke:#038048;stroke-width:1.0;"/><text fill="#000000" font-family="sans-serif" font-size="14" lengthAdjust="spacing" textLength="78" x="192.5" y="294.5889">int Timeout</text><line style="stroke:#181818;stroke-width:0.5;" x1="173.5" x2="434.5" y1="301.8906" y2="301.8906"/><ellipse cx="183.5" cy="315.5391" fill="#84BE84" rx="3" ry="3" style="stroke:#038048;stroke-width:1.0;"/><text fill="#000000" font-family="sans-serif" font-size="14" lengthAdjust="spacing" textLength="237" x="192.5" y="318.8857">error IngestConfig(map[string]any)</text></g><!--class RabbitMQProducerConfig--><g id="elem_RabbitMQProducerConfig"><rect codeLine="35" fill="#F1F1F1" height="113.1875" id="RabbitMQProducerConfig" rx="2.5" ry="2.5" style="stroke:#181818;stroke-width:0.5;" width="263" x="470.5" y="213"/><ellipse cx="511.15" cy="229" fill="#F1F1F1" rx="11" ry="11" style="stroke:#181818;stroke-width:1.0;"/><path d="M510.6344,229.5625 Q508.775,228.8594 508.1188,228.0938 Q507.4781,227.3125 507.4781,226 Q507.4781,224.3125 508.5563,223.3438 Q509.6344,222.375 511.5094,222.375 Q512.3688,222.375 513.2125,222.5781 Q514.0719,222.7656 514.9156,223.1563 L514.9156,225.5469 Q514.1344,224.9844 513.3063,224.7031 Q512.4938,224.4063 511.6969,224.4063 Q510.8219,224.4063 510.3375,224.7656 Q509.8688,225.125 509.8688,225.7813 Q509.8688,226.2969 510.2125,226.6406 Q510.5563,226.9688 511.65,227.375 L512.7125,227.7813 Q514.1969,228.3281 514.9,229.2344 Q515.6188,230.1406 515.6188,231.5156 Q515.6188,233.3906 514.5094,234.3125 Q513.4,235.2344 511.15,235.2344 Q510.2281,235.2344 509.3063,235.0156 Q508.3844,234.7969 507.525,234.375 L507.525,231.8438 Q508.4938,232.5313 509.4156,232.875 Q510.3375,233.2188 511.2281,233.2188 Q512.1344,233.2188 512.6344,232.8125 Q513.1344,232.3906 513.1344,231.6563 Q513.1344,231.0938 512.7906,230.6875 Q512.4625,230.2656 511.8375,230.0156 L510.6344,229.5625 Z " fill="#000000"/><text fill="#000000" font-family="sans-serif" font-size="14" lengthAdjust="spacing" textLength="174" x="530.85" y="233.8467">RabbitMQProducerConfig</text><line style="stroke:#181818;stroke-width:0.5;" x1="471.5" x2="732.5" y1="245" y2="245"/><ellipse cx="481.5" cy="258.6484" fill="none" rx="3" ry="3" style="stroke:#038048;stroke-width:1.0;"/><text fill="#000000" font-family="sans-serif" font-size="14" lengthAdjust="spacing" textLength="123" x="490.5" y="261.9951">string Connection</text><ellipse cx="481.5" cy="274.9453" fill="none" rx="3" ry="3" style="stroke:#038048;stroke-width:1.0;"/><text fill="#000000" font-family="sans-serif" font-size="14" lengthAdjust="spacing" textLength="111" x="490.5" y="278.292">string Exchange</text><ellipse cx="481.5" cy="291.2422" fill="none" rx="3" ry="3" style="stroke:#038048;stroke-width:1.0;"/><text fill="#000000" font-family="sans-serif" font-size="14" lengthAdjust="spacing" textLength="122" x="490.5" y="294.5889">string RoutingKey</text><line style="stroke:#181818;stroke-width:0.5;" x1="471.5" x2="732.5" y1="301.8906" y2="301.8906"/><ellipse cx="481.5" cy="315.5391" fill="#84BE84" rx="3" ry="3" style="stroke:#038048;stroke-width:1.0;"/><text fill="#000000" font-family="sans-serif" font-size="14" lengthAdjust="spacing" textLength="237" x="490.5" y="318.8857">error IngestConfig(map[string]any)</text></g><!--class AMQPOneProducerConfig--><g id="elem_AMQPOneProducerConfig"><rect codeLine="41" fill="#F1F1F1" height="96.8906" id="AMQPOneProducerConfig" rx="2.5" ry="2.5" style="stroke:#181818;stroke-width:0.5;" width="263" x="768.5" y="221"/><ellipse cx="807.8" cy="237" fill="#F1F1F1" rx="11" ry="11" style="stroke:#181818;stroke-width:1.0;"/><path d="M807.2844,237.5625 Q805.425,236.8594 804.7688,236.0938 Q804.1281,235.3125 804.1281,234 Q804.1281,232.3125 805.2063,231.3438 Q806.2844,230.375 808.1594,230.375 Q809.0188,230.375 809.8625,230.5781 Q810.7219,230.7656 811.5656,231.1563 L811.5656,233.5469 Q810.7844,232.9844 809.9563,232.7031 Q809.1438,232.4063 808.3469,232.4063 Q807.4719,232.4063 806.9875,232.7656 Q806.5188,233.125 806.5188,233.7813 Q806.5188,234.2969 806.8625,234.6406 Q807.2063,234.9688 808.3,235.375 L809.3625,235.7813 Q810.8469,236.3281 811.55,237.2344 Q812.2688,238.1406 812.2688,239.5156 Q812.2688,241.3906 811.1594,242.3125 Q810.05,243.2344 807.8,243.2344 Q806.8781,243.2344 805.9563,243.0156 Q805.0344,242.7969 804.175,242.375 L804.175,239.8438 Q805.1438,240.5313 806.0656,240.875 Q806.9875,241.2188 807.8781,241.2188 Q808.7844,241.2188 809.2844,240.8125 Q809.7844,240.3906 809.7844,239.6563 Q809.7844,239.0938 809.4406,238.6875 Q809.1125,238.2656 808.4875,238.0156 L807.2844,237.5625 Z " fill="#000000"/><text fill="#000000" font-family="sans-serif" font-size="14" lengthAdjust="spacing" textLength="177" x="827.2" y="241.8467">AMQPOneProducerConfig</text><line style="stroke:#181818;stroke-width:0.5;" x1="769.5" x2="1030.5" y1="253" y2="253"/><ellipse cx="779.5" cy="266.6484" fill="none" rx="3" ry="3" style="stroke:#038048;stroke-width:1.0;"/><text fill="#000000" font-family="sans-serif" font-size="14" lengthAdjust="spacing" textLength="123" x="788.5" y="269.9951">string Connection</text><ellipse cx="779.5" cy="282.9453" fill="none" rx="3" ry="3" style="stroke:#038048;stroke-width:1.0;"/><text fill="#000000" font-family="sans-serif" font-size="14" lengthAdjust="spacing" textLength="90" x="788.5" y="286.292">string Queue</text><line style="stroke:#181818;stroke-width:0.5;" x1="769.5" x2="1030.5" y1="293.5938" y2="293.5938"/><ellipse cx="779.5" cy="307.2422" fill="#84BE84" rx="3" ry="3" style="stroke:#038048;stroke-width:1.0;"/><text fill="#000000" font-family="sans-serif" font-size="14" lengthAdjust="spacing" textLength="237" x="788.5" y="310.5889">error IngestConfig(map[string]any)</text></g><!--reverse link SinkServer to HTTPProducer--><g id="link_SinkServer_HTTPProducer"><path codeLine="49" d="M92.9671,155.3231 C75.4471,204.9431 63.08,266.46 93,326 C112.67,365.14 148.14,396.55 183.75,420.19 " fill="none" id="SinkServer-backto-HTTPProducer" style="stroke:#181818;stroke-width:1.0;"/><polygon fill="none" points="98.96,138.35,87.3094,153.3254,98.6248,157.3207,98.96,138.35" style="stroke:#181818;stroke-width:1.0;"/></g><!--reverse link SinkServer to RabbitMQProducer--><g id="link_SinkServer_RabbitMQProducer"><path codeLine="50" d="M110.2527,156.1517 C105.3027,209.0417 108.1,275.57 155,326 C236.64,413.8 305.73,343.95 418,386 C429.8,390.42 441.81,395.54 453.7,401.03 " fill="none" id="SinkServer-backto-RabbitMQProducer" style="stroke:#181818;stroke-width:1.0;"/><polygon fill="none" points="111.93,138.23,104.2788,155.5926,116.2266,156.7108,111.93,138.23" style="stroke:#181818;stroke-width:1.0;"/></g><!--reverse link Config to HTTPProducerConfig--><g id="link_Config_HTTPProducerConfig"><path codeLine="52" d="M361.1849,137.9963 C350.1849,163.0963 341.64,182.61 328.45,212.7 " fill="none" id="Config-backto-HTTPProducerConfig" style="stroke:#181818;stroke-width:1.0;"/><polygon fill="none" points="368.41,121.51,355.6895,135.5879,366.6804,140.4047,368.41,121.51" style="stroke:#181818;stroke-width:1.0;"/></g><!--reverse link Config to RabbitMQProducerConfig--><g id="link_Config_RabbitMQProducerConfig"><path codeLine="53" d="M434.3129,132.8325 C465.3329,157.9325 495.84,182.61 533.03,212.7 " fill="none" id="Config-backto-RabbitMQProducerConfig" style="stroke:#181818;stroke-width:1.0;"/><polygon fill="none" points="420.32,121.51,430.5388,137.4968,438.0871,128.1681,420.32,121.51" style="stroke:#181818;stroke-width:1.0;"/></g><!--reverse link Config to AMQPOneProducerConfig--><g id="link_Config_AMQPOneProducerConfig"><path codeLine="54" d="M531.432,109.6176 C603.512,121.4576 675.49,138.24 751,170 C781.87,182.99 813.21,202.54 839.13,220.82 " fill="none" id="Config-backto-AMQPOneProducerConfig" style="stroke:#181818;stroke-width:1.0;"/><polygon fill="none" points="513.67,106.7,530.4594,115.5383,532.4045,103.697,513.67,106.7" style="stroke:#181818;stroke-width:1.0;"/></g><!--reverse link HTTPProducerConfig to HTTPProducer--><g id="link_HTTPProducerConfig_HTTPProducer"><path codeLine="55" d="M300.0151,338.0893 C298.4851,364.0893 297.35,383.22 295.76,410.19 " fill="none" id="HTTPProducerConfig-backto-HTTPProducer" style="stroke:#181818;stroke-width:1.0;"/><polygon fill="#181818" points="300.72,326.11,296.3744,331.8647,300.0151,338.0893,304.3606,332.3346,300.72,326.11" style="stroke:#181818;stroke-width:1.0;"/></g><!--reverse link RabbitMQProducerConfig to RabbitMQProducer--><g id="link_RabbitMQProducerConfig_RabbitMQProducer"><path codeLine="56" d="M595.3596,338.0528 C593.5496,356.5228 592.65,365.63 590.65,385.94 " fill="none" id="RabbitMQProducerConfig-backto-RabbitMQProducer" style="stroke:#181818;stroke-width:1.0;"/><polygon fill="#181818" points="596.53,326.11,591.9639,331.6913,595.3596,338.0528,599.9258,332.4715,596.53,326.11" style="stroke:#181818;stroke-width:1.0;"/></g><!--SRC=[lLJDJiCm3BxtAN8iG-iJS9aw48Y_hPGJuX0ohujetP8wQ1FitKcRiNNzcxG9VAXJVxRpnNQ2F84yumBO4wXFKEpBOKOa4gXvQPRulWSLSWvAfSg4u2nCtS4eoyQS-5aJDt5kYvbqvlefpcLamNLjKuirDxp127Aog9lmx2Kd9J5wvRZwJRHsS7kaYKfdMcoP6sSjY5s7uQI653AisZS4HAbsBWkYpFDZ2KYiMDlb7vTbGplWRs-IxgTjrEjO1trLkYKVdh_WY10pONKpqLZocCtCPmUPP0HBydohcQ1b2yXHGEnpdSELHi54-Vy_1MhfNsM0xAImv-1kPpC3nnvq4e318D-tXpA1LDCH4zZJiqvQ1a0G95DiG9VBeaiHD830q3Fw5bQdaHmPVey8ft2SQj1m10jpMntxk7YLT-RYUpZStbslsjQ3plM2RzDlJjMTsZhqkhTtipUajRPE3m4sw3px0HxxaNMV7m00]--></g></svg>