<?xml version="1.0" encoding="us-ascii" standalone="no"?><svg xmlns="http://www.w3.org/2000/svg" xmlns:xlink="http://www.w3.org/1999/xlink" contentStyleType="text/css" height="1241px" preserveAspectRatio="none" style="width:1367px;height:1241px;background:#FFFFFF;" version="1.1" viewBox="0 0 1367 1241" width="1367px" zoomAndPan="magnify"><defs/><g><!--cluster JSONExtractor--><g id="cluster_JSONExtractor"><path d="M1102.5,724 L1212.5,724 A3.75,3.75 0 0 1 1215,726.5 L1222,746.2969 L1357.5,746.2969 A2.5,2.5 0 0 1 1360,748.7969 L1360,901.5 A2.5,2.5 0 0 1 1357.5,904 L1102.5,904 A2.5,2.5 0 0 1 1100,901.5 L1100,726.5 A2.5,2.5 0 0 1 1102.5,724 " fill="none" style="stroke:#000000;stroke-width:1.5;"/><line style="stroke:#000000;stroke-width:1.5;" x1="1100" x2="1222" y1="746.2969" y2="746.2969"/><text fill="#000000" font-family="sans-serif" font-size="14" font-weight="bold" lengthAdjust="spacing" textLength="109" x="1104" y="738.9951">JSONExtractor</text></g><!--cluster Server--><g id="cluster_Server"><path d="M8.5,6 L62.5,6 A3.75,3.75 0 0 1 65,8.5 L72,28.2969 L1073.5,28.2969 A2.5,2.5 0 0 1 1076,30.7969 L1076,1231.5 A2.5,2.5 0 0 1 1073.5,1234 L8.5,1234 A2.5,2.5 0 0 1 6,1231.5 L6,8.5 A2.5,2.5 0 0 1 8.5,6 " fill="none" style="stroke:#000000;stroke-width:1.5;"/><line style="stroke:#000000;stroke-width:1.5;" x1="6" x2="72" y1="28.2969" y2="28.2969"/><text fill="#000000" font-family="sans-serif" font-size="14" font-weight="bold" lengthAdjust="spacing" textLength="53" x="10" y="20.9951">Server</text></g><!--class JQTransformer--><g id="elem_JQTransformer"><rect codeLine="2" fill="#F1F1F1" height="129.4844" id="JQTransformer" rx="2.5" ry="2.5" style="stroke:#181818;stroke-width:0.5;" width="228" x="1116" y="759"/><ellipse cx="1176.75" cy="775" fill="#F1F1F1" rx="11" ry="11" style="stroke:#181818;stroke-width:1.0;"/><path d="M1176.2344,775.5625 Q1174.375,774.8594 1173.7188,774.0938 Q1173.0781,773.3125 1173.0781,772 Q1173.0781,770.3125 1174.1563,769.3438 Q1175.2344,768.375 1177.1094,768.375 Q1177.9688,768.375 1178.8125,768.5781 Q1179.6719,768.7656 1180.5156,769.1563 L1180.5156,771.5469 Q1179.7344,770.9844 1178.9063,770.7031 Q1178.0938,770.4063 1177.2969,770.4063 Q1176.4219,770.4063 1175.9375,770.7656 Q1175.4688,771.125 1175.4688,771.7813 Q1175.4688,772.2969 1175.8125,772.6406 Q1176.1563,772.9688 1177.25,773.375 L1178.3125,773.7813 Q1179.7969,774.3281 1180.5,775.2344 Q1181.2188,776.1406 1181.2188,777.5156 Q1181.2188,779.3906 1180.1094,780.3125 Q1179,781.2344 1176.75,781.2344 Q1175.8281,781.2344 1174.9063,781.0156 Q1173.9844,780.7969 1173.125,780.375 L1173.125,777.8438 Q1174.0938,778.5313 1175.0156,778.875 Q1175.9375,779.2188 1176.8281,779.2188 Q1177.7344,779.2188 1178.2344,778.8125 Q1178.7344,778.3906 1178.7344,777.6563 Q1178.7344,777.0938 1178.3906,776.6875 Q1178.0625,776.2656 1177.4375,776.0156 L1176.2344,775.5625 Z " fill="#000000"/><text fill="#000000" font-family="sans-serif" font-size="14" lengthAdjust="spacing" textLength="98" x="1197.25" y="779.8467">JQTransformer</text><line style="stroke:#181818;stroke-width:0.5;" x1="1117" x2="1343" y1="791" y2="791"/><rect fill="none" height="6" style="stroke:#C82930;stroke-width:1.0;" width="6" x="1124" y="801.6484"/><text fill="#000000" font-family="sans-serif" font-size="14" lengthAdjust="spacing" textLength="145" x="1136" y="807.9951">gojq.Code jqProgram</text><rect fill="none" height="6" style="stroke:#C82930;stroke-width:1.0;" width="6" x="1124" y="817.9453"/><text fill="#000000" font-family="sans-serif" font-size="14" lengthAdjust="spacing" textLength="132" x="1136" y="824.292">Pushable pushable</text><line style="stroke:#181818;stroke-width:0.5;" x1="1117" x2="1343" y1="831.5938" y2="831.5938"/><ellipse cx="1127" cy="845.2422" fill="#84BE84" rx="3" ry="3" style="stroke:#038048;stroke-width:1.0;"/><text fill="#000000" font-family="sans-serif" font-size="14" lengthAdjust="spacing" textLength="202" x="1136" y="848.5889">error AddPushable(Pushable)</text><ellipse cx="1127" cy="861.5391" fill="#84BE84" rx="3" ry="3" style="stroke:#038048;stroke-width:1.0;"/><text fill="#000000" font-family="sans-serif" font-size="14" lengthAdjust="spacing" textLength="167" x="1136" y="864.8857">error SendTo(*AppData)</text><ellipse cx="1127" cy="877.8359" fill="#84BE84" rx="3" ry="3" style="stroke:#038048;stroke-width:1.0;"/><text fill="#000000" font-family="sans-serif" font-size="14" lengthAdjust="spacing" textLength="86" x="1136" y="881.1826">error Serve()</text></g><!--class CompletionHandler--><g id="elem_CompletionHandler"><rect codeLine="11" fill="#F1F1F1" height="64.2969" id="CompletionHandler" rx="2.5" ry="2.5" style="stroke:#181818;stroke-width:0.5;" width="205" x="607.5" y="41"/><ellipse cx="640.95" cy="57" fill="#B4A7E5" rx="11" ry="11" style="stroke:#181818;stroke-width:1.0;"/><path d="M636.8719,52.7656 L636.8719,50.6094 L644.2625,50.6094 L644.2625,52.7656 L641.7938,52.7656 L641.7938,60.8438 L644.2625,60.8438 L644.2625,63 L636.8719,63 L636.8719,60.8438 L639.3406,60.8438 L639.3406,52.7656 L636.8719,52.7656 Z " fill="#000000"/><text fill="#000000" font-family="sans-serif" font-size="14" font-style="italic" lengthAdjust="spacing" textLength="132" x="659.05" y="61.8467">CompletionHandler</text><line style="stroke:#181818;stroke-width:0.5;" x1="608.5" x2="811.5" y1="73" y2="73"/><line style="stroke:#181818;stroke-width:0.5;" x1="608.5" x2="811.5" y1="81" y2="81"/><ellipse cx="618.5" cy="94.6484" fill="#84BE84" rx="3" ry="3" style="stroke:#038048;stroke-width:1.0;"/><text fill="#000000" font-family="sans-serif" font-size="14" lengthAdjust="spacing" textLength="179" x="627.5" y="97.9951">error Complete(any, error)</text></g><!--class WaitGroupCompletionHandler--><g id="elem_WaitGroupCompletionHandler"><rect codeLine="14" fill="#F1F1F1" height="129.4844" id="WaitGroupCompletionHandler" rx="2.5" ry="2.5" style="stroke:#181818;stroke-width:0.5;" width="236" x="433" y="165"/><ellipse cx="448" cy="181" fill="#F1F1F1" rx="11" ry="11" style="stroke:#181818;stroke-width:1.0;"/><path d="M447.4844,181.5625 Q445.625,180.8594 444.9688,180.0938 Q444.3281,179.3125 444.3281,178 Q444.3281,176.3125 445.4063,175.3438 Q446.4844,174.375 448.3594,174.375 Q449.2188,174.375 450.0625,174.5781 Q450.9219,174.7656 451.7656,175.1563 L451.7656,177.5469 Q450.9844,176.9844 450.1563,176.7031 Q449.3438,176.4063 448.5469,176.4063 Q447.6719,176.4063 447.1875,176.7656 Q446.7188,177.125 446.7188,177.7813 Q446.7188,178.2969 447.0625,178.6406 Q447.4063,178.9688 448.5,179.375 L449.5625,179.7813 Q451.0469,180.3281 451.75,181.2344 Q452.4688,182.1406 452.4688,183.5156 Q452.4688,185.3906 451.3594,186.3125 Q450.25,187.2344 448,187.2344 Q447.0781,187.2344 446.1563,187.0156 Q445.2344,186.7969 444.375,186.375 L444.375,183.8438 Q445.3438,184.5313 446.2656,184.875 Q447.1875,185.2188 448.0781,185.2188 Q448.9844,185.2188 449.4844,184.8125 Q449.9844,184.3906 449.9844,183.6563 Q449.9844,183.0938 449.6406,182.6875 Q449.3125,182.2656 448.6875,182.0156 L447.4844,181.5625 Z " fill="#000000"/><text fill="#000000" font-family="sans-serif" font-size="14" lengthAdjust="spacing" textLength="204" x="462" y="185.8467">WaitGroupCompletionHandler</text><line style="stroke:#181818;stroke-width:0.5;" x1="434" x2="668" y1="197" y2="197"/><rect fill="none" height="6" style="stroke:#C82930;stroke-width:1.0;" width="6" x="441" y="207.6484"/><text fill="#000000" font-family="sans-serif" font-size="14" lengthAdjust="spacing" textLength="132" x="453" y="213.9951">sync.WaitGroup wg</text><rect fill="none" height="6" style="stroke:#C82930;stroke-width:1.0;" width="6" x="441" y="223.9453"/><text fill="#000000" font-family="sans-serif" font-size="14" lengthAdjust="spacing" textLength="58" x="453" y="230.292">any data</text><rect fill="none" height="6" style="stroke:#C82930;stroke-width:1.0;" width="6" x="441" y="240.2422"/><text fill="#000000" font-family="sans-serif" font-size="14" lengthAdjust="spacing" textLength="70" x="453" y="246.5889">error error</text><rect fill="none" height="6" style="stroke:#C82930;stroke-width:1.0;" width="6" x="441" y="256.5391"/><text fill="#000000" font-family="sans-serif" font-size="14" lengthAdjust="spacing" textLength="112" x="453" y="262.8857">bool isComplete</text><line style="stroke:#181818;stroke-width:0.5;" x1="434" x2="668" y1="270.1875" y2="270.1875"/><ellipse cx="444" cy="283.8359" fill="#84BE84" rx="3" ry="3" style="stroke:#038048;stroke-width:1.0;"/><text fill="#000000" font-family="sans-serif" font-size="14" lengthAdjust="spacing" textLength="179" x="453" y="287.1826">error Complete(any, error)</text></g><!--class AppData--><g id="elem_AppData"><rect codeLine="21" fill="#F1F1F1" height="113.1875" id="AppData" rx="2.5" ry="2.5" style="stroke:#181818;stroke-width:0.5;" width="329" x="704.5" y="173"/><ellipse cx="835.25" cy="189" fill="#F1F1F1" rx="11" ry="11" style="stroke:#181818;stroke-width:1.0;"/><path d="M834.7344,189.5625 Q832.875,188.8594 832.2188,188.0938 Q831.5781,187.3125 831.5781,186 Q831.5781,184.3125 832.6563,183.3438 Q833.7344,182.375 835.6094,182.375 Q836.4688,182.375 837.3125,182.5781 Q838.1719,182.7656 839.0156,183.1563 L839.0156,185.5469 Q838.2344,184.9844 837.4063,184.7031 Q836.5938,184.4063 835.7969,184.4063 Q834.9219,184.4063 834.4375,184.7656 Q833.9688,185.125 833.9688,185.7813 Q833.9688,186.2969 834.3125,186.6406 Q834.6563,186.9688 835.75,187.375 L836.8125,187.7813 Q838.2969,188.3281 839,189.2344 Q839.7188,190.1406 839.7188,191.5156 Q839.7188,193.3906 838.6094,194.3125 Q837.5,195.2344 835.25,195.2344 Q834.3281,195.2344 833.4063,195.0156 Q832.4844,194.7969 831.625,194.375 L831.625,191.8438 Q832.5938,192.5313 833.5156,192.875 Q834.4375,193.2188 835.3281,193.2188 Q836.2344,193.2188 836.7344,192.8125 Q837.2344,192.3906 837.2344,191.6563 Q837.2344,191.0938 836.8906,190.6875 Q836.5625,190.2656 835.9375,190.0156 L834.7344,189.5625 Z " fill="#000000"/><text fill="#000000" font-family="sans-serif" font-size="14" lengthAdjust="spacing" textLength="59" x="855.75" y="193.8467">AppData</text><line style="stroke:#181818;stroke-width:0.5;" x1="705.5" x2="1032.5" y1="205" y2="205"/><rect fill="none" height="6" style="stroke:#C82930;stroke-width:1.0;" width="6" x="712.5" y="215.6484"/><text fill="#000000" font-family="sans-serif" font-size="14" lengthAdjust="spacing" textLength="58" x="724.5" y="221.9951">any data</text><ellipse cx="715.5" cy="234.9453" fill="none" rx="3" ry="3" style="stroke:#038048;stroke-width:1.0;"/><text fill="#000000" font-family="sans-serif" font-size="14" lengthAdjust="spacing" textLength="266" x="724.5" y="238.292">CompletionHandler completionHandler</text><line style="stroke:#181818;stroke-width:0.5;" x1="705.5" x2="1032.5" y1="245.5938" y2="245.5938"/><ellipse cx="715.5" cy="259.2422" fill="#84BE84" rx="3" ry="3" style="stroke:#038048;stroke-width:1.0;"/><text fill="#000000" font-family="sans-serif" font-size="14" lengthAdjust="spacing" textLength="95" x="724.5" y="262.5889">any GetData()</text><ellipse cx="715.5" cy="275.5391" fill="#84BE84" rx="3" ry="3" style="stroke:#038048;stroke-width:1.0;"/><text fill="#000000" font-family="sans-serif" font-size="14" lengthAdjust="spacing" textLength="303" x="724.5" y="278.8857">CompletionHandler GetCompletionHandler()</text></g><!--class Server--><g id="elem_Server"><rect codeLine="27" fill="#F1F1F1" height="64.2969" id="Server" rx="2.5" ry="2.5" style="stroke:#181818;stroke-width:0.5;" width="112" x="581" y="478"/><ellipse cx="612.2" cy="494" fill="#B4A7E5" rx="11" ry="11" style="stroke:#181818;stroke-width:1.0;"/><path d="M608.1219,489.7656 L608.1219,487.6094 L615.5125,487.6094 L615.5125,489.7656 L613.0438,489.7656 L613.0438,497.8438 L615.5125,497.8438 L615.5125,500 L608.1219,500 L608.1219,497.8438 L610.5906,497.8438 L610.5906,489.7656 L608.1219,489.7656 Z " fill="#000000"/><text fill="#000000" font-family="sans-serif" font-size="14" font-style="italic" lengthAdjust="spacing" textLength="44" x="629.8" y="498.8467">Server</text><line style="stroke:#181818;stroke-width:0.5;" x1="582" x2="692" y1="510" y2="510"/><line style="stroke:#181818;stroke-width:0.5;" x1="582" x2="692" y1="518" y2="518"/><ellipse cx="592" cy="531.6484" fill="#84BE84" rx="3" ry="3" style="stroke:#038048;stroke-width:1.0;"/><text fill="#000000" font-family="sans-serif" font-size="14" lengthAdjust="spacing" textLength="86" x="601" y="534.9951">error Serve()</text></g><!--class Pullable--><g id="elem_Pullable"><rect codeLine="30" fill="#F1F1F1" height="64.2969" id="Pullable" rx="2.5" ry="2.5" style="stroke:#181818;stroke-width:0.5;" width="228" x="728" y="478"/><ellipse cx="811.25" cy="494" fill="#B4A7E5" rx="11" ry="11" style="stroke:#181818;stroke-width:1.0;"/><path d="M807.1719,489.7656 L807.1719,487.6094 L814.5625,487.6094 L814.5625,489.7656 L812.0938,489.7656 L812.0938,497.8438 L814.5625,497.8438 L814.5625,500 L807.1719,500 L807.1719,497.8438 L809.6406,497.8438 L809.6406,489.7656 L807.1719,489.7656 Z " fill="#000000"/><text fill="#000000" font-family="sans-serif" font-size="14" font-style="italic" lengthAdjust="spacing" textLength="53" x="831.75" y="498.8467">Pullable</text><line style="stroke:#181818;stroke-width:0.5;" x1="729" x2="955" y1="510" y2="510"/><line style="stroke:#181818;stroke-width:0.5;" x1="729" x2="955" y1="518" y2="518"/><ellipse cx="739" cy="531.6484" fill="#84BE84" rx="3" ry="3" style="stroke:#038048;stroke-width:1.0;"/><text fill="#000000" font-family="sans-serif" font-size="14" lengthAdjust="spacing" textLength="202" x="748" y="534.9951">error AddPushable(Pushable)</text></g><!--class Pushable--><g id="elem_Pushable"><rect codeLine="33" fill="#F1F1F1" height="64.2969" id="Pushable" rx="2.5" ry="2.5" style="stroke:#181818;stroke-width:0.5;" width="193" x="772.5" y="354"/><ellipse cx="832.75" cy="370" fill="#B4A7E5" rx="11" ry="11" style="stroke:#181818;stroke-width:1.0;"/><path d="M828.6719,365.7656 L828.6719,363.6094 L836.0625,363.6094 L836.0625,365.7656 L833.5938,365.7656 L833.5938,373.8438 L836.0625,373.8438 L836.0625,376 L828.6719,376 L828.6719,373.8438 L831.1406,373.8438 L831.1406,365.7656 L828.6719,365.7656 Z " fill="#000000"/><text fill="#000000" font-family="sans-serif" font-size="14" font-style="italic" lengthAdjust="spacing" textLength="64" x="853.25" y="374.8467">Pushable</text><line style="stroke:#181818;stroke-width:0.5;" x1="773.5" x2="964.5" y1="386" y2="386"/><line style="stroke:#181818;stroke-width:0.5;" x1="773.5" x2="964.5" y1="394" y2="394"/><ellipse cx="783.5" cy="407.6484" fill="#84BE84" rx="3" ry="3" style="stroke:#038048;stroke-width:1.0;"/><text fill="#000000" font-family="sans-serif" font-size="14" lengthAdjust="spacing" textLength="167" x="792.5" y="410.9951">error SendTo(*AppData)</text></g><!--class SourceServer--><g id="elem_SourceServer"><rect codeLine="36" fill="#F1F1F1" height="80.5938" id="SourceServer" rx="2.5" ry="2.5" style="stroke:#181818;stroke-width:0.5;" width="228" x="569" y="610"/><ellipse cx="632.25" cy="626" fill="#B4A7E5" rx="11" ry="11" style="stroke:#181818;stroke-width:1.0;"/><path d="M628.1719,621.7656 L628.1719,619.6094 L635.5625,619.6094 L635.5625,621.7656 L633.0938,621.7656 L633.0938,629.8438 L635.5625,629.8438 L635.5625,632 L628.1719,632 L628.1719,629.8438 L630.6406,629.8438 L630.6406,621.7656 L628.1719,621.7656 Z " fill="#000000"/><text fill="#000000" font-family="sans-serif" font-size="14" font-style="italic" lengthAdjust="spacing" textLength="93" x="652.75" y="630.8467">SourceServer</text><line style="stroke:#181818;stroke-width:0.5;" x1="570" x2="796" y1="642" y2="642"/><line style="stroke:#181818;stroke-width:0.5;" x1="570" x2="796" y1="650" y2="650"/><ellipse cx="580" cy="663.6484" fill="#84BE84" rx="3" ry="3" style="stroke:#038048;stroke-width:1.0;"/><text fill="#000000" font-family="sans-serif" font-size="14" lengthAdjust="spacing" textLength="202" x="589" y="666.9951">error AddPushable(Pushable)</text><ellipse cx="580" cy="679.9453" fill="#84BE84" rx="3" ry="3" style="stroke:#038048;stroke-width:1.0;"/><text fill="#000000" font-family="sans-serif" font-size="14" lengthAdjust="spacing" textLength="86" x="589" y="683.292">error Serve()</text></g><!--class SinkServer--><g id="elem_SinkServer"><rect codeLine="40" fill="#F1F1F1" height="80.5938" id="SinkServer" rx="2.5" ry="2.5" style="stroke:#181818;stroke-width:0.5;" width="193" x="340.5" y="610"/><ellipse cx="396.25" cy="626" fill="#B4A7E5" rx="11" ry="11" style="stroke:#181818;stroke-width:1.0;"/><path d="M392.1719,621.7656 L392.1719,619.6094 L399.5625,619.6094 L399.5625,621.7656 L397.0938,621.7656 L397.0938,629.8438 L399.5625,629.8438 L399.5625,632 L392.1719,632 L392.1719,629.8438 L394.6406,629.8438 L394.6406,621.7656 L392.1719,621.7656 Z " fill="#000000"/><text fill="#000000" font-family="sans-serif" font-size="14" font-style="italic" lengthAdjust="spacing" textLength="73" x="416.75" y="630.8467">SinkServer</text><line style="stroke:#181818;stroke-width:0.5;" x1="341.5" x2="532.5" y1="642" y2="642"/><line style="stroke:#181818;stroke-width:0.5;" x1="341.5" x2="532.5" y1="650" y2="650"/><ellipse cx="351.5" cy="663.6484" fill="#84BE84" rx="3" ry="3" style="stroke:#038048;stroke-width:1.0;"/><text fill="#000000" font-family="sans-serif" font-size="14" lengthAdjust="spacing" textLength="167" x="360.5" y="666.9951">error SendTo(*AppData)</text><ellipse cx="351.5" cy="679.9453" fill="#84BE84" rx="3" ry="3" style="stroke:#038048;stroke-width:1.0;"/><text fill="#000000" font-family="sans-serif" font-size="14" lengthAdjust="spacing" textLength="86" x="360.5" y="683.292">error Serve()</text></g><!--class PipeServer--><g id="elem_PipeServer"><rect codeLine="44" fill="#F1F1F1" height="96.8906" id="PipeServer" rx="2.5" ry="2.5" style="stroke:#181818;stroke-width:0.5;" width="228" x="832" y="602"/><ellipse cx="904.75" cy="618" fill="#B4A7E5" rx="11" ry="11" style="stroke:#181818;stroke-width:1.0;"/><path d="M900.6719,613.7656 L900.6719,611.6094 L908.0625,611.6094 L908.0625,613.7656 L905.5938,613.7656 L905.5938,621.8438 L908.0625,621.8438 L908.0625,624 L900.6719,624 L900.6719,621.8438 L903.1406,621.8438 L903.1406,613.7656 L900.6719,613.7656 Z " fill="#000000"/><text fill="#000000" font-family="sans-serif" font-size="14" font-style="italic" lengthAdjust="spacing" textLength="74" x="925.25" y="622.8467">PipeServer</text><line style="stroke:#181818;stroke-width:0.5;" x1="833" x2="1059" y1="634" y2="634"/><line style="stroke:#181818;stroke-width:0.5;" x1="833" x2="1059" y1="642" y2="642"/><ellipse cx="843" cy="655.6484" fill="#84BE84" rx="3" ry="3" style="stroke:#038048;stroke-width:1.0;"/><text fill="#000000" font-family="sans-serif" font-size="14" lengthAdjust="spacing" textLength="202" x="852" y="658.9951">error AddPushable(Pushable)</text><ellipse cx="843" cy="671.9453" fill="#84BE84" rx="3" ry="3" style="stroke:#038048;stroke-width:1.0;"/><text fill="#000000" font-family="sans-serif" font-size="14" lengthAdjust="spacing" textLength="167" x="852" y="675.292">error SendTo(*AppData)</text><ellipse cx="843" cy="688.2422" fill="#84BE84" rx="3" ry="3" style="stroke:#038048;stroke-width:1.0;"/><text fill="#000000" font-family="sans-serif" font-size="14" lengthAdjust="spacing" textLength="86" x="852" y="691.5889">error Serve()</text></g><!--class Producer--><g id="elem_Producer"><rect codeLine="49" fill="#F1F1F1" height="96.8906" id="Producer" rx="2.5" ry="2.5" style="stroke:#181818;stroke-width:0.5;" width="221" x="233.5" y="775"/><ellipse cx="308.25" cy="791" fill="#B4A7E5" rx="11" ry="11" style="stroke:#181818;stroke-width:1.0;"/><path d="M304.1719,786.7656 L304.1719,784.6094 L311.5625,784.6094 L311.5625,786.7656 L309.0938,786.7656 L309.0938,794.8438 L311.5625,794.8438 L311.5625,797 L304.1719,797 L304.1719,794.8438 L306.6406,794.8438 L306.6406,786.7656 L304.1719,786.7656 Z " fill="#000000"/><text fill="#000000" font-family="sans-serif" font-size="14" font-style="italic" lengthAdjust="spacing" textLength="63" x="328.75" y="795.8467">Producer</text><line style="stroke:#181818;stroke-width:0.5;" x1="234.5" x2="453.5" y1="807" y2="807"/><line style="stroke:#181818;stroke-width:0.5;" x1="234.5" x2="453.5" y1="815" y2="815"/><ellipse cx="244.5" cy="828.6484" fill="#84BE84" rx="3" ry="3" style="stroke:#038048;stroke-width:1.0;"/><text fill="#000000" font-family="sans-serif" font-size="14" lengthAdjust="spacing" textLength="195" x="253.5" y="831.9951">error Setup(ProducerConfig)</text><ellipse cx="244.5" cy="844.9453" fill="#84BE84" rx="3" ry="3" style="stroke:#038048;stroke-width:1.0;"/><text fill="#000000" font-family="sans-serif" font-size="14" lengthAdjust="spacing" textLength="167" x="253.5" y="848.292">error SendTo(*AppData)</text><ellipse cx="244.5" cy="861.2422" fill="#84BE84" rx="3" ry="3" style="stroke:#038048;stroke-width:1.0;"/><text fill="#000000" font-family="sans-serif" font-size="14" lengthAdjust="spacing" textLength="86" x="253.5" y="864.5889">error Serve()</text></g><!--class Consumer--><g id="elem_Consumer"><rect codeLine="54" fill="#F1F1F1" height="96.8906" id="Consumer" rx="2.5" ry="2.5" style="stroke:#181818;stroke-width:0.5;" width="230" x="568" y="775"/><ellipse cx="642.75" cy="791" fill="#B4A7E5" rx="11" ry="11" style="stroke:#181818;stroke-width:1.0;"/><path d="M638.6719,786.7656 L638.6719,784.6094 L646.0625,784.6094 L646.0625,786.7656 L643.5938,786.7656 L643.5938,794.8438 L646.0625,794.8438 L646.0625,797 L638.6719,797 L638.6719,794.8438 L641.1406,794.8438 L641.1406,786.7656 L638.6719,786.7656 Z " fill="#000000"/><text fill="#000000" font-family="sans-serif" font-size="14" font-style="italic" lengthAdjust="spacing" textLength="72" x="663.25" y="795.8467">Consumer</text><line style="stroke:#181818;stroke-width:0.5;" x1="569" x2="797" y1="807" y2="807"/><line style="stroke:#181818;stroke-width:0.5;" x1="569" x2="797" y1="815" y2="815"/><ellipse cx="579" cy="828.6484" fill="#84BE84" rx="3" ry="3" style="stroke:#038048;stroke-width:1.0;"/><text fill="#000000" font-family="sans-serif" font-size="14" lengthAdjust="spacing" textLength="202" x="588" y="831.9951">error AddPushable(Pushable)</text><ellipse cx="579" cy="844.9453" fill="#84BE84" rx="3" ry="3" style="stroke:#038048;stroke-width:1.0;"/><text fill="#000000" font-family="sans-serif" font-size="14" lengthAdjust="spacing" textLength="204" x="588" y="848.292">error Setup(ConsumerConfig)</text><ellipse cx="579" cy="861.2422" fill="#84BE84" rx="3" ry="3" style="stroke:#038048;stroke-width:1.0;"/><text fill="#000000" font-family="sans-serif" font-size="14" lengthAdjust="spacing" textLength="86" x="588" y="864.5889">error Serve()</text></g><!--class MapSinkServer--><g id="elem_MapSinkServer"><rect codeLine="59" fill="#F1F1F1" height="96.8906" id="MapSinkServer" rx="2.5" ry="2.5" style="stroke:#181818;stroke-width:0.5;" width="283" x="22.5" y="602"/><ellipse cx="108.75" cy="618" fill="#F1F1F1" rx="11" ry="11" style="stroke:#181818;stroke-width:1.0;"/><path d="M108.2344,618.5625 Q106.375,617.8594 105.7188,617.0938 Q105.0781,616.3125 105.0781,615 Q105.0781,613.3125 106.1563,612.3438 Q107.2344,611.375 109.1094,611.375 Q109.9688,611.375 110.8125,611.5781 Q111.6719,611.7656 112.5156,612.1563 L112.5156,614.5469 Q111.7344,613.9844 110.9063,613.7031 Q110.0938,613.4063 109.2969,613.4063 Q108.4219,613.4063 107.9375,613.7656 Q107.4688,614.125 107.4688,614.7813 Q107.4688,615.2969 107.8125,615.6406 Q108.1563,615.9688 109.25,616.375 L110.3125,616.7813 Q111.7969,617.3281 112.5,618.2344 Q113.2188,619.1406 113.2188,620.5156 Q113.2188,622.3906 112.1094,623.3125 Q111,624.2344 108.75,624.2344 Q107.8281,624.2344 106.9063,624.0156 Q105.9844,623.7969 105.125,623.375 L105.125,620.8438 Q106.0938,621.5313 107.0156,621.875 Q107.9375,622.2188 108.8281,622.2188 Q109.7344,622.2188 110.2344,621.8125 Q110.7344,621.3906 110.7344,620.6563 Q110.7344,620.0938 110.3906,619.6875 Q110.0625,619.2656 109.4375,619.0156 L108.2344,618.5625 Z " fill="#000000"/><text fill="#000000" font-family="sans-serif" font-size="14" lengthAdjust="spacing" textLength="102" x="129.25" y="622.8467">MapSinkServer</text><line style="stroke:#181818;stroke-width:0.5;" x1="23.5" x2="304.5" y1="634" y2="634"/><rect fill="none" height="6" style="stroke:#C82930;stroke-width:1.0;" width="6" x="30.5" y="644.6484"/><text fill="#000000" font-family="sans-serif" font-size="14" lengthAdjust="spacing" textLength="257" x="42.5" y="650.9951">map[string]SinkServer sinkServerMap</text><line style="stroke:#181818;stroke-width:0.5;" x1="23.5" x2="304.5" y1="658.2969" y2="658.2969"/><ellipse cx="33.5" cy="671.9453" fill="#84BE84" rx="3" ry="3" style="stroke:#038048;stroke-width:1.0;"/><text fill="#000000" font-family="sans-serif" font-size="14" lengthAdjust="spacing" textLength="167" x="42.5" y="675.292">error SendTo(*AppData)</text><ellipse cx="33.5" cy="688.2422" fill="#84BE84" rx="3" ry="3" style="stroke:#038048;stroke-width:1.0;"/><text fill="#000000" font-family="sans-serif" font-size="14" lengthAdjust="spacing" textLength="86" x="42.5" y="691.5889">error Serve()</text></g><!--class ConsumerServer--><g id="elem_ConsumerServer"><rect codeLine="64" fill="#F1F1F1" height="96.8906" id="ConsumerServer" rx="2.5" ry="2.5" style="stroke:#181818;stroke-width:0.5;" width="288" x="752" y="948"/><ellipse cx="833.75" cy="964" fill="#F1F1F1" rx="11" ry="11" style="stroke:#181818;stroke-width:1.0;"/><path d="M833.2344,964.5625 Q831.375,963.8594 830.7188,963.0938 Q830.0781,962.3125 830.0781,961 Q830.0781,959.3125 831.1563,958.3438 Q832.2344,957.375 834.1094,957.375 Q834.9688,957.375 835.8125,957.5781 Q836.6719,957.7656 837.5156,958.1563 L837.5156,960.5469 Q836.7344,959.9844 835.9063,959.7031 Q835.0938,959.4063 834.2969,959.4063 Q833.4219,959.4063 832.9375,959.7656 Q832.4688,960.125 832.4688,960.7813 Q832.4688,961.2969 832.8125,961.6406 Q833.1563,961.9688 834.25,962.375 L835.3125,962.7813 Q836.7969,963.3281 837.5,964.2344 Q838.2188,965.1406 838.2188,966.5156 Q838.2188,968.3906 837.1094,969.3125 Q836,970.2344 833.75,970.2344 Q832.8281,970.2344 831.9063,970.0156 Q830.9844,969.7969 830.125,969.375 L830.125,966.8438 Q831.0938,967.5313 832.0156,967.875 Q832.9375,968.2188 833.8281,968.2188 Q834.7344,968.2188 835.2344,967.8125 Q835.7344,967.3906 835.7344,966.6563 Q835.7344,966.0938 835.3906,965.6875 Q835.0625,965.2656 834.4375,965.0156 L833.2344,964.5625 Z " fill="#000000"/><text fill="#000000" font-family="sans-serif" font-size="14" lengthAdjust="spacing" textLength="116" x="854.25" y="968.8467">ConsumerServer</text><line style="stroke:#181818;stroke-width:0.5;" x1="753" x2="1039" y1="980" y2="980"/><rect fill="none" height="6" style="stroke:#C82930;stroke-width:1.0;" width="6" x="760" y="990.6484"/><text fill="#000000" font-family="sans-serif" font-size="14" lengthAdjust="spacing" textLength="262" x="772" y="996.9951">map[string]Consumer consumersMap</text><line style="stroke:#181818;stroke-width:0.5;" x1="753" x2="1039" y1="1004.2969" y2="1004.2969"/><ellipse cx="763" cy="1017.9453" fill="#84BE84" rx="3" ry="3" style="stroke:#038048;stroke-width:1.0;"/><text fill="#000000" font-family="sans-serif" font-size="14" lengthAdjust="spacing" textLength="202" x="772" y="1021.292">error AddPushable(Pushable)</text><ellipse cx="763" cy="1034.2422" fill="#84BE84" rx="3" ry="3" style="stroke:#038048;stroke-width:1.0;"/><text fill="#000000" font-family="sans-serif" font-size="14" lengthAdjust="spacing" textLength="86" x="772" y="1037.5889">error Serve()</text></g><!--class ProducerConfig--><g id="elem_ProducerConfig"><rect codeLine="69" fill="#F1F1F1" height="64.2969" id="ProducerConfig" rx="2.5" ry="2.5" style="stroke:#181818;stroke-width:0.5;" width="263" x="155.5" y="964.5"/><ellipse cx="229.25" cy="980.5" fill="#B4A7E5" rx="11" ry="11" style="stroke:#181818;stroke-width:1.0;"/><path d="M225.1719,976.2656 L225.1719,974.1094 L232.5625,974.1094 L232.5625,976.2656 L230.0938,976.2656 L230.0938,984.3438 L232.5625,984.3438 L232.5625,986.5 L225.1719,986.5 L225.1719,984.3438 L227.6406,984.3438 L227.6406,976.2656 L225.1719,976.2656 Z " fill="#000000"/><text fill="#000000" font-family="sans-serif" font-size="14" font-style="italic" lengthAdjust="spacing" textLength="107" x="249.75" y="985.3467">ProducerConfig</text><line style="stroke:#181818;stroke-width:0.5;" x1="156.5" x2="417.5" y1="996.5" y2="996.5"/><line style="stroke:#181818;stroke-width:0.5;" x1="156.5" x2="417.5" y1="1004.5" y2="1004.5"/><ellipse cx="166.5" cy="1018.1484" fill="#84BE84" rx="3" ry="3" style="stroke:#038048;stroke-width:1.0;"/><text fill="#000000" font-family="sans-serif" font-size="14" lengthAdjust="spacing" textLength="237" x="175.5" y="1021.4951">error IngestConfig(map[string]any)</text></g><!--class HTTPProducerConfig--><g id="elem_HTTPProducerConfig"><rect codeLine="72" fill="#F1F1F1" height="113.1875" id="HTTPProducerConfig" rx="2.5" ry="2.5" style="stroke:#181818;stroke-width:0.5;" width="263" x="155.5" y="1105"/><ellipse cx="210.75" cy="1121" fill="#F1F1F1" rx="11" ry="11" style="stroke:#181818;stroke-width:1.0;"/><path d="M210.2344,1121.5625 Q208.375,1120.8594 207.7188,1120.0938 Q207.0781,1119.3125 207.0781,1118 Q207.0781,1116.3125 208.1563,1115.3438 Q209.2344,1114.375 211.1094,1114.375 Q211.9688,1114.375 212.8125,1114.5781 Q213.6719,1114.7656 214.5156,1115.1563 L214.5156,1117.5469 Q213.7344,1116.9844 212.9063,1116.7031 Q212.0938,1116.4063 211.2969,1116.4063 Q210.4219,1116.4063 209.9375,1116.7656 Q209.4688,1117.125 209.4688,1117.7813 Q209.4688,1118.2969 209.8125,1118.6406 Q210.1563,1118.9688 211.25,1119.375 L212.3125,1119.7813 Q213.7969,1120.3281 214.5,1121.2344 Q215.2188,1122.1406 215.2188,1123.5156 Q215.2188,1125.3906 214.1094,1126.3125 Q213,1127.2344 210.75,1127.2344 Q209.8281,1127.2344 208.9063,1127.0156 Q207.9844,1126.7969 207.125,1126.375 L207.125,1123.8438 Q208.0938,1124.5313 209.0156,1124.875 Q209.9375,1125.2188 210.8281,1125.2188 Q211.7344,1125.2188 212.2344,1124.8125 Q212.7344,1124.3906 212.7344,1123.6563 Q212.7344,1123.0938 212.3906,1122.6875 Q212.0625,1122.2656 211.4375,1122.0156 L210.2344,1121.5625 Z " fill="#000000"/><text fill="#000000" font-family="sans-serif" font-size="14" lengthAdjust="spacing" textLength="144" x="231.25" y="1125.8467">HTTPProducerConfig</text><line style="stroke:#181818;stroke-width:0.5;" x1="156.5" x2="417.5" y1="1137" y2="1137"/><ellipse cx="166.5" cy="1150.6484" fill="none" rx="3" ry="3" style="stroke:#038048;stroke-width:1.0;"/><text fill="#000000" font-family="sans-serif" font-size="14" lengthAdjust="spacing" textLength="70" x="175.5" y="1153.9951">string URL</text><ellipse cx="166.5" cy="1166.9453" fill="none" rx="3" ry="3" style="stroke:#038048;stroke-width:1.0;"/><text fill="#000000" font-family="sans-serif" font-size="14" lengthAdjust="spacing" textLength="102" x="175.5" y="1170.292">int NumRetries</text><ellipse cx="166.5" cy="1183.2422" fill="none" rx="3" ry="3" style="stroke:#038048;stroke-width:1.0;"/><text fill="#000000" font-family="sans-serif" font-size="14" lengthAdjust="spacing" textLength="78" x="175.5" y="1186.5889">int Timeout</text><line style="stroke:#181818;stroke-width:0.5;" x1="156.5" x2="417.5" y1="1193.8906" y2="1193.8906"/><ellipse cx="166.5" cy="1207.5391" fill="#84BE84" rx="3" ry="3" style="stroke:#038048;stroke-width:1.0;"/><text fill="#000000" font-family="sans-serif" font-size="14" lengthAdjust="spacing" textLength="237" x="175.5" y="1210.8857">error IngestConfig(map[string]any)</text></g><!--class ConsumerConfig--><g id="elem_ConsumerConfig"><rect codeLine="79" fill="#F1F1F1" height="64.2969" id="ConsumerConfig" rx="2.5" ry="2.5" style="stroke:#181818;stroke-width:0.5;" width="263" x="453.5" y="964.5"/><ellipse cx="522.75" cy="980.5" fill="#B4A7E5" rx="11" ry="11" style="stroke:#181818;stroke-width:1.0;"/><path d="M518.6719,976.2656 L518.6719,974.1094 L526.0625,974.1094 L526.0625,976.2656 L523.5938,976.2656 L523.5938,984.3438 L526.0625,984.3438 L526.0625,986.5 L518.6719,986.5 L518.6719,984.3438 L521.1406,984.3438 L521.1406,976.2656 L518.6719,976.2656 Z " fill="#000000"/><text fill="#000000" font-family="sans-serif" font-size="14" font-style="italic" lengthAdjust="spacing" textLength="116" x="543.25" y="985.3467">ConsumerConfig</text><line style="stroke:#181818;stroke-width:0.5;" x1="454.5" x2="715.5" y1="996.5" y2="996.5"/><line style="stroke:#181818;stroke-width:0.5;" x1="454.5" x2="715.5" y1="1004.5" y2="1004.5"/><ellipse cx="464.5" cy="1018.1484" fill="#84BE84" rx="3" ry="3" style="stroke:#038048;stroke-width:1.0;"/><text fill="#000000" font-family="sans-serif" font-size="14" lengthAdjust="spacing" textLength="237" x="473.5" y="1021.4951">error IngestConfig(map[string]any)</text></g><!--reverse link CompletionHandler to WaitGroupCompletionHandler--><g id="link_CompletionHandler_WaitGroupCompletionHandler"><path codeLine="83" d="M664.91,117.8132 C647.31,134.9132 637.75,144.21 616.63,164.73 " fill="none" id="CompletionHandler-backto-WaitGroupCompletionHandler" style="stroke:#181818;stroke-width:1.0;"/><polygon fill="none" points="677.82,105.27,660.7289,113.5099,669.0911,122.1165,677.82,105.27" style="stroke:#181818;stroke-width:1.0;"/></g><!--reverse link CompletionHandler to AppData--><g id="link_CompletionHandler_AppData"><path codeLine="84" d="M750.7873,113.6315 C770.7473,133.0215 788.36,150.14 811.78,172.9 " fill="none" id="CompletionHandler-backto-AppData" style="stroke:#181818;stroke-width:1.0;"/><polygon fill="#181818" points="742.18,105.27,743.6965,112.3198,750.7873,113.6315,749.2708,106.5816,742.18,105.27" style="stroke:#181818;stroke-width:1.0;"/></g><!--reverse link AppData to Pushable--><g id="link_AppData_Pushable"><path codeLine="85" d="M869,298.28 C869,320.92 869,334.24 869,353.57 " fill="none" id="AppData-backto-Pushable" style="stroke:#181818;stroke-width:1.0;"/><polygon fill="#181818" points="869,286.28,865,292.28,869,298.28,873,292.28,869,286.28" style="stroke:#181818;stroke-width:1.0;"/></g><!--reverse link Server to SourceServer--><g id="link_Server_SourceServer"><path codeLine="86" d="M652.9942,559.1623 C659.6442,579.1823 662.68,588.31 669.82,609.82 " fill="none" id="Server-backto-SourceServer" style="stroke:#181818;stroke-width:1.0;"/><polygon fill="none" points="647.32,542.08,647.3001,561.0537,658.6883,557.2709,647.32,542.08" style="stroke:#181818;stroke-width:1.0;"/></g><!--reverse link Pushable to Pullable--><g id="link_Pushable_Pullable"><path codeLine="87" d="M859.5229,429.8156 C855.4529,448.1756 852.93,459.61 848.87,477.96 " fill="none" id="Pushable-backto-Pullable" style="stroke:#181818;stroke-width:1.0;"/><polygon fill="#181818" points="862.12,418.1,856.9163,423.0921,859.5229,429.8156,864.7267,424.8235,862.12,418.1" style="stroke:#181818;stroke-width:1.0;"/></g><!--reverse link Pullable to SourceServer--><g id="link_Pullable_SourceServer"><path codeLine="88" d="M792.748,553.9038 C769.768,573.9238 753.25,588.31 728.55,609.82 " fill="none" id="Pullable-backto-SourceServer" style="stroke:#181818;stroke-width:1.0;"/><polygon fill="none" points="806.32,542.08,788.8068,549.3798,796.6893,558.4278,806.32,542.08" style="stroke:#181818;stroke-width:1.0;"/></g><!--reverse link Server to SinkServer--><g id="link_Server_SinkServer"><path codeLine="89" d="M577.3218,552.3276 C548.4118,572.3476 525.37,588.31 494.29,609.82 " fill="none" id="Server-backto-SinkServer" style="stroke:#181818;stroke-width:1.0;"/><polygon fill="none" points="592.12,542.08,573.9059,547.3949,580.7377,557.2604,592.12,542.08" style="stroke:#181818;stroke-width:1.0;"/></g><!--reverse link Pushable to SinkServer--><g id="link_Pushable_SinkServer"><path codeLine="90" d="M754.6921,402.9271 C690.9821,414.9471 625.86,434.61 564,478 C515.32,512.15 477.76,570.89 456.51,609.96 " fill="none" id="Pushable-backto-SinkServer" style="stroke:#181818;stroke-width:1.0;"/><polygon fill="none" points="772.38,399.59,753.5797,397.0312,755.8044,408.8231,772.38,399.59" style="stroke:#181818;stroke-width:1.0;"/></g><!--reverse link Pushable to PipeServer--><g id="link_Pushable_PipeServer"><path codeLine="91" d="M935.6314,428.8146 C956.1014,444.0446 962.88,453.64 974,478 C991.92,517.24 981.08,566.16 968.02,601.69 " fill="none" id="Pushable-backto-PipeServer" style="stroke:#181818;stroke-width:1.0;"/><polygon fill="none" points="921.19,418.07,932.0498,433.6284,939.2129,424.0008,921.19,418.07" style="stroke:#181818;stroke-width:1.0;"/></g><!--reverse link Pullable to PipeServer--><g id="link_Pullable_PipeServer"><path codeLine="92" d="M876.1439,556.4771 C889.3739,574.1071 895.41,582.13 910.28,601.93 " fill="none" id="Pullable-backto-PipeServer" style="stroke:#181818;stroke-width:1.0;"/><polygon fill="none" points="865.34,542.08,871.3449,560.0784,880.9429,552.8758,865.34,542.08" style="stroke:#181818;stroke-width:1.0;"/></g><!--reverse link Server to PipeServer--><g id="link_Server_PipeServer"><path codeLine="93" d="M709.745,543.6035 C750.565,561.9035 790.57,579.83 839.75,601.88 " fill="none" id="Server-backto-PipeServer" style="stroke:#181818;stroke-width:1.0;"/><polygon fill="none" points="693.32,536.24,707.2905,549.0785,712.1995,538.1285,693.32,536.24" style="stroke:#181818;stroke-width:1.0;"/></g><!--reverse link SinkServer to Producer--><g id="link_SinkServer_Producer"><path codeLine="95" d="M406.8275,706.9713 C393.2475,731.9313 384.25,748.48 369.92,774.84 " fill="none" id="SinkServer-backto-Producer" style="stroke:#181818;stroke-width:1.0;"/><polygon fill="none" points="415.43,691.16,401.5571,704.1038,412.098,709.8388,415.43,691.16" style="stroke:#181818;stroke-width:1.0;"/></g><!--link MapSinkServer to SinkServer--><g id="link_MapSinkServer_SinkServer"><path codeLine="96" d="M305.57,686.82 C317.2,686.59 316.984,687.4238 328.624,685.6038 " fill="none" id="MapSinkServer-to-SinkServer" style="stroke:#181818;stroke-width:1.0;"/><polygon fill="#181818" points="340.48,683.75,333.9341,680.7249,328.624,685.6038,335.1699,688.6289,340.48,683.75" style="stroke:#181818;stroke-width:1.0;"/></g><!--link MapSinkServer to SinkServer--><g id="link_MapSinkServer_SinkServer"><path codeLine="97" d="M305.57,614.18 C317.2,614.41 311.0561,612.6494 322.6961,614.4694 " fill="none" id="MapSinkServer-to-SinkServer-1" style="stroke:#181818;stroke-width:1.0;"/><polygon fill="none" points="340.48,617.25,323.623,608.5414,321.7692,620.3973,340.48,617.25" style="stroke:#181818;stroke-width:1.0;"/></g><!--reverse link SourceServer to ConsumerServer--><g id="link_SourceServer_ConsumerServer"><path codeLine="98" d="M802.6354,701.1966 C813.1754,708.2866 807.99,706.47 816,716 C872.27,782.94 889.02,887.28 893.96,947.75 " fill="none" id="SourceServer-backto-ConsumerServer" style="stroke:#181818;stroke-width:1.0;"/><polygon fill="none" points="787.7,691.15,799.2865,706.1751,805.9842,696.2182,787.7,691.15" style="stroke:#181818;stroke-width:1.0;"/></g><!--reverse link Consumer to ConsumerServer--><g id="link_Consumer_ConsumerServer"><path codeLine="99" d="M751.6874,879.6426 C781.1074,903.2626 807.19,924.2 836.62,947.83 " fill="none" id="Consumer-backto-ConsumerServer" style="stroke:#181818;stroke-width:1.0;"/><polygon fill="#181818" points="742.33,872.13,744.5045,879.0054,751.6874,879.6426,749.5129,872.7672,742.33,872.13" style="stroke:#181818;stroke-width:1.0;"/></g><!--reverse link SourceServer to Consumer--><g id="link_SourceServer_Consumer"><path codeLine="100" d="M683,709.16 C683,734.12 683,748.48 683,774.84 " fill="none" id="SourceServer-backto-Consumer" style="stroke:#181818;stroke-width:1.0;"/><polygon fill="none" points="683,691.16,677,709.16,689,709.16,683,691.16" style="stroke:#181818;stroke-width:1.0;"/></g><!--reverse link PipeServer to JQTransformer--><g id="link_PipeServer_JQTransformer"><path codeLine="102" d="M1061.7073,707.6125 C1072.0073,713.0825 1066.34,710.31 1076,716 C1098.12,729.04 1121.25,744.18 1142.67,758.87 " fill="none" id="PipeServer-backto-JQTransformer" style="stroke:#181818;stroke-width:1.0;"/><polygon fill="none" points="1045.81,699.17,1058.8931,712.9116,1064.5215,702.3134,1045.81,699.17" style="stroke:#181818;stroke-width:1.0;"/></g><!--reverse link Pushable to JQTransformer--><g id="link_Pushable_JQTransformer"><path codeLine="103" d="M925.1891,425.1708 C947.9991,441.5908 965.4,455.88 987,478 C1072.65,565.71 1150.25,686.13 1193.66,758.9 " fill="none" id="Pushable-backto-JQTransformer" style="stroke:#181818;stroke-width:1.0;"/><polygon fill="#181818" points="915.45,418.16,917.9826,424.9117,925.1891,425.1708,922.6564,418.419,915.45,418.16" style="stroke:#181818;stroke-width:1.0;"/></g><!--link Consumer to ConsumerConfig--><g id="link_Consumer_ConsumerConfig"><path codeLine="106" d="M655.7,872.13 C638.82,901.58 623.6076,928.1291 608.8476,953.8791 " fill="none" id="Consumer-to-ConsumerConfig" style="stroke:#181818;stroke-width:1.0;"/><polygon fill="#181818" points="602.88,964.29,609.3341,961.0737,608.8476,953.8791,602.3935,957.0953,602.88,964.29" style="stroke:#181818;stroke-width:1.0;"/></g><!--link Producer to ProducerConfig--><g id="link_Producer_ProducerConfig"><path codeLine="107" d="M328.12,872.13 C318.31,901.58 309.7874,927.1567 301.1974,952.9067 " fill="none" id="Producer-to-ProducerConfig" style="stroke:#181818;stroke-width:1.0;"/><polygon fill="#181818" points="297.4,964.29,303.0931,959.8641,301.1974,952.9067,295.5043,957.3325,297.4,964.29" style="stroke:#181818;stroke-width:1.0;"/></g><!--reverse link ProducerConfig to HTTPProducerConfig--><g id="link_ProducerConfig_HTTPProducerConfig"><path codeLine="108" d="M287,1046.54 C287,1068.06 287,1079.33 287,1104.83 " fill="none" id="ProducerConfig-backto-HTTPProducerConfig" style="stroke:#181818;stroke-width:1.0;"/><polygon fill="none" points="287,1028.54,281,1046.54,293,1046.54,287,1028.54" style="stroke:#181818;stroke-width:1.0;"/></g><!--SRC=[hLRDSjCm4BxxANHqKvmduD89J4i7IcZ2S60ugBPYN6n9rG_G2Nbtv5YozMStnFZWaNU_tVrMkrePmmPn2dC4RZSVxzx-5WpcWZ2mJu1wk60o5-3sqvP1p7U4DSYesYShoUFJSaKA11wVreoK33Q3SYtvT_XG8q3rebTT8iPKZAkYC9ZKB2vyq0RXOalInHMbRw204JtxYT9EV4WE2UuJEceCtGeBn7QjU4KQMYDH4Nm3SL4x2McV6e9IY9zVWQFC1B1svGkin3KZaavvpFWppfSz5Fmg1vNo3WgLqo3fmX_VW_21a1fKt90wZwpUFfjP4FuoJ2Jt9GEuDRz6elMQNapvKA10cDeKXzeu9HijickpbdLzRBFzwVqL-j2jkZ-f_GBQHB8SZP4_iSt7CznK-CVuplpByV2ohkXSqZE2CrB8F9wIa3Gr-XN1kwhyhw6LIowR6Lct_8oJKNv-V7qGFq0QhMVMGFfLOIfSVhC0l5ygm_cRe4aOyfCi-ctAzO97ACnkRhVEOKdUuH9nqMbJYvqQFv74RhRRzRZ7pXHyldy_o1GJS2URUwHqYBloRTKW8iKPb4OwRaQIXwGhrZ8SiA__P9aUdSlnIsdSVZ6OwqvAt4yROOfi8Bg5R0xsE4myCzTLDxaJx_j5Px6O_Ja98fu16oRZ9BSG5c5cWPA0XOlKZHk1BR8QxKIFT8P8tEi9UFlMidcuqo7nf7O5uyWN7VSROTr0Hvpp3xfqVZkZZJI5JtpY-l0jCab3Hbu9ObY_F1xMJZGSGty1]--></g></svg>