<svg xmlns="http://www.w3.org/2000/svg" xmlns:xlink="http://www.w3.org/1999/xlink" contentStyleType="text/css" height="758px" preserveAspectRatio="none" style="width:1034px;height:758px;background:#FFFFFF;" version="1.1" viewBox="0 0 1034 758" width="1034px" zoomAndPan="magnify"><defs/><g><!--cluster JSONExtractor--><g id="cluster_JSONExtractor"><path d="M8.5,6 L111.0205,6 A3.75,3.75 0 0 1 113.5205,8.5 L120.5205,28.4883 L1024.5,28.4883 A2.5,2.5 0 0 1 1027,30.9883 L1027,748.85 A2.5,2.5 0 0 1 1024.5,751.35 L8.5,751.35 A2.5,2.5 0 0 1 6,748.85 L6,8.5 A2.5,2.5 0 0 1 8.5,6 " fill="none" style="stroke:#000000;stroke-width:1.5;"/><line style="stroke:#000000;stroke-width:1.5;" x1="6" x2="120.5205" y1="28.4883" y2="28.4883"/><text fill="#000000" font-family="sans-serif" font-size="14" font-weight="bold" lengthAdjust="spacing" textLength="101.5205" x="10" y="21.5352">JSONExtractor</text></g><!--class Listener--><g id="elem_Listener"><rect codeLine="3" fill="#F1F1F1" height="80.9766" id="Listener" rx="2.5" ry="2.5" style="stroke:#181818;stroke-width:0.5;" width="111.1963" x="22.4" y="472.18"/><ellipse cx="48.7827" cy="488.18" fill="#B4A7E5" rx="11" ry="11" style="stroke:#181818;stroke-width:1.0;"/><path d="M45.2104,484.4451 L45.2104,482.2869 L52.5898,482.2869 L52.5898,484.4451 L50.1245,484.4451 L50.1245,492.5218 L52.5898,492.5218 L52.5898,494.68 L45.2104,494.68 L45.2104,492.5218 L47.6758,492.5218 L47.6758,484.4451 Z " fill="#000000"/><text fill="#000000" font-family="sans-serif" font-size="14" font-style="italic" lengthAdjust="spacing" textLength="53.9014" x="65.3122" y="493.471">Listener</text><line style="stroke:#181818;stroke-width:0.5;" x1="23.4" x2="132.5963" y1="504.18" y2="504.18"/><line style="stroke:#181818;stroke-width:0.5;" x1="23.4" x2="132.5963" y1="512.18" y2="512.18"/><ellipse cx="33.4" cy="525.9241" fill="#84BE84" rx="3" ry="3" style="stroke:#038048;stroke-width:1.0;"/><text fill="#000000" font-family="sans-serif" font-size="14" lengthAdjust="spacing" textLength="85.1963" x="42.4" y="529.7152">error Setup()</text><ellipse cx="33.4" cy="542.4124" fill="#84BE84" rx="3" ry="3" style="stroke:#038048;stroke-width:1.0;"/><text fill="#000000" font-family="sans-serif" font-size="14" lengthAdjust="spacing" textLength="83.2344" x="42.4" y="546.2034">error Serve()</text></g><!--class ProducerResponse--><g id="elem_ProducerResponse"><rect codeLine="7" fill="#F1F1F1" height="97.4648" id="ProducerResponse" rx="2.5" ry="2.5" style="stroke:#181818;stroke-width:0.5;" width="160.0527" x="353.97" y="41"/><ellipse cx="370.3029" cy="57" fill="#F1F1F1" rx="11" ry="11" style="stroke:#181818;stroke-width:1.0;"/><path d="M370.0363,58.063 Q368.1852,57.3574 367.5294,56.5813 Q366.8737,55.8052 366.8737,54.4937 Q366.8737,52.8086 367.9528,51.8457 Q369.0319,50.8828 370.9161,50.8828 Q371.7711,50.8828 372.6261,51.0779 Q373.4811,51.2729 374.3195,51.6548 L374.3195,54.0454 Q373.5309,53.4893 372.7174,53.1987 Q371.9039,52.9082 371.1071,52.9082 Q370.2189,52.9082 369.7457,53.2651 Q369.2726,53.6221 369.2726,54.2861 Q369.2726,54.8008 369.6171,55.137 Q369.9616,55.4731 371.0573,55.8799 L372.1115,56.2783 Q373.6056,56.8262 374.3112,57.731 Q375.0167,58.6357 375.0167,60.0137 Q375.0167,61.8896 373.9086,62.8152 Q372.8004,63.7407 370.5592,63.7407 Q369.6378,63.7407 368.7123,63.5208 Q367.7867,63.3008 366.9235,62.8691 L366.9235,60.3374 Q367.903,61.0347 368.8202,61.375 Q369.7374,61.7153 370.6339,61.7153 Q371.5387,61.7153 372.0367,61.3044 Q372.5348,60.8936 372.5348,60.1548 Q372.5348,59.5986 372.2028,59.1794 Q371.8707,58.7603 371.2399,58.5195 Z " fill="#000000"/><text fill="#000000" font-family="sans-serif" font-size="14" lengthAdjust="spacing" textLength="125.0908" x="384.5991" y="62.291">ProducerResponse</text><line style="stroke:#181818;stroke-width:0.5;" x1="354.97" x2="513.0227" y1="73" y2="73"/><rect fill="none" height="6" style="stroke:#C82930;stroke-width:1.0;" width="6" x="361.97" y="83.7441"/><text fill="#000000" font-family="sans-serif" font-size="14" lengthAdjust="spacing" textLength="57.6748" x="373.97" y="90.5352">any data</text><rect fill="none" height="6" style="stroke:#C82930;stroke-width:1.0;" width="6" x="361.97" y="100.2324"/><text fill="#000000" font-family="sans-serif" font-size="14" lengthAdjust="spacing" textLength="71.5996" x="373.97" y="107.0234">error error</text><line style="stroke:#181818;stroke-width:0.5;" x1="354.97" x2="513.0227" y1="113.9766" y2="113.9766"/><ellipse cx="364.97" cy="127.7207" fill="#84BE84" rx="3" ry="3" style="stroke:#038048;stroke-width:1.0;"/><text fill="#000000" font-family="sans-serif" font-size="14" lengthAdjust="spacing" textLength="134.0527" x="373.97" y="131.5117">any, error GetData()</text></g><!--class ProducersResponse--><g id="elem_ProducersResponse"><rect codeLine="12" fill="#F1F1F1" height="80.9766" id="ProducersResponse" rx="2.5" ry="2.5" style="stroke:#181818;stroke-width:0.5;" width="410.583" x="53.71" y="198.47"/><ellipse cx="188.6377" cy="214.47" fill="#F1F1F1" rx="11" ry="11" style="stroke:#181818;stroke-width:1.0;"/><path d="M188.3711,215.533 Q186.5201,214.8274 185.8643,214.0513 Q185.2085,213.2752 185.2085,211.9637 Q185.2085,210.2786 186.2876,209.3157 Q187.3667,208.3528 189.251,208.3528 Q190.106,208.3528 190.961,208.5479 Q191.816,208.7429 192.6543,209.1248 L192.6543,211.5154 Q191.8658,210.9593 191.0523,210.6687 Q190.2388,210.3782 189.4419,210.3782 Q188.5538,210.3782 188.0806,210.7351 Q187.6075,211.0921 187.6075,211.7561 Q187.6075,212.2708 187.9519,212.607 Q188.2964,212.9431 189.3921,213.3499 L190.4463,213.7483 Q191.9405,214.2962 192.646,215.201 Q193.3516,216.1057 193.3516,217.4837 Q193.3516,219.3596 192.2434,220.2852 Q191.1353,221.2107 188.8941,221.2107 Q187.9727,221.2107 187.0472,220.9908 Q186.1216,220.7708 185.2583,220.3391 L185.2583,217.8074 Q186.2378,218.5047 187.1551,218.845 Q188.0723,219.1853 188.9688,219.1853 Q189.8736,219.1853 190.3716,218.7744 Q190.8697,218.3636 190.8697,217.6248 Q190.8697,217.0686 190.5376,216.6494 Q190.2056,216.2303 189.5747,215.9895 Z " fill="#000000"/><text fill="#000000" font-family="sans-serif" font-size="14" lengthAdjust="spacing" textLength="132.2275" x="209.1377" y="219.761">ProducersResponse</text><line style="stroke:#181818;stroke-width:0.5;" x1="54.71" x2="463.293" y1="230.47" y2="230.47"/><rect fill="none" height="6" style="stroke:#C82930;stroke-width:1.0;" width="6" x="61.71" y="241.2141"/><text fill="#000000" font-family="sans-serif" font-size="14" lengthAdjust="spacing" textLength="384.583" x="73.71" y="248.0052">map&lt;string, ProducerResponse&gt; producerResponseMap</text><line style="stroke:#181818;stroke-width:0.5;" x1="54.71" x2="463.293" y1="254.9583" y2="254.9583"/><ellipse cx="64.71" cy="268.7024" fill="#84BE84" rx="3" ry="3" style="stroke:#038048;stroke-width:1.0;"/><text fill="#000000" font-family="sans-serif" font-size="14" lengthAdjust="spacing" textLength="201.3457" x="73.71" y="272.4934">ProducerResponse Get(string)</text></g><!--class ProducerInstance--><g id="elem_ProducerInstance"><rect codeLine="16" fill="#F1F1F1" height="64.4883" id="ProducerInstance" rx="2.5" ry="2.5" style="stroke:#181818;stroke-width:0.5;" width="221.2002" x="499.4" y="206.71"/><ellipse cx="547.3746" cy="222.71" fill="#B4A7E5" rx="11" ry="11" style="stroke:#181818;stroke-width:1.0;"/><path d="M543.8023,218.9751 L543.8023,216.8169 L551.1817,216.8169 L551.1817,218.9751 L548.7164,218.9751 L548.7164,227.0518 L551.1817,227.0518 L551.1817,229.21 L543.8023,229.21 L543.8023,227.0518 L546.2677,227.0518 L546.2677,218.9751 Z " fill="#000000"/><text fill="#000000" font-family="sans-serif" font-size="14" font-style="italic" lengthAdjust="spacing" textLength="116.751" x="567.8746" y="228.001">ProducerInstance</text><line style="stroke:#181818;stroke-width:0.5;" x1="500.4" x2="719.6002" y1="238.71" y2="238.71"/><line style="stroke:#181818;stroke-width:0.5;" x1="500.4" x2="719.6002" y1="246.71" y2="246.71"/><ellipse cx="510.4" cy="260.4541" fill="#84BE84" rx="3" ry="3" style="stroke:#038048;stroke-width:1.0;"/><text fill="#000000" font-family="sans-serif" font-size="14" lengthAdjust="spacing" textLength="195.2002" x="519.4" y="264.2452">ProducerResponse Send(any)</text></g><!--class Producer--><g id="elem_Producer"><rect codeLine="19" fill="#F1F1F1" height="64.4883" id="Producer" rx="2.5" ry="2.5" style="stroke:#181818;stroke-width:0.5;" width="235.9248" x="354.04" y="339.44"/><ellipse cx="437.6196" cy="355.44" fill="#B4A7E5" rx="11" ry="11" style="stroke:#181818;stroke-width:1.0;"/><path d="M434.0473,351.7051 L434.0473,349.5469 L441.4267,349.5469 L441.4267,351.7051 L438.9614,351.7051 L438.9614,359.7818 L441.4267,359.7818 L441.4267,361.94 L434.0473,361.94 L434.0473,359.7818 L436.5127,359.7818 L436.5127,351.7051 Z " fill="#000000"/><text fill="#000000" font-family="sans-serif" font-size="14" font-style="italic" lengthAdjust="spacing" textLength="60.2656" x="458.1196" y="360.731">Producer</text><line style="stroke:#181818;stroke-width:0.5;" x1="355.04" x2="588.9648" y1="371.44" y2="371.44"/><line style="stroke:#181818;stroke-width:0.5;" x1="355.04" x2="588.9648" y1="379.44" y2="379.44"/><ellipse cx="365.04" cy="393.1841" fill="#84BE84" rx="3" ry="3" style="stroke:#038048;stroke-width:1.0;"/><text fill="#000000" font-family="sans-serif" font-size="14" lengthAdjust="spacing" textLength="209.9248" x="374.04" y="396.9752">ProducerInstance GetInstance()</text></g><!--class Producers--><g id="elem_Producers"><rect codeLine="22" fill="#F1F1F1" height="80.9766" id="Producers" rx="2.5" ry="2.5" style="stroke:#181818;stroke-width:0.5;" width="280.9326" x="168.53" y="472.18"/><ellipse cx="271.0451" cy="488.18" fill="#F1F1F1" rx="11" ry="11" style="stroke:#181818;stroke-width:1.0;"/><path d="M270.7785,489.243 Q268.9275,488.5374 268.2717,487.7613 Q267.6159,486.9852 267.6159,485.6737 Q267.6159,483.9886 268.695,483.0257 Q269.7741,482.0628 271.6584,482.0628 Q272.5134,482.0628 273.3684,482.2579 Q274.2234,482.4529 275.0617,482.8348 L275.0617,485.2254 Q274.2732,484.6693 273.4597,484.3787 Q272.6462,484.0882 271.8493,484.0882 Q270.9612,484.0882 270.488,484.4451 Q270.0149,484.8021 270.0149,485.4661 Q270.0149,485.9808 270.3593,486.317 Q270.7038,486.6531 271.7995,487.0599 L272.8537,487.4583 Q274.3479,488.0062 275.0534,488.911 Q275.759,489.8157 275.759,491.1937 Q275.759,493.0696 274.6508,493.9952 Q273.5427,494.9207 271.3015,494.9207 Q270.3801,494.9207 269.4546,494.7008 Q268.529,494.4808 267.6657,494.0491 L267.6657,491.5174 Q268.6452,492.2147 269.5625,492.555 Q270.4797,492.8953 271.3762,492.8953 Q272.281,492.8953 272.779,492.4844 Q273.2771,492.0736 273.2771,491.3348 Q273.2771,490.7786 272.945,490.3594 Q272.613,489.9403 271.9821,489.6995 Z " fill="#000000"/><text fill="#000000" font-family="sans-serif" font-size="14" lengthAdjust="spacing" textLength="67.4023" x="291.5451" y="493.471">Producers</text><line style="stroke:#181818;stroke-width:0.5;" x1="169.53" x2="448.4626" y1="504.18" y2="504.18"/><rect fill="none" height="6" style="stroke:#C82930;stroke-width:1.0;" width="6" x="176.53" y="514.9241"/><text fill="#000000" font-family="sans-serif" font-size="14" lengthAdjust="spacing" textLength="254.9326" x="188.53" y="521.7152">map&lt;string, Producer&gt; producerMap</text><line style="stroke:#181818;stroke-width:0.5;" x1="169.53" x2="448.4626" y1="528.6683" y2="528.6683"/><ellipse cx="179.53" cy="542.4124" fill="#84BE84" rx="3" ry="3" style="stroke:#038048;stroke-width:1.0;"/><text fill="#000000" font-family="sans-serif" font-size="14" lengthAdjust="spacing" textLength="202.3369" x="188.53" y="546.2034">ProducersResponse Send(any)</text></g><!--class KafkaListener--><g id="elem_KafkaListener"><rect codeLine="26" fill="#F1F1F1" height="113.9531" id="KafkaListener" rx="2.5" ry="2.5" style="stroke:#181818;stroke-width:0.5;" width="325.2432" x="146.38" y="621.4"/><ellipse cx="258.8346" cy="637.4" fill="#F1F1F1" rx="11" ry="11" style="stroke:#181818;stroke-width:1.0;"/><path d="M258.568,638.463 Q256.7169,637.7574 256.0612,636.9813 Q255.4054,636.2052 255.4054,634.8937 Q255.4054,633.2086 256.4845,632.2457 Q257.5636,631.2828 259.4479,631.2828 Q260.3029,631.2828 261.1578,631.4779 Q262.0128,631.6729 262.8512,632.0548 L262.8512,634.4454 Q262.0626,633.8893 261.2491,633.5987 Q260.4357,633.3082 259.6388,633.3082 Q258.7506,633.3082 258.2775,633.6651 Q257.8043,634.0221 257.8043,634.6861 Q257.8043,635.2008 258.1488,635.537 Q258.4933,635.8731 259.589,636.2799 L260.6432,636.6783 Q262.1373,637.2262 262.8429,638.131 Q263.5485,639.0357 263.5485,640.4137 Q263.5485,642.2896 262.4403,643.2152 Q261.3321,644.1407 259.0909,644.1407 Q258.1696,644.1407 257.244,643.9208 Q256.3185,643.7008 255.4552,643.2691 L255.4552,640.7374 Q256.4347,641.4347 257.3519,641.775 Q258.2692,642.1153 259.1656,642.1153 Q260.0704,642.1153 260.5685,641.7044 Q261.0665,641.2936 261.0665,640.5548 Q261.0665,639.9986 260.7345,639.5794 Q260.4025,639.1603 259.7716,638.9195 Z " fill="#000000"/><text fill="#000000" font-family="sans-serif" font-size="14" lengthAdjust="spacing" textLength="91.834" x="279.3346" y="642.691">KafkaListener</text><line style="stroke:#181818;stroke-width:0.5;" x1="147.38" x2="470.6232" y1="653.4" y2="653.4"/><rect fill="none" height="6" style="stroke:#C82930;stroke-width:1.0;" width="6" x="154.38" y="664.1441"/><text fill="#000000" font-family="sans-serif" font-size="14" lengthAdjust="spacing" textLength="140.3076" x="166.38" y="670.9352">Producers producers</text><rect fill="none" height="6" style="stroke:#C82930;stroke-width:1.0;" width="6" x="154.38" y="680.6324"/><text fill="#000000" font-family="sans-serif" font-size="14" lengthAdjust="spacing" textLength="299.2432" x="166.38" y="687.4234">KafkaConsumerCofig kafkaConsumerConfig</text><line style="stroke:#181818;stroke-width:0.5;" x1="147.38" x2="470.6232" y1="694.3766" y2="694.3766"/><ellipse cx="157.38" cy="708.1207" fill="#84BE84" rx="3" ry="3" style="stroke:#038048;stroke-width:1.0;"/><text fill="#000000" font-family="sans-serif" font-size="14" lengthAdjust="spacing" textLength="85.1963" x="166.38" y="711.9117">error Setup()</text><ellipse cx="157.38" cy="724.609" fill="#84BE84" rx="3" ry="3" style="stroke:#038048;stroke-width:1.0;"/><text fill="#000000" font-family="sans-serif" font-size="14" lengthAdjust="spacing" textLength="83.2344" x="166.38" y="728.4">error Serve()</text></g><!--class KafkaProducer--><g id="elem_KafkaProducer"><rect codeLine="32" fill="#F1F1F1" height="97.4648" id="KafkaProducer" rx="2.5" ry="2.5" style="stroke:#181818;stroke-width:0.5;" width="315.666" x="484.17" y="463.93"/><ellipse cx="588.6539" cy="479.93" fill="#F1F1F1" rx="11" ry="11" style="stroke:#181818;stroke-width:1.0;"/><path d="M588.3873,480.993 Q586.5362,480.2874 585.8804,479.5113 Q585.2247,478.7352 585.2247,477.4237 Q585.2247,475.7386 586.3038,474.7757 Q587.3829,473.8128 589.2672,473.8128 Q590.1221,473.8128 590.9771,474.0079 Q591.8321,474.2029 592.6705,474.5848 L592.6705,476.9754 Q591.8819,476.4193 591.0684,476.1287 Q590.255,475.8382 589.4581,475.8382 Q588.5699,475.8382 588.0968,476.1951 Q587.6236,476.5521 587.6236,477.2161 Q587.6236,477.7308 587.9681,478.067 Q588.3126,478.4031 589.4083,478.8099 L590.4625,479.2083 Q591.9566,479.7562 592.6622,480.661 Q593.3678,481.5657 593.3678,482.9437 Q593.3678,484.8196 592.2596,485.7452 Q591.1514,486.6707 588.9102,486.6707 Q587.9888,486.6707 587.0633,486.4508 Q586.1378,486.2308 585.2745,485.7991 L585.2745,483.2674 Q586.254,483.9647 587.1712,484.305 Q588.0885,484.6453 588.9849,484.6453 Q589.8897,484.6453 590.3878,484.2344 Q590.8858,483.8236 590.8858,483.0848 Q590.8858,482.5286 590.5538,482.1094 Q590.2218,481.6903 589.5909,481.4495 Z " fill="#000000"/><text fill="#000000" font-family="sans-serif" font-size="14" lengthAdjust="spacing" textLength="98.1982" x="609.1539" y="485.221">KafkaProducer</text><line style="stroke:#181818;stroke-width:0.5;" x1="485.17" x2="798.836" y1="495.93" y2="495.93"/><rect fill="none" height="6" style="stroke:#C82930;stroke-width:1.0;" width="6" x="492.17" y="506.6741"/><text fill="#000000" font-family="sans-serif" font-size="14" lengthAdjust="spacing" textLength="289.666" x="504.17" y="513.4652">KafkaProducerConfig kafkaProducerConfig</text><line style="stroke:#181818;stroke-width:0.5;" x1="485.17" x2="798.836" y1="520.4183" y2="520.4183"/><ellipse cx="495.17" cy="534.1624" fill="#84BE84" rx="3" ry="3" style="stroke:#038048;stroke-width:1.0;"/><text fill="#000000" font-family="sans-serif" font-size="14" lengthAdjust="spacing" textLength="209.9248" x="504.17" y="537.9534">ProducerInstance GetInstance()</text><ellipse cx="495.17" cy="550.6507" fill="#84BE84" rx="3" ry="3" style="stroke:#038048;stroke-width:1.0;"/><text fill="#000000" font-family="sans-serif" font-size="14" lengthAdjust="spacing" textLength="195.2002" x="504.17" y="554.4417">ProducerResponse Send(any)</text></g><!--class KafkaConsumerCofig--><g id="elem_KafkaConsumerCofig"><rect codeLine="37" fill="#F1F1F1" height="48" id="KafkaConsumerCofig" rx="2.5" ry="2.5" style="stroke:#181818;stroke-width:0.5;" width="175.541" x="835.23" y="488.66"/><ellipse cx="850.23" cy="504.66" fill="#F1F1F1" rx="11" ry="11" style="stroke:#181818;stroke-width:1.0;"/><path d="M849.9634,505.723 Q848.1123,505.0174 847.4566,504.2413 Q846.8008,503.4652 846.8008,502.1537 Q846.8008,500.4686 847.8799,499.5057 Q848.959,498.5428 850.8433,498.5428 Q851.6983,498.5428 852.5532,498.7379 Q853.4082,498.9329 854.2466,499.3148 L854.2466,501.7054 Q853.458,501.1493 852.6446,500.8587 Q851.8311,500.5682 851.0342,500.5682 Q850.146,500.5682 849.6729,500.9251 Q849.1997,501.2821 849.1997,501.9461 Q849.1997,502.4608 849.5442,502.797 Q849.8887,503.1331 850.9844,503.5399 L852.0386,503.9383 Q853.5327,504.4862 854.2383,505.391 Q854.9439,506.2957 854.9439,507.6737 Q854.9439,509.5496 853.8357,510.4752 Q852.7276,511.4007 850.4863,511.4007 Q849.565,511.4007 848.6394,511.1808 Q847.7139,510.9608 846.8506,510.5291 L846.8506,507.9974 Q847.8301,508.6947 848.7473,509.035 Q849.6646,509.3753 850.5611,509.3753 Q851.4658,509.3753 851.9639,508.9644 Q852.4619,508.5536 852.4619,507.8148 Q852.4619,507.2586 852.1299,506.8394 Q851.7979,506.4203 851.167,506.1795 Z " fill="#000000"/><text fill="#000000" font-family="sans-serif" font-size="14" lengthAdjust="spacing" textLength="143.541" x="864.23" y="509.951">KafkaConsumerCofig</text><line style="stroke:#181818;stroke-width:0.5;" x1="836.23" x2="1009.771" y1="520.66" y2="520.66"/><line style="stroke:#181818;stroke-width:0.5;" x1="836.23" x2="1009.771" y1="528.66" y2="528.66"/></g><!--class KafkaProducerConfig--><g id="elem_KafkaProducerConfig"><rect codeLine="38" fill="#F1F1F1" height="48" id="KafkaProducerConfig" rx="2.5" ry="2.5" style="stroke:#181818;stroke-width:0.5;" width="175.0967" x="662.45" y="347.69"/><ellipse cx="677.45" cy="363.69" fill="#F1F1F1" rx="11" ry="11" style="stroke:#181818;stroke-width:1.0;"/><path d="M677.1834,364.753 Q675.3323,364.0474 674.6766,363.2713 Q674.0208,362.4952 674.0208,361.1837 Q674.0208,359.4986 675.0999,358.5357 Q676.179,357.5728 678.0633,357.5728 Q678.9183,357.5728 679.7732,357.7679 Q680.6282,357.9629 681.4666,358.3448 L681.4666,360.7354 Q680.678,360.1793 679.8646,359.8887 Q679.0511,359.5982 678.2542,359.5982 Q677.366,359.5982 676.8929,359.9551 Q676.4197,360.3121 676.4197,360.9761 Q676.4197,361.4908 676.7642,361.827 Q677.1087,362.1631 678.2044,362.5699 L679.2586,362.9683 Q680.7527,363.5162 681.4583,364.421 Q682.1639,365.3257 682.1639,366.7037 Q682.1639,368.5796 681.0557,369.5052 Q679.9476,370.4307 677.7063,370.4307 Q676.785,370.4307 675.8594,370.2108 Q674.9339,369.9908 674.0706,369.5591 L674.0706,367.0274 Q675.0501,367.7247 675.9673,368.065 Q676.8846,368.4053 677.7811,368.4053 Q678.6858,368.4053 679.1839,367.9944 Q679.6819,367.5836 679.6819,366.8448 Q679.6819,366.2886 679.3499,365.8694 Q679.0179,365.4503 678.387,365.2095 Z " fill="#000000"/><text fill="#000000" font-family="sans-serif" font-size="14" lengthAdjust="spacing" textLength="143.0967" x="691.45" y="368.981">KafkaProducerConfig</text><line style="stroke:#181818;stroke-width:0.5;" x1="663.45" x2="836.5467" y1="379.69" y2="379.69"/><line style="stroke:#181818;stroke-width:0.5;" x1="663.45" x2="836.5467" y1="387.69" y2="387.69"/></g><!--reverse link Producer to KafkaProducer--><g id="link_Producer_KafkaProducer"><path codeLine="40" d="M524.5144,415.6144 C545.9644,433.1544 559.18,443.95 583.22,463.61 " fill="none" id="Producer-backto-KafkaProducer" style="stroke:#181818;stroke-width:1.0;"/><polygon fill="none" points="510.58,404.22,520.7163,420.2592,528.3125,410.9696,510.58,404.22" style="stroke:#181818;stroke-width:1.0;"/></g><!--reverse link ProducerInstance to KafkaProducer--><g id="link_ProducerInstance_KafkaProducer"><path codeLine="41" d="M615.8384,289.5361 C621.4184,336.8461 629.84,408.41 636.36,463.74 " fill="none" id="ProducerInstance-backto-KafkaProducer" style="stroke:#181818;stroke-width:1.0;"/><polygon fill="none" points="613.73,271.66,609.8797,290.2389,621.7971,288.8333,613.73,271.66" style="stroke:#181818;stroke-width:1.0;"/></g><!--reverse link Listener to KafkaListener--><g id="link_Listener_KafkaListener"><path codeLine="42" d="M148.6051,563.699 C177.3151,584.049 198.1,598.78 229.59,621.09 " fill="none" id="Listener-backto-KafkaListener" style="stroke:#181818;stroke-width:1.0;"/><polygon fill="none" points="133.92,553.29,145.1355,568.594,152.0748,558.804,133.92,553.29" style="stroke:#181818;stroke-width:1.0;"/></g><!--reverse link ProducerResponse to ProducersResponse--><g id="link_ProducerResponse_ProducersResponse"><path codeLine="43" d="M367.5169,146.6647 C344.7869,165.7847 328.15,179.79 306.49,198.01 " fill="none" id="ProducerResponse-backto-ProducersResponse" style="stroke:#181818;stroke-width:1.0;"/><polygon fill="#181818" points="376.7,138.94,369.5336,139.7413,367.5169,146.6647,374.6833,145.8634,376.7,138.94" style="stroke:#181818;stroke-width:1.0;"/></g><!--reverse link KafkaConsumerCofig to KafkaListener--><g id="link_KafkaConsumerCofig_KafkaListener"><path codeLine="44" d="M865.4361,542.1753 C847.2461,550.6653 836.9,554.72 817,561.4 C704.01,599.32 572.77,628.92 471.99,648.73 " fill="none" id="KafkaConsumerCofig-backto-KafkaListener" style="stroke:#181818;stroke-width:1.0;"/><polygon fill="#181818" points="876.31,537.1,869.1813,536.013,865.4361,542.1753,872.5648,543.2623,876.31,537.1" style="stroke:#181818;stroke-width:1.0;"/></g><!--reverse link KafkaProducerConfig to KafkaProducer--><g id="link_KafkaProducerConfig_KafkaProducer"><path codeLine="45" d="M724.557,405.4256 C710.267,423.8156 697.2,440.64 679.42,463.52 " fill="none" id="KafkaProducerConfig-backto-KafkaProducer" style="stroke:#181818;stroke-width:1.0;"/><polygon fill="#181818" points="731.92,395.95,725.08,398.2334,724.557,405.4256,731.397,403.1421,731.92,395.95" style="stroke:#181818;stroke-width:1.0;"/></g><!--reverse link Producers to KafkaListener--><g id="link_Producers_KafkaListener"><path codeLine="46" d="M309,565.29 C309,585.64 309,598.78 309,621.09 " fill="none" id="Producers-backto-KafkaListener" style="stroke:#181818;stroke-width:1.0;"/><polygon fill="#181818" points="309,553.29,305,559.29,309,565.29,313,559.29,309,553.29" style="stroke:#181818;stroke-width:1.0;"/></g><!--reverse link Producer to Producers--><g id="link_Producer_Producers"><path codeLine="47" d="M425.8806,412.008 C402.4006,432.038 380.94,450.33 355.77,471.78 " fill="none" id="Producer-backto-Producers" style="stroke:#181818;stroke-width:1.0;"/><polygon fill="#181818" points="435.01,404.22,427.8493,405.0709,425.8806,412.008,433.0413,411.1572,435.01,404.22" style="stroke:#181818;stroke-width:1.0;"/></g><!--reverse link ProducerResponse to ProducerInstance--><g id="link_ProducerResponse_ProducerInstance"><path codeLine="48" d="M500.8347,146.639 C527.3047,168.779 548.74,186.71 572.22,206.35 " fill="none" id="ProducerResponse-backto-ProducerInstance" style="stroke:#181818;stroke-width:1.0;"/><polygon fill="#181818" points="491.63,138.94,493.666,145.8577,500.8347,146.639,498.7987,139.7213,491.63,138.94" style="stroke:#181818;stroke-width:1.0;"/></g><!--reverse link ProducerInstance to Producer--><g id="link_ProducerInstance_Producer"><path codeLine="49" d="M567.8809,279.8554 C546.1909,300.4154 526.73,318.84 505.1,339.33 " fill="none" id="ProducerInstance-backto-Producer" style="stroke:#181818;stroke-width:1.0;"/><polygon fill="#181818" points="576.59,271.6,569.4836,272.8247,567.8809,279.8554,574.9872,278.6307,576.59,271.6" style="stroke:#181818;stroke-width:1.0;"/></g><!--SRC=[fLDBJiCm4Dtt5DuHGjCJL6mAGlmHEO7bJ5Ahn8di2G91xuwRdsFifAHaOKLZly-yiGNDGPMK0RcBdv-kFr1IXeKaNmkYlpFo1YaIB8ZasHP9mYKmv8MeTxb0aEa1-y0LWe0ETlWkG4hD4mDMPN3kbkKxjELzlIgK5KFo8ekaOY1VjQj2A1WmHbHyaeGYDPM6h5wDWZwsR6ha1l1A0wQ4b4yff-LQd-CYMpgEBadvg_98IwFkDA0z10tNq8N9hWFS2eLKiA4Fbom6aGIwmMag7qLFh_rq_vEv7Cl3vE3jNqrwRiNkQRgZdiiJ6HUTY3ARDMgZkQiSvAP8UKPsTadesdzlOgtYIJIoDXgjHj-kpHh1twSzT6TbCEgzjRDVM2zyrRUs_euY-_MlBFm8hkzc9huVznYkEp2YswSJEd3dxYqyzFR52MTvy8q-F2azDLEvdzP4rwS7ritosAZ76Nu0]--></g></svg>