<?xml version="1.0" encoding="us-ascii" standalone="no"?><svg xmlns="http://www.w3.org/2000/svg" xmlns:xlink="http://www.w3.org/1999/xlink" contentStyleType="text/css" height="1150px" preserveAspectRatio="none" style="width:1701px;height:1150px;background:#FFFFFF;" version="1.1" viewBox="0 0 1701 1150" width="1701px" zoomAndPan="magnify"><defs/><g><!--cluster JSONExtractor--><g id="cluster_JSONExtractor"><path d="M1137.5,757 L1247.5,757 A3.75,3.75 0 0 1 1250,759.5 L1257,779.2969 L1691.5,779.2969 A2.5,2.5 0 0 1 1694,781.7969 L1694,951.5 A2.5,2.5 0 0 1 1691.5,954 L1137.5,954 A2.5,2.5 0 0 1 1135,951.5 L1135,759.5 A2.5,2.5 0 0 1 1137.5,757 " fill="none" style="stroke:#000000;stroke-width:1.5;"/><line style="stroke:#000000;stroke-width:1.5;" x1="1135" x2="1257" y1="779.2969" y2="779.2969"/><text fill="#000000" font-family="sans-serif" font-size="14" font-weight="bold" lengthAdjust="spacing" textLength="109" x="1139" y="771.9951">JSONExtractor</text></g><!--cluster Server--><g id="cluster_Server"><path d="M8.5,6 L62.5,6 A3.75,3.75 0 0 1 65,8.5 L72,28.2969 L1108.5,28.2969 A2.5,2.5 0 0 1 1111,30.7969 L1111,1140.5 A2.5,2.5 0 0 1 1108.5,1143 L8.5,1143 A2.5,2.5 0 0 1 6,1140.5 L6,8.5 A2.5,2.5 0 0 1 8.5,6 " fill="none" style="stroke:#000000;stroke-width:1.5;"/><line style="stroke:#000000;stroke-width:1.5;" x1="6" x2="72" y1="28.2969" y2="28.2969"/><text fill="#000000" font-family="sans-serif" font-size="14" font-weight="bold" lengthAdjust="spacing" textLength="53" x="10" y="20.9951">Server</text></g><!--class JQTransformerConfig--><g id="elem_JQTransformerConfig"><rect codeLine="2" fill="#F1F1F1" height="80.5938" id="JQTransformerConfig" rx="2.5" ry="2.5" style="stroke:#181818;stroke-width:0.5;" width="263" x="1151.5" y="824.5"/><ellipse cx="1207.75" cy="840.5" fill="#F1F1F1" rx="11" ry="11" style="stroke:#181818;stroke-width:1.0;"/><path d="M1207.2344,841.0625 Q1205.375,840.3594 1204.7188,839.5938 Q1204.0781,838.8125 1204.0781,837.5 Q1204.0781,835.8125 1205.1563,834.8438 Q1206.2344,833.875 1208.1094,833.875 Q1208.9688,833.875 1209.8125,834.0781 Q1210.6719,834.2656 1211.5156,834.6563 L1211.5156,837.0469 Q1210.7344,836.4844 1209.9063,836.2031 Q1209.0938,835.9063 1208.2969,835.9063 Q1207.4219,835.9063 1206.9375,836.2656 Q1206.4688,836.625 1206.4688,837.2813 Q1206.4688,837.7969 1206.8125,838.1406 Q1207.1563,838.4688 1208.25,838.875 L1209.3125,839.2813 Q1210.7969,839.8281 1211.5,840.7344 Q1212.2188,841.6406 1212.2188,843.0156 Q1212.2188,844.8906 1211.1094,845.8125 Q1210,846.7344 1207.75,846.7344 Q1206.8281,846.7344 1205.9063,846.5156 Q1204.9844,846.2969 1204.125,845.875 L1204.125,843.3438 Q1205.0938,844.0313 1206.0156,844.375 Q1206.9375,844.7188 1207.8281,844.7188 Q1208.7344,844.7188 1209.2344,844.3125 Q1209.7344,843.8906 1209.7344,843.1563 Q1209.7344,842.5938 1209.3906,842.1875 Q1209.0625,841.7656 1208.4375,841.5156 L1207.2344,841.0625 Z " fill="#000000"/><text fill="#000000" font-family="sans-serif" font-size="14" lengthAdjust="spacing" textLength="142" x="1228.25" y="845.3467">JQTransformerConfig</text><line style="stroke:#181818;stroke-width:0.5;" x1="1152.5" x2="1413.5" y1="856.5" y2="856.5"/><ellipse cx="1162.5" cy="870.1484" fill="none" rx="3" ry="3" style="stroke:#038048;stroke-width:1.0;"/><text fill="#000000" font-family="sans-serif" font-size="14" lengthAdjust="spacing" textLength="225" x="1171.5" y="873.4951">map[string]string JQQueryStrings</text><line style="stroke:#181818;stroke-width:0.5;" x1="1152.5" x2="1413.5" y1="880.7969" y2="880.7969"/><ellipse cx="1162.5" cy="894.4453" fill="#84BE84" rx="3" ry="3" style="stroke:#038048;stroke-width:1.0;"/><text fill="#000000" font-family="sans-serif" font-size="14" lengthAdjust="spacing" textLength="237" x="1171.5" y="897.792">error IngestConfig(map[string]any)</text></g><!--class JQTransformer--><g id="elem_JQTransformer"><rect codeLine="6" fill="#F1F1F1" height="145.7813" id="JQTransformer" rx="2.5" ry="2.5" style="stroke:#181818;stroke-width:0.5;" width="228" x="1450" y="792"/><ellipse cx="1510.75" cy="808" fill="#F1F1F1" rx="11" ry="11" style="stroke:#181818;stroke-width:1.0;"/><path d="M1510.2344,808.5625 Q1508.375,807.8594 1507.7188,807.0938 Q1507.0781,806.3125 1507.0781,805 Q1507.0781,803.3125 1508.1563,802.3438 Q1509.2344,801.375 1511.1094,801.375 Q1511.9688,801.375 1512.8125,801.5781 Q1513.6719,801.7656 1514.5156,802.1563 L1514.5156,804.5469 Q1513.7344,803.9844 1512.9063,803.7031 Q1512.0938,803.4063 1511.2969,803.4063 Q1510.4219,803.4063 1509.9375,803.7656 Q1509.4688,804.125 1509.4688,804.7813 Q1509.4688,805.2969 1509.8125,805.6406 Q1510.1563,805.9688 1511.25,806.375 L1512.3125,806.7813 Q1513.7969,807.3281 1514.5,808.2344 Q1515.2188,809.1406 1515.2188,810.5156 Q1515.2188,812.3906 1514.1094,813.3125 Q1513,814.2344 1510.75,814.2344 Q1509.8281,814.2344 1508.9063,814.0156 Q1507.9844,813.7969 1507.125,813.375 L1507.125,810.8438 Q1508.0938,811.5313 1509.0156,811.875 Q1509.9375,812.2188 1510.8281,812.2188 Q1511.7344,812.2188 1512.2344,811.8125 Q1512.7344,811.3906 1512.7344,810.6563 Q1512.7344,810.0938 1512.3906,809.6875 Q1512.0625,809.2656 1511.4375,809.0156 L1510.2344,808.5625 Z " fill="#000000"/><text fill="#000000" font-family="sans-serif" font-size="14" lengthAdjust="spacing" textLength="98" x="1531.25" y="812.8467">JQTransformer</text><line style="stroke:#181818;stroke-width:0.5;" x1="1451" x2="1677" y1="824" y2="824"/><rect fill="none" height="6" style="stroke:#C82930;stroke-width:1.0;" width="6" x="1458" y="834.6484"/><text fill="#000000" font-family="sans-serif" font-size="14" lengthAdjust="spacing" textLength="145" x="1470" y="840.9951">gojq.Code jqProgram</text><rect fill="none" height="6" style="stroke:#C82930;stroke-width:1.0;" width="6" x="1458" y="850.9453"/><text fill="#000000" font-family="sans-serif" font-size="14" lengthAdjust="spacing" textLength="132" x="1470" y="857.292">Pushable pushable</text><line style="stroke:#181818;stroke-width:0.5;" x1="1451" x2="1677" y1="864.5938" y2="864.5938"/><ellipse cx="1461" cy="878.2422" fill="#84BE84" rx="3" ry="3" style="stroke:#038048;stroke-width:1.0;"/><text fill="#000000" font-family="sans-serif" font-size="14" lengthAdjust="spacing" textLength="202" x="1470" y="881.5889">error AddPushable(Pushable)</text><ellipse cx="1461" cy="894.5391" fill="#84BE84" rx="3" ry="3" style="stroke:#038048;stroke-width:1.0;"/><text fill="#000000" font-family="sans-serif" font-size="14" lengthAdjust="spacing" textLength="167" x="1470" y="897.8857">error SendTo(*AppData)</text><ellipse cx="1461" cy="910.8359" fill="#84BE84" rx="3" ry="3" style="stroke:#038048;stroke-width:1.0;"/><text fill="#000000" font-family="sans-serif" font-size="14" lengthAdjust="spacing" textLength="86" x="1470" y="914.1826">error Serve()</text><ellipse cx="1461" cy="927.1328" fill="#84BE84" rx="3" ry="3" style="stroke:#038048;stroke-width:1.0;"/><text fill="#000000" font-family="sans-serif" font-size="14" lengthAdjust="spacing" textLength="132" x="1470" y="930.4795">error Setup(Config)</text></g><!--class CompletionHandler--><g id="elem_CompletionHandler"><rect codeLine="16" fill="#F1F1F1" height="64.2969" id="CompletionHandler" rx="2.5" ry="2.5" style="stroke:#181818;stroke-width:0.5;" width="205" x="619.5" y="41"/><ellipse cx="652.95" cy="57" fill="#B4A7E5" rx="11" ry="11" style="stroke:#181818;stroke-width:1.0;"/><path d="M648.8719,52.7656 L648.8719,50.6094 L656.2625,50.6094 L656.2625,52.7656 L653.7938,52.7656 L653.7938,60.8438 L656.2625,60.8438 L656.2625,63 L648.8719,63 L648.8719,60.8438 L651.3406,60.8438 L651.3406,52.7656 L648.8719,52.7656 Z " fill="#000000"/><text fill="#000000" font-family="sans-serif" font-size="14" font-style="italic" lengthAdjust="spacing" textLength="132" x="671.05" y="61.8467">CompletionHandler</text><line style="stroke:#181818;stroke-width:0.5;" x1="620.5" x2="823.5" y1="73" y2="73"/><line style="stroke:#181818;stroke-width:0.5;" x1="620.5" x2="823.5" y1="81" y2="81"/><ellipse cx="630.5" cy="94.6484" fill="#84BE84" rx="3" ry="3" style="stroke:#038048;stroke-width:1.0;"/><text fill="#000000" font-family="sans-serif" font-size="14" lengthAdjust="spacing" textLength="179" x="639.5" y="97.9951">error Complete(any, error)</text></g><!--class WaitGroupCompletionHandler--><g id="elem_WaitGroupCompletionHandler"><rect codeLine="19" fill="#F1F1F1" height="129.4844" id="WaitGroupCompletionHandler" rx="2.5" ry="2.5" style="stroke:#181818;stroke-width:0.5;" width="236" x="445" y="165"/><ellipse cx="460" cy="181" fill="#F1F1F1" rx="11" ry="11" style="stroke:#181818;stroke-width:1.0;"/><path d="M459.4844,181.5625 Q457.625,180.8594 456.9688,180.0938 Q456.3281,179.3125 456.3281,178 Q456.3281,176.3125 457.4063,175.3438 Q458.4844,174.375 460.3594,174.375 Q461.2188,174.375 462.0625,174.5781 Q462.9219,174.7656 463.7656,175.1563 L463.7656,177.5469 Q462.9844,176.9844 462.1563,176.7031 Q461.3438,176.4063 460.5469,176.4063 Q459.6719,176.4063 459.1875,176.7656 Q458.7188,177.125 458.7188,177.7813 Q458.7188,178.2969 459.0625,178.6406 Q459.4063,178.9688 460.5,179.375 L461.5625,179.7813 Q463.0469,180.3281 463.75,181.2344 Q464.4688,182.1406 464.4688,183.5156 Q464.4688,185.3906 463.3594,186.3125 Q462.25,187.2344 460,187.2344 Q459.0781,187.2344 458.1563,187.0156 Q457.2344,186.7969 456.375,186.375 L456.375,183.8438 Q457.3438,184.5313 458.2656,184.875 Q459.1875,185.2188 460.0781,185.2188 Q460.9844,185.2188 461.4844,184.8125 Q461.9844,184.3906 461.9844,183.6563 Q461.9844,183.0938 461.6406,182.6875 Q461.3125,182.2656 460.6875,182.0156 L459.4844,181.5625 Z " fill="#000000"/><text fill="#000000" font-family="sans-serif" font-size="14" lengthAdjust="spacing" textLength="204" x="474" y="185.8467">WaitGroupCompletionHandler</text><line style="stroke:#181818;stroke-width:0.5;" x1="446" x2="680" y1="197" y2="197"/><rect fill="none" height="6" style="stroke:#C82930;stroke-width:1.0;" width="6" x="453" y="207.6484"/><text fill="#000000" font-family="sans-serif" font-size="14" lengthAdjust="spacing" textLength="132" x="465" y="213.9951">sync.WaitGroup wg</text><rect fill="none" height="6" style="stroke:#C82930;stroke-width:1.0;" width="6" x="453" y="223.9453"/><text fill="#000000" font-family="sans-serif" font-size="14" lengthAdjust="spacing" textLength="58" x="465" y="230.292">any data</text><rect fill="none" height="6" style="stroke:#C82930;stroke-width:1.0;" width="6" x="453" y="240.2422"/><text fill="#000000" font-family="sans-serif" font-size="14" lengthAdjust="spacing" textLength="70" x="465" y="246.5889">error error</text><rect fill="none" height="6" style="stroke:#C82930;stroke-width:1.0;" width="6" x="453" y="256.5391"/><text fill="#000000" font-family="sans-serif" font-size="14" lengthAdjust="spacing" textLength="112" x="465" y="262.8857">bool isComplete</text><line style="stroke:#181818;stroke-width:0.5;" x1="446" x2="680" y1="270.1875" y2="270.1875"/><ellipse cx="456" cy="283.8359" fill="#84BE84" rx="3" ry="3" style="stroke:#038048;stroke-width:1.0;"/><text fill="#000000" font-family="sans-serif" font-size="14" lengthAdjust="spacing" textLength="179" x="465" y="287.1826">error Complete(any, error)</text></g><!--class AppData--><g id="elem_AppData"><rect codeLine="26" fill="#F1F1F1" height="113.1875" id="AppData" rx="2.5" ry="2.5" style="stroke:#181818;stroke-width:0.5;" width="329" x="716.5" y="173"/><ellipse cx="847.25" cy="189" fill="#F1F1F1" rx="11" ry="11" style="stroke:#181818;stroke-width:1.0;"/><path d="M846.7344,189.5625 Q844.875,188.8594 844.2188,188.0938 Q843.5781,187.3125 843.5781,186 Q843.5781,184.3125 844.6563,183.3438 Q845.7344,182.375 847.6094,182.375 Q848.4688,182.375 849.3125,182.5781 Q850.1719,182.7656 851.0156,183.1563 L851.0156,185.5469 Q850.2344,184.9844 849.4063,184.7031 Q848.5938,184.4063 847.7969,184.4063 Q846.9219,184.4063 846.4375,184.7656 Q845.9688,185.125 845.9688,185.7813 Q845.9688,186.2969 846.3125,186.6406 Q846.6563,186.9688 847.75,187.375 L848.8125,187.7813 Q850.2969,188.3281 851,189.2344 Q851.7188,190.1406 851.7188,191.5156 Q851.7188,193.3906 850.6094,194.3125 Q849.5,195.2344 847.25,195.2344 Q846.3281,195.2344 845.4063,195.0156 Q844.4844,194.7969 843.625,194.375 L843.625,191.8438 Q844.5938,192.5313 845.5156,192.875 Q846.4375,193.2188 847.3281,193.2188 Q848.2344,193.2188 848.7344,192.8125 Q849.2344,192.3906 849.2344,191.6563 Q849.2344,191.0938 848.8906,190.6875 Q848.5625,190.2656 847.9375,190.0156 L846.7344,189.5625 Z " fill="#000000"/><text fill="#000000" font-family="sans-serif" font-size="14" lengthAdjust="spacing" textLength="59" x="867.75" y="193.8467">AppData</text><line style="stroke:#181818;stroke-width:0.5;" x1="717.5" x2="1044.5" y1="205" y2="205"/><rect fill="none" height="6" style="stroke:#C82930;stroke-width:1.0;" width="6" x="724.5" y="215.6484"/><text fill="#000000" font-family="sans-serif" font-size="14" lengthAdjust="spacing" textLength="58" x="736.5" y="221.9951">any data</text><ellipse cx="727.5" cy="234.9453" fill="none" rx="3" ry="3" style="stroke:#038048;stroke-width:1.0;"/><text fill="#000000" font-family="sans-serif" font-size="14" lengthAdjust="spacing" textLength="266" x="736.5" y="238.292">CompletionHandler completionHandler</text><line style="stroke:#181818;stroke-width:0.5;" x1="717.5" x2="1044.5" y1="245.5938" y2="245.5938"/><ellipse cx="727.5" cy="259.2422" fill="#84BE84" rx="3" ry="3" style="stroke:#038048;stroke-width:1.0;"/><text fill="#000000" font-family="sans-serif" font-size="14" lengthAdjust="spacing" textLength="95" x="736.5" y="262.5889">any GetData()</text><ellipse cx="727.5" cy="275.5391" fill="#84BE84" rx="3" ry="3" style="stroke:#038048;stroke-width:1.0;"/><text fill="#000000" font-family="sans-serif" font-size="14" lengthAdjust="spacing" textLength="303" x="736.5" y="278.8857">CompletionHandler GetCompletionHandler()</text></g><!--class Server--><g id="elem_Server"><rect codeLine="32" fill="#F1F1F1" height="80.5938" id="Server" rx="2.5" ry="2.5" style="stroke:#181818;stroke-width:0.5;" width="158" x="441" y="478"/><ellipse cx="493.75" cy="494" fill="#B4A7E5" rx="11" ry="11" style="stroke:#181818;stroke-width:1.0;"/><path d="M489.6719,489.7656 L489.6719,487.6094 L497.0625,487.6094 L497.0625,489.7656 L494.5938,489.7656 L494.5938,497.8438 L497.0625,497.8438 L497.0625,500 L489.6719,500 L489.6719,497.8438 L492.1406,497.8438 L492.1406,489.7656 L489.6719,489.7656 Z " fill="#000000"/><text fill="#000000" font-family="sans-serif" font-size="14" font-style="italic" lengthAdjust="spacing" textLength="44" x="514.25" y="498.8467">Server</text><line style="stroke:#181818;stroke-width:0.5;" x1="442" x2="598" y1="510" y2="510"/><line style="stroke:#181818;stroke-width:0.5;" x1="442" x2="598" y1="518" y2="518"/><ellipse cx="452" cy="531.6484" fill="#84BE84" rx="3" ry="3" style="stroke:#038048;stroke-width:1.0;"/><text fill="#000000" font-family="sans-serif" font-size="14" lengthAdjust="spacing" textLength="86" x="461" y="534.9951">error Serve()</text><ellipse cx="452" cy="547.9453" fill="#84BE84" rx="3" ry="3" style="stroke:#038048;stroke-width:1.0;"/><text fill="#000000" font-family="sans-serif" font-size="14" lengthAdjust="spacing" textLength="132" x="461" y="551.292">error Setup(Config)</text></g><!--class Pullable--><g id="elem_Pullable"><rect codeLine="36" fill="#F1F1F1" height="64.2969" id="Pullable" rx="2.5" ry="2.5" style="stroke:#181818;stroke-width:0.5;" width="228" x="717" y="486.5"/><ellipse cx="800.25" cy="502.5" fill="#B4A7E5" rx="11" ry="11" style="stroke:#181818;stroke-width:1.0;"/><path d="M796.1719,498.2656 L796.1719,496.1094 L803.5625,496.1094 L803.5625,498.2656 L801.0938,498.2656 L801.0938,506.3438 L803.5625,506.3438 L803.5625,508.5 L796.1719,508.5 L796.1719,506.3438 L798.6406,506.3438 L798.6406,498.2656 L796.1719,498.2656 Z " fill="#000000"/><text fill="#000000" font-family="sans-serif" font-size="14" font-style="italic" lengthAdjust="spacing" textLength="53" x="820.75" y="507.3467">Pullable</text><line style="stroke:#181818;stroke-width:0.5;" x1="718" x2="944" y1="518.5" y2="518.5"/><line style="stroke:#181818;stroke-width:0.5;" x1="718" x2="944" y1="526.5" y2="526.5"/><ellipse cx="728" cy="540.1484" fill="#84BE84" rx="3" ry="3" style="stroke:#038048;stroke-width:1.0;"/><text fill="#000000" font-family="sans-serif" font-size="14" lengthAdjust="spacing" textLength="202" x="737" y="543.4951">error AddPushable(Pushable)</text></g><!--class Pushable--><g id="elem_Pushable"><rect codeLine="39" fill="#F1F1F1" height="64.2969" id="Pushable" rx="2.5" ry="2.5" style="stroke:#181818;stroke-width:0.5;" width="193" x="784.5" y="354"/><ellipse cx="844.75" cy="370" fill="#B4A7E5" rx="11" ry="11" style="stroke:#181818;stroke-width:1.0;"/><path d="M840.6719,365.7656 L840.6719,363.6094 L848.0625,363.6094 L848.0625,365.7656 L845.5938,365.7656 L845.5938,373.8438 L848.0625,373.8438 L848.0625,376 L840.6719,376 L840.6719,373.8438 L843.1406,373.8438 L843.1406,365.7656 L840.6719,365.7656 Z " fill="#000000"/><text fill="#000000" font-family="sans-serif" font-size="14" font-style="italic" lengthAdjust="spacing" textLength="64" x="865.25" y="374.8467">Pushable</text><line style="stroke:#181818;stroke-width:0.5;" x1="785.5" x2="976.5" y1="386" y2="386"/><line style="stroke:#181818;stroke-width:0.5;" x1="785.5" x2="976.5" y1="394" y2="394"/><ellipse cx="795.5" cy="407.6484" fill="#84BE84" rx="3" ry="3" style="stroke:#038048;stroke-width:1.0;"/><text fill="#000000" font-family="sans-serif" font-size="14" lengthAdjust="spacing" textLength="167" x="804.5" y="410.9951">error SendTo(*AppData)</text></g><!--class SourceServer--><g id="elem_SourceServer"><rect codeLine="42" fill="#F1F1F1" height="96.8906" id="SourceServer" rx="2.5" ry="2.5" style="stroke:#181818;stroke-width:0.5;" width="228" x="604" y="627"/><ellipse cx="667.25" cy="643" fill="#B4A7E5" rx="11" ry="11" style="stroke:#181818;stroke-width:1.0;"/><path d="M663.1719,638.7656 L663.1719,636.6094 L670.5625,636.6094 L670.5625,638.7656 L668.0938,638.7656 L668.0938,646.8438 L670.5625,646.8438 L670.5625,649 L663.1719,649 L663.1719,646.8438 L665.6406,646.8438 L665.6406,638.7656 L663.1719,638.7656 Z " fill="#000000"/><text fill="#000000" font-family="sans-serif" font-size="14" font-style="italic" lengthAdjust="spacing" textLength="93" x="687.75" y="647.8467">SourceServer</text><line style="stroke:#181818;stroke-width:0.5;" x1="605" x2="831" y1="659" y2="659"/><line style="stroke:#181818;stroke-width:0.5;" x1="605" x2="831" y1="667" y2="667"/><ellipse cx="615" cy="680.6484" fill="#84BE84" rx="3" ry="3" style="stroke:#038048;stroke-width:1.0;"/><text fill="#000000" font-family="sans-serif" font-size="14" lengthAdjust="spacing" textLength="202" x="624" y="683.9951">error AddPushable(Pushable)</text><ellipse cx="615" cy="696.9453" fill="#84BE84" rx="3" ry="3" style="stroke:#038048;stroke-width:1.0;"/><text fill="#000000" font-family="sans-serif" font-size="14" lengthAdjust="spacing" textLength="86" x="624" y="700.292">error Serve()</text><ellipse cx="615" cy="713.2422" fill="#84BE84" rx="3" ry="3" style="stroke:#038048;stroke-width:1.0;"/><text fill="#000000" font-family="sans-serif" font-size="14" lengthAdjust="spacing" textLength="132" x="624" y="716.5889">error Setup(Config)</text></g><!--class SinkServer--><g id="elem_SinkServer"><rect codeLine="47" fill="#F1F1F1" height="96.8906" id="SinkServer" rx="2.5" ry="2.5" style="stroke:#181818;stroke-width:0.5;" width="193" x="77.5" y="627"/><ellipse cx="133.25" cy="643" fill="#B4A7E5" rx="11" ry="11" style="stroke:#181818;stroke-width:1.0;"/><path d="M129.1719,638.7656 L129.1719,636.6094 L136.5625,636.6094 L136.5625,638.7656 L134.0938,638.7656 L134.0938,646.8438 L136.5625,646.8438 L136.5625,649 L129.1719,649 L129.1719,646.8438 L131.6406,646.8438 L131.6406,638.7656 L129.1719,638.7656 Z " fill="#000000"/><text fill="#000000" font-family="sans-serif" font-size="14" font-style="italic" lengthAdjust="spacing" textLength="73" x="153.75" y="647.8467">SinkServer</text><line style="stroke:#181818;stroke-width:0.5;" x1="78.5" x2="269.5" y1="659" y2="659"/><line style="stroke:#181818;stroke-width:0.5;" x1="78.5" x2="269.5" y1="667" y2="667"/><ellipse cx="88.5" cy="680.6484" fill="#84BE84" rx="3" ry="3" style="stroke:#038048;stroke-width:1.0;"/><text fill="#000000" font-family="sans-serif" font-size="14" lengthAdjust="spacing" textLength="167" x="97.5" y="683.9951">error SendTo(*AppData)</text><ellipse cx="88.5" cy="696.9453" fill="#84BE84" rx="3" ry="3" style="stroke:#038048;stroke-width:1.0;"/><text fill="#000000" font-family="sans-serif" font-size="14" lengthAdjust="spacing" textLength="86" x="97.5" y="700.292">error Serve()</text><ellipse cx="88.5" cy="713.2422" fill="#84BE84" rx="3" ry="3" style="stroke:#038048;stroke-width:1.0;"/><text fill="#000000" font-family="sans-serif" font-size="14" lengthAdjust="spacing" textLength="132" x="97.5" y="716.5889">error Setup(Config)</text></g><!--class PipeServer--><g id="elem_PipeServer"><rect codeLine="52" fill="#F1F1F1" height="113.1875" id="PipeServer" rx="2.5" ry="2.5" style="stroke:#181818;stroke-width:0.5;" width="228" x="867" y="619"/><ellipse cx="939.75" cy="635" fill="#B4A7E5" rx="11" ry="11" style="stroke:#181818;stroke-width:1.0;"/><path d="M935.6719,630.7656 L935.6719,628.6094 L943.0625,628.6094 L943.0625,630.7656 L940.5938,630.7656 L940.5938,638.8438 L943.0625,638.8438 L943.0625,641 L935.6719,641 L935.6719,638.8438 L938.1406,638.8438 L938.1406,630.7656 L935.6719,630.7656 Z " fill="#000000"/><text fill="#000000" font-family="sans-serif" font-size="14" font-style="italic" lengthAdjust="spacing" textLength="74" x="960.25" y="639.8467">PipeServer</text><line style="stroke:#181818;stroke-width:0.5;" x1="868" x2="1094" y1="651" y2="651"/><line style="stroke:#181818;stroke-width:0.5;" x1="868" x2="1094" y1="659" y2="659"/><ellipse cx="878" cy="672.6484" fill="#84BE84" rx="3" ry="3" style="stroke:#038048;stroke-width:1.0;"/><text fill="#000000" font-family="sans-serif" font-size="14" lengthAdjust="spacing" textLength="202" x="887" y="675.9951">error AddPushable(Pushable)</text><ellipse cx="878" cy="688.9453" fill="#84BE84" rx="3" ry="3" style="stroke:#038048;stroke-width:1.0;"/><text fill="#000000" font-family="sans-serif" font-size="14" lengthAdjust="spacing" textLength="167" x="887" y="692.292">error SendTo(*AppData)</text><ellipse cx="878" cy="705.2422" fill="#84BE84" rx="3" ry="3" style="stroke:#038048;stroke-width:1.0;"/><text fill="#000000" font-family="sans-serif" font-size="14" lengthAdjust="spacing" textLength="86" x="887" y="708.5889">error Serve()</text><ellipse cx="878" cy="721.5391" fill="#84BE84" rx="3" ry="3" style="stroke:#038048;stroke-width:1.0;"/><text fill="#000000" font-family="sans-serif" font-size="14" lengthAdjust="spacing" textLength="132" x="887" y="724.8857">error Setup(Config)</text></g><!--class Producer--><g id="elem_Producer"><rect codeLine="58" fill="#F1F1F1" height="96.8906" id="Producer" rx="2.5" ry="2.5" style="stroke:#181818;stroke-width:0.5;" width="193" x="340.5" y="816.5"/><ellipse cx="401.25" cy="832.5" fill="#B4A7E5" rx="11" ry="11" style="stroke:#181818;stroke-width:1.0;"/><path d="M397.1719,828.2656 L397.1719,826.1094 L404.5625,826.1094 L404.5625,828.2656 L402.0938,828.2656 L402.0938,836.3438 L404.5625,836.3438 L404.5625,838.5 L397.1719,838.5 L397.1719,836.3438 L399.6406,836.3438 L399.6406,828.2656 L397.1719,828.2656 Z " fill="#000000"/><text fill="#000000" font-family="sans-serif" font-size="14" font-style="italic" lengthAdjust="spacing" textLength="63" x="421.75" y="837.3467">Producer</text><line style="stroke:#181818;stroke-width:0.5;" x1="341.5" x2="532.5" y1="848.5" y2="848.5"/><line style="stroke:#181818;stroke-width:0.5;" x1="341.5" x2="532.5" y1="856.5" y2="856.5"/><ellipse cx="351.5" cy="870.1484" fill="#84BE84" rx="3" ry="3" style="stroke:#038048;stroke-width:1.0;"/><text fill="#000000" font-family="sans-serif" font-size="14" lengthAdjust="spacing" textLength="167" x="360.5" y="873.4951">error SendTo(*AppData)</text><ellipse cx="351.5" cy="886.4453" fill="#84BE84" rx="3" ry="3" style="stroke:#038048;stroke-width:1.0;"/><text fill="#000000" font-family="sans-serif" font-size="14" lengthAdjust="spacing" textLength="86" x="360.5" y="889.792">error Serve()</text><ellipse cx="351.5" cy="902.7422" fill="#84BE84" rx="3" ry="3" style="stroke:#038048;stroke-width:1.0;"/><text fill="#000000" font-family="sans-serif" font-size="14" lengthAdjust="spacing" textLength="132" x="360.5" y="906.0889">error Setup(Config)</text></g><!--class HTTPProducer--><g id="elem_HTTPProducer"><rect codeLine="63" fill="#F1F1F1" height="129.4844" id="HTTPProducer" rx="2.5" ry="2.5" style="stroke:#181818;stroke-width:0.5;" width="216" x="460" y="998"/><ellipse cx="513.75" cy="1014" fill="#F1F1F1" rx="11" ry="11" style="stroke:#181818;stroke-width:1.0;"/><path d="M513.2344,1014.5625 Q511.375,1013.8594 510.7188,1013.0938 Q510.0781,1012.3125 510.0781,1011 Q510.0781,1009.3125 511.1563,1008.3438 Q512.2344,1007.375 514.1094,1007.375 Q514.9688,1007.375 515.8125,1007.5781 Q516.6719,1007.7656 517.5156,1008.1563 L517.5156,1010.5469 Q516.7344,1009.9844 515.9063,1009.7031 Q515.0938,1009.4063 514.2969,1009.4063 Q513.4219,1009.4063 512.9375,1009.7656 Q512.4688,1010.125 512.4688,1010.7813 Q512.4688,1011.2969 512.8125,1011.6406 Q513.1563,1011.9688 514.25,1012.375 L515.3125,1012.7813 Q516.7969,1013.3281 517.5,1014.2344 Q518.2188,1015.1406 518.2188,1016.5156 Q518.2188,1018.3906 517.1094,1019.3125 Q516,1020.2344 513.75,1020.2344 Q512.8281,1020.2344 511.9063,1020.0156 Q510.9844,1019.7969 510.125,1019.375 L510.125,1016.8438 Q511.0938,1017.5313 512.0156,1017.875 Q512.9375,1018.2188 513.8281,1018.2188 Q514.7344,1018.2188 515.2344,1017.8125 Q515.7344,1017.3906 515.7344,1016.6563 Q515.7344,1016.0938 515.3906,1015.6875 Q515.0625,1015.2656 514.4375,1015.0156 L513.2344,1014.5625 Z " fill="#000000"/><text fill="#000000" font-family="sans-serif" font-size="14" lengthAdjust="spacing" textLength="100" x="534.25" y="1018.8467">HTTPProducer</text><line style="stroke:#181818;stroke-width:0.5;" x1="461" x2="675" y1="1030" y2="1030"/><rect fill="none" height="6" style="stroke:#C82930;stroke-width:1.0;" width="6" x="468" y="1040.6484"/><text fill="#000000" font-family="sans-serif" font-size="14" lengthAdjust="spacing" textLength="190" x="480" y="1046.9951">HTTPProducerConfig config</text><rect fill="none" height="6" style="stroke:#C82930;stroke-width:1.0;" width="6" x="468" y="1056.9453"/><text fill="#000000" font-family="sans-serif" font-size="14" lengthAdjust="spacing" textLength="142" x="480" y="1063.292">http.Client httpClient</text><line style="stroke:#181818;stroke-width:0.5;" x1="461" x2="675" y1="1070.5938" y2="1070.5938"/><ellipse cx="471" cy="1084.2422" fill="#84BE84" rx="3" ry="3" style="stroke:#038048;stroke-width:1.0;"/><text fill="#000000" font-family="sans-serif" font-size="14" lengthAdjust="spacing" textLength="167" x="480" y="1087.5889">error SendTo(*AppData)</text><ellipse cx="471" cy="1100.5391" fill="#84BE84" rx="3" ry="3" style="stroke:#038048;stroke-width:1.0;"/><text fill="#000000" font-family="sans-serif" font-size="14" lengthAdjust="spacing" textLength="86" x="480" y="1103.8857">error Serve()</text><ellipse cx="471" cy="1116.8359" fill="#84BE84" rx="3" ry="3" style="stroke:#038048;stroke-width:1.0;"/><text fill="#000000" font-family="sans-serif" font-size="14" lengthAdjust="spacing" textLength="132" x="480" y="1120.1826">error Setup(Config)</text></g><!--class Consumer--><g id="elem_Consumer"><rect codeLine="70" fill="#F1F1F1" height="96.8906" id="Consumer" rx="2.5" ry="2.5" style="stroke:#181818;stroke-width:0.5;" width="228" x="867" y="816.5"/><ellipse cx="940.75" cy="832.5" fill="#B4A7E5" rx="11" ry="11" style="stroke:#181818;stroke-width:1.0;"/><path d="M936.6719,828.2656 L936.6719,826.1094 L944.0625,826.1094 L944.0625,828.2656 L941.5938,828.2656 L941.5938,836.3438 L944.0625,836.3438 L944.0625,838.5 L936.6719,838.5 L936.6719,836.3438 L939.1406,836.3438 L939.1406,828.2656 L936.6719,828.2656 Z " fill="#000000"/><text fill="#000000" font-family="sans-serif" font-size="14" font-style="italic" lengthAdjust="spacing" textLength="72" x="961.25" y="837.3467">Consumer</text><line style="stroke:#181818;stroke-width:0.5;" x1="868" x2="1094" y1="848.5" y2="848.5"/><line style="stroke:#181818;stroke-width:0.5;" x1="868" x2="1094" y1="856.5" y2="856.5"/><ellipse cx="878" cy="870.1484" fill="#84BE84" rx="3" ry="3" style="stroke:#038048;stroke-width:1.0;"/><text fill="#000000" font-family="sans-serif" font-size="14" lengthAdjust="spacing" textLength="202" x="887" y="873.4951">error AddPushable(Pushable)</text><ellipse cx="878" cy="886.4453" fill="#84BE84" rx="3" ry="3" style="stroke:#038048;stroke-width:1.0;"/><text fill="#000000" font-family="sans-serif" font-size="14" lengthAdjust="spacing" textLength="86" x="887" y="889.792">error Serve()</text><ellipse cx="878" cy="902.7422" fill="#84BE84" rx="3" ry="3" style="stroke:#038048;stroke-width:1.0;"/><text fill="#000000" font-family="sans-serif" font-size="14" lengthAdjust="spacing" textLength="132" x="887" y="906.0889">error Setup(Config)</text></g><!--class MapSinkServer--><g id="elem_MapSinkServer"><rect codeLine="75" fill="#F1F1F1" height="113.1875" id="MapSinkServer" rx="2.5" ry="2.5" style="stroke:#181818;stroke-width:0.5;" width="283" x="22.5" y="808.5"/><ellipse cx="108.75" cy="824.5" fill="#F1F1F1" rx="11" ry="11" style="stroke:#181818;stroke-width:1.0;"/><path d="M108.2344,825.0625 Q106.375,824.3594 105.7188,823.5938 Q105.0781,822.8125 105.0781,821.5 Q105.0781,819.8125 106.1563,818.8438 Q107.2344,817.875 109.1094,817.875 Q109.9688,817.875 110.8125,818.0781 Q111.6719,818.2656 112.5156,818.6563 L112.5156,821.0469 Q111.7344,820.4844 110.9063,820.2031 Q110.0938,819.9063 109.2969,819.9063 Q108.4219,819.9063 107.9375,820.2656 Q107.4688,820.625 107.4688,821.2813 Q107.4688,821.7969 107.8125,822.1406 Q108.1563,822.4688 109.25,822.875 L110.3125,823.2813 Q111.7969,823.8281 112.5,824.7344 Q113.2188,825.6406 113.2188,827.0156 Q113.2188,828.8906 112.1094,829.8125 Q111,830.7344 108.75,830.7344 Q107.8281,830.7344 106.9063,830.5156 Q105.9844,830.2969 105.125,829.875 L105.125,827.3438 Q106.0938,828.0313 107.0156,828.375 Q107.9375,828.7188 108.8281,828.7188 Q109.7344,828.7188 110.2344,828.3125 Q110.7344,827.8906 110.7344,827.1563 Q110.7344,826.5938 110.3906,826.1875 Q110.0625,825.7656 109.4375,825.5156 L108.2344,825.0625 Z " fill="#000000"/><text fill="#000000" font-family="sans-serif" font-size="14" lengthAdjust="spacing" textLength="102" x="129.25" y="829.3467">MapSinkServer</text><line style="stroke:#181818;stroke-width:0.5;" x1="23.5" x2="304.5" y1="840.5" y2="840.5"/><rect fill="none" height="6" style="stroke:#C82930;stroke-width:1.0;" width="6" x="30.5" y="851.1484"/><text fill="#000000" font-family="sans-serif" font-size="14" lengthAdjust="spacing" textLength="257" x="42.5" y="857.4951">map[string]SinkServer sinkServerMap</text><line style="stroke:#181818;stroke-width:0.5;" x1="23.5" x2="304.5" y1="864.7969" y2="864.7969"/><ellipse cx="33.5" cy="878.4453" fill="#84BE84" rx="3" ry="3" style="stroke:#038048;stroke-width:1.0;"/><text fill="#000000" font-family="sans-serif" font-size="14" lengthAdjust="spacing" textLength="167" x="42.5" y="881.792">error SendTo(*AppData)</text><ellipse cx="33.5" cy="894.7422" fill="#84BE84" rx="3" ry="3" style="stroke:#038048;stroke-width:1.0;"/><text fill="#000000" font-family="sans-serif" font-size="14" lengthAdjust="spacing" textLength="86" x="42.5" y="898.0889">error Serve()</text><ellipse cx="33.5" cy="911.0391" fill="#84BE84" rx="3" ry="3" style="stroke:#038048;stroke-width:1.0;"/><text fill="#000000" font-family="sans-serif" font-size="14" lengthAdjust="spacing" textLength="132" x="42.5" y="914.3857">error Setup(Config)</text></g><!--class Config--><g id="elem_Config"><rect codeLine="81" fill="#F1F1F1" height="64.2969" id="Config" rx="2.5" ry="2.5" style="stroke:#181818;stroke-width:0.5;" width="263" x="305.5" y="643.5"/><ellipse cx="410.75" cy="659.5" fill="#B4A7E5" rx="11" ry="11" style="stroke:#181818;stroke-width:1.0;"/><path d="M406.6719,655.2656 L406.6719,653.1094 L414.0625,653.1094 L414.0625,655.2656 L411.5938,655.2656 L411.5938,663.3438 L414.0625,663.3438 L414.0625,665.5 L406.6719,665.5 L406.6719,663.3438 L409.1406,663.3438 L409.1406,655.2656 L406.6719,655.2656 Z " fill="#000000"/><text fill="#000000" font-family="sans-serif" font-size="14" font-style="italic" lengthAdjust="spacing" textLength="44" x="431.25" y="664.3467">Config</text><line style="stroke:#181818;stroke-width:0.5;" x1="306.5" x2="567.5" y1="675.5" y2="675.5"/><line style="stroke:#181818;stroke-width:0.5;" x1="306.5" x2="567.5" y1="683.5" y2="683.5"/><ellipse cx="316.5" cy="697.1484" fill="#84BE84" rx="3" ry="3" style="stroke:#038048;stroke-width:1.0;"/><text fill="#000000" font-family="sans-serif" font-size="14" lengthAdjust="spacing" textLength="237" x="325.5" y="700.4951">error IngestConfig(map[string]any)</text></g><!--class HTTPProducerConfig--><g id="elem_HTTPProducerConfig"><rect codeLine="84" fill="#F1F1F1" height="113.1875" id="HTTPProducerConfig" rx="2.5" ry="2.5" style="stroke:#181818;stroke-width:0.5;" width="263" x="568.5" y="808.5"/><ellipse cx="623.75" cy="824.5" fill="#F1F1F1" rx="11" ry="11" style="stroke:#181818;stroke-width:1.0;"/><path d="M623.2344,825.0625 Q621.375,824.3594 620.7188,823.5938 Q620.0781,822.8125 620.0781,821.5 Q620.0781,819.8125 621.1563,818.8438 Q622.2344,817.875 624.1094,817.875 Q624.9688,817.875 625.8125,818.0781 Q626.6719,818.2656 627.5156,818.6563 L627.5156,821.0469 Q626.7344,820.4844 625.9063,820.2031 Q625.0938,819.9063 624.2969,819.9063 Q623.4219,819.9063 622.9375,820.2656 Q622.4688,820.625 622.4688,821.2813 Q622.4688,821.7969 622.8125,822.1406 Q623.1563,822.4688 624.25,822.875 L625.3125,823.2813 Q626.7969,823.8281 627.5,824.7344 Q628.2188,825.6406 628.2188,827.0156 Q628.2188,828.8906 627.1094,829.8125 Q626,830.7344 623.75,830.7344 Q622.8281,830.7344 621.9063,830.5156 Q620.9844,830.2969 620.125,829.875 L620.125,827.3438 Q621.0938,828.0313 622.0156,828.375 Q622.9375,828.7188 623.8281,828.7188 Q624.7344,828.7188 625.2344,828.3125 Q625.7344,827.8906 625.7344,827.1563 Q625.7344,826.5938 625.3906,826.1875 Q625.0625,825.7656 624.4375,825.5156 L623.2344,825.0625 Z " fill="#000000"/><text fill="#000000" font-family="sans-serif" font-size="14" lengthAdjust="spacing" textLength="144" x="644.25" y="829.3467">HTTPProducerConfig</text><line style="stroke:#181818;stroke-width:0.5;" x1="569.5" x2="830.5" y1="840.5" y2="840.5"/><ellipse cx="579.5" cy="854.1484" fill="none" rx="3" ry="3" style="stroke:#038048;stroke-width:1.0;"/><text fill="#000000" font-family="sans-serif" font-size="14" lengthAdjust="spacing" textLength="70" x="588.5" y="857.4951">string URL</text><ellipse cx="579.5" cy="870.4453" fill="none" rx="3" ry="3" style="stroke:#038048;stroke-width:1.0;"/><text fill="#000000" font-family="sans-serif" font-size="14" lengthAdjust="spacing" textLength="102" x="588.5" y="873.792">int NumRetries</text><ellipse cx="579.5" cy="886.7422" fill="none" rx="3" ry="3" style="stroke:#038048;stroke-width:1.0;"/><text fill="#000000" font-family="sans-serif" font-size="14" lengthAdjust="spacing" textLength="78" x="588.5" y="890.0889">int Timeout</text><line style="stroke:#181818;stroke-width:0.5;" x1="569.5" x2="830.5" y1="897.3906" y2="897.3906"/><ellipse cx="579.5" cy="911.0391" fill="#84BE84" rx="3" ry="3" style="stroke:#038048;stroke-width:1.0;"/><text fill="#000000" font-family="sans-serif" font-size="14" lengthAdjust="spacing" textLength="237" x="588.5" y="914.3857">error IngestConfig(map[string]any)</text></g><!--reverse link CompletionHandler to WaitGroupCompletionHandler--><g id="link_CompletionHandler_WaitGroupCompletionHandler"><path codeLine="91" d="M676.91,117.8132 C659.31,134.9132 649.75,144.21 628.63,164.73 " fill="none" id="CompletionHandler-backto-WaitGroupCompletionHandler" style="stroke:#181818;stroke-width:1.0;"/><polygon fill="none" points="689.82,105.27,672.7289,113.5099,681.0911,122.1165,689.82,105.27" style="stroke:#181818;stroke-width:1.0;"/></g><!--reverse link CompletionHandler to AppData--><g id="link_CompletionHandler_AppData"><path codeLine="92" d="M762.7873,113.6315 C782.7473,133.0215 800.36,150.14 823.78,172.9 " fill="none" id="CompletionHandler-backto-AppData" style="stroke:#181818;stroke-width:1.0;"/><polygon fill="#181818" points="754.18,105.27,755.6965,112.3198,762.7873,113.6315,761.2708,106.5816,754.18,105.27" style="stroke:#181818;stroke-width:1.0;"/></g><!--reverse link AppData to Pushable--><g id="link_AppData_Pushable"><path codeLine="93" d="M881,298.28 C881,320.92 881,334.24 881,353.57 " fill="none" id="AppData-backto-Pushable" style="stroke:#181818;stroke-width:1.0;"/><polygon fill="#181818" points="881,286.28,877,292.28,881,298.28,885,292.28,881,286.28" style="stroke:#181818;stroke-width:1.0;"/></g><!--reverse link Server to SourceServer--><g id="link_Server_SourceServer"><path codeLine="94" d="M584.6529,570.1063 C611.0029,590.7363 629.27,605.04 657.02,626.76 " fill="none" id="Server-backto-SourceServer" style="stroke:#181818;stroke-width:1.0;"/><polygon fill="none" points="570.48,559.01,580.9542,574.8306,588.3517,565.382,570.48,559.01" style="stroke:#181818;stroke-width:1.0;"/></g><!--reverse link Pushable to Pullable--><g id="link_Pushable_Pullable"><path codeLine="95" d="M864.7293,429.4667 C856.8193,450.1267 850.77,465.89 842.88,486.5 " fill="none" id="Pushable-backto-Pullable" style="stroke:#181818;stroke-width:1.0;"/><polygon fill="#181818" points="869.02,418.26,863.1391,422.4331,864.7293,429.4667,870.6102,425.2936,869.02,418.26" style="stroke:#181818;stroke-width:1.0;"/></g><!--reverse link Pullable to SourceServer--><g id="link_Pullable_SourceServer"><path codeLine="96" d="M797.5259,565.4149 C781.5959,587.2649 770.67,602.26 752.64,626.98 " fill="none" id="Pullable-backto-SourceServer" style="stroke:#181818;stroke-width:1.0;"/><polygon fill="none" points="808.13,550.87,792.6776,561.8802,802.3742,568.9496,808.13,550.87" style="stroke:#181818;stroke-width:1.0;"/></g><!--reverse link Server to SinkServer--><g id="link_Server_SinkServer"><path codeLine="97" d="M424.3408,559.2855 C379.2908,578.2555 338.51,595.89 288,619 C282.3,621.61 276.45,624.33 270.56,627.09 " fill="none" id="Server-backto-SinkServer" style="stroke:#181818;stroke-width:1.0;"/><polygon fill="none" points="440.93,552.3,422.0123,553.7558,426.6693,564.8153,440.93,552.3" style="stroke:#181818;stroke-width:1.0;"/></g><!--reverse link Pushable to SinkServer--><g id="link_Pushable_SinkServer"><path codeLine="98" d="M766.5079,394.6726 C670.9279,403.5926 540.23,423.93 423,478 C343.74,514.55 267.17,581.17 220.35,626.61 " fill="none" id="Pushable-backto-SinkServer" style="stroke:#181818;stroke-width:1.0;"/><polygon fill="none" points="784.43,393,765.9504,388.6985,767.0654,400.6466,784.43,393" style="stroke:#181818;stroke-width:1.0;"/></g><!--reverse link Pushable to PipeServer--><g id="link_Pushable_PipeServer"><path codeLine="99" d="M931.3867,430.7056 C947.9767,446.7556 953.03,455.2 963,478 C982.5,522.57 985.9,578.15 985.07,618.82 " fill="none" id="Pushable-backto-PipeServer" style="stroke:#181818;stroke-width:1.0;"/><polygon fill="none" points="918.45,418.19,927.2148,435.0179,935.5586,426.3934,918.45,418.19" style="stroke:#181818;stroke-width:1.0;"/></g><!--reverse link Pullable to PipeServer--><g id="link_Pullable_PipeServer"><path codeLine="100" d="M873.8702,563.8023 C892.7102,583.2623 904.93,595.89 927.02,618.72 " fill="none" id="Pullable-backto-PipeServer" style="stroke:#181818;stroke-width:1.0;"/><polygon fill="none" points="861.35,550.87,869.5595,567.9757,878.181,559.6289,861.35,550.87" style="stroke:#181818;stroke-width:1.0;"/></g><!--reverse link Server to PipeServer--><g id="link_Server_PipeServer"><path codeLine="101" d="M616.4632,545.588 C683.8132,564.298 765.44,588.44 850,619 C855.58,621.01 861.26,623.14 866.97,625.34 " fill="none" id="Server-backto-PipeServer" style="stroke:#181818;stroke-width:1.0;"/><polygon fill="none" points="599.12,540.77,614.8572,551.3691,618.0692,539.8069,599.12,540.77" style="stroke:#181818;stroke-width:1.0;"/></g><!--reverse link SinkServer to Producer--><g id="link_SinkServer_Producer"><path codeLine="103" d="M286.8918,731.4734 C292.7418,734.3234 282.36,729.26 288,732 C303.55,739.56 308.93,738.94 323,749 C349.87,768.22 376.09,794.02 396.59,816.32 " fill="none" id="SinkServer-backto-Producer" style="stroke:#181818;stroke-width:1.0;"/><polygon fill="none" points="270.71,723.59,284.264,736.8674,289.5196,726.0795,270.71,723.59" style="stroke:#181818;stroke-width:1.0;"/></g><!--reverse link SinkServer to MapSinkServer--><g id="link_SinkServer_MapSinkServer"><path codeLine="104" d="M158.7051,736.2102 C155.5551,761.8202 155.17,781.59 155.2,808.3 " fill="none" id="SinkServer-backto-MapSinkServer" style="stroke:#181818;stroke-width:1.0;"/><polygon fill="#181818" points="160.17,724.3,155.4674,729.7668,158.7051,736.2102,163.4076,730.7434,160.17,724.3" style="stroke:#181818;stroke-width:1.0;"/></g><!--reverse link SinkServer to MapSinkServer--><g id="link_SinkServer_MapSinkServer"><path codeLine="105" d="M183.7554,742.2963 C184.2754,767.9063 182.4,781.59 179.43,808.3 " fill="none" id="SinkServer-backto-MapSinkServer-1" style="stroke:#181818;stroke-width:1.0;"/><polygon fill="none" points="183.39,724.3,177.7566,742.4181,189.7542,742.1745,183.39,724.3" style="stroke:#181818;stroke-width:1.0;"/></g><!--reverse link SourceServer to Consumer--><g id="link_SourceServer_Consumer"><path codeLine="106" d="M825.5814,733.3152 C838.9314,741.1552 836.76,740.42 849,749 C877.75,769.14 907.43,794.52 931.34,816.3 " fill="none" id="SourceServer-backto-Consumer" style="stroke:#181818;stroke-width:1.0;"/><polygon fill="none" points="810.06,724.2,822.543,738.489,828.6198,728.1414,810.06,724.2" style="stroke:#181818;stroke-width:1.0;"/></g><!--reverse link PipeServer to JQTransformer--><g id="link_PipeServer_JQTransformer"><path codeLine="108" d="M1112.8259,697.4712 C1245.8059,718.6512 1430.07,748.1 1432,749 C1454.71,759.64 1476.49,775.36 1495.58,791.79 " fill="none" id="PipeServer-backto-JQTransformer" style="stroke:#181818;stroke-width:1.0;"/><polygon fill="none" points="1095.05,694.64,1111.8822,703.3965,1113.7697,691.5459,1095.05,694.64" style="stroke:#181818;stroke-width:1.0;"/></g><!--reverse link Pushable to JQTransformer--><g id="link_Pushable_JQTransformer"><path codeLine="109" d="M943.7736,424.3744 C1043.6436,484.4344 1256.46,615.84 1432,749 C1449.56,762.32 1467.75,777.32 1484.82,791.97 " fill="none" id="Pushable-backto-JQTransformer" style="stroke:#181818;stroke-width:1.0;"/><polygon fill="#181818" points="933.49,418.19,936.5704,424.7101,943.7736,424.3744,940.6933,417.8543,933.49,418.19" style="stroke:#181818;stroke-width:1.0;"/></g><!--reverse link Server to Config--><g id="link_Server_Config"><path codeLine="112" d="M493.1766,569.5895 C479.1566,595.7795 466.67,619.08 453.67,643.36 " fill="none" id="Server-backto-Config" style="stroke:#181818;stroke-width:1.0;"/><polygon fill="#181818" points="498.84,559.01,492.4818,562.4119,493.1766,569.5895,499.5348,566.1876,498.84,559.01" style="stroke:#181818;stroke-width:1.0;"/></g><!--reverse link Config to JQTransformerConfig--><g id="link_Config_JQTransformerConfig"><path codeLine="113" d="M523.3887,714.0772 C548.2587,723.7372 560.02,726.72 587,732 C701.33,754.39 1000.08,713.36 1111,749 C1159.05,764.44 1206.17,797.57 1238.9,824.32 " fill="none" id="Config-backto-JQTransformerConfig" style="stroke:#181818;stroke-width:1.0;"/><polygon fill="none" points="506.61,707.56,521.2163,719.6701,525.5611,708.4843,506.61,707.56" style="stroke:#181818;stroke-width:1.0;"/></g><!--reverse link Config to HTTPProducerConfig--><g id="link_Config_HTTPProducerConfig"><path codeLine="114" d="M503.4084,717.2148 C523.2884,729.6848 530.84,734.85 551,749 C577.48,767.58 605.76,788.99 630.49,808.26 " fill="none" id="Config-backto-HTTPProducerConfig" style="stroke:#181818;stroke-width:1.0;"/><polygon fill="none" points="488.16,707.65,500.2202,722.2976,506.5967,712.132,488.16,707.65" style="stroke:#181818;stroke-width:1.0;"/></g><!--reverse link Producer to HTTPProducer--><g id="link_Producer_HTTPProducer"><path codeLine="115" d="M478.8973,928.5251 C495.8573,953.8451 506.94,970.37 525.3,997.77 " fill="none" id="Producer-backto-HTTPProducer" style="stroke:#181818;stroke-width:1.0;"/><polygon fill="none" points="468.88,913.57,473.9123,931.8642,483.8823,925.186,468.88,913.57" style="stroke:#181818;stroke-width:1.0;"/></g><!--reverse link HTTPProducerConfig to HTTPProducer--><g id="link_HTTPProducerConfig_HTTPProducer"><path codeLine="116" d="M655.6356,931.7057 C639.6356,955.4057 627.6,973.23 611.05,997.74 " fill="none" id="HTTPProducerConfig-backto-HTTPProducer" style="stroke:#181818;stroke-width:1.0;"/><polygon fill="#181818" points="662.35,921.76,655.6776,924.4947,655.6356,931.7057,662.308,928.971,662.35,921.76" style="stroke:#181818;stroke-width:1.0;"/></g><!--SRC=[lLRDSfim4Bxp53eIf_04lMJSJdwcJPtOdHuwFIWW4rAG5FsqzRX-zmeGbeI4xQ6jEO2q-dRrxMgr2uOruXHc2DmjFzs__oKOp0HXO1i1zN31P2R0tSEAGSpNXDM8pGbUbuK6DCzb3UbNXInnyQtxA8K7YTXcsSwuGIB6bErRN20kEZknfGpnvgB5xaOtjxPD2lBociv9Zi3BwuAHWi7QB2uaVuPF5G9K3uOahlAynyJzu688MYAShqWykwBq7HGmiCv-e3WW5fB6dOEzHxi8xqFTglM-b5WWjcx4SrBJ2ecIu1k8yyhnLblM41IhMBq1hImGiY-m5DUCI7h8Oi8tE4ltKF2pC4lAEiYLmqRIRT- -ZV29a0gKl2SrZQoEhStCs_xIToGRIWouKRz6eh5gdurlGu4yOMnJD6VZ7Dcq370DBcHLjGcwFJqpVHiwoRSd9Qxd4v4iGsEUdNX19hg_BF7tyPZ-iritY5T9_zRT_yMCaLncPmY6ldGtgzKYi6TYotMXpzgFWJmBGTDvLI8iG3FkXcUBb5hZiZvNmkfmVOGqcB29rRqi0DyFbU8v8pDep5FQRI03B8kwltz-_61aYW6ub_KZKck8k_9LMICYnGHAkwYBOEgNxRU_aqGNv7IyrOthpuowFeJ8dTg8FfDwY3vYcuDTHwE1cckgA_dHO7xKM6ZFVOfvEqw0cS9ua9iF2p2pG977maNgD0l0hAWvT- -8nJ3MRdCskYybUvvMVsXnpYznwlo81i_v43uQX6pcy6Wgh3CxIc1SIOlyYnmDuZuAZqPDsBJjrJy0]--></g></svg>