<?xml version="1.0" encoding="us-ascii" standalone="no"?><svg xmlns="http://www.w3.org/2000/svg" xmlns:xlink="http://www.w3.org/1999/xlink" contentStyleType="text/css" height="398px" preserveAspectRatio="none" style="width:897px;height:398px;background:#FFFFFF;" version="1.1" viewBox="0 0 897 398" width="897px" zoomAndPan="magnify"><defs/><g><!--cluster Server--><g id="cluster_Server"><path d="M8.5,6 L62.5,6 A3.75,3.75 0 0 1 65,8.5 L72,28.2969 L887.5,28.2969 A2.5,2.5 0 0 1 890,30.7969 L890,167.5 A2.5,2.5 0 0 1 887.5,170 L8.5,170 A2.5,2.5 0 0 1 6,167.5 L6,8.5 A2.5,2.5 0 0 1 8.5,6 " fill="none" style="stroke:#000000;stroke-width:1.5;"/><line style="stroke:#000000;stroke-width:1.5;" x1="6" x2="72" y1="28.2969" y2="28.2969"/><text fill="#000000" font-family="sans-serif" font-size="14" font-weight="bold" lengthAdjust="spacing" textLength="53" x="10" y="20.9951">Server</text></g><!--cluster JSONExtractor--><g id="cluster_JSONExtractor"><path d="M285.5,194 L395.5,194 A3.75,3.75 0 0 1 398,196.5 L405,216.2969 L887.5,216.2969 A2.5,2.5 0 0 1 890,218.7969 L890,388.5 A2.5,2.5 0 0 1 887.5,391 L285.5,391 A2.5,2.5 0 0 1 283,388.5 L283,196.5 A2.5,2.5 0 0 1 285.5,194 " fill="none" style="stroke:#000000;stroke-width:1.5;"/><line style="stroke:#000000;stroke-width:1.5;" x1="283" x2="405" y1="216.2969" y2="216.2969"/><text fill="#000000" font-family="sans-serif" font-size="14" font-weight="bold" lengthAdjust="spacing" textLength="109" x="287" y="208.9951">JSONExtractor</text></g><!--class Config--><g id="elem_Config"><rect codeLine="1" fill="#F1F1F1" height="64.2969" id="Config" rx="2.5" ry="2.5" style="stroke:#181818;stroke-width:0.5;" width="263" x="610.5" y="65.5"/><ellipse cx="715.75" cy="81.5" fill="#B4A7E5" rx="11" ry="11" style="stroke:#181818;stroke-width:1.0;"/><path d="M711.6719,77.2656 L711.6719,75.1094 L719.0625,75.1094 L719.0625,77.2656 L716.5938,77.2656 L716.5938,85.3438 L719.0625,85.3438 L719.0625,87.5 L711.6719,87.5 L711.6719,85.3438 L714.1406,85.3438 L714.1406,77.2656 L711.6719,77.2656 Z " fill="#000000"/><text fill="#000000" font-family="sans-serif" font-size="14" font-style="italic" lengthAdjust="spacing" textLength="44" x="736.25" y="86.3467">Config</text><line style="stroke:#181818;stroke-width:0.5;" x1="611.5" x2="872.5" y1="97.5" y2="97.5"/><line style="stroke:#181818;stroke-width:0.5;" x1="611.5" x2="872.5" y1="105.5" y2="105.5"/><ellipse cx="621.5" cy="119.1484" fill="#84BE84" rx="3" ry="3" style="stroke:#038048;stroke-width:1.0;"/><text fill="#000000" font-family="sans-serif" font-size="14" lengthAdjust="spacing" textLength="237" x="630.5" y="122.4951">error IngestConfig(map[string]any)</text></g><!--class PipeServer--><g id="elem_PipeServer"><rect codeLine="4" fill="#F1F1F1" height="113.1875" id="PipeServer" rx="2.5" ry="2.5" style="stroke:#181818;stroke-width:0.5;" width="276" x="299" y="41"/><ellipse cx="395.75" cy="57" fill="#B4A7E5" rx="11" ry="11" style="stroke:#181818;stroke-width:1.0;"/><path d="M391.6719,52.7656 L391.6719,50.6094 L399.0625,50.6094 L399.0625,52.7656 L396.5938,52.7656 L396.5938,60.8438 L399.0625,60.8438 L399.0625,63 L391.6719,63 L391.6719,60.8438 L394.1406,60.8438 L394.1406,52.7656 L391.6719,52.7656 Z " fill="#000000"/><text fill="#000000" font-family="sans-serif" font-size="14" font-style="italic" lengthAdjust="spacing" textLength="74" x="416.25" y="61.8467">PipeServer</text><line style="stroke:#181818;stroke-width:0.5;" x1="300" x2="574" y1="73" y2="73"/><line style="stroke:#181818;stroke-width:0.5;" x1="300" x2="574" y1="81" y2="81"/><ellipse cx="310" cy="94.6484" fill="#84BE84" rx="3" ry="3" style="stroke:#038048;stroke-width:1.0;"/><text fill="#000000" font-family="sans-serif" font-size="14" lengthAdjust="spacing" textLength="250" x="319" y="97.9951">error AddPushable(Server.Pushable)</text><ellipse cx="310" cy="110.9453" fill="#84BE84" rx="3" ry="3" style="stroke:#038048;stroke-width:1.0;"/><text fill="#000000" font-family="sans-serif" font-size="14" lengthAdjust="spacing" textLength="215" x="319" y="114.292">error SendTo(*Server.AppData)</text><ellipse cx="310" cy="127.2422" fill="#84BE84" rx="3" ry="3" style="stroke:#038048;stroke-width:1.0;"/><text fill="#000000" font-family="sans-serif" font-size="14" lengthAdjust="spacing" textLength="86" x="319" y="130.5889">error Serve()</text><ellipse cx="310" cy="143.5391" fill="#84BE84" rx="3" ry="3" style="stroke:#038048;stroke-width:1.0;"/><text fill="#000000" font-family="sans-serif" font-size="14" lengthAdjust="spacing" textLength="180" x="319" y="146.8857">error Setup(Server.Config)</text></g><!--class Pushable--><g id="elem_Pushable"><rect codeLine="10" fill="#F1F1F1" height="64.2969" id="Pushable" rx="2.5" ry="2.5" style="stroke:#181818;stroke-width:0.5;" width="241" x="22.5" y="65.5"/><ellipse cx="106.75" cy="81.5" fill="#B4A7E5" rx="11" ry="11" style="stroke:#181818;stroke-width:1.0;"/><path d="M102.6719,77.2656 L102.6719,75.1094 L110.0625,75.1094 L110.0625,77.2656 L107.5938,77.2656 L107.5938,85.3438 L110.0625,85.3438 L110.0625,87.5 L102.6719,87.5 L102.6719,85.3438 L105.1406,85.3438 L105.1406,77.2656 L102.6719,77.2656 Z " fill="#000000"/><text fill="#000000" font-family="sans-serif" font-size="14" font-style="italic" lengthAdjust="spacing" textLength="64" x="127.25" y="86.3467">Pushable</text><line style="stroke:#181818;stroke-width:0.5;" x1="23.5" x2="262.5" y1="97.5" y2="97.5"/><line style="stroke:#181818;stroke-width:0.5;" x1="23.5" x2="262.5" y1="105.5" y2="105.5"/><ellipse cx="33.5" cy="119.1484" fill="#84BE84" rx="3" ry="3" style="stroke:#038048;stroke-width:1.0;"/><text fill="#000000" font-family="sans-serif" font-size="14" lengthAdjust="spacing" textLength="215" x="42.5" y="122.4951">error SendTo(*Server.AppData)</text></g><!--class JQTransformerConfig--><g id="elem_JQTransformerConfig"><rect codeLine="15" fill="#F1F1F1" height="80.5938" id="JQTransformerConfig" rx="2.5" ry="2.5" style="stroke:#181818;stroke-width:0.5;" width="263" x="610.5" y="261.5"/><ellipse cx="666.75" cy="277.5" fill="#F1F1F1" rx="11" ry="11" style="stroke:#181818;stroke-width:1.0;"/><path d="M666.2344,278.0625 Q664.375,277.3594 663.7188,276.5938 Q663.0781,275.8125 663.0781,274.5 Q663.0781,272.8125 664.1563,271.8438 Q665.2344,270.875 667.1094,270.875 Q667.9688,270.875 668.8125,271.0781 Q669.6719,271.2656 670.5156,271.6563 L670.5156,274.0469 Q669.7344,273.4844 668.9063,273.2031 Q668.0938,272.9063 667.2969,272.9063 Q666.4219,272.9063 665.9375,273.2656 Q665.4688,273.625 665.4688,274.2813 Q665.4688,274.7969 665.8125,275.1406 Q666.1563,275.4688 667.25,275.875 L668.3125,276.2813 Q669.7969,276.8281 670.5,277.7344 Q671.2188,278.6406 671.2188,280.0156 Q671.2188,281.8906 670.1094,282.8125 Q669,283.7344 666.75,283.7344 Q665.8281,283.7344 664.9063,283.5156 Q663.9844,283.2969 663.125,282.875 L663.125,280.3438 Q664.0938,281.0313 665.0156,281.375 Q665.9375,281.7188 666.8281,281.7188 Q667.7344,281.7188 668.2344,281.3125 Q668.7344,280.8906 668.7344,280.1563 Q668.7344,279.5938 668.3906,279.1875 Q668.0625,278.7656 667.4375,278.5156 L666.2344,278.0625 Z " fill="#000000"/><text fill="#000000" font-family="sans-serif" font-size="14" lengthAdjust="spacing" textLength="142" x="687.25" y="282.3467">JQTransformerConfig</text><line style="stroke:#181818;stroke-width:0.5;" x1="611.5" x2="872.5" y1="293.5" y2="293.5"/><ellipse cx="621.5" cy="307.1484" fill="none" rx="3" ry="3" style="stroke:#038048;stroke-width:1.0;"/><text fill="#000000" font-family="sans-serif" font-size="14" lengthAdjust="spacing" textLength="225" x="630.5" y="310.4951">map[string]string JQQueryStrings</text><line style="stroke:#181818;stroke-width:0.5;" x1="611.5" x2="872.5" y1="317.7969" y2="317.7969"/><ellipse cx="621.5" cy="331.4453" fill="#84BE84" rx="3" ry="3" style="stroke:#038048;stroke-width:1.0;"/><text fill="#000000" font-family="sans-serif" font-size="14" lengthAdjust="spacing" textLength="237" x="630.5" y="334.792">error IngestConfig(map[string]any)</text></g><!--class JQTransformer--><g id="elem_JQTransformer"><rect codeLine="19" fill="#F1F1F1" height="145.7813" id="JQTransformer" rx="2.5" ry="2.5" style="stroke:#181818;stroke-width:0.5;" width="276" x="299" y="229"/><ellipse cx="383.75" cy="245" fill="#F1F1F1" rx="11" ry="11" style="stroke:#181818;stroke-width:1.0;"/><path d="M383.2344,245.5625 Q381.375,244.8594 380.7188,244.0938 Q380.0781,243.3125 380.0781,242 Q380.0781,240.3125 381.1563,239.3438 Q382.2344,238.375 384.1094,238.375 Q384.9688,238.375 385.8125,238.5781 Q386.6719,238.7656 387.5156,239.1563 L387.5156,241.5469 Q386.7344,240.9844 385.9063,240.7031 Q385.0938,240.4063 384.2969,240.4063 Q383.4219,240.4063 382.9375,240.7656 Q382.4688,241.125 382.4688,241.7813 Q382.4688,242.2969 382.8125,242.6406 Q383.1563,242.9688 384.25,243.375 L385.3125,243.7813 Q386.7969,244.3281 387.5,245.2344 Q388.2188,246.1406 388.2188,247.5156 Q388.2188,249.3906 387.1094,250.3125 Q386,251.2344 383.75,251.2344 Q382.8281,251.2344 381.9063,251.0156 Q380.9844,250.7969 380.125,250.375 L380.125,247.8438 Q381.0938,248.5313 382.0156,248.875 Q382.9375,249.2188 383.8281,249.2188 Q384.7344,249.2188 385.2344,248.8125 Q385.7344,248.3906 385.7344,247.6563 Q385.7344,247.0938 385.3906,246.6875 Q385.0625,246.2656 384.4375,246.0156 L383.2344,245.5625 Z " fill="#000000"/><text fill="#000000" font-family="sans-serif" font-size="14" lengthAdjust="spacing" textLength="98" x="404.25" y="249.8467">JQTransformer</text><line style="stroke:#181818;stroke-width:0.5;" x1="300" x2="574" y1="261" y2="261"/><rect fill="none" height="6" style="stroke:#C82930;stroke-width:1.0;" width="6" x="307" y="271.6484"/><text fill="#000000" font-family="sans-serif" font-size="14" lengthAdjust="spacing" textLength="145" x="319" y="277.9951">gojq.Code jqProgram</text><rect fill="none" height="6" style="stroke:#C82930;stroke-width:1.0;" width="6" x="307" y="287.9453"/><text fill="#000000" font-family="sans-serif" font-size="14" lengthAdjust="spacing" textLength="180" x="319" y="294.292">Server.Pushable pushable</text><line style="stroke:#181818;stroke-width:0.5;" x1="300" x2="574" y1="301.5938" y2="301.5938"/><ellipse cx="310" cy="315.2422" fill="#84BE84" rx="3" ry="3" style="stroke:#038048;stroke-width:1.0;"/><text fill="#000000" font-family="sans-serif" font-size="14" lengthAdjust="spacing" textLength="250" x="319" y="318.5889">error AddPushable(Server.Pushable)</text><ellipse cx="310" cy="331.5391" fill="#84BE84" rx="3" ry="3" style="stroke:#038048;stroke-width:1.0;"/><text fill="#000000" font-family="sans-serif" font-size="14" lengthAdjust="spacing" textLength="215" x="319" y="334.8857">error SendTo(*Server.AppData)</text><ellipse cx="310" cy="347.8359" fill="#84BE84" rx="3" ry="3" style="stroke:#038048;stroke-width:1.0;"/><text fill="#000000" font-family="sans-serif" font-size="14" lengthAdjust="spacing" textLength="86" x="319" y="351.1826">error Serve()</text><ellipse cx="310" cy="364.1328" fill="#84BE84" rx="3" ry="3" style="stroke:#038048;stroke-width:1.0;"/><text fill="#000000" font-family="sans-serif" font-size="14" lengthAdjust="spacing" textLength="180" x="319" y="367.4795">error Setup(Server.Config)</text></g><!--reverse link PipeServer to JQTransformer--><g id="link_PipeServer_JQTransformer"><path codeLine="29" d="M437,172.1 C437,195.17 437,204.23 437,228.8 " fill="none" id="PipeServer-backto-JQTransformer" style="stroke:#181818;stroke-width:1.0;"/><polygon fill="none" points="437,154.1,431,172.1,443,172.1,437,154.1" style="stroke:#181818;stroke-width:1.0;"/></g><!--reverse link Pushable to JQTransformer--><g id="link_Pushable_JQTransformer"><path codeLine="30" d="M198.1729,136.5065 C236.4329,162.8565 282.83,194.81 332.18,228.8 " fill="none" id="Pushable-backto-JQTransformer" style="stroke:#181818;stroke-width:1.0;"/><polygon fill="#181818" points="188.29,129.7,190.9626,136.3975,198.1729,136.5065,195.5003,129.8089,188.29,129.7" style="stroke:#181818;stroke-width:1.0;"/></g><!--reverse link Config to JQTransformerConfig--><g id="link_Config_JQTransformerConfig"><path codeLine="31" d="M742,147.7 C742,183.09 742,222.88 742,261.41 " fill="none" id="Config-backto-JQTransformerConfig" style="stroke:#181818;stroke-width:1.0;"/><polygon fill="none" points="742,129.7,736,147.7,748,147.7,742,129.7" style="stroke:#181818;stroke-width:1.0;"/></g><!--SRC=[ZLB1KiCW4Btp5HnfdVGBl7JKWpreEkdDyO391kaOe0jnx6Z-NLhIQK0p2HTOzh5lzpsaSe0rBu4MW9-0gpkjQYdeDw5-tG2YHlge15WNCgpXviKwb4gySdLSa8x8j4Ok3OHZN6TTLNbht_dR1x0Bj8yNGrm1gjffjkmnQsFkkUC9nATOSkLQmw8n_k-kfunx6-Fi256y0MjE5JR5yzF3bqDUEdsPpMlHbevkjZlaojOQ6y18n3F9GBMm-GVR5l1Od2DxHSwG_8JhHia7j9dG-uFNeWAwF-Ie1VBccaprCFqXxMNIjfdMZTWtPM6OrllmztVT_cHPRCegaeAa8oxduNl_fie7s2y0]--></g></svg>