<?xml version="1.0" encoding="us-ascii" standalone="no"?><svg xmlns="http://www.w3.org/2000/svg" xmlns:xlink="http://www.w3.org/1999/xlink" contentStyleType="text/css" height="1150px" preserveAspectRatio="none" style="width:1999px;height:1150px;background:#FFFFFF;" version="1.1" viewBox="0 0 1999 1150" width="1999px" zoomAndPan="magnify"><defs/><g><!--cluster JSONExtractor--><g id="cluster_JSONExtractor"><path d="M1435.5,757 L1545.5,757 A3.75,3.75 0 0 1 1548,759.5 L1555,779.2969 L1989.5,779.2969 A2.5,2.5 0 0 1 1992,781.7969 L1992,951.5 A2.5,2.5 0 0 1 1989.5,954 L1435.5,954 A2.5,2.5 0 0 1 1433,951.5 L1433,759.5 A2.5,2.5 0 0 1 1435.5,757 " fill="none" style="stroke:#000000;stroke-width:1.5;"/><line style="stroke:#000000;stroke-width:1.5;" x1="1433" x2="1555" y1="779.2969" y2="779.2969"/><text fill="#000000" font-family="sans-serif" font-size="14" font-weight="bold" lengthAdjust="spacing" textLength="109" x="1437" y="771.9951">JSONExtractor</text></g><!--cluster Server--><g id="cluster_Server"><path d="M8.5,6 L62.5,6 A3.75,3.75 0 0 1 65,8.5 L72,28.2969 L1406.5,28.2969 A2.5,2.5 0 0 1 1409,30.7969 L1409,1140.5 A2.5,2.5 0 0 1 1406.5,1143 L8.5,1143 A2.5,2.5 0 0 1 6,1140.5 L6,8.5 A2.5,2.5 0 0 1 8.5,6 " fill="none" style="stroke:#000000;stroke-width:1.5;"/><line style="stroke:#000000;stroke-width:1.5;" x1="6" x2="72" y1="28.2969" y2="28.2969"/><text fill="#000000" font-family="sans-serif" font-size="14" font-weight="bold" lengthAdjust="spacing" textLength="53" x="10" y="20.9951">Server</text></g><!--class JQTransformerConfig--><g id="elem_JQTransformerConfig"><rect codeLine="2" fill="#F1F1F1" height="80.5938" id="JQTransformerConfig" rx="2.5" ry="2.5" style="stroke:#181818;stroke-width:0.5;" width="263" x="1449.5" y="824.5"/><ellipse cx="1505.75" cy="840.5" fill="#F1F1F1" rx="11" ry="11" style="stroke:#181818;stroke-width:1.0;"/><path d="M1505.2344,841.0625 Q1503.375,840.3594 1502.7188,839.5938 Q1502.0781,838.8125 1502.0781,837.5 Q1502.0781,835.8125 1503.1563,834.8438 Q1504.2344,833.875 1506.1094,833.875 Q1506.9688,833.875 1507.8125,834.0781 Q1508.6719,834.2656 1509.5156,834.6563 L1509.5156,837.0469 Q1508.7344,836.4844 1507.9063,836.2031 Q1507.0938,835.9063 1506.2969,835.9063 Q1505.4219,835.9063 1504.9375,836.2656 Q1504.4688,836.625 1504.4688,837.2813 Q1504.4688,837.7969 1504.8125,838.1406 Q1505.1563,838.4688 1506.25,838.875 L1507.3125,839.2813 Q1508.7969,839.8281 1509.5,840.7344 Q1510.2188,841.6406 1510.2188,843.0156 Q1510.2188,844.8906 1509.1094,845.8125 Q1508,846.7344 1505.75,846.7344 Q1504.8281,846.7344 1503.9063,846.5156 Q1502.9844,846.2969 1502.125,845.875 L1502.125,843.3438 Q1503.0938,844.0313 1504.0156,844.375 Q1504.9375,844.7188 1505.8281,844.7188 Q1506.7344,844.7188 1507.2344,844.3125 Q1507.7344,843.8906 1507.7344,843.1563 Q1507.7344,842.5938 1507.3906,842.1875 Q1507.0625,841.7656 1506.4375,841.5156 L1505.2344,841.0625 Z " fill="#000000"/><text fill="#000000" font-family="sans-serif" font-size="14" lengthAdjust="spacing" textLength="142" x="1526.25" y="845.3467">JQTransformerConfig</text><line style="stroke:#181818;stroke-width:0.5;" x1="1450.5" x2="1711.5" y1="856.5" y2="856.5"/><ellipse cx="1460.5" cy="870.1484" fill="none" rx="3" ry="3" style="stroke:#038048;stroke-width:1.0;"/><text fill="#000000" font-family="sans-serif" font-size="14" lengthAdjust="spacing" textLength="225" x="1469.5" y="873.4951">map[string]string JQQueryStrings</text><line style="stroke:#181818;stroke-width:0.5;" x1="1450.5" x2="1711.5" y1="880.7969" y2="880.7969"/><ellipse cx="1460.5" cy="894.4453" fill="#84BE84" rx="3" ry="3" style="stroke:#038048;stroke-width:1.0;"/><text fill="#000000" font-family="sans-serif" font-size="14" lengthAdjust="spacing" textLength="237" x="1469.5" y="897.792">error IngestConfig(map[string]any)</text></g><!--class JQTransformer--><g id="elem_JQTransformer"><rect codeLine="6" fill="#F1F1F1" height="145.7813" id="JQTransformer" rx="2.5" ry="2.5" style="stroke:#181818;stroke-width:0.5;" width="228" x="1748" y="792"/><ellipse cx="1808.75" cy="808" fill="#F1F1F1" rx="11" ry="11" style="stroke:#181818;stroke-width:1.0;"/><path d="M1808.2344,808.5625 Q1806.375,807.8594 1805.7188,807.0938 Q1805.0781,806.3125 1805.0781,805 Q1805.0781,803.3125 1806.1563,802.3438 Q1807.2344,801.375 1809.1094,801.375 Q1809.9688,801.375 1810.8125,801.5781 Q1811.6719,801.7656 1812.5156,802.1563 L1812.5156,804.5469 Q1811.7344,803.9844 1810.9063,803.7031 Q1810.0938,803.4063 1809.2969,803.4063 Q1808.4219,803.4063 1807.9375,803.7656 Q1807.4688,804.125 1807.4688,804.7813 Q1807.4688,805.2969 1807.8125,805.6406 Q1808.1563,805.9688 1809.25,806.375 L1810.3125,806.7813 Q1811.7969,807.3281 1812.5,808.2344 Q1813.2188,809.1406 1813.2188,810.5156 Q1813.2188,812.3906 1812.1094,813.3125 Q1811,814.2344 1808.75,814.2344 Q1807.8281,814.2344 1806.9063,814.0156 Q1805.9844,813.7969 1805.125,813.375 L1805.125,810.8438 Q1806.0938,811.5313 1807.0156,811.875 Q1807.9375,812.2188 1808.8281,812.2188 Q1809.7344,812.2188 1810.2344,811.8125 Q1810.7344,811.3906 1810.7344,810.6563 Q1810.7344,810.0938 1810.3906,809.6875 Q1810.0625,809.2656 1809.4375,809.0156 L1808.2344,808.5625 Z " fill="#000000"/><text fill="#000000" font-family="sans-serif" font-size="14" lengthAdjust="spacing" textLength="98" x="1829.25" y="812.8467">JQTransformer</text><line style="stroke:#181818;stroke-width:0.5;" x1="1749" x2="1975" y1="824" y2="824"/><rect fill="none" height="6" style="stroke:#C82930;stroke-width:1.0;" width="6" x="1756" y="834.6484"/><text fill="#000000" font-family="sans-serif" font-size="14" lengthAdjust="spacing" textLength="145" x="1768" y="840.9951">gojq.Code jqProgram</text><rect fill="none" height="6" style="stroke:#C82930;stroke-width:1.0;" width="6" x="1756" y="850.9453"/><text fill="#000000" font-family="sans-serif" font-size="14" lengthAdjust="spacing" textLength="132" x="1768" y="857.292">Pushable pushable</text><line style="stroke:#181818;stroke-width:0.5;" x1="1749" x2="1975" y1="864.5938" y2="864.5938"/><ellipse cx="1759" cy="878.2422" fill="#84BE84" rx="3" ry="3" style="stroke:#038048;stroke-width:1.0;"/><text fill="#000000" font-family="sans-serif" font-size="14" lengthAdjust="spacing" textLength="202" x="1768" y="881.5889">error AddPushable(Pushable)</text><ellipse cx="1759" cy="894.5391" fill="#84BE84" rx="3" ry="3" style="stroke:#038048;stroke-width:1.0;"/><text fill="#000000" font-family="sans-serif" font-size="14" lengthAdjust="spacing" textLength="167" x="1768" y="897.8857">error SendTo(*AppData)</text><ellipse cx="1759" cy="910.8359" fill="#84BE84" rx="3" ry="3" style="stroke:#038048;stroke-width:1.0;"/><text fill="#000000" font-family="sans-serif" font-size="14" lengthAdjust="spacing" textLength="86" x="1768" y="914.1826">error Serve()</text><ellipse cx="1759" cy="927.1328" fill="#84BE84" rx="3" ry="3" style="stroke:#038048;stroke-width:1.0;"/><text fill="#000000" font-family="sans-serif" font-size="14" lengthAdjust="spacing" textLength="132" x="1768" y="930.4795">error Setup(Config)</text></g><!--class CompletionHandler--><g id="elem_CompletionHandler"><rect codeLine="16" fill="#F1F1F1" height="64.2969" id="CompletionHandler" rx="2.5" ry="2.5" style="stroke:#181818;stroke-width:0.5;" width="205" x="917.5" y="41"/><ellipse cx="950.95" cy="57" fill="#B4A7E5" rx="11" ry="11" style="stroke:#181818;stroke-width:1.0;"/><path d="M946.8719,52.7656 L946.8719,50.6094 L954.2625,50.6094 L954.2625,52.7656 L951.7938,52.7656 L951.7938,60.8438 L954.2625,60.8438 L954.2625,63 L946.8719,63 L946.8719,60.8438 L949.3406,60.8438 L949.3406,52.7656 L946.8719,52.7656 Z " fill="#000000"/><text fill="#000000" font-family="sans-serif" font-size="14" font-style="italic" lengthAdjust="spacing" textLength="132" x="969.05" y="61.8467">CompletionHandler</text><line style="stroke:#181818;stroke-width:0.5;" x1="918.5" x2="1121.5" y1="73" y2="73"/><line style="stroke:#181818;stroke-width:0.5;" x1="918.5" x2="1121.5" y1="81" y2="81"/><ellipse cx="928.5" cy="94.6484" fill="#84BE84" rx="3" ry="3" style="stroke:#038048;stroke-width:1.0;"/><text fill="#000000" font-family="sans-serif" font-size="14" lengthAdjust="spacing" textLength="179" x="937.5" y="97.9951">error Complete(any, error)</text></g><!--class WaitGroupCompletionHandler--><g id="elem_WaitGroupCompletionHandler"><rect codeLine="19" fill="#F1F1F1" height="129.4844" id="WaitGroupCompletionHandler" rx="2.5" ry="2.5" style="stroke:#181818;stroke-width:0.5;" width="236" x="743" y="165"/><ellipse cx="758" cy="181" fill="#F1F1F1" rx="11" ry="11" style="stroke:#181818;stroke-width:1.0;"/><path d="M757.4844,181.5625 Q755.625,180.8594 754.9688,180.0938 Q754.3281,179.3125 754.3281,178 Q754.3281,176.3125 755.4063,175.3438 Q756.4844,174.375 758.3594,174.375 Q759.2188,174.375 760.0625,174.5781 Q760.9219,174.7656 761.7656,175.1563 L761.7656,177.5469 Q760.9844,176.9844 760.1563,176.7031 Q759.3438,176.4063 758.5469,176.4063 Q757.6719,176.4063 757.1875,176.7656 Q756.7188,177.125 756.7188,177.7813 Q756.7188,178.2969 757.0625,178.6406 Q757.4063,178.9688 758.5,179.375 L759.5625,179.7813 Q761.0469,180.3281 761.75,181.2344 Q762.4688,182.1406 762.4688,183.5156 Q762.4688,185.3906 761.3594,186.3125 Q760.25,187.2344 758,187.2344 Q757.0781,187.2344 756.1563,187.0156 Q755.2344,186.7969 754.375,186.375 L754.375,183.8438 Q755.3438,184.5313 756.2656,184.875 Q757.1875,185.2188 758.0781,185.2188 Q758.9844,185.2188 759.4844,184.8125 Q759.9844,184.3906 759.9844,183.6563 Q759.9844,183.0938 759.6406,182.6875 Q759.3125,182.2656 758.6875,182.0156 L757.4844,181.5625 Z " fill="#000000"/><text fill="#000000" font-family="sans-serif" font-size="14" lengthAdjust="spacing" textLength="204" x="772" y="185.8467">WaitGroupCompletionHandler</text><line style="stroke:#181818;stroke-width:0.5;" x1="744" x2="978" y1="197" y2="197"/><rect fill="none" height="6" style="stroke:#C82930;stroke-width:1.0;" width="6" x="751" y="207.6484"/><text fill="#000000" font-family="sans-serif" font-size="14" lengthAdjust="spacing" textLength="132" x="763" y="213.9951">sync.WaitGroup wg</text><rect fill="none" height="6" style="stroke:#C82930;stroke-width:1.0;" width="6" x="751" y="223.9453"/><text fill="#000000" font-family="sans-serif" font-size="14" lengthAdjust="spacing" textLength="58" x="763" y="230.292">any data</text><rect fill="none" height="6" style="stroke:#C82930;stroke-width:1.0;" width="6" x="751" y="240.2422"/><text fill="#000000" font-family="sans-serif" font-size="14" lengthAdjust="spacing" textLength="70" x="763" y="246.5889">error error</text><rect fill="none" height="6" style="stroke:#C82930;stroke-width:1.0;" width="6" x="751" y="256.5391"/><text fill="#000000" font-family="sans-serif" font-size="14" lengthAdjust="spacing" textLength="112" x="763" y="262.8857">bool isComplete</text><line style="stroke:#181818;stroke-width:0.5;" x1="744" x2="978" y1="270.1875" y2="270.1875"/><ellipse cx="754" cy="283.8359" fill="#84BE84" rx="3" ry="3" style="stroke:#038048;stroke-width:1.0;"/><text fill="#000000" font-family="sans-serif" font-size="14" lengthAdjust="spacing" textLength="179" x="763" y="287.1826">error Complete(any, error)</text></g><!--class AppData--><g id="elem_AppData"><rect codeLine="26" fill="#F1F1F1" height="113.1875" id="AppData" rx="2.5" ry="2.5" style="stroke:#181818;stroke-width:0.5;" width="329" x="1014.5" y="173"/><ellipse cx="1145.25" cy="189" fill="#F1F1F1" rx="11" ry="11" style="stroke:#181818;stroke-width:1.0;"/><path d="M1144.7344,189.5625 Q1142.875,188.8594 1142.2188,188.0938 Q1141.5781,187.3125 1141.5781,186 Q1141.5781,184.3125 1142.6563,183.3438 Q1143.7344,182.375 1145.6094,182.375 Q1146.4688,182.375 1147.3125,182.5781 Q1148.1719,182.7656 1149.0156,183.1563 L1149.0156,185.5469 Q1148.2344,184.9844 1147.4063,184.7031 Q1146.5938,184.4063 1145.7969,184.4063 Q1144.9219,184.4063 1144.4375,184.7656 Q1143.9688,185.125 1143.9688,185.7813 Q1143.9688,186.2969 1144.3125,186.6406 Q1144.6563,186.9688 1145.75,187.375 L1146.8125,187.7813 Q1148.2969,188.3281 1149,189.2344 Q1149.7188,190.1406 1149.7188,191.5156 Q1149.7188,193.3906 1148.6094,194.3125 Q1147.5,195.2344 1145.25,195.2344 Q1144.3281,195.2344 1143.4063,195.0156 Q1142.4844,194.7969 1141.625,194.375 L1141.625,191.8438 Q1142.5938,192.5313 1143.5156,192.875 Q1144.4375,193.2188 1145.3281,193.2188 Q1146.2344,193.2188 1146.7344,192.8125 Q1147.2344,192.3906 1147.2344,191.6563 Q1147.2344,191.0938 1146.8906,190.6875 Q1146.5625,190.2656 1145.9375,190.0156 L1144.7344,189.5625 Z " fill="#000000"/><text fill="#000000" font-family="sans-serif" font-size="14" lengthAdjust="spacing" textLength="59" x="1165.75" y="193.8467">AppData</text><line style="stroke:#181818;stroke-width:0.5;" x1="1015.5" x2="1342.5" y1="205" y2="205"/><rect fill="none" height="6" style="stroke:#C82930;stroke-width:1.0;" width="6" x="1022.5" y="215.6484"/><text fill="#000000" font-family="sans-serif" font-size="14" lengthAdjust="spacing" textLength="58" x="1034.5" y="221.9951">any data</text><ellipse cx="1025.5" cy="234.9453" fill="none" rx="3" ry="3" style="stroke:#038048;stroke-width:1.0;"/><text fill="#000000" font-family="sans-serif" font-size="14" lengthAdjust="spacing" textLength="266" x="1034.5" y="238.292">CompletionHandler completionHandler</text><line style="stroke:#181818;stroke-width:0.5;" x1="1015.5" x2="1342.5" y1="245.5938" y2="245.5938"/><ellipse cx="1025.5" cy="259.2422" fill="#84BE84" rx="3" ry="3" style="stroke:#038048;stroke-width:1.0;"/><text fill="#000000" font-family="sans-serif" font-size="14" lengthAdjust="spacing" textLength="95" x="1034.5" y="262.5889">any GetData()</text><ellipse cx="1025.5" cy="275.5391" fill="#84BE84" rx="3" ry="3" style="stroke:#038048;stroke-width:1.0;"/><text fill="#000000" font-family="sans-serif" font-size="14" lengthAdjust="spacing" textLength="303" x="1034.5" y="278.8857">CompletionHandler GetCompletionHandler()</text></g><!--class Server--><g id="elem_Server"><rect codeLine="32" fill="#F1F1F1" height="80.5938" id="Server" rx="2.5" ry="2.5" style="stroke:#181818;stroke-width:0.5;" width="158" x="739" y="478"/><ellipse cx="791.75" cy="494" fill="#B4A7E5" rx="11" ry="11" style="stroke:#181818;stroke-width:1.0;"/><path d="M787.6719,489.7656 L787.6719,487.6094 L795.0625,487.6094 L795.0625,489.7656 L792.5938,489.7656 L792.5938,497.8438 L795.0625,497.8438 L795.0625,500 L787.6719,500 L787.6719,497.8438 L790.1406,497.8438 L790.1406,489.7656 L787.6719,489.7656 Z " fill="#000000"/><text fill="#000000" font-family="sans-serif" font-size="14" font-style="italic" lengthAdjust="spacing" textLength="44" x="812.25" y="498.8467">Server</text><line style="stroke:#181818;stroke-width:0.5;" x1="740" x2="896" y1="510" y2="510"/><line style="stroke:#181818;stroke-width:0.5;" x1="740" x2="896" y1="518" y2="518"/><ellipse cx="750" cy="531.6484" fill="#84BE84" rx="3" ry="3" style="stroke:#038048;stroke-width:1.0;"/><text fill="#000000" font-family="sans-serif" font-size="14" lengthAdjust="spacing" textLength="86" x="759" y="534.9951">error Serve()</text><ellipse cx="750" cy="547.9453" fill="#84BE84" rx="3" ry="3" style="stroke:#038048;stroke-width:1.0;"/><text fill="#000000" font-family="sans-serif" font-size="14" lengthAdjust="spacing" textLength="132" x="759" y="551.292">error Setup(Config)</text></g><!--class Pullable--><g id="elem_Pullable"><rect codeLine="36" fill="#F1F1F1" height="64.2969" id="Pullable" rx="2.5" ry="2.5" style="stroke:#181818;stroke-width:0.5;" width="228" x="1015" y="486.5"/><ellipse cx="1098.25" cy="502.5" fill="#B4A7E5" rx="11" ry="11" style="stroke:#181818;stroke-width:1.0;"/><path d="M1094.1719,498.2656 L1094.1719,496.1094 L1101.5625,496.1094 L1101.5625,498.2656 L1099.0938,498.2656 L1099.0938,506.3438 L1101.5625,506.3438 L1101.5625,508.5 L1094.1719,508.5 L1094.1719,506.3438 L1096.6406,506.3438 L1096.6406,498.2656 L1094.1719,498.2656 Z " fill="#000000"/><text fill="#000000" font-family="sans-serif" font-size="14" font-style="italic" lengthAdjust="spacing" textLength="53" x="1118.75" y="507.3467">Pullable</text><line style="stroke:#181818;stroke-width:0.5;" x1="1016" x2="1242" y1="518.5" y2="518.5"/><line style="stroke:#181818;stroke-width:0.5;" x1="1016" x2="1242" y1="526.5" y2="526.5"/><ellipse cx="1026" cy="540.1484" fill="#84BE84" rx="3" ry="3" style="stroke:#038048;stroke-width:1.0;"/><text fill="#000000" font-family="sans-serif" font-size="14" lengthAdjust="spacing" textLength="202" x="1035" y="543.4951">error AddPushable(Pushable)</text></g><!--class Pushable--><g id="elem_Pushable"><rect codeLine="39" fill="#F1F1F1" height="64.2969" id="Pushable" rx="2.5" ry="2.5" style="stroke:#181818;stroke-width:0.5;" width="193" x="1082.5" y="354"/><ellipse cx="1142.75" cy="370" fill="#B4A7E5" rx="11" ry="11" style="stroke:#181818;stroke-width:1.0;"/><path d="M1138.6719,365.7656 L1138.6719,363.6094 L1146.0625,363.6094 L1146.0625,365.7656 L1143.5938,365.7656 L1143.5938,373.8438 L1146.0625,373.8438 L1146.0625,376 L1138.6719,376 L1138.6719,373.8438 L1141.1406,373.8438 L1141.1406,365.7656 L1138.6719,365.7656 Z " fill="#000000"/><text fill="#000000" font-family="sans-serif" font-size="14" font-style="italic" lengthAdjust="spacing" textLength="64" x="1163.25" y="374.8467">Pushable</text><line style="stroke:#181818;stroke-width:0.5;" x1="1083.5" x2="1274.5" y1="386" y2="386"/><line style="stroke:#181818;stroke-width:0.5;" x1="1083.5" x2="1274.5" y1="394" y2="394"/><ellipse cx="1093.5" cy="407.6484" fill="#84BE84" rx="3" ry="3" style="stroke:#038048;stroke-width:1.0;"/><text fill="#000000" font-family="sans-serif" font-size="14" lengthAdjust="spacing" textLength="167" x="1102.5" y="410.9951">error SendTo(*AppData)</text></g><!--class SourceServer--><g id="elem_SourceServer"><rect codeLine="42" fill="#F1F1F1" height="96.8906" id="SourceServer" rx="2.5" ry="2.5" style="stroke:#181818;stroke-width:0.5;" width="228" x="902" y="627"/><ellipse cx="965.25" cy="643" fill="#B4A7E5" rx="11" ry="11" style="stroke:#181818;stroke-width:1.0;"/><path d="M961.1719,638.7656 L961.1719,636.6094 L968.5625,636.6094 L968.5625,638.7656 L966.0938,638.7656 L966.0938,646.8438 L968.5625,646.8438 L968.5625,649 L961.1719,649 L961.1719,646.8438 L963.6406,646.8438 L963.6406,638.7656 L961.1719,638.7656 Z " fill="#000000"/><text fill="#000000" font-family="sans-serif" font-size="14" font-style="italic" lengthAdjust="spacing" textLength="93" x="985.75" y="647.8467">SourceServer</text><line style="stroke:#181818;stroke-width:0.5;" x1="903" x2="1129" y1="659" y2="659"/><line style="stroke:#181818;stroke-width:0.5;" x1="903" x2="1129" y1="667" y2="667"/><ellipse cx="913" cy="680.6484" fill="#84BE84" rx="3" ry="3" style="stroke:#038048;stroke-width:1.0;"/><text fill="#000000" font-family="sans-serif" font-size="14" lengthAdjust="spacing" textLength="202" x="922" y="683.9951">error AddPushable(Pushable)</text><ellipse cx="913" cy="696.9453" fill="#84BE84" rx="3" ry="3" style="stroke:#038048;stroke-width:1.0;"/><text fill="#000000" font-family="sans-serif" font-size="14" lengthAdjust="spacing" textLength="86" x="922" y="700.292">error Serve()</text><ellipse cx="913" cy="713.2422" fill="#84BE84" rx="3" ry="3" style="stroke:#038048;stroke-width:1.0;"/><text fill="#000000" font-family="sans-serif" font-size="14" lengthAdjust="spacing" textLength="132" x="922" y="716.5889">error Setup(Config)</text></g><!--class SinkServer--><g id="elem_SinkServer"><rect codeLine="47" fill="#F1F1F1" height="96.8906" id="SinkServer" rx="2.5" ry="2.5" style="stroke:#181818;stroke-width:0.5;" width="193" x="295.5" y="627"/><ellipse cx="351.25" cy="643" fill="#B4A7E5" rx="11" ry="11" style="stroke:#181818;stroke-width:1.0;"/><path d="M347.1719,638.7656 L347.1719,636.6094 L354.5625,636.6094 L354.5625,638.7656 L352.0938,638.7656 L352.0938,646.8438 L354.5625,646.8438 L354.5625,649 L347.1719,649 L347.1719,646.8438 L349.6406,646.8438 L349.6406,638.7656 L347.1719,638.7656 Z " fill="#000000"/><text fill="#000000" font-family="sans-serif" font-size="14" font-style="italic" lengthAdjust="spacing" textLength="73" x="371.75" y="647.8467">SinkServer</text><line style="stroke:#181818;stroke-width:0.5;" x1="296.5" x2="487.5" y1="659" y2="659"/><line style="stroke:#181818;stroke-width:0.5;" x1="296.5" x2="487.5" y1="667" y2="667"/><ellipse cx="306.5" cy="680.6484" fill="#84BE84" rx="3" ry="3" style="stroke:#038048;stroke-width:1.0;"/><text fill="#000000" font-family="sans-serif" font-size="14" lengthAdjust="spacing" textLength="167" x="315.5" y="683.9951">error SendTo(*AppData)</text><ellipse cx="306.5" cy="696.9453" fill="#84BE84" rx="3" ry="3" style="stroke:#038048;stroke-width:1.0;"/><text fill="#000000" font-family="sans-serif" font-size="14" lengthAdjust="spacing" textLength="86" x="315.5" y="700.292">error Serve()</text><ellipse cx="306.5" cy="713.2422" fill="#84BE84" rx="3" ry="3" style="stroke:#038048;stroke-width:1.0;"/><text fill="#000000" font-family="sans-serif" font-size="14" lengthAdjust="spacing" textLength="132" x="315.5" y="716.5889">error Setup(Config)</text></g><!--class PipeServer--><g id="elem_PipeServer"><rect codeLine="52" fill="#F1F1F1" height="113.1875" id="PipeServer" rx="2.5" ry="2.5" style="stroke:#181818;stroke-width:0.5;" width="228" x="1165" y="619"/><ellipse cx="1237.75" cy="635" fill="#B4A7E5" rx="11" ry="11" style="stroke:#181818;stroke-width:1.0;"/><path d="M1233.6719,630.7656 L1233.6719,628.6094 L1241.0625,628.6094 L1241.0625,630.7656 L1238.5938,630.7656 L1238.5938,638.8438 L1241.0625,638.8438 L1241.0625,641 L1233.6719,641 L1233.6719,638.8438 L1236.1406,638.8438 L1236.1406,630.7656 L1233.6719,630.7656 Z " fill="#000000"/><text fill="#000000" font-family="sans-serif" font-size="14" font-style="italic" lengthAdjust="spacing" textLength="74" x="1258.25" y="639.8467">PipeServer</text><line style="stroke:#181818;stroke-width:0.5;" x1="1166" x2="1392" y1="651" y2="651"/><line style="stroke:#181818;stroke-width:0.5;" x1="1166" x2="1392" y1="659" y2="659"/><ellipse cx="1176" cy="672.6484" fill="#84BE84" rx="3" ry="3" style="stroke:#038048;stroke-width:1.0;"/><text fill="#000000" font-family="sans-serif" font-size="14" lengthAdjust="spacing" textLength="202" x="1185" y="675.9951">error AddPushable(Pushable)</text><ellipse cx="1176" cy="688.9453" fill="#84BE84" rx="3" ry="3" style="stroke:#038048;stroke-width:1.0;"/><text fill="#000000" font-family="sans-serif" font-size="14" lengthAdjust="spacing" textLength="167" x="1185" y="692.292">error SendTo(*AppData)</text><ellipse cx="1176" cy="705.2422" fill="#84BE84" rx="3" ry="3" style="stroke:#038048;stroke-width:1.0;"/><text fill="#000000" font-family="sans-serif" font-size="14" lengthAdjust="spacing" textLength="86" x="1185" y="708.5889">error Serve()</text><ellipse cx="1176" cy="721.5391" fill="#84BE84" rx="3" ry="3" style="stroke:#038048;stroke-width:1.0;"/><text fill="#000000" font-family="sans-serif" font-size="14" lengthAdjust="spacing" textLength="132" x="1185" y="724.8857">error Setup(Config)</text></g><!--class Producer--><g id="elem_Producer"><rect codeLine="58" fill="#F1F1F1" height="96.8906" id="Producer" rx="2.5" ry="2.5" style="stroke:#181818;stroke-width:0.5;" width="193" x="22.5" y="816.5"/><ellipse cx="83.25" cy="832.5" fill="#B4A7E5" rx="11" ry="11" style="stroke:#181818;stroke-width:1.0;"/><path d="M79.1719,828.2656 L79.1719,826.1094 L86.5625,826.1094 L86.5625,828.2656 L84.0938,828.2656 L84.0938,836.3438 L86.5625,836.3438 L86.5625,838.5 L79.1719,838.5 L79.1719,836.3438 L81.6406,836.3438 L81.6406,828.2656 L79.1719,828.2656 Z " fill="#000000"/><text fill="#000000" font-family="sans-serif" font-size="14" font-style="italic" lengthAdjust="spacing" textLength="63" x="103.75" y="837.3467">Producer</text><line style="stroke:#181818;stroke-width:0.5;" x1="23.5" x2="214.5" y1="848.5" y2="848.5"/><line style="stroke:#181818;stroke-width:0.5;" x1="23.5" x2="214.5" y1="856.5" y2="856.5"/><ellipse cx="33.5" cy="870.1484" fill="#84BE84" rx="3" ry="3" style="stroke:#038048;stroke-width:1.0;"/><text fill="#000000" font-family="sans-serif" font-size="14" lengthAdjust="spacing" textLength="167" x="42.5" y="873.4951">error SendTo(*AppData)</text><ellipse cx="33.5" cy="886.4453" fill="#84BE84" rx="3" ry="3" style="stroke:#038048;stroke-width:1.0;"/><text fill="#000000" font-family="sans-serif" font-size="14" lengthAdjust="spacing" textLength="86" x="42.5" y="889.792">error Serve()</text><ellipse cx="33.5" cy="902.7422" fill="#84BE84" rx="3" ry="3" style="stroke:#038048;stroke-width:1.0;"/><text fill="#000000" font-family="sans-serif" font-size="14" lengthAdjust="spacing" textLength="132" x="42.5" y="906.0889">error Setup(Config)</text></g><!--class HTTPProducer--><g id="elem_HTTPProducer"><rect codeLine="63" fill="#F1F1F1" height="129.4844" id="HTTPProducer" rx="2.5" ry="2.5" style="stroke:#181818;stroke-width:0.5;" width="216" x="307" y="998"/><ellipse cx="360.75" cy="1014" fill="#F1F1F1" rx="11" ry="11" style="stroke:#181818;stroke-width:1.0;"/><path d="M360.2344,1014.5625 Q358.375,1013.8594 357.7188,1013.0938 Q357.0781,1012.3125 357.0781,1011 Q357.0781,1009.3125 358.1563,1008.3438 Q359.2344,1007.375 361.1094,1007.375 Q361.9688,1007.375 362.8125,1007.5781 Q363.6719,1007.7656 364.5156,1008.1563 L364.5156,1010.5469 Q363.7344,1009.9844 362.9063,1009.7031 Q362.0938,1009.4063 361.2969,1009.4063 Q360.4219,1009.4063 359.9375,1009.7656 Q359.4688,1010.125 359.4688,1010.7813 Q359.4688,1011.2969 359.8125,1011.6406 Q360.1563,1011.9688 361.25,1012.375 L362.3125,1012.7813 Q363.7969,1013.3281 364.5,1014.2344 Q365.2188,1015.1406 365.2188,1016.5156 Q365.2188,1018.3906 364.1094,1019.3125 Q363,1020.2344 360.75,1020.2344 Q359.8281,1020.2344 358.9063,1020.0156 Q357.9844,1019.7969 357.125,1019.375 L357.125,1016.8438 Q358.0938,1017.5313 359.0156,1017.875 Q359.9375,1018.2188 360.8281,1018.2188 Q361.7344,1018.2188 362.2344,1017.8125 Q362.7344,1017.3906 362.7344,1016.6563 Q362.7344,1016.0938 362.3906,1015.6875 Q362.0625,1015.2656 361.4375,1015.0156 L360.2344,1014.5625 Z " fill="#000000"/><text fill="#000000" font-family="sans-serif" font-size="14" lengthAdjust="spacing" textLength="100" x="381.25" y="1018.8467">HTTPProducer</text><line style="stroke:#181818;stroke-width:0.5;" x1="308" x2="522" y1="1030" y2="1030"/><rect fill="none" height="6" style="stroke:#C82930;stroke-width:1.0;" width="6" x="315" y="1040.6484"/><text fill="#000000" font-family="sans-serif" font-size="14" lengthAdjust="spacing" textLength="190" x="327" y="1046.9951">HTTPProducerConfig config</text><rect fill="none" height="6" style="stroke:#C82930;stroke-width:1.0;" width="6" x="315" y="1056.9453"/><text fill="#000000" font-family="sans-serif" font-size="14" lengthAdjust="spacing" textLength="142" x="327" y="1063.292">http.Client httpClient</text><line style="stroke:#181818;stroke-width:0.5;" x1="308" x2="522" y1="1070.5938" y2="1070.5938"/><ellipse cx="318" cy="1084.2422" fill="#84BE84" rx="3" ry="3" style="stroke:#038048;stroke-width:1.0;"/><text fill="#000000" font-family="sans-serif" font-size="14" lengthAdjust="spacing" textLength="167" x="327" y="1087.5889">error SendTo(*AppData)</text><ellipse cx="318" cy="1100.5391" fill="#84BE84" rx="3" ry="3" style="stroke:#038048;stroke-width:1.0;"/><text fill="#000000" font-family="sans-serif" font-size="14" lengthAdjust="spacing" textLength="86" x="327" y="1103.8857">error Serve()</text><ellipse cx="318" cy="1116.8359" fill="#84BE84" rx="3" ry="3" style="stroke:#038048;stroke-width:1.0;"/><text fill="#000000" font-family="sans-serif" font-size="14" lengthAdjust="spacing" textLength="132" x="327" y="1120.1826">error Setup(Config)</text></g><!--class Consumer--><g id="elem_Consumer"><rect codeLine="70" fill="#F1F1F1" height="96.8906" id="Consumer" rx="2.5" ry="2.5" style="stroke:#181818;stroke-width:0.5;" width="228" x="1165" y="816.5"/><ellipse cx="1238.75" cy="832.5" fill="#B4A7E5" rx="11" ry="11" style="stroke:#181818;stroke-width:1.0;"/><path d="M1234.6719,828.2656 L1234.6719,826.1094 L1242.0625,826.1094 L1242.0625,828.2656 L1239.5938,828.2656 L1239.5938,836.3438 L1242.0625,836.3438 L1242.0625,838.5 L1234.6719,838.5 L1234.6719,836.3438 L1237.1406,836.3438 L1237.1406,828.2656 L1234.6719,828.2656 Z " fill="#000000"/><text fill="#000000" font-family="sans-serif" font-size="14" font-style="italic" lengthAdjust="spacing" textLength="72" x="1259.25" y="837.3467">Consumer</text><line style="stroke:#181818;stroke-width:0.5;" x1="1166" x2="1392" y1="848.5" y2="848.5"/><line style="stroke:#181818;stroke-width:0.5;" x1="1166" x2="1392" y1="856.5" y2="856.5"/><ellipse cx="1176" cy="870.1484" fill="#84BE84" rx="3" ry="3" style="stroke:#038048;stroke-width:1.0;"/><text fill="#000000" font-family="sans-serif" font-size="14" lengthAdjust="spacing" textLength="202" x="1185" y="873.4951">error AddPushable(Pushable)</text><ellipse cx="1176" cy="886.4453" fill="#84BE84" rx="3" ry="3" style="stroke:#038048;stroke-width:1.0;"/><text fill="#000000" font-family="sans-serif" font-size="14" lengthAdjust="spacing" textLength="86" x="1185" y="889.792">error Serve()</text><ellipse cx="1176" cy="902.7422" fill="#84BE84" rx="3" ry="3" style="stroke:#038048;stroke-width:1.0;"/><text fill="#000000" font-family="sans-serif" font-size="14" lengthAdjust="spacing" textLength="132" x="1185" y="906.0889">error Setup(Config)</text></g><!--class MapSinkServer--><g id="elem_MapSinkServer"><rect codeLine="75" fill="#F1F1F1" height="113.1875" id="MapSinkServer" rx="2.5" ry="2.5" style="stroke:#181818;stroke-width:0.5;" width="283" x="250.5" y="808.5"/><ellipse cx="336.75" cy="824.5" fill="#F1F1F1" rx="11" ry="11" style="stroke:#181818;stroke-width:1.0;"/><path d="M336.2344,825.0625 Q334.375,824.3594 333.7188,823.5938 Q333.0781,822.8125 333.0781,821.5 Q333.0781,819.8125 334.1563,818.8438 Q335.2344,817.875 337.1094,817.875 Q337.9688,817.875 338.8125,818.0781 Q339.6719,818.2656 340.5156,818.6563 L340.5156,821.0469 Q339.7344,820.4844 338.9063,820.2031 Q338.0938,819.9063 337.2969,819.9063 Q336.4219,819.9063 335.9375,820.2656 Q335.4688,820.625 335.4688,821.2813 Q335.4688,821.7969 335.8125,822.1406 Q336.1563,822.4688 337.25,822.875 L338.3125,823.2813 Q339.7969,823.8281 340.5,824.7344 Q341.2188,825.6406 341.2188,827.0156 Q341.2188,828.8906 340.1094,829.8125 Q339,830.7344 336.75,830.7344 Q335.8281,830.7344 334.9063,830.5156 Q333.9844,830.2969 333.125,829.875 L333.125,827.3438 Q334.0938,828.0313 335.0156,828.375 Q335.9375,828.7188 336.8281,828.7188 Q337.7344,828.7188 338.2344,828.3125 Q338.7344,827.8906 338.7344,827.1563 Q338.7344,826.5938 338.3906,826.1875 Q338.0625,825.7656 337.4375,825.5156 L336.2344,825.0625 Z " fill="#000000"/><text fill="#000000" font-family="sans-serif" font-size="14" lengthAdjust="spacing" textLength="102" x="357.25" y="829.3467">MapSinkServer</text><line style="stroke:#181818;stroke-width:0.5;" x1="251.5" x2="532.5" y1="840.5" y2="840.5"/><rect fill="none" height="6" style="stroke:#C82930;stroke-width:1.0;" width="6" x="258.5" y="851.1484"/><text fill="#000000" font-family="sans-serif" font-size="14" lengthAdjust="spacing" textLength="257" x="270.5" y="857.4951">map[string]SinkServer sinkServerMap</text><line style="stroke:#181818;stroke-width:0.5;" x1="251.5" x2="532.5" y1="864.7969" y2="864.7969"/><ellipse cx="261.5" cy="878.4453" fill="#84BE84" rx="3" ry="3" style="stroke:#038048;stroke-width:1.0;"/><text fill="#000000" font-family="sans-serif" font-size="14" lengthAdjust="spacing" textLength="167" x="270.5" y="881.792">error SendTo(*AppData)</text><ellipse cx="261.5" cy="894.7422" fill="#84BE84" rx="3" ry="3" style="stroke:#038048;stroke-width:1.0;"/><text fill="#000000" font-family="sans-serif" font-size="14" lengthAdjust="spacing" textLength="86" x="270.5" y="898.0889">error Serve()</text><ellipse cx="261.5" cy="911.0391" fill="#84BE84" rx="3" ry="3" style="stroke:#038048;stroke-width:1.0;"/><text fill="#000000" font-family="sans-serif" font-size="14" lengthAdjust="spacing" textLength="132" x="270.5" y="914.3857">error Setup(Config)</text></g><!--class Config--><g id="elem_Config"><rect codeLine="81" fill="#F1F1F1" height="64.2969" id="Config" rx="2.5" ry="2.5" style="stroke:#181818;stroke-width:0.5;" width="263" x="603.5" y="643.5"/><ellipse cx="708.75" cy="659.5" fill="#B4A7E5" rx="11" ry="11" style="stroke:#181818;stroke-width:1.0;"/><path d="M704.6719,655.2656 L704.6719,653.1094 L712.0625,653.1094 L712.0625,655.2656 L709.5938,655.2656 L709.5938,663.3438 L712.0625,663.3438 L712.0625,665.5 L704.6719,665.5 L704.6719,663.3438 L707.1406,663.3438 L707.1406,655.2656 L704.6719,655.2656 Z " fill="#000000"/><text fill="#000000" font-family="sans-serif" font-size="14" font-style="italic" lengthAdjust="spacing" textLength="44" x="729.25" y="664.3467">Config</text><line style="stroke:#181818;stroke-width:0.5;" x1="604.5" x2="865.5" y1="675.5" y2="675.5"/><line style="stroke:#181818;stroke-width:0.5;" x1="604.5" x2="865.5" y1="683.5" y2="683.5"/><ellipse cx="614.5" cy="697.1484" fill="#84BE84" rx="3" ry="3" style="stroke:#038048;stroke-width:1.0;"/><text fill="#000000" font-family="sans-serif" font-size="14" lengthAdjust="spacing" textLength="237" x="623.5" y="700.4951">error IngestConfig(map[string]any)</text></g><!--class HTTPProducerConfig--><g id="elem_HTTPProducerConfig"><rect codeLine="84" fill="#F1F1F1" height="113.1875" id="HTTPProducerConfig" rx="2.5" ry="2.5" style="stroke:#181818;stroke-width:0.5;" width="263" x="568.5" y="808.5"/><ellipse cx="623.75" cy="824.5" fill="#F1F1F1" rx="11" ry="11" style="stroke:#181818;stroke-width:1.0;"/><path d="M623.2344,825.0625 Q621.375,824.3594 620.7188,823.5938 Q620.0781,822.8125 620.0781,821.5 Q620.0781,819.8125 621.1563,818.8438 Q622.2344,817.875 624.1094,817.875 Q624.9688,817.875 625.8125,818.0781 Q626.6719,818.2656 627.5156,818.6563 L627.5156,821.0469 Q626.7344,820.4844 625.9063,820.2031 Q625.0938,819.9063 624.2969,819.9063 Q623.4219,819.9063 622.9375,820.2656 Q622.4688,820.625 622.4688,821.2813 Q622.4688,821.7969 622.8125,822.1406 Q623.1563,822.4688 624.25,822.875 L625.3125,823.2813 Q626.7969,823.8281 627.5,824.7344 Q628.2188,825.6406 628.2188,827.0156 Q628.2188,828.8906 627.1094,829.8125 Q626,830.7344 623.75,830.7344 Q622.8281,830.7344 621.9063,830.5156 Q620.9844,830.2969 620.125,829.875 L620.125,827.3438 Q621.0938,828.0313 622.0156,828.375 Q622.9375,828.7188 623.8281,828.7188 Q624.7344,828.7188 625.2344,828.3125 Q625.7344,827.8906 625.7344,827.1563 Q625.7344,826.5938 625.3906,826.1875 Q625.0625,825.7656 624.4375,825.5156 L623.2344,825.0625 Z " fill="#000000"/><text fill="#000000" font-family="sans-serif" font-size="14" lengthAdjust="spacing" textLength="144" x="644.25" y="829.3467">HTTPProducerConfig</text><line style="stroke:#181818;stroke-width:0.5;" x1="569.5" x2="830.5" y1="840.5" y2="840.5"/><ellipse cx="579.5" cy="854.1484" fill="none" rx="3" ry="3" style="stroke:#038048;stroke-width:1.0;"/><text fill="#000000" font-family="sans-serif" font-size="14" lengthAdjust="spacing" textLength="70" x="588.5" y="857.4951">string URL</text><ellipse cx="579.5" cy="870.4453" fill="none" rx="3" ry="3" style="stroke:#038048;stroke-width:1.0;"/><text fill="#000000" font-family="sans-serif" font-size="14" lengthAdjust="spacing" textLength="102" x="588.5" y="873.792">int NumRetries</text><ellipse cx="579.5" cy="886.7422" fill="none" rx="3" ry="3" style="stroke:#038048;stroke-width:1.0;"/><text fill="#000000" font-family="sans-serif" font-size="14" lengthAdjust="spacing" textLength="78" x="588.5" y="890.0889">int Timeout</text><line style="stroke:#181818;stroke-width:0.5;" x1="569.5" x2="830.5" y1="897.3906" y2="897.3906"/><ellipse cx="579.5" cy="911.0391" fill="#84BE84" rx="3" ry="3" style="stroke:#038048;stroke-width:1.0;"/><text fill="#000000" font-family="sans-serif" font-size="14" lengthAdjust="spacing" textLength="237" x="588.5" y="914.3857">error IngestConfig(map[string]any)</text></g><!--class SelectProducerConfig--><g id="elem_SelectProducerConfig"><rect codeLine="90" fill="#F1F1F1" height="113.1875" id="SelectProducerConfig" rx="2.5" ry="2.5" style="stroke:#181818;stroke-width:0.5;" width="263" x="866.5" y="808.5"/><ellipse cx="918.75" cy="824.5" fill="#F1F1F1" rx="11" ry="11" style="stroke:#181818;stroke-width:1.0;"/><path d="M918.2344,825.0625 Q916.375,824.3594 915.7188,823.5938 Q915.0781,822.8125 915.0781,821.5 Q915.0781,819.8125 916.1563,818.8438 Q917.2344,817.875 919.1094,817.875 Q919.9688,817.875 920.8125,818.0781 Q921.6719,818.2656 922.5156,818.6563 L922.5156,821.0469 Q921.7344,820.4844 920.9063,820.2031 Q920.0938,819.9063 919.2969,819.9063 Q918.4219,819.9063 917.9375,820.2656 Q917.4688,820.625 917.4688,821.2813 Q917.4688,821.7969 917.8125,822.1406 Q918.1563,822.4688 919.25,822.875 L920.3125,823.2813 Q921.7969,823.8281 922.5,824.7344 Q923.2188,825.6406 923.2188,827.0156 Q923.2188,828.8906 922.1094,829.8125 Q921,830.7344 918.75,830.7344 Q917.8281,830.7344 916.9063,830.5156 Q915.9844,830.2969 915.125,829.875 L915.125,827.3438 Q916.0938,828.0313 917.0156,828.375 Q917.9375,828.7188 918.8281,828.7188 Q919.7344,828.7188 920.2344,828.3125 Q920.7344,827.8906 920.7344,827.1563 Q920.7344,826.5938 920.3906,826.1875 Q920.0625,825.7656 919.4375,825.5156 L918.2344,825.0625 Z " fill="#000000"/><text fill="#000000" font-family="sans-serif" font-size="14" lengthAdjust="spacing" textLength="150" x="939.25" y="829.3467">SelectProducerConfig</text><line style="stroke:#181818;stroke-width:0.5;" x1="867.5" x2="1128.5" y1="840.5" y2="840.5"/><ellipse cx="877.5" cy="854.1484" fill="none" rx="3" ry="3" style="stroke:#038048;stroke-width:1.0;"/><text fill="#000000" font-family="sans-serif" font-size="14" lengthAdjust="spacing" textLength="72" x="886.5" y="857.4951">string Map</text><ellipse cx="877.5" cy="870.4453" fill="none" rx="3" ry="3" style="stroke:#038048;stroke-width:1.0;"/><text fill="#000000" font-family="sans-serif" font-size="14" lengthAdjust="spacing" textLength="77" x="886.5" y="873.792">string Type</text><ellipse cx="877.5" cy="886.7422" fill="none" rx="3" ry="3" style="stroke:#038048;stroke-width:1.0;"/><text fill="#000000" font-family="sans-serif" font-size="14" lengthAdjust="spacing" textLength="155" x="886.5" y="890.0889">Config ProducerConfig</text><line style="stroke:#181818;stroke-width:0.5;" x1="867.5" x2="1128.5" y1="897.3906" y2="897.3906"/><ellipse cx="877.5" cy="911.0391" fill="#84BE84" rx="3" ry="3" style="stroke:#038048;stroke-width:1.0;"/><text fill="#000000" font-family="sans-serif" font-size="14" lengthAdjust="spacing" textLength="237" x="886.5" y="914.3857">error IngestConfig(map[string]any)</text></g><!--reverse link CompletionHandler to WaitGroupCompletionHandler--><g id="link_CompletionHandler_WaitGroupCompletionHandler"><path codeLine="97" d="M974.91,117.8132 C957.31,134.9132 947.75,144.21 926.63,164.73 " fill="none" id="CompletionHandler-backto-WaitGroupCompletionHandler" style="stroke:#181818;stroke-width:1.0;"/><polygon fill="none" points="987.82,105.27,970.7289,113.5099,979.0911,122.1165,987.82,105.27" style="stroke:#181818;stroke-width:1.0;"/></g><!--reverse link CompletionHandler to AppData--><g id="link_CompletionHandler_AppData"><path codeLine="98" d="M1060.7873,113.6315 C1080.7473,133.0215 1098.36,150.14 1121.78,172.9 " fill="none" id="CompletionHandler-backto-AppData" style="stroke:#181818;stroke-width:1.0;"/><polygon fill="#181818" points="1052.18,105.27,1053.6965,112.3198,1060.7873,113.6315,1059.2708,106.5816,1052.18,105.27" style="stroke:#181818;stroke-width:1.0;"/></g><!--reverse link AppData to Pushable--><g id="link_AppData_Pushable"><path codeLine="99" d="M1179,298.28 C1179,320.92 1179,334.24 1179,353.57 " fill="none" id="AppData-backto-Pushable" style="stroke:#181818;stroke-width:1.0;"/><polygon fill="#181818" points="1179,286.28,1175,292.28,1179,298.28,1183,292.28,1179,286.28" style="stroke:#181818;stroke-width:1.0;"/></g><!--reverse link Server to SourceServer--><g id="link_Server_SourceServer"><path codeLine="100" d="M882.6529,570.1063 C909.0029,590.7363 927.27,605.04 955.02,626.76 " fill="none" id="Server-backto-SourceServer" style="stroke:#181818;stroke-width:1.0;"/><polygon fill="none" points="868.48,559.01,878.9542,574.8306,886.3517,565.382,868.48,559.01" style="stroke:#181818;stroke-width:1.0;"/></g><!--reverse link Pushable to Pullable--><g id="link_Pushable_Pullable"><path codeLine="101" d="M1162.7293,429.4667 C1154.8193,450.1267 1148.77,465.89 1140.88,486.5 " fill="none" id="Pushable-backto-Pullable" style="stroke:#181818;stroke-width:1.0;"/><polygon fill="#181818" points="1167.02,418.26,1161.1391,422.4331,1162.7293,429.4667,1168.6102,425.2936,1167.02,418.26" style="stroke:#181818;stroke-width:1.0;"/></g><!--reverse link Pullable to SourceServer--><g id="link_Pullable_SourceServer"><path codeLine="102" d="M1095.5259,565.4149 C1079.5959,587.2649 1068.67,602.26 1050.64,626.98 " fill="none" id="Pullable-backto-SourceServer" style="stroke:#181818;stroke-width:1.0;"/><polygon fill="none" points="1106.13,550.87,1090.6776,561.8802,1100.3742,568.9496,1106.13,550.87" style="stroke:#181818;stroke-width:1.0;"/></g><!--reverse link Server to SinkServer--><g id="link_Server_SinkServer"><path codeLine="103" d="M721.955,554.4448 C651.215,580.1848 564.26,611.82 488.63,639.34 " fill="none" id="Server-backto-SinkServer" style="stroke:#181818;stroke-width:1.0;"/><polygon fill="none" points="738.87,548.29,719.9034,548.8065,724.0066,560.0832,738.87,548.29" style="stroke:#181818;stroke-width:1.0;"/></g><!--reverse link Pushable to SinkServer--><g id="link_Pushable_SinkServer"><path codeLine="104" d="M1064.3938,398.7804 C970.0238,410.3504 841.5,432.09 722,478 C623.5,515.84 520.68,581.99 456.51,626.98 " fill="none" id="Pushable-backto-SinkServer" style="stroke:#181818;stroke-width:1.0;"/><polygon fill="none" points="1082.26,396.59,1063.6636,392.825,1065.1239,404.7359,1082.26,396.59" style="stroke:#181818;stroke-width:1.0;"/></g><!--reverse link Pushable to PipeServer--><g id="link_Pushable_PipeServer"><path codeLine="105" d="M1229.3867,430.7056 C1245.9767,446.7556 1251.03,455.2 1261,478 C1280.5,522.57 1283.9,578.15 1283.07,618.82 " fill="none" id="Pushable-backto-PipeServer" style="stroke:#181818;stroke-width:1.0;"/><polygon fill="none" points="1216.45,418.19,1225.2148,435.0179,1233.5586,426.3934,1216.45,418.19" style="stroke:#181818;stroke-width:1.0;"/></g><!--reverse link Pullable to PipeServer--><g id="link_Pullable_PipeServer"><path codeLine="106" d="M1171.8702,563.8023 C1190.7102,583.2623 1202.93,595.89 1225.02,618.72 " fill="none" id="Pullable-backto-PipeServer" style="stroke:#181818;stroke-width:1.0;"/><polygon fill="none" points="1159.35,550.87,1167.5595,567.9757,1176.181,559.6289,1159.35,550.87" style="stroke:#181818;stroke-width:1.0;"/></g><!--reverse link Server to PipeServer--><g id="link_Server_PipeServer"><path codeLine="107" d="M914.4632,545.588 C981.8132,564.298 1063.44,588.44 1148,619 C1153.58,621.01 1159.26,623.14 1164.97,625.34 " fill="none" id="Server-backto-PipeServer" style="stroke:#181818;stroke-width:1.0;"/><polygon fill="none" points="897.12,540.77,912.8572,551.3691,916.0692,539.8069,897.12,540.77" style="stroke:#181818;stroke-width:1.0;"/></g><!--reverse link SinkServer to Producer--><g id="link_SinkServer_Producer"><path codeLine="109" d="M278.9095,721.5476 C257.6195,731.5876 252.04,735.73 233,749 C205.79,767.97 179.44,793.89 158.94,816.31 " fill="none" id="SinkServer-backto-Producer" style="stroke:#181818;stroke-width:1.0;"/><polygon fill="none" points="295.19,713.87,276.3503,716.1208,281.4687,726.9744,295.19,713.87" style="stroke:#181818;stroke-width:1.0;"/></g><!--reverse link SinkServer to MapSinkServer--><g id="link_SinkServer_MapSinkServer"><path codeLine="110" d="M379.888,736.2711 C378.108,761.8811 378.78,781.59 380.23,808.3 " fill="none" id="SinkServer-backto-MapSinkServer" style="stroke:#181818;stroke-width:1.0;"/><polygon fill="#181818" points="380.72,724.3,376.3136,730.0082,379.888,736.2711,384.2944,730.5629,380.72,724.3" style="stroke:#181818;stroke-width:1.0;"/></g><!--reverse link SinkServer to MapSinkServer--><g id="link_SinkServer_MapSinkServer"><path codeLine="111" d="M405.2648,742.2512 C407.1548,767.8612 406,781.59 404.46,808.3 " fill="none" id="SinkServer-backto-MapSinkServer-1" style="stroke:#181818;stroke-width:1.0;"/><polygon fill="none" points="403.94,724.3,399.2811,742.6928,411.2485,741.8096,403.94,724.3" style="stroke:#181818;stroke-width:1.0;"/></g><!--reverse link SourceServer to Consumer--><g id="link_SourceServer_Consumer"><path codeLine="112" d="M1123.5814,733.3152 C1136.9314,741.1552 1134.76,740.42 1147,749 C1175.75,769.14 1205.43,794.52 1229.34,816.3 " fill="none" id="SourceServer-backto-Consumer" style="stroke:#181818;stroke-width:1.0;"/><polygon fill="none" points="1108.06,724.2,1120.543,738.489,1126.6198,728.1414,1108.06,724.2" style="stroke:#181818;stroke-width:1.0;"/></g><!--reverse link PipeServer to JQTransformer--><g id="link_PipeServer_JQTransformer"><path codeLine="114" d="M1410.8259,697.4712 C1543.8059,718.6512 1728.07,748.1 1730,749 C1752.71,759.64 1774.49,775.36 1793.58,791.79 " fill="none" id="PipeServer-backto-JQTransformer" style="stroke:#181818;stroke-width:1.0;"/><polygon fill="none" points="1393.05,694.64,1409.8822,703.3965,1411.7697,691.5459,1393.05,694.64" style="stroke:#181818;stroke-width:1.0;"/></g><!--reverse link Pushable to JQTransformer--><g id="link_Pushable_JQTransformer"><path codeLine="115" d="M1241.7736,424.3744 C1341.6436,484.4344 1554.46,615.84 1730,749 C1747.56,762.32 1765.75,777.32 1782.82,791.97 " fill="none" id="Pushable-backto-JQTransformer" style="stroke:#181818;stroke-width:1.0;"/><polygon fill="#181818" points="1231.49,418.19,1234.5704,424.7101,1241.7736,424.3744,1238.6933,417.8543,1231.49,418.19" style="stroke:#181818;stroke-width:1.0;"/></g><!--reverse link Server to Config--><g id="link_Server_Config"><path codeLine="118" d="M791.1766,569.5895 C777.1566,595.7795 764.67,619.08 751.67,643.36 " fill="none" id="Server-backto-Config" style="stroke:#181818;stroke-width:1.0;"/><polygon fill="#181818" points="796.84,559.01,790.4818,562.4119,791.1766,569.5895,797.5348,566.1876,796.84,559.01" style="stroke:#181818;stroke-width:1.0;"/></g><!--reverse link Config to JQTransformerConfig--><g id="link_Config_JQTransformerConfig"><path codeLine="119" d="M821.3887,714.0772 C846.2587,723.7372 858.02,726.72 885,732 C999.33,754.39 1298.08,713.36 1409,749 C1457.05,764.44 1504.17,797.57 1536.9,824.32 " fill="none" id="Config-backto-JQTransformerConfig" style="stroke:#181818;stroke-width:1.0;"/><polygon fill="none" points="804.61,707.56,819.2163,719.6701,823.5611,708.4843,804.61,707.56" style="stroke:#181818;stroke-width:1.0;"/></g><!--reverse link Config to HTTPProducerConfig--><g id="link_Config_HTTPProducerConfig"><path codeLine="120" d="M725.8369,725.5743 C720.7369,752.8943 716.53,775.44 710.41,808.22 " fill="none" id="Config-backto-HTTPProducerConfig" style="stroke:#181818;stroke-width:1.0;"/><polygon fill="none" points="729.14,707.88,719.9388,724.4733,731.735,726.6754,729.14,707.88" style="stroke:#181818;stroke-width:1.0;"/></g><!--reverse link Config to SelectProducerConfig--><g id="link_Config_SelectProducerConfig"><path codeLine="121" d="M801.4084,717.2148 C821.2884,729.6848 828.84,734.85 849,749 C875.48,767.58 903.76,788.99 928.49,808.26 " fill="none" id="Config-backto-SelectProducerConfig" style="stroke:#181818;stroke-width:1.0;"/><polygon fill="none" points="786.16,707.65,798.2202,722.2976,804.5967,712.132,786.16,707.65" style="stroke:#181818;stroke-width:1.0;"/></g><!--reverse link Producer to HTTPProducer--><g id="link_Producer_HTTPProducer"><path codeLine="122" d="M184.8387,925.4451 C203.6687,941.6351 211.86,947.53 233,962 C256.03,977.76 281.8,993.1 306.53,1006.82 " fill="none" id="Producer-backto-HTTPProducer" style="stroke:#181818;stroke-width:1.0;"/><polygon fill="none" points="171.19,913.71,180.927,929.9947,188.7504,920.8956,171.19,913.71" style="stroke:#181818;stroke-width:1.0;"/></g><!--reverse link HTTPProducerConfig to HTTPProducer--><g id="link_HTTPProducerConfig_HTTPProducer"><path codeLine="123" d="M608.8151,928.549 C574.1851,952.309 543.49,973.36 507.7,997.91 " fill="none" id="HTTPProducerConfig-backto-HTTPProducer" style="stroke:#181818;stroke-width:1.0;"/><polygon fill="#181818" points="618.71,921.76,611.4995,921.8562,608.8151,928.549,616.0255,928.4528,618.71,921.76" style="stroke:#181818;stroke-width:1.0;"/></g><!--SRC=[lLR1Sfim4Btp5JeIf_05lMJSJj9CcpendHuwFIWW4rAG526rzRZ-zmeGI4B2zf3M741QlTrzkrffmR12DOKf0hVhptVlVtC6KquOs0L0FZLd8kNWzZvX4DSRmYh4bWHlYbm1ckUoWlIRH1Ou_zvzfCAzG6oxRcUrHYB6fEqFE4Srx-o4XZB4suiMkvzqRhYDSlBy4Yz9Xi3pougHdC5ABwv4_GGVImIe6en9N6LPZmdxmSKOj4OuIqYukABq7UJGiyv-ej0ZveA6NO1zHFi03wbkrVfO2imHspJY9QbeYNX1y0t4MMb5gomh20fbhjw0LkP9sLTOy6j613raCQgtE8q7AFYLwoLf7MGoO2tftBTlBNmaf0H5tPEQHrRbrcJckBzq0qd74WrkrAyHRwoQU-FQa21769eKzTvOMpQl0co3Ar6MRO7kJgzCruOgyjr9XUl4H0HBqLHa9nwGcU6l2_nZEgV_xDIDybNGruRxlvWnaedq3CbGX-ucILOUdv4fLnTzsduqv8bp6Y_B0c4Ecd4tF5kcv5ejgdCLh4hN9qYz1HiPtSi0rCDGAfupCwF6FAVTUYh0iAZw-vU7Zrec6O0xKJqWkOPgMvuK5IA2luxI6fKevKT9MRbMicHBaTa1MbNRqWnk-w3RtTXjAM__H95g5l5q6vxMNsXrLI21FJKHVPNt45L-9WVpZWz6QhQfhXq5e_bHOpwVG_ax7cV0zALza9iByp0pG873maQg6l70ZAnPzy8HYtwisO9DT7_D3JoDtjNYhD_rsFf9zkxp8NmmIjd2uj6S4MjsbC2qaXAvbym1iE_u1wDjchGUJ7eqepHN_m80]--></g></svg>