<?xml version="1.0" encoding="us-ascii" standalone="no"?><svg xmlns="http://www.w3.org/2000/svg" xmlns:xlink="http://www.w3.org/1999/xlink" contentStyleType="text/css" height="555px" preserveAspectRatio="none" style="width:998px;height:555px;background:#FFFFFF;" version="1.1" viewBox="0 0 998 555" width="998px" zoomAndPan="magnify"><defs/><g><!--cluster Server--><g id="cluster_Server"><path d="M8.5,6 L62.5,6 A3.75,3.75 0 0 1 65,8.5 L72,28.2969 L791.5,28.2969 A2.5,2.5 0 0 1 794,30.7969 L794,151.5 A2.5,2.5 0 0 1 791.5,154 L8.5,154 A2.5,2.5 0 0 1 6,151.5 L6,8.5 A2.5,2.5 0 0 1 8.5,6 " fill="none" style="stroke:#000000;stroke-width:1.5;"/><line style="stroke:#000000;stroke-width:1.5;" x1="6" x2="72" y1="28.2969" y2="28.2969"/><text fill="#000000" font-family="sans-serif" font-size="14" font-weight="bold" lengthAdjust="spacing" textLength="53" x="10" y="20.9951">Server</text></g><!--cluster Consumer--><g id="cluster_Consumer"><path d="M399.5,178 L481.5,178 A3.75,3.75 0 0 1 484,180.5 L491,200.2969 L988.5,200.2969 A2.5,2.5 0 0 1 991,202.7969 L991,545.5 A2.5,2.5 0 0 1 988.5,548 L399.5,548 A2.5,2.5 0 0 1 397,545.5 L397,180.5 A2.5,2.5 0 0 1 399.5,178 " fill="none" style="stroke:#000000;stroke-width:1.5;"/><line style="stroke:#000000;stroke-width:1.5;" x1="397" x2="491" y1="200.2969" y2="200.2969"/><text fill="#000000" font-family="sans-serif" font-size="14" font-weight="bold" lengthAdjust="spacing" textLength="81" x="401" y="192.9951">Consumer</text></g><!--class Pushable--><g id="elem_Pushable"><rect codeLine="2" fill="#F1F1F1" height="64.2969" id="Pushable" rx="2.5" ry="2.5" style="stroke:#181818;stroke-width:0.5;" width="193" x="22.5" y="57.5"/><ellipse cx="82.75" cy="73.5" fill="#B4A7E5" rx="11" ry="11" style="stroke:#181818;stroke-width:1.0;"/><path d="M78.6719,69.2656 L78.6719,67.1094 L86.0625,67.1094 L86.0625,69.2656 L83.5938,69.2656 L83.5938,77.3438 L86.0625,77.3438 L86.0625,79.5 L78.6719,79.5 L78.6719,77.3438 L81.1406,77.3438 L81.1406,69.2656 L78.6719,69.2656 Z " fill="#000000"/><text fill="#000000" font-family="sans-serif" font-size="14" font-style="italic" lengthAdjust="spacing" textLength="64" x="103.25" y="78.3467">Pushable</text><line style="stroke:#181818;stroke-width:0.5;" x1="23.5" x2="214.5" y1="89.5" y2="89.5"/><line style="stroke:#181818;stroke-width:0.5;" x1="23.5" x2="214.5" y1="97.5" y2="97.5"/><ellipse cx="33.5" cy="111.1484" fill="#84BE84" rx="3" ry="3" style="stroke:#038048;stroke-width:1.0;"/><text fill="#000000" font-family="sans-serif" font-size="14" lengthAdjust="spacing" textLength="167" x="42.5" y="114.4951">error SendTo(*AppData)</text></g><!--class SourceServer--><g id="elem_SourceServer"><rect codeLine="5" fill="#F1F1F1" height="96.8906" id="SourceServer" rx="2.5" ry="2.5" style="stroke:#181818;stroke-width:0.5;" width="228" x="251" y="41"/><ellipse cx="314.25" cy="57" fill="#B4A7E5" rx="11" ry="11" style="stroke:#181818;stroke-width:1.0;"/><path d="M310.1719,52.7656 L310.1719,50.6094 L317.5625,50.6094 L317.5625,52.7656 L315.0938,52.7656 L315.0938,60.8438 L317.5625,60.8438 L317.5625,63 L310.1719,63 L310.1719,60.8438 L312.6406,60.8438 L312.6406,52.7656 L310.1719,52.7656 Z " fill="#000000"/><text fill="#000000" font-family="sans-serif" font-size="14" font-style="italic" lengthAdjust="spacing" textLength="93" x="334.75" y="61.8467">SourceServer</text><line style="stroke:#181818;stroke-width:0.5;" x1="252" x2="478" y1="73" y2="73"/><line style="stroke:#181818;stroke-width:0.5;" x1="252" x2="478" y1="81" y2="81"/><ellipse cx="262" cy="94.6484" fill="#84BE84" rx="3" ry="3" style="stroke:#038048;stroke-width:1.0;"/><text fill="#000000" font-family="sans-serif" font-size="14" lengthAdjust="spacing" textLength="202" x="271" y="97.9951">error AddPushable(Pushable)</text><ellipse cx="262" cy="110.9453" fill="#84BE84" rx="3" ry="3" style="stroke:#038048;stroke-width:1.0;"/><text fill="#000000" font-family="sans-serif" font-size="14" lengthAdjust="spacing" textLength="86" x="271" y="114.292">error Serve()</text><ellipse cx="262" cy="127.2422" fill="#84BE84" rx="3" ry="3" style="stroke:#038048;stroke-width:1.0;"/><text fill="#000000" font-family="sans-serif" font-size="14" lengthAdjust="spacing" textLength="132" x="271" y="130.5889">error Setup(Config)</text></g><!--class Config--><g id="elem_Config"><rect codeLine="10" fill="#F1F1F1" height="64.2969" id="Config" rx="2.5" ry="2.5" style="stroke:#181818;stroke-width:0.5;" width="263" x="514.5" y="57.5"/><ellipse cx="619.75" cy="73.5" fill="#B4A7E5" rx="11" ry="11" style="stroke:#181818;stroke-width:1.0;"/><path d="M615.6719,69.2656 L615.6719,67.1094 L623.0625,67.1094 L623.0625,69.2656 L620.5938,69.2656 L620.5938,77.3438 L623.0625,77.3438 L623.0625,79.5 L615.6719,79.5 L615.6719,77.3438 L618.1406,77.3438 L618.1406,69.2656 L615.6719,69.2656 Z " fill="#000000"/><text fill="#000000" font-family="sans-serif" font-size="14" font-style="italic" lengthAdjust="spacing" textLength="44" x="640.25" y="78.3467">Config</text><line style="stroke:#181818;stroke-width:0.5;" x1="515.5" x2="776.5" y1="89.5" y2="89.5"/><line style="stroke:#181818;stroke-width:0.5;" x1="515.5" x2="776.5" y1="97.5" y2="97.5"/><ellipse cx="525.5" cy="111.1484" fill="#84BE84" rx="3" ry="3" style="stroke:#038048;stroke-width:1.0;"/><text fill="#000000" font-family="sans-serif" font-size="14" lengthAdjust="spacing" textLength="237" x="534.5" y="114.4951">error IngestConfig(map[string]any)</text></g><!--class RabbitMQConsumer--><g id="elem_RabbitMQConsumer"><rect codeLine="15" fill="#F1F1F1" height="145.7813" id="RabbitMQConsumer" rx="2.5" ry="2.5" style="stroke:#181818;stroke-width:0.5;" width="255" x="413.5" y="386"/><ellipse cx="467.25" cy="402" fill="#F1F1F1" rx="11" ry="11" style="stroke:#181818;stroke-width:1.0;"/><path d="M466.7344,402.5625 Q464.875,401.8594 464.2188,401.0938 Q463.5781,400.3125 463.5781,399 Q463.5781,397.3125 464.6563,396.3438 Q465.7344,395.375 467.6094,395.375 Q468.4688,395.375 469.3125,395.5781 Q470.1719,395.7656 471.0156,396.1563 L471.0156,398.5469 Q470.2344,397.9844 469.4063,397.7031 Q468.5938,397.4063 467.7969,397.4063 Q466.9219,397.4063 466.4375,397.7656 Q465.9688,398.125 465.9688,398.7813 Q465.9688,399.2969 466.3125,399.6406 Q466.6563,399.9688 467.75,400.375 L468.8125,400.7813 Q470.2969,401.3281 471,402.2344 Q471.7188,403.1406 471.7188,404.5156 Q471.7188,406.3906 470.6094,407.3125 Q469.5,408.2344 467.25,408.2344 Q466.3281,408.2344 465.4063,408.0156 Q464.4844,407.7969 463.625,407.375 L463.625,404.8438 Q464.5938,405.5313 465.5156,405.875 Q466.4375,406.2188 467.3281,406.2188 Q468.2344,406.2188 468.7344,405.8125 Q469.2344,405.3906 469.2344,404.6563 Q469.2344,404.0938 468.8906,403.6875 Q468.5625,403.2656 467.9375,403.0156 L466.7344,402.5625 Z " fill="#000000"/><text fill="#000000" font-family="sans-serif" font-size="14" lengthAdjust="spacing" textLength="139" x="487.75" y="406.8467">RabbitMQConsumer</text><line style="stroke:#181818;stroke-width:0.5;" x1="414.5" x2="667.5" y1="418" y2="418"/><rect fill="none" height="6" style="stroke:#C82930;stroke-width:1.0;" width="6" x="421.5" y="428.6484"/><text fill="#000000" font-family="sans-serif" font-size="14" lengthAdjust="spacing" textLength="229" x="433.5" y="434.9951">RabbitMQConsumerConfig config</text><rect fill="none" height="6" style="stroke:#C82930;stroke-width:1.0;" width="6" x="421.5" y="444.9453"/><text fill="#000000" font-family="sans-serif" font-size="14" lengthAdjust="spacing" textLength="132" x="433.5" y="451.292">Pushable pushable</text><rect fill="none" height="6" style="stroke:#C82930;stroke-width:1.0;" width="6" x="421.5" y="461.2422"/><text fill="#000000" font-family="sans-serif" font-size="14" lengthAdjust="spacing" textLength="119" x="433.5" y="467.5889">RabbitMQDial dial</text><line style="stroke:#181818;stroke-width:0.5;" x1="414.5" x2="667.5" y1="474.8906" y2="474.8906"/><ellipse cx="424.5" cy="488.5391" fill="#84BE84" rx="3" ry="3" style="stroke:#038048;stroke-width:1.0;"/><text fill="#000000" font-family="sans-serif" font-size="14" lengthAdjust="spacing" textLength="202" x="433.5" y="491.8857">error AddPushable(Pushable)</text><ellipse cx="424.5" cy="504.8359" fill="#84BE84" rx="3" ry="3" style="stroke:#038048;stroke-width:1.0;"/><text fill="#000000" font-family="sans-serif" font-size="14" lengthAdjust="spacing" textLength="86" x="433.5" y="508.1826">error Serve()</text><ellipse cx="424.5" cy="521.1328" fill="#84BE84" rx="3" ry="3" style="stroke:#038048;stroke-width:1.0;"/><text fill="#000000" font-family="sans-serif" font-size="14" lengthAdjust="spacing" textLength="132" x="433.5" y="524.4795">error Setup(Config)</text></g><!--class AMQPOneConsumer--><g id="elem_AMQPOneConsumer"><rect codeLine="23" fill="#F1F1F1" height="145.7813" id="AMQPOneConsumer" rx="2.5" ry="2.5" style="stroke:#181818;stroke-width:0.5;" width="258" x="704" y="386"/><ellipse cx="757.75" cy="402" fill="#F1F1F1" rx="11" ry="11" style="stroke:#181818;stroke-width:1.0;"/><path d="M757.2344,402.5625 Q755.375,401.8594 754.7188,401.0938 Q754.0781,400.3125 754.0781,399 Q754.0781,397.3125 755.1563,396.3438 Q756.2344,395.375 758.1094,395.375 Q758.9688,395.375 759.8125,395.5781 Q760.6719,395.7656 761.5156,396.1563 L761.5156,398.5469 Q760.7344,397.9844 759.9063,397.7031 Q759.0938,397.4063 758.2969,397.4063 Q757.4219,397.4063 756.9375,397.7656 Q756.4688,398.125 756.4688,398.7813 Q756.4688,399.2969 756.8125,399.6406 Q757.1563,399.9688 758.25,400.375 L759.3125,400.7813 Q760.7969,401.3281 761.5,402.2344 Q762.2188,403.1406 762.2188,404.5156 Q762.2188,406.3906 761.1094,407.3125 Q760,408.2344 757.75,408.2344 Q756.8281,408.2344 755.9063,408.0156 Q754.9844,407.7969 754.125,407.375 L754.125,404.8438 Q755.0938,405.5313 756.0156,405.875 Q756.9375,406.2188 757.8281,406.2188 Q758.7344,406.2188 759.2344,405.8125 Q759.7344,405.3906 759.7344,404.6563 Q759.7344,404.0938 759.3906,403.6875 Q759.0625,403.2656 758.4375,403.0156 L757.2344,402.5625 Z " fill="#000000"/><text fill="#000000" font-family="sans-serif" font-size="14" lengthAdjust="spacing" textLength="142" x="778.25" y="406.8467">AMQPOneConsumer</text><line style="stroke:#181818;stroke-width:0.5;" x1="705" x2="961" y1="418" y2="418"/><rect fill="none" height="6" style="stroke:#C82930;stroke-width:1.0;" width="6" x="712" y="428.6484"/><text fill="#000000" font-family="sans-serif" font-size="14" lengthAdjust="spacing" textLength="232" x="724" y="434.9951">AMQPOneConsumerConfig config</text><rect fill="none" height="6" style="stroke:#C82930;stroke-width:1.0;" width="6" x="712" y="444.9453"/><text fill="#000000" font-family="sans-serif" font-size="14" lengthAdjust="spacing" textLength="132" x="724" y="451.292">Pushable pushable</text><rect fill="none" height="6" style="stroke:#C82930;stroke-width:1.0;" width="6" x="712" y="461.2422"/><text fill="#000000" font-family="sans-serif" font-size="14" lengthAdjust="spacing" textLength="194" x="724" y="467.5889">AMQPOneConsumerDial dial</text><line style="stroke:#181818;stroke-width:0.5;" x1="705" x2="961" y1="474.8906" y2="474.8906"/><ellipse cx="715" cy="488.5391" fill="#84BE84" rx="3" ry="3" style="stroke:#038048;stroke-width:1.0;"/><text fill="#000000" font-family="sans-serif" font-size="14" lengthAdjust="spacing" textLength="202" x="724" y="491.8857">error AddPushable(Pushable)</text><ellipse cx="715" cy="504.8359" fill="#84BE84" rx="3" ry="3" style="stroke:#038048;stroke-width:1.0;"/><text fill="#000000" font-family="sans-serif" font-size="14" lengthAdjust="spacing" textLength="86" x="724" y="508.1826">error Serve()</text><ellipse cx="715" cy="521.1328" fill="#84BE84" rx="3" ry="3" style="stroke:#038048;stroke-width:1.0;"/><text fill="#000000" font-family="sans-serif" font-size="14" lengthAdjust="spacing" textLength="132" x="724" y="524.4795">error Setup(Config)</text></g><!--class RabbitMQConsumerConfig--><g id="elem_RabbitMQConsumerConfig"><rect codeLine="31" fill="#F1F1F1" height="113.1875" id="RabbitMQConsumerConfig" rx="2.5" ry="2.5" style="stroke:#181818;stroke-width:0.5;" width="263" x="413.5" y="213"/><ellipse cx="450.1" cy="229" fill="#F1F1F1" rx="11" ry="11" style="stroke:#181818;stroke-width:1.0;"/><path d="M449.5844,229.5625 Q447.725,228.8594 447.0688,228.0938 Q446.4281,227.3125 446.4281,226 Q446.4281,224.3125 447.5063,223.3438 Q448.5844,222.375 450.4594,222.375 Q451.3188,222.375 452.1625,222.5781 Q453.0219,222.7656 453.8656,223.1563 L453.8656,225.5469 Q453.0844,224.9844 452.2563,224.7031 Q451.4438,224.4063 450.6469,224.4063 Q449.7719,224.4063 449.2875,224.7656 Q448.8188,225.125 448.8188,225.7813 Q448.8188,226.2969 449.1625,226.6406 Q449.5063,226.9688 450.6,227.375 L451.6625,227.7813 Q453.1469,228.3281 453.85,229.2344 Q454.5688,230.1406 454.5688,231.5156 Q454.5688,233.3906 453.4594,234.3125 Q452.35,235.2344 450.1,235.2344 Q449.1781,235.2344 448.2563,235.0156 Q447.3344,234.7969 446.475,234.375 L446.475,231.8438 Q447.4438,232.5313 448.3656,232.875 Q449.2875,233.2188 450.1781,233.2188 Q451.0844,233.2188 451.5844,232.8125 Q452.0844,232.3906 452.0844,231.6563 Q452.0844,231.0938 451.7406,230.6875 Q451.4125,230.2656 450.7875,230.0156 L449.5844,229.5625 Z " fill="#000000"/><text fill="#000000" font-family="sans-serif" font-size="14" lengthAdjust="spacing" textLength="183" x="468.9" y="233.8467">RabbitMQConsumerConfig</text><line style="stroke:#181818;stroke-width:0.5;" x1="414.5" x2="675.5" y1="245" y2="245"/><ellipse cx="424.5" cy="258.6484" fill="none" rx="3" ry="3" style="stroke:#038048;stroke-width:1.0;"/><text fill="#000000" font-family="sans-serif" font-size="14" lengthAdjust="spacing" textLength="123" x="433.5" y="261.9951">string Connection</text><ellipse cx="424.5" cy="274.9453" fill="none" rx="3" ry="3" style="stroke:#038048;stroke-width:1.0;"/><text fill="#000000" font-family="sans-serif" font-size="14" lengthAdjust="spacing" textLength="90" x="433.5" y="278.292">string Queue</text><ellipse cx="424.5" cy="291.2422" fill="none" rx="3" ry="3" style="stroke:#038048;stroke-width:1.0;"/><text fill="#000000" font-family="sans-serif" font-size="14" lengthAdjust="spacing" textLength="141" x="433.5" y="294.5889">string ConsumerTag</text><line style="stroke:#181818;stroke-width:0.5;" x1="414.5" x2="675.5" y1="301.8906" y2="301.8906"/><ellipse cx="424.5" cy="315.5391" fill="#84BE84" rx="3" ry="3" style="stroke:#038048;stroke-width:1.0;"/><text fill="#000000" font-family="sans-serif" font-size="14" lengthAdjust="spacing" textLength="237" x="433.5" y="318.8857">error IngestConfig(map[string]any)</text></g><!--class AMQPOneConsumerConfig--><g id="elem_AMQPOneConsumerConfig"><rect codeLine="37" fill="#F1F1F1" height="96.8906" id="AMQPOneConsumerConfig" rx="2.5" ry="2.5" style="stroke:#181818;stroke-width:0.5;" width="263" x="711.5" y="221"/><ellipse cx="746.75" cy="237" fill="#F1F1F1" rx="11" ry="11" style="stroke:#181818;stroke-width:1.0;"/><path d="M746.2344,237.5625 Q744.375,236.8594 743.7188,236.0938 Q743.0781,235.3125 743.0781,234 Q743.0781,232.3125 744.1563,231.3438 Q745.2344,230.375 747.1094,230.375 Q747.9688,230.375 748.8125,230.5781 Q749.6719,230.7656 750.5156,231.1563 L750.5156,233.5469 Q749.7344,232.9844 748.9063,232.7031 Q748.0938,232.4063 747.2969,232.4063 Q746.4219,232.4063 745.9375,232.7656 Q745.4688,233.125 745.4688,233.7813 Q745.4688,234.2969 745.8125,234.6406 Q746.1563,234.9688 747.25,235.375 L748.3125,235.7813 Q749.7969,236.3281 750.5,237.2344 Q751.2188,238.1406 751.2188,239.5156 Q751.2188,241.3906 750.1094,242.3125 Q749,243.2344 746.75,243.2344 Q745.8281,243.2344 744.9063,243.0156 Q743.9844,242.7969 743.125,242.375 L743.125,239.8438 Q744.0938,240.5313 745.0156,240.875 Q745.9375,241.2188 746.8281,241.2188 Q747.7344,241.2188 748.2344,240.8125 Q748.7344,240.3906 748.7344,239.6563 Q748.7344,239.0938 748.3906,238.6875 Q748.0625,238.2656 747.4375,238.0156 L746.2344,237.5625 Z " fill="#000000"/><text fill="#000000" font-family="sans-serif" font-size="14" lengthAdjust="spacing" textLength="186" x="765.25" y="241.8467">AMQPOneConsumerConfig</text><line style="stroke:#181818;stroke-width:0.5;" x1="712.5" x2="973.5" y1="253" y2="253"/><ellipse cx="722.5" cy="266.6484" fill="none" rx="3" ry="3" style="stroke:#038048;stroke-width:1.0;"/><text fill="#000000" font-family="sans-serif" font-size="14" lengthAdjust="spacing" textLength="123" x="731.5" y="269.9951">string Connection</text><ellipse cx="722.5" cy="282.9453" fill="none" rx="3" ry="3" style="stroke:#038048;stroke-width:1.0;"/><text fill="#000000" font-family="sans-serif" font-size="14" lengthAdjust="spacing" textLength="90" x="731.5" y="286.292">string Queue</text><line style="stroke:#181818;stroke-width:0.5;" x1="712.5" x2="973.5" y1="293.5938" y2="293.5938"/><ellipse cx="722.5" cy="307.2422" fill="#84BE84" rx="3" ry="3" style="stroke:#038048;stroke-width:1.0;"/><text fill="#000000" font-family="sans-serif" font-size="14" lengthAdjust="spacing" textLength="237" x="731.5" y="310.5889">error IngestConfig(map[string]any)</text></g><!--reverse link SourceServer to RabbitMQConsumer--><g id="link_SourceServer_RabbitMQConsumer"><path codeLine="45" d="M336.094,155.0161 C316.334,204.9261 301.78,267.24 334,326 C351.93,358.7 381.79,384.47 413.32,404.22 " fill="none" id="SourceServer-backto-RabbitMQConsumer" style="stroke:#181818;stroke-width:1.0;"/><polygon fill="none" points="342.72,138.28,330.5153,152.8074,341.6727,157.2247,342.72,138.28" style="stroke:#181818;stroke-width:1.0;"/></g><!--reverse link SourceServer to AMQPOneConsumer--><g id="link_SourceServer_AMQPOneConsumer"><path codeLine="46" d="M354.4263,156.1507 C348.0463,209.0907 349.26,275.71 396,326 C485.6,422.41 561.47,343.38 686,386 C691.92,388.02 697.9,390.23 703.9,392.58 " fill="none" id="SourceServer-backto-AMQPOneConsumer" style="stroke:#181818;stroke-width:1.0;"/><polygon fill="none" points="356.58,138.28,348.4694,155.4328,360.3832,156.8686,356.58,138.28" style="stroke:#181818;stroke-width:1.0;"/></g><!--reverse link Pushable to RabbitMQConsumer--><g id="link_Pushable_RabbitMQConsumer"><path codeLine="47" d="M117.6646,133.8198 C117.3946,183.3898 124.21,268.2 176,326 C236.48,393.5 334.16,426.51 413.26,442.64 " fill="none" id="Pushable-backto-RabbitMQConsumer" style="stroke:#181818;stroke-width:1.0;"/><polygon fill="#181818" points="117.73,121.82,113.6974,127.7981,117.6646,133.8198,121.6973,127.8417,117.73,121.82" style="stroke:#181818;stroke-width:1.0;"/></g><!--reverse link Pushable to AMQPOneConsumer--><g id="link_Pushable_AMQPOneConsumer"><path codeLine="48" d="M145.7528,131.67 C180.7328,183.39 251.51,276.12 345,326 C480.77,398.43 539.68,338.35 686,386 C691.94,387.94 697.95,390.07 703.97,392.36 " fill="none" id="Pushable-backto-AMQPOneConsumer" style="stroke:#181818;stroke-width:1.0;"/><polygon fill="#181818" points="139.03,121.73,139.078,128.9409,145.7528,131.67,145.7047,124.4591,139.03,121.73" style="stroke:#181818;stroke-width:1.0;"/></g><!--reverse link Config to RabbitMQConsumerConfig--><g id="link_Config_RabbitMQConsumerConfig"><path codeLine="52" d="M619.5232,137.1633 C605.2732,162.2633 593.74,182.61 576.66,212.7 " fill="none" id="Config-backto-RabbitMQConsumerConfig" style="stroke:#181818;stroke-width:1.0;"/><polygon fill="none" points="628.41,121.51,614.3054,134.201,624.7409,140.1255,628.41,121.51" style="stroke:#181818;stroke-width:1.0;"/></g><!--reverse link Config to AMQPOneConsumerConfig--><g id="link_Config_AMQPOneConsumerConfig"><path codeLine="53" d="M693.6669,133.5762 C723.9869,160.9662 755.31,189.27 790.18,220.78 " fill="none" id="Config-backto-AMQPOneConsumerConfig" style="stroke:#181818;stroke-width:1.0;"/><polygon fill="none" points="680.31,121.51,689.6449,138.0285,697.689,129.1239,680.31,121.51" style="stroke:#181818;stroke-width:1.0;"/></g><!--reverse link RabbitMQConsumerConfig to RabbitMQConsumer--><g id="link_RabbitMQConsumerConfig_RabbitMQConsumer"><path codeLine="54" d="M543.553,338.2472 C543.153,356.9172 542.96,366.02 542.54,385.77 " fill="none" id="RabbitMQConsumerConfig-backto-RabbitMQConsumer" style="stroke:#181818;stroke-width:1.0;"/><polygon fill="#181818" points="543.81,326.25,539.6824,332.1629,543.553,338.2472,547.6806,332.3343,543.81,326.25" style="stroke:#181818;stroke-width:1.0;"/></g><!--reverse link AMQPOneConsumerConfig to AMQPOneConsumer--><g id="link_AMQPOneConsumerConfig_AMQPOneConsumer"><path codeLine="55" d="M839.8132,330.2831 C838.7232,350.7931 838.06,363.21 836.85,385.84 " fill="none" id="AMQPOneConsumerConfig-backto-AMQPOneConsumer" style="stroke:#181818;stroke-width:1.0;"/><polygon fill="#181818" points="840.45,318.3,836.1372,324.0793,839.8132,330.2831,844.1259,324.5038,840.45,318.3" style="stroke:#181818;stroke-width:1.0;"/></g><!--SRC=[nLFBReCm4BpxAtmagSWNz8AQImzHGvDRrOE13RKK5ilOaQ8s_rxpSXFZ4FgGwWDOdftnpkuQMG6LO2dG3SW3IFfEg5aS5SXTVRpMrHjBzj01zRe3AKjf29Xjos0U2R5aYiqQ_EJGDwMMALnedqb4MTRh1_rcDhp7a0FFiT8YU2XnntF_tIqslFKHSwXKYmO54o-LaXppLuR7NkX4q1R615QwiEcRO9qg-ioIXAjLxA3r2bsiIoHjVbzXjhIYsmmLbfpjQMO-aof7VrcwpbgqYjTF23vd3lHzOux0l_YxqfwpEMa7ekuyGgfuYGCerg31HsWKjop_mT1TRy4VP3Wv2pFxf7slYul7U_yHXjRWmgtX18hZgMVOOPbFqVT7kzB4MkWgDvvy6pHAyJQ4t52yOMbSVDJX9m00]--></g></svg>