<?xml version="1.0" encoding="us-ascii" standalone="no"?><svg xmlns="http://www.w3.org/2000/svg" xmlns:xlink="http://www.w3.org/1999/xlink" contentStyleType="text/css" height="1052px" preserveAspectRatio="none" style="width:1354px;height:1052px;background:#FFFFFF;" version="1.1" viewBox="0 0 1354 1052" width="1354px" zoomAndPan="magnify"><defs/><g><!--cluster JSONExtractor--><g id="cluster_JSONExtractor"><path d="M1089.5,708 L1199.5,708 A3.75,3.75 0 0 1 1202,710.5 L1209,730.2969 L1344.5,730.2969 A2.5,2.5 0 0 1 1347,732.7969 L1347,885.5 A2.5,2.5 0 0 1 1344.5,888 L1089.5,888 A2.5,2.5 0 0 1 1087,885.5 L1087,710.5 A2.5,2.5 0 0 1 1089.5,708 " fill="none" style="stroke:#000000;stroke-width:1.5;"/><line style="stroke:#000000;stroke-width:1.5;" x1="1087" x2="1209" y1="730.2969" y2="730.2969"/><text fill="#000000" font-family="sans-serif" font-size="14" font-weight="bold" lengthAdjust="spacing" textLength="109" x="1091" y="722.9951">JSONExtractor</text></g><!--cluster Server--><g id="cluster_Server"><path d="M8.5,6 L62.5,6 A3.75,3.75 0 0 1 65,8.5 L72,28.2969 L1060.5,28.2969 A2.5,2.5 0 0 1 1063,30.7969 L1063,1042.5 A2.5,2.5 0 0 1 1060.5,1045 L8.5,1045 A2.5,2.5 0 0 1 6,1042.5 L6,8.5 A2.5,2.5 0 0 1 8.5,6 " fill="none" style="stroke:#000000;stroke-width:1.5;"/><line style="stroke:#000000;stroke-width:1.5;" x1="6" x2="72" y1="28.2969" y2="28.2969"/><text fill="#000000" font-family="sans-serif" font-size="14" font-weight="bold" lengthAdjust="spacing" textLength="53" x="10" y="20.9951">Server</text></g><!--class JQTransformer--><g id="elem_JQTransformer"><rect codeLine="2" fill="#F1F1F1" height="129.4844" id="JQTransformer" rx="2.5" ry="2.5" style="stroke:#181818;stroke-width:0.5;" width="228" x="1103" y="743"/><ellipse cx="1163.75" cy="759" fill="#F1F1F1" rx="11" ry="11" style="stroke:#181818;stroke-width:1.0;"/><path d="M1163.2344,759.5625 Q1161.375,758.8594 1160.7188,758.0938 Q1160.0781,757.3125 1160.0781,756 Q1160.0781,754.3125 1161.1563,753.3438 Q1162.2344,752.375 1164.1094,752.375 Q1164.9688,752.375 1165.8125,752.5781 Q1166.6719,752.7656 1167.5156,753.1563 L1167.5156,755.5469 Q1166.7344,754.9844 1165.9063,754.7031 Q1165.0938,754.4063 1164.2969,754.4063 Q1163.4219,754.4063 1162.9375,754.7656 Q1162.4688,755.125 1162.4688,755.7813 Q1162.4688,756.2969 1162.8125,756.6406 Q1163.1563,756.9688 1164.25,757.375 L1165.3125,757.7813 Q1166.7969,758.3281 1167.5,759.2344 Q1168.2188,760.1406 1168.2188,761.5156 Q1168.2188,763.3906 1167.1094,764.3125 Q1166,765.2344 1163.75,765.2344 Q1162.8281,765.2344 1161.9063,765.0156 Q1160.9844,764.7969 1160.125,764.375 L1160.125,761.8438 Q1161.0938,762.5313 1162.0156,762.875 Q1162.9375,763.2188 1163.8281,763.2188 Q1164.7344,763.2188 1165.2344,762.8125 Q1165.7344,762.3906 1165.7344,761.6563 Q1165.7344,761.0938 1165.3906,760.6875 Q1165.0625,760.2656 1164.4375,760.0156 L1163.2344,759.5625 Z " fill="#000000"/><text fill="#000000" font-family="sans-serif" font-size="14" lengthAdjust="spacing" textLength="98" x="1184.25" y="763.8467">JQTransformer</text><line style="stroke:#181818;stroke-width:0.5;" x1="1104" x2="1330" y1="775" y2="775"/><rect fill="none" height="6" style="stroke:#C82930;stroke-width:1.0;" width="6" x="1111" y="785.6484"/><text fill="#000000" font-family="sans-serif" font-size="14" lengthAdjust="spacing" textLength="145" x="1123" y="791.9951">gojq.Code jqProgram</text><rect fill="none" height="6" style="stroke:#C82930;stroke-width:1.0;" width="6" x="1111" y="801.9453"/><text fill="#000000" font-family="sans-serif" font-size="14" lengthAdjust="spacing" textLength="132" x="1123" y="808.292">Pushable pushable</text><line style="stroke:#181818;stroke-width:0.5;" x1="1104" x2="1330" y1="815.5938" y2="815.5938"/><ellipse cx="1114" cy="829.2422" fill="#84BE84" rx="3" ry="3" style="stroke:#038048;stroke-width:1.0;"/><text fill="#000000" font-family="sans-serif" font-size="14" lengthAdjust="spacing" textLength="202" x="1123" y="832.5889">error AddPushable(Pushable)</text><ellipse cx="1114" cy="845.5391" fill="#84BE84" rx="3" ry="3" style="stroke:#038048;stroke-width:1.0;"/><text fill="#000000" font-family="sans-serif" font-size="14" lengthAdjust="spacing" textLength="167" x="1123" y="848.8857">error SendTo(*AppData)</text><ellipse cx="1114" cy="861.8359" fill="#84BE84" rx="3" ry="3" style="stroke:#038048;stroke-width:1.0;"/><text fill="#000000" font-family="sans-serif" font-size="14" lengthAdjust="spacing" textLength="86" x="1123" y="865.1826">error Serve()</text></g><!--class CompletionHandler--><g id="elem_CompletionHandler"><rect codeLine="11" fill="#F1F1F1" height="64.2969" id="CompletionHandler" rx="2.5" ry="2.5" style="stroke:#181818;stroke-width:0.5;" width="205" x="753.5" y="41"/><ellipse cx="786.95" cy="57" fill="#B4A7E5" rx="11" ry="11" style="stroke:#181818;stroke-width:1.0;"/><path d="M782.8719,52.7656 L782.8719,50.6094 L790.2625,50.6094 L790.2625,52.7656 L787.7938,52.7656 L787.7938,60.8438 L790.2625,60.8438 L790.2625,63 L782.8719,63 L782.8719,60.8438 L785.3406,60.8438 L785.3406,52.7656 L782.8719,52.7656 Z " fill="#000000"/><text fill="#000000" font-family="sans-serif" font-size="14" font-style="italic" lengthAdjust="spacing" textLength="132" x="805.05" y="61.8467">CompletionHandler</text><line style="stroke:#181818;stroke-width:0.5;" x1="754.5" x2="957.5" y1="73" y2="73"/><line style="stroke:#181818;stroke-width:0.5;" x1="754.5" x2="957.5" y1="81" y2="81"/><ellipse cx="764.5" cy="94.6484" fill="#84BE84" rx="3" ry="3" style="stroke:#038048;stroke-width:1.0;"/><text fill="#000000" font-family="sans-serif" font-size="14" lengthAdjust="spacing" textLength="179" x="773.5" y="97.9951">error Complete(any, error)</text></g><!--class AppData--><g id="elem_AppData"><rect codeLine="14" fill="#F1F1F1" height="113.1875" id="AppData" rx="2.5" ry="2.5" style="stroke:#181818;stroke-width:0.5;" width="329" x="691.5" y="165"/><ellipse cx="822.25" cy="181" fill="#F1F1F1" rx="11" ry="11" style="stroke:#181818;stroke-width:1.0;"/><path d="M821.7344,181.5625 Q819.875,180.8594 819.2188,180.0938 Q818.5781,179.3125 818.5781,178 Q818.5781,176.3125 819.6563,175.3438 Q820.7344,174.375 822.6094,174.375 Q823.4688,174.375 824.3125,174.5781 Q825.1719,174.7656 826.0156,175.1563 L826.0156,177.5469 Q825.2344,176.9844 824.4063,176.7031 Q823.5938,176.4063 822.7969,176.4063 Q821.9219,176.4063 821.4375,176.7656 Q820.9688,177.125 820.9688,177.7813 Q820.9688,178.2969 821.3125,178.6406 Q821.6563,178.9688 822.75,179.375 L823.8125,179.7813 Q825.2969,180.3281 826,181.2344 Q826.7188,182.1406 826.7188,183.5156 Q826.7188,185.3906 825.6094,186.3125 Q824.5,187.2344 822.25,187.2344 Q821.3281,187.2344 820.4063,187.0156 Q819.4844,186.7969 818.625,186.375 L818.625,183.8438 Q819.5938,184.5313 820.5156,184.875 Q821.4375,185.2188 822.3281,185.2188 Q823.2344,185.2188 823.7344,184.8125 Q824.2344,184.3906 824.2344,183.6563 Q824.2344,183.0938 823.8906,182.6875 Q823.5625,182.2656 822.9375,182.0156 L821.7344,181.5625 Z " fill="#000000"/><text fill="#000000" font-family="sans-serif" font-size="14" lengthAdjust="spacing" textLength="59" x="842.75" y="185.8467">AppData</text><line style="stroke:#181818;stroke-width:0.5;" x1="692.5" x2="1019.5" y1="197" y2="197"/><rect fill="none" height="6" style="stroke:#C82930;stroke-width:1.0;" width="6" x="699.5" y="207.6484"/><text fill="#000000" font-family="sans-serif" font-size="14" lengthAdjust="spacing" textLength="58" x="711.5" y="213.9951">any data</text><ellipse cx="702.5" cy="226.9453" fill="none" rx="3" ry="3" style="stroke:#038048;stroke-width:1.0;"/><text fill="#000000" font-family="sans-serif" font-size="14" lengthAdjust="spacing" textLength="266" x="711.5" y="230.292">CompletionHandler completionHandler</text><line style="stroke:#181818;stroke-width:0.5;" x1="692.5" x2="1019.5" y1="237.5938" y2="237.5938"/><ellipse cx="702.5" cy="251.2422" fill="#84BE84" rx="3" ry="3" style="stroke:#038048;stroke-width:1.0;"/><text fill="#000000" font-family="sans-serif" font-size="14" lengthAdjust="spacing" textLength="95" x="711.5" y="254.5889">any GetData()</text><ellipse cx="702.5" cy="267.5391" fill="#84BE84" rx="3" ry="3" style="stroke:#038048;stroke-width:1.0;"/><text fill="#000000" font-family="sans-serif" font-size="14" lengthAdjust="spacing" textLength="303" x="711.5" y="270.8857">CompletionHandler GetCompletionHandler()</text></g><!--class Server--><g id="elem_Server"><rect codeLine="20" fill="#F1F1F1" height="64.2969" id="Server" rx="2.5" ry="2.5" style="stroke:#181818;stroke-width:0.5;" width="112" x="568" y="462"/><ellipse cx="599.2" cy="478" fill="#B4A7E5" rx="11" ry="11" style="stroke:#181818;stroke-width:1.0;"/><path d="M595.1219,473.7656 L595.1219,471.6094 L602.5125,471.6094 L602.5125,473.7656 L600.0438,473.7656 L600.0438,481.8438 L602.5125,481.8438 L602.5125,484 L595.1219,484 L595.1219,481.8438 L597.5906,481.8438 L597.5906,473.7656 L595.1219,473.7656 Z " fill="#000000"/><text fill="#000000" font-family="sans-serif" font-size="14" font-style="italic" lengthAdjust="spacing" textLength="44" x="616.8" y="482.8467">Server</text><line style="stroke:#181818;stroke-width:0.5;" x1="569" x2="679" y1="494" y2="494"/><line style="stroke:#181818;stroke-width:0.5;" x1="569" x2="679" y1="502" y2="502"/><ellipse cx="579" cy="515.6484" fill="#84BE84" rx="3" ry="3" style="stroke:#038048;stroke-width:1.0;"/><text fill="#000000" font-family="sans-serif" font-size="14" lengthAdjust="spacing" textLength="86" x="588" y="518.9951">error Serve()</text></g><!--class Pullable--><g id="elem_Pullable"><rect codeLine="23" fill="#F1F1F1" height="64.2969" id="Pullable" rx="2.5" ry="2.5" style="stroke:#181818;stroke-width:0.5;" width="228" x="715" y="462"/><ellipse cx="798.25" cy="478" fill="#B4A7E5" rx="11" ry="11" style="stroke:#181818;stroke-width:1.0;"/><path d="M794.1719,473.7656 L794.1719,471.6094 L801.5625,471.6094 L801.5625,473.7656 L799.0938,473.7656 L799.0938,481.8438 L801.5625,481.8438 L801.5625,484 L794.1719,484 L794.1719,481.8438 L796.6406,481.8438 L796.6406,473.7656 L794.1719,473.7656 Z " fill="#000000"/><text fill="#000000" font-family="sans-serif" font-size="14" font-style="italic" lengthAdjust="spacing" textLength="53" x="818.75" y="482.8467">Pullable</text><line style="stroke:#181818;stroke-width:0.5;" x1="716" x2="942" y1="494" y2="494"/><line style="stroke:#181818;stroke-width:0.5;" x1="716" x2="942" y1="502" y2="502"/><ellipse cx="726" cy="515.6484" fill="#84BE84" rx="3" ry="3" style="stroke:#038048;stroke-width:1.0;"/><text fill="#000000" font-family="sans-serif" font-size="14" lengthAdjust="spacing" textLength="202" x="735" y="518.9951">error AddPushable(Pushable)</text></g><!--class Pushable--><g id="elem_Pushable"><rect codeLine="26" fill="#F1F1F1" height="64.2969" id="Pushable" rx="2.5" ry="2.5" style="stroke:#181818;stroke-width:0.5;" width="193" x="759.5" y="338"/><ellipse cx="819.75" cy="354" fill="#B4A7E5" rx="11" ry="11" style="stroke:#181818;stroke-width:1.0;"/><path d="M815.6719,349.7656 L815.6719,347.6094 L823.0625,347.6094 L823.0625,349.7656 L820.5938,349.7656 L820.5938,357.8438 L823.0625,357.8438 L823.0625,360 L815.6719,360 L815.6719,357.8438 L818.1406,357.8438 L818.1406,349.7656 L815.6719,349.7656 Z " fill="#000000"/><text fill="#000000" font-family="sans-serif" font-size="14" font-style="italic" lengthAdjust="spacing" textLength="64" x="840.25" y="358.8467">Pushable</text><line style="stroke:#181818;stroke-width:0.5;" x1="760.5" x2="951.5" y1="370" y2="370"/><line style="stroke:#181818;stroke-width:0.5;" x1="760.5" x2="951.5" y1="378" y2="378"/><ellipse cx="770.5" cy="391.6484" fill="#84BE84" rx="3" ry="3" style="stroke:#038048;stroke-width:1.0;"/><text fill="#000000" font-family="sans-serif" font-size="14" lengthAdjust="spacing" textLength="167" x="779.5" y="394.9951">error SendTo(*AppData)</text></g><!--class SourceServer--><g id="elem_SourceServer"><rect codeLine="29" fill="#F1F1F1" height="80.5938" id="SourceServer" rx="2.5" ry="2.5" style="stroke:#181818;stroke-width:0.5;" width="228" x="556" y="594"/><ellipse cx="619.25" cy="610" fill="#B4A7E5" rx="11" ry="11" style="stroke:#181818;stroke-width:1.0;"/><path d="M615.1719,605.7656 L615.1719,603.6094 L622.5625,603.6094 L622.5625,605.7656 L620.0938,605.7656 L620.0938,613.8438 L622.5625,613.8438 L622.5625,616 L615.1719,616 L615.1719,613.8438 L617.6406,613.8438 L617.6406,605.7656 L615.1719,605.7656 Z " fill="#000000"/><text fill="#000000" font-family="sans-serif" font-size="14" font-style="italic" lengthAdjust="spacing" textLength="93" x="639.75" y="614.8467">SourceServer</text><line style="stroke:#181818;stroke-width:0.5;" x1="557" x2="783" y1="626" y2="626"/><line style="stroke:#181818;stroke-width:0.5;" x1="557" x2="783" y1="634" y2="634"/><ellipse cx="567" cy="647.6484" fill="#84BE84" rx="3" ry="3" style="stroke:#038048;stroke-width:1.0;"/><text fill="#000000" font-family="sans-serif" font-size="14" lengthAdjust="spacing" textLength="202" x="576" y="650.9951">error AddPushable(Pushable)</text><ellipse cx="567" cy="663.9453" fill="#84BE84" rx="3" ry="3" style="stroke:#038048;stroke-width:1.0;"/><text fill="#000000" font-family="sans-serif" font-size="14" lengthAdjust="spacing" textLength="86" x="576" y="667.292">error Serve()</text></g><!--class SinkServer--><g id="elem_SinkServer"><rect codeLine="33" fill="#F1F1F1" height="80.5938" id="SinkServer" rx="2.5" ry="2.5" style="stroke:#181818;stroke-width:0.5;" width="193" x="327.5" y="594"/><ellipse cx="383.25" cy="610" fill="#B4A7E5" rx="11" ry="11" style="stroke:#181818;stroke-width:1.0;"/><path d="M379.1719,605.7656 L379.1719,603.6094 L386.5625,603.6094 L386.5625,605.7656 L384.0938,605.7656 L384.0938,613.8438 L386.5625,613.8438 L386.5625,616 L379.1719,616 L379.1719,613.8438 L381.6406,613.8438 L381.6406,605.7656 L379.1719,605.7656 Z " fill="#000000"/><text fill="#000000" font-family="sans-serif" font-size="14" font-style="italic" lengthAdjust="spacing" textLength="73" x="403.75" y="614.8467">SinkServer</text><line style="stroke:#181818;stroke-width:0.5;" x1="328.5" x2="519.5" y1="626" y2="626"/><line style="stroke:#181818;stroke-width:0.5;" x1="328.5" x2="519.5" y1="634" y2="634"/><ellipse cx="338.5" cy="647.6484" fill="#84BE84" rx="3" ry="3" style="stroke:#038048;stroke-width:1.0;"/><text fill="#000000" font-family="sans-serif" font-size="14" lengthAdjust="spacing" textLength="167" x="347.5" y="650.9951">error SendTo(*AppData)</text><ellipse cx="338.5" cy="663.9453" fill="#84BE84" rx="3" ry="3" style="stroke:#038048;stroke-width:1.0;"/><text fill="#000000" font-family="sans-serif" font-size="14" lengthAdjust="spacing" textLength="86" x="347.5" y="667.292">error Serve()</text></g><!--class PipeServer--><g id="elem_PipeServer"><rect codeLine="37" fill="#F1F1F1" height="96.8906" id="PipeServer" rx="2.5" ry="2.5" style="stroke:#181818;stroke-width:0.5;" width="228" x="819" y="586"/><ellipse cx="891.75" cy="602" fill="#B4A7E5" rx="11" ry="11" style="stroke:#181818;stroke-width:1.0;"/><path d="M887.6719,597.7656 L887.6719,595.6094 L895.0625,595.6094 L895.0625,597.7656 L892.5938,597.7656 L892.5938,605.8438 L895.0625,605.8438 L895.0625,608 L887.6719,608 L887.6719,605.8438 L890.1406,605.8438 L890.1406,597.7656 L887.6719,597.7656 Z " fill="#000000"/><text fill="#000000" font-family="sans-serif" font-size="14" font-style="italic" lengthAdjust="spacing" textLength="74" x="912.25" y="606.8467">PipeServer</text><line style="stroke:#181818;stroke-width:0.5;" x1="820" x2="1046" y1="618" y2="618"/><line style="stroke:#181818;stroke-width:0.5;" x1="820" x2="1046" y1="626" y2="626"/><ellipse cx="830" cy="639.6484" fill="#84BE84" rx="3" ry="3" style="stroke:#038048;stroke-width:1.0;"/><text fill="#000000" font-family="sans-serif" font-size="14" lengthAdjust="spacing" textLength="202" x="839" y="642.9951">error AddPushable(Pushable)</text><ellipse cx="830" cy="655.9453" fill="#84BE84" rx="3" ry="3" style="stroke:#038048;stroke-width:1.0;"/><text fill="#000000" font-family="sans-serif" font-size="14" lengthAdjust="spacing" textLength="167" x="839" y="659.292">error SendTo(*AppData)</text><ellipse cx="830" cy="672.2422" fill="#84BE84" rx="3" ry="3" style="stroke:#038048;stroke-width:1.0;"/><text fill="#000000" font-family="sans-serif" font-size="14" lengthAdjust="spacing" textLength="86" x="839" y="675.5889">error Serve()</text></g><!--class Producer--><g id="elem_Producer"><rect codeLine="42" fill="#F1F1F1" height="96.8906" id="Producer" rx="2.5" ry="2.5" style="stroke:#181818;stroke-width:0.5;" width="221" x="166.5" y="759"/><ellipse cx="241.25" cy="775" fill="#B4A7E5" rx="11" ry="11" style="stroke:#181818;stroke-width:1.0;"/><path d="M237.1719,770.7656 L237.1719,768.6094 L244.5625,768.6094 L244.5625,770.7656 L242.0938,770.7656 L242.0938,778.8438 L244.5625,778.8438 L244.5625,781 L237.1719,781 L237.1719,778.8438 L239.6406,778.8438 L239.6406,770.7656 L237.1719,770.7656 Z " fill="#000000"/><text fill="#000000" font-family="sans-serif" font-size="14" font-style="italic" lengthAdjust="spacing" textLength="63" x="261.75" y="779.8467">Producer</text><line style="stroke:#181818;stroke-width:0.5;" x1="167.5" x2="386.5" y1="791" y2="791"/><line style="stroke:#181818;stroke-width:0.5;" x1="167.5" x2="386.5" y1="799" y2="799"/><ellipse cx="177.5" cy="812.6484" fill="#84BE84" rx="3" ry="3" style="stroke:#038048;stroke-width:1.0;"/><text fill="#000000" font-family="sans-serif" font-size="14" lengthAdjust="spacing" textLength="195" x="186.5" y="815.9951">error Setup(ProducerConfig)</text><ellipse cx="177.5" cy="828.9453" fill="#84BE84" rx="3" ry="3" style="stroke:#038048;stroke-width:1.0;"/><text fill="#000000" font-family="sans-serif" font-size="14" lengthAdjust="spacing" textLength="167" x="186.5" y="832.292">error SendTo(*AppData)</text><ellipse cx="177.5" cy="845.2422" fill="#84BE84" rx="3" ry="3" style="stroke:#038048;stroke-width:1.0;"/><text fill="#000000" font-family="sans-serif" font-size="14" lengthAdjust="spacing" textLength="86" x="186.5" y="848.5889">error Serve()</text></g><!--class Consumer--><g id="elem_Consumer"><rect codeLine="47" fill="#F1F1F1" height="96.8906" id="Consumer" rx="2.5" ry="2.5" style="stroke:#181818;stroke-width:0.5;" width="230" x="555" y="759"/><ellipse cx="629.75" cy="775" fill="#B4A7E5" rx="11" ry="11" style="stroke:#181818;stroke-width:1.0;"/><path d="M625.6719,770.7656 L625.6719,768.6094 L633.0625,768.6094 L633.0625,770.7656 L630.5938,770.7656 L630.5938,778.8438 L633.0625,778.8438 L633.0625,781 L625.6719,781 L625.6719,778.8438 L628.1406,778.8438 L628.1406,770.7656 L625.6719,770.7656 Z " fill="#000000"/><text fill="#000000" font-family="sans-serif" font-size="14" font-style="italic" lengthAdjust="spacing" textLength="72" x="650.25" y="779.8467">Consumer</text><line style="stroke:#181818;stroke-width:0.5;" x1="556" x2="784" y1="791" y2="791"/><line style="stroke:#181818;stroke-width:0.5;" x1="556" x2="784" y1="799" y2="799"/><ellipse cx="566" cy="812.6484" fill="#84BE84" rx="3" ry="3" style="stroke:#038048;stroke-width:1.0;"/><text fill="#000000" font-family="sans-serif" font-size="14" lengthAdjust="spacing" textLength="202" x="575" y="815.9951">error AddPushable(Pushable)</text><ellipse cx="566" cy="828.9453" fill="#84BE84" rx="3" ry="3" style="stroke:#038048;stroke-width:1.0;"/><text fill="#000000" font-family="sans-serif" font-size="14" lengthAdjust="spacing" textLength="204" x="575" y="832.292">error Setup(ConsumerConfig)</text><ellipse cx="566" cy="845.2422" fill="#84BE84" rx="3" ry="3" style="stroke:#038048;stroke-width:1.0;"/><text fill="#000000" font-family="sans-serif" font-size="14" lengthAdjust="spacing" textLength="86" x="575" y="848.5889">error Serve()</text></g><!--class ProducerServer--><g id="elem_ProducerServer"><rect codeLine="52" fill="#F1F1F1" height="96.8906" id="ProducerServer" rx="2.5" ry="2.5" style="stroke:#181818;stroke-width:0.5;" width="264" x="241" y="932"/><ellipse cx="315.25" cy="948" fill="#F1F1F1" rx="11" ry="11" style="stroke:#181818;stroke-width:1.0;"/><path d="M314.7344,948.5625 Q312.875,947.8594 312.2188,947.0938 Q311.5781,946.3125 311.5781,945 Q311.5781,943.3125 312.6563,942.3438 Q313.7344,941.375 315.6094,941.375 Q316.4688,941.375 317.3125,941.5781 Q318.1719,941.7656 319.0156,942.1563 L319.0156,944.5469 Q318.2344,943.9844 317.4063,943.7031 Q316.5938,943.4063 315.7969,943.4063 Q314.9219,943.4063 314.4375,943.7656 Q313.9688,944.125 313.9688,944.7813 Q313.9688,945.2969 314.3125,945.6406 Q314.6563,945.9688 315.75,946.375 L316.8125,946.7813 Q318.2969,947.3281 319,948.2344 Q319.7188,949.1406 319.7188,950.5156 Q319.7188,952.3906 318.6094,953.3125 Q317.5,954.2344 315.25,954.2344 Q314.3281,954.2344 313.4063,954.0156 Q312.4844,953.7969 311.625,953.375 L311.625,950.8438 Q312.5938,951.5313 313.5156,951.875 Q314.4375,952.2188 315.3281,952.2188 Q316.2344,952.2188 316.7344,951.8125 Q317.2344,951.3906 317.2344,950.6563 Q317.2344,950.0938 316.8906,949.6875 Q316.5625,949.2656 315.9375,949.0156 L314.7344,948.5625 Z " fill="#000000"/><text fill="#000000" font-family="sans-serif" font-size="14" lengthAdjust="spacing" textLength="107" x="335.75" y="952.8467">ProducerServer</text><line style="stroke:#181818;stroke-width:0.5;" x1="242" x2="504" y1="964" y2="964"/><rect fill="none" height="6" style="stroke:#C82930;stroke-width:1.0;" width="6" x="249" y="974.6484"/><text fill="#000000" font-family="sans-serif" font-size="14" lengthAdjust="spacing" textLength="238" x="261" y="980.9951">map[string]Producer producerMap</text><line style="stroke:#181818;stroke-width:0.5;" x1="242" x2="504" y1="988.2969" y2="988.2969"/><ellipse cx="252" cy="1001.9453" fill="#84BE84" rx="3" ry="3" style="stroke:#038048;stroke-width:1.0;"/><text fill="#000000" font-family="sans-serif" font-size="14" lengthAdjust="spacing" textLength="167" x="261" y="1005.292">error SendTo(*AppData)</text><ellipse cx="252" cy="1018.2422" fill="#84BE84" rx="3" ry="3" style="stroke:#038048;stroke-width:1.0;"/><text fill="#000000" font-family="sans-serif" font-size="14" lengthAdjust="spacing" textLength="86" x="261" y="1021.5889">error Serve()</text></g><!--class ConsumerServer--><g id="elem_ConsumerServer"><rect codeLine="57" fill="#F1F1F1" height="96.8906" id="ConsumerServer" rx="2.5" ry="2.5" style="stroke:#181818;stroke-width:0.5;" width="288" x="759" y="932"/><ellipse cx="840.75" cy="948" fill="#F1F1F1" rx="11" ry="11" style="stroke:#181818;stroke-width:1.0;"/><path d="M840.2344,948.5625 Q838.375,947.8594 837.7188,947.0938 Q837.0781,946.3125 837.0781,945 Q837.0781,943.3125 838.1563,942.3438 Q839.2344,941.375 841.1094,941.375 Q841.9688,941.375 842.8125,941.5781 Q843.6719,941.7656 844.5156,942.1563 L844.5156,944.5469 Q843.7344,943.9844 842.9063,943.7031 Q842.0938,943.4063 841.2969,943.4063 Q840.4219,943.4063 839.9375,943.7656 Q839.4688,944.125 839.4688,944.7813 Q839.4688,945.2969 839.8125,945.6406 Q840.1563,945.9688 841.25,946.375 L842.3125,946.7813 Q843.7969,947.3281 844.5,948.2344 Q845.2188,949.1406 845.2188,950.5156 Q845.2188,952.3906 844.1094,953.3125 Q843,954.2344 840.75,954.2344 Q839.8281,954.2344 838.9063,954.0156 Q837.9844,953.7969 837.125,953.375 L837.125,950.8438 Q838.0938,951.5313 839.0156,951.875 Q839.9375,952.2188 840.8281,952.2188 Q841.7344,952.2188 842.2344,951.8125 Q842.7344,951.3906 842.7344,950.6563 Q842.7344,950.0938 842.3906,949.6875 Q842.0625,949.2656 841.4375,949.0156 L840.2344,948.5625 Z " fill="#000000"/><text fill="#000000" font-family="sans-serif" font-size="14" lengthAdjust="spacing" textLength="116" x="861.25" y="952.8467">ConsumerServer</text><line style="stroke:#181818;stroke-width:0.5;" x1="760" x2="1046" y1="964" y2="964"/><rect fill="none" height="6" style="stroke:#C82930;stroke-width:1.0;" width="6" x="767" y="974.6484"/><text fill="#000000" font-family="sans-serif" font-size="14" lengthAdjust="spacing" textLength="262" x="779" y="980.9951">map[string]Consumer consumersMap</text><line style="stroke:#181818;stroke-width:0.5;" x1="760" x2="1046" y1="988.2969" y2="988.2969"/><ellipse cx="770" cy="1001.9453" fill="#84BE84" rx="3" ry="3" style="stroke:#038048;stroke-width:1.0;"/><text fill="#000000" font-family="sans-serif" font-size="14" lengthAdjust="spacing" textLength="202" x="779" y="1005.292">error AddPushable(Pushable)</text><ellipse cx="770" cy="1018.2422" fill="#84BE84" rx="3" ry="3" style="stroke:#038048;stroke-width:1.0;"/><text fill="#000000" font-family="sans-serif" font-size="14" lengthAdjust="spacing" textLength="86" x="779" y="1021.5889">error Serve()</text></g><!--class ProducerConfig--><g id="elem_ProducerConfig"><rect codeLine="62" fill="#F1F1F1" height="64.2969" id="ProducerConfig" rx="2.5" ry="2.5" style="stroke:#181818;stroke-width:0.5;" width="184" x="22" y="948.5"/><ellipse cx="57.25" cy="964.5" fill="#B4A7E5" rx="11" ry="11" style="stroke:#181818;stroke-width:1.0;"/><path d="M53.1719,960.2656 L53.1719,958.1094 L60.5625,958.1094 L60.5625,960.2656 L58.0938,960.2656 L58.0938,968.3438 L60.5625,968.3438 L60.5625,970.5 L53.1719,970.5 L53.1719,968.3438 L55.6406,968.3438 L55.6406,960.2656 L53.1719,960.2656 Z " fill="#000000"/><text fill="#000000" font-family="sans-serif" font-size="14" font-style="italic" lengthAdjust="spacing" textLength="107" x="75.75" y="969.3467">ProducerConfig</text><line style="stroke:#181818;stroke-width:0.5;" x1="23" x2="205" y1="980.5" y2="980.5"/><line style="stroke:#181818;stroke-width:0.5;" x1="23" x2="205" y1="988.5" y2="988.5"/><ellipse cx="33" cy="1002.1484" fill="#84BE84" rx="3" ry="3" style="stroke:#038048;stroke-width:1.0;"/><text fill="#000000" font-family="sans-serif" font-size="14" lengthAdjust="spacing" textLength="158" x="42" y="1005.4951">error IngestConfig(any)</text></g><!--class ConsumerConfig--><g id="elem_ConsumerConfig"><rect codeLine="65" fill="#F1F1F1" height="64.2969" id="ConsumerConfig" rx="2.5" ry="2.5" style="stroke:#181818;stroke-width:0.5;" width="184" x="540" y="948.5"/><ellipse cx="571.2" cy="964.5" fill="#B4A7E5" rx="11" ry="11" style="stroke:#181818;stroke-width:1.0;"/><path d="M567.1219,960.2656 L567.1219,958.1094 L574.5125,958.1094 L574.5125,960.2656 L572.0438,960.2656 L572.0438,968.3438 L574.5125,968.3438 L574.5125,970.5 L567.1219,970.5 L567.1219,968.3438 L569.5906,968.3438 L569.5906,960.2656 L567.1219,960.2656 Z " fill="#000000"/><text fill="#000000" font-family="sans-serif" font-size="14" font-style="italic" lengthAdjust="spacing" textLength="116" x="588.8" y="969.3467">ConsumerConfig</text><line style="stroke:#181818;stroke-width:0.5;" x1="541" x2="723" y1="980.5" y2="980.5"/><line style="stroke:#181818;stroke-width:0.5;" x1="541" x2="723" y1="988.5" y2="988.5"/><ellipse cx="551" cy="1002.1484" fill="#84BE84" rx="3" ry="3" style="stroke:#038048;stroke-width:1.0;"/><text fill="#000000" font-family="sans-serif" font-size="14" lengthAdjust="spacing" textLength="158" x="560" y="1005.4951">error IngestConfig(any)</text></g><!--reverse link CompletionHandler to AppData--><g id="link_CompletionHandler_AppData"><path codeLine="69" d="M856,117.07 C856,134.46 856,144.65 856,164.93 " fill="none" id="CompletionHandler-backto-AppData" style="stroke:#181818;stroke-width:1.0;"/><polygon fill="#181818" points="856,105.07,852,111.07,856,117.07,860,111.07,856,105.07" style="stroke:#181818;stroke-width:1.0;"/></g><!--reverse link AppData to Pushable--><g id="link_AppData_Pushable"><path codeLine="70" d="M856,290.3 C856,310.52 856,320.62 856,337.94 " fill="none" id="AppData-backto-Pushable" style="stroke:#181818;stroke-width:1.0;"/><polygon fill="#181818" points="856,278.3,852,284.3,856,290.3,860,284.3,856,278.3" style="stroke:#181818;stroke-width:1.0;"/></g><!--reverse link Server to SourceServer--><g id="link_Server_SourceServer"><path codeLine="71" d="M639.9942,543.1623 C646.6442,563.1823 649.68,572.31 656.82,593.82 " fill="none" id="Server-backto-SourceServer" style="stroke:#181818;stroke-width:1.0;"/><polygon fill="none" points="634.32,526.08,634.3001,545.0537,645.6883,541.2709,634.32,526.08" style="stroke:#181818;stroke-width:1.0;"/></g><!--reverse link Pushable to Pullable--><g id="link_Pushable_Pullable"><path codeLine="72" d="M846.5229,413.8156 C842.4529,432.1756 839.93,443.61 835.87,461.96 " fill="none" id="Pushable-backto-Pullable" style="stroke:#181818;stroke-width:1.0;"/><polygon fill="#181818" points="849.12,402.1,843.9163,407.0921,846.5229,413.8156,851.7267,408.8235,849.12,402.1" style="stroke:#181818;stroke-width:1.0;"/></g><!--reverse link Pullable to SourceServer--><g id="link_Pullable_SourceServer"><path codeLine="73" d="M779.748,537.9038 C756.768,557.9238 740.25,572.31 715.55,593.82 " fill="none" id="Pullable-backto-SourceServer" style="stroke:#181818;stroke-width:1.0;"/><polygon fill="none" points="793.32,526.08,775.8068,533.3798,783.6893,542.4278,793.32,526.08" style="stroke:#181818;stroke-width:1.0;"/></g><!--reverse link Server to SinkServer--><g id="link_Server_SinkServer"><path codeLine="74" d="M564.3218,536.3276 C535.4118,556.3476 512.37,572.31 481.29,593.82 " fill="none" id="Server-backto-SinkServer" style="stroke:#181818;stroke-width:1.0;"/><polygon fill="none" points="579.12,526.08,560.9059,531.3949,567.7377,541.2604,579.12,526.08" style="stroke:#181818;stroke-width:1.0;"/></g><!--reverse link Pushable to SinkServer--><g id="link_Pushable_SinkServer"><path codeLine="75" d="M741.6921,386.9271 C677.9821,398.9471 612.86,418.61 551,462 C502.32,496.15 464.76,554.89 443.51,593.96 " fill="none" id="Pushable-backto-SinkServer" style="stroke:#181818;stroke-width:1.0;"/><polygon fill="none" points="759.38,383.59,740.5797,381.0312,742.8044,392.8231,759.38,383.59" style="stroke:#181818;stroke-width:1.0;"/></g><!--reverse link Pushable to PipeServer--><g id="link_Pushable_PipeServer"><path codeLine="76" d="M922.6314,412.8146 C943.1014,428.0446 949.88,437.64 961,462 C978.92,501.24 968.08,550.16 955.02,585.69 " fill="none" id="Pushable-backto-PipeServer" style="stroke:#181818;stroke-width:1.0;"/><polygon fill="none" points="908.19,402.07,919.0498,417.6284,926.2129,408.0008,908.19,402.07" style="stroke:#181818;stroke-width:1.0;"/></g><!--reverse link Pullable to PipeServer--><g id="link_Pullable_PipeServer"><path codeLine="77" d="M863.1439,540.4771 C876.3739,558.1071 882.41,566.13 897.28,585.93 " fill="none" id="Pullable-backto-PipeServer" style="stroke:#181818;stroke-width:1.0;"/><polygon fill="none" points="852.34,526.08,858.3449,544.0784,867.9429,536.8758,852.34,526.08" style="stroke:#181818;stroke-width:1.0;"/></g><!--reverse link Server to PipeServer--><g id="link_Server_PipeServer"><path codeLine="78" d="M696.745,527.6035 C737.565,545.9035 777.57,563.83 826.75,585.88 " fill="none" id="Server-backto-PipeServer" style="stroke:#181818;stroke-width:1.0;"/><polygon fill="none" points="680.32,520.24,694.2905,533.0785,699.1995,522.1285,680.32,520.24" style="stroke:#181818;stroke-width:1.0;"/></g><!--reverse link SinkServer to Producer--><g id="link_SinkServer_Producer"><path codeLine="80" d="M378.1751,688.8088 C356.7151,713.7688 340.63,732.48 317.97,758.84 " fill="none" id="SinkServer-backto-Producer" style="stroke:#181818;stroke-width:1.0;"/><polygon fill="none" points="389.91,675.16,373.6254,684.8972,382.7247,692.7205,389.91,675.16" style="stroke:#181818;stroke-width:1.0;"/></g><!--reverse link Producer to ProducerServer--><g id="link_Producer_ProducerServer"><path codeLine="81" d="M309.6143,866.5939 C322.8743,890.2139 332.97,908.2 346.24,931.83 " fill="none" id="Producer-backto-ProducerServer" style="stroke:#181818;stroke-width:1.0;"/><polygon fill="#181818" points="303.74,856.13,303.1892,863.32,309.6143,866.5939,310.1651,859.4038,303.74,856.13" style="stroke:#181818;stroke-width:1.0;"/></g><!--reverse link SinkServer to ProducerServer--><g id="link_SinkServer_ProducerServer"><path codeLine="82" d="M424.7144,693.3 C424.7844,744.85 422.12,819.21 405,896 C402.36,907.82 398.36,920.19 394.08,931.67 " fill="none" id="SinkServer-backto-ProducerServer" style="stroke:#181818;stroke-width:1.0;"/><polygon fill="none" points="424.69,675.3,418.7144,693.3081,430.7144,693.2918,424.69,675.3" style="stroke:#181818;stroke-width:1.0;"/></g><!--reverse link SourceServer to ConsumerServer--><g id="link_SourceServer_ConsumerServer"><path codeLine="83" d="M788.2164,684.8176 C799.2364,691.9576 794.43,690.45 803,700 C862.72,766.55 887.43,871.27 897.14,931.86 " fill="none" id="SourceServer-backto-ConsumerServer" style="stroke:#181818;stroke-width:1.0;"/><polygon fill="none" points="773.11,675.03,784.9538,689.8531,791.4789,679.7822,773.11,675.03" style="stroke:#181818;stroke-width:1.0;"/></g><!--reverse link Consumer to ConsumerServer--><g id="link_Consumer_ConsumerServer"><path codeLine="84" d="M744.5749,863.2291 C776.7649,886.8491 805.85,908.2 838.04,931.83 " fill="none" id="Consumer-backto-ConsumerServer" style="stroke:#181818;stroke-width:1.0;"/><polygon fill="#181818" points="734.9,856.13,737.3711,862.9045,744.5749,863.2291,742.1038,856.4546,734.9,856.13" style="stroke:#181818;stroke-width:1.0;"/></g><!--reverse link SourceServer to Consumer--><g id="link_SourceServer_Consumer"><path codeLine="85" d="M670,693.16 C670,718.12 670,732.48 670,758.84 " fill="none" id="SourceServer-backto-Consumer" style="stroke:#181818;stroke-width:1.0;"/><polygon fill="none" points="670,675.16,664,693.16,676,693.16,670,675.16" style="stroke:#181818;stroke-width:1.0;"/></g><!--reverse link PipeServer to JQTransformer--><g id="link_PipeServer_JQTransformer"><path codeLine="87" d="M1048.7073,691.6125 C1059.0073,697.0825 1053.34,694.31 1063,700 C1085.12,713.04 1108.25,728.18 1129.67,742.87 " fill="none" id="PipeServer-backto-JQTransformer" style="stroke:#181818;stroke-width:1.0;"/><polygon fill="none" points="1032.81,683.17,1045.8931,696.9116,1051.5215,686.3134,1032.81,683.17" style="stroke:#181818;stroke-width:1.0;"/></g><!--reverse link Pushable to JQTransformer--><g id="link_Pushable_JQTransformer"><path codeLine="88" d="M912.1891,409.1708 C934.9991,425.5908 952.4,439.88 974,462 C1059.65,549.71 1137.25,670.13 1180.66,742.9 " fill="none" id="Pushable-backto-JQTransformer" style="stroke:#181818;stroke-width:1.0;"/><polygon fill="#181818" points="902.45,402.16,904.9826,408.9117,912.1891,409.1708,909.6564,402.419,902.45,402.16" style="stroke:#181818;stroke-width:1.0;"/></g><!--link Consumer to ConsumerConfig--><g id="link_Consumer_ConsumerConfig"><path codeLine="91" d="M659.41,856.13 C652.87,885.58 647.2665,910.8265 641.5365,936.5765 " fill="none" id="Consumer-to-ConsumerConfig" style="stroke:#181818;stroke-width:1.0;"/><polygon fill="#181818" points="638.93,948.29,644.1378,943.3021,641.5365,936.5765,636.3288,941.5644,638.93,948.29" style="stroke:#181818;stroke-width:1.0;"/></g><!--link Producer to ProducerConfig--><g id="link_Producer_ProducerConfig"><path codeLine="92" d="M231.6,856.13 C203.52,885.58 176.5687,913.8531 152.0287,939.6031 " fill="none" id="Producer-to-ProducerConfig" style="stroke:#181818;stroke-width:1.0;"/><polygon fill="#181818" points="143.75,948.29,150.785,946.7061,152.0287,939.6031,144.9937,941.187,143.75,948.29" style="stroke:#181818;stroke-width:1.0;"/></g><!--SRC=[hLPDKuCm4BtdLt2aLVeBl7IgetP6hTFU70yHKgH2aeRWwDJ-T_b881z0gSWfsNtPVVissG731AKK-iXPhfyURxuuWpudp3a09_zIpZAVEyld3OCutHAM8EagFYyak_riGGBaxFOhHa86ayQvoj9t-1OZXuf5xRf0ZEKvva4WCQvSJ4pG6k5WGzpfdD9ho66BdtqYjp8VmH7Wkg3I8-b6c2EsBSmBaj0OyOZWEuY3M2j8n1GGv4ByVUcKDfb0KKKmKlN8yKwGsvg0TZRVj3JWulWjuaLKTz8N8mTPHbUbs9IhgT2fctvcbSLnsRd3y9RPCKJt3uCwQj4c6VDH5_c1DwUxmdM4FxgLEUV66LL7T2pf4SaP2JA_lIIUKLVw5mHle_1VK-SXqomPKNN1JmRfv6Vc5mzHrcK9xoMGlkIW28UljJXKB1uW7Q-0O22PzpAeDVB58csXCFfcwqss-t6FGvJooblCj_v-dXlb22e9PlRCcdgU64OpeI_Gjof2bYuXGjYhdmQYJWXW7DD3LSCC6FkJmTforcF3olW7M3CiUhdPi1Pc2WXOB7Iak230s6kQQIzgO403h0vm5Qw_5M1OLHRjo9E1Qm6KOLpYj3-ScVPJqtg1-l3092vUojJBgCt8KAeDAts_]--></g></svg>