<?xml version="1.0" encoding="us-ascii" standalone="no"?><svg xmlns="http://www.w3.org/2000/svg" xmlns:xlink="http://www.w3.org/1999/xlink" contentStyleType="text/css" height="1258px" preserveAspectRatio="none" style="width:1063px;height:1258px;background:#FFFFFF;" version="1.1" viewBox="0 0 1063 1258" width="1063px" zoomAndPan="magnify"><defs/><g><!--cluster Server--><g id="cluster_Server"><path d="M8.5,6 L62.5,6 A3.75,3.75 0 0 1 65,8.5 L72,28.2969 L1053.5,28.2969 A2.5,2.5 0 0 1 1056,30.7969 L1056,1248.5 A2.5,2.5 0 0 1 1053.5,1251 L8.5,1251 A2.5,2.5 0 0 1 6,1248.5 L6,8.5 A2.5,2.5 0 0 1 8.5,6 " fill="none" style="stroke:#000000;stroke-width:1.5;"/><line style="stroke:#000000;stroke-width:1.5;" x1="6" x2="72" y1="28.2969" y2="28.2969"/><text fill="#000000" font-family="sans-serif" font-size="14" font-weight="bold" lengthAdjust="spacing" textLength="53" x="10" y="20.9951">Server</text></g><!--class CompletionHandler--><g id="elem_CompletionHandler"><rect codeLine="2" fill="#F1F1F1" height="64.2969" id="CompletionHandler" rx="2.5" ry="2.5" style="stroke:#181818;stroke-width:0.5;" width="205" x="429.5" y="41"/><ellipse cx="462.95" cy="57" fill="#B4A7E5" rx="11" ry="11" style="stroke:#181818;stroke-width:1.0;"/><path d="M458.8719,52.7656 L458.8719,50.6094 L466.2625,50.6094 L466.2625,52.7656 L463.7938,52.7656 L463.7938,60.8438 L466.2625,60.8438 L466.2625,63 L458.8719,63 L458.8719,60.8438 L461.3406,60.8438 L461.3406,52.7656 L458.8719,52.7656 Z " fill="#000000"/><text fill="#000000" font-family="sans-serif" font-size="14" font-style="italic" lengthAdjust="spacing" textLength="132" x="481.05" y="61.8467">CompletionHandler</text><line style="stroke:#181818;stroke-width:0.5;" x1="430.5" x2="633.5" y1="73" y2="73"/><line style="stroke:#181818;stroke-width:0.5;" x1="430.5" x2="633.5" y1="81" y2="81"/><ellipse cx="440.5" cy="94.6484" fill="#84BE84" rx="3" ry="3" style="stroke:#038048;stroke-width:1.0;"/><text fill="#000000" font-family="sans-serif" font-size="14" lengthAdjust="spacing" textLength="179" x="449.5" y="97.9951">error Complete(any, error)</text></g><!--class WaitGroupCompletionHandler--><g id="elem_WaitGroupCompletionHandler"><rect codeLine="5" fill="#F1F1F1" height="129.4844" id="WaitGroupCompletionHandler" rx="2.5" ry="2.5" style="stroke:#181818;stroke-width:0.5;" width="236" x="255" y="165"/><ellipse cx="270" cy="181" fill="#F1F1F1" rx="11" ry="11" style="stroke:#181818;stroke-width:1.0;"/><path d="M269.4844,181.5625 Q267.625,180.8594 266.9688,180.0938 Q266.3281,179.3125 266.3281,178 Q266.3281,176.3125 267.4063,175.3438 Q268.4844,174.375 270.3594,174.375 Q271.2188,174.375 272.0625,174.5781 Q272.9219,174.7656 273.7656,175.1563 L273.7656,177.5469 Q272.9844,176.9844 272.1563,176.7031 Q271.3438,176.4063 270.5469,176.4063 Q269.6719,176.4063 269.1875,176.7656 Q268.7188,177.125 268.7188,177.7813 Q268.7188,178.2969 269.0625,178.6406 Q269.4063,178.9688 270.5,179.375 L271.5625,179.7813 Q273.0469,180.3281 273.75,181.2344 Q274.4688,182.1406 274.4688,183.5156 Q274.4688,185.3906 273.3594,186.3125 Q272.25,187.2344 270,187.2344 Q269.0781,187.2344 268.1563,187.0156 Q267.2344,186.7969 266.375,186.375 L266.375,183.8438 Q267.3438,184.5313 268.2656,184.875 Q269.1875,185.2188 270.0781,185.2188 Q270.9844,185.2188 271.4844,184.8125 Q271.9844,184.3906 271.9844,183.6563 Q271.9844,183.0938 271.6406,182.6875 Q271.3125,182.2656 270.6875,182.0156 L269.4844,181.5625 Z " fill="#000000"/><text fill="#000000" font-family="sans-serif" font-size="14" lengthAdjust="spacing" textLength="204" x="284" y="185.8467">WaitGroupCompletionHandler</text><line style="stroke:#181818;stroke-width:0.5;" x1="256" x2="490" y1="197" y2="197"/><rect fill="none" height="6" style="stroke:#C82930;stroke-width:1.0;" width="6" x="263" y="207.6484"/><text fill="#000000" font-family="sans-serif" font-size="14" lengthAdjust="spacing" textLength="132" x="275" y="213.9951">sync.WaitGroup wg</text><rect fill="none" height="6" style="stroke:#C82930;stroke-width:1.0;" width="6" x="263" y="223.9453"/><text fill="#000000" font-family="sans-serif" font-size="14" lengthAdjust="spacing" textLength="58" x="275" y="230.292">any data</text><rect fill="none" height="6" style="stroke:#C82930;stroke-width:1.0;" width="6" x="263" y="240.2422"/><text fill="#000000" font-family="sans-serif" font-size="14" lengthAdjust="spacing" textLength="70" x="275" y="246.5889">error error</text><rect fill="none" height="6" style="stroke:#C82930;stroke-width:1.0;" width="6" x="263" y="256.5391"/><text fill="#000000" font-family="sans-serif" font-size="14" lengthAdjust="spacing" textLength="112" x="275" y="262.8857">bool isComplete</text><line style="stroke:#181818;stroke-width:0.5;" x1="256" x2="490" y1="270.1875" y2="270.1875"/><ellipse cx="266" cy="283.8359" fill="#84BE84" rx="3" ry="3" style="stroke:#038048;stroke-width:1.0;"/><text fill="#000000" font-family="sans-serif" font-size="14" lengthAdjust="spacing" textLength="179" x="275" y="287.1826">error Complete(any, error)</text></g><!--class AppData--><g id="elem_AppData"><rect codeLine="12" fill="#F1F1F1" height="113.1875" id="AppData" rx="2.5" ry="2.5" style="stroke:#181818;stroke-width:0.5;" width="329" x="526.5" y="173"/><ellipse cx="657.25" cy="189" fill="#F1F1F1" rx="11" ry="11" style="stroke:#181818;stroke-width:1.0;"/><path d="M656.7344,189.5625 Q654.875,188.8594 654.2188,188.0938 Q653.5781,187.3125 653.5781,186 Q653.5781,184.3125 654.6563,183.3438 Q655.7344,182.375 657.6094,182.375 Q658.4688,182.375 659.3125,182.5781 Q660.1719,182.7656 661.0156,183.1563 L661.0156,185.5469 Q660.2344,184.9844 659.4063,184.7031 Q658.5938,184.4063 657.7969,184.4063 Q656.9219,184.4063 656.4375,184.7656 Q655.9688,185.125 655.9688,185.7813 Q655.9688,186.2969 656.3125,186.6406 Q656.6563,186.9688 657.75,187.375 L658.8125,187.7813 Q660.2969,188.3281 661,189.2344 Q661.7188,190.1406 661.7188,191.5156 Q661.7188,193.3906 660.6094,194.3125 Q659.5,195.2344 657.25,195.2344 Q656.3281,195.2344 655.4063,195.0156 Q654.4844,194.7969 653.625,194.375 L653.625,191.8438 Q654.5938,192.5313 655.5156,192.875 Q656.4375,193.2188 657.3281,193.2188 Q658.2344,193.2188 658.7344,192.8125 Q659.2344,192.3906 659.2344,191.6563 Q659.2344,191.0938 658.8906,190.6875 Q658.5625,190.2656 657.9375,190.0156 L656.7344,189.5625 Z " fill="#000000"/><text fill="#000000" font-family="sans-serif" font-size="14" lengthAdjust="spacing" textLength="59" x="677.75" y="193.8467">AppData</text><line style="stroke:#181818;stroke-width:0.5;" x1="527.5" x2="854.5" y1="205" y2="205"/><rect fill="none" height="6" style="stroke:#C82930;stroke-width:1.0;" width="6" x="534.5" y="215.6484"/><text fill="#000000" font-family="sans-serif" font-size="14" lengthAdjust="spacing" textLength="58" x="546.5" y="221.9951">any data</text><ellipse cx="537.5" cy="234.9453" fill="none" rx="3" ry="3" style="stroke:#038048;stroke-width:1.0;"/><text fill="#000000" font-family="sans-serif" font-size="14" lengthAdjust="spacing" textLength="266" x="546.5" y="238.292">CompletionHandler completionHandler</text><line style="stroke:#181818;stroke-width:0.5;" x1="527.5" x2="854.5" y1="245.5938" y2="245.5938"/><ellipse cx="537.5" cy="259.2422" fill="#84BE84" rx="3" ry="3" style="stroke:#038048;stroke-width:1.0;"/><text fill="#000000" font-family="sans-serif" font-size="14" lengthAdjust="spacing" textLength="95" x="546.5" y="262.5889">any GetData()</text><ellipse cx="537.5" cy="275.5391" fill="#84BE84" rx="3" ry="3" style="stroke:#038048;stroke-width:1.0;"/><text fill="#000000" font-family="sans-serif" font-size="14" lengthAdjust="spacing" textLength="303" x="546.5" y="278.8857">CompletionHandler GetCompletionHandler()</text></g><!--class Server--><g id="elem_Server"><rect codeLine="18" fill="#F1F1F1" height="80.5938" id="Server" rx="2.5" ry="2.5" style="stroke:#181818;stroke-width:0.5;" width="158" x="343" y="478"/><ellipse cx="395.75" cy="494" fill="#B4A7E5" rx="11" ry="11" style="stroke:#181818;stroke-width:1.0;"/><path d="M391.6719,489.7656 L391.6719,487.6094 L399.0625,487.6094 L399.0625,489.7656 L396.5938,489.7656 L396.5938,497.8438 L399.0625,497.8438 L399.0625,500 L391.6719,500 L391.6719,497.8438 L394.1406,497.8438 L394.1406,489.7656 L391.6719,489.7656 Z " fill="#000000"/><text fill="#000000" font-family="sans-serif" font-size="14" font-style="italic" lengthAdjust="spacing" textLength="44" x="416.25" y="498.8467">Server</text><line style="stroke:#181818;stroke-width:0.5;" x1="344" x2="500" y1="510" y2="510"/><line style="stroke:#181818;stroke-width:0.5;" x1="344" x2="500" y1="518" y2="518"/><ellipse cx="354" cy="531.6484" fill="#84BE84" rx="3" ry="3" style="stroke:#038048;stroke-width:1.0;"/><text fill="#000000" font-family="sans-serif" font-size="14" lengthAdjust="spacing" textLength="86" x="363" y="534.9951">error Serve()</text><ellipse cx="354" cy="547.9453" fill="#84BE84" rx="3" ry="3" style="stroke:#038048;stroke-width:1.0;"/><text fill="#000000" font-family="sans-serif" font-size="14" lengthAdjust="spacing" textLength="132" x="363" y="551.292">error Setup(Config)</text></g><!--class Pullable--><g id="elem_Pullable"><rect codeLine="22" fill="#F1F1F1" height="64.2969" id="Pullable" rx="2.5" ry="2.5" style="stroke:#181818;stroke-width:0.5;" width="228" x="577" y="486.5"/><ellipse cx="660.25" cy="502.5" fill="#B4A7E5" rx="11" ry="11" style="stroke:#181818;stroke-width:1.0;"/><path d="M656.1719,498.2656 L656.1719,496.1094 L663.5625,496.1094 L663.5625,498.2656 L661.0938,498.2656 L661.0938,506.3438 L663.5625,506.3438 L663.5625,508.5 L656.1719,508.5 L656.1719,506.3438 L658.6406,506.3438 L658.6406,498.2656 L656.1719,498.2656 Z " fill="#000000"/><text fill="#000000" font-family="sans-serif" font-size="14" font-style="italic" lengthAdjust="spacing" textLength="53" x="680.75" y="507.3467">Pullable</text><line style="stroke:#181818;stroke-width:0.5;" x1="578" x2="804" y1="518.5" y2="518.5"/><line style="stroke:#181818;stroke-width:0.5;" x1="578" x2="804" y1="526.5" y2="526.5"/><ellipse cx="588" cy="540.1484" fill="#84BE84" rx="3" ry="3" style="stroke:#038048;stroke-width:1.0;"/><text fill="#000000" font-family="sans-serif" font-size="14" lengthAdjust="spacing" textLength="202" x="597" y="543.4951">error AddPushable(Pushable)</text></g><!--class Pushable--><g id="elem_Pushable"><rect codeLine="25" fill="#F1F1F1" height="64.2969" id="Pushable" rx="2.5" ry="2.5" style="stroke:#181818;stroke-width:0.5;" width="193" x="594.5" y="354"/><ellipse cx="654.75" cy="370" fill="#B4A7E5" rx="11" ry="11" style="stroke:#181818;stroke-width:1.0;"/><path d="M650.6719,365.7656 L650.6719,363.6094 L658.0625,363.6094 L658.0625,365.7656 L655.5938,365.7656 L655.5938,373.8438 L658.0625,373.8438 L658.0625,376 L650.6719,376 L650.6719,373.8438 L653.1406,373.8438 L653.1406,365.7656 L650.6719,365.7656 Z " fill="#000000"/><text fill="#000000" font-family="sans-serif" font-size="14" font-style="italic" lengthAdjust="spacing" textLength="64" x="675.25" y="374.8467">Pushable</text><line style="stroke:#181818;stroke-width:0.5;" x1="595.5" x2="786.5" y1="386" y2="386"/><line style="stroke:#181818;stroke-width:0.5;" x1="595.5" x2="786.5" y1="394" y2="394"/><ellipse cx="605.5" cy="407.6484" fill="#84BE84" rx="3" ry="3" style="stroke:#038048;stroke-width:1.0;"/><text fill="#000000" font-family="sans-serif" font-size="14" lengthAdjust="spacing" textLength="167" x="614.5" y="410.9951">error SendTo(*AppData)</text></g><!--class SourceServer--><g id="elem_SourceServer"><rect codeLine="28" fill="#F1F1F1" height="96.8906" id="SourceServer" rx="2.5" ry="2.5" style="stroke:#181818;stroke-width:0.5;" width="228" x="549" y="627"/><ellipse cx="612.25" cy="643" fill="#B4A7E5" rx="11" ry="11" style="stroke:#181818;stroke-width:1.0;"/><path d="M608.1719,638.7656 L608.1719,636.6094 L615.5625,636.6094 L615.5625,638.7656 L613.0938,638.7656 L613.0938,646.8438 L615.5625,646.8438 L615.5625,649 L608.1719,649 L608.1719,646.8438 L610.6406,646.8438 L610.6406,638.7656 L608.1719,638.7656 Z " fill="#000000"/><text fill="#000000" font-family="sans-serif" font-size="14" font-style="italic" lengthAdjust="spacing" textLength="93" x="632.75" y="647.8467">SourceServer</text><line style="stroke:#181818;stroke-width:0.5;" x1="550" x2="776" y1="659" y2="659"/><line style="stroke:#181818;stroke-width:0.5;" x1="550" x2="776" y1="667" y2="667"/><ellipse cx="560" cy="680.6484" fill="#84BE84" rx="3" ry="3" style="stroke:#038048;stroke-width:1.0;"/><text fill="#000000" font-family="sans-serif" font-size="14" lengthAdjust="spacing" textLength="202" x="569" y="683.9951">error AddPushable(Pushable)</text><ellipse cx="560" cy="696.9453" fill="#84BE84" rx="3" ry="3" style="stroke:#038048;stroke-width:1.0;"/><text fill="#000000" font-family="sans-serif" font-size="14" lengthAdjust="spacing" textLength="86" x="569" y="700.292">error Serve()</text><ellipse cx="560" cy="713.2422" fill="#84BE84" rx="3" ry="3" style="stroke:#038048;stroke-width:1.0;"/><text fill="#000000" font-family="sans-serif" font-size="14" lengthAdjust="spacing" textLength="132" x="569" y="716.5889">error Setup(Config)</text></g><!--class SinkServer--><g id="elem_SinkServer"><rect codeLine="33" fill="#F1F1F1" height="96.8906" id="SinkServer" rx="2.5" ry="2.5" style="stroke:#181818;stroke-width:0.5;" width="193" x="22.5" y="627"/><ellipse cx="78.25" cy="643" fill="#B4A7E5" rx="11" ry="11" style="stroke:#181818;stroke-width:1.0;"/><path d="M74.1719,638.7656 L74.1719,636.6094 L81.5625,636.6094 L81.5625,638.7656 L79.0938,638.7656 L79.0938,646.8438 L81.5625,646.8438 L81.5625,649 L74.1719,649 L74.1719,646.8438 L76.6406,646.8438 L76.6406,638.7656 L74.1719,638.7656 Z " fill="#000000"/><text fill="#000000" font-family="sans-serif" font-size="14" font-style="italic" lengthAdjust="spacing" textLength="73" x="98.75" y="647.8467">SinkServer</text><line style="stroke:#181818;stroke-width:0.5;" x1="23.5" x2="214.5" y1="659" y2="659"/><line style="stroke:#181818;stroke-width:0.5;" x1="23.5" x2="214.5" y1="667" y2="667"/><ellipse cx="33.5" cy="680.6484" fill="#84BE84" rx="3" ry="3" style="stroke:#038048;stroke-width:1.0;"/><text fill="#000000" font-family="sans-serif" font-size="14" lengthAdjust="spacing" textLength="167" x="42.5" y="683.9951">error SendTo(*AppData)</text><ellipse cx="33.5" cy="696.9453" fill="#84BE84" rx="3" ry="3" style="stroke:#038048;stroke-width:1.0;"/><text fill="#000000" font-family="sans-serif" font-size="14" lengthAdjust="spacing" textLength="86" x="42.5" y="700.292">error Serve()</text><ellipse cx="33.5" cy="713.2422" fill="#84BE84" rx="3" ry="3" style="stroke:#038048;stroke-width:1.0;"/><text fill="#000000" font-family="sans-serif" font-size="14" lengthAdjust="spacing" textLength="132" x="42.5" y="716.5889">error Setup(Config)</text></g><!--class PipeServer--><g id="elem_PipeServer"><rect codeLine="38" fill="#F1F1F1" height="113.1875" id="PipeServer" rx="2.5" ry="2.5" style="stroke:#181818;stroke-width:0.5;" width="228" x="812" y="619"/><ellipse cx="884.75" cy="635" fill="#B4A7E5" rx="11" ry="11" style="stroke:#181818;stroke-width:1.0;"/><path d="M880.6719,630.7656 L880.6719,628.6094 L888.0625,628.6094 L888.0625,630.7656 L885.5938,630.7656 L885.5938,638.8438 L888.0625,638.8438 L888.0625,641 L880.6719,641 L880.6719,638.8438 L883.1406,638.8438 L883.1406,630.7656 L880.6719,630.7656 Z " fill="#000000"/><text fill="#000000" font-family="sans-serif" font-size="14" font-style="italic" lengthAdjust="spacing" textLength="74" x="905.25" y="639.8467">PipeServer</text><line style="stroke:#181818;stroke-width:0.5;" x1="813" x2="1039" y1="651" y2="651"/><line style="stroke:#181818;stroke-width:0.5;" x1="813" x2="1039" y1="659" y2="659"/><ellipse cx="823" cy="672.6484" fill="#84BE84" rx="3" ry="3" style="stroke:#038048;stroke-width:1.0;"/><text fill="#000000" font-family="sans-serif" font-size="14" lengthAdjust="spacing" textLength="202" x="832" y="675.9951">error AddPushable(Pushable)</text><ellipse cx="823" cy="688.9453" fill="#84BE84" rx="3" ry="3" style="stroke:#038048;stroke-width:1.0;"/><text fill="#000000" font-family="sans-serif" font-size="14" lengthAdjust="spacing" textLength="167" x="832" y="692.292">error SendTo(*AppData)</text><ellipse cx="823" cy="705.2422" fill="#84BE84" rx="3" ry="3" style="stroke:#038048;stroke-width:1.0;"/><text fill="#000000" font-family="sans-serif" font-size="14" lengthAdjust="spacing" textLength="86" x="832" y="708.5889">error Serve()</text><ellipse cx="823" cy="721.5391" fill="#84BE84" rx="3" ry="3" style="stroke:#038048;stroke-width:1.0;"/><text fill="#000000" font-family="sans-serif" font-size="14" lengthAdjust="spacing" textLength="132" x="832" y="724.8857">error Setup(Config)</text></g><!--class MapSinkServer--><g id="elem_MapSinkServer"><rect codeLine="44" fill="#F1F1F1" height="113.1875" id="MapSinkServer" rx="2.5" ry="2.5" style="stroke:#181818;stroke-width:0.5;" width="283" x="22.5" y="792"/><ellipse cx="108.75" cy="808" fill="#F1F1F1" rx="11" ry="11" style="stroke:#181818;stroke-width:1.0;"/><path d="M108.2344,808.5625 Q106.375,807.8594 105.7188,807.0938 Q105.0781,806.3125 105.0781,805 Q105.0781,803.3125 106.1563,802.3438 Q107.2344,801.375 109.1094,801.375 Q109.9688,801.375 110.8125,801.5781 Q111.6719,801.7656 112.5156,802.1563 L112.5156,804.5469 Q111.7344,803.9844 110.9063,803.7031 Q110.0938,803.4063 109.2969,803.4063 Q108.4219,803.4063 107.9375,803.7656 Q107.4688,804.125 107.4688,804.7813 Q107.4688,805.2969 107.8125,805.6406 Q108.1563,805.9688 109.25,806.375 L110.3125,806.7813 Q111.7969,807.3281 112.5,808.2344 Q113.2188,809.1406 113.2188,810.5156 Q113.2188,812.3906 112.1094,813.3125 Q111,814.2344 108.75,814.2344 Q107.8281,814.2344 106.9063,814.0156 Q105.9844,813.7969 105.125,813.375 L105.125,810.8438 Q106.0938,811.5313 107.0156,811.875 Q107.9375,812.2188 108.8281,812.2188 Q109.7344,812.2188 110.2344,811.8125 Q110.7344,811.3906 110.7344,810.6563 Q110.7344,810.0938 110.3906,809.6875 Q110.0625,809.2656 109.4375,809.0156 L108.2344,808.5625 Z " fill="#000000"/><text fill="#000000" font-family="sans-serif" font-size="14" lengthAdjust="spacing" textLength="102" x="129.25" y="812.8467">MapSinkServer</text><line style="stroke:#181818;stroke-width:0.5;" x1="23.5" x2="304.5" y1="824" y2="824"/><rect fill="none" height="6" style="stroke:#C82930;stroke-width:1.0;" width="6" x="30.5" y="834.6484"/><text fill="#000000" font-family="sans-serif" font-size="14" lengthAdjust="spacing" textLength="257" x="42.5" y="840.9951">map[string]SinkServer sinkServerMap</text><line style="stroke:#181818;stroke-width:0.5;" x1="23.5" x2="304.5" y1="848.2969" y2="848.2969"/><ellipse cx="33.5" cy="861.9453" fill="#84BE84" rx="3" ry="3" style="stroke:#038048;stroke-width:1.0;"/><text fill="#000000" font-family="sans-serif" font-size="14" lengthAdjust="spacing" textLength="167" x="42.5" y="865.292">error SendTo(*AppData)</text><ellipse cx="33.5" cy="878.2422" fill="#84BE84" rx="3" ry="3" style="stroke:#038048;stroke-width:1.0;"/><text fill="#000000" font-family="sans-serif" font-size="14" lengthAdjust="spacing" textLength="86" x="42.5" y="881.5889">error Serve()</text><ellipse cx="33.5" cy="894.5391" fill="#84BE84" rx="3" ry="3" style="stroke:#038048;stroke-width:1.0;"/><text fill="#000000" font-family="sans-serif" font-size="14" lengthAdjust="spacing" textLength="132" x="42.5" y="897.8857">error Setup(Config)</text></g><!--class Config--><g id="elem_Config"><rect codeLine="50" fill="#F1F1F1" height="64.2969" id="Config" rx="2.5" ry="2.5" style="stroke:#181818;stroke-width:0.5;" width="263" x="250.5" y="643.5"/><ellipse cx="355.75" cy="659.5" fill="#B4A7E5" rx="11" ry="11" style="stroke:#181818;stroke-width:1.0;"/><path d="M351.6719,655.2656 L351.6719,653.1094 L359.0625,653.1094 L359.0625,655.2656 L356.5938,655.2656 L356.5938,663.3438 L359.0625,663.3438 L359.0625,665.5 L351.6719,665.5 L351.6719,663.3438 L354.1406,663.3438 L354.1406,655.2656 L351.6719,655.2656 Z " fill="#000000"/><text fill="#000000" font-family="sans-serif" font-size="14" font-style="italic" lengthAdjust="spacing" textLength="44" x="376.25" y="664.3467">Config</text><line style="stroke:#181818;stroke-width:0.5;" x1="251.5" x2="512.5" y1="675.5" y2="675.5"/><line style="stroke:#181818;stroke-width:0.5;" x1="251.5" x2="512.5" y1="683.5" y2="683.5"/><ellipse cx="261.5" cy="697.1484" fill="#84BE84" rx="3" ry="3" style="stroke:#038048;stroke-width:1.0;"/><text fill="#000000" font-family="sans-serif" font-size="14" lengthAdjust="spacing" textLength="237" x="270.5" y="700.4951">error IngestConfig(map[string]any)</text></g><!--class SelectProducerConfig--><g id="elem_SelectProducerConfig"><rect codeLine="53" fill="#F1F1F1" height="113.1875" id="SelectProducerConfig" rx="2.5" ry="2.5" style="stroke:#181818;stroke-width:0.5;" width="263" x="685.5" y="792"/><ellipse cx="737.75" cy="808" fill="#F1F1F1" rx="11" ry="11" style="stroke:#181818;stroke-width:1.0;"/><path d="M737.2344,808.5625 Q735.375,807.8594 734.7188,807.0938 Q734.0781,806.3125 734.0781,805 Q734.0781,803.3125 735.1563,802.3438 Q736.2344,801.375 738.1094,801.375 Q738.9688,801.375 739.8125,801.5781 Q740.6719,801.7656 741.5156,802.1563 L741.5156,804.5469 Q740.7344,803.9844 739.9063,803.7031 Q739.0938,803.4063 738.2969,803.4063 Q737.4219,803.4063 736.9375,803.7656 Q736.4688,804.125 736.4688,804.7813 Q736.4688,805.2969 736.8125,805.6406 Q737.1563,805.9688 738.25,806.375 L739.3125,806.7813 Q740.7969,807.3281 741.5,808.2344 Q742.2188,809.1406 742.2188,810.5156 Q742.2188,812.3906 741.1094,813.3125 Q740,814.2344 737.75,814.2344 Q736.8281,814.2344 735.9063,814.0156 Q734.9844,813.7969 734.125,813.375 L734.125,810.8438 Q735.0938,811.5313 736.0156,811.875 Q736.9375,812.2188 737.8281,812.2188 Q738.7344,812.2188 739.2344,811.8125 Q739.7344,811.3906 739.7344,810.6563 Q739.7344,810.0938 739.3906,809.6875 Q739.0625,809.2656 738.4375,809.0156 L737.2344,808.5625 Z " fill="#000000"/><text fill="#000000" font-family="sans-serif" font-size="14" lengthAdjust="spacing" textLength="150" x="758.25" y="812.8467">SelectProducerConfig</text><line style="stroke:#181818;stroke-width:0.5;" x1="686.5" x2="947.5" y1="824" y2="824"/><ellipse cx="696.5" cy="837.6484" fill="none" rx="3" ry="3" style="stroke:#038048;stroke-width:1.0;"/><text fill="#000000" font-family="sans-serif" font-size="14" lengthAdjust="spacing" textLength="72" x="705.5" y="840.9951">string Map</text><ellipse cx="696.5" cy="853.9453" fill="none" rx="3" ry="3" style="stroke:#038048;stroke-width:1.0;"/><text fill="#000000" font-family="sans-serif" font-size="14" lengthAdjust="spacing" textLength="77" x="705.5" y="857.292">string Type</text><ellipse cx="696.5" cy="870.2422" fill="none" rx="3" ry="3" style="stroke:#038048;stroke-width:1.0;"/><text fill="#000000" font-family="sans-serif" font-size="14" lengthAdjust="spacing" textLength="92" x="705.5" y="873.5889">Config Config</text><line style="stroke:#181818;stroke-width:0.5;" x1="686.5" x2="947.5" y1="880.8906" y2="880.8906"/><ellipse cx="696.5" cy="894.5391" fill="#84BE84" rx="3" ry="3" style="stroke:#038048;stroke-width:1.0;"/><text fill="#000000" font-family="sans-serif" font-size="14" lengthAdjust="spacing" textLength="237" x="705.5" y="897.8857">error IngestConfig(map[string]any)</text></g><!--class SetupProducersConfig--><g id="elem_SetupProducersConfig"><rect codeLine="59" fill="#F1F1F1" height="96.8906" id="SetupProducersConfig" rx="2.5" ry="2.5" style="stroke:#181818;stroke-width:0.5;" width="348" x="666" y="965"/><ellipse cx="757.75" cy="981" fill="#F1F1F1" rx="11" ry="11" style="stroke:#181818;stroke-width:1.0;"/><path d="M757.2344,981.5625 Q755.375,980.8594 754.7188,980.0938 Q754.0781,979.3125 754.0781,978 Q754.0781,976.3125 755.1563,975.3438 Q756.2344,974.375 758.1094,974.375 Q758.9688,974.375 759.8125,974.5781 Q760.6719,974.7656 761.5156,975.1563 L761.5156,977.5469 Q760.7344,976.9844 759.9063,976.7031 Q759.0938,976.4063 758.2969,976.4063 Q757.4219,976.4063 756.9375,976.7656 Q756.4688,977.125 756.4688,977.7813 Q756.4688,978.2969 756.8125,978.6406 Q757.1563,978.9688 758.25,979.375 L759.3125,979.7813 Q760.7969,980.3281 761.5,981.2344 Q762.2188,982.1406 762.2188,983.5156 Q762.2188,985.3906 761.1094,986.3125 Q760,987.2344 757.75,987.2344 Q756.8281,987.2344 755.9063,987.0156 Q754.9844,986.7969 754.125,986.375 L754.125,983.8438 Q755.0938,984.5313 756.0156,984.875 Q756.9375,985.2188 757.8281,985.2188 Q758.7344,985.2188 759.2344,984.8125 Q759.7344,984.3906 759.7344,983.6563 Q759.7344,983.0938 759.3906,982.6875 Q759.0625,982.2656 758.4375,982.0156 L757.2344,981.5625 Z " fill="#000000"/><text fill="#000000" font-family="sans-serif" font-size="14" lengthAdjust="spacing" textLength="156" x="778.25" y="985.8467">SetupProducersConfig</text><line style="stroke:#181818;stroke-width:0.5;" x1="667" x2="1013" y1="997" y2="997"/><ellipse cx="677" cy="1010.6484" fill="none" rx="3" ry="3" style="stroke:#038048;stroke-width:1.0;"/><text fill="#000000" font-family="sans-serif" font-size="14" lengthAdjust="spacing" textLength="104" x="686" y="1013.9951">IsMapping bool</text><ellipse cx="677" cy="1026.9453" fill="none" rx="3" ry="3" style="stroke:#038048;stroke-width:1.0;"/><text fill="#000000" font-family="sans-serif" font-size="14" lengthAdjust="spacing" textLength="322" x="686" y="1030.292">[]SelectProducerConfig SelectProducerConfigs</text><line style="stroke:#181818;stroke-width:0.5;" x1="667" x2="1013" y1="1037.5938" y2="1037.5938"/><ellipse cx="677" cy="1051.2422" fill="#84BE84" rx="3" ry="3" style="stroke:#038048;stroke-width:1.0;"/><text fill="#000000" font-family="sans-serif" font-size="14" lengthAdjust="spacing" textLength="237" x="686" y="1054.5889">error IngestConfig(map[string]any)</text></g><!--class SelectConsumerConfig--><g id="elem_SelectConsumerConfig"><rect codeLine="64" fill="#F1F1F1" height="96.8906" id="SelectConsumerConfig" rx="2.5" ry="2.5" style="stroke:#181818;stroke-width:0.5;" width="263" x="340.5" y="800"/><ellipse cx="388.25" cy="816" fill="#F1F1F1" rx="11" ry="11" style="stroke:#181818;stroke-width:1.0;"/><path d="M387.7344,816.5625 Q385.875,815.8594 385.2188,815.0938 Q384.5781,814.3125 384.5781,813 Q384.5781,811.3125 385.6563,810.3438 Q386.7344,809.375 388.6094,809.375 Q389.4688,809.375 390.3125,809.5781 Q391.1719,809.7656 392.0156,810.1563 L392.0156,812.5469 Q391.2344,811.9844 390.4063,811.7031 Q389.5938,811.4063 388.7969,811.4063 Q387.9219,811.4063 387.4375,811.7656 Q386.9688,812.125 386.9688,812.7813 Q386.9688,813.2969 387.3125,813.6406 Q387.6563,813.9688 388.75,814.375 L389.8125,814.7813 Q391.2969,815.3281 392,816.2344 Q392.7188,817.1406 392.7188,818.5156 Q392.7188,820.3906 391.6094,821.3125 Q390.5,822.2344 388.25,822.2344 Q387.3281,822.2344 386.4063,822.0156 Q385.4844,821.7969 384.625,821.375 L384.625,818.8438 Q385.5938,819.5313 386.5156,819.875 Q387.4375,820.2188 388.3281,820.2188 Q389.2344,820.2188 389.7344,819.8125 Q390.2344,819.3906 390.2344,818.6563 Q390.2344,818.0938 389.8906,817.6875 Q389.5625,817.2656 388.9375,817.0156 L387.7344,816.5625 Z " fill="#000000"/><text fill="#000000" font-family="sans-serif" font-size="14" lengthAdjust="spacing" textLength="159" x="408.75" y="820.8467">SelectConsumerConfig</text><line style="stroke:#181818;stroke-width:0.5;" x1="341.5" x2="602.5" y1="832" y2="832"/><ellipse cx="351.5" cy="845.6484" fill="none" rx="3" ry="3" style="stroke:#038048;stroke-width:1.0;"/><text fill="#000000" font-family="sans-serif" font-size="14" lengthAdjust="spacing" textLength="77" x="360.5" y="848.9951">string Type</text><ellipse cx="351.5" cy="861.9453" fill="none" rx="3" ry="3" style="stroke:#038048;stroke-width:1.0;"/><text fill="#000000" font-family="sans-serif" font-size="14" lengthAdjust="spacing" textLength="92" x="360.5" y="865.292">Config Config</text><line style="stroke:#181818;stroke-width:0.5;" x1="341.5" x2="602.5" y1="872.5938" y2="872.5938"/><ellipse cx="351.5" cy="886.2422" fill="#84BE84" rx="3" ry="3" style="stroke:#038048;stroke-width:1.0;"/><text fill="#000000" font-family="sans-serif" font-size="14" lengthAdjust="spacing" textLength="237" x="360.5" y="889.5889">error IngestConfig(map[string]any)</text></g><!--class SetupConsumersConfig--><g id="elem_SetupConsumersConfig"><rect codeLine="69" fill="#F1F1F1" height="80.5938" id="SetupConsumersConfig" rx="2.5" ry="2.5" style="stroke:#181818;stroke-width:0.5;" width="366" x="265" y="973"/><ellipse cx="361.25" cy="989" fill="#F1F1F1" rx="11" ry="11" style="stroke:#181818;stroke-width:1.0;"/><path d="M360.7344,989.5625 Q358.875,988.8594 358.2188,988.0938 Q357.5781,987.3125 357.5781,986 Q357.5781,984.3125 358.6563,983.3438 Q359.7344,982.375 361.6094,982.375 Q362.4688,982.375 363.3125,982.5781 Q364.1719,982.7656 365.0156,983.1563 L365.0156,985.5469 Q364.2344,984.9844 363.4063,984.7031 Q362.5938,984.4063 361.7969,984.4063 Q360.9219,984.4063 360.4375,984.7656 Q359.9688,985.125 359.9688,985.7813 Q359.9688,986.2969 360.3125,986.6406 Q360.6563,986.9688 361.75,987.375 L362.8125,987.7813 Q364.2969,988.3281 365,989.2344 Q365.7188,990.1406 365.7188,991.5156 Q365.7188,993.3906 364.6094,994.3125 Q363.5,995.2344 361.25,995.2344 Q360.3281,995.2344 359.4063,995.0156 Q358.4844,994.7969 357.625,994.375 L357.625,991.8438 Q358.5938,992.5313 359.5156,992.875 Q360.4375,993.2188 361.3281,993.2188 Q362.2344,993.2188 362.7344,992.8125 Q363.2344,992.3906 363.2344,991.6563 Q363.2344,991.0938 362.8906,990.6875 Q362.5625,990.2656 361.9375,990.0156 L360.7344,989.5625 Z " fill="#000000"/><text fill="#000000" font-family="sans-serif" font-size="14" lengthAdjust="spacing" textLength="165" x="381.75" y="993.8467">SetupConsumersConfig</text><line style="stroke:#181818;stroke-width:0.5;" x1="266" x2="630" y1="1005" y2="1005"/><ellipse cx="276" cy="1018.6484" fill="none" rx="3" ry="3" style="stroke:#038048;stroke-width:1.0;"/><text fill="#000000" font-family="sans-serif" font-size="14" lengthAdjust="spacing" textLength="340" x="285" y="1021.9951">[]SelectConsumerConfig SelectConsumerConfigs</text><line style="stroke:#181818;stroke-width:0.5;" x1="266" x2="630" y1="1029.2969" y2="1029.2969"/><ellipse cx="276" cy="1042.9453" fill="#84BE84" rx="3" ry="3" style="stroke:#038048;stroke-width:1.0;"/><text fill="#000000" font-family="sans-serif" font-size="14" lengthAdjust="spacing" textLength="237" x="285" y="1046.292">error IngestConfig(map[string]any)</text></g><!--class AppConfig--><g id="elem_AppConfig"><rect codeLine="73" fill="#F1F1F1" height="113.1875" id="AppConfig" rx="2.5" ry="2.5" style="stroke:#181818;stroke-width:0.5;" width="360" x="464" y="1122"/><ellipse cx="604.25" cy="1138" fill="#F1F1F1" rx="11" ry="11" style="stroke:#181818;stroke-width:1.0;"/><path d="M603.7344,1138.5625 Q601.875,1137.8594 601.2188,1137.0938 Q600.5781,1136.3125 600.5781,1135 Q600.5781,1133.3125 601.6563,1132.3438 Q602.7344,1131.375 604.6094,1131.375 Q605.4688,1131.375 606.3125,1131.5781 Q607.1719,1131.7656 608.0156,1132.1563 L608.0156,1134.5469 Q607.2344,1133.9844 606.4063,1133.7031 Q605.5938,1133.4063 604.7969,1133.4063 Q603.9219,1133.4063 603.4375,1133.7656 Q602.9688,1134.125 602.9688,1134.7813 Q602.9688,1135.2969 603.3125,1135.6406 Q603.6563,1135.9688 604.75,1136.375 L605.8125,1136.7813 Q607.2969,1137.3281 608,1138.2344 Q608.7188,1139.1406 608.7188,1140.5156 Q608.7188,1142.3906 607.6094,1143.3125 Q606.5,1144.2344 604.25,1144.2344 Q603.3281,1144.2344 602.4063,1144.0156 Q601.4844,1143.7969 600.625,1143.375 L600.625,1140.8438 Q601.5938,1141.5313 602.5156,1141.875 Q603.4375,1142.2188 604.3281,1142.2188 Q605.2344,1142.2188 605.7344,1141.8125 Q606.2344,1141.3906 606.2344,1140.6563 Q606.2344,1140.0938 605.8906,1139.6875 Q605.5625,1139.2656 604.9375,1139.0156 L603.7344,1138.5625 Z " fill="#000000"/><text fill="#000000" font-family="sans-serif" font-size="14" lengthAdjust="spacing" textLength="71" x="624.75" y="1142.8467">AppConfig</text><line style="stroke:#181818;stroke-width:0.5;" x1="465" x2="823" y1="1154" y2="1154"/><ellipse cx="475" cy="1167.6484" fill="none" rx="3" ry="3" style="stroke:#038048;stroke-width:1.0;"/><text fill="#000000" font-family="sans-serif" font-size="14" lengthAdjust="spacing" textLength="316" x="484" y="1170.9951">SetupProducersConfig SetupProducersConfig</text><ellipse cx="475" cy="1183.9453" fill="none" rx="3" ry="3" style="stroke:#038048;stroke-width:1.0;"/><text fill="#000000" font-family="sans-serif" font-size="14" lengthAdjust="spacing" textLength="334" x="484" y="1187.292">SetupConsumersConfig SetupConsumersConfig</text><ellipse cx="475" cy="1200.2422" fill="none" rx="3" ry="3" style="stroke:#038048;stroke-width:1.0;"/><text fill="#000000" font-family="sans-serif" font-size="14" lengthAdjust="spacing" textLength="166" x="484" y="1203.5889">Config PipeServerConfig</text><line style="stroke:#181818;stroke-width:0.5;" x1="465" x2="823" y1="1210.8906" y2="1210.8906"/><ellipse cx="475" cy="1224.5391" fill="#84BE84" rx="3" ry="3" style="stroke:#038048;stroke-width:1.0;"/><text fill="#000000" font-family="sans-serif" font-size="14" lengthAdjust="spacing" textLength="237" x="484" y="1227.8857">error IngestConfig(map[string]any)</text></g><!--reverse link CompletionHandler to WaitGroupCompletionHandler--><g id="link_CompletionHandler_WaitGroupCompletionHandler"><path codeLine="80" d="M486.91,117.8132 C469.31,134.9132 459.75,144.21 438.63,164.73 " fill="none" id="CompletionHandler-backto-WaitGroupCompletionHandler" style="stroke:#181818;stroke-width:1.0;"/><polygon fill="none" points="499.82,105.27,482.7289,113.5099,491.0911,122.1165,499.82,105.27" style="stroke:#181818;stroke-width:1.0;"/></g><!--reverse link CompletionHandler to AppData--><g id="link_CompletionHandler_AppData"><path codeLine="81" d="M572.7873,113.6315 C592.7473,133.0215 610.36,150.14 633.78,172.9 " fill="none" id="CompletionHandler-backto-AppData" style="stroke:#181818;stroke-width:1.0;"/><polygon fill="#181818" points="564.18,105.27,565.6965,112.3198,572.7873,113.6315,571.2708,106.5816,564.18,105.27" style="stroke:#181818;stroke-width:1.0;"/></g><!--reverse link AppData to Pushable--><g id="link_AppData_Pushable"><path codeLine="82" d="M691,298.28 C691,320.92 691,334.24 691,353.57 " fill="none" id="AppData-backto-Pushable" style="stroke:#181818;stroke-width:1.0;"/><polygon fill="#181818" points="691,286.28,687,292.28,691,298.28,695,292.28,691,286.28" style="stroke:#181818;stroke-width:1.0;"/></g><!--reverse link Server to SourceServer--><g id="link_Server_SourceServer"><path codeLine="83" d="M498.5783,568.7482 C530.6483,589.3782 555.01,605.04 588.78,626.76 " fill="none" id="Server-backto-SourceServer" style="stroke:#181818;stroke-width:1.0;"/><polygon fill="none" points="483.44,559.01,495.3322,573.7943,501.8244,563.7021,483.44,559.01" style="stroke:#181818;stroke-width:1.0;"/></g><!--reverse link Pushable to Pullable--><g id="link_Pushable_Pullable"><path codeLine="84" d="M691,430.26 C691,450.92 691,465.89 691,486.5 " fill="none" id="Pushable-backto-Pullable" style="stroke:#181818;stroke-width:1.0;"/><polygon fill="#181818" points="691,418.26,687,424.26,691,430.26,695,424.26,691,418.26" style="stroke:#181818;stroke-width:1.0;"/></g><!--reverse link Pullable to SourceServer--><g id="link_Pullable_SourceServer"><path codeLine="85" d="M682.1357,568.5843 C678.1957,590.4343 676.05,602.26 671.58,626.98 " fill="none" id="Pullable-backto-SourceServer" style="stroke:#181818;stroke-width:1.0;"/><polygon fill="none" points="685.33,550.87,676.231,567.5196,688.0405,569.6491,685.33,550.87" style="stroke:#181818;stroke-width:1.0;"/></g><!--reverse link Server to SinkServer--><g id="link_Server_SinkServer"><path codeLine="86" d="M328.7355,567.2086 C288.3155,587.8886 254.56,605.15 212.04,626.91 " fill="none" id="Server-backto-SinkServer" style="stroke:#181818;stroke-width:1.0;"/><polygon fill="none" points="344.76,559.01,326.0027,561.8671,331.4684,572.5501,344.76,559.01" style="stroke:#181818;stroke-width:1.0;"/></g><!--reverse link Pushable to SinkServer--><g id="link_Pushable_SinkServer"><path codeLine="87" d="M576.4152,400.0239 C499.8452,411.3939 410.02,431.9 326,478 C257.36,515.66 194.6,581.69 156.6,626.72 " fill="none" id="Pushable-backto-SinkServer" style="stroke:#181818;stroke-width:1.0;"/><polygon fill="none" points="594.22,397.38,575.5339,394.0889,577.2965,405.9588,594.22,397.38" style="stroke:#181818;stroke-width:1.0;"/></g><!--reverse link Pushable to PipeServer--><g id="link_Pushable_PipeServer"><path codeLine="88" d="M763.6513,427.5062 C788.7713,443.1062 801.96,454.25 823,478 C859.91,519.66 887.97,576.9 905.41,618.85 " fill="none" id="Pushable-backto-PipeServer" style="stroke:#181818;stroke-width:1.0;"/><polygon fill="none" points="748.36,418.01,760.4859,432.6033,766.8167,422.4091,748.36,418.01" style="stroke:#181818;stroke-width:1.0;"/></g><!--reverse link Pullable to PipeServer--><g id="link_Pullable_PipeServer"><path codeLine="89" d="M753.2951,560.5919 C782.9151,580.1319 806.92,595.96 841.71,618.91 " fill="none" id="Pullable-backto-PipeServer" style="stroke:#181818;stroke-width:1.0;"/><polygon fill="none" points="738.27,550.68,749.9911,565.6003,756.5991,555.5835,738.27,550.68" style="stroke:#181818;stroke-width:1.0;"/></g><!--reverse link Server to PipeServer--><g id="link_Server_PipeServer"><path codeLine="90" d="M518.3798,547.4967 C537.6298,552.9867 540.88,553.82 560,559 C664.05,587.17 692.86,584.54 795,619 C800.5,620.86 806.09,622.84 811.72,624.91 " fill="none" id="Server-backto-PipeServer" style="stroke:#181818;stroke-width:1.0;"/><polygon fill="none" points="501.07,542.56,516.7342,553.2666,520.0254,541.7267,501.07,542.56" style="stroke:#181818;stroke-width:1.0;"/></g><!--reverse link SinkServer to MapSinkServer--><g id="link_SinkServer_MapSinkServer"><path codeLine="92" d="M122.2803,735.9055 C126.4103,756.9555 130.5,770.07 137.36,791.96 " fill="none" id="SinkServer-backto-MapSinkServer" style="stroke:#181818;stroke-width:1.0;"/><polygon fill="#181818" points="119.97,724.13,117.2,730.7879,122.2803,735.9055,125.0503,729.2476,119.97,724.13" style="stroke:#181818;stroke-width:1.0;"/></g><!--reverse link SinkServer to MapSinkServer--><g id="link_SinkServer_MapSinkServer"><path codeLine="93" d="M149.4818,741.2031 C156.5118,762.2531 157.52,770.07 162.12,791.96 " fill="none" id="SinkServer-backto-MapSinkServer-1" style="stroke:#181818;stroke-width:1.0;"/><polygon fill="none" points="143.78,724.13,143.7908,743.1037,155.1728,739.3024,143.78,724.13" style="stroke:#181818;stroke-width:1.0;"/></g><!--reverse link Server to Config--><g id="link_Server_Config"><path codeLine="95" d="M408.8009,570.6292 C402.0409,596.8192 396.3,619.08 390.04,643.36 " fill="none" id="Server-backto-Config" style="stroke:#181818;stroke-width:1.0;"/><polygon fill="#181818" points="411.8,559.01,406.4274,563.8199,408.8009,570.6292,414.1735,565.8193,411.8,559.01" style="stroke:#181818;stroke-width:1.0;"/></g><!--reverse link Config to SelectProducerConfig--><g id="link_Config_SelectProducerConfig"><path codeLine="96" d="M472.1983,711.9597 C534.6583,736.5097 612.03,766.93 685.18,795.68 " fill="none" id="Config-backto-SelectProducerConfig" style="stroke:#181818;stroke-width:1.0;"/><polygon fill="#181818" points="461.03,707.57,465.1509,713.4876,472.1983,711.9597,468.0774,706.0421,461.03,707.57" style="stroke:#181818;stroke-width:1.0;"/></g><!--reverse link Config to SelectConsumerConfig--><g id="link_Config_SelectConsumerConfig"><path codeLine="97" d="M404.0981,718.4795 C417.6481,744.2295 431.46,770.48 446.93,799.86 " fill="none" id="Config-backto-SelectConsumerConfig" style="stroke:#181818;stroke-width:1.0;"/><polygon fill="#181818" points="398.51,707.86,397.7642,715.0324,404.0981,718.4795,404.8439,711.307,398.51,707.86" style="stroke:#181818;stroke-width:1.0;"/></g><!--reverse link SetupProducersConfig to AppConfig--><g id="link_SetupProducersConfig_AppConfig"><path codeLine="98" d="M773.5546,1069.7541 C751.0746,1088.4541 734.32,1102.38 710.97,1121.8 " fill="none" id="SetupProducersConfig-backto-AppConfig" style="stroke:#181818;stroke-width:1.0;"/><polygon fill="#181818" points="782.78,1062.08,775.6093,1062.8419,773.5546,1069.7541,780.7254,1068.9922,782.78,1062.08" style="stroke:#181818;stroke-width:1.0;"/></g><!--reverse link SetupConsumersConfig to AppConfig--><g id="link_SetupConsumersConfig_AppConfig"><path codeLine="99" d="M504.9264,1061.8429 C529.3964,1082.1929 550.39,1099.65 577.15,1121.91 " fill="none" id="SetupConsumersConfig-backto-AppConfig" style="stroke:#181818;stroke-width:1.0;"/><polygon fill="#181818" points="495.7,1054.17,497.7555,1061.0819,504.9264,1061.8429,502.8708,1054.931,495.7,1054.17" style="stroke:#181818;stroke-width:1.0;"/></g><!--reverse link SelectProducerConfig to SetupProducersConfig--><g id="link_SelectProducerConfig_SetupProducersConfig"><path codeLine="100" d="M826.5291,917.0219 C829.2791,936.4819 830.65,946.25 833.3,964.99 " fill="none" id="SelectProducerConfig-backto-SetupProducersConfig" style="stroke:#181818;stroke-width:1.0;"/><polygon fill="#181818" points="824.85,905.14,821.7289,911.6407,826.5291,917.0219,829.6502,910.5213,824.85,905.14" style="stroke:#181818;stroke-width:1.0;"/></g><!--reverse link SelectConsumerConfig to SetupConsumersConfig--><g id="link_SelectConsumerConfig_SetupConsumersConfig"><path codeLine="101" d="M463.2432,908.9522 C459.7032,933.0122 457.2,949.99 453.84,972.83 " fill="none" id="SelectConsumerConfig-backto-SetupConsumersConfig" style="stroke:#181818;stroke-width:1.0;"/><polygon fill="#181818" points="464.99,897.08,460.1592,902.4338,463.2432,908.9522,468.074,903.5984,464.99,897.08" style="stroke:#181818;stroke-width:1.0;"/></g><!--SRC=[lLN9JiCm4BtdAtmCBUqNSAcA11oGAXM90-h1JTmIaTgMxO0gwB_ZBAwtIIgrXHooZD_Cl7dEZ2dU4SbnHj2IY4yYq7U2z5LGHSIcDi_PZfT45Om-OfgNHqHzZOaGJ1W8IJ7TtwB6TjDW3irTAb5b2htYGZq8Ll6XY1Evfzdq24LVMxkaewCSAsmjRVhcRerhnafKI4FgFB8ppkzrAfTPb7uS5vA55WkktH-8ggEcDqCnD2WofYv5kpVUbZarDdOtYp6hYgTpHZV55WwugCeIhqiIXvpb-QAIx_LYQbxwOhIh42sQlx1qr8dRKnEhH4RwAkkdSOtobmNzwDSK87yLpGj-QRbNPTPrm3Fce1oJ7UPl6bFGxSe1oEEhTlmtxTgrMBSdkYLIjQkfGrWt8L3gafGaKml1yYeZ8exPEYEliCxsikV4RUR6jNrSoadNRYZ9cDEJr7HuJQ6UTzR-jWAhWOpo6gffjAns0whzhK8cFQ2GKI9W21alL4B_rd5wS0CXO-0ILWGP8ptj33bRsKFI1fZ69zBTpsJIdJNJ_bEyttzatRi9aFYVBiACEGFfvelBmJqYai3D3zMUPadmVJ8ObFCutwACPy3iVWroYs40CmUKH2nSERo93a3Te3usoEx4x7utxyjTX-REARJVcpOtq4_-dmKuXDqqx00CJeyTqBm3p2FVWCml]--></g></svg>