<?xml version="1.0" encoding="us-ascii" standalone="no"?><svg xmlns="http://www.w3.org/2000/svg" xmlns:xlink="http://www.w3.org/1999/xlink" contentStyleType="text/css" height="1752px" preserveAspectRatio="none" style="width:949px;height:1752px;background:#FFFFFF;" version="1.1" viewBox="0 0 949 1752" width="949px" zoomAndPan="magnify"><defs/><g><rect fill="none" height="1730.3594" style="stroke:#000000;stroke-width:1.5;" width="927" x="11" y="11"/><path d="M65,11 L65,20.2969 L55,30.2969 L11,30.2969 " fill="none" style="stroke:#000000;stroke-width:1.5;"/><text fill="#000000" font-family="sans-serif" font-size="14" lengthAdjust="spacing" textLength="44" x="14" y="24.9951">Server</text><line style="stroke:none;stroke-width:1.5;" x1="235.5" x2="692" y1="35.2969" y2="35.2969"/><polygon fill="none" points="23,244.3203,73,244.3203,80,266.6172,448,266.6172,448,1525.3359,23,1525.3359,23,244.3203" style="stroke:#000000;stroke-width:1.5;"/><line style="stroke:#000000;stroke-width:1.5;" x1="23" x2="80" y1="266.6172" y2="266.6172"/><text fill="#000000" font-family="sans-serif" font-size="14" lengthAdjust="spacing" textLength="44" x="27" y="259.3154">Server</text><rect fill="none" height="573.0469" style="stroke:#000000;stroke-width:1.5;" width="395" x="38" y="280.6172"/><path d="M423,280.6172 L423,289.9141 L413,299.9141 L38,299.9141 " fill="none" style="stroke:#000000;stroke-width:1.5;"/><text fill="#000000" font-family="sans-serif" font-size="14" lengthAdjust="spacing" textLength="375" x="41" y="294.6123">RunServer(SourceServer, PipeServer, SinkServer) error</text><rect fill="#F1F1F1" height="33.9688" rx="12.5" ry="12.5" style="stroke:#181818;stroke-width:0.5;" width="145" x="163" y="316.9141"/><text fill="#000000" font-family="sans-serif" font-size="12" lengthAdjust="spacing" textLength="125" x="173" y="338.0527">Setup SourceServer</text><rect fill="#F1F1F1" height="33.9688" rx="12.5" ry="12.5" style="stroke:#181818;stroke-width:0.5;" width="128" x="171.5" y="385.8828"/><text fill="#000000" font-family="sans-serif" font-size="12" lengthAdjust="spacing" textLength="108" x="181.5" y="407.0215">Setup PipeServer</text><rect fill="#F1F1F1" height="33.9688" rx="12.5" ry="12.5" style="stroke:#181818;stroke-width:0.5;" width="127" x="172" y="454.8516"/><text fill="#000000" font-family="sans-serif" font-size="12" lengthAdjust="spacing" textLength="107" x="182" y="475.9902">Setup SinkServer</text><rect fill="#F1F1F1" height="33.9688" rx="12.5" ry="12.5" style="stroke:#181818;stroke-width:0.5;" width="206" x="132.5" y="523.8203"/><text fill="#000000" font-family="sans-serif" font-size="12" lengthAdjust="spacing" textLength="186" x="142.5" y="544.959">Add Receiver to SourceServer</text><rect fill="#F1F1F1" height="33.9688" rx="12.5" ry="12.5" style="stroke:#181818;stroke-width:0.5;" width="189" x="141" y="592.7891"/><text fill="#000000" font-family="sans-serif" font-size="12" lengthAdjust="spacing" textLength="169" x="151" y="613.9277">Add Receiver to PipeServer</text><rect fill="#F1F1F1" height="33.9688" rx="12.5" ry="12.5" style="stroke:#181818;stroke-width:0.5;" width="125" x="173" y="661.7578"/><text fill="#000000" font-family="sans-serif" font-size="12" lengthAdjust="spacing" textLength="105" x="183" y="682.8965">Serve SinkServer</text><rect fill="#F1F1F1" height="33.9688" rx="12.5" ry="12.5" style="stroke:#181818;stroke-width:0.5;" width="126" x="172.5" y="730.7266"/><text fill="#000000" font-family="sans-serif" font-size="12" lengthAdjust="spacing" textLength="106" x="182.5" y="751.8652">Serve PipeServer</text><rect fill="#F1F1F1" height="33.9688" rx="12.5" ry="12.5" style="stroke:#181818;stroke-width:0.5;" width="143" x="164" y="799.6953"/><text fill="#000000" font-family="sans-serif" font-size="12" lengthAdjust="spacing" textLength="123" x="174" y="820.834">Serve SourceServer</text><rect fill="none" height="228.2031" style="stroke:#000000;stroke-width:1.5;" width="378" x="46.5" y="888.6641"/><path d="M414.5,888.6641 L414.5,897.9609 L404.5,907.9609 L46.5,907.9609 " fill="none" style="stroke:#000000;stroke-width:1.5;"/><text fill="#000000" font-family="sans-serif" font-size="14" lengthAdjust="spacing" textLength="358" x="49.5" y="902.6592">getProducerServer(ProducerConfig) ProducerServer</text><rect fill="#F1F1F1" height="33.9688" rx="12.5" ry="12.5" style="stroke:#181818;stroke-width:0.5;" width="337" x="67" y="924.9609"/><text fill="#000000" font-family="sans-serif" font-size="12" lengthAdjust="spacing" textLength="317" x="77" y="946.0996">Create Producers and Producers map using config</text><rect fill="#F1F1F1" height="33.9688" rx="12.5" ry="12.5" style="stroke:#181818;stroke-width:0.5;" width="300" x="85.5" y="993.9297"/><text fill="#000000" font-family="sans-serif" font-size="12" lengthAdjust="spacing" textLength="280" x="95.5" y="1015.0684">Create ProducerServer using Producers map</text><rect fill="#F1F1F1" height="33.9688" rx="12.5" ry="12.5" style="stroke:#181818;stroke-width:0.5;" width="163" x="154" y="1062.8984"/><text fill="#000000" font-family="sans-serif" font-size="12" lengthAdjust="spacing" textLength="143" x="164" y="1084.0371">Return ProducerServer</text><rect fill="none" height="228.2031" style="stroke:#000000;stroke-width:1.5;" width="405" x="33" y="1151.8672"/><path d="M428,1151.8672 L428,1161.1641 L418,1171.1641 L33,1171.1641 " fill="none" style="stroke:#000000;stroke-width:1.5;"/><text fill="#000000" font-family="sans-serif" font-size="14" lengthAdjust="spacing" textLength="385" x="36" y="1165.8623">getConsumerServer(ConsumerConfig) ConsumerServer</text><rect fill="#F1F1F1" height="33.9688" rx="12.5" ry="12.5" style="stroke:#181818;stroke-width:0.5;" width="349" x="61" y="1188.1641"/><text fill="#000000" font-family="sans-serif" font-size="12" lengthAdjust="spacing" textLength="329" x="71" y="1209.3027">Create Consumers and Consumers map using config</text><rect fill="#F1F1F1" height="33.9688" rx="12.5" ry="12.5" style="stroke:#181818;stroke-width:0.5;" width="312" x="79.5" y="1257.1328"/><text fill="#000000" font-family="sans-serif" font-size="12" lengthAdjust="spacing" textLength="292" x="89.5" y="1278.2715">Create ConsumerServer using Consumers map</text><rect fill="#F1F1F1" height="33.9688" rx="12.5" ry="12.5" style="stroke:#181818;stroke-width:0.5;" width="169" x="151" y="1326.1016"/><text fill="#000000" font-family="sans-serif" font-size="12" lengthAdjust="spacing" textLength="149" x="161" y="1347.2402">Return ConsumerServer</text><rect fill="none" height="90.2656" style="stroke:#000000;stroke-width:1.5;" width="285" x="93" y="1415.0703"/><path d="M368,1415.0703 L368,1424.3672 L358,1434.3672 L93,1434.3672 " fill="none" style="stroke:#000000;stroke-width:1.5;"/><text fill="#000000" font-family="sans-serif" font-size="14" lengthAdjust="spacing" textLength="265" x="96" y="1429.0654">Receive(ChanReceiver, AppData) error</text><rect fill="#F1F1F1" height="33.9688" rx="12.5" ry="12.5" style="stroke:#181818;stroke-width:0.5;" width="156" x="157.5" y="1451.3672"/><text fill="#000000" font-family="sans-serif" font-size="12" lengthAdjust="spacing" textLength="136" x="167.5" y="1472.5059">Send data to channel</text><polygon fill="none" points="490.5,40.2969,559.5,40.2969,566.5,62.5938,893.5,62.5938,893.5,908.7969,490.5,908.7969,490.5,40.2969" style="stroke:#000000;stroke-width:1.5;"/><line style="stroke:#000000;stroke-width:1.5;" x1="490.5" x2="566.5" y1="62.5938" y2="62.5938"/><text fill="#000000" font-family="sans-serif" font-size="14" lengthAdjust="spacing" textLength="63" x="494.5" y="55.292">Producer</text><rect fill="none" height="173.2031" style="stroke:#000000;stroke-width:1.5;" width="366" x="509" y="76.5938"/><path d="M712,76.5938 L712,85.8906 L702,95.8906 L509,95.8906 " fill="none" style="stroke:#000000;stroke-width:1.5;"/><text fill="#000000" font-family="sans-serif" font-size="14" lengthAdjust="spacing" textLength="193" x="512" y="90.5889">Serve(ProducerServer) error</text><rect fill="#F1F1F1" height="33.9688" rx="12.5" ry="12.5" style="stroke:#181818;stroke-width:0.5;" width="316" x="534" y="112.8906"/><text fill="#000000" font-family="sans-serif" font-size="12" lengthAdjust="spacing" textLength="296" x="544" y="134.0293">Create go routines to pull from receive channel</text><rect fill="#F1F1F1" height="47.9375" rx="12.5" ry="12.5" style="stroke:#181818;stroke-width:0.5;" width="346" x="519" y="181.8594"/><text fill="#000000" font-family="sans-serif" font-size="12" lengthAdjust="spacing" textLength="310" x="529" y="202.998">Within go routines send data to the Producers by</text><text fill="#000000" font-family="sans-serif" font-size="12" lengthAdjust="spacing" textLength="326" x="529" y="216.9668">extracting fields from data that relate to a producer</text><rect fill="none" height="90.2656" style="stroke:#000000;stroke-width:1.5;" width="286" x="549" y="284.7969"/><path d="M825,284.7969 L825,294.0938 L815,304.0938 L549,304.0938 " fill="none" style="stroke:#000000;stroke-width:1.5;"/><text fill="#000000" font-family="sans-serif" font-size="14" lengthAdjust="spacing" textLength="266" x="552" y="298.792">GetReceiver(ProducerServer) Receiver</text><rect fill="#F1F1F1" height="33.9688" rx="12.5" ry="12.5" style="stroke:#181818;stroke-width:0.5;" width="119" x="632.5" y="321.0938"/><text fill="#000000" font-family="sans-serif" font-size="12" lengthAdjust="spacing" textLength="99" x="642.5" y="342.2324">Return Receiver</text><rect fill="none" height="159.2344" style="stroke:#000000;stroke-width:1.5;" width="360" x="512" y="410.0625"/><path d="M862,410.0625 L862,419.3594 L852,429.3594 L512,429.3594 " fill="none" style="stroke:#000000;stroke-width:1.5;"/><text fill="#000000" font-family="sans-serif" font-size="14" lengthAdjust="spacing" textLength="340" x="515" y="424.0576">Setup(KafkaProducer, KafkaProducerConfig) error</text><rect fill="#F1F1F1" height="33.9688" rx="12.5" ry="12.5" style="stroke:#181818;stroke-width:0.5;" width="232" x="576" y="446.3594"/><text fill="#000000" font-family="sans-serif" font-size="12" lengthAdjust="spacing" textLength="212" x="586" y="467.498">Setup KafkaProducer using config</text><rect fill="#F1F1F1" height="33.9688" rx="12.5" ry="12.5" style="stroke:#181818;stroke-width:0.5;" width="337" x="523.5" y="515.3281"/><text fill="#000000" font-family="sans-serif" font-size="12" lengthAdjust="spacing" textLength="317" x="533.5" y="536.4668">Instantiate kafka producer from imported package</text><rect fill="none" height="90.2656" style="stroke:#000000;stroke-width:1.5;" width="199" x="592.5" y="604.2969"/><path d="M781.5,604.2969 L781.5,613.5938 L771.5,623.5938 L592.5,623.5938 " fill="none" style="stroke:#000000;stroke-width:1.5;"/><text fill="#000000" font-family="sans-serif" font-size="14" lengthAdjust="spacing" textLength="179" x="595.5" y="618.292">Start(KafkaProducer) error</text><rect fill="#F1F1F1" height="33.9688" rx="12.5" ry="12.5" style="stroke:#181818;stroke-width:0.5;" width="150" x="617" y="640.5938"/><text fill="#000000" font-family="sans-serif" font-size="12" lengthAdjust="spacing" textLength="130" x="627" y="661.7324">Start kafka producer</text><rect fill="none" height="159.2344" style="stroke:#000000;stroke-width:1.5;" width="383" x="500.5" y="729.5625"/><path d="M826.5,729.5625 L826.5,738.8594 L816.5,748.8594 L500.5,748.8594 " fill="none" style="stroke:#000000;stroke-width:1.5;"/><text fill="#000000" font-family="sans-serif" font-size="14" lengthAdjust="spacing" textLength="316" x="503.5" y="743.5576">Send(KafkaProducer, any) ProducerResponse</text><rect fill="#F1F1F1" height="33.9688" rx="12.5" ry="12.5" style="stroke:#181818;stroke-width:0.5;" width="201" x="591.5" y="765.8594"/><text fill="#000000" font-family="sans-serif" font-size="12" lengthAdjust="spacing" textLength="181" x="601.5" y="786.998">Send data to kafka producer</text><rect fill="#F1F1F1" height="33.9688" rx="12.5" ry="12.5" style="stroke:#181818;stroke-width:0.5;" width="363" x="510.5" y="834.8281"/><text fill="#000000" font-family="sans-serif" font-size="12" lengthAdjust="spacing" textLength="343" x="520.5" y="855.9668">Return ProducerResponse once send is acknowledged</text><polygon fill="none" points="458,943.7969,536,943.7969,543,966.0938,926,966.0938,926,1729.3594,458,1729.3594,458,943.7969" style="stroke:#000000;stroke-width:1.5;"/><line style="stroke:#000000;stroke-width:1.5;" x1="458" x2="543" y1="966.0938" y2="966.0938"/><text fill="#000000" font-family="sans-serif" font-size="14" lengthAdjust="spacing" textLength="72" x="462" y="958.792">Consumer</text><rect fill="none" height="159.2344" style="stroke:#000000;stroke-width:1.5;" width="338" x="523" y="980.0938"/><path d="M735,980.0938 L735,989.3906 L725,999.3906 L523,999.3906 " fill="none" style="stroke:#000000;stroke-width:1.5;"/><text fill="#000000" font-family="sans-serif" font-size="14" lengthAdjust="spacing" textLength="202" x="526" y="994.0889">Serve(ConsumerServer) error</text><rect fill="#F1F1F1" height="33.9688" rx="12.5" ry="12.5" style="stroke:#181818;stroke-width:0.5;" width="318" x="533" y="1016.3906"/><text fill="#000000" font-family="sans-serif" font-size="12" lengthAdjust="spacing" textLength="298" x="543" y="1037.5293">Create go routines to get data from consumers</text><rect fill="#F1F1F1" height="33.9688" rx="12.5" ry="12.5" style="stroke:#181818;stroke-width:0.5;" width="276" x="554" y="1085.3594"/><text fill="#000000" font-family="sans-serif" font-size="12" lengthAdjust="spacing" textLength="256" x="564" y="1106.498">Within go routines send data to Receiver</text><rect fill="none" height="159.2344" style="stroke:#000000;stroke-width:1.5;" width="378" x="503" y="1174.3281"/><path d="M871,1174.3281 L871,1183.625 L861,1193.625 L503,1193.625 " fill="none" style="stroke:#000000;stroke-width:1.5;"/><text fill="#000000" font-family="sans-serif" font-size="14" lengthAdjust="spacing" textLength="358" x="506" y="1188.3232">Setup(KafkaConsumer, KafkaConsumerConfig) error</text><rect fill="#F1F1F1" height="33.9688" rx="12.5" ry="12.5" style="stroke:#181818;stroke-width:0.5;" width="238" x="573" y="1210.625"/><text fill="#000000" font-family="sans-serif" font-size="12" lengthAdjust="spacing" textLength="218" x="583" y="1231.7637">Setup KafkaConsumer using config</text><rect fill="#F1F1F1" height="33.9688" rx="12.5" ry="12.5" style="stroke:#181818;stroke-width:0.5;" width="342" x="521" y="1279.5938"/><text fill="#000000" font-family="sans-serif" font-size="12" lengthAdjust="spacing" textLength="322" x="531" y="1300.7324">Instantiate kafka consumer from imported package</text><rect fill="none" height="90.2656" style="stroke:#000000;stroke-width:1.5;" width="233" x="575.5" y="1368.5625"/><path d="M780.5,1368.5625 L780.5,1377.8594 L770.5,1387.8594 L575.5,1387.8594 " fill="none" style="stroke:#000000;stroke-width:1.5;"/><text fill="#000000" font-family="sans-serif" font-size="14" lengthAdjust="spacing" textLength="195" x="578.5" y="1382.5576">Serve(KafkaConsumer) error</text><rect fill="#F1F1F1" height="33.9688" rx="12.5" ry="12.5" style="stroke:#181818;stroke-width:0.5;" width="213" x="585.5" y="1404.8594"/><text fill="#000000" font-family="sans-serif" font-size="12" lengthAdjust="spacing" textLength="193" x="595.5" y="1425.998">Start kafka consumer instance</text><rect fill="none" height="90.2656" style="stroke:#000000;stroke-width:1.5;" width="331" x="526.5" y="1493.8281"/><path d="M847.5,1493.8281 L847.5,1503.125 L837.5,1513.125 L526.5,1513.125 " fill="none" style="stroke:#000000;stroke-width:1.5;"/><text fill="#000000" font-family="sans-serif" font-size="14" lengthAdjust="spacing" textLength="311" x="529.5" y="1507.8232">AddReceiver(KafkaConsumer, Receiver) error</text><rect fill="#F1F1F1" height="33.9688" rx="12.5" ry="12.5" style="stroke:#181818;stroke-width:0.5;" width="219" x="582.5" y="1530.125"/><text fill="#000000" font-family="sans-serif" font-size="12" lengthAdjust="spacing" textLength="199" x="592.5" y="1551.2637">Add Receiver to KafkaConsumer</text><rect fill="none" height="90.2656" style="stroke:#000000;stroke-width:1.5;" width="448" x="468" y="1619.0938"/><path d="M906,1619.0938 L906,1628.3906 L896,1638.3906 L468,1638.3906 " fill="none" style="stroke:#000000;stroke-width:1.5;"/><text fill="#000000" font-family="sans-serif" font-size="14" lengthAdjust="spacing" textLength="428" x="471" y="1633.0889">Complete(KafkaConsumerCompletionHandler, any, error) error</text><rect fill="#F1F1F1" height="33.9688" rx="12.5" ry="12.5" style="stroke:#181818;stroke-width:0.5;" width="426" x="479" y="1655.3906"/><text fill="#000000" font-family="sans-serif" font-size="12" lengthAdjust="spacing" textLength="406" x="489" y="1676.5293">Update the kafka consumer instance with the offset for the data</text><line style="stroke:#181818;stroke-width:1.0;" x1="235.5" x2="235.5" y1="350.8828" y2="385.8828"/><polygon fill="#181818" points="231.5,375.8828,235.5,385.8828,239.5,375.8828,235.5,379.8828" style="stroke:#181818;stroke-width:1.0;"/><line style="stroke:#181818;stroke-width:1.0;" x1="235.5" x2="235.5" y1="419.8516" y2="454.8516"/><polygon fill="#181818" points="231.5,444.8516,235.5,454.8516,239.5,444.8516,235.5,448.8516" style="stroke:#181818;stroke-width:1.0;"/><line style="stroke:#181818;stroke-width:1.0;" x1="235.5" x2="235.5" y1="488.8203" y2="523.8203"/><polygon fill="#181818" points="231.5,513.8203,235.5,523.8203,239.5,513.8203,235.5,517.8203" style="stroke:#181818;stroke-width:1.0;"/><line style="stroke:#181818;stroke-width:1.0;" x1="235.5" x2="235.5" y1="557.7891" y2="592.7891"/><polygon fill="#181818" points="231.5,582.7891,235.5,592.7891,239.5,582.7891,235.5,586.7891" style="stroke:#181818;stroke-width:1.0;"/><line style="stroke:#181818;stroke-width:1.0;" x1="235.5" x2="235.5" y1="626.7578" y2="661.7578"/><polygon fill="#181818" points="231.5,651.7578,235.5,661.7578,239.5,651.7578,235.5,655.7578" style="stroke:#181818;stroke-width:1.0;"/><line style="stroke:#181818;stroke-width:1.0;" x1="235.5" x2="235.5" y1="695.7266" y2="730.7266"/><polygon fill="#181818" points="231.5,720.7266,235.5,730.7266,239.5,720.7266,235.5,724.7266" style="stroke:#181818;stroke-width:1.0;"/><line style="stroke:#181818;stroke-width:1.0;" x1="235.5" x2="235.5" y1="764.6953" y2="799.6953"/><polygon fill="#181818" points="231.5,789.6953,235.5,799.6953,239.5,789.6953,235.5,793.6953" style="stroke:#181818;stroke-width:1.0;"/><line style="stroke:#181818;stroke-width:1.0;" x1="235.5" x2="235.5" y1="958.9297" y2="993.9297"/><polygon fill="#181818" points="231.5,983.9297,235.5,993.9297,239.5,983.9297,235.5,987.9297" style="stroke:#181818;stroke-width:1.0;"/><line style="stroke:#181818;stroke-width:1.0;" x1="235.5" x2="235.5" y1="1027.8984" y2="1062.8984"/><polygon fill="#181818" points="231.5,1052.8984,235.5,1062.8984,239.5,1052.8984,235.5,1056.8984" style="stroke:#181818;stroke-width:1.0;"/><line style="stroke:#181818;stroke-width:1.0;" x1="235.5" x2="235.5" y1="1222.1328" y2="1257.1328"/><polygon fill="#181818" points="231.5,1247.1328,235.5,1257.1328,239.5,1247.1328,235.5,1251.1328" style="stroke:#181818;stroke-width:1.0;"/><line style="stroke:#181818;stroke-width:1.0;" x1="235.5" x2="235.5" y1="1291.1016" y2="1326.1016"/><polygon fill="#181818" points="231.5,1316.1016,235.5,1326.1016,239.5,1316.1016,235.5,1320.1016" style="stroke:#181818;stroke-width:1.0;"/><line style="stroke:#181818;stroke-width:1.0;" x1="692" x2="692" y1="146.8594" y2="181.8594"/><polygon fill="#181818" points="688,171.8594,692,181.8594,696,171.8594,692,175.8594" style="stroke:#181818;stroke-width:1.0;"/><line style="stroke:#181818;stroke-width:1.0;" x1="692" x2="692" y1="480.3281" y2="515.3281"/><polygon fill="#181818" points="688,505.3281,692,515.3281,696,505.3281,692,509.3281" style="stroke:#181818;stroke-width:1.0;"/><line style="stroke:#181818;stroke-width:1.0;" x1="692" x2="692" y1="799.8281" y2="834.8281"/><polygon fill="#181818" points="688,824.8281,692,834.8281,696,824.8281,692,828.8281" style="stroke:#181818;stroke-width:1.0;"/><line style="stroke:#181818;stroke-width:1.0;" x1="692" x2="692" y1="1050.3594" y2="1085.3594"/><polygon fill="#181818" points="688,1075.3594,692,1085.3594,696,1075.3594,692,1079.3594" style="stroke:#181818;stroke-width:1.0;"/><line style="stroke:#181818;stroke-width:1.0;" x1="692" x2="692" y1="1244.5938" y2="1279.5938"/><polygon fill="#181818" points="688,1269.5938,692,1279.5938,696,1269.5938,692,1273.5938" style="stroke:#181818;stroke-width:1.0;"/><!--SRC=[hLVDRXiX4BxtAUReICuB95Abo9NQgfV8LjL3smE5sLtaDI2MRHf5VlV2ic13l3_UP4y6vlUR-GOC0A28DjnmAM27-YzgUFa0_TUecfkuklrPSSPG_Bxz6FSKeNjIucjLzvLQjWgshV2dgvriDKM_MCCZL_7tZekz_tq3gBNCBRdlReV6cZitSZyaTB8zA79oUK7aWJ7O8aNkaZ9oocakFk7U7eoxzo9ph8p6nT0GMYNRnmi5Aj4yQibQYhelL5Xkf2XuUGFfyQNQR3GIWr6m0IBOsUf05BGD5oNGpkJzf8NUbLTA35tGtTgAQf7flWKFctZJ7Y8UOHdmI8z7y0Y27e_JQZuUcIklb1WQnYFLNOn7tzchJKL4wF8rF2ZrYHWoobURCxCoZXBKAWkihmpYc8uY82NXOjP02hrmSIHrWApITXb9f2z5AS5g6owmSHcfjgwXqF80seCodEFT3sugBX8BpJawfZhdpf_dNmB_6KseSTKkEDQiyQwyGaMCTLgxeAmo0TMhBYxnPpIXigzWYOFjPR3HWiXY_zr8NdqZnPu4zsj8be5w4xT3eZD5iQ-YCKGOxd3SEyK8f0UR7vJK1bbegkNf6Nl7fkcDPUAaiu3UWAnWER14F9zc-XORPUS4JZ9uAg1y2aV3Kb3qxSxj7AHx8PzgP2MonSCWa3mCk16IfpFmQfBRky03q3K43NDt0SNVaoCXgPuZ-VKqXoCHkgiv4a1uRuvqvKfYcycH613lOgNBOx3lk3W6Cw33_aXC-IimiR0ufeqyg1fD1as_Qr_jN-pBekvPlVR1ZSJuNR7krgXm23nuietS2SYYQ6px5zQIMxf6NinOnuJJludZVm00]--></g></svg>