<?xml version="1.0" encoding="us-ascii" standalone="no"?><svg xmlns="http://www.w3.org/2000/svg" xmlns:xlink="http://www.w3.org/1999/xlink" contentStyleType="text/css" height="930px" preserveAspectRatio="none" style="width:836px;height:930px;background:#FFFFFF;" version="1.1" viewBox="0 0 836 930" width="836px" zoomAndPan="magnify"><defs/><g><rect fill="none" height="908.5" style="stroke:#000000;stroke-width:1.5;" width="814" x="11" y="11"/><path d="M119,11 L119,20.2969 L109,30.2969 L11,30.2969 " fill="none" style="stroke:#000000;stroke-width:1.5;"/><text fill="#000000" font-family="sans-serif" font-size="14" lengthAdjust="spacing" textLength="98" x="14" y="24.9951">JSON Extractor</text><line style="stroke:none;stroke-width:1.5;" x1="181" x2="581" y1="35.2969" y2="35.2969"/><polygon fill="none" points="23,124.0938,62,124.0938,69,146.3906,339,146.3906,339,823.7031,23,823.7031,23,124.0938" style="stroke:#000000;stroke-width:1.5;"/><line style="stroke:#000000;stroke-width:1.5;" x1="23" x2="69" y1="146.3906" y2="146.3906"/><text fill="#000000" font-family="sans-serif" font-size="14" lengthAdjust="spacing" textLength="33" x="27" y="139.0889">main</text><rect fill="none" height="366.1406" style="stroke:#000000;stroke-width:1.5;" width="251" x="55.5" y="160.3906"/><path d="M108.5,160.3906 L108.5,169.6875 L98.5,179.6875 L55.5,179.6875 " fill="none" style="stroke:#000000;stroke-width:1.5;"/><text fill="#000000" font-family="sans-serif" font-size="14" lengthAdjust="spacing" textLength="43" x="58.5" y="174.3857">main()</text><rect fill="#F1F1F1" height="33.9688" rx="12.5" ry="12.5" style="stroke:#181818;stroke-width:0.5;" width="137" x="112.5" y="196.6875"/><text fill="#000000" font-family="sans-serif" font-size="12" lengthAdjust="spacing" textLength="117" x="122.5" y="217.8262">get config from file</text><rect fill="#F1F1F1" height="33.9688" rx="12.5" ry="12.5" style="stroke:#181818;stroke-width:0.5;" width="226" x="68" y="265.6563"/><text fill="#000000" font-family="sans-serif" font-size="12" lengthAdjust="spacing" textLength="206" x="78" y="286.7949">Get producer server using config</text><rect fill="#F1F1F1" height="33.9688" rx="12.5" ry="12.5" style="stroke:#181818;stroke-width:0.5;" width="231" x="65.5" y="334.625"/><text fill="#000000" font-family="sans-serif" font-size="12" lengthAdjust="spacing" textLength="211" x="75.5" y="355.7637">Get consumer server using config</text><rect fill="#F1F1F1" height="33.9688" rx="12.5" ry="12.5" style="stroke:#181818;stroke-width:0.5;" width="214" x="74" y="403.5938"/><text fill="#000000" font-family="sans-serif" font-size="12" lengthAdjust="spacing" textLength="194" x="84" y="424.7324">Get JQTransformer using config</text><rect fill="#F1F1F1" height="33.9688" rx="12.5" ry="12.5" style="stroke:#181818;stroke-width:0.5;" width="79" x="141.5" y="472.5625"/><text fill="#000000" font-family="sans-serif" font-size="12" lengthAdjust="spacing" textLength="59" x="151.5" y="493.7012">Start App</text><rect fill="none" height="242.1719" style="stroke:#000000;stroke-width:1.5;" width="296" x="33" y="561.5313"/><path d="M319,561.5313 L319,570.8281 L309,580.8281 L33,580.8281 " fill="none" style="stroke:#000000;stroke-width:1.5;"/><text fill="#000000" font-family="sans-serif" font-size="14" lengthAdjust="spacing" textLength="276" x="36" y="575.5264">getConfigFromFile(pathToConfig) Config</text><rect fill="#F1F1F1" height="33.9688" rx="12.5" ry="12.5" style="stroke:#181818;stroke-width:0.5;" width="148" x="107" y="597.8281"/><text fill="#000000" font-family="sans-serif" font-size="12" lengthAdjust="spacing" textLength="128" x="117" y="618.9668">Read config from file</text><rect fill="#F1F1F1" height="47.9375" rx="12.5" ry="12.5" style="stroke:#181818;stroke-width:0.5;" width="255" x="53.5" y="666.7969"/><text fill="#000000" font-family="sans-serif" font-size="12" lengthAdjust="spacing" textLength="232" x="63.5" y="687.9355">Separate config into producerConfig,</text><text fill="#000000" font-family="sans-serif" font-size="12" lengthAdjust="spacing" textLength="235" x="63.5" y="701.9043">consumerConfig, jqTransformerConfig</text><rect fill="#F1F1F1" height="33.9688" rx="12.5" ry="12.5" style="stroke:#181818;stroke-width:0.5;" width="104" x="129" y="749.7344"/><text fill="#000000" font-family="sans-serif" font-size="12" lengthAdjust="spacing" textLength="84" x="139" y="770.873">Return config</text><polygon fill="none" points="349,40.2969,451,40.2969,458,62.5938,813,62.5938,813,907.5,349,907.5,349,40.2969" style="stroke:#000000;stroke-width:1.5;"/><line style="stroke:#000000;stroke-width:1.5;" x1="349" x2="458" y1="62.5938" y2="62.5938"/><text fill="#000000" font-family="sans-serif" font-size="14" lengthAdjust="spacing" textLength="96" x="353" y="55.292">JqTransformer</text><rect fill="none" height="159.2344" style="stroke:#000000;stroke-width:1.5;" width="444" x="359" y="76.5938"/><path d="M793,76.5938 L793,85.8906 L783,95.8906 L359,95.8906 " fill="none" style="stroke:#000000;stroke-width:1.5;"/><text fill="#000000" font-family="sans-serif" font-size="14" lengthAdjust="spacing" textLength="424" x="362" y="90.5889">getJQTransformer(JqTransformerConfig) (JQTransformer, error)</text><rect fill="#F1F1F1" height="33.9688" rx="12.5" ry="12.5" style="stroke:#181818;stroke-width:0.5;" width="234" x="464" y="112.8906"/><text fill="#000000" font-family="sans-serif" font-size="12" lengthAdjust="spacing" textLength="214" x="474" y="134.0293">Create JQTransformer using config</text><rect fill="#F1F1F1" height="33.9688" rx="12.5" ry="12.5" style="stroke:#181818;stroke-width:0.5;" width="154" x="504" y="181.8594"/><text fill="#000000" font-family="sans-serif" font-size="12" lengthAdjust="spacing" textLength="134" x="514" y="202.998">Return JQTransformer</text><rect fill="none" height="90.2656" style="stroke:#000000;stroke-width:1.5;" width="340" x="411" y="270.8281"/><path d="M605,270.8281 L605,280.125 L595,290.125 L411,290.125 " fill="none" style="stroke:#000000;stroke-width:1.5;"/><text fill="#000000" font-family="sans-serif" font-size="14" lengthAdjust="spacing" textLength="184" x="414" y="284.8232">Serve(JQTransformer) error</text><rect fill="#F1F1F1" height="33.9688" rx="12.5" ry="12.5" style="stroke:#181818;stroke-width:0.5;" width="320" x="421" y="307.125"/><text fill="#000000" font-family="sans-serif" font-size="12" lengthAdjust="spacing" textLength="300" x="431" y="328.2637">checks if everything is correctly set and finishes</text><rect fill="none" height="90.2656" style="stroke:#000000;stroke-width:1.5;" width="335" x="413.5" y="396.0938"/><path d="M738.5,396.0938 L738.5,405.3906 L728.5,415.3906 L413.5,415.3906 " fill="none" style="stroke:#000000;stroke-width:1.5;"/><text fill="#000000" font-family="sans-serif" font-size="14" lengthAdjust="spacing" textLength="315" x="416.5" y="410.0889">AddPushable(*JQTransformer, Pushable) error</text><rect fill="#F1F1F1" height="33.9688" rx="12.5" ry="12.5" style="stroke:#181818;stroke-width:0.5;" width="273" x="444.5" y="432.3906"/><text fill="#000000" font-family="sans-serif" font-size="12" lengthAdjust="spacing" textLength="253" x="454.5" y="453.5293">Add Pushable to JQTransformer instance</text><rect fill="none" height="366.1406" style="stroke:#000000;stroke-width:1.5;" width="417" x="372.5" y="521.3594"/><path d="M777.5,521.3594 L777.5,530.6563 L767.5,540.6563 L372.5,540.6563 " fill="none" style="stroke:#000000;stroke-width:1.5;"/><text fill="#000000" font-family="sans-serif" font-size="14" lengthAdjust="spacing" textLength="395" x="375.5" y="535.3545">SendTo(*JQTransformer, AppData) (sync.WaitGroup error)</text><rect fill="#F1F1F1" height="33.9688" rx="12.5" ry="12.5" style="stroke:#181818;stroke-width:0.5;" width="386" x="388" y="557.6563"/><text fill="#000000" font-family="sans-serif" font-size="12" lengthAdjust="spacing" textLength="366" x="398" y="578.7949">Extract JSON data from AppData using compiled jqProgram</text><rect fill="#F1F1F1" height="33.9688" rx="12.5" ry="12.5" style="stroke:#181818;stroke-width:0.5;" width="397" x="382.5" y="626.625"/><text fill="#000000" font-family="sans-serif" font-size="12" lengthAdjust="spacing" textLength="377" x="392.5" y="647.7637">Create AppData with extracted data and CompletionHandler</text><rect fill="#F1F1F1" height="33.9688" rx="12.5" ry="12.5" style="stroke:#181818;stroke-width:0.5;" width="189" x="486.5" y="695.5938"/><text fill="#000000" font-family="sans-serif" font-size="12" lengthAdjust="spacing" textLength="169" x="496.5" y="716.7324">Send AppData to Pushable</text><rect fill="#F1F1F1" height="33.9688" rx="12.5" ry="12.5" style="stroke:#181818;stroke-width:0.5;" width="256" x="453" y="764.5625"/><text fill="#000000" font-family="sans-serif" font-size="12" lengthAdjust="spacing" textLength="236" x="463" y="785.7012">Wait on wait group from sending data</text><rect fill="#F1F1F1" height="33.9688" rx="12.5" ry="12.5" style="stroke:#181818;stroke-width:0.5;" width="195" x="483.5" y="833.5313"/><text fill="#000000" font-family="sans-serif" font-size="12" lengthAdjust="spacing" textLength="175" x="493.5" y="854.6699">Return wait group and error</text><line style="stroke:#181818;stroke-width:1.0;" x1="181" x2="181" y1="230.6563" y2="265.6563"/><polygon fill="#181818" points="177,255.6563,181,265.6563,185,255.6563,181,259.6563" style="stroke:#181818;stroke-width:1.0;"/><line style="stroke:#181818;stroke-width:1.0;" x1="181" x2="181" y1="299.625" y2="334.625"/><polygon fill="#181818" points="177,324.625,181,334.625,185,324.625,181,328.625" style="stroke:#181818;stroke-width:1.0;"/><line style="stroke:#181818;stroke-width:1.0;" x1="181" x2="181" y1="368.5938" y2="403.5938"/><polygon fill="#181818" points="177,393.5938,181,403.5938,185,393.5938,181,397.5938" style="stroke:#181818;stroke-width:1.0;"/><line style="stroke:#181818;stroke-width:1.0;" x1="181" x2="181" y1="437.5625" y2="472.5625"/><polygon fill="#181818" points="177,462.5625,181,472.5625,185,462.5625,181,466.5625" style="stroke:#181818;stroke-width:1.0;"/><line style="stroke:#181818;stroke-width:1.0;" x1="181" x2="181" y1="631.7969" y2="666.7969"/><polygon fill="#181818" points="177,656.7969,181,666.7969,185,656.7969,181,660.7969" style="stroke:#181818;stroke-width:1.0;"/><line style="stroke:#181818;stroke-width:1.0;" x1="181" x2="181" y1="714.7344" y2="749.7344"/><polygon fill="#181818" points="177,739.7344,181,749.7344,185,739.7344,181,743.7344" style="stroke:#181818;stroke-width:1.0;"/><line style="stroke:#181818;stroke-width:1.0;" x1="581" x2="581" y1="146.8594" y2="181.8594"/><polygon fill="#181818" points="577,171.8594,581,181.8594,585,171.8594,581,175.8594" style="stroke:#181818;stroke-width:1.0;"/><line style="stroke:#181818;stroke-width:1.0;" x1="581" x2="581" y1="591.625" y2="626.625"/><polygon fill="#181818" points="577,616.625,581,626.625,585,616.625,581,620.625" style="stroke:#181818;stroke-width:1.0;"/><line style="stroke:#181818;stroke-width:1.0;" x1="581" x2="581" y1="660.5938" y2="695.5938"/><polygon fill="#181818" points="577,685.5938,581,695.5938,585,685.5938,581,689.5938" style="stroke:#181818;stroke-width:1.0;"/><line style="stroke:#181818;stroke-width:1.0;" x1="581" x2="581" y1="729.5625" y2="764.5625"/><polygon fill="#181818" points="577,754.5625,581,764.5625,585,754.5625,581,758.5625" style="stroke:#181818;stroke-width:1.0;"/><line style="stroke:#181818;stroke-width:1.0;" x1="581" x2="581" y1="798.5313" y2="833.5313"/><polygon fill="#181818" points="577,823.5313,581,833.5313,585,823.5313,581,827.5313" style="stroke:#181818;stroke-width:1.0;"/><!--SRC=[fLLDRzim3BtlL_2O5Er-G0iKABArHGvRsmJOOTj1asXRgorv5Dqk6FBVH_bhSMDtRQgBO96FUNnwL000IaLisNe7ozNdJ_3nDvFIx0d-l8DsXJAtt7-TVCsiCUY-dvptPwNIzof5A9HrEy2uKl9LMGTcyoUXk4vJPD3U9JQ5X7m1YStnR3_jIj9AygRII12G7cIhWdLf2vw0I31KnQiWozirAHSIJyN_0IiM-U2YBFTZ1bdfR72y7L56-b_KrI-b-qjfVbOgpjQ-EPn3iuyfTuVAl4Iw5SeTAyOkrphslPPD-UDlhbEgFO2VltPaM4prVuTSaPlKvraDjaE3WKh592-osNANswZVHDN1FSwM- -tCOJR8EGOayZJgqWLXLF1LtcYr6M0Ejiag-dV8Tzxm7QEhCzJt0Mm2AAxVS1Q9sY1SYL1plf5v4C6T4Syu6p8C1nExCEQc2fdw8SuzUg9d5tY6gS3xD11V3XMsBh1o6jyWcpDhlqTC1lQ3OYKE21kdttzHbg_g_6a7j0zZyqeQ0JSprrRglL2KCeH6fkU6V4ggE9lqKeTyj9m1DjK5MPUEDxEGMZd6b_bQFlCnxvp6zlf2ebwdv4Xgx17abN-CUoDEtK2G4f5w_Drf4- -W8hTQfeF7FPB-zv-o_Gi0]--></g></svg>