<?xml version="1.0" encoding="us-ascii" standalone="no"?><svg xmlns="http://www.w3.org/2000/svg" xmlns:xlink="http://www.w3.org/1999/xlink" contentStyleType="text/css" height="861px" preserveAspectRatio="none" style="width:836px;height:861px;background:#FFFFFF;" version="1.1" viewBox="0 0 836 861" width="836px" zoomAndPan="magnify"><defs/><g><rect fill="none" height="839.5313" style="stroke:#000000;stroke-width:1.5;" width="814" x="11" y="11"/><path d="M119,11 L119,20.2969 L109,30.2969 L11,30.2969 " fill="none" style="stroke:#000000;stroke-width:1.5;"/><text fill="#000000" font-family="sans-serif" font-size="14" lengthAdjust="spacing" textLength="98" x="14" y="24.9951">JSON Extractor</text><line style="stroke:none;stroke-width:1.5;" x1="181" x2="581" y1="35.2969" y2="35.2969"/><polygon fill="none" points="23,89.6094,62,89.6094,69,111.9063,339,111.9063,339,789.2188,23,789.2188,23,89.6094" style="stroke:#000000;stroke-width:1.5;"/><line style="stroke:#000000;stroke-width:1.5;" x1="23" x2="69" y1="111.9063" y2="111.9063"/><text fill="#000000" font-family="sans-serif" font-size="14" lengthAdjust="spacing" textLength="33" x="27" y="104.6045">main</text><rect fill="none" height="366.1406" style="stroke:#000000;stroke-width:1.5;" width="251" x="55.5" y="125.9063"/><path d="M108.5,125.9063 L108.5,135.2031 L98.5,145.2031 L55.5,145.2031 " fill="none" style="stroke:#000000;stroke-width:1.5;"/><text fill="#000000" font-family="sans-serif" font-size="14" lengthAdjust="spacing" textLength="43" x="58.5" y="139.9014">main()</text><rect fill="#F1F1F1" height="33.9688" rx="12.5" ry="12.5" style="stroke:#181818;stroke-width:0.5;" width="137" x="112.5" y="162.2031"/><text fill="#000000" font-family="sans-serif" font-size="12" lengthAdjust="spacing" textLength="117" x="122.5" y="183.3418">get config from file</text><rect fill="#F1F1F1" height="33.9688" rx="12.5" ry="12.5" style="stroke:#181818;stroke-width:0.5;" width="226" x="68" y="231.1719"/><text fill="#000000" font-family="sans-serif" font-size="12" lengthAdjust="spacing" textLength="206" x="78" y="252.3105">Get producer server using config</text><rect fill="#F1F1F1" height="33.9688" rx="12.5" ry="12.5" style="stroke:#181818;stroke-width:0.5;" width="231" x="65.5" y="300.1406"/><text fill="#000000" font-family="sans-serif" font-size="12" lengthAdjust="spacing" textLength="211" x="75.5" y="321.2793">Get consumer server using config</text><rect fill="#F1F1F1" height="33.9688" rx="12.5" ry="12.5" style="stroke:#181818;stroke-width:0.5;" width="214" x="74" y="369.1094"/><text fill="#000000" font-family="sans-serif" font-size="12" lengthAdjust="spacing" textLength="194" x="84" y="390.248">Get JQTransformer using config</text><rect fill="#F1F1F1" height="33.9688" rx="12.5" ry="12.5" style="stroke:#181818;stroke-width:0.5;" width="79" x="141.5" y="438.0781"/><text fill="#000000" font-family="sans-serif" font-size="12" lengthAdjust="spacing" textLength="59" x="151.5" y="459.2168">Start App</text><rect fill="none" height="242.1719" style="stroke:#000000;stroke-width:1.5;" width="296" x="33" y="527.0469"/><path d="M319,527.0469 L319,536.3438 L309,546.3438 L33,546.3438 " fill="none" style="stroke:#000000;stroke-width:1.5;"/><text fill="#000000" font-family="sans-serif" font-size="14" lengthAdjust="spacing" textLength="276" x="36" y="541.042">getConfigFromFile(pathToConfig) Config</text><rect fill="#F1F1F1" height="33.9688" rx="12.5" ry="12.5" style="stroke:#181818;stroke-width:0.5;" width="148" x="107" y="563.3438"/><text fill="#000000" font-family="sans-serif" font-size="12" lengthAdjust="spacing" textLength="128" x="117" y="584.4824">Read config from file</text><rect fill="#F1F1F1" height="47.9375" rx="12.5" ry="12.5" style="stroke:#181818;stroke-width:0.5;" width="255" x="53.5" y="632.3125"/><text fill="#000000" font-family="sans-serif" font-size="12" lengthAdjust="spacing" textLength="232" x="63.5" y="653.4512">Separate config into producerConfig,</text><text fill="#000000" font-family="sans-serif" font-size="12" lengthAdjust="spacing" textLength="235" x="63.5" y="667.4199">consumerConfig, jqTransformerConfig</text><rect fill="#F1F1F1" height="33.9688" rx="12.5" ry="12.5" style="stroke:#181818;stroke-width:0.5;" width="104" x="129" y="715.25"/><text fill="#000000" font-family="sans-serif" font-size="12" lengthAdjust="spacing" textLength="84" x="139" y="736.3887">Return config</text><polygon fill="none" points="349,40.2969,451,40.2969,458,62.5938,813,62.5938,813,838.5313,349,838.5313,349,40.2969" style="stroke:#000000;stroke-width:1.5;"/><line style="stroke:#000000;stroke-width:1.5;" x1="349" x2="458" y1="62.5938" y2="62.5938"/><text fill="#000000" font-family="sans-serif" font-size="14" lengthAdjust="spacing" textLength="96" x="353" y="55.292">JqTransformer</text><rect fill="none" height="159.2344" style="stroke:#000000;stroke-width:1.5;" width="444" x="359" y="76.5938"/><path d="M793,76.5938 L793,85.8906 L783,95.8906 L359,95.8906 " fill="none" style="stroke:#000000;stroke-width:1.5;"/><text fill="#000000" font-family="sans-serif" font-size="14" lengthAdjust="spacing" textLength="424" x="362" y="90.5889">getJQTransformer(JqTransformerConfig) (JQTransformer, error)</text><rect fill="#F1F1F1" height="33.9688" rx="12.5" ry="12.5" style="stroke:#181818;stroke-width:0.5;" width="234" x="464" y="112.8906"/><text fill="#000000" font-family="sans-serif" font-size="12" lengthAdjust="spacing" textLength="214" x="474" y="134.0293">Create JQTransformer using config</text><rect fill="#F1F1F1" height="33.9688" rx="12.5" ry="12.5" style="stroke:#181818;stroke-width:0.5;" width="154" x="504" y="181.8594"/><text fill="#000000" font-family="sans-serif" font-size="12" lengthAdjust="spacing" textLength="134" x="514" y="202.998">Return JQTransformer</text><rect fill="none" height="90.2656" style="stroke:#000000;stroke-width:1.5;" width="340" x="411" y="270.8281"/><path d="M605,270.8281 L605,280.125 L595,290.125 L411,290.125 " fill="none" style="stroke:#000000;stroke-width:1.5;"/><text fill="#000000" font-family="sans-serif" font-size="14" lengthAdjust="spacing" textLength="184" x="414" y="284.8232">Serve(JQTransformer) error</text><rect fill="#F1F1F1" height="33.9688" rx="12.5" ry="12.5" style="stroke:#181818;stroke-width:0.5;" width="320" x="421" y="307.125"/><text fill="#000000" font-family="sans-serif" font-size="12" lengthAdjust="spacing" textLength="300" x="431" y="328.2637">checks if everything is correctly set and finishes</text><rect fill="none" height="90.2656" style="stroke:#000000;stroke-width:1.5;" width="335" x="413.5" y="396.0938"/><path d="M738.5,396.0938 L738.5,405.3906 L728.5,415.3906 L413.5,415.3906 " fill="none" style="stroke:#000000;stroke-width:1.5;"/><text fill="#000000" font-family="sans-serif" font-size="14" lengthAdjust="spacing" textLength="315" x="416.5" y="410.0889">AddPushable(*JQTransformer, Pushable) error</text><rect fill="#F1F1F1" height="33.9688" rx="12.5" ry="12.5" style="stroke:#181818;stroke-width:0.5;" width="273" x="444.5" y="432.3906"/><text fill="#000000" font-family="sans-serif" font-size="12" lengthAdjust="spacing" textLength="253" x="454.5" y="453.5293">Add Pushable to JQTransformer instance</text><rect fill="none" height="297.1719" style="stroke:#000000;stroke-width:1.5;" width="417" x="372.5" y="521.3594"/><path d="M655.5,521.3594 L655.5,530.6563 L645.5,540.6563 L372.5,540.6563 " fill="none" style="stroke:#000000;stroke-width:1.5;"/><text fill="#000000" font-family="sans-serif" font-size="14" lengthAdjust="spacing" textLength="273" x="375.5" y="535.3545">SendTo(*JQTransformer, AppData) error</text><rect fill="#F1F1F1" height="33.9688" rx="12.5" ry="12.5" style="stroke:#181818;stroke-width:0.5;" width="386" x="388" y="557.6563"/><text fill="#000000" font-family="sans-serif" font-size="12" lengthAdjust="spacing" textLength="366" x="398" y="578.7949">Extract JSON data from AppData using compiled jqProgram</text><rect fill="#F1F1F1" height="33.9688" rx="12.5" ry="12.5" style="stroke:#181818;stroke-width:0.5;" width="397" x="382.5" y="626.625"/><text fill="#000000" font-family="sans-serif" font-size="12" lengthAdjust="spacing" textLength="377" x="392.5" y="647.7637">Create AppData with extracted data and CompletionHandler</text><rect fill="#F1F1F1" height="33.9688" rx="12.5" ry="12.5" style="stroke:#181818;stroke-width:0.5;" width="189" x="486.5" y="695.5938"/><text fill="#000000" font-family="sans-serif" font-size="12" lengthAdjust="spacing" textLength="169" x="496.5" y="716.7324">Send AppData to Pushable</text><rect fill="#F1F1F1" height="33.9688" rx="12.5" ry="12.5" style="stroke:#181818;stroke-width:0.5;" width="97" x="532.5" y="764.5625"/><text fill="#000000" font-family="sans-serif" font-size="12" lengthAdjust="spacing" textLength="77" x="542.5" y="785.7012">Return error</text><line style="stroke:#181818;stroke-width:1.0;" x1="181" x2="181" y1="196.1719" y2="231.1719"/><polygon fill="#181818" points="177,221.1719,181,231.1719,185,221.1719,181,225.1719" style="stroke:#181818;stroke-width:1.0;"/><line style="stroke:#181818;stroke-width:1.0;" x1="181" x2="181" y1="265.1406" y2="300.1406"/><polygon fill="#181818" points="177,290.1406,181,300.1406,185,290.1406,181,294.1406" style="stroke:#181818;stroke-width:1.0;"/><line style="stroke:#181818;stroke-width:1.0;" x1="181" x2="181" y1="334.1094" y2="369.1094"/><polygon fill="#181818" points="177,359.1094,181,369.1094,185,359.1094,181,363.1094" style="stroke:#181818;stroke-width:1.0;"/><line style="stroke:#181818;stroke-width:1.0;" x1="181" x2="181" y1="403.0781" y2="438.0781"/><polygon fill="#181818" points="177,428.0781,181,438.0781,185,428.0781,181,432.0781" style="stroke:#181818;stroke-width:1.0;"/><line style="stroke:#181818;stroke-width:1.0;" x1="181" x2="181" y1="597.3125" y2="632.3125"/><polygon fill="#181818" points="177,622.3125,181,632.3125,185,622.3125,181,626.3125" style="stroke:#181818;stroke-width:1.0;"/><line style="stroke:#181818;stroke-width:1.0;" x1="181" x2="181" y1="680.25" y2="715.25"/><polygon fill="#181818" points="177,705.25,181,715.25,185,705.25,181,709.25" style="stroke:#181818;stroke-width:1.0;"/><line style="stroke:#181818;stroke-width:1.0;" x1="581" x2="581" y1="146.8594" y2="181.8594"/><polygon fill="#181818" points="577,171.8594,581,181.8594,585,171.8594,581,175.8594" style="stroke:#181818;stroke-width:1.0;"/><line style="stroke:#181818;stroke-width:1.0;" x1="581" x2="581" y1="591.625" y2="626.625"/><polygon fill="#181818" points="577,616.625,581,626.625,585,616.625,581,620.625" style="stroke:#181818;stroke-width:1.0;"/><line style="stroke:#181818;stroke-width:1.0;" x1="581" x2="581" y1="660.5938" y2="695.5938"/><polygon fill="#181818" points="577,685.5938,581,695.5938,585,685.5938,581,689.5938" style="stroke:#181818;stroke-width:1.0;"/><line style="stroke:#181818;stroke-width:1.0;" x1="581" x2="581" y1="729.5625" y2="764.5625"/><polygon fill="#181818" points="577,754.5625,581,764.5625,585,754.5625,581,758.5625" style="stroke:#181818;stroke-width:1.0;"/><!--SRC=[fLHDRzim3BtlL_2O3EqVQ841HRPso67hcjos7JI9jjNQaaRHsueX_trK_D4uiRCsrKMmo4S_FZqA020eOilMErYkFd-23t-Ob6PFyFSDj2k6qdB_TVwriCQW-tx-hZyBIZ-e7A5Irkq0qyh9rs4RcCttGcbTvCYWlSji3Xdv2Z9RukLXsesa1VAcraWGaNx9LaVhyXOy0P5WhAiNGPPVrgHSp3nL_mUiMEI3gn0EOmPPwM9ml1bHHlfVRAjVI_VNqlmiA2xMlZcSGxEFANU7oZn7kXNA7Il6BjSwzhsMJVcpRwvJgZs0-vyxCYoc-hz3hibDwdDKWytGOA1oCScpRBRSvJRgDr5rS8-pvM4xSvWDSiu0YJoDkdH1c1HyaJTQRGQOassoIluTyfqtVCVewWBrGmIR0Ohh7xb8H6qKhaIekNoKUH31dH7FE1iBZ2SJkpBcjew5-Y7EVRkdPnSumbJWVHg8BuSAMnTPEOslaCsPjJyW9WFxNh4wmgjz1vj7qKXkCs8jiB_wAiZC6HcMM_8vgUfoqZeTyhVb0h2fBiXjwNGH2wbLOdg8FyfdEMQLYzHDNqZ4weIRDj-slvFdCltkwV7V_0C0]--></g></svg>