<?xml version="1.0" encoding="us-ascii" standalone="no"?><svg xmlns="http://www.w3.org/2000/svg" xmlns:xlink="http://www.w3.org/1999/xlink" contentStyleType="text/css" height="1168px" preserveAspectRatio="none" style="width:954px;height:1168px;background:#FFFFFF;" version="1.1" viewBox="0 0 954 1168" width="954px" zoomAndPan="magnify"><defs/><g><rect fill="none" height="1146.8125" style="stroke:#000000;stroke-width:1.5;" width="932" x="11" y="11"/><path d="M65,11 L65,20.2969 L55,30.2969 L11,30.2969 " fill="none" style="stroke:#000000;stroke-width:1.5;"/><text fill="#000000" font-family="sans-serif" font-size="14" lengthAdjust="spacing" textLength="44" x="14" y="24.9951">Server</text><line style="stroke:none;stroke-width:1.5;" x1="230.5" x2="693" y1="35.2969" y2="35.2969"/><polygon fill="none" points="23,40.2969,73,40.2969,80,62.5938,445,62.5938,445,1145.8125,23,1145.8125,23,40.2969" style="stroke:#000000;stroke-width:1.5;"/><line style="stroke:#000000;stroke-width:1.5;" x1="23" x2="80" y1="62.5938" y2="62.5938"/><text fill="#000000" font-family="sans-serif" font-size="14" lengthAdjust="spacing" textLength="44" x="27" y="55.292">Server</text><rect fill="none" height="504.0781" style="stroke:#000000;stroke-width:1.5;" width="395" x="33" y="76.5938"/><path d="M418,76.5938 L418,85.8906 L408,95.8906 L33,95.8906 " fill="none" style="stroke:#000000;stroke-width:1.5;"/><text fill="#000000" font-family="sans-serif" font-size="14" lengthAdjust="spacing" textLength="375" x="36" y="90.5889">RunServer(SourceServer, PipeServer, SinkServer) error</text><rect fill="#F1F1F1" height="33.9688" rx="12.5" ry="12.5" style="stroke:#181818;stroke-width:0.5;" width="309" x="76" y="112.8906"/><text fill="#000000" font-family="sans-serif" font-size="12" lengthAdjust="spacing" textLength="289" x="86" y="134.0293">Add Receiver to SourceServer from PipeServer</text><rect fill="#F1F1F1" height="33.9688" rx="12.5" ry="12.5" style="stroke:#181818;stroke-width:0.5;" width="291" x="85" y="181.8594"/><text fill="#000000" font-family="sans-serif" font-size="12" lengthAdjust="spacing" textLength="271" x="95" y="202.998">Add Receiver to PipeServer from SinkServer</text><rect fill="#F1F1F1" height="33.9688" rx="12.5" ry="12.5" style="stroke:#181818;stroke-width:0.5;" width="151" x="155" y="250.8281"/><text fill="#000000" font-family="sans-serif" font-size="12" lengthAdjust="spacing" textLength="131" x="165" y="271.9668">Call Serve SinkServer</text><rect fill="#F1F1F1" height="33.9688" rx="12.5" ry="12.5" style="stroke:#181818;stroke-width:0.5;" width="152" x="154.5" y="319.7969"/><text fill="#000000" font-family="sans-serif" font-size="12" lengthAdjust="spacing" textLength="132" x="164.5" y="340.9355">Call Serve PipeServer</text><rect fill="#F1F1F1" height="33.9688" rx="12.5" ry="12.5" style="stroke:#181818;stroke-width:0.5;" width="169" x="146" y="388.7656"/><text fill="#000000" font-family="sans-serif" font-size="12" lengthAdjust="spacing" textLength="149" x="156" y="409.9043">Call Serve SourceServer</text><rect fill="#F1F1F1" height="33.9688" rx="12.5" ry="12.5" style="stroke:#181818;stroke-width:0.5;" width="266" x="97.5" y="457.7344"/><text fill="#000000" font-family="sans-serif" font-size="12" lengthAdjust="spacing" textLength="246" x="107.5" y="478.873">Call HandleIncomingData on SinkServer</text><rect fill="#F1F1F1" height="33.9688" rx="12.5" ry="12.5" style="stroke:#181818;stroke-width:0.5;" width="267" x="97" y="526.7031"/><text fill="#000000" font-family="sans-serif" font-size="12" lengthAdjust="spacing" textLength="247" x="107" y="547.8418">Call HandleIncomingData on PipeServer</text><rect fill="none" height="510.1406" style="stroke:#000000;stroke-width:1.5;" width="385" x="50" y="615.6719"/><path d="M368,615.6719 L368,624.9688 L358,634.9688 L50,634.9688 " fill="none" style="stroke:#000000;stroke-width:1.5;"/><text fill="#000000" font-family="sans-serif" font-size="14" lengthAdjust="spacing" textLength="308" x="53" y="629.667">HandlePushableDataReceipt(Pushable) error</text><rect fill="#F1F1F1" height="33.9688" rx="12.5" ry="12.5" style="stroke:#181818;stroke-width:0.5;" width="203" x="129" y="651.9688"/><text fill="#000000" font-family="sans-serif" font-size="12" lengthAdjust="spacing" textLength="183" x="139" y="673.1074">Call GetReceiver on Pushable</text><rect fill="#F1F1F1" height="33.9688" rx="12.5" ry="12.5" style="stroke:#181818;stroke-width:0.5;" width="199" x="131" y="720.9375"/><text fill="#000000" font-family="sans-serif" font-size="12" lengthAdjust="spacing" textLength="179" x="141" y="742.0762">Call GetOutChan on Receiver</text><rect fill="#F1F1F1" height="33.9688" rx="12.5" ry="12.5" style="stroke:#181818;stroke-width:0.5;" width="187" x="137" y="861.9063"/><text fill="#000000" font-family="sans-serif" font-size="12" lengthAdjust="spacing" textLength="167" x="147" y="883.0449">Receive data from channel</text><rect fill="#F1F1F1" height="33.9688" rx="12.5" ry="12.5" style="stroke:#181818;stroke-width:0.5;" width="341" x="60" y="930.875"/><text fill="#000000" font-family="sans-serif" font-size="12" lengthAdjust="spacing" textLength="321" x="70" y="952.0137">Call HandleIncomingData of Pushable with AppData</text><polygon fill="#F1F1F1" points="230.5,789.9063,242.5,801.9063,230.5,813.9063,218.5,801.9063,230.5,789.9063" style="stroke:#181818;stroke-width:0.5;"/><polygon fill="#F1F1F1" points="136.5,1012.8438,324.5,1012.8438,336.5,1024.8438,324.5,1036.8438,136.5,1036.8438,124.5,1024.8438,136.5,1012.8438" style="stroke:#181818;stroke-width:0.5;"/><text fill="#000000" font-family="sans-serif" font-size="11" lengthAdjust="spacing" textLength="188" x="136.5" y="1028.6519">while data is available in channel</text><rect fill="#F1F1F1" height="33.9688" rx="12.5" ry="12.5" style="stroke:#181818;stroke-width:0.5;" width="80" x="190.5" y="1071.8438"/><text fill="#000000" font-family="sans-serif" font-size="12" lengthAdjust="spacing" textLength="60" x="200.5" y="1092.9824">Return nil</text><polygon fill="none" points="468.5,291.0547,537.5,291.0547,544.5,313.3516,917.5,313.3516,917.5,575.5547,468.5,575.5547,468.5,291.0547" style="stroke:#000000;stroke-width:1.5;"/><line style="stroke:#000000;stroke-width:1.5;" x1="468.5" x2="544.5" y1="313.3516" y2="313.3516"/><text fill="#000000" font-family="sans-serif" font-size="14" lengthAdjust="spacing" textLength="63" x="472.5" y="306.0498">Producer</text><rect fill="none" height="228.2031" style="stroke:#000000;stroke-width:1.5;" width="429" x="478.5" y="327.3516"/><path d="M897.5,327.3516 L897.5,336.6484 L887.5,346.6484 L478.5,346.6484 " fill="none" style="stroke:#000000;stroke-width:1.5;"/><text fill="#000000" font-family="sans-serif" font-size="14" lengthAdjust="spacing" textLength="409" x="481.5" y="341.3467">getProducerServer(ProducerConfig) (ProducerServer, error)</text><rect fill="#F1F1F1" height="33.9688" rx="12.5" ry="12.5" style="stroke:#181818;stroke-width:0.5;" width="337" x="524.5" y="363.6484"/><text fill="#000000" font-family="sans-serif" font-size="12" lengthAdjust="spacing" textLength="317" x="534.5" y="384.7871">Create Producers and Producers map using config</text><rect fill="#F1F1F1" height="33.9688" rx="12.5" ry="12.5" style="stroke:#181818;stroke-width:0.5;" width="300" x="543" y="432.6172"/><text fill="#000000" font-family="sans-serif" font-size="12" lengthAdjust="spacing" textLength="280" x="553" y="453.7559">Create ProducerServer using Producers map</text><rect fill="#F1F1F1" height="33.9688" rx="12.5" ry="12.5" style="stroke:#181818;stroke-width:0.5;" width="163" x="611.5" y="501.5859"/><text fill="#000000" font-family="sans-serif" font-size="12" lengthAdjust="spacing" textLength="143" x="621.5" y="522.7246">Return ProducerServer</text><polygon fill="none" points="455,610.5547,533,610.5547,540,632.8516,931,632.8516,931,895.0547,455,895.0547,455,610.5547" style="stroke:#000000;stroke-width:1.5;"/><line style="stroke:#000000;stroke-width:1.5;" x1="455" x2="540" y1="632.8516" y2="632.8516"/><text fill="#000000" font-family="sans-serif" font-size="14" lengthAdjust="spacing" textLength="72" x="459" y="625.5498">Consumer</text><rect fill="none" height="228.2031" style="stroke:#000000;stroke-width:1.5;" width="456" x="465" y="646.8516"/><path d="M911,646.8516 L911,656.1484 L901,666.1484 L465,666.1484 " fill="none" style="stroke:#000000;stroke-width:1.5;"/><text fill="#000000" font-family="sans-serif" font-size="14" lengthAdjust="spacing" textLength="436" x="468" y="660.8467">getConsumerServer(ConsumerConfig) (ConsumerServer, error)</text><rect fill="#F1F1F1" height="33.9688" rx="12.5" ry="12.5" style="stroke:#181818;stroke-width:0.5;" width="349" x="518.5" y="683.1484"/><text fill="#000000" font-family="sans-serif" font-size="12" lengthAdjust="spacing" textLength="329" x="528.5" y="704.2871">Create Consumers and Consumers map using config</text><rect fill="#F1F1F1" height="33.9688" rx="12.5" ry="12.5" style="stroke:#181818;stroke-width:0.5;" width="312" x="537" y="752.1172"/><text fill="#000000" font-family="sans-serif" font-size="12" lengthAdjust="spacing" textLength="292" x="547" y="773.2559">Create ConsumerServer using Consumers map</text><rect fill="#F1F1F1" height="33.9688" rx="12.5" ry="12.5" style="stroke:#181818;stroke-width:0.5;" width="169" x="608.5" y="821.0859"/><text fill="#000000" font-family="sans-serif" font-size="12" lengthAdjust="spacing" textLength="149" x="618.5" y="842.2246">Return ConsumerServer</text><line style="stroke:#181818;stroke-width:1.0;" x1="230.5" x2="230.5" y1="146.8594" y2="181.8594"/><polygon fill="#181818" points="226.5,171.8594,230.5,181.8594,234.5,171.8594,230.5,175.8594" style="stroke:#181818;stroke-width:1.0;"/><line style="stroke:#181818;stroke-width:1.0;" x1="230.5" x2="230.5" y1="215.8281" y2="250.8281"/><polygon fill="#181818" points="226.5,240.8281,230.5,250.8281,234.5,240.8281,230.5,244.8281" style="stroke:#181818;stroke-width:1.0;"/><line style="stroke:#181818;stroke-width:1.0;" x1="230.5" x2="230.5" y1="284.7969" y2="319.7969"/><polygon fill="#181818" points="226.5,309.7969,230.5,319.7969,234.5,309.7969,230.5,313.7969" style="stroke:#181818;stroke-width:1.0;"/><line style="stroke:#181818;stroke-width:1.0;" x1="230.5" x2="230.5" y1="353.7656" y2="388.7656"/><polygon fill="#181818" points="226.5,378.7656,230.5,388.7656,234.5,378.7656,230.5,382.7656" style="stroke:#181818;stroke-width:1.0;"/><line style="stroke:#181818;stroke-width:1.0;" x1="230.5" x2="230.5" y1="422.7344" y2="457.7344"/><polygon fill="#181818" points="226.5,447.7344,230.5,457.7344,234.5,447.7344,230.5,451.7344" style="stroke:#181818;stroke-width:1.0;"/><line style="stroke:#181818;stroke-width:1.0;" x1="230.5" x2="230.5" y1="491.7031" y2="526.7031"/><polygon fill="#181818" points="226.5,516.7031,230.5,526.7031,234.5,516.7031,230.5,520.7031" style="stroke:#181818;stroke-width:1.0;"/><line style="stroke:#181818;stroke-width:1.0;" x1="230.5" x2="230.5" y1="685.9375" y2="720.9375"/><polygon fill="#181818" points="226.5,710.9375,230.5,720.9375,234.5,710.9375,230.5,714.9375" style="stroke:#181818;stroke-width:1.0;"/><line style="stroke:#181818;stroke-width:1.0;" x1="230.5" x2="230.5" y1="895.875" y2="930.875"/><polygon fill="#181818" points="226.5,920.875,230.5,930.875,234.5,920.875,230.5,924.875" style="stroke:#181818;stroke-width:1.0;"/><line style="stroke:#181818;stroke-width:1.0;" x1="230.5" x2="230.5" y1="813.9063" y2="861.9063"/><polygon fill="#181818" points="226.5,851.9063,230.5,861.9063,234.5,851.9063,230.5,855.9063" style="stroke:#181818;stroke-width:1.0;"/><line style="stroke:#181818;stroke-width:1.0;" x1="336.5" x2="413" y1="1024.8438" y2="1024.8438"/><polygon fill="#181818" points="409,923.375,413,913.375,417,923.375,413,919.375" style="stroke:#181818;stroke-width:1.0;"/><line style="stroke:#181818;stroke-width:1.0;" x1="413" x2="413" y1="801.9063" y2="1024.8438"/><line style="stroke:#181818;stroke-width:1.0;" x1="413" x2="242.5" y1="801.9063" y2="801.9063"/><polygon fill="#181818" points="252.5,797.9063,242.5,801.9063,252.5,805.9063,248.5,801.9063" style="stroke:#181818;stroke-width:1.0;"/><line style="stroke:#181818;stroke-width:1.0;" x1="230.5" x2="230.5" y1="964.8438" y2="1012.8438"/><polygon fill="#181818" points="226.5,1002.8438,230.5,1012.8438,234.5,1002.8438,230.5,1006.8438" style="stroke:#181818;stroke-width:1.0;"/><line style="stroke:#181818;stroke-width:1.0;" x1="230.5" x2="230.5" y1="754.9063" y2="789.9063"/><polygon fill="#181818" points="226.5,779.9063,230.5,789.9063,234.5,779.9063,230.5,783.9063" style="stroke:#181818;stroke-width:1.0;"/><line style="stroke:#181818;stroke-width:1.0;" x1="230.5" x2="230.5" y1="1036.8438" y2="1071.8438"/><polygon fill="#181818" points="226.5,1061.8438,230.5,1071.8438,234.5,1061.8438,230.5,1065.8438" style="stroke:#181818;stroke-width:1.0;"/><line style="stroke:#181818;stroke-width:1.0;" x1="693" x2="693" y1="397.6172" y2="432.6172"/><polygon fill="#181818" points="689,422.6172,693,432.6172,697,422.6172,693,426.6172" style="stroke:#181818;stroke-width:1.0;"/><line style="stroke:#181818;stroke-width:1.0;" x1="693" x2="693" y1="466.5859" y2="501.5859"/><polygon fill="#181818" points="689,491.5859,693,501.5859,697,491.5859,693,495.5859" style="stroke:#181818;stroke-width:1.0;"/><line style="stroke:#181818;stroke-width:1.0;" x1="693" x2="693" y1="717.1172" y2="752.1172"/><polygon fill="#181818" points="689,742.1172,693,752.1172,697,742.1172,693,746.1172" style="stroke:#181818;stroke-width:1.0;"/><line style="stroke:#181818;stroke-width:1.0;" x1="693" x2="693" y1="786.0859" y2="821.0859"/><polygon fill="#181818" points="689,811.0859,693,821.0859,697,811.0859,693,815.0859" style="stroke:#181818;stroke-width:1.0;"/><!--SRC=[dLL1ReCm4Bpd5Ni4AVb0aIf5gTJsr2WvLZsuU0DMmBQCdHog_BqOOy0D93I-m7ftnkDPLW00IA8qqqnmsACweOAV1RIhaWNJNRJwp1cboBzMpzsU9EcHP7WDjIjJmaZO6UwoqLuObQ8Bbh1bidlVCtvqxp6WKk8larrFQqfXXoaoUv8MCAI3WnBbW3Av3- -B7RZNC0BUaA9mbvnTTrFCa6zmZQdADy9fWUyy5INZsGlH16o_xYePnzrIHb6JD0-sBoDDTSHRK-Nakq1Bt5WhTUJtRZIoaVQAkkk6rTJ2akdo3wCtEU6ssYElgnLA9Ffgko5gKK2j3qtFqvgFOv6CrqzQUEZamfdf7DPIsiIK6ZZdh2wDtACvdLL0JeGL3GVZNaYy616jZUB0MV7FPbt2CGQI4SPd3VDM2MhIYN7EKFjyEzO-t0X-O5aCKPXVkWyX7lqIL6rFVs1j2gU3g2GIJ5NR3cd3dTnbQ0VQWGAYPDBQ4FkmozwzseRAbDFk-NphdWyxzyBy3FSymBdNH_FT2uziGG7Hj7iXzc7ti9RU_suklm00]--></g></svg>