<?xml version="1.0" encoding="us-ascii" standalone="no"?><svg xmlns="http://www.w3.org/2000/svg" xmlns:xlink="http://www.w3.org/1999/xlink" contentStyleType="text/css" height="1080px" preserveAspectRatio="none" style="width:752px;height:1080px;background:#FFFFFF;" version="1.1" viewBox="0 0 752 1080" width="752px" zoomAndPan="magnify"><defs/><g><rect fill="none" height="1058.5625" style="stroke:#000000;stroke-width:1.5;" width="730" x="11" y="11"/><path d="M119,11 L119,20.2969 L109,30.2969 L11,30.2969 " fill="none" style="stroke:#000000;stroke-width:1.5;"/><text fill="#000000" font-family="sans-serif" font-size="14" lengthAdjust="spacing" textLength="98" x="14" y="24.9951">JSON Extractor</text><line style="stroke:none;stroke-width:1.5;" x1="112" x2="446" y1="35.2969" y2="35.2969"/><polygon fill="none" points="23,475.6484,62,475.6484,69,497.9453,201,497.9453,201,622.2109,23,622.2109,23,475.6484" style="stroke:#000000;stroke-width:1.5;"/><line style="stroke:#000000;stroke-width:1.5;" x1="23" x2="69" y1="497.9453" y2="497.9453"/><text fill="#000000" font-family="sans-serif" font-size="14" lengthAdjust="spacing" textLength="33" x="27" y="490.6436">main</text><rect fill="none" height="90.2656" style="stroke:#000000;stroke-width:1.5;" width="158" x="33" y="511.9453"/><path d="M86,511.9453 L86,521.2422 L76,531.2422 L33,531.2422 " fill="none" style="stroke:#000000;stroke-width:1.5;"/><text fill="#000000" font-family="sans-serif" font-size="14" lengthAdjust="spacing" textLength="43" x="36" y="525.9404">main()</text><rect fill="#F1F1F1" height="33.9688" rx="12.5" ry="12.5" style="stroke:#181818;stroke-width:0.5;" width="138" x="43" y="548.2422"/><text fill="#000000" font-family="sans-serif" font-size="12" lengthAdjust="spacing" textLength="118" x="53" y="569.3809">Call Server.RunApp</text><polygon fill="none" points="211,40.2969,313,40.2969,320,62.5938,729,62.5938,729,1057.5625,211,1057.5625,211,40.2969" style="stroke:#000000;stroke-width:1.5;"/><line style="stroke:#000000;stroke-width:1.5;" x1="211" x2="320" y1="62.5938" y2="62.5938"/><text fill="#000000" font-family="sans-serif" font-size="14" lengthAdjust="spacing" textLength="96" x="215" y="55.292">JqTransformer</text><rect fill="none" height="90.2656" style="stroke:#000000;stroke-width:1.5;" width="340" x="276" y="76.5938"/><path d="M470,76.5938 L470,85.8906 L460,95.8906 L276,95.8906 " fill="none" style="stroke:#000000;stroke-width:1.5;"/><text fill="#000000" font-family="sans-serif" font-size="14" lengthAdjust="spacing" textLength="184" x="279" y="90.5889">Serve(JQTransformer) error</text><rect fill="#F1F1F1" height="33.9688" rx="12.5" ry="12.5" style="stroke:#181818;stroke-width:0.5;" width="320" x="286" y="112.8906"/><text fill="#000000" font-family="sans-serif" font-size="12" lengthAdjust="spacing" textLength="300" x="296" y="134.0293">checks if everything is correctly set and finishes</text><rect fill="none" height="90.2656" style="stroke:#000000;stroke-width:1.5;" width="335" x="278.5" y="201.8594"/><path d="M603.5,201.8594 L603.5,211.1563 L593.5,221.1563 L278.5,221.1563 " fill="none" style="stroke:#000000;stroke-width:1.5;"/><text fill="#000000" font-family="sans-serif" font-size="14" lengthAdjust="spacing" textLength="315" x="281.5" y="215.8545">AddPushable(*JQTransformer, Pushable) error</text><rect fill="#F1F1F1" height="33.9688" rx="12.5" ry="12.5" style="stroke:#181818;stroke-width:0.5;" width="273" x="309.5" y="238.1563"/><text fill="#000000" font-family="sans-serif" font-size="12" lengthAdjust="spacing" textLength="253" x="319.5" y="259.2949">Add Pushable to JQTransformer instance</text><rect fill="none" height="90.2656" style="stroke:#000000;stroke-width:1.5;" width="265" x="313.5" y="327.125"/><path d="M568.5,327.125 L568.5,336.4219 L558.5,346.4219 L313.5,346.4219 " fill="none" style="stroke:#000000;stroke-width:1.5;"/><text fill="#000000" font-family="sans-serif" font-size="14" lengthAdjust="spacing" textLength="245" x="316.5" y="341.1201">Setup(*JQTransformer, Config) error</text><rect fill="#F1F1F1" height="33.9688" rx="12.5" ry="12.5" style="stroke:#181818;stroke-width:0.5;" width="221" x="335.5" y="363.4219"/><text fill="#000000" font-family="sans-serif" font-size="12" lengthAdjust="spacing" textLength="201" x="345.5" y="384.5605">Setup JQTransformer with Config</text><rect fill="none" height="585.1719" style="stroke:#000000;stroke-width:1.5;" width="498" x="221" y="452.3906"/><path d="M504,452.3906 L504,461.6875 L494,471.6875 L221,471.6875 " fill="none" style="stroke:#000000;stroke-width:1.5;"/><text fill="#000000" font-family="sans-serif" font-size="14" lengthAdjust="spacing" textLength="273" x="224" y="466.3857">SendTo(*JQTransformer, AppData) error</text><rect fill="#F1F1F1" height="33.9688" rx="12.5" ry="12.5" style="stroke:#181818;stroke-width:0.5;" width="386" x="253" y="488.6875"/><text fill="#000000" font-family="sans-serif" font-size="12" lengthAdjust="spacing" textLength="366" x="263" y="509.8262">Extract JSON data from AppData using compiled jqProgram</text><rect fill="#F1F1F1" height="33.9688" rx="12.5" ry="12.5" style="stroke:#181818;stroke-width:0.5;" width="430" x="231" y="701.6563"/><text fill="#000000" font-family="sans-serif" font-size="12" lengthAdjust="spacing" textLength="410" x="241" y="722.7949">Create AppData with data as the value and routingKey as the key</text><rect fill="#F1F1F1" height="33.9688" rx="12.5" ry="12.5" style="stroke:#181818;stroke-width:0.5;" width="189" x="351.5" y="770.625"/><text fill="#000000" font-family="sans-serif" font-size="12" lengthAdjust="spacing" textLength="169" x="361.5" y="791.7637">Send AppData to Pushable</text><polygon fill="#F1F1F1" points="446,629.6563,458,641.6563,446,653.6563,434,641.6563,446,629.6563" style="stroke:#181818;stroke-width:0.5;"/><polygon fill="#F1F1F1" points="360,852.5938,532,852.5938,544,864.5938,532,876.5938,360,876.5938,348,864.5938,360,852.5938" style="stroke:#181818;stroke-width:0.5;"/><text fill="#000000" font-family="sans-serif" font-size="11" lengthAdjust="spacing" textLength="172" x="360" y="868.4019">for each value in nested array</text><polygon fill="#F1F1F1" points="446,557.6563,458,569.6563,446,581.6563,434,569.6563,446,557.6563" style="stroke:#181818;stroke-width:0.5;"/><polygon fill="#F1F1F1" points="373.5,924.5938,518.5,924.5938,530.5,936.5938,518.5,948.5938,373.5,948.5938,361.5,936.5938,373.5,924.5938" style="stroke:#181818;stroke-width:0.5;"/><text fill="#000000" font-family="sans-serif" font-size="11" lengthAdjust="spacing" textLength="145" x="373.5" y="940.4019">for each key in JSON data</text><rect fill="#F1F1F1" height="33.9688" rx="12.5" ry="12.5" style="stroke:#181818;stroke-width:0.5;" width="97" x="397.5" y="983.5938"/><text fill="#000000" font-family="sans-serif" font-size="12" lengthAdjust="spacing" textLength="77" x="407.5" y="1004.7324">Return error</text><line style="stroke:#181818;stroke-width:1.0;" x1="446" x2="446" y1="735.625" y2="770.625"/><polygon fill="#181818" points="442,760.625,446,770.625,450,760.625,446,764.625" style="stroke:#181818;stroke-width:1.0;"/><line style="stroke:#181818;stroke-width:1.0;" x1="446" x2="446" y1="653.6563" y2="701.6563"/><polygon fill="#181818" points="442,691.6563,446,701.6563,450,691.6563,446,695.6563" style="stroke:#181818;stroke-width:1.0;"/><line style="stroke:#181818;stroke-width:1.0;" x1="544" x2="673" y1="864.5938" y2="864.5938"/><polygon fill="#181818" points="669,763.125,673,753.125,677,763.125,673,759.125" style="stroke:#181818;stroke-width:1.0;"/><line style="stroke:#181818;stroke-width:1.0;" x1="673" x2="673" y1="641.6563" y2="864.5938"/><line style="stroke:#181818;stroke-width:1.0;" x1="673" x2="458" y1="641.6563" y2="641.6563"/><polygon fill="#181818" points="468,637.6563,458,641.6563,468,645.6563,464,641.6563" style="stroke:#181818;stroke-width:1.0;"/><line style="stroke:#181818;stroke-width:1.0;" x1="446" x2="446" y1="804.5938" y2="852.5938"/><polygon fill="#181818" points="442,842.5938,446,852.5938,450,842.5938,446,846.5938" style="stroke:#181818;stroke-width:1.0;"/><line style="stroke:#181818;stroke-width:1.0;" x1="446" x2="446" y1="581.6563" y2="629.6563"/><polygon fill="#181818" points="442,619.6563,446,629.6563,450,619.6563,446,623.6563" style="stroke:#181818;stroke-width:1.0;"/><line style="stroke:#181818;stroke-width:1.0;" x1="530.5" x2="697" y1="936.5938" y2="936.5938"/><polygon fill="#181818" points="693,763.125,697,753.125,701,763.125,697,759.125" style="stroke:#181818;stroke-width:1.0;"/><line style="stroke:#181818;stroke-width:1.0;" x1="697" x2="697" y1="569.6563" y2="936.5938"/><line style="stroke:#181818;stroke-width:1.0;" x1="697" x2="458" y1="569.6563" y2="569.6563"/><polygon fill="#181818" points="468,565.6563,458,569.6563,468,573.6563,464,569.6563" style="stroke:#181818;stroke-width:1.0;"/><line style="stroke:#181818;stroke-width:1.0;" x1="446" x2="446" y1="876.5938" y2="924.5938"/><polygon fill="#181818" points="442,914.5938,446,924.5938,450,914.5938,446,918.5938" style="stroke:#181818;stroke-width:1.0;"/><line style="stroke:#181818;stroke-width:1.0;" x1="446" x2="446" y1="522.6563" y2="557.6563"/><polygon fill="#181818" points="442,547.6563,446,557.6563,450,547.6563,446,551.6563" style="stroke:#181818;stroke-width:1.0;"/><line style="stroke:#181818;stroke-width:1.0;" x1="446" x2="446" y1="948.5938" y2="983.5938"/><polygon fill="#181818" points="442,973.5938,446,983.5938,450,973.5938,446,977.5938" style="stroke:#181818;stroke-width:1.0;"/><!--SRC=[fPHHKzim3CVV-odqsEvW7u3UxOu3NhgxZL7UTZm8Mucz9hQH5LYEuxkZf6sW13fWVaea_UsVPCa000bPlFWOOB7y-GFE_WgZaSXmFu7DogdoClmT_dRUMWfNXzy6MqApmfAWHX-U2RjLScnIxvZENhYwTNI2LGLBublYhnTDE4vfFWgo96ZSZlbXClxgEG5BFUjTj8kRIyQGYyWryQlOFTTqyUjPt0o8EV9hgHX7PfN15q2QJIlEXn9y1XEPoKZLGYRb2nOA7tnsb3-OwXFOiRNdJNPuNT7qomxV0MmTUqXLFeI1HDZP0Np8Wi7Gf-cM94qQSPt4KFXo3rKlUy5ovyLjbF-14-nb7F5egvsYu1wWpJ2i9yDgB1GSwwqGcjnTi8bryXLP-7Dpph5ahCUWJ8bGHkP_kDRpmUgcuSo-7ZqAPX17S8jLGtrJQQwYGD-ftVfMrCxVthahox2lDi6s8UPxEE7EQQumrHe2QUqtn-lK1ygYHK1cR6UJTweLiDCEzHqBZowqAJYix-ZJBqENwTChzl08]--></g></svg>