<?xml version="1.0" encoding="us-ascii" standalone="no"?><svg xmlns="http://www.w3.org/2000/svg" xmlns:xlink="http://www.w3.org/1999/xlink" contentStyleType="text/css" height="792px" preserveAspectRatio="none" style="width:880px;height:792px;background:#FFFFFF;" version="1.1" viewBox="0 0 880 792" width="880px" zoomAndPan="magnify"><defs/><g><rect fill="none" height="770.5625" style="stroke:#000000;stroke-width:1.5;" width="858" x="11" y="11"/><path d="M119,11 L119,20.2969 L109,30.2969 L11,30.2969 " fill="none" style="stroke:#000000;stroke-width:1.5;"/><text fill="#000000" font-family="sans-serif" font-size="14" lengthAdjust="spacing" textLength="98" x="14" y="24.9951">JSON Extractor</text><line style="stroke:none;stroke-width:1.5;" x1="181" x2="603" y1="35.2969" y2="35.2969"/><polygon fill="none" points="23,55.125,62,55.125,69,77.4219,339,77.4219,339,754.7344,23,754.7344,23,55.125" style="stroke:#000000;stroke-width:1.5;"/><line style="stroke:#000000;stroke-width:1.5;" x1="23" x2="69" y1="77.4219" y2="77.4219"/><text fill="#000000" font-family="sans-serif" font-size="14" lengthAdjust="spacing" textLength="33" x="27" y="70.1201">main</text><rect fill="none" height="366.1406" style="stroke:#000000;stroke-width:1.5;" width="251" x="55.5" y="91.4219"/><path d="M108.5,91.4219 L108.5,100.7188 L98.5,110.7188 L55.5,110.7188 " fill="none" style="stroke:#000000;stroke-width:1.5;"/><text fill="#000000" font-family="sans-serif" font-size="14" lengthAdjust="spacing" textLength="43" x="58.5" y="105.417">main()</text><rect fill="#F1F1F1" height="33.9688" rx="12.5" ry="12.5" style="stroke:#181818;stroke-width:0.5;" width="137" x="112.5" y="127.7188"/><text fill="#000000" font-family="sans-serif" font-size="12" lengthAdjust="spacing" textLength="117" x="122.5" y="148.8574">get config from file</text><rect fill="#F1F1F1" height="33.9688" rx="12.5" ry="12.5" style="stroke:#181818;stroke-width:0.5;" width="226" x="68" y="196.6875"/><text fill="#000000" font-family="sans-serif" font-size="12" lengthAdjust="spacing" textLength="206" x="78" y="217.8262">Get producer server using config</text><rect fill="#F1F1F1" height="33.9688" rx="12.5" ry="12.5" style="stroke:#181818;stroke-width:0.5;" width="231" x="65.5" y="265.6563"/><text fill="#000000" font-family="sans-serif" font-size="12" lengthAdjust="spacing" textLength="211" x="75.5" y="286.7949">Get consumer server using config</text><rect fill="#F1F1F1" height="33.9688" rx="12.5" ry="12.5" style="stroke:#181818;stroke-width:0.5;" width="214" x="74" y="334.625"/><text fill="#000000" font-family="sans-serif" font-size="12" lengthAdjust="spacing" textLength="194" x="84" y="355.7637">Get JQTransformer using config</text><rect fill="#F1F1F1" height="33.9688" rx="12.5" ry="12.5" style="stroke:#181818;stroke-width:0.5;" width="79" x="141.5" y="403.5938"/><text fill="#000000" font-family="sans-serif" font-size="12" lengthAdjust="spacing" textLength="59" x="151.5" y="424.7324">Start App</text><rect fill="none" height="242.1719" style="stroke:#000000;stroke-width:1.5;" width="296" x="33" y="492.5625"/><path d="M319,492.5625 L319,501.8594 L309,511.8594 L33,511.8594 " fill="none" style="stroke:#000000;stroke-width:1.5;"/><text fill="#000000" font-family="sans-serif" font-size="14" lengthAdjust="spacing" textLength="276" x="36" y="506.5576">getConfigFromFile(pathToConfig) Config</text><rect fill="#F1F1F1" height="33.9688" rx="12.5" ry="12.5" style="stroke:#181818;stroke-width:0.5;" width="148" x="107" y="528.8594"/><text fill="#000000" font-family="sans-serif" font-size="12" lengthAdjust="spacing" textLength="128" x="117" y="549.998">Read config from file</text><rect fill="#F1F1F1" height="47.9375" rx="12.5" ry="12.5" style="stroke:#181818;stroke-width:0.5;" width="255" x="53.5" y="597.8281"/><text fill="#000000" font-family="sans-serif" font-size="12" lengthAdjust="spacing" textLength="232" x="63.5" y="618.9668">Separate config into producerConfig,</text><text fill="#000000" font-family="sans-serif" font-size="12" lengthAdjust="spacing" textLength="235" x="63.5" y="632.9355">consumerConfig, jqTransformerConfig</text><rect fill="#F1F1F1" height="33.9688" rx="12.5" ry="12.5" style="stroke:#181818;stroke-width:0.5;" width="104" x="129" y="680.7656"/><text fill="#000000" font-family="sans-serif" font-size="12" lengthAdjust="spacing" textLength="84" x="139" y="701.9043">Return config</text><polygon fill="none" points="349,40.2969,451,40.2969,458,62.5938,857,62.5938,857,769.5625,349,769.5625,349,40.2969" style="stroke:#000000;stroke-width:1.5;"/><line style="stroke:#000000;stroke-width:1.5;" x1="349" x2="458" y1="62.5938" y2="62.5938"/><text fill="#000000" font-family="sans-serif" font-size="14" lengthAdjust="spacing" textLength="96" x="353" y="55.292">JqTransformer</text><rect fill="none" height="159.2344" style="stroke:#000000;stroke-width:1.5;" width="393" x="406.5" y="76.5938"/><path d="M789.5,76.5938 L789.5,85.8906 L779.5,95.8906 L406.5,95.8906 " fill="none" style="stroke:#000000;stroke-width:1.5;"/><text fill="#000000" font-family="sans-serif" font-size="14" lengthAdjust="spacing" textLength="373" x="409.5" y="90.5889">getJQTransformer(JqTransformerConfig) JQTransformer</text><rect fill="#F1F1F1" height="33.9688" rx="12.5" ry="12.5" style="stroke:#181818;stroke-width:0.5;" width="234" x="486" y="112.8906"/><text fill="#000000" font-family="sans-serif" font-size="12" lengthAdjust="spacing" textLength="214" x="496" y="134.0293">Create JQTransformer using config</text><rect fill="#F1F1F1" height="33.9688" rx="12.5" ry="12.5" style="stroke:#181818;stroke-width:0.5;" width="154" x="526" y="181.8594"/><text fill="#000000" font-family="sans-serif" font-size="12" lengthAdjust="spacing" textLength="134" x="536" y="202.998">Return JQTransformer</text><rect fill="none" height="228.2031" style="stroke:#000000;stroke-width:1.5;" width="488" x="359" y="270.8281"/><path d="M553,270.8281 L553,280.125 L543,290.125 L359,290.125 " fill="none" style="stroke:#000000;stroke-width:1.5;"/><text fill="#000000" font-family="sans-serif" font-size="14" lengthAdjust="spacing" textLength="184" x="362" y="284.8232">Serve(JQTransformer) error</text><rect fill="#F1F1F1" height="33.9688" rx="12.5" ry="12.5" style="stroke:#181818;stroke-width:0.5;" width="316" x="445" y="307.125"/><text fill="#000000" font-family="sans-serif" font-size="12" lengthAdjust="spacing" textLength="296" x="455" y="328.2637">Create go routines to pull from receive channel</text><rect fill="#F1F1F1" height="33.9688" rx="12.5" ry="12.5" style="stroke:#181818;stroke-width:0.5;" width="362" x="422" y="376.0938"/><text fill="#000000" font-family="sans-serif" font-size="12" lengthAdjust="spacing" textLength="342" x="432" y="397.2324">Within go routines transform data using JQTransformer</text><rect fill="#F1F1F1" height="33.9688" rx="12.5" ry="12.5" style="stroke:#181818;stroke-width:0.5;" width="468" x="369" y="445.0625"/><text fill="#000000" font-family="sans-serif" font-size="12" lengthAdjust="spacing" textLength="448" x="379" y="466.2012">Within go routines push transformed data using ChanReceiver instance</text><rect fill="none" height="90.2656" style="stroke:#000000;stroke-width:1.5;" width="277" x="464.5" y="534.0313"/><path d="M731.5,534.0313 L731.5,543.3281 L721.5,553.3281 L464.5,553.3281 " fill="none" style="stroke:#000000;stroke-width:1.5;"/><text fill="#000000" font-family="sans-serif" font-size="14" lengthAdjust="spacing" textLength="257" x="467.5" y="548.0264">GetReceiver(JQTransformer) Receiver</text><rect fill="#F1F1F1" height="33.9688" rx="12.5" ry="12.5" style="stroke:#181818;stroke-width:0.5;" width="119" x="543.5" y="570.3281"/><text fill="#000000" font-family="sans-serif" font-size="12" lengthAdjust="spacing" textLength="99" x="553.5" y="591.4668">Return Receiver</text><rect fill="none" height="90.2656" style="stroke:#000000;stroke-width:1.5;" width="320" x="443" y="659.2969"/><path d="M753,659.2969 L753,668.5938 L743,678.5938 L443,678.5938 " fill="none" style="stroke:#000000;stroke-width:1.5;"/><text fill="#000000" font-family="sans-serif" font-size="14" lengthAdjust="spacing" textLength="300" x="446" y="673.292">AddReceiver(JQTransformer, Receiver) error</text><rect fill="#F1F1F1" height="33.9688" rx="12.5" ry="12.5" style="stroke:#181818;stroke-width:0.5;" width="210" x="498" y="695.5938"/><text fill="#000000" font-family="sans-serif" font-size="12" lengthAdjust="spacing" textLength="190" x="508" y="716.7324">Add Receiver to JQTransformer</text><line style="stroke:#181818;stroke-width:1.0;" x1="181" x2="181" y1="161.6875" y2="196.6875"/><polygon fill="#181818" points="177,186.6875,181,196.6875,185,186.6875,181,190.6875" style="stroke:#181818;stroke-width:1.0;"/><line style="stroke:#181818;stroke-width:1.0;" x1="181" x2="181" y1="230.6563" y2="265.6563"/><polygon fill="#181818" points="177,255.6563,181,265.6563,185,255.6563,181,259.6563" style="stroke:#181818;stroke-width:1.0;"/><line style="stroke:#181818;stroke-width:1.0;" x1="181" x2="181" y1="299.625" y2="334.625"/><polygon fill="#181818" points="177,324.625,181,334.625,185,324.625,181,328.625" style="stroke:#181818;stroke-width:1.0;"/><line style="stroke:#181818;stroke-width:1.0;" x1="181" x2="181" y1="368.5938" y2="403.5938"/><polygon fill="#181818" points="177,393.5938,181,403.5938,185,393.5938,181,397.5938" style="stroke:#181818;stroke-width:1.0;"/><line style="stroke:#181818;stroke-width:1.0;" x1="181" x2="181" y1="562.8281" y2="597.8281"/><polygon fill="#181818" points="177,587.8281,181,597.8281,185,587.8281,181,591.8281" style="stroke:#181818;stroke-width:1.0;"/><line style="stroke:#181818;stroke-width:1.0;" x1="181" x2="181" y1="645.7656" y2="680.7656"/><polygon fill="#181818" points="177,670.7656,181,680.7656,185,670.7656,181,674.7656" style="stroke:#181818;stroke-width:1.0;"/><line style="stroke:#181818;stroke-width:1.0;" x1="603" x2="603" y1="146.8594" y2="181.8594"/><polygon fill="#181818" points="599,171.8594,603,181.8594,607,171.8594,603,175.8594" style="stroke:#181818;stroke-width:1.0;"/><line style="stroke:#181818;stroke-width:1.0;" x1="603" x2="603" y1="341.0938" y2="376.0938"/><polygon fill="#181818" points="599,366.0938,603,376.0938,607,366.0938,603,370.0938" style="stroke:#181818;stroke-width:1.0;"/><line style="stroke:#181818;stroke-width:1.0;" x1="603" x2="603" y1="410.0625" y2="445.0625"/><polygon fill="#181818" points="599,435.0625,603,445.0625,607,435.0625,603,439.0625" style="stroke:#181818;stroke-width:1.0;"/><!--SRC=[fLJ9ReCm4BttA-O8Kl83hLGfGcsb75erHEgXxS720xW5sxLDL2dAltS8Io21RFK5cENDp9jd000qCquueIJCmvTdUFXrXaLE6LZVG7sipeHhlwRlgU0SvUVqlhLf5dsp125dGdOIovCOLUYjm_FtNEMvJT11f6Gi4eYDoY4M6TuTXZrHc3QA5n4Qi6XMz2Yia4cTF992Jbla5wNCNvU6IHihavzE21tH1pEj3tqS7OlIddapm0pD7spH7sdwHnhUqyobIrKPVQYUGymjaF5pg0kHTimSDh52EjLoMS5FFcJ3L6s0hvyE3S7O_0jqXP6Z_1pbODCN6B24H7AMpERTtWRrHgpszkZD3yVnzrOzG75Wi2Jk8adKbFHohbP7MChMws7vWCQeO-qc2YZP2OaMobKNMLO9n624OaL2I9cKc0qq_oPSIbUuXz2K1iuSgwS_CTqGZYvikWD3teKBgA55rPmXVLh7P8HNaqQtk07RfwujiXvTN1DoTVaPvyFb9otsaHrIzgvBsjv_TBHxGyaxl_7D7m00]--></g></svg>