<?xml version="1.0" encoding="us-ascii" standalone="no"?><svg xmlns="http://www.w3.org/2000/svg" xmlns:xlink="http://www.w3.org/1999/xlink" contentStyleType="text/css" height="1081px" preserveAspectRatio="none" style="width:947px;height:1081px;background:#FFFFFF;" version="1.1" viewBox="0 0 947 1081" width="947px" zoomAndPan="magnify"><defs/><g><rect fill="none" height="1059.1094" style="stroke:#000000;stroke-width:1.5;" width="925" x="11" y="11"/><path d="M65,11 L65,20.2969 L55,30.2969 L11,30.2969 " fill="none" style="stroke:#000000;stroke-width:1.5;"/><text fill="#000000" font-family="sans-serif" font-size="14" lengthAdjust="spacing" textLength="44" x="14" y="24.9951">Server</text><line style="stroke:none;stroke-width:1.5;" x1="230.5" x2="686" y1="35.2969" y2="35.2969"/><polygon fill="none" points="23,40.2969,73,40.2969,80,62.5938,438,62.5938,438,1058.1094,23,1058.1094,23,40.2969" style="stroke:#000000;stroke-width:1.5;"/><line style="stroke:#000000;stroke-width:1.5;" x1="23" x2="80" y1="62.5938" y2="62.5938"/><text fill="#000000" font-family="sans-serif" font-size="14" lengthAdjust="spacing" textLength="44" x="27" y="55.292">Server</text><rect fill="none" height="366.1406" style="stroke:#000000;stroke-width:1.5;" width="395" x="33" y="76.5938"/><path d="M418,76.5938 L418,85.8906 L408,95.8906 L33,95.8906 " fill="none" style="stroke:#000000;stroke-width:1.5;"/><text fill="#000000" font-family="sans-serif" font-size="14" lengthAdjust="spacing" textLength="375" x="36" y="90.5889">RunServer(SourceServer, PipeServer, SinkServer) error</text><rect fill="#F1F1F1" height="33.9688" rx="12.5" ry="12.5" style="stroke:#181818;stroke-width:0.5;" width="301" x="80" y="112.8906"/><text fill="#000000" font-family="sans-serif" font-size="12" lengthAdjust="spacing" textLength="281" x="90" y="134.0293">Add PipeServer to SourceServer as Pushable</text><rect fill="#F1F1F1" height="33.9688" rx="12.5" ry="12.5" style="stroke:#181818;stroke-width:0.5;" width="283" x="89" y="181.8594"/><text fill="#000000" font-family="sans-serif" font-size="12" lengthAdjust="spacing" textLength="263" x="99" y="202.998">Add SinkServer to PipeServer as Pushable</text><rect fill="#F1F1F1" height="33.9688" rx="12.5" ry="12.5" style="stroke:#181818;stroke-width:0.5;" width="151" x="155" y="250.8281"/><text fill="#000000" font-family="sans-serif" font-size="12" lengthAdjust="spacing" textLength="131" x="165" y="271.9668">Call Serve SinkServer</text><rect fill="#F1F1F1" height="33.9688" rx="12.5" ry="12.5" style="stroke:#181818;stroke-width:0.5;" width="152" x="154.5" y="319.7969"/><text fill="#000000" font-family="sans-serif" font-size="12" lengthAdjust="spacing" textLength="132" x="164.5" y="340.9355">Call Serve PipeServer</text><rect fill="#F1F1F1" height="33.9688" rx="12.5" ry="12.5" style="stroke:#181818;stroke-width:0.5;" width="169" x="146" y="388.7656"/><text fill="#000000" font-family="sans-serif" font-size="12" lengthAdjust="spacing" textLength="149" x="156" y="409.9043">Call Serve SourceServer</text><rect fill="none" height="228.2031" style="stroke:#000000;stroke-width:1.5;" width="340" x="60.5" y="477.7344"/><path d="M265.5,477.7344 L265.5,487.0313 L255.5,497.0313 L60.5,497.0313 " fill="none" style="stroke:#000000;stroke-width:1.5;"/><text fill="#000000" font-family="sans-serif" font-size="14" lengthAdjust="spacing" textLength="195" x="63.5" y="491.7295">Serve(*MapSinkServer) error</text><rect fill="#F1F1F1" height="33.9688" rx="12.5" ry="12.5" style="stroke:#181818;stroke-width:0.5;" width="320" x="70.5" y="514.0313"/><text fill="#000000" font-family="sans-serif" font-size="12" lengthAdjust="spacing" textLength="300" x="80.5" y="535.1699">checks if everything is correctly set and finishes</text><rect fill="#F1F1F1" height="33.9688" rx="12.5" ry="12.5" style="stroke:#181818;stroke-width:0.5;" width="320" x="70.5" y="583"/><text fill="#000000" font-family="sans-serif" font-size="12" lengthAdjust="spacing" textLength="300" x="80.5" y="604.1387">run all SinkServer serve methods in background</text><rect fill="#F1F1F1" height="33.9688" rx="12.5" ry="12.5" style="stroke:#181818;stroke-width:0.5;" width="94" x="183.5" y="651.9688"/><text fill="#000000" font-family="sans-serif" font-size="12" lengthAdjust="spacing" textLength="74" x="193.5" y="673.1074">return error</text><rect fill="none" height="297.1719" style="stroke:#000000;stroke-width:1.5;" width="370" x="45.5" y="740.9375"/><path d="M332.5,740.9375 L332.5,750.2344 L322.5,760.2344 L45.5,760.2344 " fill="none" style="stroke:#000000;stroke-width:1.5;"/><text fill="#000000" font-family="sans-serif" font-size="14" lengthAdjust="spacing" textLength="277" x="48.5" y="754.9326">SendTo(*MapSinkServer, AppData) error</text><rect fill="#F1F1F1" height="33.9688" rx="12.5" ry="12.5" style="stroke:#181818;stroke-width:0.5;" width="350" x="55.5" y="777.2344"/><text fill="#000000" font-family="sans-serif" font-size="12" lengthAdjust="spacing" textLength="330" x="65.5" y="798.373">make sure AppData is not empty and has routingKey</text><rect fill="#F1F1F1" height="33.9688" rx="12.5" ry="12.5" style="stroke:#181818;stroke-width:0.5;" width="333" x="64" y="846.2031"/><text fill="#000000" font-family="sans-serif" font-size="12" lengthAdjust="spacing" textLength="313" x="74" y="867.3418">check if routingKey is in sinkServerMap if not error</text><rect fill="#F1F1F1" height="33.9688" rx="12.5" ry="12.5" style="stroke:#181818;stroke-width:0.5;" width="302" x="79.5" y="915.1719"/><text fill="#000000" font-family="sans-serif" font-size="12" lengthAdjust="spacing" textLength="282" x="89.5" y="936.3105">Send AppData to SinkServer identified by key</text><rect fill="#F1F1F1" height="33.9688" rx="12.5" ry="12.5" style="stroke:#181818;stroke-width:0.5;" width="94" x="183.5" y="984.1406"/><text fill="#000000" font-family="sans-serif" font-size="12" lengthAdjust="spacing" textLength="74" x="193.5" y="1005.2793">return error</text><polygon fill="none" points="482.5,156.4219,562.5,156.4219,569.5,178.7188,889.5,178.7188,889.5,371.9531,482.5,371.9531,482.5,156.4219" style="stroke:#000000;stroke-width:1.5;"/><line style="stroke:#000000;stroke-width:1.5;" x1="482.5" x2="569.5" y1="178.7188" y2="178.7188"/><text fill="#000000" font-family="sans-serif" font-size="14" lengthAdjust="spacing" textLength="74" x="486.5" y="171.417">DataTypes</text><rect fill="none" height="159.2344" style="stroke:#000000;stroke-width:1.5;" width="387" x="492.5" y="192.7188"/><path d="M869.5,192.7188 L869.5,202.0156 L859.5,212.0156 L492.5,212.0156 " fill="none" style="stroke:#000000;stroke-width:1.5;"/><text fill="#000000" font-family="sans-serif" font-size="14" lengthAdjust="spacing" textLength="367" x="495.5" y="206.7139">Complete(*WaitGroupCompletionHandler, data, error)</text><rect fill="#F1F1F1" height="33.9688" rx="12.5" ry="12.5" style="stroke:#181818;stroke-width:0.5;" width="345" x="513.5" y="229.0156"/><text fill="#000000" font-family="sans-serif" font-size="12" lengthAdjust="spacing" textLength="325" x="523.5" y="250.1543">add data and error to WaitGroupCompletionHandler</text><rect fill="#F1F1F1" height="33.9688" rx="12.5" ry="12.5" style="stroke:#181818;stroke-width:0.5;" width="168" x="602" y="297.9844"/><text fill="#000000" font-family="sans-serif" font-size="12" lengthAdjust="spacing" textLength="148" x="612" y="319.123">Call Done on WaitGroup</text><polygon fill="none" points="451.5,406.9531,520.5,406.9531,527.5,429.25,920.5,429.25,920.5,622.4844,451.5,622.4844,451.5,406.9531" style="stroke:#000000;stroke-width:1.5;"/><line style="stroke:#000000;stroke-width:1.5;" x1="451.5" x2="527.5" y1="429.25" y2="429.25"/><text fill="#000000" font-family="sans-serif" font-size="14" lengthAdjust="spacing" textLength="63" x="455.5" y="421.9482">Producer</text><rect fill="none" height="159.2344" style="stroke:#000000;stroke-width:1.5;" width="449" x="461.5" y="443.25"/><path d="M900.5,443.25 L900.5,452.5469 L890.5,462.5469 L461.5,462.5469 " fill="none" style="stroke:#000000;stroke-width:1.5;"/><text fill="#000000" font-family="sans-serif" font-size="14" lengthAdjust="spacing" textLength="429" x="464.5" y="457.2451">getProducerMap(ProducerConfig) (map[string]Producer, error)</text><rect fill="#F1F1F1" height="33.9688" rx="12.5" ry="12.5" style="stroke:#181818;stroke-width:0.5;" width="241" x="565.5" y="479.5469"/><text fill="#000000" font-family="sans-serif" font-size="12" lengthAdjust="spacing" textLength="221" x="575.5" y="500.6855">Create Producers map using config</text><rect fill="#F1F1F1" height="33.9688" rx="12.5" ry="12.5" style="stroke:#181818;stroke-width:0.5;" width="161" x="605.5" y="548.5156"/><text fill="#000000" font-family="sans-serif" font-size="12" lengthAdjust="spacing" textLength="141" x="615.5" y="569.6543">Return Producers map</text><polygon fill="none" points="448,657.4844,526,657.4844,533,679.7813,924,679.7813,924,941.9844,448,941.9844,448,657.4844" style="stroke:#000000;stroke-width:1.5;"/><line style="stroke:#000000;stroke-width:1.5;" x1="448" x2="533" y1="679.7813" y2="679.7813"/><text fill="#000000" font-family="sans-serif" font-size="14" lengthAdjust="spacing" textLength="72" x="452" y="672.4795">Consumer</text><rect fill="none" height="228.2031" style="stroke:#000000;stroke-width:1.5;" width="456" x="458" y="693.7813"/><path d="M904,693.7813 L904,703.0781 L894,713.0781 L458,713.0781 " fill="none" style="stroke:#000000;stroke-width:1.5;"/><text fill="#000000" font-family="sans-serif" font-size="14" lengthAdjust="spacing" textLength="436" x="461" y="707.7764">getConsumerServer(ConsumerConfig) (ConsumerServer, error)</text><rect fill="#F1F1F1" height="33.9688" rx="12.5" ry="12.5" style="stroke:#181818;stroke-width:0.5;" width="349" x="511.5" y="730.0781"/><text fill="#000000" font-family="sans-serif" font-size="12" lengthAdjust="spacing" textLength="329" x="521.5" y="751.2168">Create Consumers and Consumers map using config</text><rect fill="#F1F1F1" height="33.9688" rx="12.5" ry="12.5" style="stroke:#181818;stroke-width:0.5;" width="312" x="530" y="799.0469"/><text fill="#000000" font-family="sans-serif" font-size="12" lengthAdjust="spacing" textLength="292" x="540" y="820.1855">Create ConsumerServer using Consumers map</text><rect fill="#F1F1F1" height="33.9688" rx="12.5" ry="12.5" style="stroke:#181818;stroke-width:0.5;" width="169" x="601.5" y="868.0156"/><text fill="#000000" font-family="sans-serif" font-size="12" lengthAdjust="spacing" textLength="149" x="611.5" y="889.1543">Return ConsumerServer</text><line style="stroke:#181818;stroke-width:1.0;" x1="230.5" x2="230.5" y1="146.8594" y2="181.8594"/><polygon fill="#181818" points="226.5,171.8594,230.5,181.8594,234.5,171.8594,230.5,175.8594" style="stroke:#181818;stroke-width:1.0;"/><line style="stroke:#181818;stroke-width:1.0;" x1="230.5" x2="230.5" y1="215.8281" y2="250.8281"/><polygon fill="#181818" points="226.5,240.8281,230.5,250.8281,234.5,240.8281,230.5,244.8281" style="stroke:#181818;stroke-width:1.0;"/><line style="stroke:#181818;stroke-width:1.0;" x1="230.5" x2="230.5" y1="284.7969" y2="319.7969"/><polygon fill="#181818" points="226.5,309.7969,230.5,319.7969,234.5,309.7969,230.5,313.7969" style="stroke:#181818;stroke-width:1.0;"/><line style="stroke:#181818;stroke-width:1.0;" x1="230.5" x2="230.5" y1="353.7656" y2="388.7656"/><polygon fill="#181818" points="226.5,378.7656,230.5,388.7656,234.5,378.7656,230.5,382.7656" style="stroke:#181818;stroke-width:1.0;"/><line style="stroke:#181818;stroke-width:1.0;" x1="230.5" x2="230.5" y1="548" y2="583"/><polygon fill="#181818" points="226.5,573,230.5,583,234.5,573,230.5,577" style="stroke:#181818;stroke-width:1.0;"/><line style="stroke:#181818;stroke-width:1.0;" x1="230.5" x2="230.5" y1="616.9688" y2="651.9688"/><polygon fill="#181818" points="226.5,641.9688,230.5,651.9688,234.5,641.9688,230.5,645.9688" style="stroke:#181818;stroke-width:1.0;"/><line style="stroke:#181818;stroke-width:1.0;" x1="230.5" x2="230.5" y1="811.2031" y2="846.2031"/><polygon fill="#181818" points="226.5,836.2031,230.5,846.2031,234.5,836.2031,230.5,840.2031" style="stroke:#181818;stroke-width:1.0;"/><line style="stroke:#181818;stroke-width:1.0;" x1="230.5" x2="230.5" y1="880.1719" y2="915.1719"/><polygon fill="#181818" points="226.5,905.1719,230.5,915.1719,234.5,905.1719,230.5,909.1719" style="stroke:#181818;stroke-width:1.0;"/><line style="stroke:#181818;stroke-width:1.0;" x1="230.5" x2="230.5" y1="949.1406" y2="984.1406"/><polygon fill="#181818" points="226.5,974.1406,230.5,984.1406,234.5,974.1406,230.5,978.1406" style="stroke:#181818;stroke-width:1.0;"/><line style="stroke:#181818;stroke-width:1.0;" x1="686" x2="686" y1="262.9844" y2="297.9844"/><polygon fill="#181818" points="682,287.9844,686,297.9844,690,287.9844,686,291.9844" style="stroke:#181818;stroke-width:1.0;"/><line style="stroke:#181818;stroke-width:1.0;" x1="686" x2="686" y1="513.5156" y2="548.5156"/><polygon fill="#181818" points="682,538.5156,686,548.5156,690,538.5156,686,542.5156" style="stroke:#181818;stroke-width:1.0;"/><line style="stroke:#181818;stroke-width:1.0;" x1="686" x2="686" y1="764.0469" y2="799.0469"/><polygon fill="#181818" points="682,789.0469,686,799.0469,690,789.0469,686,793.0469" style="stroke:#181818;stroke-width:1.0;"/><line style="stroke:#181818;stroke-width:1.0;" x1="686" x2="686" y1="833.0156" y2="868.0156"/><polygon fill="#181818" points="682,858.0156,686,868.0156,690,858.0156,686,862.0156" style="stroke:#181818;stroke-width:1.0;"/><!--SRC=[fLNRQkCm47tlLynZigG_qC92IQ65PI4qXJwKFYZMn1Qs9I6D2cR9ltTanxVKpeR6JxhCEPfpD2C305ZXI94o6hReFj71lniuVjuMYhhPxNkcf4JzSVkxMxCYoKMAtw7nIvq95bw2RdONMnDSWira1Hjbk_5MwRmPBm6TCwTCyRjxa7800Z8m90JXOHDy9dO5ta-3-rCYU41r7heMHT48732SZ-kv_yCt4F0zKYA991ij7oOChk6BNt-5lSZ69CCazw3sW1nOKQPq2if3Ofp3X8eAF188BM6ljF8P-WaDBcYePVIM-bfHYPGPoVGQTbmRCKCjfmYGWjDDbbSer_BLd4XVmOErZuB46GzAaIFuuB2DZGPeGu2bfQeMdt5Hy274xlp1wdx6nsXZ7nLPMBZlSk74OaJDFAtqBcheieWrtJkgkDb8xHLAs5MGJsPnXO-7SP-3I8NI5tLxpFMrikWd6tvjIbiWSKc-2KLFSUsun8_CCtjRn4kIpB5gybvENP7WXeqnzMKq5ydkp3FEDTgZqGZyk7N87xlKgjyu8qCoyzgbIEq-N_wY7Q-Dtgjq2OjIs7TFZklbezqxvyBQeQ3-I0-CX-1ZooOrvOJibwOaHfYhHRC07yfvqUt-yQblfvtkyVu5abk0hmkWdrrWm0d3iPiQq8XethmnziVknTxkVwA7Bm00]--></g></svg>