<?xml version="1.0" encoding="us-ascii" standalone="no"?><svg xmlns="http://www.w3.org/2000/svg" xmlns:xlink="http://www.w3.org/1999/xlink" contentStyleType="text/css" height="2330px" preserveAspectRatio="none" style="width:1091px;height:2330px;background:#FFFFFF;" version="1.1" viewBox="0 0 1091 2330" width="1091px" zoomAndPan="magnify"><defs/><g><rect fill="none" height="2308.375" style="stroke:#000000;stroke-width:1.5;" width="1069" x="11" y="11"/><path d="M65,11 L65,20.2969 L55,30.2969 L11,30.2969 " fill="none" style="stroke:#000000;stroke-width:1.5;"/><text fill="#000000" font-family="sans-serif" font-size="14" lengthAdjust="spacing" textLength="44" x="14" y="24.9951">Server</text><line style="stroke:none;stroke-width:1.5;" x1="278.25" x2="830" y1="35.2969" y2="35.2969"/><polygon fill="none" points="23,40.2969,73,40.2969,80,62.5938,582,62.5938,582,2307.375,23,2307.375,23,40.2969" style="stroke:#000000;stroke-width:1.5;"/><line style="stroke:#000000;stroke-width:1.5;" x1="23" x2="80" y1="62.5938" y2="62.5938"/><text fill="#000000" font-family="sans-serif" font-size="14" lengthAdjust="spacing" textLength="44" x="27" y="55.292">Server</text><rect fill="none" height="366.1406" style="stroke:#000000;stroke-width:1.5;" width="395" x="80.75" y="76.5938"/><path d="M465.75,76.5938 L465.75,85.8906 L455.75,95.8906 L80.75,95.8906 " fill="none" style="stroke:#000000;stroke-width:1.5;"/><text fill="#000000" font-family="sans-serif" font-size="14" lengthAdjust="spacing" textLength="375" x="83.75" y="90.5889">RunServer(SourceServer, PipeServer, SinkServer) error</text><rect fill="#F1F1F1" height="33.9688" rx="12.5" ry="12.5" style="stroke:#181818;stroke-width:0.5;" width="301" x="127.75" y="112.8906"/><text fill="#000000" font-family="sans-serif" font-size="12" lengthAdjust="spacing" textLength="281" x="137.75" y="134.0293">Add PipeServer to SourceServer as Pushable</text><rect fill="#F1F1F1" height="33.9688" rx="12.5" ry="12.5" style="stroke:#181818;stroke-width:0.5;" width="283" x="136.75" y="181.8594"/><text fill="#000000" font-family="sans-serif" font-size="12" lengthAdjust="spacing" textLength="263" x="146.75" y="202.998">Add SinkServer to PipeServer as Pushable</text><rect fill="#F1F1F1" height="33.9688" rx="12.5" ry="12.5" style="stroke:#181818;stroke-width:0.5;" width="151" x="202.75" y="250.8281"/><text fill="#000000" font-family="sans-serif" font-size="12" lengthAdjust="spacing" textLength="131" x="212.75" y="271.9668">Call Serve SinkServer</text><rect fill="#F1F1F1" height="33.9688" rx="12.5" ry="12.5" style="stroke:#181818;stroke-width:0.5;" width="152" x="202.25" y="319.7969"/><text fill="#000000" font-family="sans-serif" font-size="12" lengthAdjust="spacing" textLength="132" x="212.25" y="340.9355">Call Serve PipeServer</text><rect fill="#F1F1F1" height="33.9688" rx="12.5" ry="12.5" style="stroke:#181818;stroke-width:0.5;" width="169" x="193.75" y="388.7656"/><text fill="#000000" font-family="sans-serif" font-size="12" lengthAdjust="spacing" textLength="149" x="203.75" y="409.9043">Call Serve SourceServer</text><rect fill="none" height="228.2031" style="stroke:#000000;stroke-width:1.5;" width="340" x="108.25" y="477.7344"/><path d="M313.25,477.7344 L313.25,487.0313 L303.25,497.0313 L108.25,497.0313 " fill="none" style="stroke:#000000;stroke-width:1.5;"/><text fill="#000000" font-family="sans-serif" font-size="14" lengthAdjust="spacing" textLength="195" x="111.25" y="491.7295">Serve(*MapSinkServer) error</text><rect fill="#F1F1F1" height="33.9688" rx="12.5" ry="12.5" style="stroke:#181818;stroke-width:0.5;" width="320" x="118.25" y="514.0313"/><text fill="#000000" font-family="sans-serif" font-size="12" lengthAdjust="spacing" textLength="300" x="128.25" y="535.1699">checks if everything is correctly set and finishes</text><rect fill="#F1F1F1" height="33.9688" rx="12.5" ry="12.5" style="stroke:#181818;stroke-width:0.5;" width="320" x="118.25" y="583"/><text fill="#000000" font-family="sans-serif" font-size="12" lengthAdjust="spacing" textLength="300" x="128.25" y="604.1387">run all SinkServer serve methods in background</text><rect fill="#F1F1F1" height="33.9688" rx="12.5" ry="12.5" style="stroke:#181818;stroke-width:0.5;" width="94" x="231.25" y="651.9688"/><text fill="#000000" font-family="sans-serif" font-size="12" lengthAdjust="spacing" textLength="74" x="241.25" y="673.1074">return error</text><rect fill="none" height="1546.4375" style="stroke:#000000;stroke-width:1.5;" width="539" x="33" y="740.9375"/><path d="M320,740.9375 L320,750.2344 L310,760.2344 L33,760.2344 " fill="none" style="stroke:#000000;stroke-width:1.5;"/><text fill="#000000" font-family="sans-serif" font-size="14" lengthAdjust="spacing" textLength="277" x="36" y="754.9326">SendTo(*MapSinkServer, AppData) error</text><rect fill="#F1F1F1" height="33.9688" rx="12.5" ry="12.5" style="stroke:#181818;stroke-width:0.5;" width="181" x="187.75" y="777.2344"/><text fill="#000000" font-family="sans-serif" font-size="12" lengthAdjust="spacing" textLength="161" x="197.75" y="798.373">confirm AppData is a map</text><rect fill="#F1F1F1" height="33.9688" rx="12.5" ry="12.5" style="stroke:#181818;stroke-width:0.5;" width="130" x="213.25" y="846.2031"/><text fill="#000000" font-family="sans-serif" font-size="12" lengthAdjust="spacing" textLength="110" x="223.25" y="867.3418">create WaitGroup</text><rect fill="#F1F1F1" height="33.9688" rx="12.5" ry="12.5" style="stroke:#181818;stroke-width:0.5;" width="367" x="94.75" y="987.1719"/><text fill="#000000" font-family="sans-serif" font-size="12" lengthAdjust="spacing" textLength="347" x="104.75" y="1008.3105">Send portion of AppData to SinkServer identified by key</text><polygon fill="#F1F1F1" points="206.75,1056.1406,349.75,1056.1406,361.75,1068.1406,349.75,1080.1406,206.75,1080.1406,194.75,1068.1406,206.75,1056.1406" style="stroke:#181818;stroke-width:0.5;"/><text fill="#000000" font-family="sans-serif" font-size="11" lengthAdjust="spacing" textLength="143" x="206.75" y="1071.9487">key not in sinkServerMap</text><text fill="#000000" font-family="sans-serif" font-size="11" lengthAdjust="spacing" textLength="29" x="165.75" y="1065.5464">error</text><text fill="#000000" font-family="sans-serif" font-size="11" lengthAdjust="spacing" textLength="47" x="361.75" y="1065.5464">success</text><rect fill="#F1F1F1" height="47.9375" rx="12.5" ry="12.5" style="stroke:#181818;stroke-width:0.5;" width="203" x="53" y="1090.1406"/><text fill="#000000" font-family="sans-serif" font-size="12" lengthAdjust="spacing" textLength="80" x="63" y="1111.2793">Call AppData</text><text fill="#000000" font-family="sans-serif" font-size="12" lengthAdjust="spacing" textLength="183" x="63" y="1125.248">CompletionHandler with error</text><rect fill="#F1F1F1" height="33.9688" rx="12.5" ry="12.5" style="stroke:#181818;stroke-width:0.5;" width="97" x="106" y="1173.0781"/><text fill="#000000" font-family="sans-serif" font-size="12" lengthAdjust="spacing" textLength="77" x="116" y="1194.2168">Return error</text><rect fill="#F1F1F1" height="33.9688" rx="12.5" ry="12.5" style="stroke:#181818;stroke-width:0.5;" width="142" x="331" y="1090.1406"/><text fill="#000000" font-family="sans-serif" font-size="12" lengthAdjust="spacing" textLength="122" x="341" y="1111.2793">Add 1 to WaitGroup</text><rect fill="#F1F1F1" height="33.9688" rx="12.5" ry="12.5" style="stroke:#181818;stroke-width:0.5;" width="252" x="276" y="1159.1094"/><text fill="#000000" font-family="sans-serif" font-size="12" lengthAdjust="spacing" textLength="232" x="286" y="1180.248">Sent in WaitGroupCompletionHandler</text><rect fill="#F1F1F1" height="33.9688" rx="12.5" ry="12.5" style="stroke:#181818;stroke-width:0.5;" width="163" x="320.5" y="1228.0781"/><text fill="#000000" font-family="sans-serif" font-size="12" lengthAdjust="spacing" textLength="143" x="330.5" y="1249.2168">Call SendTo SinkServer</text><rect fill="#F1F1F1" height="47.9375" rx="12.5" ry="12.5" style="stroke:#181818;stroke-width:0.5;" width="203" x="300.5" y="1345.4492"/><text fill="#000000" font-family="sans-serif" font-size="12" lengthAdjust="spacing" textLength="80" x="310.5" y="1366.5879">Call AppData</text><text fill="#000000" font-family="sans-serif" font-size="12" lengthAdjust="spacing" textLength="183" x="310.5" y="1380.5566">CompletionHandler with error</text><rect fill="#F1F1F1" height="33.9688" rx="12.5" ry="12.5" style="stroke:#181818;stroke-width:0.5;" width="97" x="353.5" y="1428.3867"/><text fill="#000000" font-family="sans-serif" font-size="12" lengthAdjust="spacing" textLength="77" x="363.5" y="1449.5254">Return error</text><polygon fill="#F1F1F1" points="387.5,1297.0469,416.5,1297.0469,428.5,1309.0469,416.5,1321.0469,387.5,1321.0469,375.5,1309.0469,387.5,1297.0469" style="stroke:#181818;stroke-width:0.5;"/><text fill="#000000" font-family="sans-serif" font-size="11" lengthAdjust="spacing" textLength="29" x="406" y="1331.2573">error</text><text fill="#000000" font-family="sans-serif" font-size="11" lengthAdjust="spacing" textLength="29" x="387.5" y="1312.855">error</text><polygon fill="#F1F1F1" points="402,1486.7578,414,1498.7578,402,1510.7578,390,1498.7578,402,1486.7578" style="stroke:#181818;stroke-width:0.5;"/><polygon fill="#F1F1F1" points="278.25,1516.7578,290.25,1528.7578,278.25,1540.7578,266.25,1528.7578,278.25,1516.7578" style="stroke:#181818;stroke-width:0.5;"/><polygon fill="#F1F1F1" points="278.25,915.1719,290.25,927.1719,278.25,939.1719,266.25,927.1719,278.25,915.1719" style="stroke:#181818;stroke-width:0.5;"/><polygon fill="#F1F1F1" points="209.75,1588.7578,346.75,1588.7578,358.75,1600.7578,346.75,1612.7578,209.75,1612.7578,197.75,1600.7578,209.75,1588.7578" style="stroke:#181818;stroke-width:0.5;"/><text fill="#000000" font-family="sans-serif" font-size="11" lengthAdjust="spacing" textLength="137" x="209.75" y="1604.5659">For each key in AppData</text><rect fill="#F1F1F1" height="33.9688" rx="12.5" ry="12.5" style="stroke:#181818;stroke-width:0.5;" width="209" x="173.75" y="1647.7578"/><text fill="#000000" font-family="sans-serif" font-size="12" lengthAdjust="spacing" textLength="189" x="183.75" y="1668.8965">Wait for all WaitGroup to finish</text><rect fill="#F1F1F1" height="33.9688" rx="12.5" ry="12.5" style="stroke:#181818;stroke-width:0.5;" width="295" x="130.75" y="1788.7266"/><text fill="#000000" font-family="sans-serif" font-size="12" lengthAdjust="spacing" textLength="275" x="140.75" y="1809.8652">check error in WaitGroupCompletionHandler</text><rect fill="#F1F1F1" height="33.9688" rx="12.5" ry="12.5" style="stroke:#181818;stroke-width:0.5;" width="287" x="134.75" y="1906.0977"/><text fill="#000000" font-family="sans-serif" font-size="12" lengthAdjust="spacing" textLength="267" x="144.75" y="1927.2363">Call AppData CompletionHandler with error</text><rect fill="#F1F1F1" height="33.9688" rx="12.5" ry="12.5" style="stroke:#181818;stroke-width:0.5;" width="97" x="229.75" y="1975.0664"/><text fill="#000000" font-family="sans-serif" font-size="12" lengthAdjust="spacing" textLength="77" x="239.75" y="1996.2051">Return error</text><polygon fill="#F1F1F1" points="263.75,1857.6953,292.75,1857.6953,304.75,1869.6953,292.75,1881.6953,263.75,1881.6953,251.75,1869.6953,263.75,1857.6953" style="stroke:#181818;stroke-width:0.5;"/><text fill="#000000" font-family="sans-serif" font-size="11" lengthAdjust="spacing" textLength="29" x="282.25" y="1891.9058">error</text><text fill="#000000" font-family="sans-serif" font-size="11" lengthAdjust="spacing" textLength="29" x="263.75" y="1873.5034">error</text><polygon fill="#F1F1F1" points="278.25,2033.4375,290.25,2045.4375,278.25,2057.4375,266.25,2045.4375,278.25,2033.4375" style="stroke:#181818;stroke-width:0.5;"/><polygon fill="#F1F1F1" points="278.25,1716.7266,290.25,1728.7266,278.25,1740.7266,266.25,1728.7266,278.25,1716.7266" style="stroke:#181818;stroke-width:0.5;"/><polygon fill="#F1F1F1" points="168.75,2105.4375,387.75,2105.4375,399.75,2117.4375,387.75,2129.4375,168.75,2129.4375,156.75,2117.4375,168.75,2105.4375" style="stroke:#181818;stroke-width:0.5;"/><text fill="#000000" font-family="sans-serif" font-size="11" lengthAdjust="spacing" textLength="219" x="168.75" y="2121.2456">For each WaitGroupCompletionHandler</text><rect fill="#F1F1F1" height="33.9688" rx="12.5" ry="12.5" style="stroke:#181818;stroke-width:0.5;" width="307" x="124.75" y="2164.4375"/><text fill="#000000" font-family="sans-serif" font-size="12" lengthAdjust="spacing" textLength="287" x="134.75" y="2185.5762">Call AppData CompletionHandler with success</text><rect fill="#F1F1F1" height="33.9688" rx="12.5" ry="12.5" style="stroke:#181818;stroke-width:0.5;" width="97" x="229.75" y="2233.4063"/><text fill="#000000" font-family="sans-serif" font-size="12" lengthAdjust="spacing" textLength="77" x="239.75" y="2254.5449">Return error</text><polygon fill="none" points="626.5,781.0547,706.5,781.0547,713.5,803.3516,1033.5,803.3516,1033.5,996.5859,626.5,996.5859,626.5,781.0547" style="stroke:#000000;stroke-width:1.5;"/><line style="stroke:#000000;stroke-width:1.5;" x1="626.5" x2="713.5" y1="803.3516" y2="803.3516"/><text fill="#000000" font-family="sans-serif" font-size="14" lengthAdjust="spacing" textLength="74" x="630.5" y="796.0498">DataTypes</text><rect fill="none" height="159.2344" style="stroke:#000000;stroke-width:1.5;" width="387" x="636.5" y="817.3516"/><path d="M1013.5,817.3516 L1013.5,826.6484 L1003.5,836.6484 L636.5,836.6484 " fill="none" style="stroke:#000000;stroke-width:1.5;"/><text fill="#000000" font-family="sans-serif" font-size="14" lengthAdjust="spacing" textLength="367" x="639.5" y="831.3467">Complete(*WaitGroupCompletionHandler, data, error)</text><rect fill="#F1F1F1" height="33.9688" rx="12.5" ry="12.5" style="stroke:#181818;stroke-width:0.5;" width="345" x="657.5" y="853.6484"/><text fill="#000000" font-family="sans-serif" font-size="12" lengthAdjust="spacing" textLength="325" x="667.5" y="874.7871">add data and error to WaitGroupCompletionHandler</text><rect fill="#F1F1F1" height="33.9688" rx="12.5" ry="12.5" style="stroke:#181818;stroke-width:0.5;" width="168" x="746" y="922.6172"/><text fill="#000000" font-family="sans-serif" font-size="12" lengthAdjust="spacing" textLength="148" x="756" y="943.7559">Call Done on WaitGroup</text><polygon fill="none" points="595.5,1031.5859,664.5,1031.5859,671.5,1053.8828,1064.5,1053.8828,1064.5,1247.1172,595.5,1247.1172,595.5,1031.5859" style="stroke:#000000;stroke-width:1.5;"/><line style="stroke:#000000;stroke-width:1.5;" x1="595.5" x2="671.5" y1="1053.8828" y2="1053.8828"/><text fill="#000000" font-family="sans-serif" font-size="14" lengthAdjust="spacing" textLength="63" x="599.5" y="1046.5811">Producer</text><rect fill="none" height="159.2344" style="stroke:#000000;stroke-width:1.5;" width="449" x="605.5" y="1067.8828"/><path d="M1044.5,1067.8828 L1044.5,1077.1797 L1034.5,1087.1797 L605.5,1087.1797 " fill="none" style="stroke:#000000;stroke-width:1.5;"/><text fill="#000000" font-family="sans-serif" font-size="14" lengthAdjust="spacing" textLength="429" x="608.5" y="1081.8779">getProducerMap(ProducerConfig) (map[string]Producer, error)</text><rect fill="#F1F1F1" height="33.9688" rx="12.5" ry="12.5" style="stroke:#181818;stroke-width:0.5;" width="241" x="709.5" y="1104.1797"/><text fill="#000000" font-family="sans-serif" font-size="12" lengthAdjust="spacing" textLength="221" x="719.5" y="1125.3184">Create Producers map using config</text><rect fill="#F1F1F1" height="33.9688" rx="12.5" ry="12.5" style="stroke:#181818;stroke-width:0.5;" width="161" x="749.5" y="1173.1484"/><text fill="#000000" font-family="sans-serif" font-size="12" lengthAdjust="spacing" textLength="141" x="759.5" y="1194.2871">Return Producers map</text><polygon fill="none" points="592,1282.1172,670,1282.1172,677,1304.4141,1068,1304.4141,1068,1566.6172,592,1566.6172,592,1282.1172" style="stroke:#000000;stroke-width:1.5;"/><line style="stroke:#000000;stroke-width:1.5;" x1="592" x2="677" y1="1304.4141" y2="1304.4141"/><text fill="#000000" font-family="sans-serif" font-size="14" lengthAdjust="spacing" textLength="72" x="596" y="1297.1123">Consumer</text><rect fill="none" height="228.2031" style="stroke:#000000;stroke-width:1.5;" width="456" x="602" y="1318.4141"/><path d="M1048,1318.4141 L1048,1327.7109 L1038,1337.7109 L602,1337.7109 " fill="none" style="stroke:#000000;stroke-width:1.5;"/><text fill="#000000" font-family="sans-serif" font-size="14" lengthAdjust="spacing" textLength="436" x="605" y="1332.4092">getConsumerServer(ConsumerConfig) (ConsumerServer, error)</text><rect fill="#F1F1F1" height="33.9688" rx="12.5" ry="12.5" style="stroke:#181818;stroke-width:0.5;" width="349" x="655.5" y="1354.7109"/><text fill="#000000" font-family="sans-serif" font-size="12" lengthAdjust="spacing" textLength="329" x="665.5" y="1375.8496">Create Consumers and Consumers map using config</text><rect fill="#F1F1F1" height="33.9688" rx="12.5" ry="12.5" style="stroke:#181818;stroke-width:0.5;" width="312" x="674" y="1423.6797"/><text fill="#000000" font-family="sans-serif" font-size="12" lengthAdjust="spacing" textLength="292" x="684" y="1444.8184">Create ConsumerServer using Consumers map</text><rect fill="#F1F1F1" height="33.9688" rx="12.5" ry="12.5" style="stroke:#181818;stroke-width:0.5;" width="169" x="745.5" y="1492.6484"/><text fill="#000000" font-family="sans-serif" font-size="12" lengthAdjust="spacing" textLength="149" x="755.5" y="1513.7871">Return ConsumerServer</text><line style="stroke:#181818;stroke-width:1.0;" x1="278.25" x2="278.25" y1="146.8594" y2="181.8594"/><polygon fill="#181818" points="274.25,171.8594,278.25,181.8594,282.25,171.8594,278.25,175.8594" style="stroke:#181818;stroke-width:1.0;"/><line style="stroke:#181818;stroke-width:1.0;" x1="278.25" x2="278.25" y1="215.8281" y2="250.8281"/><polygon fill="#181818" points="274.25,240.8281,278.25,250.8281,282.25,240.8281,278.25,244.8281" style="stroke:#181818;stroke-width:1.0;"/><line style="stroke:#181818;stroke-width:1.0;" x1="278.25" x2="278.25" y1="284.7969" y2="319.7969"/><polygon fill="#181818" points="274.25,309.7969,278.25,319.7969,282.25,309.7969,278.25,313.7969" style="stroke:#181818;stroke-width:1.0;"/><line style="stroke:#181818;stroke-width:1.0;" x1="278.25" x2="278.25" y1="353.7656" y2="388.7656"/><polygon fill="#181818" points="274.25,378.7656,278.25,388.7656,282.25,378.7656,278.25,382.7656" style="stroke:#181818;stroke-width:1.0;"/><line style="stroke:#181818;stroke-width:1.0;" x1="278.25" x2="278.25" y1="548" y2="583"/><polygon fill="#181818" points="274.25,573,278.25,583,282.25,573,278.25,577" style="stroke:#181818;stroke-width:1.0;"/><line style="stroke:#181818;stroke-width:1.0;" x1="278.25" x2="278.25" y1="616.9688" y2="651.9688"/><polygon fill="#181818" points="274.25,641.9688,278.25,651.9688,282.25,641.9688,278.25,645.9688" style="stroke:#181818;stroke-width:1.0;"/><line style="stroke:#181818;stroke-width:1.0;" x1="278.25" x2="278.25" y1="811.2031" y2="846.2031"/><polygon fill="#181818" points="274.25,836.2031,278.25,846.2031,282.25,836.2031,278.25,840.2031" style="stroke:#181818;stroke-width:1.0;"/><line style="stroke:#181818;stroke-width:1.0;" x1="154.5" x2="154.5" y1="1138.0781" y2="1173.0781"/><polygon fill="#181818" points="150.5,1163.0781,154.5,1173.0781,158.5,1163.0781,154.5,1167.0781" style="stroke:#181818;stroke-width:1.0;"/><line style="stroke:#181818;stroke-width:1.0;" x1="402" x2="402" y1="1124.1094" y2="1159.1094"/><polygon fill="#181818" points="398,1149.1094,402,1159.1094,406,1149.1094,402,1153.1094" style="stroke:#181818;stroke-width:1.0;"/><line style="stroke:#181818;stroke-width:1.0;" x1="402" x2="402" y1="1193.0781" y2="1228.0781"/><polygon fill="#181818" points="398,1218.0781,402,1228.0781,406,1218.0781,402,1222.0781" style="stroke:#181818;stroke-width:1.0;"/><line style="stroke:#181818;stroke-width:1.0;" x1="402" x2="402" y1="1393.3867" y2="1428.3867"/><polygon fill="#181818" points="398,1418.3867,402,1428.3867,406,1418.3867,402,1422.3867" style="stroke:#181818;stroke-width:1.0;"/><line style="stroke:#181818;stroke-width:1.0;" x1="402" x2="402" y1="1321.0469" y2="1345.4492"/><polygon fill="#181818" points="398,1335.4492,402,1345.4492,406,1335.4492,402,1339.4492" style="stroke:#181818;stroke-width:1.0;"/><line style="stroke:#181818;stroke-width:1.0;" x1="428.5" x2="513.5" y1="1309.0469" y2="1309.0469"/><polygon fill="#181818" points="509.5,1393.9023,513.5,1403.9023,517.5,1393.9023,513.5,1397.9023" style="stroke:#181818;stroke-width:1.0;"/><line style="stroke:#181818;stroke-width:1.0;" x1="513.5" x2="513.5" y1="1309.0469" y2="1498.7578"/><line style="stroke:#181818;stroke-width:1.0;" x1="513.5" x2="414" y1="1498.7578" y2="1498.7578"/><polygon fill="#181818" points="424,1494.7578,414,1498.7578,424,1502.7578,420,1498.7578" style="stroke:#181818;stroke-width:1.0;"/><line style="stroke:#181818;stroke-width:1.0;" x1="402" x2="402" y1="1462.3555" y2="1486.7578"/><polygon fill="#181818" points="398,1476.7578,402,1486.7578,406,1476.7578,402,1480.7578" style="stroke:#181818;stroke-width:1.0;"/><line style="stroke:#181818;stroke-width:1.0;" x1="402" x2="402" y1="1262.0469" y2="1297.0469"/><polygon fill="#181818" points="398,1287.0469,402,1297.0469,406,1287.0469,402,1291.0469" style="stroke:#181818;stroke-width:1.0;"/><line style="stroke:#181818;stroke-width:1.0;" x1="194.75" x2="154.5" y1="1068.1406" y2="1068.1406"/><line style="stroke:#181818;stroke-width:1.0;" x1="154.5" x2="154.5" y1="1068.1406" y2="1090.1406"/><polygon fill="#181818" points="150.5,1080.1406,154.5,1090.1406,158.5,1080.1406,154.5,1084.1406" style="stroke:#181818;stroke-width:1.0;"/><line style="stroke:#181818;stroke-width:1.0;" x1="361.75" x2="402" y1="1068.1406" y2="1068.1406"/><line style="stroke:#181818;stroke-width:1.0;" x1="402" x2="402" y1="1068.1406" y2="1090.1406"/><polygon fill="#181818" points="398,1080.1406,402,1090.1406,406,1080.1406,402,1084.1406" style="stroke:#181818;stroke-width:1.0;"/><line style="stroke:#181818;stroke-width:1.0;" x1="154.5" x2="154.5" y1="1207.0469" y2="1528.7578"/><line style="stroke:#181818;stroke-width:1.0;" x1="154.5" x2="266.25" y1="1528.7578" y2="1528.7578"/><polygon fill="#181818" points="256.25,1524.7578,266.25,1528.7578,256.25,1532.7578,260.25,1528.7578" style="stroke:#181818;stroke-width:1.0;"/><line style="stroke:#181818;stroke-width:1.0;" x1="402" x2="402" y1="1510.7578" y2="1528.7578"/><line style="stroke:#181818;stroke-width:1.0;" x1="402" x2="290.25" y1="1528.7578" y2="1528.7578"/><polygon fill="#181818" points="300.25,1524.7578,290.25,1528.7578,300.25,1532.7578,296.25,1528.7578" style="stroke:#181818;stroke-width:1.0;"/><line style="stroke:#181818;stroke-width:1.0;" x1="278.25" x2="278.25" y1="1021.1406" y2="1056.1406"/><polygon fill="#181818" points="274.25,1046.1406,278.25,1056.1406,282.25,1046.1406,278.25,1050.1406" style="stroke:#181818;stroke-width:1.0;"/><line style="stroke:#181818;stroke-width:1.0;" x1="278.25" x2="278.25" y1="939.1719" y2="987.1719"/><polygon fill="#181818" points="274.25,977.1719,278.25,987.1719,282.25,977.1719,278.25,981.1719" style="stroke:#181818;stroke-width:1.0;"/><line style="stroke:#181818;stroke-width:1.0;" x1="358.75" x2="550" y1="1600.7578" y2="1600.7578"/><polygon fill="#181818" points="546,1273.9648,550,1263.9648,554,1273.9648,550,1269.9648" style="stroke:#181818;stroke-width:1.0;"/><line style="stroke:#181818;stroke-width:1.0;" x1="550" x2="550" y1="927.1719" y2="1600.7578"/><line style="stroke:#181818;stroke-width:1.0;" x1="550" x2="290.25" y1="927.1719" y2="927.1719"/><polygon fill="#181818" points="300.25,923.1719,290.25,927.1719,300.25,931.1719,296.25,927.1719" style="stroke:#181818;stroke-width:1.0;"/><line style="stroke:#181818;stroke-width:1.0;" x1="278.25" x2="278.25" y1="1540.7578" y2="1588.7578"/><polygon fill="#181818" points="274.25,1578.7578,278.25,1588.7578,282.25,1578.7578,278.25,1582.7578" style="stroke:#181818;stroke-width:1.0;"/><line style="stroke:#181818;stroke-width:1.0;" x1="278.25" x2="278.25" y1="880.1719" y2="915.1719"/><polygon fill="#181818" points="274.25,905.1719,278.25,915.1719,282.25,905.1719,278.25,909.1719" style="stroke:#181818;stroke-width:1.0;"/><line style="stroke:#181818;stroke-width:1.0;" x1="278.25" x2="278.25" y1="1612.7578" y2="1647.7578"/><polygon fill="#181818" points="274.25,1637.7578,278.25,1647.7578,282.25,1637.7578,278.25,1641.7578" style="stroke:#181818;stroke-width:1.0;"/><line style="stroke:#181818;stroke-width:1.0;" x1="278.25" x2="278.25" y1="1940.0664" y2="1975.0664"/><polygon fill="#181818" points="274.25,1965.0664,278.25,1975.0664,282.25,1965.0664,278.25,1969.0664" style="stroke:#181818;stroke-width:1.0;"/><line style="stroke:#181818;stroke-width:1.0;" x1="278.25" x2="278.25" y1="1881.6953" y2="1906.0977"/><polygon fill="#181818" points="274.25,1896.0977,278.25,1906.0977,282.25,1896.0977,278.25,1900.0977" style="stroke:#181818;stroke-width:1.0;"/><line style="stroke:#181818;stroke-width:1.0;" x1="304.75" x2="431.75" y1="1869.6953" y2="1869.6953"/><polygon fill="#181818" points="427.75,1947.5664,431.75,1957.5664,435.75,1947.5664,431.75,1951.5664" style="stroke:#181818;stroke-width:1.0;"/><line style="stroke:#181818;stroke-width:1.0;" x1="431.75" x2="431.75" y1="1869.6953" y2="2045.4375"/><line style="stroke:#181818;stroke-width:1.0;" x1="431.75" x2="290.25" y1="2045.4375" y2="2045.4375"/><polygon fill="#181818" points="300.25,2041.4375,290.25,2045.4375,300.25,2049.4375,296.25,2045.4375" style="stroke:#181818;stroke-width:1.0;"/><line style="stroke:#181818;stroke-width:1.0;" x1="278.25" x2="278.25" y1="2009.0352" y2="2033.4375"/><polygon fill="#181818" points="274.25,2023.4375,278.25,2033.4375,282.25,2023.4375,278.25,2027.4375" style="stroke:#181818;stroke-width:1.0;"/><line style="stroke:#181818;stroke-width:1.0;" x1="278.25" x2="278.25" y1="1822.6953" y2="1857.6953"/><polygon fill="#181818" points="274.25,1847.6953,278.25,1857.6953,282.25,1847.6953,278.25,1851.6953" style="stroke:#181818;stroke-width:1.0;"/><line style="stroke:#181818;stroke-width:1.0;" x1="278.25" x2="278.25" y1="1740.7266" y2="1788.7266"/><polygon fill="#181818" points="274.25,1778.7266,278.25,1788.7266,282.25,1778.7266,278.25,1782.7266" style="stroke:#181818;stroke-width:1.0;"/><line style="stroke:#181818;stroke-width:1.0;" x1="399.75" x2="455.75" y1="2117.4375" y2="2117.4375"/><polygon fill="#181818" points="451.75,1933.082,455.75,1923.082,459.75,1933.082,455.75,1929.082" style="stroke:#181818;stroke-width:1.0;"/><line style="stroke:#181818;stroke-width:1.0;" x1="455.75" x2="455.75" y1="1728.7266" y2="2117.4375"/><line style="stroke:#181818;stroke-width:1.0;" x1="455.75" x2="290.25" y1="1728.7266" y2="1728.7266"/><polygon fill="#181818" points="300.25,1724.7266,290.25,1728.7266,300.25,1732.7266,296.25,1728.7266" style="stroke:#181818;stroke-width:1.0;"/><line style="stroke:#181818;stroke-width:1.0;" x1="278.25" x2="278.25" y1="2057.4375" y2="2105.4375"/><polygon fill="#181818" points="274.25,2095.4375,278.25,2105.4375,282.25,2095.4375,278.25,2099.4375" style="stroke:#181818;stroke-width:1.0;"/><line style="stroke:#181818;stroke-width:1.0;" x1="278.25" x2="278.25" y1="1681.7266" y2="1716.7266"/><polygon fill="#181818" points="274.25,1706.7266,278.25,1716.7266,282.25,1706.7266,278.25,1710.7266" style="stroke:#181818;stroke-width:1.0;"/><line style="stroke:#181818;stroke-width:1.0;" x1="278.25" x2="278.25" y1="2129.4375" y2="2164.4375"/><polygon fill="#181818" points="274.25,2154.4375,278.25,2164.4375,282.25,2154.4375,278.25,2158.4375" style="stroke:#181818;stroke-width:1.0;"/><line style="stroke:#181818;stroke-width:1.0;" x1="278.25" x2="278.25" y1="2198.4063" y2="2233.4063"/><polygon fill="#181818" points="274.25,2223.4063,278.25,2233.4063,282.25,2223.4063,278.25,2227.4063" style="stroke:#181818;stroke-width:1.0;"/><line style="stroke:#181818;stroke-width:1.0;" x1="830" x2="830" y1="887.6172" y2="922.6172"/><polygon fill="#181818" points="826,912.6172,830,922.6172,834,912.6172,830,916.6172" style="stroke:#181818;stroke-width:1.0;"/><line style="stroke:#181818;stroke-width:1.0;" x1="830" x2="830" y1="1138.1484" y2="1173.1484"/><polygon fill="#181818" points="826,1163.1484,830,1173.1484,834,1163.1484,830,1167.1484" style="stroke:#181818;stroke-width:1.0;"/><line style="stroke:#181818;stroke-width:1.0;" x1="830" x2="830" y1="1388.6797" y2="1423.6797"/><polygon fill="#181818" points="826,1413.6797,830,1423.6797,834,1413.6797,830,1417.6797" style="stroke:#181818;stroke-width:1.0;"/><line style="stroke:#181818;stroke-width:1.0;" x1="830" x2="830" y1="1457.6484" y2="1492.6484"/><polygon fill="#181818" points="826,1482.6484,830,1492.6484,834,1482.6484,830,1486.6484" style="stroke:#181818;stroke-width:1.0;"/><!--SRC=[jLOxRzim4DxzAswK2sVeMWC50WTDbmA67Q13ce4HJn9XcIH8ge5HvB-N9-ePIuhij9n4yUvuttSl0W1ePfnmGadOe_cD1luie5fMvy8rkvl7J72EykdcQ_DFi_Z0KZnNfPKQLMZO5JASHdjLc1Z3PWLRePlllP27yBq4D4QzjKJhootd7ILm2he6WLdO5ZPZppckXvNRMqYvOsfQTSFoF03iM9YMQss_Owy3u5oIesDnrllzEa1mgHvz-i7qB1hZ3EE31P40Ui6JouHCGLY8bJ4Ok_m45XqmoI4HKjWCxG06KqWeORIKsXBH4Lsck3SluTdd1dae-P01T8MHmSiF89VyGRs1le9RhU-OOrCSA9a8Swmb2Jw38zC3ZiO6cKFuoOIxfqlFHGngBtBskzGc3q4hKzQNIfeBANbRweIlAYSIWHoUJt30qthGcWzPv0z1AaVysiQ0nxy4bw64g8Iy75Hlaw_oufVSgAFEaPpxxWEUUrTUXCl6ej8OsKq6ZnRc5Y6oHHoZjHFkK5b-9ZOc-EsIMG9lPC_SNxy3F2JCP1btoGvapcFsdx4xa-6IPSb5ifX_4Z8LNZAH- -XyyxM1limeuOZMkcm6Ye0OXyJB4xw6VefRw16N5KNPWQhYl2ASbqQc5nNuVob_2UNZc9UBg_olIcqWThlhE-rh_oK0B6L2pdeFaAiF9ursy4bGOV13Qvo75N1lOmLLf0UQEFEzWsJAMHMogTj8PcHJOFPEIGGbfrhGJ9Pgz5kZU16Fl8TITFMvxzjH_RsXaPGk8V9ZwD4wuwVoKtqsnS8cpATQrD8OWyBIK2-dN3gU4ZsT3uFs06nn70TTdrUFmNhRuEwVpu1SAzWo0ThT30BUMAZ6S53g6HedhwzxDNlqFcYVsQz_0G00]--></g></svg>