<?xml version="1.0" encoding="us-ascii" standalone="no"?><svg xmlns="http://www.w3.org/2000/svg" xmlns:xlink="http://www.w3.org/1999/xlink" contentStyleType="text/css" height="667px" preserveAspectRatio="none" style="width:947px;height:667px;background:#FFFFFF;" version="1.1" viewBox="0 0 947 667" width="947px" zoomAndPan="magnify"><defs/><g><rect fill="none" height="645.2969" style="stroke:#000000;stroke-width:1.5;" width="925" x="11" y="11"/><path d="M65,11 L65,20.2969 L55,30.2969 L11,30.2969 " fill="none" style="stroke:#000000;stroke-width:1.5;"/><text fill="#000000" font-family="sans-serif" font-size="14" lengthAdjust="spacing" textLength="44" x="14" y="24.9951">Server</text><line style="stroke:none;stroke-width:1.5;" x1="230.5" x2="686" y1="35.2969" y2="35.2969"/><polygon fill="none" points="23,131.0781,73,131.0781,80,153.375,438,153.375,438,553.5156,23,553.5156,23,131.0781" style="stroke:#000000;stroke-width:1.5;"/><line style="stroke:#000000;stroke-width:1.5;" x1="23" x2="80" y1="153.375" y2="153.375"/><text fill="#000000" font-family="sans-serif" font-size="14" lengthAdjust="spacing" textLength="44" x="27" y="146.0732">Server</text><rect fill="none" height="366.1406" style="stroke:#000000;stroke-width:1.5;" width="395" x="33" y="167.375"/><path d="M418,167.375 L418,176.6719 L408,186.6719 L33,186.6719 " fill="none" style="stroke:#000000;stroke-width:1.5;"/><text fill="#000000" font-family="sans-serif" font-size="14" lengthAdjust="spacing" textLength="375" x="36" y="181.3701">RunServer(SourceServer, PipeServer, SinkServer) error</text><rect fill="#F1F1F1" height="33.9688" rx="12.5" ry="12.5" style="stroke:#181818;stroke-width:0.5;" width="301" x="80" y="203.6719"/><text fill="#000000" font-family="sans-serif" font-size="12" lengthAdjust="spacing" textLength="281" x="90" y="224.8105">Add PipeServer to SourceServer as Pushable</text><rect fill="#F1F1F1" height="33.9688" rx="12.5" ry="12.5" style="stroke:#181818;stroke-width:0.5;" width="283" x="89" y="272.6406"/><text fill="#000000" font-family="sans-serif" font-size="12" lengthAdjust="spacing" textLength="263" x="99" y="293.7793">Add SinkServer to PipeServer as Pushable</text><rect fill="#F1F1F1" height="33.9688" rx="12.5" ry="12.5" style="stroke:#181818;stroke-width:0.5;" width="151" x="155" y="341.6094"/><text fill="#000000" font-family="sans-serif" font-size="12" lengthAdjust="spacing" textLength="131" x="165" y="362.748">Call Serve SinkServer</text><rect fill="#F1F1F1" height="33.9688" rx="12.5" ry="12.5" style="stroke:#181818;stroke-width:0.5;" width="152" x="154.5" y="410.5781"/><text fill="#000000" font-family="sans-serif" font-size="12" lengthAdjust="spacing" textLength="132" x="164.5" y="431.7168">Call Serve PipeServer</text><rect fill="#F1F1F1" height="33.9688" rx="12.5" ry="12.5" style="stroke:#181818;stroke-width:0.5;" width="169" x="146" y="479.5469"/><text fill="#000000" font-family="sans-serif" font-size="12" lengthAdjust="spacing" textLength="149" x="156" y="500.6855">Call Serve SourceServer</text><polygon fill="none" points="461.5,40.2969,530.5,40.2969,537.5,62.5938,910.5,62.5938,910.5,324.7969,461.5,324.7969,461.5,40.2969" style="stroke:#000000;stroke-width:1.5;"/><line style="stroke:#000000;stroke-width:1.5;" x1="461.5" x2="537.5" y1="62.5938" y2="62.5938"/><text fill="#000000" font-family="sans-serif" font-size="14" lengthAdjust="spacing" textLength="63" x="465.5" y="55.292">Producer</text><rect fill="none" height="228.2031" style="stroke:#000000;stroke-width:1.5;" width="429" x="471.5" y="76.5938"/><path d="M890.5,76.5938 L890.5,85.8906 L880.5,95.8906 L471.5,95.8906 " fill="none" style="stroke:#000000;stroke-width:1.5;"/><text fill="#000000" font-family="sans-serif" font-size="14" lengthAdjust="spacing" textLength="409" x="474.5" y="90.5889">getProducerServer(ProducerConfig) (ProducerServer, error)</text><rect fill="#F1F1F1" height="33.9688" rx="12.5" ry="12.5" style="stroke:#181818;stroke-width:0.5;" width="337" x="517.5" y="112.8906"/><text fill="#000000" font-family="sans-serif" font-size="12" lengthAdjust="spacing" textLength="317" x="527.5" y="134.0293">Create Producers and Producers map using config</text><rect fill="#F1F1F1" height="33.9688" rx="12.5" ry="12.5" style="stroke:#181818;stroke-width:0.5;" width="300" x="536" y="181.8594"/><text fill="#000000" font-family="sans-serif" font-size="12" lengthAdjust="spacing" textLength="280" x="546" y="202.998">Create ProducerServer using Producers map</text><rect fill="#F1F1F1" height="33.9688" rx="12.5" ry="12.5" style="stroke:#181818;stroke-width:0.5;" width="163" x="604.5" y="250.8281"/><text fill="#000000" font-family="sans-serif" font-size="12" lengthAdjust="spacing" textLength="143" x="614.5" y="271.9668">Return ProducerServer</text><polygon fill="none" points="448,359.7969,526,359.7969,533,382.0938,924,382.0938,924,644.2969,448,644.2969,448,359.7969" style="stroke:#000000;stroke-width:1.5;"/><line style="stroke:#000000;stroke-width:1.5;" x1="448" x2="533" y1="382.0938" y2="382.0938"/><text fill="#000000" font-family="sans-serif" font-size="14" lengthAdjust="spacing" textLength="72" x="452" y="374.792">Consumer</text><rect fill="none" height="228.2031" style="stroke:#000000;stroke-width:1.5;" width="456" x="458" y="396.0938"/><path d="M904,396.0938 L904,405.3906 L894,415.3906 L458,415.3906 " fill="none" style="stroke:#000000;stroke-width:1.5;"/><text fill="#000000" font-family="sans-serif" font-size="14" lengthAdjust="spacing" textLength="436" x="461" y="410.0889">getConsumerServer(ConsumerConfig) (ConsumerServer, error)</text><rect fill="#F1F1F1" height="33.9688" rx="12.5" ry="12.5" style="stroke:#181818;stroke-width:0.5;" width="349" x="511.5" y="432.3906"/><text fill="#000000" font-family="sans-serif" font-size="12" lengthAdjust="spacing" textLength="329" x="521.5" y="453.5293">Create Consumers and Consumers map using config</text><rect fill="#F1F1F1" height="33.9688" rx="12.5" ry="12.5" style="stroke:#181818;stroke-width:0.5;" width="312" x="530" y="501.3594"/><text fill="#000000" font-family="sans-serif" font-size="12" lengthAdjust="spacing" textLength="292" x="540" y="522.498">Create ConsumerServer using Consumers map</text><rect fill="#F1F1F1" height="33.9688" rx="12.5" ry="12.5" style="stroke:#181818;stroke-width:0.5;" width="169" x="601.5" y="570.3281"/><text fill="#000000" font-family="sans-serif" font-size="12" lengthAdjust="spacing" textLength="149" x="611.5" y="591.4668">Return ConsumerServer</text><line style="stroke:#181818;stroke-width:1.0;" x1="230.5" x2="230.5" y1="237.6406" y2="272.6406"/><polygon fill="#181818" points="226.5,262.6406,230.5,272.6406,234.5,262.6406,230.5,266.6406" style="stroke:#181818;stroke-width:1.0;"/><line style="stroke:#181818;stroke-width:1.0;" x1="230.5" x2="230.5" y1="306.6094" y2="341.6094"/><polygon fill="#181818" points="226.5,331.6094,230.5,341.6094,234.5,331.6094,230.5,335.6094" style="stroke:#181818;stroke-width:1.0;"/><line style="stroke:#181818;stroke-width:1.0;" x1="230.5" x2="230.5" y1="375.5781" y2="410.5781"/><polygon fill="#181818" points="226.5,400.5781,230.5,410.5781,234.5,400.5781,230.5,404.5781" style="stroke:#181818;stroke-width:1.0;"/><line style="stroke:#181818;stroke-width:1.0;" x1="230.5" x2="230.5" y1="444.5469" y2="479.5469"/><polygon fill="#181818" points="226.5,469.5469,230.5,479.5469,234.5,469.5469,230.5,473.5469" style="stroke:#181818;stroke-width:1.0;"/><line style="stroke:#181818;stroke-width:1.0;" x1="686" x2="686" y1="146.8594" y2="181.8594"/><polygon fill="#181818" points="682,171.8594,686,181.8594,690,171.8594,686,175.8594" style="stroke:#181818;stroke-width:1.0;"/><line style="stroke:#181818;stroke-width:1.0;" x1="686" x2="686" y1="215.8281" y2="250.8281"/><polygon fill="#181818" points="682,240.8281,686,250.8281,690,240.8281,686,244.8281" style="stroke:#181818;stroke-width:1.0;"/><line style="stroke:#181818;stroke-width:1.0;" x1="686" x2="686" y1="466.3594" y2="501.3594"/><polygon fill="#181818" points="682,491.3594,686,501.3594,690,491.3594,686,495.3594" style="stroke:#181818;stroke-width:1.0;"/><line style="stroke:#181818;stroke-width:1.0;" x1="686" x2="686" y1="535.3281" y2="570.3281"/><polygon fill="#181818" points="682,560.3281,686,570.3281,690,560.3281,686,564.3281" style="stroke:#181818;stroke-width:1.0;"/><!--SRC=[dLJBReCm4BpdA_OOfEG76gbInG-WSAnwsEAjiK9iv4SlLVwz8SPW1qXGzhJZzSpY6Ga0W1Qr5LOe2INfNzBmju6-JDi8Ew3zPoqO8_crVn_EMgnEo6bAxOfhvLeuEkcdsr8vNP47EoX4E_Iba2VVPq1Qgtkbhju-68j8O1N4We062cTg_6xeC4yUjtJaIEenDSUcyG-C51xV6xMVw4KFcDvaPB6ga-FBPjhTKWBaAEIgh0gjcAiMqk9amxnFBS1SoH_1CzYcyvqFB9jBBDU4Tbne02MBq1bRS4P83jLD-_1KeS_BanAX6UwHhDFoZlkooy6zgmt6dPVT2_FUlG07zzBv2lS2mRitelNkfIjxKYAqx5xAVTazkdxw-3Uv_0C0]--></g></svg>