<?xml version="1.0" encoding="us-ascii" standalone="no"?><svg xmlns="http://www.w3.org/2000/svg" xmlns:xlink="http://www.w3.org/1999/xlink" contentStyleType="text/css" height="917px" preserveAspectRatio="none" style="width:836px;height:917px;background:#FFFFFF;" version="1.1" viewBox="0 0 836 917" width="836px" zoomAndPan="magnify"><defs/><g><rect fill="none" height="895.8281" style="stroke:#000000;stroke-width:1.5;" width="814" x="11" y="11"/><path d="M119,11 L119,20.2969 L109,30.2969 L11,30.2969 " fill="none" style="stroke:#000000;stroke-width:1.5;"/><text fill="#000000" font-family="sans-serif" font-size="14" lengthAdjust="spacing" textLength="98" x="14" y="24.9951">JSON Extractor</text><line style="stroke:none;stroke-width:1.5;" x1="181" x2="581" y1="35.2969" y2="35.2969"/><polygon fill="none" points="23,117.7578,62,117.7578,69,140.0547,339,140.0547,339,817.3672,23,817.3672,23,117.7578" style="stroke:#000000;stroke-width:1.5;"/><line style="stroke:#000000;stroke-width:1.5;" x1="23" x2="69" y1="140.0547" y2="140.0547"/><text fill="#000000" font-family="sans-serif" font-size="14" lengthAdjust="spacing" textLength="33" x="27" y="132.7529">main</text><rect fill="none" height="366.1406" style="stroke:#000000;stroke-width:1.5;" width="251" x="55.5" y="154.0547"/><path d="M108.5,154.0547 L108.5,163.3516 L98.5,173.3516 L55.5,173.3516 " fill="none" style="stroke:#000000;stroke-width:1.5;"/><text fill="#000000" font-family="sans-serif" font-size="14" lengthAdjust="spacing" textLength="43" x="58.5" y="168.0498">main()</text><rect fill="#F1F1F1" height="33.9688" rx="12.5" ry="12.5" style="stroke:#181818;stroke-width:0.5;" width="137" x="112.5" y="190.3516"/><text fill="#000000" font-family="sans-serif" font-size="12" lengthAdjust="spacing" textLength="117" x="122.5" y="211.4902">get config from file</text><rect fill="#F1F1F1" height="33.9688" rx="12.5" ry="12.5" style="stroke:#181818;stroke-width:0.5;" width="226" x="68" y="259.3203"/><text fill="#000000" font-family="sans-serif" font-size="12" lengthAdjust="spacing" textLength="206" x="78" y="280.459">Get producer server using config</text><rect fill="#F1F1F1" height="33.9688" rx="12.5" ry="12.5" style="stroke:#181818;stroke-width:0.5;" width="231" x="65.5" y="328.2891"/><text fill="#000000" font-family="sans-serif" font-size="12" lengthAdjust="spacing" textLength="211" x="75.5" y="349.4277">Get consumer server using config</text><rect fill="#F1F1F1" height="33.9688" rx="12.5" ry="12.5" style="stroke:#181818;stroke-width:0.5;" width="214" x="74" y="397.2578"/><text fill="#000000" font-family="sans-serif" font-size="12" lengthAdjust="spacing" textLength="194" x="84" y="418.3965">Get JQTransformer using config</text><rect fill="#F1F1F1" height="33.9688" rx="12.5" ry="12.5" style="stroke:#181818;stroke-width:0.5;" width="79" x="141.5" y="466.2266"/><text fill="#000000" font-family="sans-serif" font-size="12" lengthAdjust="spacing" textLength="59" x="151.5" y="487.3652">Start App</text><rect fill="none" height="242.1719" style="stroke:#000000;stroke-width:1.5;" width="296" x="33" y="555.1953"/><path d="M319,555.1953 L319,564.4922 L309,574.4922 L33,574.4922 " fill="none" style="stroke:#000000;stroke-width:1.5;"/><text fill="#000000" font-family="sans-serif" font-size="14" lengthAdjust="spacing" textLength="276" x="36" y="569.1904">getConfigFromFile(pathToConfig) Config</text><rect fill="#F1F1F1" height="33.9688" rx="12.5" ry="12.5" style="stroke:#181818;stroke-width:0.5;" width="148" x="107" y="591.4922"/><text fill="#000000" font-family="sans-serif" font-size="12" lengthAdjust="spacing" textLength="128" x="117" y="612.6309">Read config from file</text><rect fill="#F1F1F1" height="47.9375" rx="12.5" ry="12.5" style="stroke:#181818;stroke-width:0.5;" width="255" x="53.5" y="660.4609"/><text fill="#000000" font-family="sans-serif" font-size="12" lengthAdjust="spacing" textLength="232" x="63.5" y="681.5996">Separate config into producerConfig,</text><text fill="#000000" font-family="sans-serif" font-size="12" lengthAdjust="spacing" textLength="235" x="63.5" y="695.5684">consumerConfig, jqTransformerConfig</text><rect fill="#F1F1F1" height="33.9688" rx="12.5" ry="12.5" style="stroke:#181818;stroke-width:0.5;" width="104" x="129" y="743.3984"/><text fill="#000000" font-family="sans-serif" font-size="12" lengthAdjust="spacing" textLength="84" x="139" y="764.5371">Return config</text><polygon fill="none" points="349,40.2969,451,40.2969,458,62.5938,813,62.5938,813,894.8281,349,894.8281,349,40.2969" style="stroke:#000000;stroke-width:1.5;"/><line style="stroke:#000000;stroke-width:1.5;" x1="349" x2="458" y1="62.5938" y2="62.5938"/><text fill="#000000" font-family="sans-serif" font-size="14" lengthAdjust="spacing" textLength="96" x="353" y="55.292">JqTransformer</text><rect fill="none" height="159.2344" style="stroke:#000000;stroke-width:1.5;" width="444" x="359" y="76.5938"/><path d="M793,76.5938 L793,85.8906 L783,95.8906 L359,95.8906 " fill="none" style="stroke:#000000;stroke-width:1.5;"/><text fill="#000000" font-family="sans-serif" font-size="14" lengthAdjust="spacing" textLength="424" x="362" y="90.5889">getJQTransformer(JqTransformerConfig) (JQTransformer, error)</text><rect fill="#F1F1F1" height="33.9688" rx="12.5" ry="12.5" style="stroke:#181818;stroke-width:0.5;" width="234" x="464" y="112.8906"/><text fill="#000000" font-family="sans-serif" font-size="12" lengthAdjust="spacing" textLength="214" x="474" y="134.0293">Create JQTransformer using config</text><rect fill="#F1F1F1" height="33.9688" rx="12.5" ry="12.5" style="stroke:#181818;stroke-width:0.5;" width="154" x="504" y="181.8594"/><text fill="#000000" font-family="sans-serif" font-size="12" lengthAdjust="spacing" textLength="134" x="514" y="202.998">Return JQTransformer</text><rect fill="none" height="90.2656" style="stroke:#000000;stroke-width:1.5;" width="312" x="425" y="270.8281"/><path d="M619,270.8281 L619,280.125 L609,290.125 L425,290.125 " fill="none" style="stroke:#000000;stroke-width:1.5;"/><text fill="#000000" font-family="sans-serif" font-size="14" lengthAdjust="spacing" textLength="184" x="428" y="284.8232">Serve(JQTransformer) error</text><rect fill="#F1F1F1" height="33.9688" rx="12.5" ry="12.5" style="stroke:#181818;stroke-width:0.5;" width="292" x="435" y="307.125"/><text fill="#000000" font-family="sans-serif" font-size="12" lengthAdjust="spacing" textLength="272" x="445" y="328.2637">empty go routine that cancels on a context</text><rect fill="none" height="90.2656" style="stroke:#000000;stroke-width:1.5;" width="328" x="417" y="396.0938"/><path d="M735,396.0938 L735,405.3906 L725,415.3906 L417,415.3906 " fill="none" style="stroke:#000000;stroke-width:1.5;"/><text fill="#000000" font-family="sans-serif" font-size="14" lengthAdjust="spacing" textLength="308" x="420" y="410.0889">GetReceiver(JQTransformer) (Receiver, error)</text><rect fill="#F1F1F1" height="33.9688" rx="12.5" ry="12.5" style="stroke:#181818;stroke-width:0.5;" width="119" x="521.5" y="432.3906"/><text fill="#000000" font-family="sans-serif" font-size="12" lengthAdjust="spacing" textLength="99" x="531.5" y="453.5293">Return Receiver</text><rect fill="none" height="90.2656" style="stroke:#000000;stroke-width:1.5;" width="320" x="421" y="521.3594"/><path d="M731,521.3594 L731,530.6563 L721,540.6563 L421,540.6563 " fill="none" style="stroke:#000000;stroke-width:1.5;"/><text fill="#000000" font-family="sans-serif" font-size="14" lengthAdjust="spacing" textLength="300" x="424" y="535.3545">AddReceiver(JQTransformer, Receiver) error</text><rect fill="#F1F1F1" height="33.9688" rx="12.5" ry="12.5" style="stroke:#181818;stroke-width:0.5;" width="210" x="476" y="557.6563"/><text fill="#000000" font-family="sans-serif" font-size="12" lengthAdjust="spacing" textLength="190" x="486" y="578.7949">Add Receiver to JQTransformer</text><rect fill="none" height="228.2031" style="stroke:#000000;stroke-width:1.5;" width="417" x="372.5" y="646.625"/><path d="M737.5,646.625 L737.5,655.9219 L727.5,665.9219 L372.5,665.9219 " fill="none" style="stroke:#000000;stroke-width:1.5;"/><text fill="#000000" font-family="sans-serif" font-size="14" lengthAdjust="spacing" textLength="355" x="375.5" y="660.6201">HandleIncomingData(JQTransformer, AppData) error</text><rect fill="#F1F1F1" height="33.9688" rx="12.5" ry="12.5" style="stroke:#181818;stroke-width:0.5;" width="386" x="388" y="682.9219"/><text fill="#000000" font-family="sans-serif" font-size="12" lengthAdjust="spacing" textLength="366" x="398" y="704.0605">Extract JSON data from AppData using compiled jqProgram</text><rect fill="#F1F1F1" height="33.9688" rx="12.5" ry="12.5" style="stroke:#181818;stroke-width:0.5;" width="397" x="382.5" y="751.8906"/><text fill="#000000" font-family="sans-serif" font-size="12" lengthAdjust="spacing" textLength="377" x="392.5" y="773.0293">Create AppData with extracted data and CompletionHandler</text><rect fill="#F1F1F1" height="33.9688" rx="12.5" ry="12.5" style="stroke:#181818;stroke-width:0.5;" width="228" x="467" y="820.8594"/><text fill="#000000" font-family="sans-serif" font-size="12" lengthAdjust="spacing" textLength="208" x="477" y="841.998">Send AppData to added Receiver</text><line style="stroke:#181818;stroke-width:1.0;" x1="181" x2="181" y1="224.3203" y2="259.3203"/><polygon fill="#181818" points="177,249.3203,181,259.3203,185,249.3203,181,253.3203" style="stroke:#181818;stroke-width:1.0;"/><line style="stroke:#181818;stroke-width:1.0;" x1="181" x2="181" y1="293.2891" y2="328.2891"/><polygon fill="#181818" points="177,318.2891,181,328.2891,185,318.2891,181,322.2891" style="stroke:#181818;stroke-width:1.0;"/><line style="stroke:#181818;stroke-width:1.0;" x1="181" x2="181" y1="362.2578" y2="397.2578"/><polygon fill="#181818" points="177,387.2578,181,397.2578,185,387.2578,181,391.2578" style="stroke:#181818;stroke-width:1.0;"/><line style="stroke:#181818;stroke-width:1.0;" x1="181" x2="181" y1="431.2266" y2="466.2266"/><polygon fill="#181818" points="177,456.2266,181,466.2266,185,456.2266,181,460.2266" style="stroke:#181818;stroke-width:1.0;"/><line style="stroke:#181818;stroke-width:1.0;" x1="181" x2="181" y1="625.4609" y2="660.4609"/><polygon fill="#181818" points="177,650.4609,181,660.4609,185,650.4609,181,654.4609" style="stroke:#181818;stroke-width:1.0;"/><line style="stroke:#181818;stroke-width:1.0;" x1="181" x2="181" y1="708.3984" y2="743.3984"/><polygon fill="#181818" points="177,733.3984,181,743.3984,185,733.3984,181,737.3984" style="stroke:#181818;stroke-width:1.0;"/><line style="stroke:#181818;stroke-width:1.0;" x1="581" x2="581" y1="146.8594" y2="181.8594"/><polygon fill="#181818" points="577,171.8594,581,181.8594,585,171.8594,581,175.8594" style="stroke:#181818;stroke-width:1.0;"/><line style="stroke:#181818;stroke-width:1.0;" x1="581" x2="581" y1="716.8906" y2="751.8906"/><polygon fill="#181818" points="577,741.8906,581,751.8906,585,741.8906,581,745.8906" style="stroke:#181818;stroke-width:1.0;"/><line style="stroke:#181818;stroke-width:1.0;" x1="581" x2="581" y1="785.8594" y2="820.8594"/><polygon fill="#181818" points="577,810.8594,581,820.8594,585,810.8594,581,814.8594" style="stroke:#181818;stroke-width:1.0;"/><!--SRC=[hLNBRjj03BptAtYK0US76g10u3PjVUZ3pgtjWT3IqYRQHoagJL7utykr7h5YsKsCxaKIoI5cPuSh0828B5PiyB1SV_u4xnw4CPV0yESLTAkEbPNXw-9RQOqX_-FYpH2BcDzXGU3G-ZrWMWM79kuIsUn9AgtN1GdamMzi0HiE3ZQseil3ilTQ5ZcO9YU6clXU7qrjVT61Zq0qMJVkHP3brnj6Nsy2kty3rgBomLMCXpb3Wdav2cydbD7zBtRThtNtrxhvBAAKDw4Dpg1zJYct8ZJFaMvDUiOerDTQBs7Gicq__-vxfRe0tFxSas5nRFyhaeRzKNrEQh0T6momK9CyosRBVMwJVbDLH-UOBG-tCuDiL3C7OWuywT85KrBmHTxej1bXphR9Elbtp7VMyfsYIoxARoW2A5Qi9v0ITHZGvrJLeBEEYRRGWvnDI4TbHJdP-oJkc5RM9qufsgdJbvxDuygOQHxpeVS9eHGzb86EnVyvh0_eJKKVTQQSEkGj2ZwbfZT62fzWrbt4xQrijBQTyGuuUCz57NgZq_g5Gy7eBezwjqV-ib82jTqLkMkjVFMYSR6Yz2TewVFaLQA5VIEL2tL2pRbd-FYMkZx-PBP_0G00]--></g></svg>