<?xml version="1.0" encoding="UTF-8" standalone="no"?>
<!DOCTYPE svg PUBLIC "-//W3C//DTD SVG 1.1//EN"
 "http://www.w3.org/Graphics/SVG/1.1/DTD/svg11.dtd">
<!-- Generated by graphviz version 2.43.0 (0)
 -->
<!-- Title: G Pages: 1 -->
<svg width="343pt" height="206pt"
 viewBox="0.00 0.00 342.78 205.74" xmlns="http://www.w3.org/2000/svg" xmlns:xlink="http://www.w3.org/1999/xlink">
<g id="graph0" class="graph" transform="scale(1 1) rotate(0) translate(4 201.74)">
<title>G</title>
<polygon fill="white" stroke="transparent" points="-4,4 -4,-201.74 338.78,-201.74 338.78,4 -4,4"/>
<!-- JQTransformer -->
<g id="node1" class="node">
<title>JQTransformer</title>
<path fill="none" stroke="black" d="M110,-116.87C110,-116.87 12,-116.87 12,-116.87 6,-116.87 0,-110.87 0,-104.87 0,-104.87 0,-92.87 0,-92.87 0,-86.87 6,-80.87 12,-80.87 12,-80.87 110,-80.87 110,-80.87 116,-80.87 122,-86.87 122,-92.87 122,-92.87 122,-104.87 122,-104.87 122,-110.87 116,-116.87 110,-116.87"/>
<text text-anchor="middle" x="61" y="-95.17" font-family="Times,serif" font-size="14.00">JQTransformer</text>
</g>
<!-- JQTransformer.\nAddPushable -->
<g id="node2" class="node">
<title>JQTransformer.\nAddPushable</title>
<ellipse fill="none" stroke="black" cx="246.39" cy="-170.87" rx="88.28" ry="26.74"/>
<text text-anchor="middle" x="246.39" y="-174.67" font-family="Times,serif" font-size="14.00">JQTransformer.</text>
<text text-anchor="middle" x="246.39" y="-159.67" font-family="Times,serif" font-size="14.00">AddPushable</text>
</g>
<!-- JQTransformer&#45;&gt;JQTransformer.\nAddPushable -->
<g id="edge1" class="edge">
<title>JQTransformer&#45;&gt;JQTransformer.\nAddPushable</title>
<path fill="none" stroke="black" d="M108.28,-117.04C130.66,-125.83 157.89,-136.52 182.15,-146.04"/>
<polygon fill="black" stroke="black" points="181.06,-149.37 191.64,-149.77 183.61,-142.86 181.06,-149.37"/>
</g>
<!-- JQTransformer.\nSendTo -->
<g id="node3" class="node">
<title>JQTransformer.\nSendTo</title>
<ellipse fill="none" stroke="black" cx="246.39" cy="-98.87" rx="88.28" ry="26.74"/>
<text text-anchor="middle" x="246.39" y="-102.67" font-family="Times,serif" font-size="14.00">JQTransformer.</text>
<text text-anchor="middle" x="246.39" y="-87.67" font-family="Times,serif" font-size="14.00">SendTo</text>
</g>
<!-- JQTransformer&#45;&gt;JQTransformer.\nSendTo -->
<g id="edge2" class="edge">
<title>JQTransformer&#45;&gt;JQTransformer.\nSendTo</title>
<path fill="none" stroke="black" d="M122.05,-98.87C130.31,-98.87 138.96,-98.87 147.68,-98.87"/>
<polygon fill="black" stroke="black" points="147.93,-102.37 157.93,-98.87 147.93,-95.37 147.93,-102.37"/>
</g>
<!-- JQTransformer.\nServe -->
<g id="node4" class="node">
<title>JQTransformer.\nServe</title>
<ellipse fill="none" stroke="black" cx="246.39" cy="-26.87" rx="88.28" ry="26.74"/>
<text text-anchor="middle" x="246.39" y="-30.67" font-family="Times,serif" font-size="14.00">JQTransformer.</text>
<text text-anchor="middle" x="246.39" y="-15.67" font-family="Times,serif" font-size="14.00">Serve</text>
</g>
<!-- JQTransformer&#45;&gt;JQTransformer.\nServe -->
<g id="edge3" class="edge">
<title>JQTransformer&#45;&gt;JQTransformer.\nServe</title>
<path fill="none" stroke="black" d="M108.28,-80.7C130.66,-71.91 157.89,-61.22 182.15,-51.7"/>
<polygon fill="black" stroke="black" points="183.61,-54.88 191.64,-47.97 181.06,-48.37 183.61,-54.88"/>
</g>
</g>
</svg>
