<?xml version="1.0" encoding="UTF-8" standalone="no"?>
<!DOCTYPE svg PUBLIC "-//W3C//DTD SVG 1.1//EN"
 "http://www.w3.org/Graphics/SVG/1.1/DTD/svg11.dtd">
<!-- Generated by graphviz version 2.43.0 (0)
 -->
<!-- Title: G Pages: 1 -->
<svg width="554pt" height="278pt"
 viewBox="0.00 0.00 554.14 277.74" xmlns="http://www.w3.org/2000/svg" xmlns:xlink="http://www.w3.org/1999/xlink">
<g id="graph0" class="graph" transform="scale(1 1) rotate(0) translate(4 273.74)">
<title>G</title>
<polygon fill="white" stroke="transparent" points="-4,4 -4,-273.74 550.14,-273.74 550.14,4 -4,4"/>
<!-- JQTransformer -->
<g id="node1" class="node">
<title>JQTransformer</title>
<path fill="none" stroke="black" d="M110,-152.87C110,-152.87 12,-152.87 12,-152.87 6,-152.87 0,-146.87 0,-140.87 0,-140.87 0,-128.87 0,-128.87 0,-122.87 6,-116.87 12,-116.87 12,-116.87 110,-116.87 110,-116.87 116,-116.87 122,-122.87 122,-128.87 122,-128.87 122,-140.87 122,-140.87 122,-146.87 116,-152.87 110,-152.87"/>
<text text-anchor="middle" x="61" y="-131.17" font-family="Times,serif" font-size="14.00">JQTransformer</text>
</g>
<!-- JQTransformer.\nAddReceiver -->
<g id="node2" class="node">
<title>JQTransformer.\nAddReceiver</title>
<ellipse fill="none" stroke="black" cx="276.09" cy="-242.87" rx="88.28" ry="26.74"/>
<text text-anchor="middle" x="276.09" y="-246.67" font-family="Times,serif" font-size="14.00">JQTransformer.</text>
<text text-anchor="middle" x="276.09" y="-231.67" font-family="Times,serif" font-size="14.00">AddReceiver</text>
</g>
<!-- JQTransformer&#45;&gt;JQTransformer.\nAddReceiver -->
<g id="edge1" class="edge">
<title>JQTransformer&#45;&gt;JQTransformer.\nAddReceiver</title>
<path fill="none" stroke="black" d="M81.96,-153.12C100.48,-169.22 129.41,-192.31 158,-206.87 170.2,-213.08 183.67,-218.45 197,-222.99"/>
<polygon fill="black" stroke="black" points="196.06,-226.37 206.66,-226.16 198.24,-219.72 196.06,-226.37"/>
</g>
<!-- JQTransformer.\nGetReceiver -->
<g id="node3" class="node">
<title>JQTransformer.\nGetReceiver</title>
<ellipse fill="none" stroke="black" cx="276.09" cy="-170.87" rx="88.28" ry="26.74"/>
<text text-anchor="middle" x="276.09" y="-174.67" font-family="Times,serif" font-size="14.00">JQTransformer.</text>
<text text-anchor="middle" x="276.09" y="-159.67" font-family="Times,serif" font-size="14.00">GetReceiver</text>
</g>
<!-- JQTransformer&#45;&gt;JQTransformer.\nGetReceiver -->
<g id="edge2" class="edge">
<title>JQTransformer&#45;&gt;JQTransformer.\nGetReceiver</title>
<path fill="none" stroke="black" d="M122.21,-145.04C142.7,-148.5 166.03,-152.45 188.19,-156.19"/>
<polygon fill="black" stroke="black" points="187.83,-159.68 198.27,-157.89 188.99,-152.78 187.83,-159.68"/>
</g>
<!-- JQTransformer.\nHandleIncomingData -->
<g id="node4" class="node">
<title>JQTransformer.\nHandleIncomingData</title>
<ellipse fill="none" stroke="black" cx="276.09" cy="-98.87" rx="118.17" ry="26.74"/>
<text text-anchor="middle" x="276.09" y="-102.67" font-family="Times,serif" font-size="14.00">JQTransformer.</text>
<text text-anchor="middle" x="276.09" y="-87.67" font-family="Times,serif" font-size="14.00">HandleIncomingData</text>
</g>
<!-- JQTransformer&#45;&gt;JQTransformer.\nHandleIncomingData -->
<g id="edge3" class="edge">
<title>JQTransformer&#45;&gt;JQTransformer.\nHandleIncomingData</title>
<path fill="none" stroke="black" d="M122.21,-124.7C137.29,-122.15 153.91,-119.34 170.47,-116.54"/>
<polygon fill="black" stroke="black" points="171.49,-119.92 180.76,-114.81 170.32,-113.02 171.49,-119.92"/>
</g>
<!-- JQTransformer.\nServe -->
<g id="node5" class="node">
<title>JQTransformer.\nServe</title>
<ellipse fill="none" stroke="black" cx="276.09" cy="-26.87" rx="88.28" ry="26.74"/>
<text text-anchor="middle" x="276.09" y="-30.67" font-family="Times,serif" font-size="14.00">JQTransformer.</text>
<text text-anchor="middle" x="276.09" y="-15.67" font-family="Times,serif" font-size="14.00">Serve</text>
</g>
<!-- JQTransformer&#45;&gt;JQTransformer.\nServe -->
<g id="edge4" class="edge">
<title>JQTransformer&#45;&gt;JQTransformer.\nServe</title>
<path fill="none" stroke="black" d="M81.96,-116.62C100.48,-100.52 129.41,-77.43 158,-62.87 170.2,-56.66 183.67,-51.3 197,-46.75"/>
<polygon fill="black" stroke="black" points="198.24,-50.02 206.66,-43.58 196.06,-43.37 198.24,-50.02"/>
</g>
<!-- Receiver.\nSendTo -->
<g id="node6" class="node">
<title>Receiver.\nSendTo</title>
<ellipse fill="none" stroke="black" cx="488.16" cy="-134.87" rx="57.97" ry="26.74"/>
<text text-anchor="middle" x="488.16" y="-138.67" font-family="Times,serif" font-size="14.00">Receiver.</text>
<text text-anchor="middle" x="488.16" y="-123.67" font-family="Times,serif" font-size="14.00">SendTo</text>
</g>
<!-- JQTransformer.\nHandleIncomingData&#45;&gt;Receiver.\nSendTo -->
<g id="edge5" class="edge">
<title>JQTransformer.\nHandleIncomingData&#45;&gt;Receiver.\nSendTo</title>
<path fill="none" stroke="black" d="M371.06,-114.97C388.79,-118.01 406.95,-121.12 423.48,-123.96"/>
<polygon fill="black" stroke="black" points="423.1,-127.44 433.54,-125.68 424.28,-120.54 423.1,-127.44"/>
</g>
<!-- Code.\nRun -->
<g id="node7" class="node">
<title>Code.\nRun</title>
<ellipse fill="none" stroke="black" cx="488.16" cy="-62.87" rx="40.11" ry="26.74"/>
<text text-anchor="middle" x="488.16" y="-66.67" font-family="Times,serif" font-size="14.00">Code.</text>
<text text-anchor="middle" x="488.16" y="-51.67" font-family="Times,serif" font-size="14.00">Run</text>
</g>
<!-- JQTransformer.\nHandleIncomingData&#45;&gt;Code.\nRun -->
<g id="edge6" class="edge">
<title>JQTransformer.\nHandleIncomingData&#45;&gt;Code.\nRun</title>
<path fill="none" stroke="black" d="M371.06,-82.77C394.61,-78.73 418.91,-74.57 439.16,-71.1"/>
<polygon fill="black" stroke="black" points="439.78,-74.54 449.05,-69.4 438.6,-67.64 439.78,-74.54"/>
</g>
</g>
</svg>
