<?xml version="1.0" encoding="us-ascii" standalone="no"?><svg xmlns="http://www.w3.org/2000/svg" xmlns:xlink="http://www.w3.org/1999/xlink" contentStyleType="text/css" height="303px" preserveAspectRatio="none" style="width:1339px;height:303px;background:#FFFFFF;" version="1.1" viewBox="0 0 1339 303" width="1339px" zoomAndPan="magnify"><defs/><g><!--cluster ConsumerServer--><g id="cluster_ConsumerServer"><rect fill="none" height="132" rx="2.5" ry="2.5" style="stroke:#181818;stroke-width:1.0;" width="246" x="7" y="65"/><rect fill="none" height="10" style="stroke:#181818;stroke-width:1.0;" width="15" x="233" y="70"/><rect fill="none" height="2" style="stroke:#181818;stroke-width:1.0;" width="4" x="231" y="72"/><rect fill="none" height="2" style="stroke:#181818;stroke-width:1.0;" width="4" x="231" y="76"/><text fill="#000000" font-family="sans-serif" font-size="14" font-weight="bold" lengthAdjust="spacing" textLength="134" x="63" y="90.9951">ConsumerServer</text></g><!--cluster JQTransformer--><g id="cluster_JQTransformer"><rect fill="none" height="132" rx="2.5" ry="2.5" style="stroke:#181818;stroke-width:1.0;" width="255" x="585" y="7"/><rect fill="none" height="10" style="stroke:#181818;stroke-width:1.0;" width="15" x="820" y="12"/><rect fill="none" height="2" style="stroke:#181818;stroke-width:1.0;" width="4" x="818" y="14"/><rect fill="none" height="2" style="stroke:#181818;stroke-width:1.0;" width="4" x="818" y="18"/><text fill="#000000" font-family="sans-serif" font-size="14" font-weight="bold" lengthAdjust="spacing" textLength="115" x="655" y="32.9951">JQTransformer</text></g><!--entity JQTransformerReceiver--><g id="elem_JQTransformerReceiver"><rect fill="#F1F1F1" height="46.2969" rx="2.5" ry="2.5" style="stroke:#181818;stroke-width:0.5;" width="198" x="31" y="108"/><rect fill="#F1F1F1" height="10" style="stroke:#181818;stroke-width:0.5;" width="15" x="209" y="113"/><rect fill="#F1F1F1" height="2" style="stroke:#181818;stroke-width:0.5;" width="4" x="207" y="115"/><rect fill="#F1F1F1" height="2" style="stroke:#181818;stroke-width:0.5;" width="4" x="207" y="119"/><text fill="#000000" font-family="sans-serif" font-size="14" lengthAdjust="spacing" textLength="158" x="46" y="140.9951">JQTransformerReceiver</text></g><!--entity ProducerServerReceiver--><g id="elem_ProducerServerReceiver"><rect fill="#F1F1F1" height="46.2969" rx="2.5" ry="2.5" style="stroke:#181818;stroke-width:0.5;" width="207" x="609" y="50"/><rect fill="#F1F1F1" height="10" style="stroke:#181818;stroke-width:0.5;" width="15" x="796" y="55"/><rect fill="#F1F1F1" height="2" style="stroke:#181818;stroke-width:0.5;" width="4" x="794" y="57"/><rect fill="#F1F1F1" height="2" style="stroke:#181818;stroke-width:0.5;" width="4" x="794" y="61"/><text fill="#000000" font-family="sans-serif" font-size="14" lengthAdjust="spacing" textLength="167" x="624" y="82.9951">ProducerServerReceiver</text></g><!--entity ProducerServer--><g id="elem_ProducerServer"><rect fill="#F1F1F1" height="46.2969" rx="2.5" ry="2.5" style="stroke:#181818;stroke-width:0.5;" width="147" x="1186" y="50"/><rect fill="#F1F1F1" height="10" style="stroke:#181818;stroke-width:0.5;" width="15" x="1313" y="55"/><rect fill="#F1F1F1" height="2" style="stroke:#181818;stroke-width:0.5;" width="4" x="1311" y="57"/><rect fill="#F1F1F1" height="2" style="stroke:#181818;stroke-width:0.5;" width="4" x="1311" y="61"/><text fill="#000000" font-family="sans-serif" font-size="14" lengthAdjust="spacing" textLength="107" x="1201" y="82.9951">ProducerServer</text></g><!--entity JQTransformerChannel--><g id="elem_JQTransformerChannel"><ellipse cx="416" cy="131" fill="#F1F1F1" rx="8" ry="8" style="stroke:#181818;stroke-width:0.5;"/><text fill="#000000" font-family="sans-serif" font-size="14" lengthAdjust="spacing" textLength="98" x="367" y="160.9951">JQTransformer</text><text fill="#000000" font-family="sans-serif" font-size="14" lengthAdjust="spacing" textLength="97" x="367" y="177.292">Send Channel</text></g><!--entity ProducerServerChannel--><g id="elem_ProducerServerChannel"><ellipse cx="1007" cy="73" fill="#F1F1F1" rx="8" ry="8" style="stroke:#181818;stroke-width:0.5;"/><text fill="#000000" font-family="sans-serif" font-size="14" lengthAdjust="spacing" textLength="107" x="953.5" y="102.9951">ProducerServer</text><text fill="#000000" font-family="sans-serif" font-size="14" lengthAdjust="spacing" textLength="97" x="953.5" y="119.292">Send Channel</text></g><!--entity ConsumptionLocation--><g id="elem_ConsumptionLocation"><ellipse cx="130" cy="265" fill="#F1F1F1" rx="8" ry="8" style="stroke:#181818;stroke-width:0.5;"/><text fill="#000000" font-family="sans-serif" font-size="14" lengthAdjust="spacing" textLength="155" x="52.5" y="294.9951">Consumption Location</text></g><!--entity ProductionLocation--><g id="elem_ProductionLocation"><ellipse cx="1259.5" cy="172" fill="#F1F1F1" rx="8" ry="8" style="stroke:#181818;stroke-width:0.5;"/><text fill="#000000" font-family="sans-serif" font-size="14" lengthAdjust="spacing" textLength="137" x="1191" y="201.9951">Production Location</text></g><!--link JQTransformerReceiver to JQTransformerChannel--><g id="link_JQTransformerReceiver_JQTransformerChannel"><path d="M229.13,131 C297.43,131 380.75,131 406.81,131 " fill="none" id="JQTransformerReceiver-JQTransformerChannel" style="stroke:#181818;stroke-width:1.0;"/><text fill="#000000" font-family="sans-serif" font-size="13" lengthAdjust="spacing" textLength="48" x="279" y="112.0669">Push to</text><text fill="#000000" font-family="sans-serif" font-size="13" lengthAdjust="spacing" textLength="50" x="278" y="127.1997">channel</text></g><!--link ProducerServerReceiver to ProducerServerChannel--><g id="link_ProducerServerReceiver_ProducerServerChannel"><path d="M816.21,73 C886.34,73 971.16,73 997.67,73 " fill="none" id="ProducerServerReceiver-ProducerServerChannel" style="stroke:#181818;stroke-width:1.0;"/><text fill="#000000" font-family="sans-serif" font-size="13" lengthAdjust="spacing" textLength="48" x="866" y="54.0669">Push to</text><text fill="#000000" font-family="sans-serif" font-size="13" lengthAdjust="spacing" textLength="50" x="865" y="69.1997">channel</text></g><!--reverse link JQTransformerChannel to JQTransformer--><g id="link_JQTransformerChannel_JQTransformer"><path d="M435.18,131 C458.78,131 519.43,131 584.64,131 " fill="none" id="JQTransformerChannel-backto-JQTransformer" style="stroke:#181818;stroke-width:1.0;"/><path d="M428.2582,139.4572 A9,9 0 0 0 428.2582 122.5428" fill="none" style="stroke:#181818;stroke-width:1.5;"/><text fill="#000000" font-family="sans-serif" font-size="13" lengthAdjust="spacing" textLength="56" x="504" y="112.0669">Pull from</text><text fill="#000000" font-family="sans-serif" font-size="13" lengthAdjust="spacing" textLength="50" x="507" y="127.1997">channel</text></g><!--reverse link ProducerServerChannel to ProducerServer--><g id="link_ProducerServerChannel_ProducerServer"><path d="M1026.05,73 C1051.84,73 1124.34,73 1185.99,73 " fill="none" id="ProducerServerChannel-backto-ProducerServer" style="stroke:#181818;stroke-width:1.0;"/><path d="M1019.1282,81.4572 A9,9 0 0 0 1019.1282 64.5428" fill="none" style="stroke:#181818;stroke-width:1.5;"/><text fill="#000000" font-family="sans-serif" font-size="13" lengthAdjust="spacing" textLength="56" x="1099" y="54.0669">Pull from</text><text fill="#000000" font-family="sans-serif" font-size="13" lengthAdjust="spacing" textLength="50" x="1102" y="69.1997">channel</text></g><!--link ConsumptionLocation to ConsumerServer--><g id="link_ConsumptionLocation_ConsumerServer"><path d="M130,255.98 C130,246.545 130,231.2375 130,217.6363 C130,210.8356 130,204.4616 130,199.4614 C130,198.8364 130,198.2328 130,197.6526 C130,197.5075 130,197.3639 130,197.2218 C130,197.1508 130,197.0801 130,197.0098 " fill="none" id="ConsumptionLocation-ConsumerServer" style="stroke:#181818;stroke-width:1.0;"/><text fill="#000000" font-family="sans-serif" font-size="13" lengthAdjust="spacing" textLength="95" x="63.5" y="219.7469">Consume from</text><text fill="#000000" font-family="sans-serif" font-size="13" lengthAdjust="spacing" textLength="41" x="90.5" y="234.8797">broker</text></g><!--link ProducerServer to ProductionLocation--><g id="link_ProducerServer_ProductionLocation"><path d="M1259.5,96.18 C1259.5,117.44 1259.5,147.83 1259.5,162.86 " fill="none" id="ProducerServer-ProductionLocation" style="stroke:#181818;stroke-width:1.0;"/><text fill="#000000" font-family="sans-serif" font-size="13" lengthAdjust="spacing" textLength="69" x="1206" y="126.5669">Produce to</text><text fill="#000000" font-family="sans-serif" font-size="13" lengthAdjust="spacing" textLength="41" x="1220" y="141.6997">broker</text></g><!--SRC=[TP8xSiCm34HxdWBZBWKlaDPT9eKJftJ3K5342GLu82efFBvxg5-i3wHAG-m-W4j4B1Ca1WbVLO8Y2FeKc8pd-ig4bE38rBGroXdb1mLk1lBtAB-yVOYZfcJ9cdVq6BBAtCsEOkC_2HUjd_0pGA24KZgFS5WGBdH6Ak1OEIAC1t3DiiDOC7ijyWGB-BAgq9U22JyZ30bTkzpWbRthVdhdh32TRpjlRO_pVvUQCjY2VycgruTdEBLDbP_sGduSMOzwegZNr31gkoTjbjuT8vJ2zTuOQy3giLI2MUsaZNcBhHPtze_Q4V4f_9qTgo70zljlbUYx2GPj7yBW_mC0]--></g></svg>