<?xml version="1.0" encoding="UTF-8" standalone="no"?>
<!DOCTYPE svg PUBLIC "-//W3C//DTD SVG 1.1//EN"
 "http://www.w3.org/Graphics/SVG/1.1/DTD/svg11.dtd">
<!-- Generated by graphviz version 2.43.0 (0)
 -->
<!-- Title: G Pages: 1 -->
<svg width="618pt" height="206pt"
 viewBox="0.00 0.00 618.12 205.74" xmlns="http://www.w3.org/2000/svg" xmlns:xlink="http://www.w3.org/1999/xlink">
<g id="graph0" class="graph" transform="scale(1 1) rotate(0) translate(4 201.74)">
<title>G</title>
<polygon fill="white" stroke="transparent" points="-4,4 -4,-201.74 614.12,-201.74 614.12,4 -4,4"/>
<!-- MapSinkServer -->
<g id="node1" class="node">
<title>MapSinkServer</title>
<path fill="none" stroke="black" d="M116,-80.87C116,-80.87 12,-80.87 12,-80.87 6,-80.87 0,-74.87 0,-68.87 0,-68.87 0,-56.87 0,-56.87 0,-50.87 6,-44.87 12,-44.87 12,-44.87 116,-44.87 116,-44.87 122,-44.87 128,-50.87 128,-56.87 128,-56.87 128,-68.87 128,-68.87 128,-74.87 122,-80.87 116,-80.87"/>
<text text-anchor="middle" x="64" y="-59.17" font-family="Times,serif" font-size="14.00">MapSinkServer</text>
</g>
<!-- MapSinkServer.\nSendTo -->
<g id="node2" class="node">
<title>MapSinkServer.\nSendTo</title>
<ellipse fill="none" stroke="black" cx="256.63" cy="-98.87" rx="92.76" ry="26.74"/>
<text text-anchor="middle" x="256.63" y="-102.67" font-family="Times,serif" font-size="14.00">MapSinkServer.</text>
<text text-anchor="middle" x="256.63" y="-87.67" font-family="Times,serif" font-size="14.00">SendTo</text>
</g>
<!-- MapSinkServer&#45;&gt;MapSinkServer.\nSendTo -->
<g id="edge1" class="edge">
<title>MapSinkServer&#45;&gt;MapSinkServer.\nSendTo</title>
<path fill="none" stroke="black" d="M128.21,-74.81C141.21,-77.26 155.1,-79.89 168.77,-82.47"/>
<polygon fill="black" stroke="black" points="168.18,-85.92 178.66,-84.33 169.48,-79.04 168.18,-85.92"/>
</g>
<!-- MapSinkServer.\nServe -->
<g id="node5" class="node">
<title>MapSinkServer.\nServe</title>
<ellipse fill="none" stroke="black" cx="256.63" cy="-26.87" rx="92.76" ry="26.74"/>
<text text-anchor="middle" x="256.63" y="-30.67" font-family="Times,serif" font-size="14.00">MapSinkServer.</text>
<text text-anchor="middle" x="256.63" y="-15.67" font-family="Times,serif" font-size="14.00">Serve</text>
</g>
<!-- MapSinkServer&#45;&gt;MapSinkServer.\nServe -->
<g id="edge4" class="edge">
<title>MapSinkServer&#45;&gt;MapSinkServer.\nServe</title>
<path fill="none" stroke="black" d="M128.21,-50.93C141.21,-48.48 155.1,-45.85 168.77,-43.27"/>
<polygon fill="black" stroke="black" points="169.48,-46.7 178.66,-41.41 168.18,-39.82 169.48,-46.7"/>
</g>
<!-- SinkServer.\nSendTo -->
<g id="node3" class="node">
<title>SinkServer.\nSendTo</title>
<ellipse fill="none" stroke="black" cx="497.69" cy="-170.87" rx="70.01" ry="26.74"/>
<text text-anchor="middle" x="497.69" y="-174.67" font-family="Times,serif" font-size="14.00">SinkServer.</text>
<text text-anchor="middle" x="497.69" y="-159.67" font-family="Times,serif" font-size="14.00">SendTo</text>
</g>
<!-- MapSinkServer.\nSendTo&#45;&gt;SinkServer.\nSendTo -->
<g id="edge2" class="edge">
<title>MapSinkServer.\nSendTo&#45;&gt;SinkServer.\nSendTo</title>
<path fill="none" stroke="black" d="M321.69,-118.16C355.93,-128.48 397.98,-141.14 432.27,-151.47"/>
<polygon fill="black" stroke="black" points="431.6,-154.92 442.18,-154.45 433.62,-148.22 431.6,-154.92"/>
</g>
<!-- CompletionHandler.\nComplete -->
<g id="node4" class="node">
<title>CompletionHandler.\nComplete</title>
<ellipse fill="none" stroke="black" cx="497.69" cy="-98.87" rx="112.36" ry="26.74"/>
<text text-anchor="middle" x="497.69" y="-102.67" font-family="Times,serif" font-size="14.00">CompletionHandler.</text>
<text text-anchor="middle" x="497.69" y="-87.67" font-family="Times,serif" font-size="14.00">Complete</text>
</g>
<!-- MapSinkServer.\nSendTo&#45;&gt;CompletionHandler.\nComplete -->
<g id="edge3" class="edge">
<title>MapSinkServer.\nSendTo&#45;&gt;CompletionHandler.\nComplete</title>
<path fill="none" stroke="black" d="M349.37,-98.87C357.8,-98.87 366.42,-98.87 375.05,-98.87"/>
<polygon fill="black" stroke="black" points="375.18,-102.37 385.18,-98.87 375.18,-95.37 375.18,-102.37"/>
</g>
<!-- SinkServer.\nServe -->
<g id="node6" class="node">
<title>SinkServer.\nServe</title>
<ellipse fill="none" stroke="black" cx="497.69" cy="-26.87" rx="70.01" ry="26.74"/>
<text text-anchor="middle" x="497.69" y="-30.67" font-family="Times,serif" font-size="14.00">SinkServer.</text>
<text text-anchor="middle" x="497.69" y="-15.67" font-family="Times,serif" font-size="14.00">Serve</text>
</g>
<!-- MapSinkServer.\nServe&#45;&gt;SinkServer.\nServe -->
<g id="edge5" class="edge">
<title>MapSinkServer.\nServe&#45;&gt;SinkServer.\nServe</title>
<path fill="none" stroke="black" d="M349.37,-26.87C371.77,-26.87 395.54,-26.87 417.3,-26.87"/>
<polygon fill="black" stroke="black" points="417.48,-30.37 427.48,-26.87 417.48,-23.37 417.48,-30.37"/>
</g>
</g>
</svg>
