<?xml version="1.0" encoding="UTF-8" standalone="no"?>
<!DOCTYPE svg PUBLIC "-//W3C//DTD SVG 1.1//EN"
 "http://www.w3.org/Graphics/SVG/1.1/DTD/svg11.dtd">
<!-- Generated by graphviz version 2.43.0 (0)
 -->
<!-- Title: G Pages: 1 -->
<svg width="341pt" height="350pt"
 viewBox="0.00 0.00 340.75 349.74" xmlns="http://www.w3.org/2000/svg" xmlns:xlink="http://www.w3.org/1999/xlink">
<g id="graph0" class="graph" transform="scale(1 1) rotate(0) translate(4 345.74)">
<title>G</title>
<polygon fill="white" stroke="transparent" points="-4,4 -4,-345.74 336.75,-345.74 336.75,4 -4,4"/>
<!-- RunServers -->
<g id="node1" class="node">
<title>RunServers</title>
<ellipse fill="none" stroke="black" cx="65.64" cy="-170.87" rx="65.79" ry="18"/>
<text text-anchor="middle" x="65.64" y="-167.17" font-family="Times,serif" font-size="14.00">RunServers</text>
</g>
<!-- SourceServer.\nAddPushable -->
<g id="node2" class="node">
<title>SourceServer.\nAddPushable</title>
<ellipse fill="none" stroke="black" cx="250.02" cy="-314.87" rx="82.96" ry="26.74"/>
<text text-anchor="middle" x="250.02" y="-318.67" font-family="Times,serif" font-size="14.00">SourceServer.</text>
<text text-anchor="middle" x="250.02" y="-303.67" font-family="Times,serif" font-size="14.00">AddPushable</text>
</g>
<!-- RunServers&#45;&gt;SourceServer.\nAddPushable -->
<g id="edge1" class="edge">
<title>RunServers&#45;&gt;SourceServer.\nAddPushable</title>
<path fill="none" stroke="black" d="M79.51,-188.66C97.12,-211.96 130.73,-252.89 167.29,-278.87 172.89,-282.85 179.01,-286.54 185.29,-289.9"/>
<polygon fill="black" stroke="black" points="184.07,-293.21 194.57,-294.61 187.23,-286.97 184.07,-293.21"/>
</g>
<!-- PipeServer.\nAddPushable -->
<g id="node3" class="node">
<title>PipeServer.\nAddPushable</title>
<ellipse fill="none" stroke="black" cx="250.02" cy="-242.87" rx="77.56" ry="26.74"/>
<text text-anchor="middle" x="250.02" y="-246.67" font-family="Times,serif" font-size="14.00">PipeServer.</text>
<text text-anchor="middle" x="250.02" y="-231.67" font-family="Times,serif" font-size="14.00">AddPushable</text>
</g>
<!-- RunServers&#45;&gt;PipeServer.\nAddPushable -->
<g id="edge2" class="edge">
<title>RunServers&#45;&gt;PipeServer.\nAddPushable</title>
<path fill="none" stroke="black" d="M103.99,-185.61C128.23,-195.18 160.37,-207.87 188.24,-218.87"/>
<polygon fill="black" stroke="black" points="187.31,-222.27 197.9,-222.69 189.88,-215.76 187.31,-222.27"/>
</g>
<!-- SinkServer.\nServe -->
<g id="node4" class="node">
<title>SinkServer.\nServe</title>
<ellipse fill="none" stroke="black" cx="250.02" cy="-170.87" rx="70.01" ry="26.74"/>
<text text-anchor="middle" x="250.02" y="-174.67" font-family="Times,serif" font-size="14.00">SinkServer.</text>
<text text-anchor="middle" x="250.02" y="-159.67" font-family="Times,serif" font-size="14.00">Serve</text>
</g>
<!-- RunServers&#45;&gt;SinkServer.\nServe -->
<g id="edge3" class="edge">
<title>RunServers&#45;&gt;SinkServer.\nServe</title>
<path fill="none" stroke="black" d="M131.46,-170.87C143.82,-170.87 156.88,-170.87 169.64,-170.87"/>
<polygon fill="black" stroke="black" points="169.78,-174.37 179.78,-170.87 169.78,-167.37 169.78,-174.37"/>
</g>
<!-- PipeServer.\nServe -->
<g id="node5" class="node">
<title>PipeServer.\nServe</title>
<ellipse fill="none" stroke="black" cx="250.02" cy="-98.87" rx="70.01" ry="26.74"/>
<text text-anchor="middle" x="250.02" y="-102.67" font-family="Times,serif" font-size="14.00">PipeServer.</text>
<text text-anchor="middle" x="250.02" y="-87.67" font-family="Times,serif" font-size="14.00">Serve</text>
</g>
<!-- RunServers&#45;&gt;PipeServer.\nServe -->
<g id="edge4" class="edge">
<title>RunServers&#45;&gt;PipeServer.\nServe</title>
<path fill="none" stroke="black" d="M103.99,-156.13C129.08,-146.22 162.65,-132.97 191.17,-121.71"/>
<polygon fill="black" stroke="black" points="192.61,-124.9 200.63,-117.97 190.04,-118.39 192.61,-124.9"/>
</g>
<!-- SourceServer.\nServe -->
<g id="node6" class="node">
<title>SourceServer.\nServe</title>
<ellipse fill="none" stroke="black" cx="250.02" cy="-26.87" rx="82.96" ry="26.74"/>
<text text-anchor="middle" x="250.02" y="-30.67" font-family="Times,serif" font-size="14.00">SourceServer.</text>
<text text-anchor="middle" x="250.02" y="-15.67" font-family="Times,serif" font-size="14.00">Serve</text>
</g>
<!-- RunServers&#45;&gt;SourceServer.\nServe -->
<g id="edge5" class="edge">
<title>RunServers&#45;&gt;SourceServer.\nServe</title>
<path fill="none" stroke="black" d="M79.51,-153.08C97.12,-129.78 130.73,-88.85 167.29,-62.87 172.89,-58.89 179.01,-55.2 185.29,-51.84"/>
<polygon fill="black" stroke="black" points="187.23,-54.78 194.57,-47.13 184.07,-48.53 187.23,-54.78"/>
</g>
</g>
</svg>
