<?xml version="1.0" encoding="UTF-8" standalone="no"?>
<!DOCTYPE svg PUBLIC "-//W3C//DTD SVG 1.1//EN"
 "http://www.w3.org/Graphics/SVG/1.1/DTD/svg11.dtd">
<!-- Generated by graphviz version 2.43.0 (0)
 -->
<!-- Title: G Pages: 1 -->
<svg width="735pt" height="341pt"
 viewBox="0.00 0.00 734.74 340.74" xmlns="http://www.w3.org/2000/svg" xmlns:xlink="http://www.w3.org/1999/xlink">
<g id="graph0" class="graph" transform="scale(1 1) rotate(0) translate(4 336.74)">
<title>G</title>
<polygon fill="white" stroke="transparent" points="-4,4 -4,-336.74 730.74,-336.74 730.74,4 -4,4"/>
<!-- RunServers -->
<g id="node1" class="node">
<title>RunServers</title>
<ellipse fill="none" stroke="black" cx="65.64" cy="-161.87" rx="65.79" ry="18"/>
<text text-anchor="middle" x="65.64" y="-158.17" font-family="Times,serif" font-size="14.00">RunServers</text>
</g>
<!-- PipeServer.\nGetRecevier -->
<g id="node2" class="node">
<title>PipeServer.\nGetRecevier</title>
<ellipse fill="none" stroke="black" cx="310.93" cy="-305.87" rx="73.58" ry="26.74"/>
<text text-anchor="middle" x="310.93" y="-309.67" font-family="Times,serif" font-size="14.00">PipeServer.</text>
<text text-anchor="middle" x="310.93" y="-294.67" font-family="Times,serif" font-size="14.00">GetRecevier</text>
</g>
<!-- RunServers&#45;&gt;PipeServer.\nGetRecevier -->
<g id="edge1" class="edge">
<title>RunServers&#45;&gt;PipeServer.\nGetRecevier</title>
<path fill="none" stroke="black" d="M78.33,-179.78C95.08,-203.99 128.24,-246.78 167.29,-269.87 186.73,-281.37 209.77,-289.22 231.6,-294.57"/>
<polygon fill="black" stroke="black" points="230.99,-298.02 241.52,-296.85 232.56,-291.2 230.99,-298.02"/>
</g>
<!-- SinkServer.\nGetRecevier -->
<g id="node3" class="node">
<title>SinkServer.\nGetRecevier</title>
<ellipse fill="none" stroke="black" cx="310.93" cy="-233.87" rx="73.58" ry="26.74"/>
<text text-anchor="middle" x="310.93" y="-237.67" font-family="Times,serif" font-size="14.00">SinkServer.</text>
<text text-anchor="middle" x="310.93" y="-222.67" font-family="Times,serif" font-size="14.00">GetRecevier</text>
</g>
<!-- RunServers&#45;&gt;SinkServer.\nGetRecevier -->
<g id="edge2" class="edge">
<title>RunServers&#45;&gt;SinkServer.\nGetRecevier</title>
<path fill="none" stroke="black" d="M104.59,-176.42C123.32,-183.35 146.34,-191.5 167.29,-197.87 190.17,-204.83 215.4,-211.52 238.19,-217.2"/>
<polygon fill="black" stroke="black" points="237.59,-220.65 248.14,-219.65 239.26,-213.86 237.59,-220.65"/>
</g>
<!-- SourceServer.\nAddRecevier -->
<g id="node4" class="node">
<title>SourceServer.\nAddRecevier</title>
<ellipse fill="none" stroke="black" cx="310.93" cy="-161.87" rx="82.96" ry="26.74"/>
<text text-anchor="middle" x="310.93" y="-165.67" font-family="Times,serif" font-size="14.00">SourceServer.</text>
<text text-anchor="middle" x="310.93" y="-150.67" font-family="Times,serif" font-size="14.00">AddRecevier</text>
</g>
<!-- RunServers&#45;&gt;SourceServer.\nAddRecevier -->
<g id="edge3" class="edge">
<title>RunServers&#45;&gt;SourceServer.\nAddRecevier</title>
<path fill="none" stroke="black" d="M131.52,-161.87C157.96,-161.87 189.02,-161.87 217.74,-161.87"/>
<polygon fill="black" stroke="black" points="217.79,-165.37 227.79,-161.87 217.79,-158.37 217.79,-165.37"/>
</g>
<!-- PipeServer.\nAddRecevier -->
<g id="node5" class="node">
<title>PipeServer.\nAddRecevier</title>
<ellipse fill="none" stroke="black" cx="310.93" cy="-89.87" rx="75.82" ry="26.74"/>
<text text-anchor="middle" x="310.93" y="-93.67" font-family="Times,serif" font-size="14.00">PipeServer.</text>
<text text-anchor="middle" x="310.93" y="-78.67" font-family="Times,serif" font-size="14.00">AddRecevier</text>
</g>
<!-- RunServers&#45;&gt;PipeServer.\nAddRecevier -->
<g id="edge4" class="edge">
<title>RunServers&#45;&gt;PipeServer.\nAddRecevier</title>
<path fill="none" stroke="black" d="M104.59,-147.32C123.32,-140.39 146.34,-132.24 167.29,-125.87 189.85,-119.01 214.69,-112.41 237.24,-106.78"/>
<polygon fill="black" stroke="black" points="238.21,-110.15 247.08,-104.35 236.53,-103.35 238.21,-110.15"/>
</g>
<!-- HandlePushableDataReceipt -->
<g id="node6" class="node">
<title>HandlePushableDataReceipt</title>
<ellipse fill="none" stroke="black" cx="310.93" cy="-26.87" rx="143.77" ry="18"/>
<text text-anchor="middle" x="310.93" y="-23.17" font-family="Times,serif" font-size="14.00">HandlePushableDataReceipt</text>
</g>
<!-- RunServers&#45;&gt;HandlePushableDataReceipt -->
<g id="edge5" class="edge">
<title>RunServers&#45;&gt;HandlePushableDataReceipt</title>
<path fill="none" stroke="black" d="M77.85,-144.04C94.29,-119.51 127.34,-75.9 167.29,-53.87 175.81,-49.17 185.01,-45.27 194.49,-42.05"/>
<polygon fill="black" stroke="black" points="195.56,-45.38 204.04,-39.03 193.45,-38.7 195.56,-45.38"/>
</g>
<!-- Pushable.\nHandleIncomingData -->
<g id="node7" class="node">
<title>Pushable.\nHandleIncomingData</title>
<ellipse fill="none" stroke="black" cx="608.65" cy="-26.87" rx="118.17" ry="26.74"/>
<text text-anchor="middle" x="608.65" y="-30.67" font-family="Times,serif" font-size="14.00">Pushable.</text>
<text text-anchor="middle" x="608.65" y="-15.67" font-family="Times,serif" font-size="14.00">HandleIncomingData</text>
</g>
<!-- HandlePushableDataReceipt&#45;&gt;Pushable.\nHandleIncomingData -->
<g id="edge6" class="edge">
<title>HandlePushableDataReceipt&#45;&gt;Pushable.\nHandleIncomingData</title>
<path fill="none" stroke="black" d="M454.59,-26.87C463.1,-26.87 471.62,-26.87 480.06,-26.87"/>
<polygon fill="black" stroke="black" points="480.3,-30.37 490.3,-26.87 480.3,-23.37 480.3,-30.37"/>
</g>
</g>
</svg>
