<?xml version="1.0" encoding="us-ascii" standalone="no"?><svg xmlns="http://www.w3.org/2000/svg" xmlns:xlink="http://www.w3.org/1999/xlink" contentStyleType="text/css" height="59px" preserveAspectRatio="none" style="width:629px;height:59px;background:#FFFFFF;" version="1.1" viewBox="0 0 629 59" width="629px" zoomAndPan="magnify"><defs/><g><!--entity SourceServer--><g id="elem_SourceServer"><rect fill="#F1F1F1" height="46.2969" rx="2.5" ry="2.5" style="stroke:#181818;stroke-width:0.5;" width="133" x="7" y="7"/><rect fill="#F1F1F1" height="10" style="stroke:#181818;stroke-width:0.5;" width="15" x="120" y="12"/><rect fill="#F1F1F1" height="2" style="stroke:#181818;stroke-width:0.5;" width="4" x="118" y="14"/><rect fill="#F1F1F1" height="2" style="stroke:#181818;stroke-width:0.5;" width="4" x="118" y="18"/><text fill="#000000" font-family="sans-serif" font-size="14" lengthAdjust="spacing" textLength="93" x="22" y="39.9951">SourceServer</text></g><!--entity PipeServer--><g id="elem_PipeServer"><rect fill="#F1F1F1" height="46.2969" rx="2.5" ry="2.5" style="stroke:#181818;stroke-width:0.5;" width="114" x="268" y="7"/><rect fill="#F1F1F1" height="10" style="stroke:#181818;stroke-width:0.5;" width="15" x="362" y="12"/><rect fill="#F1F1F1" height="2" style="stroke:#181818;stroke-width:0.5;" width="4" x="360" y="14"/><rect fill="#F1F1F1" height="2" style="stroke:#181818;stroke-width:0.5;" width="4" x="360" y="18"/><text fill="#000000" font-family="sans-serif" font-size="14" lengthAdjust="spacing" textLength="74" x="283" y="39.9951">PipeServer</text></g><!--entity SinkServer--><g id="elem_SinkServer"><rect fill="#F1F1F1" height="46.2969" rx="2.5" ry="2.5" style="stroke:#181818;stroke-width:0.5;" width="113" x="510" y="7"/><rect fill="#F1F1F1" height="10" style="stroke:#181818;stroke-width:0.5;" width="15" x="603" y="12"/><rect fill="#F1F1F1" height="2" style="stroke:#181818;stroke-width:0.5;" width="4" x="601" y="14"/><rect fill="#F1F1F1" height="2" style="stroke:#181818;stroke-width:0.5;" width="4" x="601" y="18"/><text fill="#000000" font-family="sans-serif" font-size="14" lengthAdjust="spacing" textLength="73" x="525" y="39.9951">SinkServer</text></g><!--link SourceServer to PipeServer--><g id="link_SourceServer_PipeServer"><path codeLine="8" d="M140.05,30 C179.76,30 223.88,30 261.77,30 " fill="none" id="SourceServer-to-PipeServer" style="stroke:#181818;stroke-width:1.0;"/><polygon fill="#181818" points="267.77,30,258.77,26,262.77,30,258.77,34,267.77,30" style="stroke:#181818;stroke-width:1.0;"/><text fill="#000000" font-family="sans-serif" font-size="13" lengthAdjust="spacing" textLength="66" x="171" y="26.0669">Send data</text></g><!--link PipeServer to SinkServer--><g id="link_PipeServer_SinkServer"><path codeLine="9" d="M382.15,30 C420.59,30 465.34,30 503.7,30 " fill="none" id="PipeServer-to-SinkServer" style="stroke:#181818;stroke-width:1.0;"/><polygon fill="#181818" points="509.7,30,500.7,26,504.7,30,500.7,34,509.7,30" style="stroke:#181818;stroke-width:1.0;"/><text fill="#000000" font-family="sans-serif" font-size="13" lengthAdjust="spacing" textLength="66" x="413" y="26.0669">Send data</text></g><!--SRC=[ROp12O0m34NldI8BT04FpY1qWj963MfIGjI3kBid8OBN_zv_Auu69g0qpGQL58kHS2YoDM5aWoIx5aoe1ofSuNPeeFOF4l7Ym2SHgvmSUt_k825NgDboSFDhkfep7m00]--></g></svg>