<?xml version="1.0" encoding="us-ascii" standalone="no"?><svg xmlns="http://www.w3.org/2000/svg" xmlns:xlink="http://www.w3.org/1999/xlink" contentStyleType="text/css" height="176px" preserveAspectRatio="none" style="width:1403px;height:176px;background:#FFFFFF;" version="1.1" viewBox="0 0 1403 176" width="1403px" zoomAndPan="magnify"><defs/><g><!--cluster SourceServer--><g id="cluster_SourceServer"><rect fill="none" height="97" rx="2.5" ry="2.5" style="stroke:#181818;stroke-width:1.0;" width="162" x="7" y="73"/><rect fill="none" height="10" style="stroke:#181818;stroke-width:1.0;" width="15" x="149" y="78"/><rect fill="none" height="2" style="stroke:#181818;stroke-width:1.0;" width="4" x="147" y="80"/><rect fill="none" height="2" style="stroke:#181818;stroke-width:1.0;" width="4" x="147" y="84"/><text fill="#000000" font-family="sans-serif" font-size="14" font-weight="bold" lengthAdjust="spacing" textLength="109" x="33.5" y="98.9951">SourceServer</text></g><!--cluster PipeServer--><g id="cluster_PipeServer"><rect fill="none" height="132" rx="2.5" ry="2.5" style="stroke:#181818;stroke-width:1.0;" width="177" x="631" y="7"/><rect fill="none" height="10" style="stroke:#181818;stroke-width:1.0;" width="15" x="788" y="12"/><rect fill="none" height="2" style="stroke:#181818;stroke-width:1.0;" width="4" x="786" y="14"/><rect fill="none" height="2" style="stroke:#181818;stroke-width:1.0;" width="4" x="786" y="18"/><text fill="#000000" font-family="sans-serif" font-size="14" font-weight="bold" lengthAdjust="spacing" textLength="87" x="676" y="32.9951">PipeServer</text></g><!--entity PipeReceiver--><g id="elem_PipeReceiver"><rect fill="#F1F1F1" height="46.2969" rx="2.5" ry="2.5" style="stroke:#181818;stroke-width:0.5;" width="130" x="23" y="108"/><rect fill="#F1F1F1" height="10" style="stroke:#181818;stroke-width:0.5;" width="15" x="133" y="113"/><rect fill="#F1F1F1" height="2" style="stroke:#181818;stroke-width:0.5;" width="4" x="131" y="115"/><rect fill="#F1F1F1" height="2" style="stroke:#181818;stroke-width:0.5;" width="4" x="131" y="119"/><text fill="#000000" font-family="sans-serif" font-size="14" lengthAdjust="spacing" textLength="90" x="38" y="140.9951">PipeReceiver</text></g><!--entity SinkReceiver--><g id="elem_SinkReceiver"><rect fill="#F1F1F1" height="46.2969" rx="2.5" ry="2.5" style="stroke:#181818;stroke-width:0.5;" width="129" x="655" y="50"/><rect fill="#F1F1F1" height="10" style="stroke:#181818;stroke-width:0.5;" width="15" x="764" y="55"/><rect fill="#F1F1F1" height="2" style="stroke:#181818;stroke-width:0.5;" width="4" x="762" y="57"/><rect fill="#F1F1F1" height="2" style="stroke:#181818;stroke-width:0.5;" width="4" x="762" y="61"/><text fill="#000000" font-family="sans-serif" font-size="14" lengthAdjust="spacing" textLength="89" x="670" y="82.9951">SinkReceiver</text></g><!--entity SinkServer--><g id="elem_SinkServer"><rect fill="#F1F1F1" height="46.2969" rx="2.5" ry="2.5" style="stroke:#181818;stroke-width:0.5;" width="113" x="1284" y="50"/><rect fill="#F1F1F1" height="10" style="stroke:#181818;stroke-width:0.5;" width="15" x="1377" y="55"/><rect fill="#F1F1F1" height="2" style="stroke:#181818;stroke-width:0.5;" width="4" x="1375" y="57"/><rect fill="#F1F1F1" height="2" style="stroke:#181818;stroke-width:0.5;" width="4" x="1375" y="61"/><text fill="#000000" font-family="sans-serif" font-size="14" lengthAdjust="spacing" textLength="73" x="1299" y="82.9951">SinkServer</text></g><!--entity PipeChannel--><g id="elem_PipeChannel"><ellipse cx="392" cy="131" fill="#F1F1F1" rx="8" ry="8" style="stroke:#181818;stroke-width:0.5;"/><text fill="#000000" font-family="sans-serif" font-size="14" lengthAdjust="spacing" textLength="131" x="326.5" y="160.9951">Pipe Send Channel</text></g><!--entity SinkChannel--><g id="elem_SinkChannel"><ellipse cx="1039" cy="73" fill="#F1F1F1" rx="8" ry="8" style="stroke:#181818;stroke-width:0.5;"/><text fill="#000000" font-family="sans-serif" font-size="14" lengthAdjust="spacing" textLength="130" x="974" y="102.9951">Sink Send Channel</text></g><!--link PipeReceiver to PipeChannel--><g id="link_PipeReceiver_PipeChannel"><path d="M153.05,131 C229.23,131 350.21,131 382.73,131 " fill="none" id="PipeReceiver-PipeChannel" style="stroke:#181818;stroke-width:1.0;"/><text fill="#000000" font-family="sans-serif" font-size="13" lengthAdjust="spacing" textLength="102" x="186" y="127.0669">Push to channel</text></g><!--link SinkReceiver to SinkChannel--><g id="link_SinkReceiver_SinkChannel"><path d="M784.37,73 C864.41,73 995.27,73 1029.56,73 " fill="none" id="SinkReceiver-SinkChannel" style="stroke:#181818;stroke-width:1.0;"/><text fill="#000000" font-family="sans-serif" font-size="13" lengthAdjust="spacing" textLength="102" x="833" y="69.0669">Push to channel</text></g><!--reverse link PipeChannel to PipeServer--><g id="link_PipeChannel_PipeServer"><path d="M411.05,131 C435.915,131 504.2375,131 576.8575,131 C595.0125,131 612.8111,131 629.3289,131 C629.8451,131 630.36,131 630.8737,131 " fill="none" id="PipeChannel-backto-PipeServer" style="stroke:#181818;stroke-width:1.0;"/><path d="M404.1282,139.4572 A9,9 0 0 0 404.1282 122.5428" fill="none" style="stroke:#181818;stroke-width:1.5;"/><text fill="#000000" font-family="sans-serif" font-size="13" lengthAdjust="spacing" textLength="110" x="496" y="127.0669">Pull from channel</text></g><!--reverse link SinkChannel to SinkServer--><g id="link_SinkChannel_SinkServer"><path d="M1058.01,73 C1091.08,73 1208.76,73 1283.72,73 " fill="none" id="SinkChannel-backto-SinkServer" style="stroke:#181818;stroke-width:1.0;"/><path d="M1051.0882,81.4572 A9,9 0 0 0 1051.0882 64.5428" fill="none" style="stroke:#181818;stroke-width:1.5;"/><text fill="#000000" font-family="sans-serif" font-size="13" lengthAdjust="spacing" textLength="110" x="1143" y="69.0669">Pull from channel</text></g><!--SRC=[TP114e8m34NtFKM6dGikuDOBCFO4J0dIiIHCABfmkBlK0KqLksl_lFUJ1cmZH0Rnbov2umLTz4p6SJym8KMmF8b3Yt93WOU1vNp2oWzuHeT-2Sriyk0FOprT5UCfehIrGoWI11QfWLDN4s4ee1vVglLkSikx8BEavDUINZUBdXhAXkzKwXOuGZMDNVeMjn9wverGnXr2-mwgOvqv0I50Aznd9T-8MdC7UG80]--></g></svg>