<?xml version="1.0" encoding="us-ascii" standalone="no"?><svg xmlns="http://www.w3.org/2000/svg" xmlns:xlink="http://www.w3.org/1999/xlink" contentStyleType="text/css" height="621px" preserveAspectRatio="none" style="width:1422px;height:621px;background:#FFFFFF;" version="1.1" viewBox="0 0 1422 621" width="1422px" zoomAndPan="magnify"><defs/><g><!--cluster Server--><g id="cluster_Server"><path d="M533.5,30.5 L587.5,30.5 A3.75,3.75 0 0 1 590,33 L597,52.7969 L1412.5,52.7969 A2.5,2.5 0 0 1 1415,55.2969 L1415,192 A2.5,2.5 0 0 1 1412.5,194.5 L533.5,194.5 A2.5,2.5 0 0 1 531,192 L531,33 A2.5,2.5 0 0 1 533.5,30.5 " fill="none" style="stroke:#000000;stroke-width:1.5;"/><line style="stroke:#000000;stroke-width:1.5;" x1="531" x2="597" y1="52.7969" y2="52.7969"/><text fill="#000000" font-family="sans-serif" font-size="14" font-weight="bold" lengthAdjust="spacing" textLength="53" x="535" y="45.4951">Server</text></g><!--cluster GroupAndVerify--><g id="cluster_GroupAndVerify"><path d="M8.5,6 L136.5,6 A3.75,3.75 0 0 1 139,8.5 L146,28.2969 L504.5,28.2969 A2.5,2.5 0 0 1 507,30.7969 L507,611.5 A2.5,2.5 0 0 1 504.5,614 L8.5,614 A2.5,2.5 0 0 1 6,611.5 L6,8.5 A2.5,2.5 0 0 1 8.5,6 " fill="none" style="stroke:#000000;stroke-width:1.5;"/><line style="stroke:#000000;stroke-width:1.5;" x1="6" x2="146" y1="28.2969" y2="28.2969"/><text fill="#000000" font-family="sans-serif" font-size="14" font-weight="bold" lengthAdjust="spacing" textLength="127" x="10" y="20.9951">GroupAndVerify</text></g><!--class Config--><g id="elem_Config"><rect codeLine="1" fill="#F1F1F1" height="64.2969" id="Config" rx="2.5" ry="2.5" style="stroke:#181818;stroke-width:0.5;" width="263" x="547.5" y="90"/><ellipse cx="652.75" cy="106" fill="#B4A7E5" rx="11" ry="11" style="stroke:#181818;stroke-width:1.0;"/><path d="M648.6719,101.7656 L648.6719,99.6094 L656.0625,99.6094 L656.0625,101.7656 L653.5938,101.7656 L653.5938,109.8438 L656.0625,109.8438 L656.0625,112 L648.6719,112 L648.6719,109.8438 L651.1406,109.8438 L651.1406,101.7656 L648.6719,101.7656 Z " fill="#000000"/><text fill="#000000" font-family="sans-serif" font-size="14" font-style="italic" lengthAdjust="spacing" textLength="44" x="673.25" y="110.8467">Config</text><line style="stroke:#181818;stroke-width:0.5;" x1="548.5" x2="809.5" y1="122" y2="122"/><line style="stroke:#181818;stroke-width:0.5;" x1="548.5" x2="809.5" y1="130" y2="130"/><ellipse cx="558.5" cy="143.6484" fill="#84BE84" rx="3" ry="3" style="stroke:#038048;stroke-width:1.0;"/><text fill="#000000" font-family="sans-serif" font-size="14" lengthAdjust="spacing" textLength="237" x="567.5" y="146.9951">error IngestConfig(map[string]any)</text></g><!--class PipeServer--><g id="elem_PipeServer"><rect codeLine="4" fill="#F1F1F1" height="113.1875" id="PipeServer" rx="2.5" ry="2.5" style="stroke:#181818;stroke-width:0.5;" width="276" x="846" y="65.5"/><ellipse cx="942.75" cy="81.5" fill="#B4A7E5" rx="11" ry="11" style="stroke:#181818;stroke-width:1.0;"/><path d="M938.6719,77.2656 L938.6719,75.1094 L946.0625,75.1094 L946.0625,77.2656 L943.5938,77.2656 L943.5938,85.3438 L946.0625,85.3438 L946.0625,87.5 L938.6719,87.5 L938.6719,85.3438 L941.1406,85.3438 L941.1406,77.2656 L938.6719,77.2656 Z " fill="#000000"/><text fill="#000000" font-family="sans-serif" font-size="14" font-style="italic" lengthAdjust="spacing" textLength="74" x="963.25" y="86.3467">PipeServer</text><line style="stroke:#181818;stroke-width:0.5;" x1="847" x2="1121" y1="97.5" y2="97.5"/><line style="stroke:#181818;stroke-width:0.5;" x1="847" x2="1121" y1="105.5" y2="105.5"/><ellipse cx="857" cy="119.1484" fill="#84BE84" rx="3" ry="3" style="stroke:#038048;stroke-width:1.0;"/><text fill="#000000" font-family="sans-serif" font-size="14" lengthAdjust="spacing" textLength="250" x="866" y="122.4951">error AddPushable(Server.Pushable)</text><ellipse cx="857" cy="135.4453" fill="#84BE84" rx="3" ry="3" style="stroke:#038048;stroke-width:1.0;"/><text fill="#000000" font-family="sans-serif" font-size="14" lengthAdjust="spacing" textLength="215" x="866" y="138.792">error SendTo(*Server.AppData)</text><ellipse cx="857" cy="151.7422" fill="#84BE84" rx="3" ry="3" style="stroke:#038048;stroke-width:1.0;"/><text fill="#000000" font-family="sans-serif" font-size="14" lengthAdjust="spacing" textLength="86" x="866" y="155.0889">error Serve()</text><ellipse cx="857" cy="168.0391" fill="#84BE84" rx="3" ry="3" style="stroke:#038048;stroke-width:1.0;"/><text fill="#000000" font-family="sans-serif" font-size="14" lengthAdjust="spacing" textLength="180" x="866" y="171.3857">error Setup(Server.Config)</text></g><!--class Pushable--><g id="elem_Pushable"><rect codeLine="10" fill="#F1F1F1" height="64.2969" id="Pushable" rx="2.5" ry="2.5" style="stroke:#181818;stroke-width:0.5;" width="241" x="1157.5" y="90"/><ellipse cx="1241.75" cy="106" fill="#B4A7E5" rx="11" ry="11" style="stroke:#181818;stroke-width:1.0;"/><path d="M1237.6719,101.7656 L1237.6719,99.6094 L1245.0625,99.6094 L1245.0625,101.7656 L1242.5938,101.7656 L1242.5938,109.8438 L1245.0625,109.8438 L1245.0625,112 L1237.6719,112 L1237.6719,109.8438 L1240.1406,109.8438 L1240.1406,101.7656 L1237.6719,101.7656 Z " fill="#000000"/><text fill="#000000" font-family="sans-serif" font-size="14" font-style="italic" lengthAdjust="spacing" textLength="64" x="1262.25" y="110.8467">Pushable</text><line style="stroke:#181818;stroke-width:0.5;" x1="1158.5" x2="1397.5" y1="122" y2="122"/><line style="stroke:#181818;stroke-width:0.5;" x1="1158.5" x2="1397.5" y1="130" y2="130"/><ellipse cx="1168.5" cy="143.6484" fill="#84BE84" rx="3" ry="3" style="stroke:#038048;stroke-width:1.0;"/><text fill="#000000" font-family="sans-serif" font-size="14" lengthAdjust="spacing" textLength="215" x="1177.5" y="146.9951">error SendTo(*Server.AppData)</text></g><!--class GroupAndVerifyConfig--><g id="elem_GroupAndVerifyConfig"><rect codeLine="16" fill="#F1F1F1" height="113.1875" id="GroupAndVerifyConfig" rx="2.5" ry="2.5" style="stroke:#181818;stroke-width:0.5;" width="263" x="227.5" y="263"/><ellipse cx="279.25" cy="279" fill="#F1F1F1" rx="11" ry="11" style="stroke:#181818;stroke-width:1.0;"/><path d="M278.7344,279.5625 Q276.875,278.8594 276.2188,278.0938 Q275.5781,277.3125 275.5781,276 Q275.5781,274.3125 276.6563,273.3438 Q277.7344,272.375 279.6094,272.375 Q280.4688,272.375 281.3125,272.5781 Q282.1719,272.7656 283.0156,273.1563 L283.0156,275.5469 Q282.2344,274.9844 281.4063,274.7031 Q280.5938,274.4063 279.7969,274.4063 Q278.9219,274.4063 278.4375,274.7656 Q277.9688,275.125 277.9688,275.7813 Q277.9688,276.2969 278.3125,276.6406 Q278.6563,276.9688 279.75,277.375 L280.8125,277.7813 Q282.2969,278.3281 283,279.2344 Q283.7188,280.1406 283.7188,281.5156 Q283.7188,283.3906 282.6094,284.3125 Q281.5,285.2344 279.25,285.2344 Q278.3281,285.2344 277.4063,285.0156 Q276.4844,284.7969 275.625,284.375 L275.625,281.8438 Q276.5938,282.5313 277.5156,282.875 Q278.4375,283.2188 279.3281,283.2188 Q280.2344,283.2188 280.7344,282.8125 Q281.2344,282.3906 281.2344,281.6563 Q281.2344,281.0938 280.8906,280.6875 Q280.5625,280.2656 279.9375,280.0156 L278.7344,279.5625 Z " fill="#000000"/><text fill="#000000" font-family="sans-serif" font-size="14" lengthAdjust="spacing" textLength="151" x="299.75" y="283.8467">GroupAndVerifyConfig</text><line style="stroke:#181818;stroke-width:0.5;" x1="228.5" x2="489.5" y1="295" y2="295"/><rect fill="none" height="6" style="stroke:#C82930;stroke-width:1.0;" width="6" x="235.5" y="305.6484"/><text fill="#000000" font-family="sans-serif" font-size="14" lengthAdjust="spacing" textLength="218" x="247.5" y="311.9951">map[string]bool ParentVerifySet</text><rect fill="none" height="6" style="stroke:#C82930;stroke-width:1.0;" width="6" x="235.5" y="321.9453"/><text fill="#000000" font-family="sans-serif" font-size="14" lengthAdjust="spacing" textLength="78" x="247.5" y="328.292">int Timeout</text><rect fill="none" height="6" style="stroke:#C82930;stroke-width:1.0;" width="6" x="235.5" y="338.2422"/><text fill="#000000" font-family="sans-serif" font-size="14" lengthAdjust="spacing" textLength="88" x="247.5" y="344.5889">int MaxTrees</text><line style="stroke:#181818;stroke-width:0.5;" x1="228.5" x2="489.5" y1="351.8906" y2="351.8906"/><ellipse cx="238.5" cy="365.5391" fill="#84BE84" rx="3" ry="3" style="stroke:#038048;stroke-width:1.0;"/><text fill="#000000" font-family="sans-serif" font-size="14" lengthAdjust="spacing" textLength="237" x="247.5" y="368.8857">error IngestConfig(map[string]any)</text></g><!--class GroupAndVerify--><g id="elem_GroupAndVerify"><rect codeLine="22" fill="#F1F1F1" height="162.0781" id="GroupAndVerify" rx="2.5" ry="2.5" style="stroke:#181818;stroke-width:0.5;" width="276" x="215" y="436"/><ellipse cx="295.25" cy="452" fill="#F1F1F1" rx="11" ry="11" style="stroke:#181818;stroke-width:1.0;"/><path d="M294.7344,452.5625 Q292.875,451.8594 292.2188,451.0938 Q291.5781,450.3125 291.5781,449 Q291.5781,447.3125 292.6563,446.3438 Q293.7344,445.375 295.6094,445.375 Q296.4688,445.375 297.3125,445.5781 Q298.1719,445.7656 299.0156,446.1563 L299.0156,448.5469 Q298.2344,447.9844 297.4063,447.7031 Q296.5938,447.4063 295.7969,447.4063 Q294.9219,447.4063 294.4375,447.7656 Q293.9688,448.125 293.9688,448.7813 Q293.9688,449.2969 294.3125,449.6406 Q294.6563,449.9688 295.75,450.375 L296.8125,450.7813 Q298.2969,451.3281 299,452.2344 Q299.7188,453.1406 299.7188,454.5156 Q299.7188,456.3906 298.6094,457.3125 Q297.5,458.2344 295.25,458.2344 Q294.3281,458.2344 293.4063,458.0156 Q292.4844,457.7969 291.625,457.375 L291.625,454.8438 Q292.5938,455.5313 293.5156,455.875 Q294.4375,456.2188 295.3281,456.2188 Q296.2344,456.2188 296.7344,455.8125 Q297.2344,455.3906 297.2344,454.6563 Q297.2344,454.0938 296.8906,453.6875 Q296.5625,453.2656 295.9375,453.0156 L294.7344,452.5625 Z " fill="#000000"/><text fill="#000000" font-family="sans-serif" font-size="14" lengthAdjust="spacing" textLength="107" x="315.75" y="456.8467">GroupAndVerify</text><line style="stroke:#181818;stroke-width:0.5;" x1="216" x2="490" y1="468" y2="468"/><rect fill="none" height="6" style="stroke:#C82930;stroke-width:1.0;" width="6" x="223" y="478.6484"/><text fill="#000000" font-family="sans-serif" font-size="14" lengthAdjust="spacing" textLength="197" x="235" y="484.9951">GroupAndVerifyConfig config</text><rect fill="none" height="6" style="stroke:#C82930;stroke-width:1.0;" width="6" x="223" y="494.9453"/><text fill="#000000" font-family="sans-serif" font-size="14" lengthAdjust="spacing" textLength="180" x="235" y="501.292">Server.Pushable pushable</text><rect fill="none" height="6" style="stroke:#C82930;stroke-width:1.0;" width="6" x="223" y="511.2422"/><text fill="#000000" font-family="sans-serif" font-size="14" lengthAdjust="spacing" textLength="143" x="235" y="517.5889">chan *task taskChan</text><line style="stroke:#181818;stroke-width:0.5;" x1="216" x2="490" y1="524.8906" y2="524.8906"/><ellipse cx="226" cy="538.5391" fill="#84BE84" rx="3" ry="3" style="stroke:#038048;stroke-width:1.0;"/><text fill="#000000" font-family="sans-serif" font-size="14" lengthAdjust="spacing" textLength="250" x="235" y="541.8857">error AddPushable(Server.Pushable)</text><ellipse cx="226" cy="554.8359" fill="#84BE84" rx="3" ry="3" style="stroke:#038048;stroke-width:1.0;"/><text fill="#000000" font-family="sans-serif" font-size="14" lengthAdjust="spacing" textLength="215" x="235" y="558.1826">error SendTo(*Server.AppData)</text><ellipse cx="226" cy="571.1328" fill="#84BE84" rx="3" ry="3" style="stroke:#038048;stroke-width:1.0;"/><text fill="#000000" font-family="sans-serif" font-size="14" lengthAdjust="spacing" textLength="86" x="235" y="574.4795">error Serve()</text><ellipse cx="226" cy="587.4297" fill="#84BE84" rx="3" ry="3" style="stroke:#038048;stroke-width:1.0;"/><text fill="#000000" font-family="sans-serif" font-size="14" lengthAdjust="spacing" textLength="180" x="235" y="590.7764">error Setup(Server.Config)</text></g><!--class task--><g id="elem_task"><rect codeLine="31" fill="#F1F1F1" height="80.5938" id="task" rx="2.5" ry="2.5" style="stroke:#181818;stroke-width:0.5;" width="170" x="22" y="279"/><ellipse cx="88.25" cy="295" fill="#F1F1F1" rx="11" ry="11" style="stroke:#181818;stroke-width:1.0;"/><path d="M87.7344,295.5625 Q85.875,294.8594 85.2188,294.0938 Q84.5781,293.3125 84.5781,292 Q84.5781,290.3125 85.6563,289.3438 Q86.7344,288.375 88.6094,288.375 Q89.4688,288.375 90.3125,288.5781 Q91.1719,288.7656 92.0156,289.1563 L92.0156,291.5469 Q91.2344,290.9844 90.4063,290.7031 Q89.5938,290.4063 88.7969,290.4063 Q87.9219,290.4063 87.4375,290.7656 Q86.9688,291.125 86.9688,291.7813 Q86.9688,292.2969 87.3125,292.6406 Q87.6563,292.9688 88.75,293.375 L89.8125,293.7813 Q91.2969,294.3281 92,295.2344 Q92.7188,296.1406 92.7188,297.5156 Q92.7188,299.3906 91.6094,300.3125 Q90.5,301.2344 88.25,301.2344 Q87.3281,301.2344 86.4063,301.0156 Q85.4844,300.7969 84.625,300.375 L84.625,297.8438 Q85.5938,298.5313 86.5156,298.875 Q87.4375,299.2188 88.3281,299.2188 Q89.2344,299.2188 89.7344,298.8125 Q90.2344,298.3906 90.2344,297.6563 Q90.2344,297.0938 89.8906,296.6875 Q89.5625,296.2656 88.9375,296.0156 L87.7344,295.5625 Z " fill="#000000"/><text fill="#000000" font-family="sans-serif" font-size="14" lengthAdjust="spacing" textLength="29" x="108.75" y="299.8467">task</text><line style="stroke:#181818;stroke-width:0.5;" x1="23" x2="191" y1="311" y2="311"/><ellipse cx="33" cy="324.6484" fill="none" rx="3" ry="3" style="stroke:#038048;stroke-width:1.0;"/><text fill="#000000" font-family="sans-serif" font-size="14" lengthAdjust="spacing" textLength="143" x="42" y="327.9951">*incomingData Node</text><ellipse cx="33" cy="340.9453" fill="none" rx="3" ry="3" style="stroke:#038048;stroke-width:1.0;"/><text fill="#000000" font-family="sans-serif" font-size="14" lengthAdjust="spacing" textLength="144" x="42" y="344.292">chan error ErrorChan</text><line style="stroke:#181818;stroke-width:0.5;" x1="23" x2="191" y1="351.5938" y2="351.5938"/></g><!--class incomingData--><g id="elem_incomingData"><rect codeLine="35" fill="#F1F1F1" height="162.0781" id="incomingData" rx="2.5" ry="2.5" style="stroke:#181818;stroke-width:0.5;" width="193" x="22.5" y="41"/><ellipse cx="67.25" cy="57" fill="#F1F1F1" rx="11" ry="11" style="stroke:#181818;stroke-width:1.0;"/><path d="M66.7344,57.5625 Q64.875,56.8594 64.2188,56.0938 Q63.5781,55.3125 63.5781,54 Q63.5781,52.3125 64.6563,51.3438 Q65.7344,50.375 67.6094,50.375 Q68.4688,50.375 69.3125,50.5781 Q70.1719,50.7656 71.0156,51.1563 L71.0156,53.5469 Q70.2344,52.9844 69.4063,52.7031 Q68.5938,52.4063 67.7969,52.4063 Q66.9219,52.4063 66.4375,52.7656 Q65.9688,53.125 65.9688,53.7813 Q65.9688,54.2969 66.3125,54.6406 Q66.6563,54.9688 67.75,55.375 L68.8125,55.7813 Q70.2969,56.3281 71,57.2344 Q71.7188,58.1406 71.7188,59.5156 Q71.7188,61.3906 70.6094,62.3125 Q69.5,63.2344 67.25,63.2344 Q66.3281,63.2344 65.4063,63.0156 Q64.4844,62.7969 63.625,62.375 L63.625,59.8438 Q64.5938,60.5313 65.5156,60.875 Q66.4375,61.2188 67.3281,61.2188 Q68.2344,61.2188 68.7344,60.8125 Q69.2344,60.3906 69.2344,59.6563 Q69.2344,59.0938 68.8906,58.6875 Q68.5625,58.2656 67.9375,58.0156 L66.7344,57.5625 Z " fill="#000000"/><text fill="#000000" font-family="sans-serif" font-size="14" lengthAdjust="spacing" textLength="95" x="87.75" y="61.8467">incomingData</text><line style="stroke:#181818;stroke-width:0.5;" x1="23.5" x2="214.5" y1="73" y2="73"/><ellipse cx="33.5" cy="86.6484" fill="none" rx="3" ry="3" style="stroke:#038048;stroke-width:1.0;"/><text fill="#000000" font-family="sans-serif" font-size="14" lengthAdjust="spacing" textLength="87" x="42.5" y="89.9951">string TreeId</text><ellipse cx="33.5" cy="102.9453" fill="none" rx="3" ry="3" style="stroke:#038048;stroke-width:1.0;"/><text fill="#000000" font-family="sans-serif" font-size="14" lengthAdjust="spacing" textLength="92" x="42.5" y="106.292">string NodeId</text><ellipse cx="33.5" cy="119.2422" fill="none" rx="3" ry="3" style="stroke:#038048;stroke-width:1.0;"/><text fill="#000000" font-family="sans-serif" font-size="14" lengthAdjust="spacing" textLength="100" x="42.5" y="122.5889">string ParentId</text><ellipse cx="33.5" cy="135.5391" fill="none" rx="3" ry="3" style="stroke:#038048;stroke-width:1.0;"/><text fill="#000000" font-family="sans-serif" font-size="14" lengthAdjust="spacing" textLength="107" x="42.5" y="138.8857">[]string ChildIds</text><ellipse cx="33.5" cy="151.8359" fill="none" rx="3" ry="3" style="stroke:#038048;stroke-width:1.0;"/><text fill="#000000" font-family="sans-serif" font-size="14" lengthAdjust="spacing" textLength="114" x="42.5" y="155.1826">string NodeType</text><ellipse cx="33.5" cy="168.1328" fill="none" rx="3" ry="3" style="stroke:#038048;stroke-width:1.0;"/><text fill="#000000" font-family="sans-serif" font-size="14" lengthAdjust="spacing" textLength="98" x="42.5" y="171.4795">int Timestamp</text><ellipse cx="33.5" cy="184.4297" fill="none" rx="3" ry="3" style="stroke:#038048;stroke-width:1.0;"/><text fill="#000000" font-family="sans-serif" font-size="14" lengthAdjust="spacing" textLength="167" x="42.5" y="187.7764">map[string]any AppJSON</text><line style="stroke:#181818;stroke-width:0.5;" x1="23.5" x2="214.5" y1="195.0781" y2="195.0781"/></g><!--reverse link PipeServer to GroupAndVerify--><g id="link_PipeServer_GroupAndVerify"><path codeLine="46" d="M879.3212,188.1963 C771.4612,255.3763 604.6,359.3 481.65,435.87 " fill="none" id="PipeServer-backto-GroupAndVerify" style="stroke:#181818;stroke-width:1.0;"/><polygon fill="none" points="894.6,178.68,876.1492,183.1034,882.4933,193.2892,894.6,178.68" style="stroke:#181818;stroke-width:1.0;"/></g><!--reverse link Pushable to GroupAndVerify--><g id="link_Pushable_GroupAndVerify"><path codeLine="47" d="M1218.2173,160.2725 C1192.3473,175.8925 1170.14,188.37 1140,203 C918.6,310.48 650.29,411.22 491.05,468.08 " fill="none" id="Pushable-backto-GroupAndVerify" style="stroke:#181818;stroke-width:1.0;"/><polygon fill="#181818" points="1228.49,154.07,1221.2861,153.747,1218.2173,160.2725,1225.4212,160.5955,1228.49,154.07" style="stroke:#181818;stroke-width:1.0;"/></g><!--reverse link Config to GroupAndVerifyConfig--><g id="link_Config_GroupAndVerifyConfig"><path codeLine="48" d="M612.5805,163.5753 C564.7605,192.7953 507.58,227.73 449.88,262.98 " fill="none" id="Config-backto-GroupAndVerifyConfig" style="stroke:#181818;stroke-width:1.0;"/><polygon fill="none" points="627.94,154.19,609.452,158.4555,615.7089,168.6952,627.94,154.19" style="stroke:#181818;stroke-width:1.0;"/></g><!--reverse link GroupAndVerifyConfig to GroupAndVerify--><g id="link_GroupAndVerifyConfig_GroupAndVerify"><path codeLine="49" d="M356.9206,388.2543 C356.3506,406.7643 356.08,415.76 355.46,435.74 " fill="none" id="GroupAndVerifyConfig-backto-GroupAndVerify" style="stroke:#181818;stroke-width:1.0;"/><polygon fill="#181818" points="357.29,376.26,353.1072,382.134,356.9206,388.2543,361.1034,382.3803,357.29,376.26" style="stroke:#181818;stroke-width:1.0;"/></g><!--reverse link incomingData to task--><g id="link_incomingData_task"><path codeLine="50" d="M113.3471,215.0576 C111.7471,241.2076 110.77,257.13 109.43,278.95 " fill="none" id="incomingData-backto-task" style="stroke:#181818;stroke-width:1.0;"/><polygon fill="#181818" points="114.08,203.08,109.721,208.8245,113.3471,215.0576,117.7061,209.3131,114.08,203.08" style="stroke:#181818;stroke-width:1.0;"/></g><!--reverse link task to GroupAndVerify--><g id="link_task_GroupAndVerify"><path codeLine="51" d="M166.1754,367.525 C193.6254,389.335 219.32,409.77 252.22,435.91 " fill="none" id="task-backto-GroupAndVerify" style="stroke:#181818;stroke-width:1.0;"/><polygon fill="#181818" points="156.78,360.06,158.9894,366.9243,166.1754,367.525,163.966,360.6607,156.78,360.06" style="stroke:#181818;stroke-width:1.0;"/></g><!--SRC=[ZLFHRi8W57tdAtYiDVe5Up5kMLmoPsAp5-C3bgkIMI10bvdDVn-KQWlMj3pGSk_fkUTUJXateFOa1xm6zGrgEXTypmxu5s6xng2KK7Z13w2DpoG5aHjj5EE7BU7d4ReW5dEic0J_6lBCA5sL-aXs9qYkqFeyQkFMm6acahJ6pAHy9eP449jAef0fPHAqqQskBXbgUrJpWX0d1MZf65wLAEMCqqzGR7-s11M3dKQPcoWPpD6jIMjmEo5EU4KKSEFHLdi3j8fnnWeGPHHy9p-P0j2tw93xSRZBOvrjXPqTvDMZ0SLJbFLBWyYFXEFK4Fs5tJQtnrXnhnC6kk618_fSSJUJIcmpYN7AU2uAEqDN2Yy5RTeRL-rvyXUtt_eB60E25hE_6kpkSK7lmgvIHzXRfPtORElK_CXET45r9rLsbYtXLrzfGmhPX4F3O3lVj_N7ikx8sl_-ftxwcqmY6qt38ufTaWxzedPTVmaFH0Cm0uf7sU3oEhvsTa4TiVvA-1y0]--></g></svg>