<?xml version="1.0" encoding="us-ascii" standalone="no"?><svg xmlns="http://www.w3.org/2000/svg" xmlns:xlink="http://www.w3.org/1999/xlink" contentStyleType="text/css" height="573px" preserveAspectRatio="none" style="width:1634px;height:573px;background:#FFFFFF;" version="1.1" viewBox="0 0 1634 573" width="1634px" zoomAndPan="magnify"><defs/><g><!--cluster Server--><g id="cluster_Server"><path d="M745.5,22.5 L799.5,22.5 A3.75,3.75 0 0 1 802,25 L809,44.7969 L1624.5,44.7969 A2.5,2.5 0 0 1 1627,47.2969 L1627,184 A2.5,2.5 0 0 1 1624.5,186.5 L745.5,186.5 A2.5,2.5 0 0 1 743,184 L743,25 A2.5,2.5 0 0 1 745.5,22.5 " fill="none" style="stroke:#000000;stroke-width:1.5;"/><line style="stroke:#000000;stroke-width:1.5;" x1="743" x2="809" y1="44.7969" y2="44.7969"/><text fill="#000000" font-family="sans-serif" font-size="14" font-weight="bold" lengthAdjust="spacing" textLength="53" x="747" y="37.4951">Server</text></g><!--cluster GroupAndVerify--><g id="cluster_GroupAndVerify"><path d="M8.5,6 L136.5,6 A3.75,3.75 0 0 1 139,8.5 L146,28.2969 L716.5,28.2969 A2.5,2.5 0 0 1 719,30.7969 L719,563.5 A2.5,2.5 0 0 1 716.5,566 L8.5,566 A2.5,2.5 0 0 1 6,563.5 L6,8.5 A2.5,2.5 0 0 1 8.5,6 " fill="none" style="stroke:#000000;stroke-width:1.5;"/><line style="stroke:#000000;stroke-width:1.5;" x1="6" x2="146" y1="28.2969" y2="28.2969"/><text fill="#000000" font-family="sans-serif" font-size="14" font-weight="bold" lengthAdjust="spacing" textLength="127" x="10" y="20.9951">GroupAndVerify</text></g><!--class Config--><g id="elem_Config"><rect codeLine="1" fill="#F1F1F1" height="64.2969" id="Config" rx="2.5" ry="2.5" style="stroke:#181818;stroke-width:0.5;" width="263" x="759.5" y="82"/><ellipse cx="864.75" cy="98" fill="#B4A7E5" rx="11" ry="11" style="stroke:#181818;stroke-width:1.0;"/><path d="M860.6719,93.7656 L860.6719,91.6094 L868.0625,91.6094 L868.0625,93.7656 L865.5938,93.7656 L865.5938,101.8438 L868.0625,101.8438 L868.0625,104 L860.6719,104 L860.6719,101.8438 L863.1406,101.8438 L863.1406,93.7656 L860.6719,93.7656 Z " fill="#000000"/><text fill="#000000" font-family="sans-serif" font-size="14" font-style="italic" lengthAdjust="spacing" textLength="44" x="885.25" y="102.8467">Config</text><line style="stroke:#181818;stroke-width:0.5;" x1="760.5" x2="1021.5" y1="114" y2="114"/><line style="stroke:#181818;stroke-width:0.5;" x1="760.5" x2="1021.5" y1="122" y2="122"/><ellipse cx="770.5" cy="135.6484" fill="#84BE84" rx="3" ry="3" style="stroke:#038048;stroke-width:1.0;"/><text fill="#000000" font-family="sans-serif" font-size="14" lengthAdjust="spacing" textLength="237" x="779.5" y="138.9951">error IngestConfig(map[string]any)</text></g><!--class PipeServer--><g id="elem_PipeServer"><rect codeLine="4" fill="#F1F1F1" height="113.1875" id="PipeServer" rx="2.5" ry="2.5" style="stroke:#181818;stroke-width:0.5;" width="276" x="1058" y="57.5"/><ellipse cx="1154.75" cy="73.5" fill="#B4A7E5" rx="11" ry="11" style="stroke:#181818;stroke-width:1.0;"/><path d="M1150.6719,69.2656 L1150.6719,67.1094 L1158.0625,67.1094 L1158.0625,69.2656 L1155.5938,69.2656 L1155.5938,77.3438 L1158.0625,77.3438 L1158.0625,79.5 L1150.6719,79.5 L1150.6719,77.3438 L1153.1406,77.3438 L1153.1406,69.2656 L1150.6719,69.2656 Z " fill="#000000"/><text fill="#000000" font-family="sans-serif" font-size="14" font-style="italic" lengthAdjust="spacing" textLength="74" x="1175.25" y="78.3467">PipeServer</text><line style="stroke:#181818;stroke-width:0.5;" x1="1059" x2="1333" y1="89.5" y2="89.5"/><line style="stroke:#181818;stroke-width:0.5;" x1="1059" x2="1333" y1="97.5" y2="97.5"/><ellipse cx="1069" cy="111.1484" fill="#84BE84" rx="3" ry="3" style="stroke:#038048;stroke-width:1.0;"/><text fill="#000000" font-family="sans-serif" font-size="14" lengthAdjust="spacing" textLength="250" x="1078" y="114.4951">error AddPushable(Server.Pushable)</text><ellipse cx="1069" cy="127.4453" fill="#84BE84" rx="3" ry="3" style="stroke:#038048;stroke-width:1.0;"/><text fill="#000000" font-family="sans-serif" font-size="14" lengthAdjust="spacing" textLength="215" x="1078" y="130.792">error SendTo(*Server.AppData)</text><ellipse cx="1069" cy="143.7422" fill="#84BE84" rx="3" ry="3" style="stroke:#038048;stroke-width:1.0;"/><text fill="#000000" font-family="sans-serif" font-size="14" lengthAdjust="spacing" textLength="86" x="1078" y="147.0889">error Serve()</text><ellipse cx="1069" cy="160.0391" fill="#84BE84" rx="3" ry="3" style="stroke:#038048;stroke-width:1.0;"/><text fill="#000000" font-family="sans-serif" font-size="14" lengthAdjust="spacing" textLength="180" x="1078" y="163.3857">error Setup(Server.Config)</text></g><!--class Pushable--><g id="elem_Pushable"><rect codeLine="10" fill="#F1F1F1" height="64.2969" id="Pushable" rx="2.5" ry="2.5" style="stroke:#181818;stroke-width:0.5;" width="241" x="1369.5" y="82"/><ellipse cx="1453.75" cy="98" fill="#B4A7E5" rx="11" ry="11" style="stroke:#181818;stroke-width:1.0;"/><path d="M1449.6719,93.7656 L1449.6719,91.6094 L1457.0625,91.6094 L1457.0625,93.7656 L1454.5938,93.7656 L1454.5938,101.8438 L1457.0625,101.8438 L1457.0625,104 L1449.6719,104 L1449.6719,101.8438 L1452.1406,101.8438 L1452.1406,93.7656 L1449.6719,93.7656 Z " fill="#000000"/><text fill="#000000" font-family="sans-serif" font-size="14" font-style="italic" lengthAdjust="spacing" textLength="64" x="1474.25" y="102.8467">Pushable</text><line style="stroke:#181818;stroke-width:0.5;" x1="1370.5" x2="1609.5" y1="114" y2="114"/><line style="stroke:#181818;stroke-width:0.5;" x1="1370.5" x2="1609.5" y1="122" y2="122"/><ellipse cx="1380.5" cy="135.6484" fill="#84BE84" rx="3" ry="3" style="stroke:#038048;stroke-width:1.0;"/><text fill="#000000" font-family="sans-serif" font-size="14" lengthAdjust="spacing" textLength="215" x="1389.5" y="138.9951">error SendTo(*Server.AppData)</text></g><!--class GroupApply--><g id="elem_GroupApply"><rect codeLine="15" fill="#F1F1F1" height="96.8906" id="GroupApply" rx="2.5" ry="2.5" style="stroke:#181818;stroke-width:0.5;" width="224" x="479" y="65.5"/><ellipse cx="546.75" cy="81.5" fill="#F1F1F1" rx="11" ry="11" style="stroke:#181818;stroke-width:1.0;"/><path d="M546.2344,82.0625 Q544.375,81.3594 543.7188,80.5938 Q543.0781,79.8125 543.0781,78.5 Q543.0781,76.8125 544.1563,75.8438 Q545.2344,74.875 547.1094,74.875 Q547.9688,74.875 548.8125,75.0781 Q549.6719,75.2656 550.5156,75.6563 L550.5156,78.0469 Q549.7344,77.4844 548.9063,77.2031 Q548.0938,76.9063 547.2969,76.9063 Q546.4219,76.9063 545.9375,77.2656 Q545.4688,77.625 545.4688,78.2813 Q545.4688,78.7969 545.8125,79.1406 Q546.1563,79.4688 547.25,79.875 L548.3125,80.2813 Q549.7969,80.8281 550.5,81.7344 Q551.2188,82.6406 551.2188,84.0156 Q551.2188,85.8906 550.1094,86.8125 Q549,87.7344 546.75,87.7344 Q545.8281,87.7344 544.9063,87.5156 Q543.9844,87.2969 543.125,86.875 L543.125,84.3438 Q544.0938,85.0313 545.0156,85.375 Q545.9375,85.7188 546.8281,85.7188 Q547.7344,85.7188 548.2344,85.3125 Q548.7344,84.8906 548.7344,84.1563 Q548.7344,83.5938 548.3906,83.1875 Q548.0625,82.7656 547.4375,82.5156 L546.2344,82.0625 Z " fill="#000000"/><text fill="#000000" font-family="sans-serif" font-size="14" lengthAdjust="spacing" textLength="80" x="567.25" y="86.3467">GroupApply</text><line style="stroke:#181818;stroke-width:0.5;" x1="480" x2="702" y1="97.5" y2="97.5"/><ellipse cx="490" cy="111.1484" fill="none" rx="3" ry="3" style="stroke:#038048;stroke-width:1.0;"/><text fill="#000000" font-family="sans-serif" font-size="14" lengthAdjust="spacing" textLength="133" x="499" y="114.4951">string FieldToShare</text><ellipse cx="490" cy="127.4453" fill="none" rx="3" ry="3" style="stroke:#038048;stroke-width:1.0;"/><text fill="#000000" font-family="sans-serif" font-size="14" lengthAdjust="spacing" textLength="145" x="499" y="130.792">string IdentifyingField</text><ellipse cx="490" cy="143.7422" fill="none" rx="3" ry="3" style="stroke:#038048;stroke-width:1.0;"/><text fill="#000000" font-family="sans-serif" font-size="14" lengthAdjust="spacing" textLength="198" x="499" y="147.0889">string ValueOfIdentifyingField</text><line style="stroke:#181818;stroke-width:0.5;" x1="480" x2="702" y1="154.3906" y2="154.3906"/></g><!--class GroupAndVerifyConfig--><g id="elem_GroupAndVerifyConfig"><rect codeLine="21" fill="#F1F1F1" height="96.8906" id="GroupAndVerifyConfig" rx="2.5" ry="2.5" style="stroke:#181818;stroke-width:0.5;" width="280" x="423" y="247"/><ellipse cx="483.25" cy="263" fill="#F1F1F1" rx="11" ry="11" style="stroke:#181818;stroke-width:1.0;"/><path d="M482.7344,263.5625 Q480.875,262.8594 480.2188,262.0938 Q479.5781,261.3125 479.5781,260 Q479.5781,258.3125 480.6563,257.3438 Q481.7344,256.375 483.6094,256.375 Q484.4688,256.375 485.3125,256.5781 Q486.1719,256.7656 487.0156,257.1563 L487.0156,259.5469 Q486.2344,258.9844 485.4063,258.7031 Q484.5938,258.4063 483.7969,258.4063 Q482.9219,258.4063 482.4375,258.7656 Q481.9688,259.125 481.9688,259.7813 Q481.9688,260.2969 482.3125,260.6406 Q482.6563,260.9688 483.75,261.375 L484.8125,261.7813 Q486.2969,262.3281 487,263.2344 Q487.7188,264.1406 487.7188,265.5156 Q487.7188,267.3906 486.6094,268.3125 Q485.5,269.2344 483.25,269.2344 Q482.3281,269.2344 481.4063,269.0156 Q480.4844,268.7969 479.625,268.375 L479.625,265.8438 Q480.5938,266.5313 481.5156,266.875 Q482.4375,267.2188 483.3281,267.2188 Q484.2344,267.2188 484.7344,266.8125 Q485.2344,266.3906 485.2344,265.6563 Q485.2344,265.0938 484.8906,264.6875 Q484.5625,264.2656 483.9375,264.0156 L482.7344,263.5625 Z " fill="#000000"/><text fill="#000000" font-family="sans-serif" font-size="14" lengthAdjust="spacing" textLength="151" x="503.75" y="267.8467">GroupAndVerifyConfig</text><line style="stroke:#181818;stroke-width:0.5;" x1="424" x2="702" y1="279" y2="279"/><rect fill="none" height="6" style="stroke:#C82930;stroke-width:1.0;" width="6" x="431" y="289.6484"/><text fill="#000000" font-family="sans-serif" font-size="14" lengthAdjust="spacing" textLength="222" x="443" y="295.9951">bool orderChildrenByTimestamp</text><rect fill="none" height="6" style="stroke:#C82930;stroke-width:1.0;" width="6" x="431" y="305.9453"/><text fill="#000000" font-family="sans-serif" font-size="14" lengthAdjust="spacing" textLength="254" x="443" y="312.292">map[string]GroupApply groupApplies</text><line style="stroke:#181818;stroke-width:0.5;" x1="424" x2="702" y1="319.5938" y2="319.5938"/><ellipse cx="434" cy="333.2422" fill="#84BE84" rx="3" ry="3" style="stroke:#038048;stroke-width:1.0;"/><text fill="#000000" font-family="sans-serif" font-size="14" lengthAdjust="spacing" textLength="237" x="443" y="336.5889">error IngestConfig(map[string]any)</text></g><!--class GroupAndVerify--><g id="elem_GroupAndVerify"><rect codeLine="26" fill="#F1F1F1" height="145.7813" id="GroupAndVerify" rx="2.5" ry="2.5" style="stroke:#181818;stroke-width:0.5;" width="276" x="427" y="404"/><ellipse cx="507.25" cy="420" fill="#F1F1F1" rx="11" ry="11" style="stroke:#181818;stroke-width:1.0;"/><path d="M506.7344,420.5625 Q504.875,419.8594 504.2188,419.0938 Q503.5781,418.3125 503.5781,417 Q503.5781,415.3125 504.6563,414.3438 Q505.7344,413.375 507.6094,413.375 Q508.4688,413.375 509.3125,413.5781 Q510.1719,413.7656 511.0156,414.1563 L511.0156,416.5469 Q510.2344,415.9844 509.4063,415.7031 Q508.5938,415.4063 507.7969,415.4063 Q506.9219,415.4063 506.4375,415.7656 Q505.9688,416.125 505.9688,416.7813 Q505.9688,417.2969 506.3125,417.6406 Q506.6563,417.9688 507.75,418.375 L508.8125,418.7813 Q510.2969,419.3281 511,420.2344 Q511.7188,421.1406 511.7188,422.5156 Q511.7188,424.3906 510.6094,425.3125 Q509.5,426.2344 507.25,426.2344 Q506.3281,426.2344 505.4063,426.0156 Q504.4844,425.7969 503.625,425.375 L503.625,422.8438 Q504.5938,423.5313 505.5156,423.875 Q506.4375,424.2188 507.3281,424.2188 Q508.2344,424.2188 508.7344,423.8125 Q509.2344,423.3906 509.2344,422.6563 Q509.2344,422.0938 508.8906,421.6875 Q508.5625,421.2656 507.9375,421.0156 L506.7344,420.5625 Z " fill="#000000"/><text fill="#000000" font-family="sans-serif" font-size="14" lengthAdjust="spacing" textLength="107" x="527.75" y="424.8467">GroupAndVerify</text><line style="stroke:#181818;stroke-width:0.5;" x1="428" x2="702" y1="436" y2="436"/><rect fill="none" height="6" style="stroke:#C82930;stroke-width:1.0;" width="6" x="435" y="446.6484"/><text fill="#000000" font-family="sans-serif" font-size="14" lengthAdjust="spacing" textLength="197" x="447" y="452.9951">GroupAndVerifyConfig config</text><rect fill="none" height="6" style="stroke:#C82930;stroke-width:1.0;" width="6" x="435" y="462.9453"/><text fill="#000000" font-family="sans-serif" font-size="14" lengthAdjust="spacing" textLength="180" x="447" y="469.292">Server.Pushable pushable</text><line style="stroke:#181818;stroke-width:0.5;" x1="428" x2="702" y1="476.5938" y2="476.5938"/><ellipse cx="438" cy="490.2422" fill="#84BE84" rx="3" ry="3" style="stroke:#038048;stroke-width:1.0;"/><text fill="#000000" font-family="sans-serif" font-size="14" lengthAdjust="spacing" textLength="250" x="447" y="493.5889">error AddPushable(Server.Pushable)</text><ellipse cx="438" cy="506.5391" fill="#84BE84" rx="3" ry="3" style="stroke:#038048;stroke-width:1.0;"/><text fill="#000000" font-family="sans-serif" font-size="14" lengthAdjust="spacing" textLength="215" x="447" y="509.8857">error SendTo(*Server.AppData)</text><ellipse cx="438" cy="522.8359" fill="#84BE84" rx="3" ry="3" style="stroke:#038048;stroke-width:1.0;"/><text fill="#000000" font-family="sans-serif" font-size="14" lengthAdjust="spacing" textLength="86" x="447" y="526.1826">error Serve()</text><ellipse cx="438" cy="539.1328" fill="#84BE84" rx="3" ry="3" style="stroke:#038048;stroke-width:1.0;"/><text fill="#000000" font-family="sans-serif" font-size="14" lengthAdjust="spacing" textLength="180" x="447" y="542.4795">error Setup(Server.Config)</text></g><!--class IncomingData--><g id="elem_IncomingData"><rect codeLine="34" fill="#F1F1F1" height="145.7813" id="IncomingData" rx="2.5" ry="2.5" style="stroke:#181818;stroke-width:0.5;" width="193" x="250.5" y="41"/><ellipse cx="295.25" cy="57" fill="#F1F1F1" rx="11" ry="11" style="stroke:#181818;stroke-width:1.0;"/><path d="M294.7344,57.5625 Q292.875,56.8594 292.2188,56.0938 Q291.5781,55.3125 291.5781,54 Q291.5781,52.3125 292.6563,51.3438 Q293.7344,50.375 295.6094,50.375 Q296.4688,50.375 297.3125,50.5781 Q298.1719,50.7656 299.0156,51.1563 L299.0156,53.5469 Q298.2344,52.9844 297.4063,52.7031 Q296.5938,52.4063 295.7969,52.4063 Q294.9219,52.4063 294.4375,52.7656 Q293.9688,53.125 293.9688,53.7813 Q293.9688,54.2969 294.3125,54.6406 Q294.6563,54.9688 295.75,55.375 L296.8125,55.7813 Q298.2969,56.3281 299,57.2344 Q299.7188,58.1406 299.7188,59.5156 Q299.7188,61.3906 298.6094,62.3125 Q297.5,63.2344 295.25,63.2344 Q294.3281,63.2344 293.4063,63.0156 Q292.4844,62.7969 291.625,62.375 L291.625,59.8438 Q292.5938,60.5313 293.5156,60.875 Q294.4375,61.2188 295.3281,61.2188 Q296.2344,61.2188 296.7344,60.8125 Q297.2344,60.3906 297.2344,59.6563 Q297.2344,59.0938 296.8906,58.6875 Q296.5625,58.2656 295.9375,58.0156 L294.7344,57.5625 Z " fill="#000000"/><text fill="#000000" font-family="sans-serif" font-size="14" lengthAdjust="spacing" textLength="95" x="315.75" y="61.8467">IncomingData</text><line style="stroke:#181818;stroke-width:0.5;" x1="251.5" x2="442.5" y1="73" y2="73"/><ellipse cx="261.5" cy="86.6484" fill="none" rx="3" ry="3" style="stroke:#038048;stroke-width:1.0;"/><text fill="#000000" font-family="sans-serif" font-size="14" lengthAdjust="spacing" textLength="92" x="270.5" y="89.9951">string NodeId</text><ellipse cx="261.5" cy="102.9453" fill="none" rx="3" ry="3" style="stroke:#038048;stroke-width:1.0;"/><text fill="#000000" font-family="sans-serif" font-size="14" lengthAdjust="spacing" textLength="100" x="270.5" y="106.292">string ParentId</text><ellipse cx="261.5" cy="119.2422" fill="none" rx="3" ry="3" style="stroke:#038048;stroke-width:1.0;"/><text fill="#000000" font-family="sans-serif" font-size="14" lengthAdjust="spacing" textLength="107" x="270.5" y="122.5889">[]string ChildIds</text><ellipse cx="261.5" cy="135.5391" fill="none" rx="3" ry="3" style="stroke:#038048;stroke-width:1.0;"/><text fill="#000000" font-family="sans-serif" font-size="14" lengthAdjust="spacing" textLength="114" x="270.5" y="138.8857">string NodeType</text><ellipse cx="261.5" cy="151.8359" fill="none" rx="3" ry="3" style="stroke:#038048;stroke-width:1.0;"/><text fill="#000000" font-family="sans-serif" font-size="14" lengthAdjust="spacing" textLength="98" x="270.5" y="155.1826">int Timestamp</text><ellipse cx="261.5" cy="168.1328" fill="none" rx="3" ry="3" style="stroke:#038048;stroke-width:1.0;"/><text fill="#000000" font-family="sans-serif" font-size="14" lengthAdjust="spacing" textLength="167" x="270.5" y="171.4795">map[string]any AppJSON</text><line style="stroke:#181818;stroke-width:0.5;" x1="251.5" x2="442.5" y1="178.7813" y2="178.7813"/></g><!--class OutgoingData--><g id="elem_OutgoingData"><rect codeLine="42" fill="#F1F1F1" height="96.8906" id="OutgoingData" rx="2.5" ry="2.5" style="stroke:#181818;stroke-width:0.5;" width="193" x="22.5" y="65.5"/><ellipse cx="66.75" cy="81.5" fill="#F1F1F1" rx="11" ry="11" style="stroke:#181818;stroke-width:1.0;"/><path d="M66.2344,82.0625 Q64.375,81.3594 63.7188,80.5938 Q63.0781,79.8125 63.0781,78.5 Q63.0781,76.8125 64.1563,75.8438 Q65.2344,74.875 67.1094,74.875 Q67.9688,74.875 68.8125,75.0781 Q69.6719,75.2656 70.5156,75.6563 L70.5156,78.0469 Q69.7344,77.4844 68.9063,77.2031 Q68.0938,76.9063 67.2969,76.9063 Q66.4219,76.9063 65.9375,77.2656 Q65.4688,77.625 65.4688,78.2813 Q65.4688,78.7969 65.8125,79.1406 Q66.1563,79.4688 67.25,79.875 L68.3125,80.2813 Q69.7969,80.8281 70.5,81.7344 Q71.2188,82.6406 71.2188,84.0156 Q71.2188,85.8906 70.1094,86.8125 Q69,87.7344 66.75,87.7344 Q65.8281,87.7344 64.9063,87.5156 Q63.9844,87.2969 63.125,86.875 L63.125,84.3438 Q64.0938,85.0313 65.0156,85.375 Q65.9375,85.7188 66.8281,85.7188 Q67.7344,85.7188 68.2344,85.3125 Q68.7344,84.8906 68.7344,84.1563 Q68.7344,83.5938 68.3906,83.1875 Q68.0625,82.7656 67.4375,82.5156 L66.2344,82.0625 Z " fill="#000000"/><text fill="#000000" font-family="sans-serif" font-size="14" lengthAdjust="spacing" textLength="96" x="87.25" y="86.3467">OutgoingData</text><line style="stroke:#181818;stroke-width:0.5;" x1="23.5" x2="214.5" y1="97.5" y2="97.5"/><ellipse cx="33.5" cy="111.1484" fill="none" rx="3" ry="3" style="stroke:#038048;stroke-width:1.0;"/><text fill="#000000" font-family="sans-serif" font-size="14" lengthAdjust="spacing" textLength="92" x="42.5" y="114.4951">string NodeId</text><ellipse cx="33.5" cy="127.4453" fill="none" rx="3" ry="3" style="stroke:#038048;stroke-width:1.0;"/><text fill="#000000" font-family="sans-serif" font-size="14" lengthAdjust="spacing" textLength="164" x="42.5" y="130.792">[]string OrderedChildIds</text><ellipse cx="33.5" cy="143.7422" fill="none" rx="3" ry="3" style="stroke:#038048;stroke-width:1.0;"/><text fill="#000000" font-family="sans-serif" font-size="14" lengthAdjust="spacing" textLength="167" x="42.5" y="147.0889">map[string]any AppJSON</text><line style="stroke:#181818;stroke-width:0.5;" x1="23.5" x2="214.5" y1="154.3906" y2="154.3906"/></g><!--reverse link PipeServer to GroupAndVerify--><g id="link_PipeServer_GroupAndVerify"><path codeLine="49" d="M1083.1658,179.5579 C973.6658,242.1979 810.98,335.28 690.9,403.97 " fill="none" id="PipeServer-backto-GroupAndVerify" style="stroke:#181818;stroke-width:1.0;"/><polygon fill="none" points="1098.79,170.62,1080.1865,174.3498,1086.1451,184.7659,1098.79,170.62" style="stroke:#181818;stroke-width:1.0;"/></g><!--reverse link Pushable to GroupAndVerify--><g id="link_Pushable_GroupAndVerify"><path codeLine="50" d="M1430.7378,152.32 C1404.8678,168 1382.49,180.4 1352,194.5 C1131.38,296.5 862.54,385.54 703.04,434.91 " fill="none" id="Pushable-backto-GroupAndVerify" style="stroke:#181818;stroke-width:1.0;"/><polygon fill="#181818" points="1441,146.1,1433.7956,145.7893,1430.7378,152.32,1437.9422,152.6307,1441,146.1" style="stroke:#181818;stroke-width:1.0;"/></g><!--reverse link Config to GroupAndVerifyConfig--><g id="link_Config_GroupAndVerifyConfig"><path codeLine="51" d="M818.4505,154.7024 C767.6605,182.5024 708.23,215.02 649.87,246.96 " fill="none" id="Config-backto-GroupAndVerifyConfig" style="stroke:#181818;stroke-width:1.0;"/><polygon fill="none" points="834.24,146.06,815.5697,149.4392,821.3313,159.9656,834.24,146.06" style="stroke:#181818;stroke-width:1.0;"/></g><!--reverse link GroupApply to GroupAndVerifyConfig--><g id="link_GroupApply_GroupAndVerifyConfig"><path codeLine="52" d="M581.719,174.4864 C577.649,200.5564 574.48,220.9 570.42,246.96 " fill="none" id="GroupApply-backto-GroupAndVerifyConfig" style="stroke:#181818;stroke-width:1.0;"/><polygon fill="#181818" points="583.57,162.63,578.6924,167.9412,581.719,174.4864,586.5966,169.1752,583.57,162.63" style="stroke:#181818;stroke-width:1.0;"/></g><!--reverse link GroupAndVerifyConfig to GroupAndVerify--><g id="link_GroupAndVerifyConfig_GroupAndVerify"><path codeLine="53" d="M563.6613,356.1293 C563.8613,374.4093 563.97,383.71 564.2,403.78 " fill="none" id="GroupAndVerifyConfig-backto-GroupAndVerify" style="stroke:#181818;stroke-width:1.0;"/><polygon fill="#181818" points="563.53,344.13,559.5959,350.1734,563.6613,356.1293,567.5954,350.0859,563.53,344.13" style="stroke:#181818;stroke-width:1.0;"/></g><!--SRC=[fLH1ReCm4Bpp2Xz9gkG5lQIfMj53Y4IKIvI3WnTY2MpBc4gepTzhm3HWau9KNx3PONPsTmnb2cI2Oq0Ho4-Gword2KtHbuVqUW8fkKG1Iw5GRSJFiJWLIbAMdZ6h5jxDepR7dWfejqEU3I7xihZYImP-1pNdHHyN0IC7xYyDPYF4ArROWkYGRxrIfV07POohCoc7sXxbl7aUmpaKecPubxmK6qQE86bI6GBTZ39M9YP4rhrloDjEeJSAcQQFhbY24mm8CANvzBx1EO0Zpae8ar7S3NckYaxXO9ZrMbqupn2N1EJsIZCYWRrK1whhKpWNTrXloBswqcvBeRYBdE6HHkXZcNs1emN4pUCEiYSfpCOMDMcucQPxOBmfypbb1opckUvApJpYaXqd4BZZtslJCDKFdCucr0mn8CKerQ4IlOxeUu3SIJyDHuLqsHzHk7EbXwLA-Npflmh3scj0NA5_9jQtplsNF7-lLfPpriEZPnjZEVSBOxJf52tG6yKqbsJv7mRBzvDSFm00]--></g></svg>