<?xml version="1.0" encoding="us-ascii" standalone="no"?><svg xmlns="http://www.w3.org/2000/svg" xmlns:xlink="http://www.w3.org/1999/xlink" contentStyleType="text/css" height="935px" preserveAspectRatio="none" style="width:1406px;height:935px;background:#FFFFFF;" version="1.1" viewBox="0 0 1406 935" width="1406px" zoomAndPan="magnify"><defs/><g><!--cluster Server--><g id="cluster_Server"><path d="M517.5,6 L571.5,6 A3.75,3.75 0 0 1 574,8.5 L581,28.2969 L1396.5,28.2969 A2.5,2.5 0 0 1 1399,30.7969 L1399,167.5 A2.5,2.5 0 0 1 1396.5,170 L517.5,170 A2.5,2.5 0 0 1 515,167.5 L515,8.5 A2.5,2.5 0 0 1 517.5,6 " fill="none" style="stroke:#000000;stroke-width:1.5;"/><line style="stroke:#000000;stroke-width:1.5;" x1="515" x2="581" y1="28.2969" y2="28.2969"/><text fill="#000000" font-family="sans-serif" font-size="14" font-weight="bold" lengthAdjust="spacing" textLength="53" x="519" y="20.9951">Server</text></g><!--cluster GroupAndVerify--><g id="cluster_GroupAndVerify"><path d="M8.5,14 L136.5,14 A3.75,3.75 0 0 1 139,16.5 L146,36.2969 L488.5,36.2969 A2.5,2.5 0 0 1 491,38.7969 L491,925.5 A2.5,2.5 0 0 1 488.5,928 L8.5,928 A2.5,2.5 0 0 1 6,925.5 L6,16.5 A2.5,2.5 0 0 1 8.5,14 " fill="none" style="stroke:#000000;stroke-width:1.5;"/><line style="stroke:#000000;stroke-width:1.5;" x1="6" x2="146" y1="36.2969" y2="36.2969"/><text fill="#000000" font-family="sans-serif" font-size="14" font-weight="bold" lengthAdjust="spacing" textLength="127" x="10" y="28.9951">GroupAndVerify</text></g><!--class Config--><g id="elem_Config"><rect codeLine="1" fill="#F1F1F1" height="64.2969" id="Config" rx="2.5" ry="2.5" style="stroke:#181818;stroke-width:0.5;" width="263" x="531.5" y="65.5"/><ellipse cx="636.75" cy="81.5" fill="#B4A7E5" rx="11" ry="11" style="stroke:#181818;stroke-width:1.0;"/><path d="M632.6719,77.2656 L632.6719,75.1094 L640.0625,75.1094 L640.0625,77.2656 L637.5938,77.2656 L637.5938,85.3438 L640.0625,85.3438 L640.0625,87.5 L632.6719,87.5 L632.6719,85.3438 L635.1406,85.3438 L635.1406,77.2656 L632.6719,77.2656 Z " fill="#000000"/><text fill="#000000" font-family="sans-serif" font-size="14" font-style="italic" lengthAdjust="spacing" textLength="44" x="657.25" y="86.3467">Config</text><line style="stroke:#181818;stroke-width:0.5;" x1="532.5" x2="793.5" y1="97.5" y2="97.5"/><line style="stroke:#181818;stroke-width:0.5;" x1="532.5" x2="793.5" y1="105.5" y2="105.5"/><ellipse cx="542.5" cy="119.1484" fill="#84BE84" rx="3" ry="3" style="stroke:#038048;stroke-width:1.0;"/><text fill="#000000" font-family="sans-serif" font-size="14" lengthAdjust="spacing" textLength="237" x="551.5" y="122.4951">error IngestConfig(map[string]any)</text></g><!--class PipeServer--><g id="elem_PipeServer"><rect codeLine="4" fill="#F1F1F1" height="113.1875" id="PipeServer" rx="2.5" ry="2.5" style="stroke:#181818;stroke-width:0.5;" width="276" x="830" y="41"/><ellipse cx="926.75" cy="57" fill="#B4A7E5" rx="11" ry="11" style="stroke:#181818;stroke-width:1.0;"/><path d="M922.6719,52.7656 L922.6719,50.6094 L930.0625,50.6094 L930.0625,52.7656 L927.5938,52.7656 L927.5938,60.8438 L930.0625,60.8438 L930.0625,63 L922.6719,63 L922.6719,60.8438 L925.1406,60.8438 L925.1406,52.7656 L922.6719,52.7656 Z " fill="#000000"/><text fill="#000000" font-family="sans-serif" font-size="14" font-style="italic" lengthAdjust="spacing" textLength="74" x="947.25" y="61.8467">PipeServer</text><line style="stroke:#181818;stroke-width:0.5;" x1="831" x2="1105" y1="73" y2="73"/><line style="stroke:#181818;stroke-width:0.5;" x1="831" x2="1105" y1="81" y2="81"/><ellipse cx="841" cy="94.6484" fill="#84BE84" rx="3" ry="3" style="stroke:#038048;stroke-width:1.0;"/><text fill="#000000" font-family="sans-serif" font-size="14" lengthAdjust="spacing" textLength="250" x="850" y="97.9951">error AddPushable(Server.Pushable)</text><ellipse cx="841" cy="110.9453" fill="#84BE84" rx="3" ry="3" style="stroke:#038048;stroke-width:1.0;"/><text fill="#000000" font-family="sans-serif" font-size="14" lengthAdjust="spacing" textLength="215" x="850" y="114.292">error SendTo(*Server.AppData)</text><ellipse cx="841" cy="127.2422" fill="#84BE84" rx="3" ry="3" style="stroke:#038048;stroke-width:1.0;"/><text fill="#000000" font-family="sans-serif" font-size="14" lengthAdjust="spacing" textLength="86" x="850" y="130.5889">error Serve()</text><ellipse cx="841" cy="143.5391" fill="#84BE84" rx="3" ry="3" style="stroke:#038048;stroke-width:1.0;"/><text fill="#000000" font-family="sans-serif" font-size="14" lengthAdjust="spacing" textLength="180" x="850" y="146.8857">error Setup(Server.Config)</text></g><!--class Pushable--><g id="elem_Pushable"><rect codeLine="10" fill="#F1F1F1" height="64.2969" id="Pushable" rx="2.5" ry="2.5" style="stroke:#181818;stroke-width:0.5;" width="241" x="1141.5" y="65.5"/><ellipse cx="1225.75" cy="81.5" fill="#B4A7E5" rx="11" ry="11" style="stroke:#181818;stroke-width:1.0;"/><path d="M1221.6719,77.2656 L1221.6719,75.1094 L1229.0625,75.1094 L1229.0625,77.2656 L1226.5938,77.2656 L1226.5938,85.3438 L1229.0625,85.3438 L1229.0625,87.5 L1221.6719,87.5 L1221.6719,85.3438 L1224.1406,85.3438 L1224.1406,77.2656 L1221.6719,77.2656 Z " fill="#000000"/><text fill="#000000" font-family="sans-serif" font-size="14" font-style="italic" lengthAdjust="spacing" textLength="64" x="1246.25" y="86.3467">Pushable</text><line style="stroke:#181818;stroke-width:0.5;" x1="1142.5" x2="1381.5" y1="97.5" y2="97.5"/><line style="stroke:#181818;stroke-width:0.5;" x1="1142.5" x2="1381.5" y1="105.5" y2="105.5"/><ellipse cx="1152.5" cy="119.1484" fill="#84BE84" rx="3" ry="3" style="stroke:#038048;stroke-width:1.0;"/><text fill="#000000" font-family="sans-serif" font-size="14" lengthAdjust="spacing" textLength="215" x="1161.5" y="122.4951">error SendTo(*Server.AppData)</text></g><!--class GroupApply--><g id="elem_GroupApply"><rect codeLine="15" fill="#F1F1F1" height="96.8906" id="GroupApply" rx="2.5" ry="2.5" style="stroke:#181818;stroke-width:0.5;" width="224" x="251" y="49"/><ellipse cx="318.75" cy="65" fill="#F1F1F1" rx="11" ry="11" style="stroke:#181818;stroke-width:1.0;"/><path d="M318.2344,65.5625 Q316.375,64.8594 315.7188,64.0938 Q315.0781,63.3125 315.0781,62 Q315.0781,60.3125 316.1563,59.3438 Q317.2344,58.375 319.1094,58.375 Q319.9688,58.375 320.8125,58.5781 Q321.6719,58.7656 322.5156,59.1563 L322.5156,61.5469 Q321.7344,60.9844 320.9063,60.7031 Q320.0938,60.4063 319.2969,60.4063 Q318.4219,60.4063 317.9375,60.7656 Q317.4688,61.125 317.4688,61.7813 Q317.4688,62.2969 317.8125,62.6406 Q318.1563,62.9688 319.25,63.375 L320.3125,63.7813 Q321.7969,64.3281 322.5,65.2344 Q323.2188,66.1406 323.2188,67.5156 Q323.2188,69.3906 322.1094,70.3125 Q321,71.2344 318.75,71.2344 Q317.8281,71.2344 316.9063,71.0156 Q315.9844,70.7969 315.125,70.375 L315.125,67.8438 Q316.0938,68.5313 317.0156,68.875 Q317.9375,69.2188 318.8281,69.2188 Q319.7344,69.2188 320.2344,68.8125 Q320.7344,68.3906 320.7344,67.6563 Q320.7344,67.0938 320.3906,66.6875 Q320.0625,66.2656 319.4375,66.0156 L318.2344,65.5625 Z " fill="#000000"/><text fill="#000000" font-family="sans-serif" font-size="14" lengthAdjust="spacing" textLength="80" x="339.25" y="69.8467">GroupApply</text><line style="stroke:#181818;stroke-width:0.5;" x1="252" x2="474" y1="81" y2="81"/><ellipse cx="262" cy="94.6484" fill="none" rx="3" ry="3" style="stroke:#038048;stroke-width:1.0;"/><text fill="#000000" font-family="sans-serif" font-size="14" lengthAdjust="spacing" textLength="133" x="271" y="97.9951">string FieldToShare</text><ellipse cx="262" cy="110.9453" fill="none" rx="3" ry="3" style="stroke:#038048;stroke-width:1.0;"/><text fill="#000000" font-family="sans-serif" font-size="14" lengthAdjust="spacing" textLength="145" x="271" y="114.292">string IdentifyingField</text><ellipse cx="262" cy="127.2422" fill="none" rx="3" ry="3" style="stroke:#038048;stroke-width:1.0;"/><text fill="#000000" font-family="sans-serif" font-size="14" lengthAdjust="spacing" textLength="198" x="271" y="130.5889">string ValueOfIdentifyingField</text><line style="stroke:#181818;stroke-width:0.5;" x1="252" x2="474" y1="137.8906" y2="137.8906"/></g><!--class GroupAndVerifyConfig--><g id="elem_GroupAndVerifyConfig"><rect codeLine="21" fill="#F1F1F1" height="113.1875" id="GroupAndVerifyConfig" rx="2.5" ry="2.5" style="stroke:#181818;stroke-width:0.5;" width="280" x="195" y="214"/><ellipse cx="255.25" cy="230" fill="#F1F1F1" rx="11" ry="11" style="stroke:#181818;stroke-width:1.0;"/><path d="M254.7344,230.5625 Q252.875,229.8594 252.2188,229.0938 Q251.5781,228.3125 251.5781,227 Q251.5781,225.3125 252.6563,224.3438 Q253.7344,223.375 255.6094,223.375 Q256.4688,223.375 257.3125,223.5781 Q258.1719,223.7656 259.0156,224.1563 L259.0156,226.5469 Q258.2344,225.9844 257.4063,225.7031 Q256.5938,225.4063 255.7969,225.4063 Q254.9219,225.4063 254.4375,225.7656 Q253.9688,226.125 253.9688,226.7813 Q253.9688,227.2969 254.3125,227.6406 Q254.6563,227.9688 255.75,228.375 L256.8125,228.7813 Q258.2969,229.3281 259,230.2344 Q259.7188,231.1406 259.7188,232.5156 Q259.7188,234.3906 258.6094,235.3125 Q257.5,236.2344 255.25,236.2344 Q254.3281,236.2344 253.4063,236.0156 Q252.4844,235.7969 251.625,235.375 L251.625,232.8438 Q252.5938,233.5313 253.5156,233.875 Q254.4375,234.2188 255.3281,234.2188 Q256.2344,234.2188 256.7344,233.8125 Q257.2344,233.3906 257.2344,232.6563 Q257.2344,232.0938 256.8906,231.6875 Q256.5625,231.2656 255.9375,231.0156 L254.7344,230.5625 Z " fill="#000000"/><text fill="#000000" font-family="sans-serif" font-size="14" lengthAdjust="spacing" textLength="151" x="275.75" y="234.8467">GroupAndVerifyConfig</text><line style="stroke:#181818;stroke-width:0.5;" x1="196" x2="474" y1="246" y2="246"/><rect fill="none" height="6" style="stroke:#C82930;stroke-width:1.0;" width="6" x="203" y="256.6484"/><text fill="#000000" font-family="sans-serif" font-size="14" lengthAdjust="spacing" textLength="222" x="215" y="262.9951">bool orderChildrenByTimestamp</text><rect fill="none" height="6" style="stroke:#C82930;stroke-width:1.0;" width="6" x="203" y="272.9453"/><text fill="#000000" font-family="sans-serif" font-size="14" lengthAdjust="spacing" textLength="254" x="215" y="279.292">map[string]GroupApply groupApplies</text><rect fill="none" height="6" style="stroke:#C82930;stroke-width:1.0;" width="6" x="203" y="289.2422"/><text fill="#000000" font-family="sans-serif" font-size="14" lengthAdjust="spacing" textLength="218" x="215" y="295.5889">map[string]bool parentVerifySet</text><line style="stroke:#181818;stroke-width:0.5;" x1="196" x2="474" y1="302.8906" y2="302.8906"/><ellipse cx="206" cy="316.5391" fill="#84BE84" rx="3" ry="3" style="stroke:#038048;stroke-width:1.0;"/><text fill="#000000" font-family="sans-serif" font-size="14" lengthAdjust="spacing" textLength="237" x="215" y="319.8857">error IngestConfig(map[string]any)</text></g><!--class GroupAndVerify--><g id="elem_GroupAndVerify"><rect codeLine="27" fill="#F1F1F1" height="162.0781" id="GroupAndVerify" rx="2.5" ry="2.5" style="stroke:#181818;stroke-width:0.5;" width="276" x="199" y="387"/><ellipse cx="279.25" cy="403" fill="#F1F1F1" rx="11" ry="11" style="stroke:#181818;stroke-width:1.0;"/><path d="M278.7344,403.5625 Q276.875,402.8594 276.2188,402.0938 Q275.5781,401.3125 275.5781,400 Q275.5781,398.3125 276.6563,397.3438 Q277.7344,396.375 279.6094,396.375 Q280.4688,396.375 281.3125,396.5781 Q282.1719,396.7656 283.0156,397.1563 L283.0156,399.5469 Q282.2344,398.9844 281.4063,398.7031 Q280.5938,398.4063 279.7969,398.4063 Q278.9219,398.4063 278.4375,398.7656 Q277.9688,399.125 277.9688,399.7813 Q277.9688,400.2969 278.3125,400.6406 Q278.6563,400.9688 279.75,401.375 L280.8125,401.7813 Q282.2969,402.3281 283,403.2344 Q283.7188,404.1406 283.7188,405.5156 Q283.7188,407.3906 282.6094,408.3125 Q281.5,409.2344 279.25,409.2344 Q278.3281,409.2344 277.4063,409.0156 Q276.4844,408.7969 275.625,408.375 L275.625,405.8438 Q276.5938,406.5313 277.5156,406.875 Q278.4375,407.2188 279.3281,407.2188 Q280.2344,407.2188 280.7344,406.8125 Q281.2344,406.3906 281.2344,405.6563 Q281.2344,405.0938 280.8906,404.6875 Q280.5625,404.2656 279.9375,404.0156 L278.7344,403.5625 Z " fill="#000000"/><text fill="#000000" font-family="sans-serif" font-size="14" lengthAdjust="spacing" textLength="107" x="299.75" y="407.8467">GroupAndVerify</text><line style="stroke:#181818;stroke-width:0.5;" x1="200" x2="474" y1="419" y2="419"/><rect fill="none" height="6" style="stroke:#C82930;stroke-width:1.0;" width="6" x="207" y="429.6484"/><text fill="#000000" font-family="sans-serif" font-size="14" lengthAdjust="spacing" textLength="197" x="219" y="435.9951">GroupAndVerifyConfig config</text><rect fill="none" height="6" style="stroke:#C82930;stroke-width:1.0;" width="6" x="207" y="445.9453"/><text fill="#000000" font-family="sans-serif" font-size="14" lengthAdjust="spacing" textLength="180" x="219" y="452.292">Server.Pushable pushable</text><rect fill="none" height="6" style="stroke:#C82930;stroke-width:1.0;" width="6" x="207" y="462.2422"/><text fill="#000000" font-family="sans-serif" font-size="14" lengthAdjust="spacing" textLength="147" x="219" y="468.5889">chan *Task taskChan</text><line style="stroke:#181818;stroke-width:0.5;" x1="200" x2="474" y1="475.8906" y2="475.8906"/><ellipse cx="210" cy="489.5391" fill="#84BE84" rx="3" ry="3" style="stroke:#038048;stroke-width:1.0;"/><text fill="#000000" font-family="sans-serif" font-size="14" lengthAdjust="spacing" textLength="250" x="219" y="492.8857">error AddPushable(Server.Pushable)</text><ellipse cx="210" cy="505.8359" fill="#84BE84" rx="3" ry="3" style="stroke:#038048;stroke-width:1.0;"/><text fill="#000000" font-family="sans-serif" font-size="14" lengthAdjust="spacing" textLength="215" x="219" y="509.1826">error SendTo(*Server.AppData)</text><ellipse cx="210" cy="522.1328" fill="#84BE84" rx="3" ry="3" style="stroke:#038048;stroke-width:1.0;"/><text fill="#000000" font-family="sans-serif" font-size="14" lengthAdjust="spacing" textLength="86" x="219" y="525.4795">error Serve()</text><ellipse cx="210" cy="538.4297" fill="#84BE84" rx="3" ry="3" style="stroke:#038048;stroke-width:1.0;"/><text fill="#000000" font-family="sans-serif" font-size="14" lengthAdjust="spacing" textLength="180" x="219" y="541.7764">error Setup(Server.Config)</text></g><!--class Task--><g id="elem_Task"><rect codeLine="36" fill="#F1F1F1" height="80.5938" id="Task" rx="2.5" ry="2.5" style="stroke:#181818;stroke-width:0.5;" width="170" x="252" y="609"/><ellipse cx="316.25" cy="625" fill="#F1F1F1" rx="11" ry="11" style="stroke:#181818;stroke-width:1.0;"/><path d="M315.7344,625.5625 Q313.875,624.8594 313.2188,624.0938 Q312.5781,623.3125 312.5781,622 Q312.5781,620.3125 313.6563,619.3438 Q314.7344,618.375 316.6094,618.375 Q317.4688,618.375 318.3125,618.5781 Q319.1719,618.7656 320.0156,619.1563 L320.0156,621.5469 Q319.2344,620.9844 318.4063,620.7031 Q317.5938,620.4063 316.7969,620.4063 Q315.9219,620.4063 315.4375,620.7656 Q314.9688,621.125 314.9688,621.7813 Q314.9688,622.2969 315.3125,622.6406 Q315.6563,622.9688 316.75,623.375 L317.8125,623.7813 Q319.2969,624.3281 320,625.2344 Q320.7188,626.1406 320.7188,627.5156 Q320.7188,629.3906 319.6094,630.3125 Q318.5,631.2344 316.25,631.2344 Q315.3281,631.2344 314.4063,631.0156 Q313.4844,630.7969 312.625,630.375 L312.625,627.8438 Q313.5938,628.5313 314.5156,628.875 Q315.4375,629.2188 316.3281,629.2188 Q317.2344,629.2188 317.7344,628.8125 Q318.2344,628.3906 318.2344,627.6563 Q318.2344,627.0938 317.8906,626.6875 Q317.5625,626.2656 316.9375,626.0156 L315.7344,625.5625 Z " fill="#000000"/><text fill="#000000" font-family="sans-serif" font-size="14" lengthAdjust="spacing" textLength="33" x="336.75" y="629.8467">Task</text><line style="stroke:#181818;stroke-width:0.5;" x1="253" x2="421" y1="641" y2="641"/><ellipse cx="263" cy="654.6484" fill="none" rx="3" ry="3" style="stroke:#038048;stroke-width:1.0;"/><text fill="#000000" font-family="sans-serif" font-size="14" lengthAdjust="spacing" textLength="136" x="272" y="657.9951">IncomingData Node</text><ellipse cx="263" cy="670.9453" fill="none" rx="3" ry="3" style="stroke:#038048;stroke-width:1.0;"/><text fill="#000000" font-family="sans-serif" font-size="14" lengthAdjust="spacing" textLength="144" x="272" y="674.292">chan error ErrorChan</text><line style="stroke:#181818;stroke-width:0.5;" x1="253" x2="421" y1="681.5938" y2="681.5938"/></g><!--class IncomingData--><g id="elem_IncomingData"><rect codeLine="40" fill="#F1F1F1" height="162.0781" id="IncomingData" rx="2.5" ry="2.5" style="stroke:#181818;stroke-width:0.5;" width="193" x="240.5" y="750"/><ellipse cx="285.25" cy="766" fill="#F1F1F1" rx="11" ry="11" style="stroke:#181818;stroke-width:1.0;"/><path d="M284.7344,766.5625 Q282.875,765.8594 282.2188,765.0938 Q281.5781,764.3125 281.5781,763 Q281.5781,761.3125 282.6563,760.3438 Q283.7344,759.375 285.6094,759.375 Q286.4688,759.375 287.3125,759.5781 Q288.1719,759.7656 289.0156,760.1563 L289.0156,762.5469 Q288.2344,761.9844 287.4063,761.7031 Q286.5938,761.4063 285.7969,761.4063 Q284.9219,761.4063 284.4375,761.7656 Q283.9688,762.125 283.9688,762.7813 Q283.9688,763.2969 284.3125,763.6406 Q284.6563,763.9688 285.75,764.375 L286.8125,764.7813 Q288.2969,765.3281 289,766.2344 Q289.7188,767.1406 289.7188,768.5156 Q289.7188,770.3906 288.6094,771.3125 Q287.5,772.2344 285.25,772.2344 Q284.3281,772.2344 283.4063,772.0156 Q282.4844,771.7969 281.625,771.375 L281.625,768.8438 Q282.5938,769.5313 283.5156,769.875 Q284.4375,770.2188 285.3281,770.2188 Q286.2344,770.2188 286.7344,769.8125 Q287.2344,769.3906 287.2344,768.6563 Q287.2344,768.0938 286.8906,767.6875 Q286.5625,767.2656 285.9375,767.0156 L284.7344,766.5625 Z " fill="#000000"/><text fill="#000000" font-family="sans-serif" font-size="14" lengthAdjust="spacing" textLength="95" x="305.75" y="770.8467">IncomingData</text><line style="stroke:#181818;stroke-width:0.5;" x1="241.5" x2="432.5" y1="782" y2="782"/><ellipse cx="251.5" cy="795.6484" fill="none" rx="3" ry="3" style="stroke:#038048;stroke-width:1.0;"/><text fill="#000000" font-family="sans-serif" font-size="14" lengthAdjust="spacing" textLength="87" x="260.5" y="798.9951">string TreeId</text><ellipse cx="251.5" cy="811.9453" fill="none" rx="3" ry="3" style="stroke:#038048;stroke-width:1.0;"/><text fill="#000000" font-family="sans-serif" font-size="14" lengthAdjust="spacing" textLength="92" x="260.5" y="815.292">string NodeId</text><ellipse cx="251.5" cy="828.2422" fill="none" rx="3" ry="3" style="stroke:#038048;stroke-width:1.0;"/><text fill="#000000" font-family="sans-serif" font-size="14" lengthAdjust="spacing" textLength="100" x="260.5" y="831.5889">string ParentId</text><ellipse cx="251.5" cy="844.5391" fill="none" rx="3" ry="3" style="stroke:#038048;stroke-width:1.0;"/><text fill="#000000" font-family="sans-serif" font-size="14" lengthAdjust="spacing" textLength="107" x="260.5" y="847.8857">[]string ChildIds</text><ellipse cx="251.5" cy="860.8359" fill="none" rx="3" ry="3" style="stroke:#038048;stroke-width:1.0;"/><text fill="#000000" font-family="sans-serif" font-size="14" lengthAdjust="spacing" textLength="114" x="260.5" y="864.1826">string NodeType</text><ellipse cx="251.5" cy="877.1328" fill="none" rx="3" ry="3" style="stroke:#038048;stroke-width:1.0;"/><text fill="#000000" font-family="sans-serif" font-size="14" lengthAdjust="spacing" textLength="98" x="260.5" y="880.4795">int Timestamp</text><ellipse cx="251.5" cy="893.4297" fill="none" rx="3" ry="3" style="stroke:#038048;stroke-width:1.0;"/><text fill="#000000" font-family="sans-serif" font-size="14" lengthAdjust="spacing" textLength="167" x="260.5" y="896.7764">map[string]any AppJSON</text><line style="stroke:#181818;stroke-width:0.5;" x1="241.5" x2="432.5" y1="904.0781" y2="904.0781"/></g><!--class OutgoingData--><g id="elem_OutgoingData"><rect codeLine="49" fill="#F1F1F1" height="96.8906" id="OutgoingData" rx="2.5" ry="2.5" style="stroke:#181818;stroke-width:0.5;" width="193" x="22.5" y="49"/><ellipse cx="66.75" cy="65" fill="#F1F1F1" rx="11" ry="11" style="stroke:#181818;stroke-width:1.0;"/><path d="M66.2344,65.5625 Q64.375,64.8594 63.7188,64.0938 Q63.0781,63.3125 63.0781,62 Q63.0781,60.3125 64.1563,59.3438 Q65.2344,58.375 67.1094,58.375 Q67.9688,58.375 68.8125,58.5781 Q69.6719,58.7656 70.5156,59.1563 L70.5156,61.5469 Q69.7344,60.9844 68.9063,60.7031 Q68.0938,60.4063 67.2969,60.4063 Q66.4219,60.4063 65.9375,60.7656 Q65.4688,61.125 65.4688,61.7813 Q65.4688,62.2969 65.8125,62.6406 Q66.1563,62.9688 67.25,63.375 L68.3125,63.7813 Q69.7969,64.3281 70.5,65.2344 Q71.2188,66.1406 71.2188,67.5156 Q71.2188,69.3906 70.1094,70.3125 Q69,71.2344 66.75,71.2344 Q65.8281,71.2344 64.9063,71.0156 Q63.9844,70.7969 63.125,70.375 L63.125,67.8438 Q64.0938,68.5313 65.0156,68.875 Q65.9375,69.2188 66.8281,69.2188 Q67.7344,69.2188 68.2344,68.8125 Q68.7344,68.3906 68.7344,67.6563 Q68.7344,67.0938 68.3906,66.6875 Q68.0625,66.2656 67.4375,66.0156 L66.2344,65.5625 Z " fill="#000000"/><text fill="#000000" font-family="sans-serif" font-size="14" lengthAdjust="spacing" textLength="96" x="87.25" y="69.8467">OutgoingData</text><line style="stroke:#181818;stroke-width:0.5;" x1="23.5" x2="214.5" y1="81" y2="81"/><ellipse cx="33.5" cy="94.6484" fill="none" rx="3" ry="3" style="stroke:#038048;stroke-width:1.0;"/><text fill="#000000" font-family="sans-serif" font-size="14" lengthAdjust="spacing" textLength="92" x="42.5" y="97.9951">string NodeId</text><ellipse cx="33.5" cy="110.9453" fill="none" rx="3" ry="3" style="stroke:#038048;stroke-width:1.0;"/><text fill="#000000" font-family="sans-serif" font-size="14" lengthAdjust="spacing" textLength="164" x="42.5" y="114.292">[]string OrderedChildIds</text><ellipse cx="33.5" cy="127.2422" fill="none" rx="3" ry="3" style="stroke:#038048;stroke-width:1.0;"/><text fill="#000000" font-family="sans-serif" font-size="14" lengthAdjust="spacing" textLength="167" x="42.5" y="130.5889">map[string]any AppJSON</text><line style="stroke:#181818;stroke-width:0.5;" x1="23.5" x2="214.5" y1="137.8906" y2="137.8906"/></g><!--reverse link PipeServer to GroupAndVerify--><g id="link_PipeServer_GroupAndVerify"><path codeLine="56" d="M857.3062,163.1469 C751.3562,225.0169 594.72,316.5 474.21,386.87 " fill="none" id="PipeServer-backto-GroupAndVerify" style="stroke:#181818;stroke-width:1.0;"/><polygon fill="none" points="872.85,154.07,854.2806,157.9656,860.3318,168.3282,872.85,154.07" style="stroke:#181818;stroke-width:1.0;"/></g><!--reverse link Pushable to GroupAndVerify--><g id="link_Pushable_GroupAndVerify"><path codeLine="57" d="M1202.3598,135.8967 C1176.5298,151.5067 1154.31,163.83 1124,178 C903.3,281.17 634.78,372.97 475.31,424.17 " fill="none" id="Pushable-backto-GroupAndVerify" style="stroke:#181818;stroke-width:1.0;"/><polygon fill="#181818" points="1212.63,129.69,1205.426,129.3699,1202.3598,135.8967,1209.5638,136.2167,1212.63,129.69" style="stroke:#181818;stroke-width:1.0;"/></g><!--reverse link Config to GroupAndVerifyConfig--><g id="link_Config_GroupAndVerifyConfig"><path codeLine="58" d="M587.2586,137.9906 C542.1786,161.4906 495.11,186.03 441.47,213.99 " fill="none" id="Config-backto-GroupAndVerifyConfig" style="stroke:#181818;stroke-width:1.0;"/><polygon fill="none" points="603.22,129.67,584.485,132.6701,590.0321,143.3111,603.22,129.67" style="stroke:#181818;stroke-width:1.0;"/></g><!--reverse link GroupApply to GroupAndVerifyConfig--><g id="link_GroupApply_GroupAndVerifyConfig"><path codeLine="59" d="M353.2591,157.972 C349.8091,179.022 347.68,192.07 344.09,213.96 " fill="none" id="GroupApply-backto-GroupAndVerifyConfig" style="stroke:#181818;stroke-width:1.0;"/><polygon fill="#181818" points="355.2,146.13,350.2822,151.4041,353.2591,157.972,358.1769,152.698,355.2,146.13" style="stroke:#181818;stroke-width:1.0;"/></g><!--reverse link GroupAndVerifyConfig to GroupAndVerify--><g id="link_GroupAndVerifyConfig_GroupAndVerify"><path codeLine="60" d="M335.6932,339.2594 C335.8832,357.7694 335.97,366.76 336.18,386.74 " fill="none" id="GroupAndVerifyConfig-backto-GroupAndVerify" style="stroke:#181818;stroke-width:1.0;"/><polygon fill="#181818" points="335.57,327.26,331.6318,333.3007,335.6932,339.2594,339.6314,333.2186,335.57,327.26" style="stroke:#181818;stroke-width:1.0;"/></g><!--reverse link Task to IncomingData--><g id="link_Task_IncomingData"><path codeLine="61" d="M337,702.34 C337,719.9 337,729.19 337,749.81 " fill="none" id="Task-backto-IncomingData" style="stroke:#181818;stroke-width:1.0;"/><polygon fill="#181818" points="337,690.34,333,696.34,337,702.34,341,696.34,337,690.34" style="stroke:#181818;stroke-width:1.0;"/></g><!--reverse link GroupAndVerify to Task--><g id="link_GroupAndVerify_Task"><path codeLine="62" d="M337,561.04 C337,581.79 337,591.25 337,608.9 " fill="none" id="GroupAndVerify-backto-Task" style="stroke:#181818;stroke-width:1.0;"/><polygon fill="#181818" points="337,549.04,333,555.04,337,561.04,341,555.04,337,549.04" style="stroke:#181818;stroke-width:1.0;"/></g><!--SRC=[fLJBZi8W5DttArXMZNx1R1pdaSv2JMpS61TORYkP2eJIISoC_pwKrf42FfBfegMzXtFFWKCfKo1pd05QWVm2EPbnbjC2VKT8NoEGaakKi08grLRY0nQRIadAYYrcnq5qYgZBiQG2sc6VPqh8igxsU5T2V8PsxmCRjm96KXuFEynKY1Uii0FHfTZvf6eHzso4rNKj-zgkzJn54SC7g4J3y2vvBQQCh47I_DWHwCMeCzNLX2ZFtmrvkrBeZKAfwLTxBC4h9WIOqdnwR70UO8tB6XPv47T2aQ_YhB2tcSqrtd5U8Yu9oDcUbaG2UpwcLFjJ-20kC6kJBL_5UKYX2c8Dkz0UcMe5w3svk7aWJCRHTJ-saw3Jp3mk87VBHJUu8B8zPcYOukeJANsRwLTNyTtOFXZTA_6z5s5lJOnOAsC9o_X1Bs7J2SqviH9ctBNShytzprwFi4VWXpUL08cVogPJuFFIRBzTs6oxaebSGgeWLNeKbd1zQf6Vor4_BqWlxyTgCVSTBMfLyEkENEb_2XVDoG3Y2xtPMFyZ_3_VqyzuxCHtqd-Dt7GE7vtHfVr-YnOO1J7cI0__m-0SlllodQe9Sc2MdSVRdKEp6zPV]--></g></svg>