<?xml version="1.0" encoding="us-ascii" standalone="no"?><svg xmlns="http://www.w3.org/2000/svg" xmlns:xlink="http://www.w3.org/1999/xlink" contentStyleType="text/css" height="1487px" preserveAspectRatio="none" style="width:1253px;height:1487px;background:#FFFFFF;" version="1.1" viewBox="0 0 1253 1487" width="1253px" zoomAndPan="magnify"><defs/><g><rect fill="none" height="1465.25" style="stroke:#000000;stroke-width:1.5;" width="1231.5" x="11" y="11"/><path d="M128,11 L128,20.2969 L118,30.2969 L11,30.2969 " fill="none" style="stroke:#000000;stroke-width:1.5;"/><text fill="#000000" font-family="sans-serif" font-size="14" lengthAdjust="spacing" textLength="107" x="14" y="24.9951">GroupAndVerify</text><line style="stroke:none;stroke-width:1.5;" x1="112" x2="720.75" y1="35.2969" y2="35.2969"/><polygon fill="none" points="23,678.9922,62,678.9922,69,701.2891,201,701.2891,201,825.5547,23,825.5547,23,678.9922" style="stroke:#000000;stroke-width:1.5;"/><line style="stroke:#000000;stroke-width:1.5;" x1="23" x2="69" y1="701.2891" y2="701.2891"/><text fill="#000000" font-family="sans-serif" font-size="14" lengthAdjust="spacing" textLength="33" x="27" y="693.9873">main</text><rect fill="none" height="90.2656" style="stroke:#000000;stroke-width:1.5;" width="158" x="33" y="715.2891"/><path d="M86,715.2891 L86,724.5859 L76,734.5859 L33,734.5859 " fill="none" style="stroke:#000000;stroke-width:1.5;"/><text fill="#000000" font-family="sans-serif" font-size="14" lengthAdjust="spacing" textLength="43" x="36" y="729.2842">main()</text><rect fill="#F1F1F1" height="33.9688" rx="12.5" ry="12.5" style="stroke:#181818;stroke-width:0.5;" width="138" x="43" y="751.5859"/><text fill="#000000" font-family="sans-serif" font-size="12" lengthAdjust="spacing" textLength="118" x="53" y="772.7246">Call Server.RunApp</text><polygon fill="none" points="211,40.2969,319,40.2969,326,62.5938,1230.5,62.5938,1230.5,1464.25,211,1464.25,211,40.2969" style="stroke:#000000;stroke-width:1.5;"/><line style="stroke:#000000;stroke-width:1.5;" x1="211" x2="326" y1="62.5938" y2="62.5938"/><text fill="#000000" font-family="sans-serif" font-size="14" lengthAdjust="spacing" textLength="102" x="215" y="55.292">groupandverify</text><line style="stroke:none;stroke-width:1.5;" x1="708.75" x2="720.75" y1="76.5938" y2="76.5938"/><rect fill="none" height="90.2656" style="stroke:#000000;stroke-width:1.5;" width="344" x="536.75" y="98.0938"/><path d="M870.75,98.0938 L870.75,107.3906 L860.75,117.3906 L536.75,117.3906 " fill="none" style="stroke:#000000;stroke-width:1.5;"/><text fill="#000000" font-family="sans-serif" font-size="14" lengthAdjust="spacing" textLength="324" x="539.75" y="112.0889">AddPushable(*GroupAndVerify, Pushable) error</text><rect fill="#F1F1F1" height="33.9688" rx="12.5" ry="12.5" style="stroke:#181818;stroke-width:0.5;" width="281" x="568.25" y="134.3906"/><text fill="#000000" font-family="sans-serif" font-size="12" lengthAdjust="spacing" textLength="261" x="578.25" y="155.5293">Add Pushable to GroupAndVerify instance</text><rect fill="none" height="159.2344" style="stroke:#000000;stroke-width:1.5;" width="330" x="543.75" y="223.3594"/><path d="M807.75,223.3594 L807.75,232.6563 L797.75,242.6563 L543.75,242.6563 " fill="none" style="stroke:#000000;stroke-width:1.5;"/><text fill="#000000" font-family="sans-serif" font-size="14" lengthAdjust="spacing" textLength="254" x="546.75" y="237.3545">Setup(*GroupAndVerify, Config) error</text><rect fill="#F1F1F1" height="33.9688" rx="12.5" ry="12.5" style="stroke:#181818;stroke-width:0.5;" width="310" x="553.75" y="259.6563"/><text fill="#000000" font-family="sans-serif" font-size="12" lengthAdjust="spacing" textLength="290" x="563.75" y="280.7949">check if config is of GroupAndVerifyConfig type</text><rect fill="#F1F1F1" height="33.9688" rx="12.5" ry="12.5" style="stroke:#181818;stroke-width:0.5;" width="261" x="578.25" y="328.625"/><text fill="#000000" font-family="sans-serif" font-size="12" lengthAdjust="spacing" textLength="241" x="588.25" y="349.7637">add config to GroupAndVerify instance</text><rect fill="none" height="1006.6563" style="stroke:#000000;stroke-width:1.5;" width="971.5" x="235" y="417.5938"/><path d="M445,417.5938 L445,426.8906 L435,436.8906 L235,436.8906 " fill="none" style="stroke:#000000;stroke-width:1.5;"/><text fill="#000000" font-family="sans-serif" font-size="14" lengthAdjust="spacing" textLength="200" x="238" y="431.5889">Serve(*GroupAndVerify) error</text><rect fill="#F1F1F1" height="33.9688" rx="12.5" ry="12.5" style="stroke:#181818;stroke-width:0.5;" width="218" x="599.75" y="453.8906"/><text fill="#000000" font-family="sans-serif" font-size="12" lengthAdjust="spacing" textLength="198" x="609.75" y="475.0293">create tree completion channel</text><rect fill="#F1F1F1" height="33.9688" rx="12.5" ry="12.5" style="stroke:#181818;stroke-width:0.5;" width="420" x="498.75" y="522.8594"/><text fill="#000000" font-family="sans-serif" font-size="12" lengthAdjust="spacing" textLength="400" x="508.75" y="543.998">create map of tree id to channel for sending and receiving work</text><polygon fill="#F1F1F1" points="708.75,663.8281,708.75,663.8281,720.75,675.8281,708.75,687.8281,708.75,687.8281,696.75,675.8281,708.75,663.8281" style="stroke:#181818;stroke-width:0.5;"/><rect fill="#F1F1F1" height="33.9688" rx="12.5" ry="12.5" style="stroke:#181818;stroke-width:0.5;" width="159" x="291.5" y="723.4375"/><text fill="#000000" font-family="sans-serif" font-size="12" lengthAdjust="spacing" textLength="139" x="301.5" y="744.5762">see if tree id is in map</text><rect fill="#F1F1F1" height="33.9688" rx="12.5" ry="12.5" style="stroke:#181818;stroke-width:0.5;" width="166" x="288" y="840.4063"/><text fill="#000000" font-family="sans-serif" font-size="12" lengthAdjust="spacing" textLength="146" x="298" y="861.5449">create channel for tree</text><rect fill="#F1F1F1" height="33.9688" rx="12.5" ry="12.5" style="stroke:#181818;stroke-width:0.5;" width="232" x="255" y="909.375"/><text fill="#000000" font-family="sans-serif" font-size="12" lengthAdjust="spacing" textLength="212" x="265" y="930.5137">add channel to map under tree id</text><rect fill="#F1F1F1" height="33.9688" rx="12.5" ry="12.5" style="stroke:#181818;stroke-width:0.5;" width="231" x="255.5" y="978.3438"/><text fill="#000000" font-family="sans-serif" font-size="12" lengthAdjust="spacing" textLength="211" x="265.5" y="999.4824">create go routine to process tree</text><polygon fill="#F1F1F1" points="313,792.4063,429,792.4063,441,804.4063,429,816.4063,313,816.4063,301,804.4063,313,792.4063" style="stroke:#181818;stroke-width:0.5;"/><text fill="#000000" font-family="sans-serif" font-size="11" lengthAdjust="spacing" textLength="116" x="313" y="808.2144">tree id is not in map</text><polygon fill="#F1F1F1" points="371,1036.3125,383,1048.3125,371,1060.3125,359,1048.3125,371,1036.3125" style="stroke:#181818;stroke-width:0.5;"/><rect fill="#F1F1F1" height="33.9688" rx="12.5" ry="12.5" style="stroke:#181818;stroke-width:0.5;" width="161" x="290.5" y="1095.3125"/><text fill="#000000" font-family="sans-serif" font-size="12" lengthAdjust="spacing" textLength="141" x="300.5" y="1116.4512">get channel for tree id</text><rect fill="#F1F1F1" height="33.9688" rx="12.5" ry="12.5" style="stroke:#181818;stroke-width:0.5;" width="183" x="279.5" y="1164.2813"/><text fill="#000000" font-family="sans-serif" font-size="12" lengthAdjust="spacing" textLength="163" x="289.5" y="1185.4199">send task to tree channel</text><rect fill="#F1F1F1" height="33.9688" rx="12.5" ry="12.5" style="stroke:#181818;stroke-width:0.5;" width="173" x="699.5" y="723.4375"/><text fill="#000000" font-family="sans-serif" font-size="12" lengthAdjust="spacing" textLength="153" x="709.5" y="744.5762">process tree completion</text><rect fill="#F1F1F1" height="33.9688" rx="12.5" ry="12.5" style="stroke:#181818;stroke-width:0.5;" width="402" x="585" y="792.4063"/><text fill="#000000" font-family="sans-serif" font-size="12" lengthAdjust="spacing" textLength="382" x="595" y="813.5449">check for any remaining tasks in tree channel not completed</text><polygon fill="#F1F1F1" points="712,861.375,860,861.375,872,873.375,860,885.375,712,885.375,700,873.375,712,861.375" style="stroke:#181818;stroke-width:0.5;"/><text fill="#000000" font-family="sans-serif" font-size="11" lengthAdjust="spacing" textLength="148" x="712" y="877.1831">check for remaining tasks</text><text fill="#000000" font-family="sans-serif" font-size="11" lengthAdjust="spacing" textLength="110" x="590" y="870.7808">no remaining tasks</text><text fill="#000000" font-family="sans-serif" font-size="11" lengthAdjust="spacing" textLength="92" x="872" y="870.7808">remaining tasks</text><rect fill="#F1F1F1" height="33.9688" rx="12.5" ry="12.5" style="stroke:#181818;stroke-width:0.5;" width="137" x="583" y="895.375"/><text fill="#000000" font-family="sans-serif" font-size="12" lengthAdjust="spacing" textLength="117" x="593" y="916.5137">close tree channel</text><rect fill="#F1F1F1" height="33.9688" rx="12.5" ry="12.5" style="stroke:#181818;stroke-width:0.5;" width="207" x="548" y="964.3438"/><text fill="#000000" font-family="sans-serif" font-size="12" lengthAdjust="spacing" textLength="187" x="558" y="985.4824">delete tree channel from map</text><rect fill="#F1F1F1" height="33.9688" rx="12.5" ry="12.5" style="stroke:#181818;stroke-width:0.5;" width="291" x="775" y="895.375"/><text fill="#000000" font-family="sans-serif" font-size="12" lengthAdjust="spacing" textLength="271" x="785" y="916.5137">send remaining tasks back to task channel</text><polygon fill="#F1F1F1" points="786,1004.3125,798,1016.3125,786,1028.3125,774,1016.3125,786,1004.3125" style="stroke:#181818;stroke-width:0.5;"/><rect fill="#F1F1F1" height="33.9688" rx="12.5" ry="12.5" style="stroke:#181818;stroke-width:0.5;" width="75" x="1096" y="723.4375"/><text fill="#000000" font-family="sans-serif" font-size="12" lengthAdjust="spacing" textLength="55" x="1106" y="744.5762">continue</text><polygon fill="#F1F1F1" points="708.75,1308.25,708.75,1308.25,720.75,1320.25,708.75,1332.25,708.75,1332.25,696.75,1320.25,708.75,1308.25" style="stroke:#181818;stroke-width:0.5;"/><polygon fill="#F1F1F1" points="708.75,591.8281,720.75,603.8281,708.75,615.8281,696.75,603.8281,708.75,591.8281" style="stroke:#181818;stroke-width:0.5;"/><polygon fill="#F1F1F1" points="696.75,1380.25,720.75,1380.25,732.75,1392.25,720.75,1404.25,696.75,1404.25,684.75,1392.25,696.75,1380.25" style="stroke:#181818;stroke-width:0.5;"/><text fill="#000000" font-family="sans-serif" font-size="11" lengthAdjust="spacing" textLength="23" x="697.25" y="1396.0581">true</text><line style="stroke:#181818;stroke-width:1.0;" x1="708.75" x2="708.75" y1="293.625" y2="328.625"/><polygon fill="#181818" points="704.75,318.625,708.75,328.625,712.75,318.625,708.75,322.625" style="stroke:#181818;stroke-width:1.0;"/><line style="stroke:#181818;stroke-width:1.0;" x1="708.75" x2="708.75" y1="487.8594" y2="522.8594"/><polygon fill="#181818" points="704.75,512.8594,708.75,522.8594,712.75,512.8594,708.75,516.8594" style="stroke:#181818;stroke-width:1.0;"/><line style="stroke:#181818;stroke-width:1.0;" x1="371" x2="371" y1="874.375" y2="909.375"/><polygon fill="#181818" points="367,899.375,371,909.375,375,899.375,371,903.375" style="stroke:#181818;stroke-width:1.0;"/><line style="stroke:#181818;stroke-width:1.0;" x1="371" x2="371" y1="943.3438" y2="978.3438"/><polygon fill="#181818" points="367,968.3438,371,978.3438,375,968.3438,371,972.3438" style="stroke:#181818;stroke-width:1.0;"/><line style="stroke:#181818;stroke-width:1.0;" x1="371" x2="371" y1="816.4063" y2="840.4063"/><polygon fill="#181818" points="367,830.4063,371,840.4063,375,830.4063,371,834.4063" style="stroke:#181818;stroke-width:1.0;"/><line style="stroke:#181818;stroke-width:1.0;" x1="441" x2="497" y1="804.4063" y2="804.4063"/><polygon fill="#181818" points="493,916.3594,497,926.3594,501,916.3594,497,920.3594" style="stroke:#181818;stroke-width:1.0;"/><line style="stroke:#181818;stroke-width:1.0;" x1="497" x2="497" y1="804.4063" y2="1048.3125"/><line style="stroke:#181818;stroke-width:1.0;" x1="497" x2="383" y1="1048.3125" y2="1048.3125"/><polygon fill="#181818" points="393,1044.3125,383,1048.3125,393,1052.3125,389,1048.3125" style="stroke:#181818;stroke-width:1.0;"/><line style="stroke:#181818;stroke-width:1.0;" x1="371" x2="371" y1="1012.3125" y2="1036.3125"/><polygon fill="#181818" points="367,1026.3125,371,1036.3125,375,1026.3125,371,1030.3125" style="stroke:#181818;stroke-width:1.0;"/><line style="stroke:#181818;stroke-width:1.0;" x1="371" x2="371" y1="757.4063" y2="792.4063"/><polygon fill="#181818" points="367,782.4063,371,792.4063,375,782.4063,371,786.4063" style="stroke:#181818;stroke-width:1.0;"/><line style="stroke:#181818;stroke-width:1.0;" x1="371" x2="371" y1="1060.3125" y2="1095.3125"/><polygon fill="#181818" points="367,1085.3125,371,1095.3125,375,1085.3125,371,1089.3125" style="stroke:#181818;stroke-width:1.0;"/><line style="stroke:#181818;stroke-width:1.0;" x1="371" x2="371" y1="1129.2813" y2="1164.2813"/><polygon fill="#181818" points="367,1154.2813,371,1164.2813,375,1154.2813,371,1158.2813" style="stroke:#181818;stroke-width:1.0;"/><line style="stroke:#181818;stroke-width:1.0;" x1="786" x2="786" y1="757.4063" y2="792.4063"/><polygon fill="#181818" points="782,782.4063,786,792.4063,790,782.4063,786,786.4063" style="stroke:#181818;stroke-width:1.0;"/><line style="stroke:#181818;stroke-width:1.0;" x1="651.5" x2="651.5" y1="929.3438" y2="964.3438"/><polygon fill="#181818" points="647.5,954.3438,651.5,964.3438,655.5,954.3438,651.5,958.3438" style="stroke:#181818;stroke-width:1.0;"/><line style="stroke:#181818;stroke-width:1.0;" x1="700" x2="651.5" y1="873.375" y2="873.375"/><line style="stroke:#181818;stroke-width:1.0;" x1="651.5" x2="651.5" y1="873.375" y2="895.375"/><polygon fill="#181818" points="647.5,885.375,651.5,895.375,655.5,885.375,651.5,889.375" style="stroke:#181818;stroke-width:1.0;"/><line style="stroke:#181818;stroke-width:1.0;" x1="872" x2="920.5" y1="873.375" y2="873.375"/><line style="stroke:#181818;stroke-width:1.0;" x1="920.5" x2="920.5" y1="873.375" y2="895.375"/><polygon fill="#181818" points="916.5,885.375,920.5,895.375,924.5,885.375,920.5,889.375" style="stroke:#181818;stroke-width:1.0;"/><line style="stroke:#181818;stroke-width:1.0;" x1="651.5" x2="651.5" y1="998.3125" y2="1016.3125"/><line style="stroke:#181818;stroke-width:1.0;" x1="651.5" x2="774" y1="1016.3125" y2="1016.3125"/><polygon fill="#181818" points="764,1012.3125,774,1016.3125,764,1020.3125,768,1016.3125" style="stroke:#181818;stroke-width:1.0;"/><line style="stroke:#181818;stroke-width:1.0;" x1="920.5" x2="920.5" y1="929.3438" y2="1016.3125"/><line style="stroke:#181818;stroke-width:1.0;" x1="920.5" x2="798" y1="1016.3125" y2="1016.3125"/><polygon fill="#181818" points="808,1012.3125,798,1016.3125,808,1020.3125,804,1016.3125" style="stroke:#181818;stroke-width:1.0;"/><line style="stroke:#181818;stroke-width:1.0;" x1="786" x2="786" y1="826.375" y2="861.375"/><polygon fill="#181818" points="782,851.375,786,861.375,790,851.375,786,855.375" style="stroke:#181818;stroke-width:1.0;"/><line style="stroke:#181818;stroke-width:1.0;" x1="696.75" x2="371" y1="675.8281" y2="675.8281"/><line style="stroke:#181818;stroke-width:1.0;" x1="371" x2="371" y1="675.8281" y2="723.4375"/><polygon fill="#181818" points="367,713.4375,371,723.4375,375,713.4375,371,717.4375" style="stroke:#181818;stroke-width:1.0;"/><text fill="#000000" font-family="sans-serif" font-size="11" lengthAdjust="spacing" textLength="147" x="371" y="703.4409">task channel is not empty</text><line style="stroke:#181818;stroke-width:1.0;" x1="720.75" x2="1133.5" y1="675.8281" y2="675.8281"/><line style="stroke:#181818;stroke-width:1.0;" x1="1133.5" x2="1133.5" y1="675.8281" y2="723.4375"/><polygon fill="#181818" points="1129.5,713.4375,1133.5,723.4375,1137.5,713.4375,1133.5,717.4375" style="stroke:#181818;stroke-width:1.0;"/><text fill="#000000" font-family="sans-serif" font-size="11" lengthAdjust="spacing" textLength="39" x="1133.5" y="703.4409">default</text><line style="stroke:#181818;stroke-width:1.0;" x1="786" x2="786" y1="675.8281" y2="723.4375"/><polygon fill="#181818" points="782,713.4375,786,723.4375,790,713.4375,786,717.4375" style="stroke:#181818;stroke-width:1.0;"/><text fill="#000000" font-family="sans-serif" font-size="11" lengthAdjust="spacing" textLength="212" x="786" y="698.4409">tree completion channel is not empty</text><line style="stroke:#181818;stroke-width:1.0;" x1="371" x2="371" y1="1198.25" y2="1320.25"/><line style="stroke:#181818;stroke-width:1.0;" x1="371" x2="696.75" y1="1320.25" y2="1320.25"/><polygon fill="#181818" points="686.75,1316.25,696.75,1320.25,686.75,1324.25,690.75,1320.25" style="stroke:#181818;stroke-width:1.0;"/><line style="stroke:#181818;stroke-width:1.0;" x1="1133.5" x2="1133.5" y1="757.4063" y2="1320.25"/><line style="stroke:#181818;stroke-width:1.0;" x1="1133.5" x2="720.75" y1="1320.25" y2="1320.25"/><polygon fill="#181818" points="730.75,1316.25,720.75,1320.25,730.75,1324.25,726.75,1320.25" style="stroke:#181818;stroke-width:1.0;"/><line style="stroke:#181818;stroke-width:1.0;" x1="786" x2="786" y1="1028.3125" y2="1320.25"/><polygon fill="#181818" points="782,1310.25,786,1320.25,790,1310.25,786,1314.25" style="stroke:#181818;stroke-width:1.0;"/><line style="stroke:#181818;stroke-width:1.0;" x1="708.75" x2="708.75" y1="615.8281" y2="663.8281"/><polygon fill="#181818" points="704.75,653.8281,708.75,663.8281,712.75,653.8281,708.75,657.8281" style="stroke:#181818;stroke-width:1.0;"/><line style="stroke:#181818;stroke-width:1.0;" x1="732.75" x2="1184.5" y1="1392.25" y2="1392.25"/><polygon fill="#181818" points="1180.5,1008.0391,1184.5,998.0391,1188.5,1008.0391,1184.5,1004.0391" style="stroke:#181818;stroke-width:1.0;"/><line style="stroke:#181818;stroke-width:1.0;" x1="1184.5" x2="1184.5" y1="603.8281" y2="1392.25"/><line style="stroke:#181818;stroke-width:1.0;" x1="1184.5" x2="720.75" y1="603.8281" y2="603.8281"/><polygon fill="#181818" points="730.75,599.8281,720.75,603.8281,730.75,607.8281,726.75,603.8281" style="stroke:#181818;stroke-width:1.0;"/><line style="stroke:#181818;stroke-width:1.0;" x1="708.75" x2="708.75" y1="1332.25" y2="1380.25"/><polygon fill="#181818" points="704.75,1370.25,708.75,1380.25,712.75,1370.25,708.75,1374.25" style="stroke:#181818;stroke-width:1.0;"/><line style="stroke:#181818;stroke-width:1.0;" x1="708.75" x2="708.75" y1="556.8281" y2="591.8281"/><polygon fill="#181818" points="704.75,581.8281,708.75,591.8281,712.75,581.8281,708.75,585.8281" style="stroke:#181818;stroke-width:1.0;"/><!--SRC=[jLN1Zfim4BtlLymHgcu_84YLeZtqMdMbNbPxyDe3M36sPPj4KRN_th4XWK0WIQNw18pVp7ippmO0m38NP916mmzdMhlLuZSwMHxXpnFqoribm_dj-QsMGg1-V_v-_cOPtx4AeM5IZu1nLJ5h2cJv91JNveKf1Q_ezkY-_MhrrjfYjabWOBo- -FpvD7zAF85LLEikjeaQqs8_5JmNlPHgKBWLucVhQ_QXCFjosSglS8haWCuPTwqFX3zlWs2cqv3Q1wOvFjYSWTyhXjREcRqONSfgXHUlaUz0bi3JJf0UJ3bXroM1SBHN-6qOAUl1_qKNMMUgQqsFGnQemmwHM3LMOJ8_hvdMg8f5GCDi59vmKaGbFGHAAkHH2wah83U1Guvo7zyEnktc6HrQoZZxd4nta87NaELNet5nvX6omFpkN9yceaq0R6muBWCtFX8V112ApYgfAXOXj3iRROz5EiXobN77nls9QOfrLB993w7kndwtMg0xCIxkAbeP82S4gTCXiivmzFv6-JYxShbn5OQPbbK-c-W6I3CY3ftJJlQwDTZhjhntncEzepGhLBlZ7MKnVIHhneiwMZUoJmuPqqyS-hGereqp99uapI7Kg27JPXQvCM5bF4xQkGeG67bUAYYTQTPTZoeEuZ5gQU3JvdtGRoOPO7HO_zM4dJi4bgnLOSK0TC-Izzi5irEDxePPk9FWK4kLNDXY_lY579jm-TiSufUnpxy0]--></g></svg>