<?xml version="1.0" encoding="us-ascii" standalone="no"?><svg xmlns="http://www.w3.org/2000/svg" xmlns:xlink="http://www.w3.org/1999/xlink" contentStyleType="text/css" height="556px" preserveAspectRatio="none" style="width:1648px;height:556px;background:#FFFFFF;" version="1.1" viewBox="0 0 1648 556" width="1648px" zoomAndPan="magnify"><defs/><g><!--cluster Server--><g id="cluster_Server"><path d="M759.5,6 L813.5,6 A3.75,3.75 0 0 1 816,8.5 L823,28.2969 L1638.5,28.2969 A2.5,2.5 0 0 1 1641,30.7969 L1641,167.5 A2.5,2.5 0 0 1 1638.5,170 L759.5,170 A2.5,2.5 0 0 1 757,167.5 L757,8.5 A2.5,2.5 0 0 1 759.5,6 " fill="none" style="stroke:#000000;stroke-width:1.5;"/><line style="stroke:#000000;stroke-width:1.5;" x1="757" x2="823" y1="28.2969" y2="28.2969"/><text fill="#000000" font-family="sans-serif" font-size="14" font-weight="bold" lengthAdjust="spacing" textLength="53" x="761" y="20.9951">Server</text></g><!--cluster Sequencer--><g id="cluster_Sequencer"><path d="M8.5,14 L95.5,14 A3.75,3.75 0 0 1 98,16.5 L105,36.2969 L730.5,36.2969 A2.5,2.5 0 0 1 733,38.7969 L733,546.5 A2.5,2.5 0 0 1 730.5,549 L8.5,549 A2.5,2.5 0 0 1 6,546.5 L6,16.5 A2.5,2.5 0 0 1 8.5,14 " fill="none" style="stroke:#000000;stroke-width:1.5;"/><line style="stroke:#000000;stroke-width:1.5;" x1="6" x2="105" y1="36.2969" y2="36.2969"/><text fill="#000000" font-family="sans-serif" font-size="14" font-weight="bold" lengthAdjust="spacing" textLength="86" x="10" y="28.9951">Sequencer</text></g><!--class Config--><g id="elem_Config"><rect codeLine="1" fill="#F1F1F1" height="64.2969" id="Config" rx="2.5" ry="2.5" style="stroke:#181818;stroke-width:0.5;" width="263" x="773.5" y="65.5"/><ellipse cx="878.75" cy="81.5" fill="#B4A7E5" rx="11" ry="11" style="stroke:#181818;stroke-width:1.0;"/><path d="M874.6719,77.2656 L874.6719,75.1094 L882.0625,75.1094 L882.0625,77.2656 L879.5938,77.2656 L879.5938,85.3438 L882.0625,85.3438 L882.0625,87.5 L874.6719,87.5 L874.6719,85.3438 L877.1406,85.3438 L877.1406,77.2656 L874.6719,77.2656 Z " fill="#000000"/><text fill="#000000" font-family="sans-serif" font-size="14" font-style="italic" lengthAdjust="spacing" textLength="44" x="899.25" y="86.3467">Config</text><line style="stroke:#181818;stroke-width:0.5;" x1="774.5" x2="1035.5" y1="97.5" y2="97.5"/><line style="stroke:#181818;stroke-width:0.5;" x1="774.5" x2="1035.5" y1="105.5" y2="105.5"/><ellipse cx="784.5" cy="119.1484" fill="#84BE84" rx="3" ry="3" style="stroke:#038048;stroke-width:1.0;"/><text fill="#000000" font-family="sans-serif" font-size="14" lengthAdjust="spacing" textLength="237" x="793.5" y="122.4951">error IngestConfig(map[string]any)</text></g><!--class PipeServer--><g id="elem_PipeServer"><rect codeLine="4" fill="#F1F1F1" height="113.1875" id="PipeServer" rx="2.5" ry="2.5" style="stroke:#181818;stroke-width:0.5;" width="276" x="1072" y="41"/><ellipse cx="1168.75" cy="57" fill="#B4A7E5" rx="11" ry="11" style="stroke:#181818;stroke-width:1.0;"/><path d="M1164.6719,52.7656 L1164.6719,50.6094 L1172.0625,50.6094 L1172.0625,52.7656 L1169.5938,52.7656 L1169.5938,60.8438 L1172.0625,60.8438 L1172.0625,63 L1164.6719,63 L1164.6719,60.8438 L1167.1406,60.8438 L1167.1406,52.7656 L1164.6719,52.7656 Z " fill="#000000"/><text fill="#000000" font-family="sans-serif" font-size="14" font-style="italic" lengthAdjust="spacing" textLength="74" x="1189.25" y="61.8467">PipeServer</text><line style="stroke:#181818;stroke-width:0.5;" x1="1073" x2="1347" y1="73" y2="73"/><line style="stroke:#181818;stroke-width:0.5;" x1="1073" x2="1347" y1="81" y2="81"/><ellipse cx="1083" cy="94.6484" fill="#84BE84" rx="3" ry="3" style="stroke:#038048;stroke-width:1.0;"/><text fill="#000000" font-family="sans-serif" font-size="14" lengthAdjust="spacing" textLength="250" x="1092" y="97.9951">error AddPushable(Server.Pushable)</text><ellipse cx="1083" cy="110.9453" fill="#84BE84" rx="3" ry="3" style="stroke:#038048;stroke-width:1.0;"/><text fill="#000000" font-family="sans-serif" font-size="14" lengthAdjust="spacing" textLength="215" x="1092" y="114.292">error SendTo(*Server.AppData)</text><ellipse cx="1083" cy="127.2422" fill="#84BE84" rx="3" ry="3" style="stroke:#038048;stroke-width:1.0;"/><text fill="#000000" font-family="sans-serif" font-size="14" lengthAdjust="spacing" textLength="86" x="1092" y="130.5889">error Serve()</text><ellipse cx="1083" cy="143.5391" fill="#84BE84" rx="3" ry="3" style="stroke:#038048;stroke-width:1.0;"/><text fill="#000000" font-family="sans-serif" font-size="14" lengthAdjust="spacing" textLength="180" x="1092" y="146.8857">error Setup(Server.Config)</text></g><!--class Pushable--><g id="elem_Pushable"><rect codeLine="10" fill="#F1F1F1" height="64.2969" id="Pushable" rx="2.5" ry="2.5" style="stroke:#181818;stroke-width:0.5;" width="241" x="1383.5" y="65.5"/><ellipse cx="1467.75" cy="81.5" fill="#B4A7E5" rx="11" ry="11" style="stroke:#181818;stroke-width:1.0;"/><path d="M1463.6719,77.2656 L1463.6719,75.1094 L1471.0625,75.1094 L1471.0625,77.2656 L1468.5938,77.2656 L1468.5938,85.3438 L1471.0625,85.3438 L1471.0625,87.5 L1463.6719,87.5 L1463.6719,85.3438 L1466.1406,85.3438 L1466.1406,77.2656 L1463.6719,77.2656 Z " fill="#000000"/><text fill="#000000" font-family="sans-serif" font-size="14" font-style="italic" lengthAdjust="spacing" textLength="64" x="1488.25" y="86.3467">Pushable</text><line style="stroke:#181818;stroke-width:0.5;" x1="1384.5" x2="1623.5" y1="97.5" y2="97.5"/><line style="stroke:#181818;stroke-width:0.5;" x1="1384.5" x2="1623.5" y1="105.5" y2="105.5"/><ellipse cx="1394.5" cy="119.1484" fill="#84BE84" rx="3" ry="3" style="stroke:#038048;stroke-width:1.0;"/><text fill="#000000" font-family="sans-serif" font-size="14" lengthAdjust="spacing" textLength="215" x="1403.5" y="122.4951">error SendTo(*Server.AppData)</text></g><!--class OutputAppFieldSequenceType--><g id="elem_OutputAppFieldSequenceType"><rect codeLine="15" fill="#F1F1F1" height="80.5938" id="OutputAppFieldSequenceType" rx="2.5" ry="2.5" style="stroke:#181818;stroke-width:0.5;" width="244" x="369" y="57"/><ellipse cx="384" cy="73" fill="#EB937F" rx="11" ry="11" style="stroke:#181818;stroke-width:1.0;"/><path d="M388.1094,79 L380.3906,79 L380.3906,66.6094 L388.1094,66.6094 L388.1094,68.7656 L382.8438,68.7656 L382.8438,71.4375 L387.6094,71.4375 L387.6094,73.5938 L382.8438,73.5938 L382.8438,76.8438 L388.1094,76.8438 L388.1094,79 Z " fill="#000000"/><text fill="#000000" font-family="sans-serif" font-size="14" lengthAdjust="spacing" textLength="212" x="398" y="77.8467">OutputAppFieldSequenceType</text><line style="stroke:#181818;stroke-width:0.5;" x1="370" x2="612" y1="89" y2="89"/><text fill="#000000" font-family="sans-serif" font-size="14" lengthAdjust="spacing" textLength="34" x="375" y="105.9951">Array</text><text fill="#000000" font-family="sans-serif" font-size="14" lengthAdjust="spacing" textLength="40" x="375" y="122.292">String</text><line style="stroke:#181818;stroke-width:0.5;" x1="370" x2="612" y1="129.5938" y2="129.5938"/></g><!--class SequencerConfig--><g id="elem_SequencerConfig"><rect codeLine="19" fill="#F1F1F1" height="113.1875" id="SequencerConfig" rx="2.5" ry="2.5" style="stroke:#181818;stroke-width:0.5;" width="452" x="265" y="214"/><ellipse cx="426.75" cy="230" fill="#F1F1F1" rx="11" ry="11" style="stroke:#181818;stroke-width:1.0;"/><path d="M426.2344,230.5625 Q424.375,229.8594 423.7188,229.0938 Q423.0781,228.3125 423.0781,227 Q423.0781,225.3125 424.1563,224.3438 Q425.2344,223.375 427.1094,223.375 Q427.9688,223.375 428.8125,223.5781 Q429.6719,223.7656 430.5156,224.1563 L430.5156,226.5469 Q429.7344,225.9844 428.9063,225.7031 Q428.0938,225.4063 427.2969,225.4063 Q426.4219,225.4063 425.9375,225.7656 Q425.4688,226.125 425.4688,226.7813 Q425.4688,227.2969 425.8125,227.6406 Q426.1563,227.9688 427.25,228.375 L428.3125,228.7813 Q429.7969,229.3281 430.5,230.2344 Q431.2188,231.1406 431.2188,232.5156 Q431.2188,234.3906 430.1094,235.3125 Q429,236.2344 426.75,236.2344 Q425.8281,236.2344 424.9063,236.0156 Q423.9844,235.7969 423.125,235.375 L423.125,232.8438 Q424.0938,233.5313 425.0156,233.875 Q425.9375,234.2188 426.8281,234.2188 Q427.7344,234.2188 428.2344,233.8125 Q428.7344,233.3906 428.7344,232.6563 Q428.7344,232.0938 428.3906,231.6875 Q428.0625,231.2656 427.4375,231.0156 L426.2344,230.5625 Z " fill="#000000"/><text fill="#000000" font-family="sans-serif" font-size="14" lengthAdjust="spacing" textLength="120" x="447.25" y="234.8467">SequencerConfig</text><line style="stroke:#181818;stroke-width:0.5;" x1="266" x2="716" y1="246" y2="246"/><rect fill="none" height="6" style="stroke:#C82930;stroke-width:1.0;" width="6" x="273" y="256.6484"/><text fill="#000000" font-family="sans-serif" font-size="14" lengthAdjust="spacing" textLength="219" x="285" y="262.9951">string outputAppSequenceField</text><rect fill="none" height="6" style="stroke:#C82930;stroke-width:1.0;" width="6" x="273" y="272.9453"/><text fill="#000000" font-family="sans-serif" font-size="14" lengthAdjust="spacing" textLength="260" x="285" y="279.292">string outputAppFieldSequenceIdMap</text><rect fill="none" height="6" style="stroke:#C82930;stroke-width:1.0;" width="6" x="273" y="289.2422"/><text fill="#000000" font-family="sans-serif" font-size="14" lengthAdjust="spacing" textLength="426" x="285" y="295.5889">OutputAppFieldSequenceType outputAppFieldSequenceType</text><line style="stroke:#181818;stroke-width:0.5;" x1="266" x2="716" y1="302.8906" y2="302.8906"/><ellipse cx="276" cy="316.5391" fill="#84BE84" rx="3" ry="3" style="stroke:#038048;stroke-width:1.0;"/><text fill="#000000" font-family="sans-serif" font-size="14" lengthAdjust="spacing" textLength="237" x="285" y="319.8857">error IngestConfig(map[string]any)</text></g><!--class Sequencer--><g id="elem_Sequencer"><rect codeLine="25" fill="#F1F1F1" height="145.7813" id="Sequencer" rx="2.5" ry="2.5" style="stroke:#181818;stroke-width:0.5;" width="276" x="441" y="387"/><ellipse cx="536.75" cy="403" fill="#F1F1F1" rx="11" ry="11" style="stroke:#181818;stroke-width:1.0;"/><path d="M536.2344,403.5625 Q534.375,402.8594 533.7188,402.0938 Q533.0781,401.3125 533.0781,400 Q533.0781,398.3125 534.1563,397.3438 Q535.2344,396.375 537.1094,396.375 Q537.9688,396.375 538.8125,396.5781 Q539.6719,396.7656 540.5156,397.1563 L540.5156,399.5469 Q539.7344,398.9844 538.9063,398.7031 Q538.0938,398.4063 537.2969,398.4063 Q536.4219,398.4063 535.9375,398.7656 Q535.4688,399.125 535.4688,399.7813 Q535.4688,400.2969 535.8125,400.6406 Q536.1563,400.9688 537.25,401.375 L538.3125,401.7813 Q539.7969,402.3281 540.5,403.2344 Q541.2188,404.1406 541.2188,405.5156 Q541.2188,407.3906 540.1094,408.3125 Q539,409.2344 536.75,409.2344 Q535.8281,409.2344 534.9063,409.0156 Q533.9844,408.7969 533.125,408.375 L533.125,405.8438 Q534.0938,406.5313 535.0156,406.875 Q535.9375,407.2188 536.8281,407.2188 Q537.7344,407.2188 538.2344,406.8125 Q538.7344,406.3906 538.7344,405.6563 Q538.7344,405.0938 538.3906,404.6875 Q538.0625,404.2656 537.4375,404.0156 L536.2344,403.5625 Z " fill="#000000"/><text fill="#000000" font-family="sans-serif" font-size="14" lengthAdjust="spacing" textLength="76" x="557.25" y="407.8467">Sequencer</text><line style="stroke:#181818;stroke-width:0.5;" x1="442" x2="716" y1="419" y2="419"/><rect fill="none" height="6" style="stroke:#C82930;stroke-width:1.0;" width="6" x="449" y="429.6484"/><text fill="#000000" font-family="sans-serif" font-size="14" lengthAdjust="spacing" textLength="166" x="461" y="435.9951">SequencerConfig config</text><rect fill="none" height="6" style="stroke:#C82930;stroke-width:1.0;" width="6" x="449" y="445.9453"/><text fill="#000000" font-family="sans-serif" font-size="14" lengthAdjust="spacing" textLength="180" x="461" y="452.292">Server.Pushable pushable</text><line style="stroke:#181818;stroke-width:0.5;" x1="442" x2="716" y1="459.5938" y2="459.5938"/><ellipse cx="452" cy="473.2422" fill="#84BE84" rx="3" ry="3" style="stroke:#038048;stroke-width:1.0;"/><text fill="#000000" font-family="sans-serif" font-size="14" lengthAdjust="spacing" textLength="250" x="461" y="476.5889">error AddPushable(Server.Pushable)</text><ellipse cx="452" cy="489.5391" fill="#84BE84" rx="3" ry="3" style="stroke:#038048;stroke-width:1.0;"/><text fill="#000000" font-family="sans-serif" font-size="14" lengthAdjust="spacing" textLength="215" x="461" y="492.8857">error SendTo(*Server.AppData)</text><ellipse cx="452" cy="505.8359" fill="#84BE84" rx="3" ry="3" style="stroke:#038048;stroke-width:1.0;"/><text fill="#000000" font-family="sans-serif" font-size="14" lengthAdjust="spacing" textLength="86" x="461" y="509.1826">error Serve()</text><ellipse cx="452" cy="522.1328" fill="#84BE84" rx="3" ry="3" style="stroke:#038048;stroke-width:1.0;"/><text fill="#000000" font-family="sans-serif" font-size="14" lengthAdjust="spacing" textLength="180" x="461" y="525.4795">error Setup(Server.Config)</text></g><!--class IncomingData--><g id="elem_IncomingData"><rect codeLine="33" fill="#F1F1F1" height="96.8906" id="IncomingData" rx="2.5" ry="2.5" style="stroke:#181818;stroke-width:0.5;" width="193" x="29.5" y="49"/><ellipse cx="74.25" cy="65" fill="#F1F1F1" rx="11" ry="11" style="stroke:#181818;stroke-width:1.0;"/><path d="M73.7344,65.5625 Q71.875,64.8594 71.2188,64.0938 Q70.5781,63.3125 70.5781,62 Q70.5781,60.3125 71.6563,59.3438 Q72.7344,58.375 74.6094,58.375 Q75.4688,58.375 76.3125,58.5781 Q77.1719,58.7656 78.0156,59.1563 L78.0156,61.5469 Q77.2344,60.9844 76.4063,60.7031 Q75.5938,60.4063 74.7969,60.4063 Q73.9219,60.4063 73.4375,60.7656 Q72.9688,61.125 72.9688,61.7813 Q72.9688,62.2969 73.3125,62.6406 Q73.6563,62.9688 74.75,63.375 L75.8125,63.7813 Q77.2969,64.3281 78,65.2344 Q78.7188,66.1406 78.7188,67.5156 Q78.7188,69.3906 77.6094,70.3125 Q76.5,71.2344 74.25,71.2344 Q73.3281,71.2344 72.4063,71.0156 Q71.4844,70.7969 70.625,70.375 L70.625,67.8438 Q71.5938,68.5313 72.5156,68.875 Q73.4375,69.2188 74.3281,69.2188 Q75.2344,69.2188 75.7344,68.8125 Q76.2344,68.3906 76.2344,67.6563 Q76.2344,67.0938 75.8906,66.6875 Q75.5625,66.2656 74.9375,66.0156 L73.7344,65.5625 Z " fill="#000000"/><text fill="#000000" font-family="sans-serif" font-size="14" lengthAdjust="spacing" textLength="95" x="94.75" y="69.8467">IncomingData</text><line style="stroke:#181818;stroke-width:0.5;" x1="30.5" x2="221.5" y1="81" y2="81"/><rect fill="none" height="6" style="stroke:#C82930;stroke-width:1.0;" width="6" x="37.5" y="91.6484"/><text fill="#000000" font-family="sans-serif" font-size="14" lengthAdjust="spacing" textLength="92" x="49.5" y="97.9951">string NodeId</text><rect fill="none" height="6" style="stroke:#C82930;stroke-width:1.0;" width="6" x="37.5" y="107.9453"/><text fill="#000000" font-family="sans-serif" font-size="14" lengthAdjust="spacing" textLength="164" x="49.5" y="114.292">[]string OrderedChildIds</text><rect fill="none" height="6" style="stroke:#C82930;stroke-width:1.0;" width="6" x="37.5" y="124.2422"/><text fill="#000000" font-family="sans-serif" font-size="14" lengthAdjust="spacing" textLength="167" x="49.5" y="130.5889">map[string]any AppJSON</text><line style="stroke:#181818;stroke-width:0.5;" x1="30.5" x2="221.5" y1="137.8906" y2="137.8906"/></g><!--class StackIncomingData--><g id="elem_StackIncomingData"><rect codeLine="38" fill="#F1F1F1" height="96.8906" id="StackIncomingData" rx="2.5" ry="2.5" style="stroke:#181818;stroke-width:0.5;" width="207" x="22.5" y="222"/><ellipse cx="56.4" cy="238" fill="#F1F1F1" rx="11" ry="11" style="stroke:#181818;stroke-width:1.0;"/><path d="M55.8844,238.5625 Q54.025,237.8594 53.3688,237.0938 Q52.7281,236.3125 52.7281,235 Q52.7281,233.3125 53.8063,232.3438 Q54.8844,231.375 56.7594,231.375 Q57.6188,231.375 58.4625,231.5781 Q59.3219,231.7656 60.1656,232.1563 L60.1656,234.5469 Q59.3844,233.9844 58.5563,233.7031 Q57.7438,233.4063 56.9469,233.4063 Q56.0719,233.4063 55.5875,233.7656 Q55.1188,234.125 55.1188,234.7813 Q55.1188,235.2969 55.4625,235.6406 Q55.8063,235.9688 56.9,236.375 L57.9625,236.7813 Q59.4469,237.3281 60.15,238.2344 Q60.8688,239.1406 60.8688,240.5156 Q60.8688,242.3906 59.7594,243.3125 Q58.65,244.2344 56.4,244.2344 Q55.4781,244.2344 54.5563,244.0156 Q53.6344,243.7969 52.775,243.375 L52.775,240.8438 Q53.7438,241.5313 54.6656,241.875 Q55.5875,242.2188 56.4781,242.2188 Q57.3844,242.2188 57.8844,241.8125 Q58.3844,241.3906 58.3844,240.6563 Q58.3844,240.0938 58.0406,239.6875 Q57.7125,239.2656 57.0875,239.0156 L55.8844,238.5625 Z " fill="#000000"/><text fill="#000000" font-family="sans-serif" font-size="14" lengthAdjust="spacing" textLength="133" x="74.6" y="242.8467">StackIncomingData</text><line style="stroke:#181818;stroke-width:0.5;" x1="23.5" x2="228.5" y1="254" y2="254"/><rect fill="none" height="6" style="stroke:#C82930;stroke-width:1.0;" width="6" x="30.5" y="264.6484"/><text fill="#000000" font-family="sans-serif" font-size="14" lengthAdjust="spacing" textLength="136" x="42.5" y="270.9951">*IncomingData data</text><rect fill="none" height="6" style="stroke:#C82930;stroke-width:1.0;" width="6" x="30.5" y="280.9453"/><text fill="#000000" font-family="sans-serif" font-size="14" lengthAdjust="spacing" textLength="142" x="42.5" y="287.292">int currentChildIndex</text><line style="stroke:#181818;stroke-width:0.5;" x1="23.5" x2="228.5" y1="294.5938" y2="294.5938"/><ellipse cx="33.5" cy="308.2422" fill="#84BE84" rx="3" ry="3" style="stroke:#038048;stroke-width:1.0;"/><text fill="#000000" font-family="sans-serif" font-size="14" lengthAdjust="spacing" textLength="181" x="42.5" y="311.5889">(string, error) NextChildId()</text></g><!--reverse link PipeServer to Sequencer--><g id="link_PipeServer_Sequencer"><path codeLine="45" d="M1097.1607,162.9688 C987.7407,225.4788 825.26,318.31 705.19,386.91 " fill="none" id="PipeServer-backto-Sequencer" style="stroke:#181818;stroke-width:1.0;"/><polygon fill="none" points="1112.79,154.04,1094.1844,157.759,1100.1369,168.1786,1112.79,154.04" style="stroke:#181818;stroke-width:1.0;"/></g><!--reverse link Pushable to Sequencer--><g id="link_Pushable_Sequencer"><path codeLine="46" d="M1444.7378,135.83 C1418.8678,151.51 1396.5,163.91 1366,178 C1145.4,279.92 876.56,368.77 717.04,418.01 " fill="none" id="Pushable-backto-Sequencer" style="stroke:#181818;stroke-width:1.0;"/><polygon fill="#181818" points="1455,129.61,1447.7956,129.2993,1444.7378,135.83,1451.9422,136.1407,1455,129.61" style="stroke:#181818;stroke-width:1.0;"/></g><!--reverse link Config to SequencerConfig--><g id="link_Config_SequencerConfig"><path codeLine="47" d="M824.2737,137.3066 C792.1937,152.4566 768.95,162.92 733,178 C704.11,190.12 673,202.43 643.02,213.92 " fill="none" id="Config-backto-SequencerConfig" style="stroke:#181818;stroke-width:1.0;"/><polygon fill="none" points="840.55,129.62,821.7116,131.8812,826.8359,142.732,840.55,129.62" style="stroke:#181818;stroke-width:1.0;"/></g><!--reverse link SequencerConfig to Sequencer--><g id="link_SequencerConfig_Sequencer"><path codeLine="48" d="M522.262,338.1114 C531.032,356.7814 535.83,367.02 545.1,386.77 " fill="none" id="SequencerConfig-backto-Sequencer" style="stroke:#181818;stroke-width:1.0;"/><polygon fill="#181818" points="517.16,327.25,516.0905,334.3814,522.262,338.1114,523.3315,330.98,517.16,327.25" style="stroke:#181818;stroke-width:1.0;"/></g><!--reverse link OutputAppFieldSequenceType to SequencerConfig--><g id="link_OutputAppFieldSequenceType_SequencerConfig"><path codeLine="49" d="M491,150.16 C491,172.66 491,189.16 491,213.86 " fill="none" id="OutputAppFieldSequenceType-backto-SequencerConfig" style="stroke:#181818;stroke-width:1.0;"/><polygon fill="#181818" points="491,138.16,487,144.16,491,150.16,495,144.16,491,138.16" style="stroke:#181818;stroke-width:1.0;"/></g><!--reverse link IncomingData to StackIncomingData--><g id="link_IncomingData_StackIncomingData"><path codeLine="50" d="M126,158.13 C126,181.75 126,198.2 126,221.83 " fill="none" id="IncomingData-backto-StackIncomingData" style="stroke:#181818;stroke-width:1.0;"/><polygon fill="#181818" points="126,146.13,122,152.13,126,158.13,130,152.13,126,146.13" style="stroke:#181818;stroke-width:1.0;"/></g><!--SRC=[ZLJTRi8W6BtlKt1PkzKds8rnMT8bKvDwPxnWvLF9B6KK5itckmzBMmIboWK5pk4xtn-bJ8BOu09G3k87n7XQiGtTejy8wV44GbG2PMmBjJH8N6A-ggMWRBl6x3YAJX7rRIme1xDqxKm8MQXwXp_t47VKTZ-wvEN0oBAAavOpuVmLI-nHD1HxHrBns0dZjdUjfEjRIFCKHGoNK7DZuLi1A_guWAaIpPNaIkeBRnJsfACiZxnJE8-94FZOx_8cVytsrCmweQgGrhvJXVD8JSfHrObrr4OqJ7DyoiW7vfOxu7WLXFhhZ_H6EC3BqFoeY-PpYRjru-t2T-LkUptOOe4skzTgLy5chAXAdOkpvHkbd5L4LyGUhzOjC1S4193fZkv9HchBSDEBjDFl-Nns8yiI5ryXzSG1Y9uifjyAAfGGmAHHPmGEDlZOY3-Z9WiZD8D3ooDn5xz-BzT_WPU_DBMr7_Uho2zjCinh6oHapi1H41amtvqDl8daGL4dlzublp3_]--></g></svg>