<?xml version="1.0" encoding="us-ascii" standalone="no"?><svg xmlns="http://www.w3.org/2000/svg" xmlns:xlink="http://www.w3.org/1999/xlink" contentStyleType="text/css" height="622px" preserveAspectRatio="none" style="width:1936px;height:622px;background:#FFFFFF;" version="1.1" viewBox="0 0 1936 622" width="1936px" zoomAndPan="magnify"><defs/><g><!--cluster Server--><g id="cluster_Server"><path d="M1047.5,22.5 L1101.5,22.5 A3.75,3.75 0 0 1 1104,25 L1111,44.7969 L1926.5,44.7969 A2.5,2.5 0 0 1 1929,47.2969 L1929,184 A2.5,2.5 0 0 1 1926.5,186.5 L1047.5,186.5 A2.5,2.5 0 0 1 1045,184 L1045,25 A2.5,2.5 0 0 1 1047.5,22.5 " fill="none" style="stroke:#000000;stroke-width:1.5;"/><line style="stroke:#000000;stroke-width:1.5;" x1="1045" x2="1111" y1="44.7969" y2="44.7969"/><text fill="#000000" font-family="sans-serif" font-size="14" font-weight="bold" lengthAdjust="spacing" textLength="53" x="1049" y="37.4951">Server</text></g><!--cluster Sequencer--><g id="cluster_Sequencer"><path d="M8.5,6 L95.5,6 A3.75,3.75 0 0 1 98,8.5 L105,28.2969 L1018.5,28.2969 A2.5,2.5 0 0 1 1021,30.7969 L1021,612.5 A2.5,2.5 0 0 1 1018.5,615 L8.5,615 A2.5,2.5 0 0 1 6,612.5 L6,8.5 A2.5,2.5 0 0 1 8.5,6 " fill="none" style="stroke:#000000;stroke-width:1.5;"/><line style="stroke:#000000;stroke-width:1.5;" x1="6" x2="105" y1="28.2969" y2="28.2969"/><text fill="#000000" font-family="sans-serif" font-size="14" font-weight="bold" lengthAdjust="spacing" textLength="86" x="10" y="20.9951">Sequencer</text></g><!--class Config--><g id="elem_Config"><rect codeLine="1" fill="#F1F1F1" height="64.2969" id="Config" rx="2.5" ry="2.5" style="stroke:#181818;stroke-width:0.5;" width="263" x="1061.5" y="82"/><ellipse cx="1166.75" cy="98" fill="#B4A7E5" rx="11" ry="11" style="stroke:#181818;stroke-width:1.0;"/><path d="M1162.6719,93.7656 L1162.6719,91.6094 L1170.0625,91.6094 L1170.0625,93.7656 L1167.5938,93.7656 L1167.5938,101.8438 L1170.0625,101.8438 L1170.0625,104 L1162.6719,104 L1162.6719,101.8438 L1165.1406,101.8438 L1165.1406,93.7656 L1162.6719,93.7656 Z " fill="#000000"/><text fill="#000000" font-family="sans-serif" font-size="14" font-style="italic" lengthAdjust="spacing" textLength="44" x="1187.25" y="102.8467">Config</text><line style="stroke:#181818;stroke-width:0.5;" x1="1062.5" x2="1323.5" y1="114" y2="114"/><line style="stroke:#181818;stroke-width:0.5;" x1="1062.5" x2="1323.5" y1="122" y2="122"/><ellipse cx="1072.5" cy="135.6484" fill="#84BE84" rx="3" ry="3" style="stroke:#038048;stroke-width:1.0;"/><text fill="#000000" font-family="sans-serif" font-size="14" lengthAdjust="spacing" textLength="237" x="1081.5" y="138.9951">error IngestConfig(map[string]any)</text></g><!--class PipeServer--><g id="elem_PipeServer"><rect codeLine="4" fill="#F1F1F1" height="113.1875" id="PipeServer" rx="2.5" ry="2.5" style="stroke:#181818;stroke-width:0.5;" width="276" x="1360" y="57.5"/><ellipse cx="1456.75" cy="73.5" fill="#B4A7E5" rx="11" ry="11" style="stroke:#181818;stroke-width:1.0;"/><path d="M1452.6719,69.2656 L1452.6719,67.1094 L1460.0625,67.1094 L1460.0625,69.2656 L1457.5938,69.2656 L1457.5938,77.3438 L1460.0625,77.3438 L1460.0625,79.5 L1452.6719,79.5 L1452.6719,77.3438 L1455.1406,77.3438 L1455.1406,69.2656 L1452.6719,69.2656 Z " fill="#000000"/><text fill="#000000" font-family="sans-serif" font-size="14" font-style="italic" lengthAdjust="spacing" textLength="74" x="1477.25" y="78.3467">PipeServer</text><line style="stroke:#181818;stroke-width:0.5;" x1="1361" x2="1635" y1="89.5" y2="89.5"/><line style="stroke:#181818;stroke-width:0.5;" x1="1361" x2="1635" y1="97.5" y2="97.5"/><ellipse cx="1371" cy="111.1484" fill="#84BE84" rx="3" ry="3" style="stroke:#038048;stroke-width:1.0;"/><text fill="#000000" font-family="sans-serif" font-size="14" lengthAdjust="spacing" textLength="250" x="1380" y="114.4951">error AddPushable(Server.Pushable)</text><ellipse cx="1371" cy="127.4453" fill="#84BE84" rx="3" ry="3" style="stroke:#038048;stroke-width:1.0;"/><text fill="#000000" font-family="sans-serif" font-size="14" lengthAdjust="spacing" textLength="215" x="1380" y="130.792">error SendTo(*Server.AppData)</text><ellipse cx="1371" cy="143.7422" fill="#84BE84" rx="3" ry="3" style="stroke:#038048;stroke-width:1.0;"/><text fill="#000000" font-family="sans-serif" font-size="14" lengthAdjust="spacing" textLength="86" x="1380" y="147.0889">error Serve()</text><ellipse cx="1371" cy="160.0391" fill="#84BE84" rx="3" ry="3" style="stroke:#038048;stroke-width:1.0;"/><text fill="#000000" font-family="sans-serif" font-size="14" lengthAdjust="spacing" textLength="180" x="1380" y="163.3857">error Setup(Server.Config)</text></g><!--class Pushable--><g id="elem_Pushable"><rect codeLine="10" fill="#F1F1F1" height="64.2969" id="Pushable" rx="2.5" ry="2.5" style="stroke:#181818;stroke-width:0.5;" width="241" x="1671.5" y="82"/><ellipse cx="1755.75" cy="98" fill="#B4A7E5" rx="11" ry="11" style="stroke:#181818;stroke-width:1.0;"/><path d="M1751.6719,93.7656 L1751.6719,91.6094 L1759.0625,91.6094 L1759.0625,93.7656 L1756.5938,93.7656 L1756.5938,101.8438 L1759.0625,101.8438 L1759.0625,104 L1751.6719,104 L1751.6719,101.8438 L1754.1406,101.8438 L1754.1406,93.7656 L1751.6719,93.7656 Z " fill="#000000"/><text fill="#000000" font-family="sans-serif" font-size="14" font-style="italic" lengthAdjust="spacing" textLength="64" x="1776.25" y="102.8467">Pushable</text><line style="stroke:#181818;stroke-width:0.5;" x1="1672.5" x2="1911.5" y1="114" y2="114"/><line style="stroke:#181818;stroke-width:0.5;" x1="1672.5" x2="1911.5" y1="122" y2="122"/><ellipse cx="1682.5" cy="135.6484" fill="#84BE84" rx="3" ry="3" style="stroke:#038048;stroke-width:1.0;"/><text fill="#000000" font-family="sans-serif" font-size="14" lengthAdjust="spacing" textLength="215" x="1691.5" y="138.9951">error SendTo(*Server.AppData)</text></g><!--class outputAppFieldSequenceType--><g id="elem_outputAppFieldSequenceType"><rect codeLine="15" fill="#F1F1F1" height="80.5938" id="outputAppFieldSequenceType" rx="2.5" ry="2.5" style="stroke:#181818;stroke-width:0.5;" width="242" x="763" y="73.5"/><ellipse cx="778" cy="89.5" fill="#EB937F" rx="11" ry="11" style="stroke:#181818;stroke-width:1.0;"/><path d="M782.1094,95.5 L774.3906,95.5 L774.3906,83.1094 L782.1094,83.1094 L782.1094,85.2656 L776.8438,85.2656 L776.8438,87.9375 L781.6094,87.9375 L781.6094,90.0938 L776.8438,90.0938 L776.8438,93.3438 L782.1094,93.3438 L782.1094,95.5 Z " fill="#000000"/><text fill="#000000" font-family="sans-serif" font-size="14" lengthAdjust="spacing" textLength="210" x="792" y="94.3467">outputAppFieldSequenceType</text><line style="stroke:#181818;stroke-width:0.5;" x1="764" x2="1004" y1="105.5" y2="105.5"/><text fill="#000000" font-family="sans-serif" font-size="14" lengthAdjust="spacing" textLength="34" x="769" y="122.4951">Array</text><text fill="#000000" font-family="sans-serif" font-size="14" lengthAdjust="spacing" textLength="40" x="769" y="138.792">String</text><line style="stroke:#181818;stroke-width:0.5;" x1="764" x2="1004" y1="146.0938" y2="146.0938"/></g><!--class groupApply--><g id="elem_groupApply"><rect codeLine="19" fill="#F1F1F1" height="96.8906" id="groupApply" rx="2.5" ry="2.5" style="stroke:#181818;stroke-width:0.5;" width="224" x="504" y="65.5"/><ellipse cx="572.75" cy="81.5" fill="#F1F1F1" rx="11" ry="11" style="stroke:#181818;stroke-width:1.0;"/><path d="M572.2344,82.0625 Q570.375,81.3594 569.7188,80.5938 Q569.0781,79.8125 569.0781,78.5 Q569.0781,76.8125 570.1563,75.8438 Q571.2344,74.875 573.1094,74.875 Q573.9688,74.875 574.8125,75.0781 Q575.6719,75.2656 576.5156,75.6563 L576.5156,78.0469 Q575.7344,77.4844 574.9063,77.2031 Q574.0938,76.9063 573.2969,76.9063 Q572.4219,76.9063 571.9375,77.2656 Q571.4688,77.625 571.4688,78.2813 Q571.4688,78.7969 571.8125,79.1406 Q572.1563,79.4688 573.25,79.875 L574.3125,80.2813 Q575.7969,80.8281 576.5,81.7344 Q577.2188,82.6406 577.2188,84.0156 Q577.2188,85.8906 576.1094,86.8125 Q575,87.7344 572.75,87.7344 Q571.8281,87.7344 570.9063,87.5156 Q569.9844,87.2969 569.125,86.875 L569.125,84.3438 Q570.0938,85.0313 571.0156,85.375 Q571.9375,85.7188 572.8281,85.7188 Q573.7344,85.7188 574.2344,85.3125 Q574.7344,84.8906 574.7344,84.1563 Q574.7344,83.5938 574.3906,83.1875 Q574.0625,82.7656 573.4375,82.5156 L572.2344,82.0625 Z " fill="#000000"/><text fill="#000000" font-family="sans-serif" font-size="14" lengthAdjust="spacing" textLength="78" x="593.25" y="86.3467">groupApply</text><line style="stroke:#181818;stroke-width:0.5;" x1="505" x2="727" y1="97.5" y2="97.5"/><ellipse cx="515" cy="111.1484" fill="none" rx="3" ry="3" style="stroke:#038048;stroke-width:1.0;"/><text fill="#000000" font-family="sans-serif" font-size="14" lengthAdjust="spacing" textLength="133" x="524" y="114.4951">string FieldToShare</text><ellipse cx="515" cy="127.4453" fill="none" rx="3" ry="3" style="stroke:#038048;stroke-width:1.0;"/><text fill="#000000" font-family="sans-serif" font-size="14" lengthAdjust="spacing" textLength="145" x="524" y="130.792">string IdentifyingField</text><ellipse cx="515" cy="143.7422" fill="none" rx="3" ry="3" style="stroke:#038048;stroke-width:1.0;"/><text fill="#000000" font-family="sans-serif" font-size="14" lengthAdjust="spacing" textLength="198" x="524" y="147.0889">string ValueOfIdentifyingField</text><line style="stroke:#181818;stroke-width:0.5;" x1="505" x2="727" y1="154.3906" y2="154.3906"/></g><!--class childrenByBackwardsLink--><g id="elem_childrenByBackwardsLink"><rect codeLine="24" fill="#F1F1F1" height="80.5938" id="childrenByBackwardsLink" rx="2.5" ry="2.5" style="stroke:#181818;stroke-width:0.5;" width="218" x="251" y="73.5"/><ellipse cx="271.4" cy="89.5" fill="#F1F1F1" rx="11" ry="11" style="stroke:#181818;stroke-width:1.0;"/><path d="M270.8844,90.0625 Q269.025,89.3594 268.3688,88.5938 Q267.7281,87.8125 267.7281,86.5 Q267.7281,84.8125 268.8063,83.8438 Q269.8844,82.875 271.7594,82.875 Q272.6188,82.875 273.4625,83.0781 Q274.3219,83.2656 275.1656,83.6563 L275.1656,86.0469 Q274.3844,85.4844 273.5563,85.2031 Q272.7438,84.9063 271.9469,84.9063 Q271.0719,84.9063 270.5875,85.2656 Q270.1188,85.625 270.1188,86.2813 Q270.1188,86.7969 270.4625,87.1406 Q270.8063,87.4688 271.9,87.875 L272.9625,88.2813 Q274.4469,88.8281 275.15,89.7344 Q275.8688,90.6406 275.8688,92.0156 Q275.8688,93.8906 274.7594,94.8125 Q273.65,95.7344 271.4,95.7344 Q270.4781,95.7344 269.5563,95.5156 Q268.6344,95.2969 267.775,94.875 L267.775,92.3438 Q268.7438,93.0313 269.6656,93.375 Q270.5875,93.7188 271.4781,93.7188 Q272.3844,93.7188 272.8844,93.3125 Q273.3844,92.8906 273.3844,92.1563 Q273.3844,91.5938 273.0406,91.1875 Q272.7125,90.7656 272.0875,90.5156 L270.8844,90.0625 Z " fill="#000000"/><text fill="#000000" font-family="sans-serif" font-size="14" lengthAdjust="spacing" textLength="174" x="286.6" y="94.3467">childrenByBackwardsLink</text><line style="stroke:#181818;stroke-width:0.5;" x1="252" x2="468" y1="105.5" y2="105.5"/><ellipse cx="262" cy="119.1484" fill="none" rx="3" ry="3" style="stroke:#038048;stroke-width:1.0;"/><text fill="#000000" font-family="sans-serif" font-size="14" lengthAdjust="spacing" textLength="49" x="271" y="122.4951">bool All</text><ellipse cx="262" cy="135.4453" fill="none" rx="3" ry="3" style="stroke:#038048;stroke-width:1.0;"/><text fill="#000000" font-family="sans-serif" font-size="14" lengthAdjust="spacing" textLength="192" x="271" y="138.792">map[string]bool NodeTypes</text><line style="stroke:#181818;stroke-width:0.5;" x1="252" x2="468" y1="146.0938" y2="146.0938"/></g><!--class SequencerConfig--><g id="elem_SequencerConfig"><rect codeLine="28" fill="#F1F1F1" height="145.7813" id="SequencerConfig" rx="2.5" ry="2.5" style="stroke:#181818;stroke-width:0.5;" width="452" x="553" y="247"/><ellipse cx="714.75" cy="263" fill="#F1F1F1" rx="11" ry="11" style="stroke:#181818;stroke-width:1.0;"/><path d="M714.2344,263.5625 Q712.375,262.8594 711.7188,262.0938 Q711.0781,261.3125 711.0781,260 Q711.0781,258.3125 712.1563,257.3438 Q713.2344,256.375 715.1094,256.375 Q715.9688,256.375 716.8125,256.5781 Q717.6719,256.7656 718.5156,257.1563 L718.5156,259.5469 Q717.7344,258.9844 716.9063,258.7031 Q716.0938,258.4063 715.2969,258.4063 Q714.4219,258.4063 713.9375,258.7656 Q713.4688,259.125 713.4688,259.7813 Q713.4688,260.2969 713.8125,260.6406 Q714.1563,260.9688 715.25,261.375 L716.3125,261.7813 Q717.7969,262.3281 718.5,263.2344 Q719.2188,264.1406 719.2188,265.5156 Q719.2188,267.3906 718.1094,268.3125 Q717,269.2344 714.75,269.2344 Q713.8281,269.2344 712.9063,269.0156 Q711.9844,268.7969 711.125,268.375 L711.125,265.8438 Q712.0938,266.5313 713.0156,266.875 Q713.9375,267.2188 714.8281,267.2188 Q715.7344,267.2188 716.2344,266.8125 Q716.7344,266.3906 716.7344,265.6563 Q716.7344,265.0938 716.3906,264.6875 Q716.0625,264.2656 715.4375,264.0156 L714.2344,263.5625 Z " fill="#000000"/><text fill="#000000" font-family="sans-serif" font-size="14" lengthAdjust="spacing" textLength="120" x="735.25" y="267.8467">SequencerConfig</text><line style="stroke:#181818;stroke-width:0.5;" x1="554" x2="1004" y1="279" y2="279"/><ellipse cx="564" cy="292.6484" fill="none" rx="3" ry="3" style="stroke:#038048;stroke-width:1.0;"/><text fill="#000000" font-family="sans-serif" font-size="14" lengthAdjust="spacing" textLength="221" x="573" y="295.9951">string OutputAppSequenceField</text><ellipse cx="564" cy="308.9453" fill="none" rx="3" ry="3" style="stroke:#038048;stroke-width:1.0;"/><text fill="#000000" font-family="sans-serif" font-size="14" lengthAdjust="spacing" textLength="262" x="573" y="312.292">string OutputAppFieldSequenceIdMap</text><ellipse cx="564" cy="325.2422" fill="none" rx="3" ry="3" style="stroke:#038048;stroke-width:1.0;"/><text fill="#000000" font-family="sans-serif" font-size="14" lengthAdjust="spacing" textLength="426" x="573" y="328.5889">outputAppFieldSequenceType OutputAppFieldSequenceType</text><ellipse cx="564" cy="341.5391" fill="none" rx="3" ry="3" style="stroke:#038048;stroke-width:1.0;"/><text fill="#000000" font-family="sans-serif" font-size="14" lengthAdjust="spacing" textLength="254" x="573" y="344.8857">map[string]groupApply GroupApplies</text><ellipse cx="564" cy="357.8359" fill="none" rx="3" ry="3" style="stroke:#038048;stroke-width:1.0;"/><text fill="#000000" font-family="sans-serif" font-size="14" lengthAdjust="spacing" textLength="354" x="573" y="361.1826">childrenByBackwardsLink ChildrenByBackwardsLink</text><line style="stroke:#181818;stroke-width:0.5;" x1="554" x2="1004" y1="368.4844" y2="368.4844"/><ellipse cx="564" cy="382.1328" fill="#84BE84" rx="3" ry="3" style="stroke:#038048;stroke-width:1.0;"/><text fill="#000000" font-family="sans-serif" font-size="14" lengthAdjust="spacing" textLength="237" x="573" y="385.4795">error IngestConfig(map[string]any)</text></g><!--class Sequencer--><g id="elem_Sequencer"><rect codeLine="36" fill="#F1F1F1" height="145.7813" id="Sequencer" rx="2.5" ry="2.5" style="stroke:#181818;stroke-width:0.5;" width="276" x="729" y="453"/><ellipse cx="824.75" cy="469" fill="#F1F1F1" rx="11" ry="11" style="stroke:#181818;stroke-width:1.0;"/><path d="M824.2344,469.5625 Q822.375,468.8594 821.7188,468.0938 Q821.0781,467.3125 821.0781,466 Q821.0781,464.3125 822.1563,463.3438 Q823.2344,462.375 825.1094,462.375 Q825.9688,462.375 826.8125,462.5781 Q827.6719,462.7656 828.5156,463.1563 L828.5156,465.5469 Q827.7344,464.9844 826.9063,464.7031 Q826.0938,464.4063 825.2969,464.4063 Q824.4219,464.4063 823.9375,464.7656 Q823.4688,465.125 823.4688,465.7813 Q823.4688,466.2969 823.8125,466.6406 Q824.1563,466.9688 825.25,467.375 L826.3125,467.7813 Q827.7969,468.3281 828.5,469.2344 Q829.2188,470.1406 829.2188,471.5156 Q829.2188,473.3906 828.1094,474.3125 Q827,475.2344 824.75,475.2344 Q823.8281,475.2344 822.9063,475.0156 Q821.9844,474.7969 821.125,474.375 L821.125,471.8438 Q822.0938,472.5313 823.0156,472.875 Q823.9375,473.2188 824.8281,473.2188 Q825.7344,473.2188 826.2344,472.8125 Q826.7344,472.3906 826.7344,471.6563 Q826.7344,471.0938 826.3906,470.6875 Q826.0625,470.2656 825.4375,470.0156 L824.2344,469.5625 Z " fill="#000000"/><text fill="#000000" font-family="sans-serif" font-size="14" lengthAdjust="spacing" textLength="76" x="845.25" y="473.8467">Sequencer</text><line style="stroke:#181818;stroke-width:0.5;" x1="730" x2="1004" y1="485" y2="485"/><rect fill="none" height="6" style="stroke:#C82930;stroke-width:1.0;" width="6" x="737" y="495.6484"/><text fill="#000000" font-family="sans-serif" font-size="14" lengthAdjust="spacing" textLength="166" x="749" y="501.9951">SequencerConfig config</text><rect fill="none" height="6" style="stroke:#C82930;stroke-width:1.0;" width="6" x="737" y="511.9453"/><text fill="#000000" font-family="sans-serif" font-size="14" lengthAdjust="spacing" textLength="180" x="749" y="518.292">Server.Pushable pushable</text><line style="stroke:#181818;stroke-width:0.5;" x1="730" x2="1004" y1="525.5938" y2="525.5938"/><ellipse cx="740" cy="539.2422" fill="#84BE84" rx="3" ry="3" style="stroke:#038048;stroke-width:1.0;"/><text fill="#000000" font-family="sans-serif" font-size="14" lengthAdjust="spacing" textLength="250" x="749" y="542.5889">error AddPushable(Server.Pushable)</text><ellipse cx="740" cy="555.5391" fill="#84BE84" rx="3" ry="3" style="stroke:#038048;stroke-width:1.0;"/><text fill="#000000" font-family="sans-serif" font-size="14" lengthAdjust="spacing" textLength="215" x="749" y="558.8857">error SendTo(*Server.AppData)</text><ellipse cx="740" cy="571.8359" fill="#84BE84" rx="3" ry="3" style="stroke:#038048;stroke-width:1.0;"/><text fill="#000000" font-family="sans-serif" font-size="14" lengthAdjust="spacing" textLength="86" x="749" y="575.1826">error Serve()</text><ellipse cx="740" cy="588.1328" fill="#84BE84" rx="3" ry="3" style="stroke:#038048;stroke-width:1.0;"/><text fill="#000000" font-family="sans-serif" font-size="14" lengthAdjust="spacing" textLength="180" x="749" y="591.4795">error Setup(Server.Config)</text></g><!--class incomingData--><g id="elem_incomingData"><rect codeLine="44" fill="#F1F1F1" height="145.7813" id="incomingData" rx="2.5" ry="2.5" style="stroke:#181818;stroke-width:0.5;" width="193" x="22.5" y="41"/><ellipse cx="67.25" cy="57" fill="#F1F1F1" rx="11" ry="11" style="stroke:#181818;stroke-width:1.0;"/><path d="M66.7344,57.5625 Q64.875,56.8594 64.2188,56.0938 Q63.5781,55.3125 63.5781,54 Q63.5781,52.3125 64.6563,51.3438 Q65.7344,50.375 67.6094,50.375 Q68.4688,50.375 69.3125,50.5781 Q70.1719,50.7656 71.0156,51.1563 L71.0156,53.5469 Q70.2344,52.9844 69.4063,52.7031 Q68.5938,52.4063 67.7969,52.4063 Q66.9219,52.4063 66.4375,52.7656 Q65.9688,53.125 65.9688,53.7813 Q65.9688,54.2969 66.3125,54.6406 Q66.6563,54.9688 67.75,55.375 L68.8125,55.7813 Q70.2969,56.3281 71,57.2344 Q71.7188,58.1406 71.7188,59.5156 Q71.7188,61.3906 70.6094,62.3125 Q69.5,63.2344 67.25,63.2344 Q66.3281,63.2344 65.4063,63.0156 Q64.4844,62.7969 63.625,62.375 L63.625,59.8438 Q64.5938,60.5313 65.5156,60.875 Q66.4375,61.2188 67.3281,61.2188 Q68.2344,61.2188 68.7344,60.8125 Q69.2344,60.3906 69.2344,59.6563 Q69.2344,59.0938 68.8906,58.6875 Q68.5625,58.2656 67.9375,58.0156 L66.7344,57.5625 Z " fill="#000000"/><text fill="#000000" font-family="sans-serif" font-size="14" lengthAdjust="spacing" textLength="95" x="87.75" y="61.8467">incomingData</text><line style="stroke:#181818;stroke-width:0.5;" x1="23.5" x2="214.5" y1="73" y2="73"/><ellipse cx="33.5" cy="86.6484" fill="none" rx="3" ry="3" style="stroke:#038048;stroke-width:1.0;"/><text fill="#000000" font-family="sans-serif" font-size="14" lengthAdjust="spacing" textLength="92" x="42.5" y="89.9951">string NodeId</text><ellipse cx="33.5" cy="102.9453" fill="none" rx="3" ry="3" style="stroke:#038048;stroke-width:1.0;"/><text fill="#000000" font-family="sans-serif" font-size="14" lengthAdjust="spacing" textLength="100" x="42.5" y="106.292">string ParentId</text><ellipse cx="33.5" cy="119.2422" fill="none" rx="3" ry="3" style="stroke:#038048;stroke-width:1.0;"/><text fill="#000000" font-family="sans-serif" font-size="14" lengthAdjust="spacing" textLength="107" x="42.5" y="122.5889">[]string ChildIds</text><ellipse cx="33.5" cy="135.5391" fill="none" rx="3" ry="3" style="stroke:#038048;stroke-width:1.0;"/><text fill="#000000" font-family="sans-serif" font-size="14" lengthAdjust="spacing" textLength="114" x="42.5" y="138.8857">string NodeType</text><ellipse cx="33.5" cy="151.8359" fill="none" rx="3" ry="3" style="stroke:#038048;stroke-width:1.0;"/><text fill="#000000" font-family="sans-serif" font-size="14" lengthAdjust="spacing" textLength="98" x="42.5" y="155.1826">int Timestamp</text><ellipse cx="33.5" cy="168.1328" fill="none" rx="3" ry="3" style="stroke:#038048;stroke-width:1.0;"/><text fill="#000000" font-family="sans-serif" font-size="14" lengthAdjust="spacing" textLength="167" x="42.5" y="171.4795">map[string]any AppJSON</text><line style="stroke:#181818;stroke-width:0.5;" x1="23.5" x2="214.5" y1="178.7813" y2="178.7813"/></g><!--class incomingDataWithDuplicates--><g id="elem_incomingDataWithDuplicates"><rect codeLine="52" fill="#F1F1F1" height="80.5938" id="incomingDataWithDuplicates" rx="2.5" ry="2.5" style="stroke:#181818;stroke-width:0.5;" width="230" x="73" y="279.5"/><ellipse cx="88" cy="295.5" fill="#F1F1F1" rx="11" ry="11" style="stroke:#181818;stroke-width:1.0;"/><path d="M87.4844,296.0625 Q85.625,295.3594 84.9688,294.5938 Q84.3281,293.8125 84.3281,292.5 Q84.3281,290.8125 85.4063,289.8438 Q86.4844,288.875 88.3594,288.875 Q89.2188,288.875 90.0625,289.0781 Q90.9219,289.2656 91.7656,289.6563 L91.7656,292.0469 Q90.9844,291.4844 90.1563,291.2031 Q89.3438,290.9063 88.5469,290.9063 Q87.6719,290.9063 87.1875,291.2656 Q86.7188,291.625 86.7188,292.2813 Q86.7188,292.7969 87.0625,293.1406 Q87.4063,293.4688 88.5,293.875 L89.5625,294.2813 Q91.0469,294.8281 91.75,295.7344 Q92.4688,296.6406 92.4688,298.0156 Q92.4688,299.8906 91.3594,300.8125 Q90.25,301.7344 88,301.7344 Q87.0781,301.7344 86.1563,301.5156 Q85.2344,301.2969 84.375,300.875 L84.375,298.3438 Q85.3438,299.0313 86.2656,299.375 Q87.1875,299.7188 88.0781,299.7188 Q88.9844,299.7188 89.4844,299.3125 Q89.9844,298.8906 89.9844,298.1563 Q89.9844,297.5938 89.6406,297.1875 Q89.3125,296.7656 88.6875,296.5156 L87.4844,296.0625 Z " fill="#000000"/><text fill="#000000" font-family="sans-serif" font-size="14" lengthAdjust="spacing" textLength="198" x="102" y="300.3467">incomingDataWithDuplicates</text><line style="stroke:#181818;stroke-width:0.5;" x1="74" x2="302" y1="311.5" y2="311.5"/><ellipse cx="84" cy="325.1484" fill="none" rx="3" ry="3" style="stroke:#038048;stroke-width:1.0;"/><text fill="#000000" font-family="sans-serif" font-size="14" lengthAdjust="spacing" textLength="201" x="93" y="328.4951">*IncomingData IncomingData</text><ellipse cx="84" cy="341.4453" fill="none" rx="3" ry="3" style="stroke:#038048;stroke-width:1.0;"/><text fill="#000000" font-family="sans-serif" font-size="14" lengthAdjust="spacing" textLength="189" x="93" y="344.792">[]*IncomingData Duplicates</text><line style="stroke:#181818;stroke-width:0.5;" x1="74" x2="302" y1="352.0938" y2="352.0938"/></g><!--class stackIncomingData--><g id="elem_stackIncomingData"><rect codeLine="56" fill="#F1F1F1" height="113.1875" id="stackIncomingData" rx="2.5" ry="2.5" style="stroke:#181818;stroke-width:0.5;" width="433" x="21.5" y="469.5"/><ellipse cx="167.75" cy="485.5" fill="#F1F1F1" rx="11" ry="11" style="stroke:#181818;stroke-width:1.0;"/><path d="M167.2344,486.0625 Q165.375,485.3594 164.7188,484.5938 Q164.0781,483.8125 164.0781,482.5 Q164.0781,480.8125 165.1563,479.8438 Q166.2344,478.875 168.1094,478.875 Q168.9688,478.875 169.8125,479.0781 Q170.6719,479.2656 171.5156,479.6563 L171.5156,482.0469 Q170.7344,481.4844 169.9063,481.2031 Q169.0938,480.9063 168.2969,480.9063 Q167.4219,480.9063 166.9375,481.2656 Q166.4688,481.625 166.4688,482.2813 Q166.4688,482.7969 166.8125,483.1406 Q167.1563,483.4688 168.25,483.875 L169.3125,484.2813 Q170.7969,484.8281 171.5,485.7344 Q172.2188,486.6406 172.2188,488.0156 Q172.2188,489.8906 171.1094,490.8125 Q170,491.7344 167.75,491.7344 Q166.8281,491.7344 165.9063,491.5156 Q164.9844,491.2969 164.125,490.875 L164.125,488.3438 Q165.0938,489.0313 166.0156,489.375 Q166.9375,489.7188 167.8281,489.7188 Q168.7344,489.7188 169.2344,489.3125 Q169.7344,488.8906 169.7344,488.1563 Q169.7344,487.5938 169.3906,487.1875 Q169.0625,486.7656 168.4375,486.5156 L167.2344,486.0625 Z " fill="#000000"/><text fill="#000000" font-family="sans-serif" font-size="14" lengthAdjust="spacing" textLength="132" x="188.25" y="490.3467">stackIncomingData</text><line style="stroke:#181818;stroke-width:0.5;" x1="22.5" x2="453.5" y1="501.5" y2="501.5"/><ellipse cx="32.5" cy="515.1484" fill="none" rx="3" ry="3" style="stroke:#038048;stroke-width:1.0;"/><text fill="#000000" font-family="sans-serif" font-size="14" lengthAdjust="spacing" textLength="407" x="41.5" y="518.4951">*incomingDataWithDuplicates incomingDataWithDuplicates</text><rect fill="none" height="6" style="stroke:#C82930;stroke-width:1.0;" width="6" x="29.5" y="528.4453"/><text fill="#000000" font-family="sans-serif" font-size="14" lengthAdjust="spacing" textLength="142" x="41.5" y="534.792">int currentChildIndex</text><ellipse cx="32.5" cy="547.7422" fill="none" rx="3" ry="3" style="stroke:#038048;stroke-width:1.0;"/><text fill="#000000" font-family="sans-serif" font-size="14" lengthAdjust="spacing" textLength="98" x="41.5" y="551.0889">bool IsDummy</text><line style="stroke:#181818;stroke-width:0.5;" x1="22.5" x2="453.5" y1="558.3906" y2="558.3906"/><ellipse cx="32.5" cy="572.0391" fill="#84BE84" rx="3" ry="3" style="stroke:#038048;stroke-width:1.0;"/><text fill="#000000" font-family="sans-serif" font-size="14" lengthAdjust="spacing" textLength="181" x="41.5" y="575.3857">(string, error) NextChildId()</text></g><!--reverse link PipeServer to Sequencer--><g id="link_PipeServer_Sequencer"><path codeLine="64" d="M1397.4765,180.3175 C1284.9465,253.4375 1101.92,372.36 977.92,452.93 " fill="none" id="PipeServer-backto-Sequencer" style="stroke:#181818;stroke-width:1.0;"/><polygon fill="none" points="1412.57,170.51,1394.2074,175.2863,1400.7457,185.3486,1412.57,170.51" style="stroke:#181818;stroke-width:1.0;"/></g><!--reverse link Pushable to Sequencer--><g id="link_Pushable_Sequencer"><path codeLine="65" d="M1730.6045,152.2342 C1704.8845,167.4642 1683.32,179.58 1654,194.5 C1432.94,306.99 1164.53,413.66 1005.17,474.04 " fill="none" id="Pushable-backto-Sequencer" style="stroke:#181818;stroke-width:1.0;"/><polygon fill="#181818" points="1740.93,146.12,1733.7292,145.7353,1730.6045,152.2342,1737.8053,152.6189,1740.93,146.12" style="stroke:#181818;stroke-width:1.0;"/></g><!--reverse link Config to SequencerConfig--><g id="link_Config_SequencerConfig"><path codeLine="66" d="M1113.5236,154.1657 C1059.2736,180.8957 995.19,212.47 925.16,246.98 " fill="none" id="Config-backto-SequencerConfig" style="stroke:#181818;stroke-width:1.0;"/><polygon fill="none" points="1129.67,146.21,1110.8717,148.7835,1116.1754,159.5478,1129.67,146.21" style="stroke:#181818;stroke-width:1.0;"/></g><!--reverse link SequencerConfig to Sequencer--><g id="link_SequencerConfig_Sequencer"><path codeLine="67" d="M814.9052,404.2276 C823.2652,423.5976 827.54,433.52 835.89,452.89 " fill="none" id="SequencerConfig-backto-Sequencer" style="stroke:#181818;stroke-width:1.0;"/><polygon fill="#181818" points="810.15,393.21,808.855,400.3039,814.9052,404.2276,816.2001,397.1338,810.15,393.21" style="stroke:#181818;stroke-width:1.0;"/></g><!--reverse link incomingData to incomingDataWithDuplicates--><g id="link_incomingData_incomingDataWithDuplicates"><path codeLine="68" d="M147.2654,198.5772 C157.7354,229.5272 165.72,253.11 174.55,279.25 " fill="none" id="incomingData-backto-incomingDataWithDuplicates" style="stroke:#181818;stroke-width:1.0;"/><polygon fill="#181818" points="143.42,187.21,141.5536,194.1754,147.2654,198.5772,149.1318,191.6118,143.42,187.21" style="stroke:#181818;stroke-width:1.0;"/></g><!--reverse link incomingDataWithDuplicates to stackIncomingData--><g id="link_incomingDataWithDuplicates_stackIncomingData"><path codeLine="69" d="M200.6173,372.4749 C208.2073,403.4349 215.96,435.1 224.39,469.46 " fill="none" id="incomingDataWithDuplicates-backto-stackIncomingData" style="stroke:#181818;stroke-width:1.0;"/><polygon fill="#181818" points="197.76,360.82,195.3037,367.5999,200.6173,372.4749,203.0736,365.695,197.76,360.82" style="stroke:#181818;stroke-width:1.0;"/></g><!--reverse link groupApply to SequencerConfig--><g id="link_groupApply_SequencerConfig"><path codeLine="70" d="M661.5009,171.9448 C681.5409,197.0248 699.05,218.93 721.41,246.92 " fill="none" id="groupApply-backto-SequencerConfig" style="stroke:#181818;stroke-width:1.0;"/><polygon fill="#181818" points="654.01,162.57,654.6305,169.7544,661.5009,171.9448,660.8804,164.7604,654.01,162.57" style="stroke:#181818;stroke-width:1.0;"/></g><!--reverse link childrenByBackwardsLink to SequencerConfig--><g id="link_childrenByBackwardsLink_SequencerConfig"><path codeLine="71" d="M428.547,161.1147 C449.427,174.5247 463.31,182.62 486,194.5 C521.13,212.89 559.59,230.76 596.74,246.94 " fill="none" id="childrenByBackwardsLink-backto-SequencerConfig" style="stroke:#181818;stroke-width:1.0;"/><polygon fill="#181818" points="418.45,154.63,421.3369,161.238,428.547,161.1147,425.66,154.5067,418.45,154.63" style="stroke:#181818;stroke-width:1.0;"/></g><!--reverse link outputAppFieldSequenceType to SequencerConfig--><g id="link_outputAppFieldSequenceType_SequencerConfig"><path codeLine="72" d="M858.0179,165.4894 C844.5879,191.5794 832.13,215.77 816.23,246.66 " fill="none" id="outputAppFieldSequenceType-backto-SequencerConfig" style="stroke:#181818;stroke-width:1.0;"/><polygon fill="#181818" points="863.51,154.82,857.2075,158.324,858.0179,165.4894,864.3204,161.9854,863.51,154.82" style="stroke:#181818;stroke-width:1.0;"/></g><!--SRC=[ZLNBSjiW5DthArZASfqlwCQ9fnbrMiipyhIBJ1O4iCrO0egWZQRrlnSXoGAz8Yziu1uEzvxxC6MAo1D41AH4_YRouOcp4ps3lm4mdpMHaaiGipCfL6q9SoXU2YKfExz2Lgw2Mq3x70SgIBtqUROO7tHnWMyP2Ljeir-vk9GmVEHXr62sGkoWWZs8COMz8wL5w8KnxbtpfE_Rr9kt860m9uMe6Nvfmj0zBi9q3hXMGYjpuGib6MuXnrAqBrIVhPImlEzIgv_Ttkot4LGZ1SwIQs6OijAvkgxL1fR-oDCBb6HWZ35XYfvAixQu0U07p3H9JgCupmTqeHcMX3sMZn1T_q29Ys-KNLs7tZZFm3RBkXEdAAnnpx5Le1ZotpNqAirrDMa5RQ7Z4IMZkiVuEnGTTYOvoQHfD2udDy_jaZO1MkoKS4_Zvzt51KqshQAZtwOlBR8_hjrl0D4i-gvysASBUtMYNp_gsK6mb26U6oqgvf5wgOej7jR7mVG9KwxXvRKnsPJ4k1YbyYl0Z0zmf6O0A9YBqS8m2G8cxAzfifzt_ITLbvqsLOEW8eKRI1Ix4ReRrtaVrJ4DNpNEeciyeLequzEqgQkYIX6aPILkhIF3vBqt7E9Yf_Ey6tZhi1Rh4x1vNu4zUMzkux3Dk1crmp-Gp_yscwxQ7-whe5_CqJokQOafkjeSJ5fcwDiphqfz-8oiIq0zja5s7H9dIaKB8vsQMqllpupOUOh_]--></g></svg>