<?xml version="1.0" encoding="us-ascii" standalone="no"?><svg xmlns="http://www.w3.org/2000/svg" xmlns:xlink="http://www.w3.org/1999/xlink" contentStyleType="text/css" height="572px" preserveAspectRatio="none" style="width:1231px;height:572px;background:#FFFFFF;" version="1.1" viewBox="0 0 1231 572" width="1231px" zoomAndPan="magnify"><defs/><g><!--cluster Server--><g id="cluster_Server"><path d="M342.5,6 L396.5,6 A3.75,3.75 0 0 1 399,8.5 L406,28.2969 L1221.5,28.2969 A2.5,2.5 0 0 1 1224,30.7969 L1224,167.5 A2.5,2.5 0 0 1 1221.5,170 L342.5,170 A2.5,2.5 0 0 1 340,167.5 L340,8.5 A2.5,2.5 0 0 1 342.5,6 " fill="none" style="stroke:#000000;stroke-width:1.5;"/><line style="stroke:#000000;stroke-width:1.5;" x1="340" x2="406" y1="28.2969" y2="28.2969"/><text fill="#000000" font-family="sans-serif" font-size="14" font-weight="bold" lengthAdjust="spacing" textLength="53" x="344" y="20.9951">Server</text></g><!--cluster Sequencer--><g id="cluster_Sequencer"><path d="M8.5,14 L95.5,14 A3.75,3.75 0 0 1 98,16.5 L105,36.2969 L313.5,36.2969 A2.5,2.5 0 0 1 316,38.7969 L316,562.5 A2.5,2.5 0 0 1 313.5,565 L8.5,565 A2.5,2.5 0 0 1 6,562.5 L6,16.5 A2.5,2.5 0 0 1 8.5,14 " fill="none" style="stroke:#000000;stroke-width:1.5;"/><line style="stroke:#000000;stroke-width:1.5;" x1="6" x2="105" y1="36.2969" y2="36.2969"/><text fill="#000000" font-family="sans-serif" font-size="14" font-weight="bold" lengthAdjust="spacing" textLength="86" x="10" y="28.9951">Sequencer</text></g><!--class Config--><g id="elem_Config"><rect codeLine="1" fill="#F1F1F1" height="64.2969" id="Config" rx="2.5" ry="2.5" style="stroke:#181818;stroke-width:0.5;" width="263" x="356.5" y="65.5"/><ellipse cx="461.75" cy="81.5" fill="#B4A7E5" rx="11" ry="11" style="stroke:#181818;stroke-width:1.0;"/><path d="M457.6719,77.2656 L457.6719,75.1094 L465.0625,75.1094 L465.0625,77.2656 L462.5938,77.2656 L462.5938,85.3438 L465.0625,85.3438 L465.0625,87.5 L457.6719,87.5 L457.6719,85.3438 L460.1406,85.3438 L460.1406,77.2656 L457.6719,77.2656 Z " fill="#000000"/><text fill="#000000" font-family="sans-serif" font-size="14" font-style="italic" lengthAdjust="spacing" textLength="44" x="482.25" y="86.3467">Config</text><line style="stroke:#181818;stroke-width:0.5;" x1="357.5" x2="618.5" y1="97.5" y2="97.5"/><line style="stroke:#181818;stroke-width:0.5;" x1="357.5" x2="618.5" y1="105.5" y2="105.5"/><ellipse cx="367.5" cy="119.1484" fill="#84BE84" rx="3" ry="3" style="stroke:#038048;stroke-width:1.0;"/><text fill="#000000" font-family="sans-serif" font-size="14" lengthAdjust="spacing" textLength="237" x="376.5" y="122.4951">error IngestConfig(map[string]any)</text></g><!--class PipeServer--><g id="elem_PipeServer"><rect codeLine="4" fill="#F1F1F1" height="113.1875" id="PipeServer" rx="2.5" ry="2.5" style="stroke:#181818;stroke-width:0.5;" width="276" x="655" y="41"/><ellipse cx="751.75" cy="57" fill="#B4A7E5" rx="11" ry="11" style="stroke:#181818;stroke-width:1.0;"/><path d="M747.6719,52.7656 L747.6719,50.6094 L755.0625,50.6094 L755.0625,52.7656 L752.5938,52.7656 L752.5938,60.8438 L755.0625,60.8438 L755.0625,63 L747.6719,63 L747.6719,60.8438 L750.1406,60.8438 L750.1406,52.7656 L747.6719,52.7656 Z " fill="#000000"/><text fill="#000000" font-family="sans-serif" font-size="14" font-style="italic" lengthAdjust="spacing" textLength="74" x="772.25" y="61.8467">PipeServer</text><line style="stroke:#181818;stroke-width:0.5;" x1="656" x2="930" y1="73" y2="73"/><line style="stroke:#181818;stroke-width:0.5;" x1="656" x2="930" y1="81" y2="81"/><ellipse cx="666" cy="94.6484" fill="#84BE84" rx="3" ry="3" style="stroke:#038048;stroke-width:1.0;"/><text fill="#000000" font-family="sans-serif" font-size="14" lengthAdjust="spacing" textLength="250" x="675" y="97.9951">error AddPushable(Server.Pushable)</text><ellipse cx="666" cy="110.9453" fill="#84BE84" rx="3" ry="3" style="stroke:#038048;stroke-width:1.0;"/><text fill="#000000" font-family="sans-serif" font-size="14" lengthAdjust="spacing" textLength="215" x="675" y="114.292">error SendTo(*Server.AppData)</text><ellipse cx="666" cy="127.2422" fill="#84BE84" rx="3" ry="3" style="stroke:#038048;stroke-width:1.0;"/><text fill="#000000" font-family="sans-serif" font-size="14" lengthAdjust="spacing" textLength="86" x="675" y="130.5889">error Serve()</text><ellipse cx="666" cy="143.5391" fill="#84BE84" rx="3" ry="3" style="stroke:#038048;stroke-width:1.0;"/><text fill="#000000" font-family="sans-serif" font-size="14" lengthAdjust="spacing" textLength="180" x="675" y="146.8857">error Setup(Server.Config)</text></g><!--class Pushable--><g id="elem_Pushable"><rect codeLine="10" fill="#F1F1F1" height="64.2969" id="Pushable" rx="2.5" ry="2.5" style="stroke:#181818;stroke-width:0.5;" width="241" x="966.5" y="65.5"/><ellipse cx="1050.75" cy="81.5" fill="#B4A7E5" rx="11" ry="11" style="stroke:#181818;stroke-width:1.0;"/><path d="M1046.6719,77.2656 L1046.6719,75.1094 L1054.0625,75.1094 L1054.0625,77.2656 L1051.5938,77.2656 L1051.5938,85.3438 L1054.0625,85.3438 L1054.0625,87.5 L1046.6719,87.5 L1046.6719,85.3438 L1049.1406,85.3438 L1049.1406,77.2656 L1046.6719,77.2656 Z " fill="#000000"/><text fill="#000000" font-family="sans-serif" font-size="14" font-style="italic" lengthAdjust="spacing" textLength="64" x="1071.25" y="86.3467">Pushable</text><line style="stroke:#181818;stroke-width:0.5;" x1="967.5" x2="1206.5" y1="97.5" y2="97.5"/><line style="stroke:#181818;stroke-width:0.5;" x1="967.5" x2="1206.5" y1="105.5" y2="105.5"/><ellipse cx="977.5" cy="119.1484" fill="#84BE84" rx="3" ry="3" style="stroke:#038048;stroke-width:1.0;"/><text fill="#000000" font-family="sans-serif" font-size="14" lengthAdjust="spacing" textLength="215" x="986.5" y="122.4951">error SendTo(*Server.AppData)</text></g><!--class SequenceMethod--><g id="elem_SequenceMethod"><rect codeLine="15" fill="#F1F1F1" height="96.8906" id="SequenceMethod" rx="2.5" ry="2.5" style="stroke:#181818;stroke-width:0.5;" width="156" x="83" y="49"/><ellipse cx="98" cy="65" fill="#EB937F" rx="11" ry="11" style="stroke:#181818;stroke-width:1.0;"/><path d="M102.1094,71 L94.3906,71 L94.3906,58.6094 L102.1094,58.6094 L102.1094,60.7656 L96.8438,60.7656 L96.8438,63.4375 L101.6094,63.4375 L101.6094,65.5938 L96.8438,65.5938 L96.8438,68.8438 L102.1094,68.8438 L102.1094,71 Z " fill="#000000"/><text fill="#000000" font-family="sans-serif" font-size="14" lengthAdjust="spacing" textLength="124" x="112" y="69.8467">SequenceMethod</text><line style="stroke:#181818;stroke-width:0.5;" x1="84" x2="238" y1="81" y2="81"/><text fill="#000000" font-family="sans-serif" font-size="14" lengthAdjust="spacing" textLength="81" x="89" y="97.9951">TIMESTAMP</text><text fill="#000000" font-family="sans-serif" font-size="14" lengthAdjust="spacing" textLength="141" x="89" y="114.292">ORDEREDCHILDREN</text><text fill="#000000" font-family="sans-serif" font-size="14" lengthAdjust="spacing" textLength="98" x="89" y="130.5889">COMBINATION</text><line style="stroke:#181818;stroke-width:0.5;" x1="84" x2="238" y1="137.8906" y2="137.8906"/></g><!--class SequencerConfig--><g id="elem_SequencerConfig"><rect codeLine="20" fill="#F1F1F1" height="129.4844" id="SequencerConfig" rx="2.5" ry="2.5" style="stroke:#181818;stroke-width:0.5;" width="278" x="22" y="214"/><ellipse cx="96.75" cy="230" fill="#F1F1F1" rx="11" ry="11" style="stroke:#181818;stroke-width:1.0;"/><path d="M96.2344,230.5625 Q94.375,229.8594 93.7188,229.0938 Q93.0781,228.3125 93.0781,227 Q93.0781,225.3125 94.1563,224.3438 Q95.2344,223.375 97.1094,223.375 Q97.9688,223.375 98.8125,223.5781 Q99.6719,223.7656 100.5156,224.1563 L100.5156,226.5469 Q99.7344,225.9844 98.9063,225.7031 Q98.0938,225.4063 97.2969,225.4063 Q96.4219,225.4063 95.9375,225.7656 Q95.4688,226.125 95.4688,226.7813 Q95.4688,227.2969 95.8125,227.6406 Q96.1563,227.9688 97.25,228.375 L98.3125,228.7813 Q99.7969,229.3281 100.5,230.2344 Q101.2188,231.1406 101.2188,232.5156 Q101.2188,234.3906 100.1094,235.3125 Q99,236.2344 96.75,236.2344 Q95.8281,236.2344 94.9063,236.0156 Q93.9844,235.7969 93.125,235.375 L93.125,232.8438 Q94.0938,233.5313 95.0156,233.875 Q95.9375,234.2188 96.8281,234.2188 Q97.7344,234.2188 98.2344,233.8125 Q98.7344,233.3906 98.7344,232.6563 Q98.7344,232.0938 98.3906,231.6875 Q98.0625,231.2656 97.4375,231.0156 L96.2344,230.5625 Z " fill="#000000"/><text fill="#000000" font-family="sans-serif" font-size="14" lengthAdjust="spacing" textLength="120" x="117.25" y="234.8467">SequencerConfig</text><line style="stroke:#181818;stroke-width:0.5;" x1="23" x2="299" y1="246" y2="246"/><rect fill="none" height="6" style="stroke:#C82930;stroke-width:1.0;" width="6" x="30" y="256.6484"/><text fill="#000000" font-family="sans-serif" font-size="14" lengthAdjust="spacing" textLength="251" x="42" y="262.9951">SequenceMethod sequenceMethod</text><rect fill="none" height="6" style="stroke:#C82930;stroke-width:1.0;" width="6" x="30" y="272.9453"/><text fill="#000000" font-family="sans-serif" font-size="14" lengthAdjust="spacing" textLength="134" x="42" y="279.292">string inputSchema</text><rect fill="none" height="6" style="stroke:#C82930;stroke-width:1.0;" width="6" x="30" y="289.2422"/><text fill="#000000" font-family="sans-serif" font-size="14" lengthAdjust="spacing" textLength="145" x="42" y="295.5889">string outputSchema</text><rect fill="none" height="6" style="stroke:#C82930;stroke-width:1.0;" width="6" x="30" y="305.5391"/><text fill="#000000" font-family="sans-serif" font-size="14" lengthAdjust="spacing" textLength="252" x="42" y="311.8857">map[string]string inputToOutputMap</text><line style="stroke:#181818;stroke-width:0.5;" x1="23" x2="299" y1="319.1875" y2="319.1875"/><ellipse cx="33" cy="332.8359" fill="#84BE84" rx="3" ry="3" style="stroke:#038048;stroke-width:1.0;"/><text fill="#000000" font-family="sans-serif" font-size="14" lengthAdjust="spacing" textLength="237" x="42" y="336.1826">error IngestConfig(map[string]any)</text></g><!--class Sequencer--><g id="elem_Sequencer"><rect codeLine="27" fill="#F1F1F1" height="145.7813" id="Sequencer" rx="2.5" ry="2.5" style="stroke:#181818;stroke-width:0.5;" width="276" x="24" y="403"/><ellipse cx="119.75" cy="419" fill="#F1F1F1" rx="11" ry="11" style="stroke:#181818;stroke-width:1.0;"/><path d="M119.2344,419.5625 Q117.375,418.8594 116.7188,418.0938 Q116.0781,417.3125 116.0781,416 Q116.0781,414.3125 117.1563,413.3438 Q118.2344,412.375 120.1094,412.375 Q120.9688,412.375 121.8125,412.5781 Q122.6719,412.7656 123.5156,413.1563 L123.5156,415.5469 Q122.7344,414.9844 121.9063,414.7031 Q121.0938,414.4063 120.2969,414.4063 Q119.4219,414.4063 118.9375,414.7656 Q118.4688,415.125 118.4688,415.7813 Q118.4688,416.2969 118.8125,416.6406 Q119.1563,416.9688 120.25,417.375 L121.3125,417.7813 Q122.7969,418.3281 123.5,419.2344 Q124.2188,420.1406 124.2188,421.5156 Q124.2188,423.3906 123.1094,424.3125 Q122,425.2344 119.75,425.2344 Q118.8281,425.2344 117.9063,425.0156 Q116.9844,424.7969 116.125,424.375 L116.125,421.8438 Q117.0938,422.5313 118.0156,422.875 Q118.9375,423.2188 119.8281,423.2188 Q120.7344,423.2188 121.2344,422.8125 Q121.7344,422.3906 121.7344,421.6563 Q121.7344,421.0938 121.3906,420.6875 Q121.0625,420.2656 120.4375,420.0156 L119.2344,419.5625 Z " fill="#000000"/><text fill="#000000" font-family="sans-serif" font-size="14" lengthAdjust="spacing" textLength="76" x="140.25" y="423.8467">Sequencer</text><line style="stroke:#181818;stroke-width:0.5;" x1="25" x2="299" y1="435" y2="435"/><rect fill="none" height="6" style="stroke:#C82930;stroke-width:1.0;" width="6" x="32" y="445.6484"/><text fill="#000000" font-family="sans-serif" font-size="14" lengthAdjust="spacing" textLength="166" x="44" y="451.9951">SequencerConfig config</text><rect fill="none" height="6" style="stroke:#C82930;stroke-width:1.0;" width="6" x="32" y="461.9453"/><text fill="#000000" font-family="sans-serif" font-size="14" lengthAdjust="spacing" textLength="180" x="44" y="468.292">Server.Pushable pushable</text><line style="stroke:#181818;stroke-width:0.5;" x1="25" x2="299" y1="475.5938" y2="475.5938"/><ellipse cx="35" cy="489.2422" fill="#84BE84" rx="3" ry="3" style="stroke:#038048;stroke-width:1.0;"/><text fill="#000000" font-family="sans-serif" font-size="14" lengthAdjust="spacing" textLength="250" x="44" y="492.5889">error AddPushable(Server.Pushable)</text><ellipse cx="35" cy="505.5391" fill="#84BE84" rx="3" ry="3" style="stroke:#038048;stroke-width:1.0;"/><text fill="#000000" font-family="sans-serif" font-size="14" lengthAdjust="spacing" textLength="215" x="44" y="508.8857">error SendTo(*Server.AppData)</text><ellipse cx="35" cy="521.8359" fill="#84BE84" rx="3" ry="3" style="stroke:#038048;stroke-width:1.0;"/><text fill="#000000" font-family="sans-serif" font-size="14" lengthAdjust="spacing" textLength="86" x="44" y="525.1826">error Serve()</text><ellipse cx="35" cy="538.1328" fill="#84BE84" rx="3" ry="3" style="stroke:#038048;stroke-width:1.0;"/><text fill="#000000" font-family="sans-serif" font-size="14" lengthAdjust="spacing" textLength="180" x="44" y="541.4795">error Setup(Server.Config)</text></g><!--reverse link PipeServer to Sequencer--><g id="link_PipeServer_Sequencer"><path codeLine="37" d="M684.4327,163.2735 C573.7927,229.2935 404.36,330.39 282.79,402.93 " fill="none" id="PipeServer-backto-Sequencer" style="stroke:#181818;stroke-width:1.0;"/><polygon fill="none" points="699.89,154.05,681.3582,158.1211,687.5072,168.4259,699.89,154.05" style="stroke:#181818;stroke-width:1.0;"/></g><!--reverse link Pushable to Sequencer--><g id="link_Pushable_Sequencer"><path codeLine="38" d="M1027.3024,135.7644 C1001.4524,151.3444 979.24,163.69 949,178 C728.04,282.52 459.6,377.32 300.21,430.44 " fill="none" id="Pushable-backto-Sequencer" style="stroke:#181818;stroke-width:1.0;"/><polygon fill="#181818" points="1037.58,129.57,1030.3764,129.2413,1027.3024,135.7644,1034.506,136.0931,1037.58,129.57" style="stroke:#181818;stroke-width:1.0;"/></g><!--reverse link Config to SequencerConfig--><g id="link_Config_SequencerConfig"><path codeLine="39" d="M415.2511,138.3236 C372.8911,161.5136 329.42,185.31 277.2,213.89 " fill="none" id="Config-backto-SequencerConfig" style="stroke:#181818;stroke-width:1.0;"/><polygon fill="none" points="431.04,129.68,412.3699,133.0607,418.1324,143.5866,431.04,129.68" style="stroke:#181818;stroke-width:1.0;"/></g><!--reverse link SequencerConfig to Sequencer--><g id="link_SequencerConfig_Sequencer"><path codeLine="40" d="M161.3867,355.2399 C161.4767,374.2999 161.53,383.32 161.63,402.87 " fill="none" id="SequencerConfig-backto-Sequencer" style="stroke:#181818;stroke-width:1.0;"/><polygon fill="#181818" points="161.33,343.24,157.3584,349.2588,161.3867,355.2399,165.3583,349.221,161.33,343.24" style="stroke:#181818;stroke-width:1.0;"/></g><!--reverse link SequenceMethod to SequencerConfig--><g id="link_SequenceMethod_SequencerConfig"><path codeLine="41" d="M161,158.47 C161,179.18 161,191.7 161,213.9 " fill="none" id="SequenceMethod-backto-SequencerConfig" style="stroke:#181818;stroke-width:1.0;"/><polygon fill="#181818" points="161,146.47,157,152.47,161,158.47,165,152.47,161,146.47" style="stroke:#181818;stroke-width:1.0;"/></g><!--SRC=[ZLD1ReCm4Bpx5Hm9LVA2NcX0Ab884N2hUd1X0qZ5kCQkLBNvUmbs33Y1n0TOxunsFTvnHJYm8yx0Ie1z0zji6tAi2kiNMTrw0iOQPWMaW9PBnAunVMivgqZnZidF2frGPTOuL1HaEAtZvlb1j2N- -0JxGbNxrPYN0CdJndOKnwNKmnmRb0woZHGNr9x8k7qwrN9wjhcU9uG8hg6biiAN099fNK14hPCXyBB95N9UQH3wIUg61vs9Oi-FVM_x6koysD_h_3OANuAzcmQHp9twRtVB8kD3qybepcjjj6udsu4cnsLLX0gUP2NK-0fh1By1ZcOzhf4sKKyFCTNSHwmoB-sMg8lUhF-DyUaOgGhCeznrsuEEct7TFUT9iPrzhX_5yzzwFMZVw0YPqfnbdhgWkN8IHhF8GdapfmpcB3Nw1m00]--></g></svg>