<?xml version="1.0" encoding="us-ascii" standalone="no"?><svg xmlns="http://www.w3.org/2000/svg" xmlns:xlink="http://www.w3.org/1999/xlink" contentStyleType="text/css" height="2470px" preserveAspectRatio="none" style="width:1691px;height:2470px;background:#FFFFFF;" version="1.1" viewBox="0 0 1691 2470" width="1691px" zoomAndPan="magnify"><defs/><g><rect fill="none" height="2448.5" style="stroke:#000000;stroke-width:1.5;" width="1669.5" x="11" y="11"/><path d="M119,11 L119,20.2969 L109,30.2969 L11,30.2969 " fill="none" style="stroke:#000000;stroke-width:1.5;"/><text fill="#000000" font-family="sans-serif" font-size="14" lengthAdjust="spacing" textLength="98" x="14" y="24.9951">JSON Extractor</text><line style="stroke:none;stroke-width:1.5;" x1="112" x2="939.75" y1="35.2969" y2="35.2969"/><polygon fill="none" points="23,1170.6172,62,1170.6172,69,1192.9141,201,1192.9141,201,1317.1797,23,1317.1797,23,1170.6172" style="stroke:#000000;stroke-width:1.5;"/><line style="stroke:#000000;stroke-width:1.5;" x1="23" x2="69" y1="1192.9141" y2="1192.9141"/><text fill="#000000" font-family="sans-serif" font-size="14" lengthAdjust="spacing" textLength="33" x="27" y="1185.6123">main</text><rect fill="none" height="90.2656" style="stroke:#000000;stroke-width:1.5;" width="158" x="33" y="1206.9141"/><path d="M86,1206.9141 L86,1216.2109 L76,1226.2109 L33,1226.2109 " fill="none" style="stroke:#000000;stroke-width:1.5;"/><text fill="#000000" font-family="sans-serif" font-size="14" lengthAdjust="spacing" textLength="43" x="36" y="1220.9092">main()</text><rect fill="#F1F1F1" height="33.9688" rx="12.5" ry="12.5" style="stroke:#181818;stroke-width:0.5;" width="138" x="43" y="1243.2109"/><text fill="#000000" font-family="sans-serif" font-size="12" lengthAdjust="spacing" textLength="118" x="53" y="1264.3496">Call Server.RunApp</text><polygon fill="none" points="211,40.2969,292,40.2969,299,62.5938,1668.5,62.5938,1668.5,2447.5,211,2447.5,211,40.2969" style="stroke:#000000;stroke-width:1.5;"/><line style="stroke:#000000;stroke-width:1.5;" x1="211" x2="299" y1="62.5938" y2="62.5938"/><text fill="#000000" font-family="sans-serif" font-size="14" lengthAdjust="spacing" textLength="75" x="215" y="55.292">sequencer</text><line style="stroke:none;stroke-width:1.5;" x1="630" x2="1355.5" y1="76.5938" y2="76.5938"/><rect fill="none" height="90.2656" style="stroke:#000000;stroke-width:1.5;" width="313" x="473.5" y="98.0938"/><path d="M776.5,98.0938 L776.5,107.3906 L766.5,117.3906 L473.5,117.3906 " fill="none" style="stroke:#000000;stroke-width:1.5;"/><text fill="#000000" font-family="sans-serif" font-size="14" lengthAdjust="spacing" textLength="293" x="476.5" y="112.0889">AddPushable(*Sequencer, Pushable) error</text><rect fill="#F1F1F1" height="33.9688" rx="12.5" ry="12.5" style="stroke:#181818;stroke-width:0.5;" width="253" x="503.5" y="134.3906"/><text fill="#000000" font-family="sans-serif" font-size="12" lengthAdjust="spacing" textLength="233" x="513.5" y="155.5293">Add Pushable to Sequencer instance</text><rect fill="none" height="90.2656" style="stroke:#000000;stroke-width:1.5;" width="340" x="460" y="223.3594"/><path d="M639,223.3594 L639,232.6563 L629,242.6563 L460,242.6563 " fill="none" style="stroke:#000000;stroke-width:1.5;"/><text fill="#000000" font-family="sans-serif" font-size="14" lengthAdjust="spacing" textLength="169" x="463" y="237.3545">Serve(*Sequencer) error</text><rect fill="#F1F1F1" height="33.9688" rx="12.5" ry="12.5" style="stroke:#181818;stroke-width:0.5;" width="320" x="470" y="259.6563"/><text fill="#000000" font-family="sans-serif" font-size="12" lengthAdjust="spacing" textLength="300" x="480" y="280.7949">checks if everything is correctly set and finishes</text><rect fill="none" height="159.2344" style="stroke:#000000;stroke-width:1.5;" width="302" x="479" y="348.625"/><path d="M712,348.625 L712,357.9219 L702,367.9219 L479,367.9219 " fill="none" style="stroke:#000000;stroke-width:1.5;"/><text fill="#000000" font-family="sans-serif" font-size="14" lengthAdjust="spacing" textLength="223" x="482" y="362.6201">Setup(*Sequencer, Config) error</text><rect fill="#F1F1F1" height="33.9688" rx="12.5" ry="12.5" style="stroke:#181818;stroke-width:0.5;" width="282" x="489" y="384.9219"/><text fill="#000000" font-family="sans-serif" font-size="12" lengthAdjust="spacing" textLength="262" x="499" y="406.0605">check if config is of SeqeuncerConfig type</text><rect fill="#F1F1F1" height="33.9688" rx="12.5" ry="12.5" style="stroke:#181818;stroke-width:0.5;" width="233" x="513.5" y="453.8906"/><text fill="#000000" font-family="sans-serif" font-size="12" lengthAdjust="spacing" textLength="213" x="523.5" y="475.0293">add config to Sequencer instance</text><rect fill="none" height="910.6563" style="stroke:#000000;stroke-width:1.5;" width="814" x="235" y="542.8594"/><path d="M1039,542.8594 L1039,552.1563 L1029,562.1563 L235,562.1563 " fill="none" style="stroke:#000000;stroke-width:1.5;"/><text fill="#000000" font-family="sans-serif" font-size="14" lengthAdjust="spacing" textLength="794" x="238" y="556.8545">sequenceRecursive(rootNode IncomingData, nodeIdToNodeMap map[string]IncomingData) ([]IncomingData , error)</text><rect fill="#F1F1F1" height="33.9688" rx="12.5" ry="12.5" style="stroke:#181818;stroke-width:0.5;" width="241" x="509.5" y="579.1563"/><text fill="#000000" font-family="sans-serif" font-size="12" lengthAdjust="spacing" textLength="221" x="519.5" y="600.2949">create empty slice of IncomingData</text><rect fill="#F1F1F1" height="33.9688" rx="12.5" ry="12.5" style="stroke:#181818;stroke-width:0.5;" width="271" x="494.5" y="720.125"/><text fill="#000000" font-family="sans-serif" font-size="12" lengthAdjust="spacing" textLength="251" x="504.5" y="741.2637">look up child node in nodeIdToNodeMap</text><rect fill="#F1F1F1" height="33.9688" rx="12.5" ry="12.5" style="stroke:#181818;stroke-width:0.5;" width="196" x="532" y="837.4961"/><text fill="#000000" font-family="sans-serif" font-size="12" lengthAdjust="spacing" textLength="176" x="542" y="858.6348">return empty slice and error</text><polygon fill="#F1F1F1" points="618,789.0938,642,789.0938,654,801.0938,642,813.0938,618,813.0938,606,801.0938,618,789.0938" style="stroke:#181818;stroke-width:0.5;"/><text fill="#000000" font-family="sans-serif" font-size="11" lengthAdjust="spacing" textLength="135" x="634" y="823.3042">child node doesn't exist</text><text fill="#000000" font-family="sans-serif" font-size="11" lengthAdjust="spacing" textLength="7" x="626.5" y="804.9019">if</text><polygon fill="#F1F1F1" points="630,895.8672,642,907.8672,630,919.8672,618,907.8672,630,895.8672" style="stroke:#181818;stroke-width:0.5;"/><rect fill="#F1F1F1" height="33.9688" rx="12.5" ry="12.5" style="stroke:#181818;stroke-width:0.5;" width="259" x="500.5" y="954.8672"/><text fill="#000000" font-family="sans-serif" font-size="12" lengthAdjust="spacing" textLength="239" x="510.5" y="976.0059">recursive call to sequence using node</text><rect fill="#F1F1F1" height="33.9688" rx="12.5" ry="12.5" style="stroke:#181818;stroke-width:0.5;" width="196" x="532" y="1072.2383"/><text fill="#000000" font-family="sans-serif" font-size="12" lengthAdjust="spacing" textLength="176" x="542" y="1093.377">return empty slice and error</text><polygon fill="#F1F1F1" points="618,1023.8359,642,1023.8359,654,1035.8359,642,1047.8359,618,1047.8359,606,1035.8359,618,1023.8359" style="stroke:#181818;stroke-width:0.5;"/><text fill="#000000" font-family="sans-serif" font-size="11" lengthAdjust="spacing" textLength="29" x="634" y="1058.0464">error</text><text fill="#000000" font-family="sans-serif" font-size="11" lengthAdjust="spacing" textLength="7" x="626.5" y="1039.644">if</text><polygon fill="#F1F1F1" points="630,1130.6094,642,1142.6094,630,1154.6094,618,1142.6094,630,1130.6094" style="stroke:#181818;stroke-width:0.5;"/><rect fill="#F1F1F1" height="33.9688" rx="12.5" ry="12.5" style="stroke:#181818;stroke-width:0.5;" width="157" x="551.5" y="1189.6094"/><text fill="#000000" font-family="sans-serif" font-size="12" lengthAdjust="spacing" textLength="137" x="561.5" y="1210.748">append result to slice</text><polygon fill="#F1F1F1" points="630,648.125,642,660.125,630,672.125,618,660.125,630,648.125" style="stroke:#181818;stroke-width:0.5;"/><polygon fill="#F1F1F1" points="535.5,1271.5781,724.5,1271.5781,736.5,1283.5781,724.5,1295.5781,535.5,1295.5781,523.5,1283.5781,535.5,1271.5781" style="stroke:#181818;stroke-width:0.5;"/><text fill="#000000" font-family="sans-serif" font-size="11" lengthAdjust="spacing" textLength="189" x="535.5" y="1287.3862">for each node in OrderedChildIds</text><rect fill="#F1F1F1" height="33.9688" rx="12.5" ry="12.5" style="stroke:#181818;stroke-width:0.5;" width="156" x="552" y="1330.5781"/><text fill="#000000" font-family="sans-serif" font-size="12" lengthAdjust="spacing" textLength="136" x="562" y="1351.7168">add rootNode to slice</text><rect fill="#F1F1F1" height="33.9688" rx="12.5" ry="12.5" style="stroke:#181818;stroke-width:0.5;" width="91" x="584.5" y="1399.5469"/><text fill="#000000" font-family="sans-serif" font-size="12" lengthAdjust="spacing" textLength="71" x="594.5" y="1420.6855">return slice</text><rect fill="none" height="918.9844" style="stroke:#000000;stroke-width:1.5;" width="814" x="248.5" y="1488.5156"/><path d="M1052.5,1488.5156 L1052.5,1497.8125 L1042.5,1507.8125 L248.5,1507.8125 " fill="none" style="stroke:#000000;stroke-width:1.5;"/><text fill="#000000" font-family="sans-serif" font-size="14" lengthAdjust="spacing" textLength="794" x="251.5" y="1502.5107">sequenceWithStack(rootNode IncomingData, nodeIdToNodeMap map[string]IncomingData) ([]IncomingData , error)</text><rect fill="#F1F1F1" height="33.9688" rx="12.5" ry="12.5" style="stroke:#181818;stroke-width:0.5;" width="241" x="509.5" y="1524.8125"/><text fill="#000000" font-family="sans-serif" font-size="12" lengthAdjust="spacing" textLength="221" x="519.5" y="1545.9512">create empty slice of IncomingData</text><rect fill="#F1F1F1" height="33.9688" rx="12.5" ry="12.5" style="stroke:#181818;stroke-width:0.5;" width="276" x="492" y="1593.7813"/><text fill="#000000" font-family="sans-serif" font-size="12" lengthAdjust="spacing" textLength="256" x="502" y="1614.9199">create empty slice of StackIncomingData</text><rect fill="#F1F1F1" height="33.9688" rx="12.5" ry="12.5" style="stroke:#181818;stroke-width:0.5;" width="278" x="491" y="1662.75"/><text fill="#000000" font-family="sans-serif" font-size="12" lengthAdjust="spacing" textLength="258" x="501" y="1683.8887">create StackIncomingData with rootNode</text><rect fill="#F1F1F1" height="33.9688" rx="12.5" ry="12.5" style="stroke:#181818;stroke-width:0.5;" width="169" x="545.5" y="1731.7188"/><text fill="#000000" font-family="sans-serif" font-size="12" lengthAdjust="spacing" textLength="149" x="555.5" y="1752.8574">push rootNode to stack</text><rect fill="#F1F1F1" height="33.9688" rx="12.5" ry="12.5" style="stroke:#181818;stroke-width:0.5;" width="291" x="484.5" y="1872.6875"/><text fill="#000000" font-family="sans-serif" font-size="12" lengthAdjust="spacing" textLength="271" x="494.5" y="1893.8262">pop node from stack of StackIncomingData</text><rect fill="#F1F1F1" height="33.9688" rx="12.5" ry="12.5" style="stroke:#181818;stroke-width:0.5;" width="192" x="534" y="1941.6563"/><text fill="#000000" font-family="sans-serif" font-size="12" lengthAdjust="spacing" textLength="172" x="544" y="1962.7949">call GetNextChildId on node</text><polygon fill="#F1F1F1" points="588.5,2010.625,671.5,2010.625,683.5,2022.625,671.5,2034.625,588.5,2034.625,576.5,2022.625,588.5,2010.625" style="stroke:#181818;stroke-width:0.5;"/><text fill="#000000" font-family="sans-serif" font-size="11" lengthAdjust="spacing" textLength="83" x="588.5" y="2026.4331">if no next child</text><text fill="#000000" font-family="sans-serif" font-size="11" lengthAdjust="spacing" textLength="23" x="553.5" y="2020.0308">true</text><text fill="#000000" font-family="sans-serif" font-size="11" lengthAdjust="spacing" textLength="28" x="683.5" y="2020.0308">false</text><rect fill="#F1F1F1" height="33.9688" rx="12.5" ry="12.5" style="stroke:#181818;stroke-width:0.5;" width="278" x="328.5" y="2044.625"/><text fill="#000000" font-family="sans-serif" font-size="12" lengthAdjust="spacing" textLength="258" x="338.5" y="2065.7637">push inner node to slice of IncomingData</text><rect fill="#F1F1F1" height="33.9688" rx="12.5" ry="12.5" style="stroke:#181818;stroke-width:0.5;" width="283" x="651" y="2044.625"/><text fill="#000000" font-family="sans-serif" font-size="12" lengthAdjust="spacing" textLength="263" x="661" y="2065.7637">push node to stack of StackIncomingData</text><rect fill="#F1F1F1" height="33.9688" rx="12.5" ry="12.5" style="stroke:#181818;stroke-width:0.5;" width="332" x="626.5" y="2113.5938"/><text fill="#000000" font-family="sans-serif" font-size="12" lengthAdjust="spacing" textLength="312" x="636.5" y="2134.7324">create StackIncomingData with next child using id</text><rect fill="#F1F1F1" height="33.9688" rx="12.5" ry="12.5" style="stroke:#181818;stroke-width:0.5;" width="311" x="637" y="2182.5625"/><text fill="#000000" font-family="sans-serif" font-size="12" lengthAdjust="spacing" textLength="291" x="647" y="2203.7012">push next child to stack of StackIncomingData</text><polygon fill="#F1F1F1" points="630,2222.5313,642,2234.5313,630,2246.5313,618,2234.5313,630,2222.5313" style="stroke:#181818;stroke-width:0.5;"/><polygon fill="#F1F1F1" points="630,1800.6875,642,1812.6875,630,1824.6875,618,1812.6875,630,1800.6875" style="stroke:#181818;stroke-width:0.5;"/><polygon fill="#F1F1F1" points="511,2294.5313,749,2294.5313,761,2306.5313,749,2318.5313,511,2318.5313,499,2306.5313,511,2294.5313" style="stroke:#181818;stroke-width:0.5;"/><text fill="#000000" font-family="sans-serif" font-size="11" lengthAdjust="spacing" textLength="238" x="511" y="2310.3394">until stack of StackIncomingData is empty</text><rect fill="#F1F1F1" height="33.9688" rx="12.5" ry="12.5" style="stroke:#181818;stroke-width:0.5;" width="197" x="531.5" y="2353.5313"/><text fill="#000000" font-family="sans-serif" font-size="12" lengthAdjust="spacing" textLength="177" x="541.5" y="2374.6699">return slice of IncomingData</text><rect fill="none" height="1095.7891" style="stroke:#000000;stroke-width:1.5;" width="554" x="1090.5" y="704.9023"/><path d="M1351.5,704.9023 L1351.5,714.1992 L1341.5,724.1992 L1090.5,724.1992 " fill="none" style="stroke:#000000;stroke-width:1.5;"/><text fill="#000000" font-family="sans-serif" font-size="14" lengthAdjust="spacing" textLength="251" x="1093.5" y="718.8975">SendTo(*Sequencer, AppData) error</text><rect fill="#F1F1F1" height="33.9688" rx="12.5" ry="12.5" style="stroke:#181818;stroke-width:0.5;" width="373" x="1169" y="741.1992"/><text fill="#000000" font-family="sans-serif" font-size="12" lengthAdjust="spacing" textLength="353" x="1179" y="762.3379">Extract JSON array data against the IncomingData struct</text><rect fill="#F1F1F1" height="33.9688" rx="12.5" ry="12.5" style="stroke:#181818;stroke-width:0.5;" width="479" x="1116" y="810.168"/><text fill="#000000" font-family="sans-serif" font-size="12" lengthAdjust="spacing" textLength="459" x="1126" y="831.3066">Create map of node id to nodes and map of node id to forward reference</text><rect fill="#F1F1F1" height="33.9688" rx="12.5" ry="12.5" style="stroke:#181818;stroke-width:0.5;" width="499" x="1106" y="879.1367"/><text fill="#000000" font-family="sans-serif" font-size="12" lengthAdjust="spacing" textLength="479" x="1116" y="900.2754">Get difference of node id to nodes and node id to forward reference as slice</text><rect fill="#F1F1F1" height="33.9688" rx="12.5" ry="12.5" style="stroke:#181818;stroke-width:0.5;" width="227" x="1242" y="948.1055"/><text fill="#000000" font-family="sans-serif" font-size="12" lengthAdjust="spacing" textLength="207" x="1252" y="969.2441">Create outgoing slice of appJSON</text><rect fill="#F1F1F1" height="33.9688" rx="12.5" ry="12.5" style="stroke:#181818;stroke-width:0.5;" width="510" x="1100.5" y="1089.0742"/><text fill="#000000" font-family="sans-serif" font-size="12" lengthAdjust="spacing" textLength="490" x="1110.5" y="1110.2129">call "sequence" method and update ordered list (first to last) of IncomingData</text><rect fill="#F1F1F1" height="33.9688" rx="12.5" ry="12.5" style="stroke:#181818;stroke-width:0.5;" width="259" x="1226" y="1278.4453"/><text fill="#000000" font-family="sans-serif" font-size="12" lengthAdjust="spacing" textLength="239" x="1236" y="1299.584">update appJSON with previous node id</text><polygon fill="#F1F1F1" points="1343.5,1230.043,1367.5,1230.043,1379.5,1242.043,1367.5,1254.043,1343.5,1254.043,1331.5,1242.043,1343.5,1230.043" style="stroke:#181818;stroke-width:0.5;"/><text fill="#000000" font-family="sans-serif" font-size="11" lengthAdjust="spacing" textLength="78" x="1359.5" y="1264.2534">not first entry</text><text fill="#000000" font-family="sans-serif" font-size="11" lengthAdjust="spacing" textLength="7" x="1352" y="1245.8511">if</text><polygon fill="#F1F1F1" points="1355.5,1336.8164,1367.5,1348.8164,1355.5,1360.8164,1343.5,1348.8164,1355.5,1336.8164" style="stroke:#181818;stroke-width:0.5;"/><rect fill="#F1F1F1" height="33.9688" rx="12.5" ry="12.5" style="stroke:#181818;stroke-width:0.5;" width="234" x="1238.5" y="1395.8164"/><text fill="#000000" font-family="sans-serif" font-size="12" lengthAdjust="spacing" textLength="214" x="1248.5" y="1416.9551">append appJSON to outgoing slice</text><polygon fill="#F1F1F1" points="1355.5,1158.043,1367.5,1170.043,1355.5,1182.043,1343.5,1170.043,1355.5,1158.043" style="stroke:#181818;stroke-width:0.5;"/><polygon fill="#F1F1F1" points="1226,1477.7852,1485,1477.7852,1497,1489.7852,1485,1501.7852,1226,1501.7852,1214,1489.7852,1226,1477.7852" style="stroke:#181818;stroke-width:0.5;"/><text fill="#000000" font-family="sans-serif" font-size="11" lengthAdjust="spacing" textLength="259" x="1226" y="1493.5933">for each node in ordered list of IncomingData</text><polygon fill="#F1F1F1" points="1355.5,1017.0742,1367.5,1029.0742,1355.5,1041.0742,1343.5,1029.0742,1355.5,1017.0742" style="stroke:#181818;stroke-width:0.5;"/><polygon fill="#F1F1F1" points="1256.5,1549.7852,1454.5,1549.7852,1466.5,1561.7852,1454.5,1573.7852,1256.5,1573.7852,1244.5,1561.7852,1256.5,1549.7852" style="stroke:#181818;stroke-width:0.5;"/><text fill="#000000" font-family="sans-serif" font-size="11" lengthAdjust="spacing" textLength="198" x="1256.5" y="1565.5933">for each node id in difference slice</text><rect fill="#F1F1F1" height="33.9688" rx="12.5" ry="12.5" style="stroke:#181818;stroke-width:0.5;" width="241" x="1235" y="1608.7852"/><text fill="#000000" font-family="sans-serif" font-size="12" lengthAdjust="spacing" textLength="221" x="1245" y="1629.9238">Create AppData with outgoing slice</text><rect fill="#F1F1F1" height="33.9688" rx="12.5" ry="12.5" style="stroke:#181818;stroke-width:0.5;" width="189" x="1261" y="1677.7539"/><text fill="#000000" font-family="sans-serif" font-size="12" lengthAdjust="spacing" textLength="169" x="1271" y="1698.8926">Send AppData to Pushable</text><rect fill="#F1F1F1" height="33.9688" rx="12.5" ry="12.5" style="stroke:#181818;stroke-width:0.5;" width="97" x="1307" y="1746.7227"/><text fill="#000000" font-family="sans-serif" font-size="12" lengthAdjust="spacing" textLength="77" x="1317" y="1767.8613">Return error</text><line style="stroke:#181818;stroke-width:1.0;" x1="630" x2="630" y1="418.8906" y2="453.8906"/><polygon fill="#181818" points="626,443.8906,630,453.8906,634,443.8906,630,447.8906" style="stroke:#181818;stroke-width:1.0;"/><line style="stroke:#181818;stroke-width:1.0;" x1="630" x2="630" y1="813.0938" y2="837.4961"/><polygon fill="#181818" points="626,827.4961,630,837.4961,634,827.4961,630,831.4961" style="stroke:#181818;stroke-width:1.0;"/><line style="stroke:#181818;stroke-width:1.0;" x1="654" x2="738" y1="801.0938" y2="801.0938"/><polygon fill="#181818" points="734,844.4805,738,854.4805,742,844.4805,738,848.4805" style="stroke:#181818;stroke-width:1.0;"/><line style="stroke:#181818;stroke-width:1.0;" x1="738" x2="738" y1="801.0938" y2="907.8672"/><line style="stroke:#181818;stroke-width:1.0;" x1="738" x2="642" y1="907.8672" y2="907.8672"/><polygon fill="#181818" points="652,903.8672,642,907.8672,652,911.8672,648,907.8672" style="stroke:#181818;stroke-width:1.0;"/><line style="stroke:#181818;stroke-width:1.0;" x1="630" x2="630" y1="871.4648" y2="895.8672"/><polygon fill="#181818" points="626,885.8672,630,895.8672,634,885.8672,630,889.8672" style="stroke:#181818;stroke-width:1.0;"/><line style="stroke:#181818;stroke-width:1.0;" x1="630" x2="630" y1="754.0938" y2="789.0938"/><polygon fill="#181818" points="626,779.0938,630,789.0938,634,779.0938,630,783.0938" style="stroke:#181818;stroke-width:1.0;"/><line style="stroke:#181818;stroke-width:1.0;" x1="630" x2="630" y1="919.8672" y2="954.8672"/><polygon fill="#181818" points="626,944.8672,630,954.8672,634,944.8672,630,948.8672" style="stroke:#181818;stroke-width:1.0;"/><line style="stroke:#181818;stroke-width:1.0;" x1="630" x2="630" y1="1047.8359" y2="1072.2383"/><polygon fill="#181818" points="626,1062.2383,630,1072.2383,634,1062.2383,630,1066.2383" style="stroke:#181818;stroke-width:1.0;"/><line style="stroke:#181818;stroke-width:1.0;" x1="654" x2="738" y1="1035.8359" y2="1035.8359"/><polygon fill="#181818" points="734,1079.2227,738,1089.2227,742,1079.2227,738,1083.2227" style="stroke:#181818;stroke-width:1.0;"/><line style="stroke:#181818;stroke-width:1.0;" x1="738" x2="738" y1="1035.8359" y2="1142.6094"/><line style="stroke:#181818;stroke-width:1.0;" x1="738" x2="642" y1="1142.6094" y2="1142.6094"/><polygon fill="#181818" points="652,1138.6094,642,1142.6094,652,1146.6094,648,1142.6094" style="stroke:#181818;stroke-width:1.0;"/><line style="stroke:#181818;stroke-width:1.0;" x1="630" x2="630" y1="1106.207" y2="1130.6094"/><polygon fill="#181818" points="626,1120.6094,630,1130.6094,634,1120.6094,630,1124.6094" style="stroke:#181818;stroke-width:1.0;"/><line style="stroke:#181818;stroke-width:1.0;" x1="630" x2="630" y1="988.8359" y2="1023.8359"/><polygon fill="#181818" points="626,1013.8359,630,1023.8359,634,1013.8359,630,1017.8359" style="stroke:#181818;stroke-width:1.0;"/><line style="stroke:#181818;stroke-width:1.0;" x1="630" x2="630" y1="1154.6094" y2="1189.6094"/><polygon fill="#181818" points="626,1179.6094,630,1189.6094,634,1179.6094,630,1183.6094" style="stroke:#181818;stroke-width:1.0;"/><line style="stroke:#181818;stroke-width:1.0;" x1="630" x2="630" y1="672.125" y2="720.125"/><polygon fill="#181818" points="626,710.125,630,720.125,634,710.125,630,714.125" style="stroke:#181818;stroke-width:1.0;"/><line style="stroke:#181818;stroke-width:1.0;" x1="736.5" x2="777.5" y1="1283.5781" y2="1283.5781"/><polygon fill="#181818" points="773.5,981.8516,777.5,971.8516,781.5,981.8516,777.5,977.8516" style="stroke:#181818;stroke-width:1.0;"/><line style="stroke:#181818;stroke-width:1.0;" x1="777.5" x2="777.5" y1="660.125" y2="1283.5781"/><line style="stroke:#181818;stroke-width:1.0;" x1="777.5" x2="642" y1="660.125" y2="660.125"/><polygon fill="#181818" points="652,656.125,642,660.125,652,664.125,648,660.125" style="stroke:#181818;stroke-width:1.0;"/><line style="stroke:#181818;stroke-width:1.0;" x1="630" x2="630" y1="1223.5781" y2="1271.5781"/><polygon fill="#181818" points="626,1261.5781,630,1271.5781,634,1261.5781,630,1265.5781" style="stroke:#181818;stroke-width:1.0;"/><line style="stroke:#181818;stroke-width:1.0;" x1="630" x2="630" y1="613.125" y2="648.125"/><polygon fill="#181818" points="626,638.125,630,648.125,634,638.125,630,642.125" style="stroke:#181818;stroke-width:1.0;"/><line style="stroke:#181818;stroke-width:1.0;" x1="630" x2="630" y1="1295.5781" y2="1330.5781"/><polygon fill="#181818" points="626,1320.5781,630,1330.5781,634,1320.5781,630,1324.5781" style="stroke:#181818;stroke-width:1.0;"/><line style="stroke:#181818;stroke-width:1.0;" x1="630" x2="630" y1="1364.5469" y2="1399.5469"/><polygon fill="#181818" points="626,1389.5469,630,1399.5469,634,1389.5469,630,1393.5469" style="stroke:#181818;stroke-width:1.0;"/><line style="stroke:#181818;stroke-width:1.0;" x1="630" x2="630" y1="1558.7813" y2="1593.7813"/><polygon fill="#181818" points="626,1583.7813,630,1593.7813,634,1583.7813,630,1587.7813" style="stroke:#181818;stroke-width:1.0;"/><line style="stroke:#181818;stroke-width:1.0;" x1="630" x2="630" y1="1627.75" y2="1662.75"/><polygon fill="#181818" points="626,1652.75,630,1662.75,634,1652.75,630,1656.75" style="stroke:#181818;stroke-width:1.0;"/><line style="stroke:#181818;stroke-width:1.0;" x1="630" x2="630" y1="1696.7188" y2="1731.7188"/><polygon fill="#181818" points="626,1721.7188,630,1731.7188,634,1721.7188,630,1725.7188" style="stroke:#181818;stroke-width:1.0;"/><line style="stroke:#181818;stroke-width:1.0;" x1="630" x2="630" y1="1906.6563" y2="1941.6563"/><polygon fill="#181818" points="626,1931.6563,630,1941.6563,634,1931.6563,630,1935.6563" style="stroke:#181818;stroke-width:1.0;"/><line style="stroke:#181818;stroke-width:1.0;" x1="792.5" x2="792.5" y1="2078.5938" y2="2113.5938"/><polygon fill="#181818" points="788.5,2103.5938,792.5,2113.5938,796.5,2103.5938,792.5,2107.5938" style="stroke:#181818;stroke-width:1.0;"/><line style="stroke:#181818;stroke-width:1.0;" x1="792.5" x2="792.5" y1="2147.5625" y2="2182.5625"/><polygon fill="#181818" points="788.5,2172.5625,792.5,2182.5625,796.5,2172.5625,792.5,2176.5625" style="stroke:#181818;stroke-width:1.0;"/><line style="stroke:#181818;stroke-width:1.0;" x1="576.5" x2="467.5" y1="2022.625" y2="2022.625"/><line style="stroke:#181818;stroke-width:1.0;" x1="467.5" x2="467.5" y1="2022.625" y2="2044.625"/><polygon fill="#181818" points="463.5,2034.625,467.5,2044.625,471.5,2034.625,467.5,2038.625" style="stroke:#181818;stroke-width:1.0;"/><line style="stroke:#181818;stroke-width:1.0;" x1="683.5" x2="792.5" y1="2022.625" y2="2022.625"/><line style="stroke:#181818;stroke-width:1.0;" x1="792.5" x2="792.5" y1="2022.625" y2="2044.625"/><polygon fill="#181818" points="788.5,2034.625,792.5,2044.625,796.5,2034.625,792.5,2038.625" style="stroke:#181818;stroke-width:1.0;"/><line style="stroke:#181818;stroke-width:1.0;" x1="467.5" x2="467.5" y1="2078.5938" y2="2234.5313"/><line style="stroke:#181818;stroke-width:1.0;" x1="467.5" x2="618" y1="2234.5313" y2="2234.5313"/><polygon fill="#181818" points="608,2230.5313,618,2234.5313,608,2238.5313,612,2234.5313" style="stroke:#181818;stroke-width:1.0;"/><line style="stroke:#181818;stroke-width:1.0;" x1="792.5" x2="792.5" y1="2216.5313" y2="2234.5313"/><line style="stroke:#181818;stroke-width:1.0;" x1="792.5" x2="642" y1="2234.5313" y2="2234.5313"/><polygon fill="#181818" points="652,2230.5313,642,2234.5313,652,2238.5313,648,2234.5313" style="stroke:#181818;stroke-width:1.0;"/><line style="stroke:#181818;stroke-width:1.0;" x1="630" x2="630" y1="1975.625" y2="2010.625"/><polygon fill="#181818" points="626,2000.625,630,2010.625,634,2000.625,630,2004.625" style="stroke:#181818;stroke-width:1.0;"/><line style="stroke:#181818;stroke-width:1.0;" x1="630" x2="630" y1="1824.6875" y2="1872.6875"/><polygon fill="#181818" points="626,1862.6875,630,1872.6875,634,1862.6875,630,1866.6875" style="stroke:#181818;stroke-width:1.0;"/><line style="stroke:#181818;stroke-width:1.0;" x1="761" x2="980.5" y1="2306.5313" y2="2306.5313"/><polygon fill="#181818" points="976.5,2069.6094,980.5,2059.6094,984.5,2069.6094,980.5,2065.6094" style="stroke:#181818;stroke-width:1.0;"/><line style="stroke:#181818;stroke-width:1.0;" x1="980.5" x2="980.5" y1="1812.6875" y2="2306.5313"/><line style="stroke:#181818;stroke-width:1.0;" x1="980.5" x2="642" y1="1812.6875" y2="1812.6875"/><polygon fill="#181818" points="652,1808.6875,642,1812.6875,652,1816.6875,648,1812.6875" style="stroke:#181818;stroke-width:1.0;"/><line style="stroke:#181818;stroke-width:1.0;" x1="630" x2="630" y1="2246.5313" y2="2294.5313"/><polygon fill="#181818" points="626,2284.5313,630,2294.5313,634,2284.5313,630,2288.5313" style="stroke:#181818;stroke-width:1.0;"/><line style="stroke:#181818;stroke-width:1.0;" x1="630" x2="630" y1="1765.6875" y2="1800.6875"/><polygon fill="#181818" points="626,1790.6875,630,1800.6875,634,1790.6875,630,1794.6875" style="stroke:#181818;stroke-width:1.0;"/><line style="stroke:#181818;stroke-width:1.0;" x1="630" x2="630" y1="2318.5313" y2="2353.5313"/><polygon fill="#181818" points="626,2343.5313,630,2353.5313,634,2343.5313,630,2347.5313" style="stroke:#181818;stroke-width:1.0;"/><line style="stroke:#181818;stroke-width:1.0;" x1="1355.5" x2="1355.5" y1="775.168" y2="810.168"/><polygon fill="#181818" points="1351.5,800.168,1355.5,810.168,1359.5,800.168,1355.5,804.168" style="stroke:#181818;stroke-width:1.0;"/><line style="stroke:#181818;stroke-width:1.0;" x1="1355.5" x2="1355.5" y1="844.1367" y2="879.1367"/><polygon fill="#181818" points="1351.5,869.1367,1355.5,879.1367,1359.5,869.1367,1355.5,873.1367" style="stroke:#181818;stroke-width:1.0;"/><line style="stroke:#181818;stroke-width:1.0;" x1="1355.5" x2="1355.5" y1="913.1055" y2="948.1055"/><polygon fill="#181818" points="1351.5,938.1055,1355.5,948.1055,1359.5,938.1055,1355.5,942.1055" style="stroke:#181818;stroke-width:1.0;"/><line style="stroke:#181818;stroke-width:1.0;" x1="1355.5" x2="1355.5" y1="1254.043" y2="1278.4453"/><polygon fill="#181818" points="1351.5,1268.4453,1355.5,1278.4453,1359.5,1268.4453,1355.5,1272.4453" style="stroke:#181818;stroke-width:1.0;"/><line style="stroke:#181818;stroke-width:1.0;" x1="1379.5" x2="1495" y1="1242.043" y2="1242.043"/><polygon fill="#181818" points="1491,1285.4297,1495,1295.4297,1499,1285.4297,1495,1289.4297" style="stroke:#181818;stroke-width:1.0;"/><line style="stroke:#181818;stroke-width:1.0;" x1="1495" x2="1495" y1="1242.043" y2="1348.8164"/><line style="stroke:#181818;stroke-width:1.0;" x1="1495" x2="1367.5" y1="1348.8164" y2="1348.8164"/><polygon fill="#181818" points="1377.5,1344.8164,1367.5,1348.8164,1377.5,1352.8164,1373.5,1348.8164" style="stroke:#181818;stroke-width:1.0;"/><line style="stroke:#181818;stroke-width:1.0;" x1="1355.5" x2="1355.5" y1="1312.4141" y2="1336.8164"/><polygon fill="#181818" points="1351.5,1326.8164,1355.5,1336.8164,1359.5,1326.8164,1355.5,1330.8164" style="stroke:#181818;stroke-width:1.0;"/><line style="stroke:#181818;stroke-width:1.0;" x1="1355.5" x2="1355.5" y1="1360.8164" y2="1395.8164"/><polygon fill="#181818" points="1351.5,1385.8164,1355.5,1395.8164,1359.5,1385.8164,1355.5,1389.8164" style="stroke:#181818;stroke-width:1.0;"/><line style="stroke:#181818;stroke-width:1.0;" x1="1355.5" x2="1355.5" y1="1182.043" y2="1230.043"/><polygon fill="#181818" points="1351.5,1220.043,1355.5,1230.043,1359.5,1220.043,1355.5,1224.043" style="stroke:#181818;stroke-width:1.0;"/><line style="stroke:#181818;stroke-width:1.0;" x1="1497" x2="1519" y1="1489.7852" y2="1489.7852"/><polygon fill="#181818" points="1515,1339.9141,1519,1329.9141,1523,1339.9141,1519,1335.9141" style="stroke:#181818;stroke-width:1.0;"/><line style="stroke:#181818;stroke-width:1.0;" x1="1519" x2="1519" y1="1170.043" y2="1489.7852"/><line style="stroke:#181818;stroke-width:1.0;" x1="1519" x2="1367.5" y1="1170.043" y2="1170.043"/><polygon fill="#181818" points="1377.5,1166.043,1367.5,1170.043,1377.5,1174.043,1373.5,1170.043" style="stroke:#181818;stroke-width:1.0;"/><line style="stroke:#181818;stroke-width:1.0;" x1="1355.5" x2="1355.5" y1="1429.7852" y2="1477.7852"/><polygon fill="#181818" points="1351.5,1467.7852,1355.5,1477.7852,1359.5,1467.7852,1355.5,1471.7852" style="stroke:#181818;stroke-width:1.0;"/><line style="stroke:#181818;stroke-width:1.0;" x1="1355.5" x2="1355.5" y1="1123.043" y2="1158.043"/><polygon fill="#181818" points="1351.5,1148.043,1355.5,1158.043,1359.5,1148.043,1355.5,1152.043" style="stroke:#181818;stroke-width:1.0;"/><line style="stroke:#181818;stroke-width:1.0;" x1="1355.5" x2="1355.5" y1="1041.0742" y2="1089.0742"/><polygon fill="#181818" points="1351.5,1079.0742,1355.5,1089.0742,1359.5,1079.0742,1355.5,1083.0742" style="stroke:#181818;stroke-width:1.0;"/><line style="stroke:#181818;stroke-width:1.0;" x1="1466.5" x2="1622.5" y1="1561.7852" y2="1561.7852"/><polygon fill="#181818" points="1618.5,1305.4297,1622.5,1295.4297,1626.5,1305.4297,1622.5,1301.4297" style="stroke:#181818;stroke-width:1.0;"/><line style="stroke:#181818;stroke-width:1.0;" x1="1622.5" x2="1622.5" y1="1029.0742" y2="1561.7852"/><line style="stroke:#181818;stroke-width:1.0;" x1="1622.5" x2="1367.5" y1="1029.0742" y2="1029.0742"/><polygon fill="#181818" points="1377.5,1025.0742,1367.5,1029.0742,1377.5,1033.0742,1373.5,1029.0742" style="stroke:#181818;stroke-width:1.0;"/><line style="stroke:#181818;stroke-width:1.0;" x1="1355.5" x2="1355.5" y1="1501.7852" y2="1549.7852"/><polygon fill="#181818" points="1351.5,1539.7852,1355.5,1549.7852,1359.5,1539.7852,1355.5,1543.7852" style="stroke:#181818;stroke-width:1.0;"/><line style="stroke:#181818;stroke-width:1.0;" x1="1355.5" x2="1355.5" y1="982.0742" y2="1017.0742"/><polygon fill="#181818" points="1351.5,1007.0742,1355.5,1017.0742,1359.5,1007.0742,1355.5,1011.0742" style="stroke:#181818;stroke-width:1.0;"/><line style="stroke:#181818;stroke-width:1.0;" x1="1355.5" x2="1355.5" y1="1573.7852" y2="1608.7852"/><polygon fill="#181818" points="1351.5,1598.7852,1355.5,1608.7852,1359.5,1598.7852,1355.5,1602.7852" style="stroke:#181818;stroke-width:1.0;"/><line style="stroke:#181818;stroke-width:1.0;" x1="1355.5" x2="1355.5" y1="1642.7539" y2="1677.7539"/><polygon fill="#181818" points="1351.5,1667.7539,1355.5,1677.7539,1359.5,1667.7539,1355.5,1671.7539" style="stroke:#181818;stroke-width:1.0;"/><line style="stroke:#181818;stroke-width:1.0;" x1="1355.5" x2="1355.5" y1="1711.7227" y2="1746.7227"/><polygon fill="#181818" points="1351.5,1736.7227,1355.5,1746.7227,1359.5,1736.7227,1355.5,1740.7227" style="stroke:#181818;stroke-width:1.0;"/><!--SRC=[pLTDRzim3BttLn2zB1xQ_O0M651qmz01QuUcm0v53vf5nq8TIPFeji7G_pvA_eYTs76o3SDygMk9rECZ7yK005ZXI94o6ZxFRwxXumivaP9nyFC8wiVRGb7xt-bzhgH4_N3wllrcHVee5WXBeNJ7C3mBPqeR5sR9nb9upYv5KS0StHEwTxUblh3sV6kJH19ftllyUhJz5d62MF1PUw7r-AD4dQBRmDMFTypBEhWBAR-MFXVV2vozdJTEJw3vc00wPznGz6pQRWCoq5g3qfu4lnt8nXfLvBI3PmUADCVqqOFA03aDAygLNe3oa1hdCALYnLGniLf2fhJoEVe_G4MbxR5qQNIc5bFe0hWqxWp0J1QOmZ9ugEo1LdQ0gpF11DTsVvVUfdXkCIsTLqorCuQkZKIuqgbPCeKV18aJqFpfIjwPiFH512dOUq-Ern-w6nEOtVS-m4b5oQ1gKeU2471fYPDJg1G39rtpxS0SMZRQ-Xpz5SOy0aULvggG4J8pj0dzVD2M4pDJMGAKeuPPnu4qwFKR0dnHdf91stYsuv9mkXTBABKO_F2HgANAZaQSrUc0D3GMpdcJA2XzAEi0RPz0Akx_4MfXBQzoXdnPK0GT78wb49wPP8HPndf1hjKsNpTEeaDv6N9m9NqoB8UsJiVFQQ8RMJvG8jyKvNEsUFpl9J9Y5C7lPxcr5Puv-fRp0KFBxR-Va-3YCFbQOwiYo9nPLWxsn5rX3rBvX7IDBrGN3nWzAHNU09fDggxH28TSYJjq4yDLMdCFrjqYd4vEr53XG-4B_ZDrXkxIUG0RUsHp7NJTL9GydqApDlaDJCEjezyDIasgsE4vt9knhfFTSfzEnAJyXmQnwJ5gpb7UcTvimDDW9VpHuQ2ULwlXLJWdLY13iF5mJw4cUz4mGQvCQK27brNAkVS41ggM6fCLNdrixjjht8AVXGkTE-FEEpXFdB6mWDDNRnXrliih23_QgclSfgI52RNO9f4lbS3AOPqajeBZfdCVmn8fDp82BAsC1rMN31HygxCKbVFnnYe4N_BxYNZ7-Tlti3O4rI6eoQt6LH_XrnZhq2krMeTFofI-ONXSgkCtTFUMRfnpq7tITqKxUcVtwDoWBpbi0931NwVI8gXaj69gSLKaJKLo5jJPcd3epQ-MWQstzMWqF0fDTezmKFyds7gzl_Rw2m00]--></g></svg>